<svg width="48" height="49" viewBox="0 0 48 49" fill="none" xmlns="http://www.w3.org/2000/svg">
<path d="M47.9998 24.3619C48.0207 29.1086 46.6336 33.7549 44.0139 37.7133C41.3942 41.6716 37.6596 44.7643 33.2822 46.6001C28.9049 48.4359 24.0814 48.9325 19.4219 48.0271C14.7623 47.1216 10.4759 44.8548 7.10463 41.5132C3.73338 38.1716 1.42872 33.9054 0.482101 29.254C-0.464521 24.6026 -0.0105956 19.775 1.78648 15.3816C3.58355 10.9882 6.64305 7.22632 10.5781 4.57173C14.5131 1.91714 19.147 0.489037 23.8937 0.468009C27.0454 0.454047 30.169 1.06101 33.0862 2.25424C36.0034 3.44747 38.6569 5.2036 40.8954 7.42236C43.1338 9.64112 44.9134 12.2791 46.1323 15.1856C47.3513 18.0921 47.9859 21.2102 47.9998 24.3619Z" fill="#8DC63F"/>
<path d="M46.1998 24.3701C46.2215 28.7604 44.9406 33.0585 42.5193 36.7207C40.0979 40.383 36.6449 43.245 32.5969 44.9447C28.5488 46.6444 24.0877 47.1055 19.7776 46.2696C15.4675 45.4337 11.5021 43.3384 8.38293 40.2487C5.26376 37.159 3.13094 33.2137 2.25421 28.9118C1.37748 24.6099 1.79622 20.1446 3.45748 16.0807C5.11874 12.0168 7.94788 8.5368 11.5871 6.08088C15.2263 3.62496 19.5121 2.30342 23.9025 2.28342C29.7876 2.25752 35.4422 4.56948 39.6233 8.71109C43.8044 12.8527 46.1699 18.485 46.1998 24.3701Z" fill="#F9E988"/>
<path d="M24.4085 3.71323C25.8195 3.46278 27.2636 3.46278 28.6746 3.71323C30.0992 3.9391 31.4762 4.40048 32.7493 5.07847C34.0154 5.77413 35.1093 6.71849 36.198 7.60372C37.2867 8.48896 38.3702 9.39506 39.4015 10.3864C40.4544 11.3622 41.3731 12.4733 42.1337 13.6908C42.9166 14.8987 43.5585 16.1924 44.0467 17.5465C44.9737 20.27 45.2954 23.204 44.8328 26.0023H44.6954C44.2311 23.2283 43.6015 20.5848 42.6085 18.07C42.1423 16.8059 41.5939 15.5737 40.9667 14.3812C40.3126 13.1821 39.5915 12.0209 38.8067 10.9029C38.009 9.77678 37.0312 8.78966 35.9128 7.98112C34.7859 7.17763 33.4902 6.65762 32.2363 6.1637C30.9824 5.66978 29.7389 5.16369 28.4311 4.78803C27.1233 4.41237 25.7946 4.13063 24.4067 3.85758L24.4085 3.71323Z" fill="white"/>
<path d="M35.2593 16.5358C33.6488 16.0697 31.9793 15.4089 30.2888 14.741C30.1914 14.3167 29.8158 13.788 29.0558 13.1428C27.9514 12.1845 25.8766 12.2088 24.0836 12.6332C22.1045 12.1671 20.1497 12.0019 18.2732 12.4593C2.92534 16.6871 11.6279 27.002 5.99316 37.3709C6.7949 39.0717 15.4366 48.9953 27.941 46.3327C27.941 46.3327 23.6645 36.0561 33.3149 31.1238C41.1427 27.1081 46.7984 19.6785 35.2593 16.5358Z" fill="#8BC53F"/>
<path d="M37.1548 23.285C37.1558 23.4691 37.1023 23.6493 37.0009 23.803C36.8995 23.9566 36.7549 24.0767 36.5852 24.1481C36.4156 24.2195 36.2287 24.239 36.048 24.2041C35.8673 24.1692 35.701 24.0815 35.5702 23.952C35.4393 23.8226 35.3498 23.6572 35.3129 23.4769C35.2759 23.2965 35.2933 23.1093 35.3628 22.9388C35.4322 22.7683 35.5507 22.6223 35.7031 22.5192C35.8555 22.416 36.0351 22.3604 36.2191 22.3594C36.4658 22.3585 36.7027 22.4553 36.8781 22.6288C37.0535 22.8023 37.153 23.0382 37.1548 23.285Z" fill="white"/>
<path d="M24.083 12.6246C25.2013 12.7047 29.2447 14.0171 30.2882 14.7342C29.4186 12.2104 26.4917 11.8744 24.083 12.6246Z" fill="#009345"/>
<path d="M25.1478 19.0041C25.1481 19.8529 24.8968 20.6828 24.4254 21.3888C23.9541 22.0948 23.2839 22.6452 22.4998 22.9703C21.7156 23.2955 20.8527 23.3809 20.02 23.2156C19.1873 23.0503 18.4224 22.6419 17.8219 22.0419C17.2213 21.4419 16.8122 20.6773 16.6463 19.8448C16.4803 19.0123 16.565 18.1493 16.8895 17.3649C17.2141 16.5806 17.7639 15.91 18.4696 15.4382C19.1752 14.9663 20.005 14.7142 20.8539 14.7139C21.9917 14.7139 23.0829 15.1656 23.8877 15.9697C24.6925 16.7739 25.1451 17.8646 25.1461 19.0023L25.1478 19.0041Z" fill="white"/>
<path d="M23.8746 19.0414C23.8746 19.6385 23.6976 20.2222 23.3658 20.7187C23.0341 21.2151 22.5626 21.6021 22.0109 21.8306C21.4592 22.0591 20.8522 22.1189 20.2665 22.0024C19.6809 21.8859 19.1429 21.5984 18.7207 21.1761C18.2985 20.7539 18.0109 20.216 17.8944 19.6304C17.7779 19.0448 17.8377 18.4378 18.0662 17.8861C18.2948 17.3345 18.6817 16.863 19.1782 16.5312C19.6747 16.1995 20.2584 16.0225 20.8555 16.0225C21.6562 16.0225 22.4242 16.3405 22.9904 16.9067C23.5565 17.4729 23.8746 18.2407 23.8746 19.0414Z" fill="#58595B"/>
<path d="M40.6314 25.178C37.1531 27.6285 33.1983 29.4876 27.5879 29.4876C24.9618 29.4876 24.4297 26.705 22.694 28.065C21.7984 28.7711 18.6401 30.3503 16.134 30.2303C13.6279 30.1103 9.56534 28.6424 8.43317 23.291C7.98447 28.6424 7.75491 32.5816 5.73926 37.0982C9.73925 43.5035 19.2766 48.4444 27.934 46.3157C27.0105 39.82 32.6957 33.4581 35.8853 30.2076C37.1027 28.9746 39.4157 26.9624 40.6314 25.1797V25.178Z" fill="#8BC53F"/>
<path d="M40.4957 25.3371C39.4157 26.3214 38.1305 27.05 36.8227 27.6934C35.4986 28.3212 34.1187 28.8237 32.7009 29.1941C31.2818 29.561 29.8018 29.8375 28.3027 29.7019C26.8035 29.5663 25.2714 29.0567 24.2783 27.9334L24.3253 27.8795C25.5427 28.6689 26.9479 28.9472 28.3461 28.9872C29.7634 29.0307 31.1811 28.9141 32.5722 28.6394C33.9774 28.3449 35.3521 27.9199 36.6783 27.37C38.0053 26.8222 39.3183 26.1875 40.4487 25.2832L40.4957 25.3371Z" fill="#58595B"/>
</svg>
