<svg id="Layer_1" data-name="Layer 1" xmlns="http://www.w3.org/2000/svg" viewBox="0 0 1160.29 498.95"><title>bitcoin-insider</title><g id="AwL2dT"><path d="M250,498.94C110.06,499.75-4.56,383.69.14,240.73,4.52,107.38,113.46,1.06,248.09,0,308.38-.46,362.89,18.76,409,57.85,470.54,110,501.16,177.32,498.78,258.1c-1.95,66.35-27.56,123.49-75.07,169.89C375.59,475,317.21,498.2,250,498.94ZM63,383.87c8.48,6.57,12.62,15.89,19.82,22.29,7.45,6.61,14.37,13.85,22.1,20.1a242.07,242.07,0,0,0,24.67,17.53,221.65,221.65,0,0,0,26.34,14,231.31,231.31,0,0,0,28.46,10.45,226.86,226.86,0,0,0,29.43,6.78,222.45,222.45,0,0,0,29.73,2.51,246.14,246.14,0,0,0,30.36-1.2,222,222,0,0,0,58-14,240.33,240.33,0,0,0,27.49-12.88,224.12,224.12,0,0,0,25.08-15.82,226.81,226.81,0,0,0,23-19.39,223.35,223.35,0,0,0,20.13-22,230.69,230.69,0,0,0,17.21-24.87,256.89,256.89,0,0,0,13.9-26.95,216.93,216.93,0,0,0,10.59-27.74,207.35,207.35,0,0,0,5.91-28.73,236.43,236.43,0,0,0,2.55-29.58A242.91,242.91,0,0,0,476.47,224C464,106.33,357.37,8.37,225.51,22.22c-61.36,6.45-112.84,33.54-151.76,81.44C19.63,170.27,8.28,245.49,33.82,327.23c-1.43-.45-2.36-.75-3.29-1s-1.83-.5-2.74-.75c5.75,2,8.3,6.16,10.52,11.64a207.28,207.28,0,0,0,23.58,43A8.73,8.73,0,0,1,63,383.87Zm20.24,31.38,0-1.7L79,412.91v-4.4l-1.37-.19L76,417.62Z" style="fill:#28241e"/><path d="M1160.29,215.3c-5.53,0-10.7.29-15.8-.17-1.65-.14-3.55-1.93-4.6-3.47-12.13-17.9-24.09-35.92-36.17-53.85-1.57-2.33-3.57-4.38-6.21-7.58V215h-22.22V115.36c5.68,0,11.43-.18,17.15.14,1.32.08,2.79,1.73,3.76,3q19.18,24.93,38.22,50c1.08,1.41,2.07,2.89,3.81,5.35V115.66h22.06Z"/><path d="M612.92,160.73c14.23,8.35,18.68,18.67,14.51,33.39-2.69,9.46-9.33,15.06-18.26,18.29-13.51,4.89-27.51,4.18-41.47,3.41A98.66,98.66,0,0,1,553.36,214c-1.33-.28-3.24-2.45-3.25-3.77q-.27-44.92,0-89.87c0-1.34,1.81-3.68,3-3.86,16-2.37,32.11-3.62,48.13-.08,15.46,3.41,23.32,13.43,22.37,27.76C623.13,151.68,618.6,156.53,612.92,160.73Zm-41.12,10.1c0,8.86-.1,16.66.12,24.44,0,.95,1.76,2.67,2.66,2.64,7.27-.26,14.66-.18,21.76-1.53s9.83-5.81,9.55-12.55c-.25-6.25-3.46-10.38-10.44-11.39C587.93,171.36,580.25,171.35,571.8,170.83Zm0-16c7.91-.6,15.08-.73,22.1-1.8,5.46-.83,8.18-4.76,8.19-9.82s-2.62-8.87-8.25-9.68c-6.38-.91-12.91-.87-19.38-.93-.88,0-2.51,1.72-2.54,2.69C571.68,141.4,571.8,147.54,571.8,154.82Z"/><path d="M994.91,166.32c-1.68,7.42-2.51,15.16-5.21,22.19-7.91,20.64-29.14,31.83-52.34,28.38-28.38-4.22-44.63-25.25-42.62-55.39,1.27-19.07,8.83-34.73,26.81-43s36.16-7.45,52.7,4C989.3,132.85,993.91,148.6,994.91,166.32Zm-23.68-2.62c-1-4.24-1.75-10.1-3.87-15.41-4-10-12-14.82-22.7-14.94-10.9-.12-18.87,4.82-23.37,14.8-4.13,9.14-4.46,18.73-2.1,28.35,3.34,13.64,12.46,20.93,25.54,20.79,12.64-.14,21.75-7.8,24.78-21.13C970.32,172.62,970.53,168.94,971.23,163.7Z"/><path d="M721.77,358.94c-.72.17-1,.26-1.37.32-11.37,1.87-18.82-1.36-24.67-12.7-7.35-14.22-17.73-26.89-26.92-40.15-2.25-3.25-5-6.18-8.36-10.36v63H638.84V262.36c5.54,0,11.14-.23,16.69.15,1.46.11,3.06,1.9,4.13,3.28q18.45,23.9,36.74,47.91c1.07,1.38,2.06,2.82,3.85,5.28V262.66h21.52Z"/><path d="M873.05,263.59c17.24-2.36,34.27-4.07,51.22.4,20.21,5.33,32,19.67,33,40.53A81.35,81.35,0,0,1,956,324.85c-4,19.18-18.44,32.06-39.9,34.1-13.12,1.24-26.49-.28-39.75-.54-2.6-.06-3.8-1-3.79-3.92.09-29.63.07-59.25.09-88.88A12.8,12.8,0,0,1,873.05,263.59Zm21.67,16.9v60.08c14.67,3,29-1.54,35.29-11,6.79-10.16,7-28.71-.08-38.45C921,278.94,907.91,280.24,894.72,280.49Z"/><path d="M1118.87,318.81l24,40.47c-9.1,0-16.5.14-23.88-.14-1.15-.05-2.51-1.85-3.29-3.14-5.19-8.52-10.52-17-15.25-25.74-3.61-6.68-8.69-8.35-15.92-6.36v35h-22v-5.49c0-27.81.1-55.62-.11-83.43,0-4.6.81-6.69,5.92-7.24,14.3-1.51,28.54-2.64,42.71.65,19,4.4,27.65,17.34,24.43,36C1133.81,309.27,1127.16,314.89,1118.87,318.81Zm-34.21-11.63c7.69-1.06,14.78-1.61,21.66-3.13,4.61-1,6.88-4.87,7.16-9.69.27-4.63-.79-8.73-5.21-11-7.54-3.81-15.52-3.44-23.61-2.6Z"/><path d="M976.94,262.52h65V280H998.85v19.09h38.07v18H998.81v24H1045V359H976.94Z"/><path d="M805.5,267.53l-5.64,15.63c-8-1.35-15.45-2.69-22.9-3.78a18.49,18.49,0,0,0-5.44.56c-3.9.65-7,2.42-7.68,6.7-.75,4.47,1.65,7.42,5.29,9.27s7.64,3.22,11.47,4.83c4.6,1.93,9.32,3.63,13.76,5.88,13.81,7,19.39,21.1,14.45,35.84-2.25,6.7-6.76,11.36-13,14.43-14.33,7-41.76,5.56-56-3.27l6-17.37a56.09,56.09,0,0,0,27.83,6,35.58,35.58,0,0,0,6.41-.89c3.76-.88,6.83-2.62,7.51-6.95.71-4.49-.9-8-4.8-10.09-4.41-2.3-9.11-4-13.65-6.07-5.59-2.52-11.63-4.42-16.62-7.84-15.45-10.56-14.8-33.69.86-44C766.28,257.89,792.09,258.34,805.5,267.53Z"/><path d="M879.83,119.71c-2.64,7.42-4.68,13.18-6.42,18.06-8.39-1.54-16.29-3.89-24.28-4.27-15.47-.72-26.42,9.35-27.6,24.82a69.48,69.48,0,0,0,.92,18.33c2.49,12.78,11.56,20.57,24.63,20.39,9.13-.13,18.24-2.19,28.15-3.49,1.53,4.43,3.51,10.16,5.89,17-6.69,2-12.89,4.68-19.31,5.42a108.34,108.34,0,0,1-25.32.25c-18.91-2.28-31.26-13-36.35-31.51a66.36,66.36,0,0,1-.06-37c8.11-27.42,32.21-36.94,56.61-33.89C864.29,114.84,871.67,117.6,879.83,119.71Z"/><path d="M753,215.15H730.57V134.36h-30v-18.7h82V134.2H753Z"/><path d="M655.39,115.46h21.68V215H655.39Z"/><path d="M1021.39,115.46h21.68V215h-21.68Z"/><path d="M593.94,262.44h21.15V359H593.94Z"/><path d="M849.09,359.17H827.94V262.62h21.15Z"/><path d="M83.22,415.25,76,417.62l1.68-9.3,1.37.19v4.4l4.21.64Z" style="fill:#28241e"/><path d="M249.22,428.15c-97.91,1-176.57-80.06-178.63-174.24-2.27-103,80.83-181.6,174.76-183.34,102.2-1.88,183.84,81.17,183.11,180.54C427.74,348,347.33,429.47,249.22,428.15ZM325.8,238a26.25,26.25,0,0,1,2.08-1.7c11.61-7.84,18.64-18.5,20.22-32.58,1.87-16.68-2.57-30.87-16.52-41.07-12.66-9.24-27.36-13.27-42.56-15.8-3.08-.52-6.19-.86-9.8-1.36v-45H250.94V145H232.12V100.62H204.3v44.81H148.51V174h20.11c11.14,0,14.8,3.53,14.81,14.46q0,46,0,91.95c0,10.82.07,21.65-.44,32.45-.35,7.29-4.46,10.55-11.8,10.57-6.62,0-13.23,0-20.44,0v29.65H204.5v45.52h28.05V353.21h19v45h28v-45.1c6.7-.31,13-.5,19.26-.91,13.22-.86,25.92-3.88,37.28-10.84,19-11.64,25.51-30,26.44-51.11.71-16.38-3.95-30.64-17.32-40.8C339.39,245,332.51,241.88,325.8,238Z" style="fill:#28241e"/><path d="M256.65,258.7c10.92,1.64,22,2.69,32.73,5.11,10,2.26,17.49,8.46,18.85,19.3,1.67,13.27-4.75,26-15,31.36a53.49,53.49,0,0,1-24.37,6.27c-10.65.14-21.3-.07-31.95.09-3.31,0-4.69-.72-4.64-4.4.2-17.3.19-34.61.08-51.92,0-3.51,1.24-4.69,4.63-4.6,6.49.15,13,0,19.47,0Z" style="fill:#28241e"/><path d="M232.63,231.89V175.66c7.25,0,14.49-.33,21.69.08,10.71.62,21.4,1.35,30.88,7.61a19.9,19.9,0,0,1,9,13.12c3,14.88-4.48,28.27-18.45,33.55a28.81,28.81,0,0,1-9.56,1.78C255.09,232,244,231.89,232.63,231.89Z" style="fill:#28241e"/></g></svg>