<svg width="193" height="36" viewBox="0 0 193 36" fill="none" xmlns="http://www.w3.org/2000/svg">
<path d="M0 0.290039H14.1493C16.8444 0.290039 18.8657 0.963815 20.363 2.08677C22.01 3.43433 22.9084 5.38079 22.9084 7.77644C22.9084 10.5464 21.7854 12.2683 19.5395 13.3164V13.4661C22.5341 14.4393 24.2559 17.1344 24.2559 20.3536C24.2559 23.423 23.0581 25.8186 21.1116 27.3159C19.4646 28.5138 17.3684 29.0378 14.5236 29.0378H0V0.290039ZM12.7269 11.5196C14.2242 11.5196 15.3471 10.6961 15.3471 8.97426C15.3471 7.32725 14.2241 6.50375 12.652 6.50375H7.78585V11.4448H12.7269V11.5196ZM13.4006 22.6744C15.1225 22.6744 16.3952 21.6263 16.3952 19.7547C16.3952 17.7333 15.0477 16.835 13.4006 16.835H7.86071V22.7492H13.4006V22.6744Z" fill="white"/>
<path d="M25.5283 0.290039H32.9398V29.1127H25.5283V0.290039Z" fill="white"/>
<path d="M34.4375 18.8563C34.4375 12.3431 38.6299 8.00098 45.143 8.00098C51.6562 8.00098 55.7737 12.4179 55.7737 18.8563C55.7737 25.3694 51.6562 29.7115 45.143 29.7115C38.6299 29.7115 34.4375 25.3694 34.4375 18.8563ZM48.3622 18.8563C48.3622 15.2628 47.2392 13.0169 44.9933 13.0169C42.7474 13.0169 41.6993 15.2628 41.6993 18.8563C41.6993 22.4497 42.7474 24.7705 44.9933 24.7705C47.2392 24.6956 48.3622 22.4497 48.3622 18.8563Z" fill="white"/>
<path d="M56.5977 18.8563C56.5977 12.3431 60.79 8.00098 67.3032 8.00098C73.8164 8.00098 77.859 12.3431 77.859 18.8563C77.859 25.3694 73.7415 29.7115 67.2283 29.7115C60.79 29.7115 56.5977 25.3694 56.5977 18.8563ZM70.5223 18.8563C70.5223 15.2628 69.3994 13.0169 67.1535 13.0169C64.9075 13.0169 63.8595 15.2628 63.8595 18.8563C63.8595 22.4497 64.9075 24.7705 67.1535 24.7705C69.3994 24.6956 70.5223 22.4497 70.5223 18.8563Z" fill="white"/>
<path d="M79.3564 8.52567H86.2439V11.5951H86.3937C87.7412 9.19945 89.6128 7.92676 92.6074 7.92676C95.2276 7.92676 97.1741 9.19945 98.1473 11.4454H98.297C99.944 8.75026 102.115 7.92676 104.66 7.92676C109.452 7.92676 111.473 11.4454 111.473 16.1618V29.0384H104.286V17.4345C104.286 15.3383 103.612 13.9907 101.816 13.9907C100.019 13.9907 99.1205 15.6377 99.1205 17.8837V29.0384H91.9336V17.4345C91.9336 15.3383 91.2598 13.9907 89.4631 13.9907C87.6663 13.9907 86.768 15.6377 86.768 17.8837V29.0384H79.3564V8.52567Z" fill="white"/>
<path d="M120.531 26.3427H120.456V29.0378H113.568V0.290039H120.755V10.6213H120.905C122.253 8.82453 124.124 7.8513 126.744 7.8513C131.91 7.8513 134.905 12.4929 134.905 18.7066C134.905 25.6689 131.685 29.7116 126.295 29.7116C124.049 29.7116 121.729 28.6635 120.531 26.3427ZM127.493 18.6317C127.493 15.3377 126.295 13.1666 124.124 13.1666C121.878 13.1666 120.531 15.3377 120.531 18.6317C120.531 21.9257 121.953 24.0968 124.124 24.0968C126.295 24.0968 127.493 22.0006 127.493 18.6317Z" fill="white"/>
<path d="M135.729 18.782C135.729 12.3437 139.996 7.92676 146.135 7.92676C149.204 7.92676 151.525 8.89999 153.322 10.6219C155.717 12.9426 156.765 16.5361 156.69 20.7285H142.915C143.215 23.2739 144.413 24.6214 146.584 24.6214C147.856 24.6214 148.979 24.0225 149.429 22.675H156.391C155.193 27.3914 151.525 29.7122 146.359 29.7122C139.996 29.6373 135.729 25.2952 135.729 18.782ZM142.915 16.611H149.504C149.354 14.1405 148.006 12.8678 146.284 12.8678C144.263 12.7929 143.14 14.2153 142.915 16.611Z" fill="white"/>
<path d="M164.85 12.044H165C166.497 9.19913 168.444 8.07617 170.914 8.07617C171.513 8.07617 171.888 8.15104 172.112 8.30076V14.5893H171.962C167.695 13.8407 165.225 15.862 165.225 20.5036V29.1129H157.963V8.52536H164.85V12.044Z" fill="white"/>
<path d="M172.862 29.1119H179.824C180.123 30.0103 181.022 30.8338 182.744 30.8338C185.064 30.8338 185.888 29.4114 185.888 27.2403V25.7431H185.738C184.615 27.0906 183.043 28.0639 180.797 28.0639C176.38 28.0639 172.487 24.7698 172.487 18.3315C172.487 12.4173 175.632 7.85059 180.423 7.85059C183.193 7.85059 184.84 8.97355 185.963 10.6954H186.113V8.4495H193V26.2671C193 29.5611 191.877 32.1065 190.155 33.6038C188.358 35.1759 185.813 35.8497 182.893 35.8497C177.353 35.9246 173.535 33.6786 172.862 29.1119ZM186.187 18.0321C186.187 15.4867 184.99 13.3905 182.893 13.3905C180.872 13.3905 179.599 15.1873 179.599 18.0321C179.599 20.802 180.872 22.7485 182.893 22.7485C184.915 22.7485 186.187 20.7272 186.187 18.0321Z" fill="white"/>
</svg>
