<svg id="Layer_1" data-name="Layer 1" xmlns="http://www.w3.org/2000/svg" viewBox="0 0 214.79 63.71"><title>coindar</title><g id="UBl2JN"><path d="M45.09,41.74l-8.83-1.27-7,7L14.21,62.52A3,3,0,0,1,12,63.71a2.34,2.34,0,0,1-2.16-1.17,2.31,2.31,0,0,1,0-2.59A8.79,8.79,0,0,1,11,58.7q9.79-9.8,19.61-19.59a9.36,9.36,0,0,1,1.09-.89l-5-4.93v-.55a9.7,9.7,0,0,1-1,1.37Q16,43.88,6.27,53.61a8.07,8.07,0,0,1-1,.94A2.39,2.39,0,0,1,2,54.27a2.4,2.4,0,0,1-.14-3.2,9.85,9.85,0,0,1,.95-1Q13,39.85,23.24,29.62c.4-.39.86-.71,1.33-1.09a21.46,21.46,0,0,1-1.37-9.38c-.62.58-1,.93-1.4,1.31q-8.52,8.5-17,17A3.1,3.1,0,0,1,2.6,38.71,2.33,2.33,0,0,1,.33,37.46a2.39,2.39,0,0,1,.11-2.59,6.77,6.77,0,0,1,.92-1Q14.71,20.49,28.06,7.13A22.76,22.76,0,0,1,39.29.51,20.71,20.71,0,0,1,64,15.82a20.15,20.15,0,0,1-5.57,19.72c-8.59,8.73-17.32,17.3-26,25.93a12.1,12.1,0,0,1-1.1,1.05A2.47,2.47,0,0,1,28,62.34,2.42,2.42,0,0,1,27.88,59a11.11,11.11,0,0,1,.95-1L44.67,42.21C44.84,42,45,41.84,45.09,41.74Zm14.53-21A15.77,15.77,0,1,0,43.84,36.54,15.75,15.75,0,0,0,59.62,20.76Z" style="fill:#fff"/><path d="M203.62,48.52h1.49c1.23,1.2,2.36,2.91,4.45,1.86,1.76-.88,1.36-2.64,1.48-4.2a13.11,13.11,0,0,1-2.85,1.06c-3.16.41-5.41-1.16-5.84-4.34a24.29,24.29,0,0,1,0-7c.64-4.17,4.65-5.69,8.17-3.32l.37.23a6.91,6.91,0,0,1,.94-.79,1.9,1.9,0,0,1,2.87,1.38,3.82,3.82,0,0,1,.08.75c0,4.82,0,9.64-.11,14.46a6,6,0,0,1-4.36,5.46,6.83,6.83,0,0,1-6.92-2C202.27,50.72,202.31,49.74,203.62,48.52Zm2.28-9.11a23.41,23.41,0,0,0,.24,2.41,2.12,2.12,0,0,0,2.27,1.8c1.23,0,2.18-.52,2.31-1.71a24,24,0,0,0,0-4.94,2.07,2.07,0,0,0-2.29-1.77A2.19,2.19,0,0,0,206.15,37,21.45,21.45,0,0,0,205.9,39.41Z" style="fill:#fff"/><path d="M137.89,32.89c0-1.92,0-3.59,0-5.26,0-1.34.59-2,1.74-2s1.8.49,2,1.81a12.79,12.79,0,0,1,.07,1.52q0,7.75,0,15.51c0,.46,0,.91,0,1.37a1.81,1.81,0,0,1-1.25,1.88,1.93,1.93,0,0,1-2.2-.56c-.1-.11-.2-.24-.33-.41a5.6,5.6,0,0,1-4.51,1.34A5.19,5.19,0,0,1,129.08,43a56.76,56.76,0,0,1,0-6.39c.35-4.9,5.09-6.35,8.11-4.17C137.35,32.56,137.52,32.66,137.89,32.89Zm-5.12,6.91h.08c0,.71,0,1.41,0,2.12a2.94,2.94,0,0,0,.12.59,2.28,2.28,0,0,0,2.37,1.91,2.06,2.06,0,0,0,2.25-1.83,31.17,31.17,0,0,0,0-5.55,2.1,2.1,0,0,0-2.39-1.84A2.18,2.18,0,0,0,133,37.09,26.76,26.76,0,0,0,132.77,39.8Z" style="fill:#fff"/><path d="M86.55,41.27c1.1-.19,2-.28,2.62.67A2.57,2.57,0,0,1,89,44.81a7.09,7.09,0,0,1-5.66,3.37c-4.74.32-8-2.16-8.51-6.92A34,34,0,0,1,74.9,32c1-6,6.6-7.61,11-5.73a5.24,5.24,0,0,1,3,2.91,2.16,2.16,0,0,1-.77,2.8c-.92.54-1.7.28-2.63-.73a6.38,6.38,0,0,0-1.92-1.65,3.21,3.21,0,0,0-4.35,2.18,23.88,23.88,0,0,0,0,10.1A3.15,3.15,0,0,0,82.1,44.4a3.48,3.48,0,0,0,3.37-1.65C85.83,42.21,86.23,41.7,86.55,41.27Z" style="fill:#fff"/><path d="M153,37.59c-.45-2.34-2-3-3.7-1.89-.26.17-.5.36-.74.54-1.29.94-1.8.87-2.95-.38a2.31,2.31,0,0,1,.8-2.59A6.11,6.11,0,0,1,153,31.91a5.56,5.56,0,0,1,3.75,5.24c.12,2.94.05,5.88.05,8.82a1.71,1.71,0,0,1-1.23,1.73,1.87,1.87,0,0,1-2.09-.5,5.69,5.69,0,0,1-.51-.65,4,4,0,0,1-5.15,1.15,4.87,4.87,0,0,1-3-4.57c-.23-3.4,2-5.23,5-5.52C150.84,37.51,151.86,37.59,153,37.59Zm.16,3.19a26,26,0,0,0-3.18.42,1.62,1.62,0,0,0-.69,2.69,2.16,2.16,0,0,0,3.4-.84A12.6,12.6,0,0,0,153.16,40.78Z" style="fill:#fff"/><path d="M117.55,32.65a16.52,16.52,0,0,1,3.35-1.13c2.47-.27,4.48,1.4,5.06,4.06a16.89,16.89,0,0,1,.34,3.17c0,2.08,0,4.15,0,6.23a6.18,6.18,0,0,1,0,1.06,1.92,1.92,0,0,1-3.83-.06,9.37,9.37,0,0,1,0-1.06c0-1.93,0-3.85,0-5.78,0-.51,0-1,0-1.52a2.29,2.29,0,1,0-4.57.06c0,2.38,0,4.76,0,7.14a6.52,6.52,0,0,1-.18,1.65,1.77,1.77,0,0,1-1.81,1.35,1.9,1.9,0,0,1-1.84-1.53,3.14,3.14,0,0,1,0-.61c0-3.9,0-7.8,0-11.71a2,2,0,0,1,3.49-1.52A1.13,1.13,0,0,1,117.55,32.65Z" style="fill:#fff"/><path d="M103.3,39.81c0,.88-.07,1.74-.14,2.6a6.26,6.26,0,0,1-12.5-.34c0-1.47,0-2.94,0-4.41a6.26,6.26,0,0,1,12.51-.26C103.22,38.21,103.26,39,103.3,39.81ZM94.37,40a22.89,22.89,0,0,0,.25,2.67,2.17,2.17,0,0,0,2.3,1.79,2.07,2.07,0,0,0,2.27-1.8,30.26,30.26,0,0,0,0-5.55,2.1,2.1,0,0,0-2.36-1.87,2.23,2.23,0,0,0-2.28,2A27,27,0,0,0,94.37,40Z" style="fill:#fff"/><path d="M175.84,39.66a24.64,24.64,0,0,1,.49-3.88,6.24,6.24,0,0,1,12.16,1.58,46.52,46.52,0,0,1,0,5A6.26,6.26,0,0,1,176,42.11c0-.81,0-1.62,0-2.43Zm3.86.13h.08c0,.71,0,1.41,0,2.12a2.94,2.94,0,0,0,.12.59,2.27,2.27,0,0,0,2.37,1.92,2.06,2.06,0,0,0,2.25-1.82,30.26,30.26,0,0,0,0-5.55,2.09,2.09,0,0,0-2.38-1.85,2.17,2.17,0,0,0-2.22,1.88A24.35,24.35,0,0,0,179.7,39.79Z" style="fill:#fff"/><path d="M164.28,32.74A17.54,17.54,0,0,1,167,31.55a2.64,2.64,0,0,1,3.5,2.34,1.62,1.62,0,0,1-2,1.8,4.58,4.58,0,0,1-.86-.29,2.29,2.29,0,0,0-3.23,2.25c-.07,2.38,0,4.76,0,7.14a6.29,6.29,0,0,1-.12,1.51,1.89,1.89,0,0,1-2,1.52,2,2,0,0,1-1.74-1.65,1.53,1.53,0,0,1,0-.3c0-4.06,0-8.11,0-12.16a1.82,1.82,0,0,1,1.22-1.77A2.09,2.09,0,0,1,164.28,32.74Z" style="fill:#fff"/><path d="M195.41,32.74a21.12,21.12,0,0,1,2.5-1.14,3.1,3.1,0,0,1,3.31.94,2.37,2.37,0,0,1,.07,2.57,1.82,1.82,0,0,1-2.2.45c-.1,0-.19-.1-.28-.13a2.3,2.3,0,0,0-3.3,2.3c0,2.38,0,4.76,0,7.15a5.63,5.63,0,0,1-.2,1.64,1.71,1.71,0,0,1-1.84,1.29,1.77,1.77,0,0,1-1.74-1.43,4.79,4.79,0,0,1-.1-1.2c0-3.55,0-7.1,0-10.65,0-1.05,0-2.05,1.18-2.56A2.19,2.19,0,0,1,195.41,32.74Z" style="fill:#fff"/><path d="M106.27,39.73c0-1.72,0-3.45,0-5.17a6.16,6.16,0,0,1,.06-1.22,1.88,1.88,0,0,1,1.82-1.55A1.79,1.79,0,0,1,110,33.14a5.34,5.34,0,0,1,.18,1.49c0,3.45,0,6.91,0,10.36a5.48,5.48,0,0,1-.09,1.21,1.91,1.91,0,0,1-3.79-.23,6.91,6.91,0,0,1,0-.91Z" style="fill:#fff"/><path d="M171.58,47.92a2,2,0,0,1-2.3-2.32,2.05,2.05,0,0,1,2.3-2.33,2.09,2.09,0,0,1,2.32,2.33A2.08,2.08,0,0,1,171.58,47.92Z" style="fill:#fff"/><path d="M110.2,28a2.09,2.09,0,0,1-2,2.15c-1.18,0-1.92-1-2-2.37a2.19,2.19,0,0,1,2.13-2.08A2.13,2.13,0,0,1,110.2,28Z" style="fill:#fff"/><path d="M54.33,21.8A8.78,8.78,0,0,1,51.85,28,2.48,2.48,0,1,1,48,24.82c1.81-2.5,1.81-3.68,0-6.11a2.44,2.44,0,0,1,.23-3.53,2.41,2.41,0,0,1,3.51.29A8.79,8.79,0,0,1,54.33,21.8Z" style="fill:#fff"/></g></svg>