<svg id="Layer_1" data-name="Layer 1" xmlns="http://www.w3.org/2000/svg" viewBox="0 0 268.18 53.45"><title>coinlistinginfo</title><path d="M84.2,34.68a13.38,13.38,0,0,1-5.25.9c-6.42,0-10.32-4-10.32-10.2,0-6.66,4.65-10.68,10.83-10.68a11.45,11.45,0,0,1,4.89.9l-.78,2.94a9.94,9.94,0,0,0-4-.78c-4.11,0-7.08,2.58-7.08,7.44,0,4.47,2.58,7.29,7,7.29a11.2,11.2,0,0,0,4-.72Z" style="fill:#fff"/><path d="M101.12,27.81c0,5.37-3.78,7.77-7.5,7.77-4.11,0-7.32-2.82-7.32-7.53s3.15-7.74,7.56-7.74S101.12,23.37,101.12,27.81Zm-11,.15c0,2.82,1.41,4.95,3.63,4.95s3.57-2,3.57-5c0-2.28-1-4.92-3.54-4.92S90.11,25.53,90.11,28Z" style="fill:#fff"/><path d="M108.59,16.56a2.07,2.07,0,1,1-2.07-2A2,2,0,0,1,108.59,16.56Zm-3.93,18.69V20.64h3.69V35.25Z" style="fill:#fff"/><path d="M112.85,25c0-1.68-.06-3.09-.12-4.35h3.21l.18,2.19h.09a5.36,5.36,0,0,1,4.68-2.52c2.55,0,5.19,1.65,5.19,6.27v8.67h-3.69V27c0-2.1-.78-3.69-2.79-3.69a3.1,3.1,0,0,0-2.88,2.16,3.43,3.43,0,0,0-.18,1.17v8.61h-3.69Z" style="fill:#fff"/><path d="M130.52,14h3.69v21.3h-3.69Z" style="fill:#ff9100"/><path d="M142.67,16.56a2.07,2.07,0,1,1-2.07-2A2,2,0,0,1,142.67,16.56Zm-3.93,18.69V20.64h3.69V35.25Z" style="fill:#ff9100"/><path d="M146.78,31.83a8,8,0,0,0,3.72,1.08c1.62,0,2.34-.69,2.34-1.65s-.6-1.47-2.4-2.13c-2.85-1-4-2.52-4-4.26,0-2.58,2.13-4.56,5.52-4.56a8.43,8.43,0,0,1,3.9.87l-.75,2.58a6.46,6.46,0,0,0-3.09-.84c-1.32,0-2,.66-2,1.56s.69,1.35,2.55,2c2.67.93,3.87,2.28,3.9,4.44,0,2.67-2.07,4.59-5.94,4.59a9.43,9.43,0,0,1-4.44-1Z" style="fill:#ff9100"/><path d="M164.18,16.89v3.75h3.51V23.4h-3.51v6.45c0,1.8.47,2.7,1.88,2.7a4.84,4.84,0,0,0,1.45-.15l.05,2.79a8.07,8.07,0,0,1-2.66.39,4.21,4.21,0,0,1-3.18-1.2c-.82-.84-1.17-2.19-1.17-4.11V23.4h-2.07V20.64h2.07V17.91Z" style="fill:#ff9100"/><path d="M174.92,16.56a2.08,2.08,0,1,1-2.07-2A2,2,0,0,1,174.92,16.56ZM171,35.25V20.64h3.7V35.25Z" style="fill:#ff9100"/><path d="M179.18,25c0-1.68-.06-3.09-.12-4.35h3.21l.18,2.19h.09a5.36,5.36,0,0,1,4.68-2.52c2.55,0,5.18,1.65,5.18,6.27v8.67h-3.68V27c0-2.1-.78-3.69-2.79-3.69a3.1,3.1,0,0,0-2.88,2.16,3.43,3.43,0,0,0-.18,1.17v8.61h-3.69Z" style="fill:#ff9100"/><path d="M210.07,33.12c0,3.06-.63,5.25-2.16,6.63a8.35,8.35,0,0,1-5.64,1.77,10.7,10.7,0,0,1-5.1-1.17l.81-2.79a8.82,8.82,0,0,0,4.26,1.11c2.4,0,4.2-1.26,4.2-4.41V33h-.06a4.9,4.9,0,0,1-4.26,2.16c-3.63,0-6.21-3-6.21-7.14,0-4.8,3.12-7.71,6.63-7.71a4.56,4.56,0,0,1,4.23,2.28h.06l.15-1.95h3.21c-.06,1-.12,2.19-.12,4.2Zm-3.69-6.63a3.45,3.45,0,0,0-.12-1,3.06,3.06,0,0,0-3-2.37c-2.07,0-3.6,1.8-3.6,4.77,0,2.49,1.26,4.5,3.57,4.5a3.14,3.14,0,0,0,3-2.25,4.48,4.48,0,0,0,.15-1.29Z" style="fill:#ff9100"/><path d="M214.12,33.69a1.78,1.78,0,0,1,1.81-1.89,1.89,1.89,0,0,1,0,3.78A1.77,1.77,0,0,1,214.12,33.69Z" style="fill:#fff"/><path d="M224.41,16.65a1.63,1.63,0,0,1-3.26,0A1.6,1.6,0,0,1,222.79,15,1.57,1.57,0,0,1,224.41,16.65Zm-2.94,18.6V20.73h2.64V35.25Z" style="fill:#fff"/><path d="M229,24.66c0-1.5,0-2.73-.11-3.93h2.34l.14,2.4h.07a5.31,5.31,0,0,1,4.79-2.73c2,0,5.13,1.2,5.13,6.18v8.67h-2.64V26.88c0-2.34-.87-4.29-3.36-4.29a3.75,3.75,0,0,0-3.54,2.7,3.81,3.81,0,0,0-.17,1.23v8.73H229Z" style="fill:#fff"/><path d="M246.43,35.25V22.74h-2v-2h2V20A6.85,6.85,0,0,1,248.11,15a5.05,5.05,0,0,1,3.54-1.35,6.12,6.12,0,0,1,2.25.42l-.36,2a3.94,3.94,0,0,0-1.68-.33c-2.25,0-2.82,2-2.82,4.2v.78h3.51v2H249V35.25Z" style="fill:#fff"/><path d="M268.18,27.87c0,5.37-3.72,7.71-7.23,7.71-3.93,0-7-2.88-7-7.47,0-4.86,3.19-7.71,7.2-7.71C265.36,20.4,268.18,23.43,268.18,27.87ZM256.66,28c0,3.18,1.83,5.58,4.41,5.58s4.41-2.37,4.41-5.64c0-2.46-1.23-5.58-4.35-5.58S256.66,25.26,256.66,28Z" style="fill:#fff"/><circle cx="26.73" cy="26.73" r="26.73" style="fill:#ff9100"/><path d="M25.75,46.29a19.59,19.59,0,0,1,0-39.13v-2a21.61,21.61,0,0,0,0,43.18Z"/><path d="M28.52,5.19v2a19.61,19.61,0,0,1,0,39.05v2a21.61,21.61,0,0,0,0-43.07Z"/><path d="M25.73,36.16a9.43,9.43,0,0,1,0-18.86v-2a11.43,11.43,0,0,0,0,22.86Z"/><path d="M28.94,38.33v-23h2V35.55a10.67,10.67,0,0,0,3.95-2.79A10.11,10.11,0,0,0,37,27.08h2A12.13,12.13,0,0,1,36.44,34,14.14,14.14,0,0,1,30.22,38Z"/></svg>