<svg width="186" height="50" viewBox="0 0 186 50" fill="none" xmlns="http://www.w3.org/2000/svg">
<path d="M88.8764 9.25774H88.4469C85.1629 9.25774 81.865 9.25774 78.581 9.24389C77.805 9.24389 77.2092 8.63419 77.1953 7.84436C77.1814 5.76587 77.1953 3.68737 77.1953 1.62273C77.1953 0.846759 77.7773 0.237067 78.5532 0.181641H97.5507C98.0911 0.181641 98.5622 0.334064 98.8671 0.791333C99.0057 1.01304 99.0611 1.29017 99.1442 1.55345C99.1719 1.62273 99.1442 1.71973 99.1442 1.78901V47.4189C99.1442 48.2503 98.7285 48.8323 98.008 48.9847C97.8694 49.0125 97.717 49.0125 97.5646 49.0125H78.7611C77.7634 49.0125 77.1814 48.4305 77.1814 47.4467V41.5022C77.1814 40.5322 77.7496 39.9502 78.7195 39.9502H88.8626C88.8764 29.724 88.8764 19.5117 88.8764 9.25774ZM46.3781 9.25774V39.9502H46.8077C50.0086 39.9502 53.1956 39.9779 56.3965 39.9363C57.5604 39.9225 58.1286 40.7123 58.1008 41.6407C58.0731 43.5668 58.1008 45.4929 58.087 47.4189C58.087 48.2503 57.6574 48.8323 56.9507 48.9847C56.8122 49.0125 56.6598 49.0263 56.5073 49.0263H37.7039C36.6923 49.0263 36.1104 48.4582 36.1104 47.4467V1.78901C36.1104 0.76362 36.6923 0.181641 37.7039 0.181641H56.5073C57.4912 0.181641 58.087 0.76362 58.1008 1.74744C58.1147 3.7428 58.1008 5.73815 58.1008 7.73351C58.1008 8.67576 57.3387 9.2716 56.6182 9.25774C53.348 9.23003 50.0917 9.25774 46.8215 9.25774H46.3781Z" fill="white"/>
<path d="M74.3825 25.6371V31.5123C74.3825 32.1636 74.1885 32.3437 73.5372 32.3437H69.6573C69.1308 32.3437 68.8952 32.1082 68.8952 31.5816V17.2261C68.8952 16.6719 69.1169 16.4501 69.6712 16.4501H73.0661C73.5372 16.4501 73.8975 16.6164 74.1885 17.0183C75.7127 19.1245 77.2369 21.2168 78.7612 23.3092C78.8304 23.4062 78.8997 23.4893 79.0244 23.6556C79.0383 23.4616 79.0383 23.3369 79.0383 23.226V17.3508C79.0383 16.658 79.2323 16.464 79.9251 16.464H83.6664C84.3315 16.464 84.5532 16.6857 84.5532 17.3647V31.4708C84.5532 32.1497 84.3454 32.3576 83.6664 32.3576C82.5856 32.3576 81.4909 32.3437 80.4101 32.3576C79.9113 32.3714 79.551 32.1774 79.26 31.7895C77.6942 29.7941 76.1284 27.7987 74.5626 25.8172C74.521 25.7618 74.4795 25.7341 74.3825 25.6371ZM55.094 21.1337H51.1864C50.549 21.1337 50.3412 20.9258 50.3412 20.2746V17.2261C50.3412 16.6719 50.5767 16.4363 51.1172 16.4363H65.2786C65.8052 16.4363 66.0269 16.6719 66.0408 17.1984V20.3439C66.0408 20.8981 65.8052 21.1198 65.2509 21.1198H61.3156V27.6463H64.9322C65.0985 27.6463 65.2509 27.6602 65.4172 27.674C65.8329 27.7156 66.0269 27.8957 66.0408 28.2976C66.0546 29.42 66.0546 30.5285 66.0408 31.6509C66.0408 32.1082 65.7775 32.316 65.2648 32.316H51.1449C50.6045 32.316 50.3689 32.0804 50.3689 31.54V28.4223C50.3689 27.8542 50.6045 27.6325 51.1726 27.6325H55.1217C55.094 25.4708 55.094 23.323 55.094 21.1337ZM2.34177 9.71582V18.7088C2.46648 18.6395 2.56348 18.5841 2.64662 18.5286C5.8475 16.2977 12.4848 17.1014 13.7458 23.2538C14.1753 25.3184 14.0229 27.3553 12.9837 29.226C11.8613 31.249 10.0599 32.3853 7.829 32.8287C5.14081 33.3553 2.63276 32.7871 0.24942 31.5262C0.0138566 31.4015 0.0138566 31.2352 0.0138566 31.0273V22.4085C0.0138566 18.5841 0.0138566 14.7458 0 10.9213C0 10.6165 0.0692832 10.4779 0.374129 10.3809C1.03925 10.2008 1.6628 9.95138 2.34177 9.71582ZM2.34177 25.554C2.34177 26.9812 2.35563 28.4084 2.34177 29.8357C2.34177 30.0989 2.41106 30.2237 2.66048 30.3068C4.14314 30.8195 5.65351 31.0551 7.21931 30.8195C9.3948 30.4731 10.8775 29.1844 11.3902 27.1198C11.6119 26.2191 11.6534 25.2907 11.5564 24.3761C11.3763 22.7549 10.7528 21.3554 9.36709 20.3993C8.17542 19.5817 6.84518 19.4432 5.45952 19.651C4.40641 19.8035 3.42259 20.1222 2.57734 20.815C2.41106 20.9536 2.34177 21.0921 2.34177 21.3138V25.554ZM143.915 17.5587H146.174V19.1522C146.395 18.9582 146.576 18.7919 146.756 18.6395C148.987 16.7411 152.118 16.464 154.488 17.9744C155.513 18.6256 156.317 19.4986 156.802 20.6071C157.924 23.1429 157.966 25.7202 156.802 28.2422C155.43 31.1798 152.437 32.7178 149.236 32.2467C148.169 32.0943 147.171 31.8033 146.201 31.1798V37.2628C146.201 37.5677 146.132 37.6647 145.813 37.6508C145.19 37.6231 144.566 37.6508 143.929 37.6508C143.915 30.9442 143.915 24.2653 143.915 17.5587ZM146.174 25.2214C146.174 26.3992 146.188 27.577 146.16 28.741C146.16 29.0043 146.243 29.1567 146.465 29.2953C147.712 30.0851 149.097 30.4176 150.552 30.3345C152.492 30.2237 153.92 29.2675 154.682 27.4662C155.416 25.7341 155.458 23.9189 154.89 22.1314C154.502 20.912 153.684 20.0252 152.479 19.5402C150.386 18.6949 147.989 19.3185 146.395 21.106C146.271 21.2445 146.188 21.4663 146.188 21.6464C146.174 22.8519 146.174 24.0436 146.174 25.2214ZM30.7202 25.2907H18.3739C18.3878 26.4685 18.5818 27.577 19.1915 28.5886C20.0644 30.0019 21.3808 30.7086 22.9743 30.8888C25.136 31.1382 27.1867 30.6809 29.1267 29.6971C29.2098 29.6555 29.2929 29.614 29.3899 29.5724V31.8449C27.9904 32.4684 26.5216 32.8426 24.9835 32.9673C23.584 33.0781 22.1983 33.0227 20.8542 32.5516C18.1799 31.637 16.6141 29.7387 16.1153 26.9812C15.852 25.554 15.8797 24.1267 16.2677 22.7272C17.0575 19.8866 18.9697 18.2238 21.8242 17.6002C23.4177 17.2538 24.9974 17.2815 26.5078 17.9744C28.6278 18.9582 29.8334 20.6903 30.3599 22.9073C30.5539 23.6695 30.6093 24.4593 30.7202 25.2907ZM28.2121 23.5309C28.226 23.4893 28.2398 23.4755 28.2398 23.4478V23.3508C28.0736 21.9512 27.4639 20.8011 26.2306 20.0529C24.5263 19.0275 22.0182 19.2076 20.3138 20.4547C19.2746 21.2168 18.6926 22.2561 18.4709 23.5309H28.2121ZM178.238 16.9906C180.538 17.046 182.534 17.7111 184.086 19.3739C185.125 20.4824 185.693 21.8265 185.901 23.3369C186.15 25.1937 185.956 26.9951 185.014 28.6579C183.933 30.5839 182.229 31.6786 180.095 32.1359C178.321 32.51 176.575 32.3714 174.912 31.6509C172.335 30.5146 170.963 28.4916 170.645 25.7341C170.451 24.0713 170.645 22.4362 171.421 20.9258C172.557 18.7226 174.441 17.5448 176.838 17.1153C177.019 17.0876 177.199 17.0598 177.393 17.046C177.698 17.0321 178.002 17.0183 178.238 16.9906ZM177.85 18.9721C176.949 18.9721 175.744 19.3739 174.705 20.2469C172.487 22.1175 172.404 25.9697 173.804 28.0204C175.079 29.9049 176.935 30.5701 179.125 30.2929C181.037 30.0435 182.437 29.032 183.226 27.2445C183.684 26.1914 183.781 25.069 183.684 23.9327C183.42 20.9951 181.245 18.9721 177.85 18.9721ZM134.562 28.8103C136.183 24.9997 137.763 21.2723 139.342 17.5587H141.629C141.462 17.9744 141.296 18.3762 141.13 18.7642C138.539 24.8057 135.934 30.8333 133.37 36.8887C133.107 37.5122 132.816 37.7617 132.151 37.6785C131.694 37.6231 131.236 37.6647 130.724 37.6647C130.973 37.0688 131.209 36.5284 131.444 35.988C132.04 34.6024 132.65 33.2305 133.232 31.831C133.287 31.6925 133.287 31.4846 133.232 31.346L127.453 17.8358C127.412 17.7527 127.384 17.6695 127.343 17.5448C128.16 17.5448 128.936 17.531 129.712 17.5587C129.795 17.5587 129.892 17.7111 129.934 17.8081C131.084 20.524 132.22 23.2399 133.356 25.9558C133.744 26.8703 134.132 27.7849 134.562 28.8103ZM115.786 19.8035C114.788 19.5818 113.832 19.3185 112.862 19.1799C110.95 18.8889 109.149 19.2215 107.735 20.6349C106.045 22.3115 105.712 24.39 106.419 26.5794C107.098 28.6994 108.664 29.8772 110.839 30.2098C112.419 30.4454 113.929 30.1128 115.426 29.6001C115.509 29.5724 115.592 29.5447 115.689 29.5031H115.786V31.5677C115.786 31.6232 115.717 31.7063 115.648 31.734C112.599 32.6209 109.606 32.7456 106.821 30.9303C104.839 29.6417 103.911 27.7156 103.745 25.4015C103.62 23.7249 103.869 22.1037 104.742 20.6349C105.879 18.7365 107.611 17.6695 109.731 17.2261C111.698 16.8104 113.652 17.0044 115.564 17.628C115.661 17.6557 115.772 17.8081 115.772 17.9051C115.8 18.5425 115.786 19.1938 115.786 19.8035ZM161.638 19.4709H159.088C159.171 19.2769 159.199 19.1106 159.296 18.9859C160.709 17.3508 162.123 15.7296 163.55 14.1222C163.633 14.0252 163.772 13.9837 163.883 13.9144C163.91 14.0391 163.98 14.1638 163.98 14.2885C163.993 15.2308 163.98 16.173 163.98 17.1291V17.531H168.76V19.4709H163.98V27.7156C163.98 28.0897 164.007 28.4777 164.063 28.8518C164.201 29.614 164.575 29.9049 165.365 29.8911C166.418 29.8634 167.416 29.6417 168.4 29.2814C168.524 29.2398 168.663 29.1844 168.829 29.129C168.829 29.7802 168.829 30.3899 168.815 31.0135C168.815 31.0828 168.732 31.1798 168.663 31.2075C167.194 31.8726 165.67 32.219 164.063 31.9696C162.968 31.8033 162.234 31.1382 161.943 30.0851C161.762 29.42 161.665 28.6994 161.665 28.0066C161.638 25.3045 161.652 22.6164 161.652 19.9143C161.638 19.7757 161.638 19.651 161.638 19.4709ZM118.821 17.5587H121.093V20.8704C121.121 20.8843 121.149 20.912 121.176 20.9258C122.16 18.3901 124.1 17.2677 126.705 17.0876V19.5679C126.206 19.6372 125.68 19.6649 125.181 19.7757C122.895 20.2884 121.703 21.8127 121.273 24.0159C121.149 24.6671 121.107 25.3461 121.093 26.0112C121.065 27.7849 121.079 29.5585 121.079 31.3322V31.7617H118.807C118.821 27.0505 118.821 22.3115 118.821 17.5587Z" fill="white"/>
</svg>
