<svg id="Layer_1" data-name="Layer 1" xmlns="http://www.w3.org/2000/svg" viewBox="0 0 736.81 301.08"><title>digital-journal</title><g id="xzUpYr"><path d="M78.07,122.31H0V2H78.07Z" style="fill:#e11e26"/><path d="M344.88,267.47v-7.32l7.51-.7V157.62l-7.42-.93v-7.51c1.6-.11,3.2-.33,4.81-.33,16,0,32-.45,48,.11,14,.49,26.35,5.28,32.72,18.93,7.5,16.05-.28,34-17.38,41.63l-5.35,2.38c5.71,18.54,17.18,33.09,29,47.36l8.91.45v7.91H419.1c-12.87-16.42-23.25-34.9-31.84-54.61H374v46.11l8.13.7v7.65Zm29-63.27h14.8c12.3,0,18.12-4,22.42-15.57,4.38-11.76-1.56-28-12.46-30.33-7.83-1.69-16.32-.33-24.76-.33Z"/><path d="M100.07,10.7l-7.45-.77V2.47c1.89-.14,3.81-.39,5.73-.39q21.47-.06,43,0c22.78.07,38.12,12.89,42.18,35.21a130.36,130.36,0,0,1-1,52.49c-4.61,20.52-19.28,30.42-39.09,31.33-15.94.74-31.95.17-47.93.14a15.24,15.24,0,0,1-3-.6v-7.7l7.54-.59Zm21.54-.62V112.8c5.59,0,10.86,0,16.13,0,10.95.11,18.23-5.7,21.52-15.4a116.87,116.87,0,0,0,5.79-27.09c1.34-15.28.67-30.6-5.57-45.07-3.13-7.28-8.17-12.84-16.23-14C136.26,10.24,129.1,10.44,121.61,10.08Z"/><path d="M236.44,208.52C236.1,220,235,231.24,231,242c-7.2,19.34-21.9,29-42.45,27.92-23.42-1.21-36.51-11.68-42-34.6-4.61-19.26-4.65-38.76,1-57.8,7.85-26.49,29.15-34,53.35-29.65,19.59,3.55,28.7,17.42,32.54,35.43C235.17,191.57,235.48,200.12,236.44,208.52Zm-21.25.17c-.33-6.65-.17-13.36-1.15-19.91a89.44,89.44,0,0,0-4.89-19.25c-3-7.79-8.47-13.43-17.65-14.07-9.71-.68-16.21,3.79-20.36,12.2a35.17,35.17,0,0,0-3,7.37c-5.47,23.57-6.08,47.11,1.34,70.42,3.17,10,10.52,15.78,19.43,16.1,9.35.33,16.52-4.92,20.66-15.07C214.53,234.33,215.08,221.57,215.19,208.69Z"/><path d="M470.38,176.87V259l7.58,1v7.53H452.09V260l7.82-.94V157.68l-7.76-1c-.12-2.39-.22-4.63-.35-7.37h27.06l45.72,78.25.82-.23V157.58l-7.55-.88v-7.44h25.36v7.41l-7.86,1.11V267.59h-11.3q-26.17-45.37-52.56-91.15Z"/><path d="M319.83,31.88h-8c-2.78-5.69-4.33-11.42-7.8-15.51C293.12,3.48,271.61,6.15,263.35,21c-5.73,10.3-7.37,21.72-8,33.21-.87,15.38.17,30.63,6.12,45.12,6.62,16.12,24.12,20.82,37.71,10.15,1.21-1,2.71-2.52,2.74-3.83.23-9.61.13-19.22.13-29.31l-11.32-.73c-.12-2.49-.24-4.87-.38-7.75h38.84v6.91l-7,1.22c0,7.07-.31,14.18.1,21.25.29,5-1.45,8.6-4.67,12.07a42.15,42.15,0,0,1-31,13.92c-14.48.35-28.34-1.68-38.87-13.15C241,102.7,237.53,93.73,236.17,84c-2.46-17.58-2.92-35.15,2.13-52.44C243.17,15,253.7,4.3,271.11,1.22c15.07-2.66,29.51-1.32,42.53,7.56,1.53,1.05,3.33,2.71,3.64,4.35C318.42,19.13,319,25.25,319.83,31.88Z"/><path d="M247.45,157.45,239.1,157c-.14-2.52-.26-4.91-.41-7.74h36.86v7.43l-7.78,1v5.44c0,19.49-.18,39,.09,58.46a152.05,152.05,0,0,0,2,21.81c1.58,9.92,8.33,15.93,18.52,17.43s18.2-2.57,22.88-11.38,5.58-18.45,5.68-28.12c.22-20.15.08-40.31.06-60.46a31,31,0,0,0-.37-3.3l-7.27-.74v-7.62h25.89v7.65l-7.89.72c0,1.9,0,3.66,0,5.42-.13,21.49,0,43-.58,64.45a66.45,66.45,0,0,1-3.89,19.45c-5.38,15.58-18.8,23.6-36.47,22.79-27.28-1.25-38-17.29-38.84-44.63-.67-20.63-.13-41.3-.13-62Z"/><path d="M544.25,112.6l8.47.69.51,7.58H517.62v-7.43l5.54-1.16c-3.31-10.32-6.52-20.36-9.78-30.52h-29c-3.14,9.95-6.34,20.12-9.67,30.68l5.78.86v7.63H456.21v-7.51l8.53-.92c11.49-36.62,22.92-73.08,34.48-110h9.5Zm-45-74.49L498.21,38,487.13,72.72h23.45C506.67,60.74,503,49.42,499.28,38.11Z"/><path d="M635.88,259.39l8.45.72c.18,2.36.35,4.59.56,7.37h-35.8v-7.27l5.67-1.12c-3.24-10.21-6.39-20.12-9.63-30.34H575.9q-4.57,14.56-9.51,30.23l5.79,1.29v7.29H547.84v-7.43l8.5-.72c11.47-36.58,22.95-73.18,34.55-110.14h9.44Zm-44.8-74.16-1.36-.21c-3.6,11.39-7.19,22.77-11,34.69h23.41Z"/><path d="M431,112.37l7.68.49v8H401.89V113l7.77-.79V10.45c-6.3,0-12.32-.47-18.19.24-2.21.26-4.49,3-6,5.07-1.39,1.93-1.8,4.57-2.79,7.32h-8.28c.94-7,1.85-13.62,2.8-20.63h86.38c1,6.82,2,13.51,3,20.67h-7.84c-.24-.27-.71-.58-.88-1-4.72-11.77-4.71-11.77-17.57-11.76H431Z"/><path d="M108.42,157.64l-7.89-.85v-7.5h37.4v7.35l-8.44,1.05v5.5c0,31.65.1,63.3-.05,94.94-.05,9.52-1.38,18.87-6,27.51-5.77,10.76-15.38,14.41-27,15.44L93,294.51c14.74-5.54,15.28-18.56,15.5-30.43.66-34.63.23-69.29.22-103.93A22.57,22.57,0,0,0,108.42,157.64Z"/><path d="M650.94,267.62v-7.86l7.58-.49V157.53l-7.53-.72c-.12-2.49-.23-4.85-.36-7.61h36.49v7.56l-7.1.73v102h35.39c7.46,0,9.68-1.61,11.9-8.62l1.24-4h8.26c-1,7.09-1.95,13.86-2.92,20.76Z"/><path d="M597.19,2.47V9.81l-7.15,1V112.59h35.79c7.39,0,9.21-1.35,11.42-8.4.44-1.4.92-2.78,1.35-4.09h8.3c-1,7.08-1.88,13.76-2.84,20.77H561.12V113l7.57-.67V10.82l-7.57-1V2.47Z"/><path d="M229.89,2.45V10L221,10.7V112.23l8.84.67v7.9H190V113l9.7-.69V10.7l-9.57-.65V2.45Z"/><path d="M339.77,10.65l-9.61-.55c-.18-2.42-.36-4.77-.58-7.61h40.29v7.64l-8.91.53V112.22l9,.74v7.92H330v-8l9.78-.61Z"/></g></svg>