<?xml version="1.0" encoding="utf-8"?>
<!-- Generator: Adobe Illustrator 23.0.4, SVG Export Plug-In . SVG Version: 6.00 Build 0)  -->
<svg version="1.1" id="Layer_1" xmlns="http://www.w3.org/2000/svg" xmlns:xlink="http://www.w3.org/1999/xlink" x="0px" y="0px"
	 viewBox="0 0 2000 485" style="enable-background:new 0 0 2000 485;" xml:space="preserve">
<style type="text/css">
	.st0{fill:#FEFFFF;}
	.st1{fill:url(#SVGID_1_);}
	.st2{fill:url(#SVGID_2_);}
	.st3{fill:#FFFFFF;}
	.st4{fill:#91D5DC;}
</style>
<title>news-btc</title>
<g id="OweqrG">
	<path class="st0" d="M365.5,81.6l-116,167l-69.3,95h89.9l156-222.8C428.3,128.5,365.2,81,365.5,81.6z"/>
	
		<linearGradient id="SVGID_1_" gradientUnits="userSpaceOnUse" x1="43.5466" y1="404.7191" x2="230.1879" y2="218.0779" gradientTransform="matrix(1 0 0 -1 0 486)">
		<stop  offset="0" style="stop-color:#00B3B3"/>
		<stop  offset="1" style="stop-color:#00A2B7"/>
	</linearGradient>
	<path class="st1" d="M218,0c11.1,5.5,22.4,10.8,33.4,16.6c37.3,19.8,74.2,40.3,110.5,62.1c1.2,0.8,2.8,1.1,3.7,3l-116,167V141.4
		h-88.7L4.6,364.3c-2.2-4.9-2.1-9.5-2.4-13.9c-1.3-16.8-1.2-33.6-1.7-50.4c-0.1-2.3-0.3-4.6-0.4-7V168c1.4-0.7,0.9-2,0.9-3.1
		c0.4-7.6,0.5-15.3,1-22.9c1.7-24.8-1.7-19.7,18.5-33.1c33-21.9,67.4-41.6,101.8-61.1C152,31,181.7,14,213,0H218z"/>
	
		<linearGradient id="SVGID_2_" gradientUnits="userSpaceOnUse" x1="201.6207" y1="268.7419" x2="387.3347" y2="83.0379" gradientTransform="matrix(1 0 0 -1 0 486)">
		<stop  offset="0" style="stop-color:#00A4B8"/>
		<stop  offset="1" style="stop-color:#008FB9"/>
	</linearGradient>
	<path class="st2" d="M214,485c-16.3-8.9-32.6-17.8-48.9-26.8c-31.8-17.7-63.6-35.4-95.3-53.2c-1.3-0.7-2.5-1.5-3.9-2.5l113.2-162.7
		l1.2,0.4v103.4h89.9l155.9-222.8c2.3,8.2,2.3,15.4,2.6,22.4c1.5,32.3,2.3,64.6,2.3,96.9c0,28.9,0.1,57.7-1.1,86.6
		c-0.4,10-1.3,19.9-2,29.9c-0.1,4.9-2.7,9.4-6.7,12.1c-22.2,15.9-45.9,29.6-69.4,43.4c-40.4,23.5-81,46.7-122.8,67.6
		c-3.7,1.8-7.8,2.8-11,5.5L214,485z"/>
	<path class="st3" d="M2000,307c-8.8,7.5-17.6,15.1-27.9,20.7c-60.1,33.2-131.7,0.2-144.4-67.2c-11.4-60.8,30.1-111.5,87.1-116.7
		c32.2-3,59.6,7.4,82.9,29.3c0.7,0.7,1.5,1.3,2.3,1.9v1c-4.9,4-8.1,9.5-12.2,14.3c-4.3,5.1-8.4,10.4-12,14.8
		c-2.9-2.4-5.4-4.3-7.8-6.4c-15.8-14-33.7-21-55.1-16.2c-25.7,5.9-45.9,32.4-43.7,60.7c1.7,21.9,10.5,39.4,29.7,50.7
		c20.4,12,45.9,8.9,67.1-7.6c3.1-2.4,6-5,9.2-7.6c2.2,2.5,4.1,4.8,6.2,6.9c6.3,6.3,11.3,13.9,18.4,19.4L2000,307z"/>
	<path class="st3" d="M1601.9,236.4c3.5,2,7.3,2.8,10.8,4.4c17.2,7.5,25,21.4,26.2,39.1c1.9,28.7-14.4,48.3-44.7,55.1
		c-8,1.8-16.1,2.7-24.3,2.7c-29.2,0.1-58.3,0-87.5,0c-0.8,0-1.6-0.1-2.8-0.2V146.9c1-1.1,2.2-0.7,3.3-0.7c28.3,0,56.7-0.2,85,0.1
		c17.6,0.2,34.5,3.2,48.8,14.5c16.3,12.9,21,37.7,10.1,55.5c-5,8.2-12.5,14.5-21.5,17.9C1604,234.5,1602.8,235.3,1601.9,236.4z
		 M1522,301.9c0.9,0.1,1.7,0.2,2.6,0.3c14.1,0,28.3,0,42.5-0.1c5.2,0,10.3-1.1,15-3.3c7.5-3.4,12.4-8.8,13.1-17.4
		c1-12.4-6.3-21.4-20.2-23.4c-17.3-2.5-34.9-0.8-52.3-0.9c-0.2,0-0.5,0.4-0.7,0.6L1522,301.9z M1522.1,182.1v40.7
		c16.4,0,32.6,0.6,48.6-0.2c11-0.6,18.3-9.9,18.3-20.6s-6.7-19.1-17.9-19.7C1555,181.4,1538.7,182.1,1522.1,182.1L1522.1,182.1z"/>
	<path class="st3" d="M1170.4,337.7h-27c-16-52-31.9-104.1-48.4-157.6l-49.2,157.5h-26.7c-21-63.4-42-127.2-63.2-191.2h27.8
		l49.4,162.5l49.1-162.6h26l49.4,162.6l49.1-162.7h27L1170.4,337.7z"/>
	<path class="st3" d="M716.8,292.7V146.4h25.1v191.2h-25.8L609.3,189.9v147.8h-25.7V146.4h26.1L715.8,293L716.8,292.7z"/>
	<path class="st3" d="M1759.1,337.5h-42.7V183.1h-56.7v-36.8h156v36.4h-56.6L1759.1,337.5z"/>
	<path class="st3" d="M926.6,313.7v23.8h-133V146.4h129.7v23.6H819.4V229h93.1v23.7h-93.1v61H926.6z"/>
	<path class="st3" d="M1388.5,162.9c-3.6,7.9-7.1,15.5-10.7,23.4c-12.7-8-25.9-13.6-40.3-15.9c-10.3-1.6-20.6-1.8-30.6,1.5
		c-8.9,2.9-15.9,7.9-17.5,17.8s2.1,17.9,10,24c4.8,3.7,10.2,6.1,15.8,8.3c15.3,6,31.3,10,46.3,16.8c18.7,8.4,30.2,21.8,30.8,43.1
		c0.7,21.6-8.2,38-27.4,47.7c-28.2,14.3-56.9,12.2-85.3-0.1c-11.3-4.9-21.6-11.8-30.4-20.5l11.6-22.9c10.4,10.5,23,18.5,37,23.3
		c14.3,5.1,28.9,6.4,43.7,2.5c16.6-4.4,24.8-16.4,21.6-31.7c-2.2-10.5-10-16.2-19-20.3c-9.2-4.2-19-7-28.6-10
		c-8.1-2.5-16-5.4-23.8-8.7c-21.7-9.4-31.9-24.7-31.5-47.3c0.4-19.9,12.6-36.2,33.2-44.3C1321.8,138.6,1364.2,144.3,1388.5,162.9z"
		/>
	<path class="st0" d="M249.5,141.3h-88.8L4.5,364.2c-2.2-4.9,62.8,39.1,61.3,38.2l113.2-162.7C179.5,239.9,249.5,141.3,249.5,141.3z
		"/>
	<polygon class="st4" points="249.5,141.3 249.5,248.6 180.3,343.5 179.1,239.7 	"/>
</g>
</svg>
