<?xml version="1.0" encoding="utf-8"?>
<!-- Generator: Adobe Illustrator 23.0.4, SVG Export Plug-In . SVG Version: 6.00 Build 0)  -->
<svg version="1.1" id="Layer_1" xmlns="http://www.w3.org/2000/svg" xmlns:xlink="http://www.w3.org/1999/xlink" x="0px" y="0px"
	 viewBox="0 0 118 43.2" style="enable-background:new 0 0 118 43.2;" xml:space="preserve">
<style type="text/css">
	.st0{fill-rule:evenodd;clip-rule:evenodd;fill:#FFFFFF;}
</style>
<path class="st0" d="M42.3,13v13h3.2h3.2v-5c0-3.3,0-5.1,0-5.3c0.1-0.5,0.2-1,0.5-1.4c0.4-0.7,1.1-1,1.9-0.9c1.1,0.1,1.8,0.7,2,2
	c0,0.2,0,2.2,0,5.4v5.1h3.2h3.2v-6c0-5.1,0-6.1-0.1-6.6c-0.2-1.8-0.8-3.2-1.9-4.2c-0.9-0.9-2-1.4-3.3-1.6c-0.5-0.1-1.9,0-2.3,0.1
	c-1.2,0.3-2.1,0.7-2.9,1.6l-0.5,0.4V4.8V0h-3.2h-3.2v13H42.3z M110.3,0.2c-0.2,0.4-6.7,16.1-6.7,16.1s1.7,0,3.8,0h3.8l3.4-8.1
	C116.5,3.7,118,0,118,0s-1.7,0-3.8,0h-3.8L110.3,0.2z M28.3,7.6c-1.4,0.2-2.5,0.6-3.6,1.3c-2.2,1.4-3.6,3.8-4,6.6
	c-0.2,1.3-0.1,2.9,0.2,4.1c0.8,3.1,2.9,5.5,5.6,6.4c1,0.3,1.4,0.4,2.6,0.4c0.9,0,1.2,0,1.5-0.1c1.3-0.3,2.2-0.8,3-1.6l0.4-0.4v0.8
	V26h3.1h3.1v-9V8h-3.1H34v0.8v0.8l-0.3-0.3C33,8.6,32,8,30.7,7.7c-0.4-0.1-0.6-0.1-1.4-0.1C28.8,7.6,28.3,7.6,28.3,7.6z M69.1,7.6
	c-1.7,0.2-3.5,1-4.8,2c-2.5,2.1-3.8,5.4-3.3,8.8c0.5,3.8,3.2,6.7,7,7.7c0.8,0.2,1.6,0.3,2.6,0.3c1.8,0,3.1-0.3,4.5-1
	c2.8-1.4,4.6-3.9,5-7c0.1-0.8,0.1-2.1,0-2.8c-0.2-1.5-0.8-3-1.7-4.2c-0.4-0.5-1.2-1.4-1.7-1.8c-1.4-1.1-3-1.8-4.8-2
	C71.2,7.5,69.8,7.5,69.1,7.6z M89.5,7.6c-1.7,0.2-3.4,0.9-4.7,2c-0.5,0.4-1.4,1.3-1.7,1.8c-0.9,1.2-1.4,2.7-1.7,4.2
	c-0.1,0.7-0.1,2.1,0,2.8c0.6,4,3.5,7.1,7.5,7.9c0.8,0.2,1.2,0.2,2.1,0.2c1.7,0,3.2-0.3,4.6-1.1c3.7-1.9,5.7-6.1,4.8-10.4
	c-0.8-4-4-6.9-8.1-7.4C91.6,7.5,90.2,7.5,89.5,7.6z M0,8c0,0,1.7,4.1,3.8,9.1s3.8,9.1,3.8,9.1S7,27.7,6.2,29.5s-1.4,3.2-1.4,3.3
	s1.5,0,3.4,0h3.4l5.1-12.3c2.8-6.8,5.1-12.3,5.1-12.4c0,0-0.7-0.1-3.4,0H15l-2.1,5.2C12,16.1,11,18.5,11,18.5s-0.9-2.4-2.1-5.2
	L6.9,8H3.5C1.6,8,0,8,0,8z M31.4,13.5c1.3,0.3,2.3,1.3,2.7,2.6c0.1,0.5,0.1,1.4,0,1.9c-0.3,1.3-1.3,2.3-2.6,2.6
	c-0.5,0.1-1.4,0.1-1.9,0c-1.1-0.3-2.1-1.1-2.5-2.1c-0.5-1.1-0.3-2.5,0.3-3.5C28.3,13.6,29.8,13.1,31.4,13.5z M71.2,13.5
	c1.4,0.2,2.5,1.3,2.8,2.7c0.1,0.5,0.1,1.3,0,1.8c-0.3,1.3-1.3,2.2-2.5,2.6c-0.4,0.1-1.5,0.1-1.9,0c-1-0.3-1.8-1-2.3-1.9
	c-0.2-0.6-0.3-1-0.3-1.7c0-0.6,0.1-0.9,0.3-1.4c0.3-0.6,0.7-1.2,1.3-1.6C69.3,13.5,70.3,13.3,71.2,13.5z M91.6,13.5
	c1.2,0.2,2.2,1,2.6,2.1c0.2,0.5,0.3,0.8,0.3,1.4c0,0.7-0.1,1-0.3,1.6c-0.4,0.9-1.3,1.6-2.3,1.9c-0.4,0.1-1.5,0.1-1.9,0
	c-1.2-0.3-2.2-1.3-2.5-2.6c-0.1-0.5-0.1-1.4,0-1.9c0.4-1.6,1.8-2.7,3.4-2.7C91.1,13.4,91.4,13.4,91.6,13.5z M105.1,17.9
	c-1.9,0.2-3.3,1.6-3.7,3.4c-0.1,0.5-0.1,1.4,0,1.9c0.4,1.6,1.6,2.7,3.2,3.1c0.2,0,0.6,0.1,0.9,0.1c1.2,0,2.2-0.4,3-1.2
	c0.9-0.9,1.2-1.8,1.2-3c0-1.5-0.7-2.8-1.9-3.5C107.1,18.1,106,17.8,105.1,17.9z M52.4,27.7c-1.3,0.4-1.9,1.9-1.2,3
	c0.2,0.3,0.6,0.7,0.9,0.8c0.3,0.1,0.3,0.1,0.9,0.1c0.5,0,0.6,0,0.9-0.1c0.4-0.2,0.8-0.6,1-1c0.5-1,0-2.2-1-2.7
	c-0.3-0.2-0.4-0.2-0.8-0.2C52.8,27.6,52.6,27.7,52.4,27.7z M47.1,27.8c-1.7,0.3-2.8,1.4-3.3,3.2c-0.1,0.3-0.1,0.6-0.1,1v0.7H43h-0.7
	v1.5v1.5H43h0.7v3.6v3.6h1.9h1.9v-3.6v-3.6h1.3h1.3v-1.5v-1.5h-1.3h-1.3v-0.3c0.1-0.7,0.4-1.2,1-1.3c0.4-0.1,1-0.1,1.4,0.1
	c0.2,0.1,0.3,0.1,0.3,0.1s0-0.7,0-1.6v-1.6L49.8,28c-0.4-0.2-0.9-0.2-1.6-0.2C47.7,27.7,47.4,27.8,47.1,27.8z M62.3,32.5
	c-0.8,0.2-1.4,0.6-1.8,1.1l-0.2,0.3v-0.6v-0.6h-1.9h-1.9v5.1v5.1h1.9h1.9v-2.8c0-1.6,0-2.9,0-3.1c0.1-0.4,0.3-0.8,0.5-1
	c0.5-0.4,1.4-0.3,1.8,0.2c0.3,0.4,0.3,0.4,0.3,3.6v3h1.9h1.9v-3.4c0-3.6,0-4-0.2-4.7c-0.2-0.6-0.4-1.1-0.9-1.5
	c-0.4-0.4-0.8-0.7-1.4-0.8C63.6,32.4,62.7,32.4,62.3,32.5z M71.8,32.4c-0.6,0.1-1.5,0.4-2,0.8c-1.1,0.8-1.8,2-2.1,3.5
	c-0.1,0.6-0.1,1.7,0,2.3c0.2,0.9,0.5,1.8,1,2.4c0.7,0.9,1.6,1.5,2.7,1.7c0.6,0.1,1.6,0.1,2.1-0.1c0.6-0.2,1-0.4,1.5-0.8l0.4-0.4v0.5
	v0.5h1.9h1.9v-5.1v-5.1h-1.9h-1.9v0.5v0.5l-0.2-0.3c-0.5-0.5-1.2-0.9-2-1C72.8,32.4,72.1,32.4,71.8,32.4z M86.3,32.5
	c-0.7,0.1-1.4,0.6-1.8,1.1l-0.2,0.2v-0.6v-0.6h-1.9h-1.9v5.1v5.1h1.9h1.9v-2.9c0-3.1,0-3.1,0.2-3.6c0.2-0.4,0.6-0.6,1-0.6
	s0.6,0.1,0.9,0.3c0.4,0.4,0.4,0.3,0.4,3.7v3h1.9h1.9V39c0-3.7,0-3.7-0.1-4.1c-0.1-0.2-0.2-0.6-0.3-0.9c-0.2-0.4-0.3-0.5-0.6-0.8
	c-0.4-0.4-0.7-0.6-1.1-0.8C87.8,32.4,87,32.4,86.3,32.5z M96.2,32.5c-1.7,0.3-3,1.1-3.8,2.5c-0.2,0.4-0.4,0.9-0.6,1.4
	c-0.1,0.5-0.1,0.6-0.1,1.4c0,0.9,0,1.2,0.3,1.9c0.6,1.7,2,3,3.9,3.4c0.3,0.1,0.6,0.1,1.3,0.1c1,0,1.4-0.1,2.1-0.4l0.4-0.2v-1.7v-1.7
	l-0.3,0.2c-0.5,0.3-0.8,0.4-1.4,0.4s-0.9,0-1.3-0.2s-0.7-0.5-0.9-0.9c-0.1-0.3-0.1-0.3-0.1-0.8c0-0.4,0-0.5,0.1-0.8
	c0.3-0.8,1-1.2,2-1.3c0.7,0,1,0,2,0.5c0,0,0-0.8,0-1.7v-1.7l-0.3-0.1C98.4,32.5,97.2,32.3,96.2,32.5z M104.8,32.5
	c-2.9,0.5-4.7,3-4.5,5.9c0.1,1,0.4,1.9,0.9,2.6c0.7,1.1,1.8,1.8,3.2,2.1c0.6,0.1,2.2,0.1,2.9,0c1-0.2,1.9-0.7,2.6-1.4
	c0.3-0.3,0.8-1,0.8-1s-0.7-0.3-1.6-0.6l-1.6-0.6l-0.2,0.2c-0.3,0.3-0.5,0.4-0.9,0.5c-1.1,0.3-2.2-0.3-2.4-1.3v-0.2h3.5h3.5v-0.9
	c0-0.6,0-1-0.1-1.2c-0.2-1.2-0.7-2-1.4-2.8c-0.7-0.7-1.5-1.1-2.6-1.3C106.4,32.4,105.2,32.4,104.8,32.5z M51.2,37.8v5.1h1.9H55v-5.1
	v-5.1h-1.9h-1.9C51.2,32.7,51.2,37.8,51.2,37.8z M106.3,35.3c0.3,0.1,0.4,0.2,0.7,0.4c0.2,0.2,0.4,0.4,0.4,0.7v0.2h-1.7
	c-1.9,0-1.8,0-1.6-0.4C104.3,35.5,105.3,35.1,106.3,35.3z M73.9,35.9c0.5,0.1,1.1,0.6,1.3,1.1c0.5,1.1,0,2.4-1.2,2.8
	c-0.4,0.1-1,0.1-1.4,0c-0.6-0.2-1.2-0.7-1.3-1.3c-0.1-0.3-0.1-0.4-0.1-0.7c0-0.4,0-0.5,0.2-0.8C71.9,36,72.9,35.6,73.9,35.9z"/>
</svg>
