<svg width="14" height="18" viewBox="0 0 14 18" fill="none" xmlns="http://www.w3.org/2000/svg">
<path d="M7 18C7.9625 18 8.75 17.1692 8.75 16.1538H5.25C5.25 17.1692 6.0375 18 7 18ZM12.25 12.4615V7.84615C12.25 5.01231 10.8237 2.64 8.3125 2.01231V1.38462C8.3125 0.618462 7.72625 0 7 0C6.27375 0 5.6875 0.618462 5.6875 1.38462V2.01231C3.185 2.64 1.75 5.00308 1.75 7.84615V12.4615L0 14.3077V15.2308H14V14.3077L12.25 12.4615ZM10.5 13.3846H3.5V7.84615C3.5 5.55692 4.82125 3.69231 7 3.69231C9.17875 3.69231 10.5 5.55692 10.5 7.84615V13.3846Z" fill="white"/>
</svg>
