<svg width="21" height="18" viewBox="0 0 21 18" fill="none" xmlns="http://www.w3.org/2000/svg">
<path fill-rule="evenodd" clip-rule="evenodd" d="M10.5939 4.30409C9.74114 3.08075 8.3238 2.28027 6.7195 2.28027C4.11299 2.28027 2 4.39327 2 6.99978C2 9.48696 3.92396 11.5248 6.36479 11.7062C6.48469 12.419 6.71684 13.0938 7.04244 13.7117C6.93543 13.7167 6.82777 13.7193 6.7195 13.7193C3.00842 13.7193 0 10.7109 0 6.99978C0 3.2887 3.00842 0.280273 6.7195 0.280273C9.30109 0.280273 11.5427 1.73611 12.668 3.87158C11.9403 3.90601 11.243 4.05618 10.5939 4.30409Z" fill="#8E91A5"/>
<circle cx="14.5" cy="11.4998" r="5.5" fill="#161824" stroke="#8E91A5" stroke-width="2"/>
</svg>
