<svg width="274" height="210" viewBox="0 0 274 210" fill="none" xmlns="http://www.w3.org/2000/svg">
<g filter="url(#filter0_d_1_2059)">
<mask id="path-10-outside-1_1_2059" maskUnits="userSpaceOnUse" x="43.1348" y="69" width="188" height="96" fill="black">
<rect fill="white" x="43.1348" y="69" width="188" height="96"/>
<path fill-rule="evenodd" clip-rule="evenodd" d="M224.95 162.864C224.95 114.289 185.573 74.9117 136.998 74.9117C88.4239 74.9117 49.0465 114.289 49.0464 162.864H45.1348C45.1348 112.129 86.2636 71 136.998 71C187.733 71 228.862 112.129 228.862 162.864H224.95Z"/>
</mask>
<path fill-rule="evenodd" clip-rule="evenodd" d="M224.95 162.864C224.95 114.289 185.573 74.9117 136.998 74.9117C88.4239 74.9117 49.0465 114.289 49.0464 162.864H45.1348C45.1348 112.129 86.2636 71 136.998 71C187.733 71 228.862 112.129 228.862 162.864H224.95Z" fill="#00F118"/>
<path d="M224.95 162.864H222.95V164.864H224.95V162.864ZM49.0464 162.864V164.864H51.0464L51.0464 162.864H49.0464ZM45.1348 162.864H43.1348L43.1348 164.864H45.1348V162.864ZM228.862 162.864V164.864H230.862V162.864H228.862ZM226.95 162.864C226.95 113.184 186.678 72.9117 136.998 72.9117V76.9117C184.468 76.9117 222.95 115.394 222.95 162.864H226.95ZM136.998 72.9117C87.3194 72.9117 47.0465 113.184 47.0464 162.864H51.0464C51.0465 115.394 89.5285 76.9117 136.998 76.9117V72.9117ZM45.1348 164.864H49.0464V160.864H45.1348V164.864ZM136.998 69C85.159 69 43.1348 111.024 43.1348 162.864H47.1348C47.1348 113.233 87.3682 73 136.998 73V69ZM230.862 162.864C230.862 111.024 188.838 69 136.998 69V73C186.629 73 226.862 113.233 226.862 162.864H230.862ZM224.95 164.864H228.862V160.864H224.95V164.864Z" fill="#381C36" mask="url(#path-10-outside-1_1_2059)"/>
<mask id="path-12-outside-2_1_2059" maskUnits="userSpaceOnUse" x="43.1348" y="69" width="175" height="96" fill="black">
<rect fill="white" x="43.1348" y="69" width="175" height="96"/>
<path fill-rule="evenodd" clip-rule="evenodd" d="M49.0464 162.864C49.0464 114.289 88.4239 74.9117 136.998 74.9117C168.443 74.9117 196.033 91.4126 211.582 116.228L214.904 114.161C198.664 88.2381 169.844 71 136.998 71C86.2635 71 45.1348 112.129 45.1348 162.864H49.0464Z"/>
</mask>
<path fill-rule="evenodd" clip-rule="evenodd" d="M49.0464 162.864C49.0464 114.289 88.4239 74.9117 136.998 74.9117C168.443 74.9117 196.033 91.4126 211.582 116.228L214.904 114.161C198.664 88.2381 169.844 71 136.998 71C86.2635 71 45.1348 112.129 45.1348 162.864H49.0464Z" fill="#00B2EA"/>
<path d="M49.0464 162.864V164.864H51.0464V162.864H49.0464ZM211.582 116.228L209.887 117.29L210.946 118.979L212.639 117.926L211.582 116.228ZM214.904 114.161L215.96 115.859L217.664 114.799L216.599 113.099L214.904 114.161ZM45.1348 162.864H43.1348V164.864H45.1348V162.864ZM136.998 72.9117C87.3193 72.9117 47.0464 113.185 47.0464 162.864H51.0464C51.0464 115.394 89.5285 76.9117 136.998 76.9117V72.9117ZM213.277 115.166C197.377 89.7916 169.16 72.9117 136.998 72.9117V76.9117C167.725 76.9117 194.688 93.0337 209.887 117.29L213.277 115.166ZM212.639 117.926L215.96 115.859L213.847 112.463L210.525 114.53L212.639 117.926ZM216.599 113.099C200.008 86.6171 170.561 69 136.998 69V73C169.127 73 197.319 89.8591 213.209 115.223L216.599 113.099ZM136.998 69C85.159 69 43.1348 111.024 43.1348 162.864H47.1348C47.1348 113.233 87.3681 73 136.998 73V69ZM45.1348 164.864H49.0464V160.864H45.1348V164.864Z" fill="#381C36" mask="url(#path-12-outside-2_1_2059)"/>
<mask id="path-14-outside-3_1_2059" maskUnits="userSpaceOnUse" x="43.1348" y="69" width="129" height="96" fill="black">
<rect fill="white" x="43.1348" y="69" width="129" height="96"/>
<path fill-rule="evenodd" clip-rule="evenodd" d="M168.733 76.629C158.843 72.988 148.153 71 136.998 71C86.2635 71 45.1348 112.129 45.1348 162.864H49.0464C49.0464 114.289 88.4239 74.9117 136.998 74.9117C147.673 74.9117 157.903 76.8131 167.368 80.2959L168.733 76.629Z"/>
</mask>
<path fill-rule="evenodd" clip-rule="evenodd" d="M168.733 76.629C158.843 72.988 148.153 71 136.998 71C86.2635 71 45.1348 112.129 45.1348 162.864H49.0464C49.0464 114.289 88.4239 74.9117 136.998 74.9117C147.673 74.9117 157.903 76.8131 167.368 80.2959L168.733 76.629Z" fill="#901DEA"/>
<path d="M168.733 76.629L170.608 77.3267L171.308 75.4455L169.424 74.7521L168.733 76.629ZM45.1348 162.864H43.1348V164.864H45.1348V162.864ZM49.0464 162.864V164.864H51.0464V162.864H49.0464ZM167.368 80.2959L166.678 82.1729L168.547 82.8608L169.243 80.9936L167.368 80.2959ZM169.424 74.7521C159.316 71.0309 148.392 69 136.998 69V73C147.913 73 158.37 74.9451 168.042 78.5058L169.424 74.7521ZM136.998 69C85.159 69 43.1348 111.024 43.1348 162.864H47.1348C47.1348 113.233 87.3681 73 136.998 73V69ZM45.1348 164.864H49.0464V160.864H45.1348V164.864ZM136.998 72.9117C87.3193 72.9117 47.0464 113.185 47.0464 162.864H51.0464C51.0464 115.394 89.5285 76.9117 136.998 76.9117V72.9117ZM168.059 78.4189C158.375 74.856 147.912 72.9117 136.998 72.9117V76.9117C147.433 76.9117 157.43 78.7703 166.678 82.1729L168.059 78.4189ZM169.243 80.9936L170.608 77.3267L166.859 75.9312L165.494 79.5981L169.243 80.9936Z" fill="#381C36" mask="url(#path-14-outside-3_1_2059)"/>
<mask id="path-16-outside-4_1_2059" maskUnits="userSpaceOnUse" x="43.1355" y="74.4178" width="65" height="91" fill="black">
<rect fill="white" x="43.1355" y="74.4178" width="65" height="91"/>
<path fill-rule="evenodd" clip-rule="evenodd" d="M103.199 77.4178C69.1897 90.8823 45.1355 124.064 45.1355 162.864C45.1355 162.864 45.1355 162.864 45.1355 162.864H49.0471C49.0471 162.864 49.0471 162.864 49.0471 162.864C49.0471 125.721 72.0707 93.9561 104.625 81.0615L103.199 77.4178Z"/>
</mask>
<path fill-rule="evenodd" clip-rule="evenodd" d="M103.199 77.4178C69.1897 90.8823 45.1355 124.064 45.1355 162.864C45.1355 162.864 45.1355 162.864 45.1355 162.864H49.0471C49.0471 162.864 49.0471 162.864 49.0471 162.864C49.0471 125.721 72.0707 93.9561 104.625 81.0615L103.199 77.4178Z" fill="#E40056"/>
<path d="M103.199 77.4178L105.061 76.689L104.33 74.8191L102.463 75.5583L103.199 77.4178ZM45.1355 162.864H43.1355V164.864H45.1355V162.864ZM49.0471 162.864V164.864H51.0471V162.864H49.0471ZM104.625 81.0615L105.361 82.921L107.213 82.1875L106.487 80.3327L104.625 81.0615ZM102.463 75.5583C67.7165 89.3144 43.1355 123.216 43.1355 162.864H47.1355C47.1355 124.912 70.6628 92.4501 103.935 79.2774L102.463 75.5583ZM43.1355 162.864C43.1355 162.864 43.1355 162.864 43.1355 162.864C43.1355 162.864 43.1355 162.864 43.1355 162.864H47.1355C47.1355 162.864 47.1355 162.864 47.1355 162.864C47.1355 162.864 47.1355 162.864 47.1355 162.864H43.1355ZM45.1355 164.864H49.0471V160.864H45.1355V164.864ZM47.0471 162.864C47.0471 162.864 47.0471 162.864 47.0471 162.864C47.0471 162.864 47.0471 162.864 47.0471 162.864V162.864C47.0471 162.864 47.0471 162.864 47.0471 162.864V162.864C47.0471 162.864 47.0471 162.864 47.0471 162.864C47.0471 162.864 47.0471 162.864 47.0471 162.864C47.0471 162.864 47.0471 162.864 47.0471 162.864C47.0471 162.864 47.0471 162.864 47.0471 162.864V162.864V162.864V162.864V162.864V162.864V162.864C47.0471 162.864 47.0471 162.864 47.0471 162.864C47.0471 162.864 47.0471 162.864 47.0471 162.864C47.0471 162.864 47.0471 162.864 47.0471 162.864V162.864V162.864V162.864C47.0471 162.864 47.0471 162.864 47.0471 162.864C47.0471 162.864 47.0471 162.864 47.0471 162.864V162.864C47.0471 162.864 47.0471 162.864 47.0471 162.864V162.864C47.0471 162.864 47.0471 162.864 47.0471 162.864C47.0471 162.864 47.0471 162.864 47.0471 162.864H51.0471C51.0471 162.864 51.0471 162.864 51.0471 162.864C51.0471 162.864 51.0471 162.864 51.0471 162.864V162.864C51.0471 162.864 51.0471 162.864 51.0471 162.864V162.864C51.0471 162.864 51.0471 162.864 51.0471 162.864C51.0471 162.864 51.0471 162.864 51.0471 162.864V162.864V162.864V162.864C51.0471 162.864 51.0471 162.864 51.0471 162.864C51.0471 162.864 51.0471 162.864 51.0471 162.864C51.0471 162.864 51.0471 162.864 51.0471 162.864V162.864V162.864V162.864V162.864V162.864V162.864C51.0471 162.864 51.0471 162.864 51.0471 162.864C51.0471 162.864 51.0471 162.864 51.0471 162.864C51.0471 162.864 51.0471 162.864 51.0471 162.864C51.0471 162.864 51.0471 162.864 51.0471 162.864V162.864C51.0471 162.864 51.0471 162.864 51.0471 162.864V162.864C51.0471 162.864 51.0471 162.864 51.0471 162.864C51.0471 162.864 51.0471 162.864 51.0471 162.864H47.0471ZM103.888 79.2021C70.5975 92.3884 47.0471 124.873 47.0471 162.864H51.0471C51.0471 126.569 73.544 95.5237 105.361 82.921L103.888 79.2021ZM106.487 80.3327L105.061 76.689L101.336 78.1466L102.762 81.7903L106.487 80.3327Z" fill="#381C36" mask="url(#path-16-outside-4_1_2059)"/>
<mask id="path-18-outside-5_1_2059" maskUnits="userSpaceOnUse" x="43.1355" y="110.334" width="23" height="55" fill="black">
<rect fill="white" x="43.1355" y="110.334" width="23" height="55"/>
<path fill-rule="evenodd" clip-rule="evenodd" d="M59.6177 113.334C50.4511 127.626 45.1355 144.624 45.1355 162.864H49.0471C49.0471 145.404 54.1346 129.132 62.9081 115.451L59.6177 113.334Z"/>
</mask>
<path fill-rule="evenodd" clip-rule="evenodd" d="M59.6177 113.334C50.4511 127.626 45.1355 144.624 45.1355 162.864H49.0471C49.0471 145.404 54.1346 129.132 62.9081 115.451L59.6177 113.334Z" fill="#930000"/>
<path d="M59.6177 113.334L60.6995 111.652L59.0153 110.569L57.9342 112.255L59.6177 113.334ZM45.1355 162.864H43.1355V164.864H45.1355V162.864ZM49.0471 162.864V164.864H51.0471V162.864H49.0471ZM62.9081 115.451L64.5917 116.53L65.6699 114.849L63.9899 113.768L62.9081 115.451ZM57.9342 112.255C48.5671 126.859 43.1355 144.23 43.1355 162.864H47.1355C47.1355 145.018 52.3351 128.393 61.3012 114.414L57.9342 112.255ZM45.1355 164.864H49.0471V160.864H45.1355V164.864ZM61.2246 114.371C52.2507 128.365 47.0471 145.01 47.0471 162.864H51.0471C51.0471 145.798 56.0186 129.899 64.5917 116.53L61.2246 114.371ZM63.9899 113.768L60.6995 111.652L58.5359 115.017L61.8263 117.133L63.9899 113.768Z" fill="#381C36" mask="url(#path-18-outside-5_1_2059)"/>
</g>
<path d="M9.52248 117.96C10.2345 117.96 10.8505 118.096 11.3705 118.368C11.8905 118.632 12.3305 119.024 12.6905 119.544L11.8265 120.372C11.5225 119.908 11.1785 119.576 10.7945 119.376C10.4185 119.168 9.97048 119.064 9.45048 119.064C8.86648 119.064 8.44248 119.176 8.17848 119.4C7.91448 119.624 7.78248 119.896 7.78248 120.216C7.78248 120.464 7.86648 120.68 8.03448 120.864C8.21048 121.048 8.53448 121.192 9.00648 121.296L10.6145 121.656C11.3745 121.832 11.9145 122.092 12.2345 122.436C12.5625 122.772 12.7265 123.204 12.7265 123.732C12.7265 124.22 12.5945 124.644 12.3305 125.004C12.0665 125.356 11.6985 125.632 11.2265 125.832C10.7545 126.024 10.2065 126.12 9.58248 126.12C8.74248 126.12 8.02648 125.964 7.43448 125.652C6.84248 125.332 6.38648 124.936 6.06648 124.464L6.95448 123.576C7.20248 124 7.55048 124.348 7.99848 124.62C8.45448 124.884 8.99448 125.016 9.61848 125.016C10.1705 125.016 10.6025 124.92 10.9145 124.728C11.2345 124.528 11.3945 124.244 11.3945 123.876C11.3945 123.652 11.3145 123.452 11.1545 123.276C11.0025 123.092 10.7145 122.952 10.2905 122.856L8.55048 122.46C7.83048 122.308 7.29848 122.056 6.95448 121.704C6.61048 121.352 6.43848 120.912 6.43848 120.384C6.43848 119.936 6.56248 119.528 6.81048 119.16C7.05848 118.792 7.41048 118.5 7.86648 118.284C8.33048 118.068 8.88248 117.96 9.52248 117.96ZM18.1577 120V121.008H16.0937V124.2C16.0937 124.488 16.1737 124.704 16.3337 124.848C16.4937 124.984 16.7017 125.052 16.9577 125.052C17.1817 125.052 17.3697 125.02 17.5217 124.956C17.6817 124.884 17.8297 124.788 17.9657 124.668L18.2537 125.604C18.0697 125.764 17.8417 125.892 17.5697 125.988C17.3057 126.076 17.0097 126.12 16.6817 126.12C16.1537 126.12 15.7097 125.992 15.3497 125.736C14.9897 125.472 14.8097 125.032 14.8097 124.416V121.008H13.6577V120H14.8097V118.596L16.0937 118.236V120H18.1577ZM19.4276 126V120H20.5196L20.6396 121.08C20.9676 120.28 21.5956 119.88 22.5236 119.88C22.6436 119.88 22.7636 119.892 22.8836 119.916C23.0036 119.932 23.1036 119.96 23.1836 120L23.0036 121.128C22.9156 121.096 22.8156 121.072 22.7036 121.056C22.5996 121.032 22.4556 121.02 22.2716 121.02C22.0156 121.02 21.7676 121.088 21.5276 121.224C21.2956 121.352 21.0996 121.552 20.9396 121.824C20.7876 122.088 20.7116 122.42 20.7116 122.82V126H19.4276ZM26.848 119.88C27.432 119.88 27.948 120.004 28.396 120.252C28.844 120.5 29.192 120.86 29.44 121.332C29.696 121.796 29.824 122.352 29.824 123C29.824 123.648 29.696 124.208 29.44 124.68C29.192 125.144 28.844 125.5 28.396 125.748C27.948 125.996 27.432 126.12 26.848 126.12C26.264 126.12 25.748 125.996 25.3 125.748C24.852 125.5 24.5 125.144 24.244 124.68C23.988 124.208 23.86 123.648 23.86 123C23.86 122.352 23.988 121.796 24.244 121.332C24.5 120.86 24.852 120.5 25.3 120.252C25.748 120.004 26.264 119.88 26.848 119.88ZM26.848 120.888C26.32 120.888 25.904 121.072 25.6 121.44C25.296 121.8 25.144 122.32 25.144 123C25.144 123.68 25.296 124.204 25.6 124.572C25.904 124.932 26.32 125.112 26.848 125.112C27.376 125.112 27.788 124.932 28.084 124.572C28.388 124.204 28.54 123.68 28.54 123C28.54 122.32 28.388 121.8 28.084 121.44C27.788 121.072 27.376 120.888 26.848 120.888ZM31.4394 126V120H32.5794L32.6394 121.032C32.8394 120.632 33.1154 120.34 33.4674 120.156C33.8274 119.972 34.2274 119.88 34.6674 119.88C35.0914 119.88 35.4714 119.964 35.8074 120.132C36.1514 120.292 36.4234 120.54 36.6234 120.876C36.8234 121.204 36.9234 121.616 36.9234 122.112V126H35.6394V122.508C35.6394 121.916 35.5154 121.508 35.2674 121.284C35.0274 121.052 34.7234 120.936 34.3554 120.936C34.0914 120.936 33.8354 120.996 33.5874 121.116C33.3394 121.236 33.1314 121.436 32.9634 121.716C32.8034 121.988 32.7234 122.352 32.7234 122.808V126H31.4394ZM42.253 125.064C42.861 125.064 43.333 125.2 43.669 125.472C44.005 125.736 44.173 126.104 44.173 126.576C44.173 127 44.041 127.36 43.777 127.656C43.513 127.96 43.153 128.188 42.697 128.34C42.241 128.5 41.725 128.58 41.149 128.58C40.157 128.58 39.425 128.428 38.953 128.124C38.489 127.82 38.257 127.44 38.257 126.984C38.257 126.712 38.337 126.468 38.497 126.252C38.657 126.036 38.921 125.888 39.289 125.808C39.065 125.712 38.889 125.58 38.761 125.412C38.633 125.236 38.569 125.012 38.569 124.74C38.569 124.476 38.645 124.244 38.797 124.044C38.949 123.836 39.173 123.68 39.469 123.576C38.837 123.216 38.521 122.66 38.521 121.908C38.521 121.3 38.757 120.812 39.229 120.444C39.701 120.068 40.325 119.88 41.101 119.88C41.605 119.88 42.049 119.96 42.433 120.12C42.497 119.72 42.673 119.392 42.961 119.136C43.249 118.872 43.613 118.74 44.053 118.74C44.093 118.74 44.125 118.74 44.149 118.74L44.353 119.748C44.313 119.74 44.265 119.736 44.209 119.736C43.521 119.736 43.137 119.988 43.057 120.492C43.481 120.86 43.693 121.332 43.693 121.908C43.693 122.524 43.457 123.016 42.985 123.384C42.513 123.752 41.885 123.936 41.101 123.936C40.773 123.936 40.473 123.908 40.201 123.852C39.985 123.908 39.829 123.996 39.733 124.116C39.645 124.228 39.601 124.348 39.601 124.476C39.601 124.868 39.885 125.064 40.453 125.064H42.253ZM41.101 120.78C40.733 120.78 40.425 120.884 40.177 121.092C39.937 121.292 39.817 121.564 39.817 121.908C39.817 122.252 39.937 122.528 40.177 122.736C40.425 122.944 40.733 123.048 41.101 123.048C41.477 123.048 41.785 122.944 42.025 122.736C42.273 122.528 42.397 122.252 42.397 121.908C42.397 121.564 42.273 121.292 42.025 121.092C41.785 120.884 41.477 120.78 41.101 120.78ZM41.149 127.62C41.805 127.62 42.289 127.532 42.601 127.356C42.921 127.18 43.081 126.972 43.081 126.732C43.081 126.548 43.005 126.4 42.853 126.288C42.709 126.176 42.445 126.12 42.061 126.12H40.129C39.897 126.12 39.705 126.18 39.553 126.3C39.409 126.42 39.337 126.576 39.337 126.768C39.337 127.032 39.497 127.24 39.817 127.392C40.137 127.544 40.581 127.62 41.149 127.62ZM17.8194 129.96C18.5314 129.96 19.1474 130.096 19.6674 130.368C20.1874 130.632 20.6274 131.024 20.9874 131.544L20.1234 132.372C19.8194 131.908 19.4754 131.576 19.0914 131.376C18.7154 131.168 18.2674 131.064 17.7474 131.064C17.1634 131.064 16.7394 131.176 16.4754 131.4C16.2114 131.624 16.0794 131.896 16.0794 132.216C16.0794 132.464 16.1634 132.68 16.3314 132.864C16.5074 133.048 16.8314 133.192 17.3034 133.296L18.9114 133.656C19.6714 133.832 20.2114 134.092 20.5314 134.436C20.8594 134.772 21.0234 135.204 21.0234 135.732C21.0234 136.22 20.8914 136.644 20.6274 137.004C20.3634 137.356 19.9954 137.632 19.5234 137.832C19.0514 138.024 18.5034 138.12 17.8794 138.12C17.0394 138.12 16.3234 137.964 15.7314 137.652C15.1394 137.332 14.6834 136.936 14.3634 136.464L15.2514 135.576C15.4994 136 15.8474 136.348 16.2954 136.62C16.7514 136.884 17.2914 137.016 17.9154 137.016C18.4674 137.016 18.8994 136.92 19.2114 136.728C19.5314 136.528 19.6914 136.244 19.6914 135.876C19.6914 135.652 19.6114 135.452 19.4514 135.276C19.2994 135.092 19.0114 134.952 18.5874 134.856L16.8474 134.46C16.1274 134.308 15.5954 134.056 15.2514 133.704C14.9074 133.352 14.7354 132.912 14.7354 132.384C14.7354 131.936 14.8594 131.528 15.1074 131.16C15.3554 130.792 15.7074 130.5 16.1634 130.284C16.6274 130.068 17.1794 129.96 17.8194 129.96ZM25.2786 138.12C24.6786 138.12 24.1506 137.996 23.6946 137.748C23.2466 137.5 22.8946 137.144 22.6386 136.68C22.3826 136.208 22.2546 135.648 22.2546 135C22.2546 134.352 22.3786 133.796 22.6266 133.332C22.8826 132.86 23.2306 132.5 23.6706 132.252C24.1186 132.004 24.6306 131.88 25.2066 131.88C25.7906 131.88 26.2866 132 26.6946 132.24C27.1026 132.48 27.4146 132.808 27.6306 133.224C27.8466 133.64 27.9546 134.112 27.9546 134.64C27.9546 134.792 27.9506 134.932 27.9426 135.06C27.9346 135.188 27.9226 135.296 27.9066 135.384H23.5146C23.5706 135.944 23.7506 136.372 24.0546 136.668C24.3666 136.956 24.7666 137.1 25.2546 137.1C25.6546 137.1 25.9786 137.024 26.2266 136.872C26.4746 136.72 26.6706 136.508 26.8146 136.236L27.8346 136.716C27.6266 137.156 27.2946 137.5 26.8386 137.748C26.3906 137.996 25.8706 138.12 25.2786 138.12ZM25.1826 132.9C24.7426 132.9 24.3786 133.028 24.0906 133.284C23.8106 133.54 23.6306 133.912 23.5506 134.4H26.7066C26.6746 133.92 26.5226 133.552 26.2506 133.296C25.9786 133.032 25.6226 132.9 25.1826 132.9ZM30.8241 129.3V136.32C30.8241 136.616 30.8761 136.82 30.9801 136.932C31.0841 137.044 31.2561 137.1 31.4961 137.1C31.6401 137.1 31.7601 137.092 31.8561 137.076C31.9601 137.052 32.0881 137.012 32.2401 136.956L32.0961 137.916C31.8161 138.052 31.4841 138.12 31.1001 138.12C30.5641 138.12 30.1681 137.984 29.9121 137.712C29.6641 137.44 29.5401 137.012 29.5401 136.428V129.3H30.8241ZM34.5624 129.3V136.32C34.5624 136.616 34.6144 136.82 34.7184 136.932C34.8224 137.044 34.9944 137.1 35.2344 137.1C35.3784 137.1 35.4984 137.092 35.5944 137.076C35.6984 137.052 35.8264 137.012 35.9784 136.956L35.8344 137.916C35.5544 138.052 35.2224 138.12 34.8384 138.12C34.3024 138.12 33.9064 137.984 33.6504 137.712C33.4024 137.44 33.2784 137.012 33.2784 136.428V129.3H34.5624Z" fill="#8E91A5"/>
<path d="M233.522 117.96C234.234 117.96 234.85 118.096 235.37 118.368C235.89 118.632 236.33 119.024 236.69 119.544L235.826 120.372C235.522 119.908 235.178 119.576 234.794 119.376C234.418 119.168 233.97 119.064 233.45 119.064C232.866 119.064 232.442 119.176 232.178 119.4C231.914 119.624 231.782 119.896 231.782 120.216C231.782 120.464 231.866 120.68 232.034 120.864C232.21 121.048 232.534 121.192 233.006 121.296L234.614 121.656C235.374 121.832 235.914 122.092 236.234 122.436C236.562 122.772 236.726 123.204 236.726 123.732C236.726 124.22 236.594 124.644 236.33 125.004C236.066 125.356 235.698 125.632 235.226 125.832C234.754 126.024 234.206 126.12 233.582 126.12C232.742 126.12 232.026 125.964 231.434 125.652C230.842 125.332 230.386 124.936 230.066 124.464L230.954 123.576C231.202 124 231.55 124.348 231.998 124.62C232.454 124.884 232.994 125.016 233.618 125.016C234.17 125.016 234.602 124.92 234.914 124.728C235.234 124.528 235.394 124.244 235.394 123.876C235.394 123.652 235.314 123.452 235.154 123.276C235.002 123.092 234.714 122.952 234.29 122.856L232.55 122.46C231.83 122.308 231.298 122.056 230.954 121.704C230.61 121.352 230.438 120.912 230.438 120.384C230.438 119.936 230.562 119.528 230.81 119.16C231.058 118.792 231.41 118.5 231.866 118.284C232.33 118.068 232.882 117.96 233.522 117.96ZM242.158 120V121.008H240.094V124.2C240.094 124.488 240.174 124.704 240.334 124.848C240.494 124.984 240.702 125.052 240.958 125.052C241.182 125.052 241.37 125.02 241.522 124.956C241.682 124.884 241.83 124.788 241.966 124.668L242.254 125.604C242.07 125.764 241.842 125.892 241.57 125.988C241.306 126.076 241.01 126.12 240.682 126.12C240.154 126.12 239.71 125.992 239.35 125.736C238.99 125.472 238.81 125.032 238.81 124.416V121.008H237.658V120H238.81V118.596L240.094 118.236V120H242.158ZM243.428 126V120H244.52L244.64 121.08C244.968 120.28 245.596 119.88 246.524 119.88C246.644 119.88 246.764 119.892 246.884 119.916C247.004 119.932 247.104 119.96 247.184 120L247.004 121.128C246.916 121.096 246.816 121.072 246.704 121.056C246.6 121.032 246.456 121.02 246.272 121.02C246.016 121.02 245.768 121.088 245.528 121.224C245.296 121.352 245.1 121.552 244.94 121.824C244.788 122.088 244.712 122.42 244.712 122.82V126H243.428ZM250.848 119.88C251.432 119.88 251.948 120.004 252.396 120.252C252.844 120.5 253.192 120.86 253.44 121.332C253.696 121.796 253.824 122.352 253.824 123C253.824 123.648 253.696 124.208 253.44 124.68C253.192 125.144 252.844 125.5 252.396 125.748C251.948 125.996 251.432 126.12 250.848 126.12C250.264 126.12 249.748 125.996 249.3 125.748C248.852 125.5 248.5 125.144 248.244 124.68C247.988 124.208 247.86 123.648 247.86 123C247.86 122.352 247.988 121.796 248.244 121.332C248.5 120.86 248.852 120.5 249.3 120.252C249.748 120.004 250.264 119.88 250.848 119.88ZM250.848 120.888C250.32 120.888 249.904 121.072 249.6 121.44C249.296 121.8 249.144 122.32 249.144 123C249.144 123.68 249.296 124.204 249.6 124.572C249.904 124.932 250.32 125.112 250.848 125.112C251.376 125.112 251.788 124.932 252.084 124.572C252.388 124.204 252.54 123.68 252.54 123C252.54 122.32 252.388 121.8 252.084 121.44C251.788 121.072 251.376 120.888 250.848 120.888ZM255.439 126V120H256.579L256.639 121.032C256.839 120.632 257.115 120.34 257.467 120.156C257.827 119.972 258.227 119.88 258.667 119.88C259.091 119.88 259.471 119.964 259.807 120.132C260.151 120.292 260.423 120.54 260.623 120.876C260.823 121.204 260.923 121.616 260.923 122.112V126H259.639V122.508C259.639 121.916 259.515 121.508 259.267 121.284C259.027 121.052 258.723 120.936 258.355 120.936C258.091 120.936 257.835 120.996 257.587 121.116C257.339 121.236 257.131 121.436 256.963 121.716C256.803 121.988 256.723 122.352 256.723 122.808V126H255.439ZM266.253 125.064C266.861 125.064 267.333 125.2 267.669 125.472C268.005 125.736 268.173 126.104 268.173 126.576C268.173 127 268.041 127.36 267.777 127.656C267.513 127.96 267.153 128.188 266.697 128.34C266.241 128.5 265.725 128.58 265.149 128.58C264.157 128.58 263.425 128.428 262.953 128.124C262.489 127.82 262.257 127.44 262.257 126.984C262.257 126.712 262.337 126.468 262.497 126.252C262.657 126.036 262.921 125.888 263.289 125.808C263.065 125.712 262.889 125.58 262.761 125.412C262.633 125.236 262.569 125.012 262.569 124.74C262.569 124.476 262.645 124.244 262.797 124.044C262.949 123.836 263.173 123.68 263.469 123.576C262.837 123.216 262.521 122.66 262.521 121.908C262.521 121.3 262.757 120.812 263.229 120.444C263.701 120.068 264.325 119.88 265.101 119.88C265.605 119.88 266.049 119.96 266.433 120.12C266.497 119.72 266.673 119.392 266.961 119.136C267.249 118.872 267.613 118.74 268.053 118.74C268.093 118.74 268.125 118.74 268.149 118.74L268.353 119.748C268.313 119.74 268.265 119.736 268.209 119.736C267.521 119.736 267.137 119.988 267.057 120.492C267.481 120.86 267.693 121.332 267.693 121.908C267.693 122.524 267.457 123.016 266.985 123.384C266.513 123.752 265.885 123.936 265.101 123.936C264.773 123.936 264.473 123.908 264.201 123.852C263.985 123.908 263.829 123.996 263.733 124.116C263.645 124.228 263.601 124.348 263.601 124.476C263.601 124.868 263.885 125.064 264.453 125.064H266.253ZM265.101 120.78C264.733 120.78 264.425 120.884 264.177 121.092C263.937 121.292 263.817 121.564 263.817 121.908C263.817 122.252 263.937 122.528 264.177 122.736C264.425 122.944 264.733 123.048 265.101 123.048C265.477 123.048 265.785 122.944 266.025 122.736C266.273 122.528 266.397 122.252 266.397 121.908C266.397 121.564 266.273 121.292 266.025 121.092C265.785 120.884 265.477 120.78 265.101 120.78ZM265.149 127.62C265.805 127.62 266.289 127.532 266.601 127.356C266.921 127.18 267.081 126.972 267.081 126.732C267.081 126.548 267.005 126.4 266.853 126.288C266.709 126.176 266.445 126.12 266.061 126.12H264.129C263.897 126.12 263.705 126.18 263.553 126.3C263.409 126.42 263.337 126.576 263.337 126.768C263.337 127.032 263.497 127.24 263.817 127.392C264.137 127.544 264.581 127.62 265.149 127.62ZM239.313 138V130.08H242.433C243.385 130.08 244.081 130.272 244.521 130.656C244.961 131.04 245.181 131.572 245.181 132.252C245.181 132.668 245.061 133.04 244.821 133.368C244.581 133.688 244.229 133.892 243.765 133.98V133.992C244.277 134.08 244.673 134.292 244.953 134.628C245.241 134.964 245.385 135.356 245.385 135.804C245.385 136.484 245.137 137.02 244.641 137.412C244.145 137.804 243.425 138 242.481 138H239.313ZM240.573 133.488H242.337C243.345 133.488 243.849 133.1 243.849 132.324C243.849 131.548 243.345 131.16 242.337 131.16H240.573V133.488ZM240.573 136.932H242.541C243.045 136.932 243.421 136.828 243.669 136.62C243.925 136.412 244.053 136.12 244.053 135.744C244.053 135.368 243.925 135.076 243.669 134.868C243.421 134.66 243.045 134.556 242.541 134.556H240.573V136.932ZM249.214 138.12C248.822 138.12 248.458 138.048 248.122 137.904C247.794 137.76 247.53 137.528 247.33 137.208C247.13 136.888 247.03 136.472 247.03 135.96V132H248.314V135.636C248.314 136.18 248.426 136.556 248.65 136.764C248.882 136.964 249.21 137.064 249.634 137.064C249.906 137.064 250.162 137.004 250.402 136.884C250.642 136.756 250.834 136.56 250.978 136.296C251.13 136.024 251.206 135.676 251.206 135.252V132H252.49V138H251.362L251.302 137.028C251.094 137.404 250.814 137.68 250.462 137.856C250.11 138.032 249.694 138.12 249.214 138.12ZM259.764 132L257.136 138.708C256.872 139.404 256.572 139.888 256.236 140.16C255.9 140.44 255.468 140.58 254.94 140.58C254.644 140.58 254.376 140.544 254.136 140.472C253.896 140.4 253.684 140.296 253.5 140.16L253.812 139.164C254.1 139.42 254.448 139.548 254.856 139.548C255.072 139.548 255.264 139.492 255.432 139.38C255.608 139.268 255.764 139.036 255.9 138.684L256.164 138.036L255.528 136.548L253.656 132H255.096L256.428 135.768L256.776 136.896L257.172 135.66L258.432 132H259.764Z" fill="#8E91A5"/>
<path d="M53.8194 74.96C54.5314 74.96 55.1474 75.096 55.6674 75.368C56.1874 75.632 56.6274 76.024 56.9874 76.544L56.1234 77.372C55.8194 76.908 55.4754 76.576 55.0914 76.376C54.7154 76.168 54.2674 76.064 53.7474 76.064C53.1634 76.064 52.7394 76.176 52.4754 76.4C52.2114 76.624 52.0794 76.896 52.0794 77.216C52.0794 77.464 52.1634 77.68 52.3314 77.864C52.5074 78.048 52.8314 78.192 53.3034 78.296L54.9114 78.656C55.6714 78.832 56.2114 79.092 56.5314 79.436C56.8594 79.772 57.0234 80.204 57.0234 80.732C57.0234 81.22 56.8914 81.644 56.6274 82.004C56.3634 82.356 55.9954 82.632 55.5234 82.832C55.0514 83.024 54.5034 83.12 53.8794 83.12C53.0394 83.12 52.3234 82.964 51.7314 82.652C51.1394 82.332 50.6834 81.936 50.3634 81.464L51.2514 80.576C51.4994 81 51.8474 81.348 52.2954 81.62C52.7514 81.884 53.2914 82.016 53.9154 82.016C54.4674 82.016 54.8994 81.92 55.2114 81.728C55.5314 81.528 55.6914 81.244 55.6914 80.876C55.6914 80.652 55.6114 80.452 55.4514 80.276C55.2994 80.092 55.0114 79.952 54.5874 79.856L52.8474 79.46C52.1274 79.308 51.5954 79.056 51.2514 78.704C50.9074 78.352 50.7354 77.912 50.7354 77.384C50.7354 76.936 50.8594 76.528 51.1074 76.16C51.3554 75.792 51.7074 75.5 52.1634 75.284C52.6274 75.068 53.1794 74.96 53.8194 74.96ZM61.2786 83.12C60.6786 83.12 60.1506 82.996 59.6946 82.748C59.2466 82.5 58.8946 82.144 58.6386 81.68C58.3826 81.208 58.2546 80.648 58.2546 80C58.2546 79.352 58.3786 78.796 58.6266 78.332C58.8826 77.86 59.2306 77.5 59.6706 77.252C60.1186 77.004 60.6306 76.88 61.2066 76.88C61.7906 76.88 62.2866 77 62.6946 77.24C63.1026 77.48 63.4146 77.808 63.6306 78.224C63.8466 78.64 63.9546 79.112 63.9546 79.64C63.9546 79.792 63.9506 79.932 63.9426 80.06C63.9346 80.188 63.9226 80.296 63.9066 80.384H59.5146C59.5706 80.944 59.7506 81.372 60.0546 81.668C60.3666 81.956 60.7666 82.1 61.2546 82.1C61.6546 82.1 61.9786 82.024 62.2266 81.872C62.4746 81.72 62.6706 81.508 62.8146 81.236L63.8346 81.716C63.6266 82.156 63.2946 82.5 62.8386 82.748C62.3906 82.996 61.8706 83.12 61.2786 83.12ZM61.1826 77.9C60.7426 77.9 60.3786 78.028 60.0906 78.284C59.8106 78.54 59.6306 78.912 59.5506 79.4H62.7066C62.6746 78.92 62.5226 78.552 62.2506 78.296C61.9786 78.032 61.6226 77.9 61.1826 77.9ZM66.8241 74.3V81.32C66.8241 81.616 66.8761 81.82 66.9801 81.932C67.0841 82.044 67.2561 82.1 67.4961 82.1C67.6401 82.1 67.7601 82.092 67.8561 82.076C67.9601 82.052 68.0881 82.012 68.2401 81.956L68.0961 82.916C67.8161 83.052 67.4841 83.12 67.1001 83.12C66.5641 83.12 66.1681 82.984 65.9121 82.712C65.6641 82.44 65.5401 82.012 65.5401 81.428V74.3H66.8241ZM70.5624 74.3V81.32C70.5624 81.616 70.6144 81.82 70.7184 81.932C70.8224 82.044 70.9944 82.1 71.2344 82.1C71.3784 82.1 71.4984 82.092 71.5944 82.076C71.6984 82.052 71.8264 82.012 71.9784 81.956L71.8344 82.916C71.5544 83.052 71.2224 83.12 70.8384 83.12C70.3024 83.12 69.9064 82.984 69.6504 82.712C69.4024 82.44 69.2784 82.012 69.2784 81.428V74.3H70.5624Z" fill="#8E91A5"/>
<path d="M119.859 50.08V58H118.335L115.275 53.008L114.507 51.604H114.495L114.543 52.888V58H113.367V50.08H114.879L117.927 55.06L118.707 56.488H118.719L118.671 55.192V50.08H119.859ZM124.581 58.12C123.981 58.12 123.453 57.996 122.997 57.748C122.549 57.5 122.197 57.144 121.941 56.68C121.685 56.208 121.557 55.648 121.557 55C121.557 54.352 121.681 53.796 121.929 53.332C122.185 52.86 122.533 52.5 122.973 52.252C123.421 52.004 123.933 51.88 124.509 51.88C125.093 51.88 125.589 52 125.997 52.24C126.405 52.48 126.717 52.808 126.933 53.224C127.149 53.64 127.257 54.112 127.257 54.64C127.257 54.792 127.253 54.932 127.245 55.06C127.237 55.188 127.225 55.296 127.209 55.384H122.817C122.873 55.944 123.053 56.372 123.357 56.668C123.669 56.956 124.069 57.1 124.557 57.1C124.957 57.1 125.281 57.024 125.529 56.872C125.777 56.72 125.973 56.508 126.117 56.236L127.137 56.716C126.929 57.156 126.597 57.5 126.141 57.748C125.693 57.996 125.173 58.12 124.581 58.12ZM124.485 52.9C124.045 52.9 123.681 53.028 123.393 53.284C123.113 53.54 122.933 53.912 122.853 54.4H126.009C125.977 53.92 125.825 53.552 125.553 53.296C125.281 53.032 124.925 52.9 124.485 52.9ZM131.015 58.12C130.623 58.12 130.259 58.048 129.923 57.904C129.595 57.76 129.331 57.528 129.131 57.208C128.931 56.888 128.831 56.472 128.831 55.96V52H130.115V55.636C130.115 56.18 130.227 56.556 130.451 56.764C130.683 56.964 131.011 57.064 131.435 57.064C131.707 57.064 131.963 57.004 132.203 56.884C132.443 56.756 132.635 56.56 132.779 56.296C132.931 56.024 133.007 55.676 133.007 55.252V52H134.291V58H133.163L133.103 57.028C132.895 57.404 132.615 57.68 132.263 57.856C131.911 58.032 131.495 58.12 131.015 58.12ZM140.113 52V53.008H138.049V56.2C138.049 56.488 138.129 56.704 138.289 56.848C138.449 56.984 138.657 57.052 138.913 57.052C139.137 57.052 139.325 57.02 139.477 56.956C139.637 56.884 139.785 56.788 139.921 56.668L140.209 57.604C140.025 57.764 139.797 57.892 139.525 57.988C139.261 58.076 138.965 58.12 138.637 58.12C138.109 58.12 137.665 57.992 137.305 57.736C136.945 57.472 136.765 57.032 136.765 56.416V53.008H135.613V52H136.765V50.596L138.049 50.236V52H140.113ZM141.383 58V52H142.475L142.595 53.08C142.923 52.28 143.551 51.88 144.479 51.88C144.599 51.88 144.719 51.892 144.839 51.916C144.959 51.932 145.059 51.96 145.139 52L144.959 53.128C144.871 53.096 144.771 53.072 144.659 53.056C144.555 53.032 144.411 53.02 144.227 53.02C143.971 53.02 143.723 53.088 143.483 53.224C143.251 53.352 143.055 53.552 142.895 53.824C142.743 54.088 142.667 54.42 142.667 54.82V58H141.383ZM149.691 54.148C149.691 53.748 149.579 53.44 149.355 53.224C149.139 53 148.839 52.888 148.455 52.888C148.095 52.888 147.783 52.972 147.519 53.14C147.263 53.308 147.079 53.58 146.967 53.956L145.887 53.5C146.039 53.012 146.335 52.62 146.775 52.324C147.223 52.028 147.799 51.88 148.503 51.88C148.975 51.88 149.395 51.96 149.763 52.12C150.139 52.272 150.431 52.508 150.639 52.828C150.855 53.14 150.963 53.536 150.963 54.016V56.692C150.963 56.988 151.111 57.136 151.407 57.136C151.551 57.136 151.691 57.116 151.827 57.076L151.755 57.964C151.571 58.052 151.339 58.096 151.059 58.096C150.739 58.096 150.463 58.024 150.231 57.88C149.999 57.736 149.843 57.52 149.763 57.232C149.571 57.528 149.295 57.752 148.935 57.904C148.575 58.048 148.215 58.12 147.855 58.12C147.287 58.12 146.815 57.984 146.439 57.712C146.063 57.44 145.875 57.032 145.875 56.488C145.875 56.048 146.019 55.684 146.307 55.396C146.603 55.108 147.019 54.908 147.555 54.796L149.691 54.376V54.148ZM147.171 56.392C147.171 56.616 147.255 56.796 147.423 56.932C147.599 57.06 147.831 57.124 148.119 57.124C148.391 57.124 148.647 57.08 148.887 56.992C149.127 56.904 149.319 56.76 149.463 56.56C149.615 56.36 149.691 56.1 149.691 55.78V55.276L148.179 55.588C147.835 55.652 147.579 55.744 147.411 55.864C147.251 55.984 147.171 56.16 147.171 56.392ZM154.314 49.3V56.32C154.314 56.616 154.366 56.82 154.47 56.932C154.574 57.044 154.746 57.1 154.986 57.1C155.13 57.1 155.25 57.092 155.346 57.076C155.45 57.052 155.578 57.012 155.73 56.956L155.586 57.916C155.306 58.052 154.974 58.12 154.59 58.12C154.054 58.12 153.658 57.984 153.402 57.712C153.154 57.44 153.03 57.012 153.03 56.428V49.3H154.314Z" fill="#8E91A5"/>
<path d="M208.313 82V74.08H211.433C212.385 74.08 213.081 74.272 213.521 74.656C213.961 75.04 214.181 75.572 214.181 76.252C214.181 76.668 214.061 77.04 213.821 77.368C213.581 77.688 213.229 77.892 212.765 77.98V77.992C213.277 78.08 213.673 78.292 213.953 78.628C214.241 78.964 214.385 79.356 214.385 79.804C214.385 80.484 214.137 81.02 213.641 81.412C213.145 81.804 212.425 82 211.481 82H208.313ZM209.573 77.488H211.337C212.345 77.488 212.849 77.1 212.849 76.324C212.849 75.548 212.345 75.16 211.337 75.16H209.573V77.488ZM209.573 80.932H211.541C212.045 80.932 212.421 80.828 212.669 80.62C212.925 80.412 213.053 80.12 213.053 79.744C213.053 79.368 212.925 79.076 212.669 78.868C212.421 78.66 212.045 78.556 211.541 78.556H209.573V80.932ZM218.214 82.12C217.822 82.12 217.458 82.048 217.122 81.904C216.794 81.76 216.53 81.528 216.33 81.208C216.13 80.888 216.03 80.472 216.03 79.96V76H217.314V79.636C217.314 80.18 217.426 80.556 217.65 80.764C217.882 80.964 218.21 81.064 218.634 81.064C218.906 81.064 219.162 81.004 219.402 80.884C219.642 80.756 219.834 80.56 219.978 80.296C220.13 80.024 220.206 79.676 220.206 79.252V76H221.49V82H220.362L220.302 81.028C220.094 81.404 219.814 81.68 219.462 81.856C219.11 82.032 218.694 82.12 218.214 82.12ZM228.764 76L226.136 82.708C225.872 83.404 225.572 83.888 225.236 84.16C224.9 84.44 224.468 84.58 223.94 84.58C223.644 84.58 223.376 84.544 223.136 84.472C222.896 84.4 222.684 84.296 222.5 84.16L222.812 83.164C223.1 83.42 223.448 83.548 223.856 83.548C224.072 83.548 224.264 83.492 224.432 83.38C224.608 83.268 224.764 83.036 224.9 82.684L225.164 82.036L224.528 80.548L222.656 76H224.096L225.428 79.768L225.776 80.896L226.172 79.66L227.432 76H228.764Z" fill="#8E91A5"/>
<defs>
<filter id="filter0_d_1_2059" x="27.4882" y="58.8297" width="219.021" height="127.157" filterUnits="userSpaceOnUse" color-interpolation-filters="sRGB">
<feFlood flood-opacity="0" result="BackgroundImageFix"/>
<feColorMatrix in="SourceAlpha" type="matrix" values="0 0 0 0 0 0 0 0 0 0 0 0 0 0 0 0 0 0 127 0" result="hardAlpha"/>
<feOffset dy="5.47631"/>
<feGaussianBlur stdDeviation="7.82331"/>
<feComposite in2="hardAlpha" operator="out"/>
<feColorMatrix type="matrix" values="0 0 0 0 0.792157 0 0 0 0 0 0 0 0 0 0.435294 0 0 0 0.5 0"/>
<feBlend mode="normal" in2="BackgroundImageFix" result="effect1_dropShadow_1_2059"/>
<feBlend mode="normal" in="SourceGraphic" in2="effect1_dropShadow_1_2059" result="shape"/>
</filter>
</defs>
</svg>
