<svg width="22" height="13" viewBox="0 0 22 13" fill="none" xmlns="http://www.w3.org/2000/svg">
<path d="M22 8.20758V6.91851H20.6194V0.593943H17.823L17.8215 0.591064L17.8158 0.593943H17.6273V0.688646L17.0524 0.977396C15.1818 1.91695 13.0866 2.41354 10.9933 2.41354C8.89999 2.41354 6.80479 1.91691 4.93419 0.977396L4.37263 0.69535V0.593943H4.17076L4.16505 0.591064L4.16359 0.593943H1.38059V6.91851H0V8.20758H1.38059V11.6378H0V12.9269H5.75326V11.6378H4.37267V8.20758H17.6273V11.6378H16.2467V12.9269H22V11.6378H20.6194V8.20758H22ZM6.25419 6.91851H4.37267V2.13768C4.98042 2.44194 5.60979 2.70332 6.25419 2.92079V6.91851ZM8.98838 6.91851H7.54325V3.29221C8.02012 3.40664 8.50266 3.49743 8.98838 3.56433V6.91851ZM11.7226 6.91851H10.2774V3.68464C10.5159 3.69637 10.7546 3.7026 10.9933 3.7026C11.2365 3.7026 11.4797 3.69612 11.7226 3.68395V6.91851ZM14.4567 6.91851H13.0116V3.56244C13.4974 3.49511 13.9799 3.4038 14.4567 3.28894V6.91851ZM17.6273 6.91851H15.7458V2.91628C16.3903 2.69812 17.0197 2.43614 17.6273 2.13115V6.91851Z" fill="#8E91A5"/>
</svg>
