<svg width="133" height="48" viewBox="0 0 133 48" fill="none" xmlns="http://www.w3.org/2000/svg">
<path d="M2.18352 31V5.94318H13.6381C15.3324 5.94318 16.8716 6.31307 18.2557 7.05284C19.6398 7.79261 20.7494 8.81875 21.5847 10.1312C22.4199 11.4437 22.8375 12.9591 22.8375 14.6773C22.8375 16.2761 22.4557 17.7199 21.692 19.0085C20.9284 20.2972 19.9261 21.3233 18.6852 22.0869L20.6898 25.4875C20.9284 25.8455 21.2744 26.0244 21.7278 26.0244H23.9472V31H20.4392C19.3653 31 18.3869 30.7375 17.504 30.2125C16.621 29.6875 15.929 29.0193 15.4278 28.208L12.7432 23.4472H8.19716V31H2.18352ZM8.19716 18.4716H12.958C14.008 18.4716 14.9148 18.1494 15.6784 17.5051C16.442 16.8369 16.8239 15.9062 16.8239 14.7131C16.8239 13.5437 16.442 12.625 15.6784 11.9568C14.9148 11.2886 14.008 10.9545 12.958 10.9545H8.19716V18.4716ZM37.5159 31.4295C35.8693 31.4295 34.4255 31.0119 33.1846 30.1767C31.9676 29.3415 31.013 28.2199 30.321 26.8119C29.6289 25.3801 29.2829 23.7693 29.2829 21.9795C29.2829 20.1182 29.6767 18.4597 30.4642 17.004C31.2755 15.5244 32.421 14.3551 33.9005 13.496C35.4039 12.6369 37.1818 12.2074 39.2341 12.2074C41.2863 12.2074 43.0284 12.6369 44.4602 13.496C45.9159 14.3551 47.0255 15.5125 47.7892 16.9682C48.5767 18.4239 48.9704 20.0585 48.9704 21.8722V31H43.5295V28.0648H43.3863C42.8613 29.0193 42.1335 29.8187 41.2028 30.4631C40.2721 31.1074 39.0431 31.4295 37.5159 31.4295ZM39.1625 26.633C40.4272 26.633 41.4295 26.1795 42.1693 25.2727C42.9329 24.342 43.3147 23.1847 43.3147 21.8006C43.3147 20.4881 42.9329 19.3784 42.1693 18.4716C41.4295 17.5409 40.4272 17.0756 39.1625 17.0756C37.85 17.0756 36.8119 17.5409 36.0483 18.4716C35.3085 19.3784 34.9386 20.4881 34.9386 21.8006C34.9386 23.1608 35.3085 24.3062 36.0483 25.2369C36.8119 26.1676 37.85 26.633 39.1625 26.633ZM63.7405 38.2665V31.1074C61.7121 30.6301 60.1371 29.6636 59.0155 28.208C57.9178 26.7523 57.3689 25.0818 57.3689 23.1966V12.6369H62.9172V23.0176C62.9172 23.996 63.2513 24.8432 63.9195 25.5591C64.6115 26.2511 65.4587 26.5972 66.461 26.5972C67.4871 26.5972 68.3343 26.2511 69.0025 25.5591C69.6945 24.8432 70.0405 23.996 70.0405 23.0176V12.6369H75.5888V23.1966C75.5888 25.0818 75.04 26.7523 73.9422 28.208C72.8445 29.6398 71.2934 30.5943 69.2888 31.0716V38.2665H63.7405ZM84.0723 31V26.5972H92.9138C93.2718 26.5972 93.5701 26.4778 93.8087 26.2392C94.0712 26.0006 94.2024 25.7142 94.2024 25.3801C94.2024 25.0222 94.0712 24.7239 93.8087 24.4852C93.5701 24.2466 93.2718 24.1273 92.9138 24.1273H89.6922C88.499 24.1273 87.4132 23.9364 86.4348 23.5545C85.4803 23.1489 84.7167 22.5284 84.1439 21.6932C83.5951 20.858 83.3206 19.7483 83.3206 18.3642C83.3206 17.3142 83.5712 16.3597 84.0723 15.5006C84.5973 14.6415 85.3013 13.9494 86.1843 13.4244C87.0911 12.8994 88.0814 12.6369 89.1553 12.6369H97.9968V17.0756H90.0144C89.6803 17.0756 89.3939 17.183 89.1553 17.3977C88.9405 17.6125 88.8331 17.875 88.8331 18.1852C88.8331 18.5193 88.9405 18.8057 89.1553 19.0443C89.3939 19.2591 89.6803 19.3665 90.0144 19.3665H93.1644C95.1689 19.3665 96.7559 19.8199 97.9252 20.7267C99.0945 21.6335 99.6792 23.1131 99.6792 25.1653C99.6792 26.2392 99.4047 27.2176 98.8559 28.1006C98.3309 28.9835 97.615 29.6875 96.7081 30.2125C95.8013 30.7375 94.799 31 93.7013 31H84.0723Z" fill="white"/>
<path d="M132.881 35H125.649L118.71 23.714L111.772 35H105L114.907 19.6176L105.627 5.1548H112.608L119.045 15.8974L125.357 5.1548H132.17L122.807 19.952L132.881 35Z" fill="url(#paint0_linear_1_2096)"/>
<path d="M4.938 38.74C5.67867 38.74 6.27267 38.9307 6.72 39.312C7.16733 39.6933 7.391 40.2103 7.391 40.863C7.391 41.3837 7.24433 41.8127 6.951 42.15C6.65767 42.4873 6.26167 42.7183 5.763 42.843L7.831 46H6.786L4.806 42.986H3.068V46H2.188V38.74H4.938ZM4.927 42.161C5.95367 42.161 6.467 41.7283 6.467 40.863C6.467 39.9977 5.95367 39.565 4.927 39.565H3.068V42.161H4.927ZM8.16143 46L10.9884 38.74H12.0334L14.8494 46H13.9144L13.1444 43.987H9.85543L9.08543 46H8.16143ZM11.1644 40.555L10.1744 43.162H12.8254L11.8464 40.588L11.5054 39.576H11.4834L11.1644 40.555ZM20.7413 46H19.7293L17.7603 43.008L15.7803 46H14.7573L17.2983 42.304L14.9773 38.74H16.0113L17.8483 41.567L19.7073 38.74H20.6643L18.3103 42.26L20.7413 46ZM27.9585 40.5V41.259H25.9565V44.482C25.9565 44.7533 26.0335 44.955 26.1875 45.087C26.3415 45.219 26.5395 45.285 26.7815 45.285C26.9942 45.285 27.1775 45.2483 27.3315 45.175C27.4855 45.1017 27.6248 45.0027 27.7495 44.878L28.0575 45.615C27.8888 45.769 27.6872 45.89 27.4525 45.978C27.2252 46.066 26.9612 46.11 26.6605 46.11C26.3818 46.11 26.1215 46.0623 25.8795 45.967C25.6375 45.8643 25.4432 45.7067 25.2965 45.494C25.1572 45.274 25.0838 44.988 25.0765 44.636V41.259H23.9765V40.5H25.0765V39.18L25.9565 38.938V40.5H27.9585ZM31.1039 40.39C31.6246 40.39 32.0829 40.5037 32.4789 40.731C32.8822 40.9583 33.1976 41.2883 33.4249 41.721C33.6522 42.1463 33.7659 42.656 33.7659 43.25C33.7659 43.844 33.6522 44.3573 33.4249 44.79C33.1976 45.2153 32.8822 45.5417 32.4789 45.769C32.0829 45.9963 31.6246 46.11 31.1039 46.11C30.5906 46.11 30.1322 45.9963 29.7289 45.769C29.3256 45.5417 29.0102 45.2153 28.7829 44.79C28.5556 44.3573 28.4419 43.844 28.4419 43.25C28.4419 42.656 28.5556 42.1463 28.7829 41.721C29.0102 41.2883 29.3256 40.9583 29.7289 40.731C30.1322 40.5037 30.5906 40.39 31.1039 40.39ZM31.1039 41.149C30.5466 41.149 30.1102 41.336 29.7949 41.71C29.4796 42.084 29.3219 42.5973 29.3219 43.25C29.3219 43.9027 29.4796 44.416 29.7949 44.79C30.1102 45.164 30.5466 45.351 31.1039 45.351C31.6612 45.351 32.0976 45.164 32.4129 44.79C32.7282 44.416 32.8859 43.9027 32.8859 43.25C32.8859 42.5973 32.7282 42.084 32.4129 41.71C32.0976 41.336 31.6612 41.149 31.1039 41.149ZM39.8116 40.5L37.6666 42.645L39.9436 46H38.8766L37.0286 43.283L35.8626 44.449V46H34.9826V37.97H35.8626V43.349L38.7006 40.5H39.8116ZM42.8895 46.11C42.3688 46.11 41.9031 45.9963 41.4925 45.769C41.0891 45.5417 40.7738 45.2153 40.5465 44.79C40.3191 44.3573 40.2055 43.844 40.2055 43.25C40.2055 42.656 40.3191 42.1463 40.5465 41.721C40.7738 41.2883 41.0855 40.9583 41.4815 40.731C41.8775 40.5037 42.3285 40.39 42.8345 40.39C43.3478 40.39 43.7841 40.5 44.1435 40.72C44.5101 40.94 44.7888 41.2407 44.9795 41.622C45.1701 41.996 45.2655 42.4177 45.2655 42.887C45.2655 43.0117 45.2618 43.1253 45.2545 43.228C45.2471 43.3307 45.2361 43.4223 45.2215 43.503H41.0745C41.1185 44.0823 41.2981 44.5333 41.6135 44.856C41.9288 45.1787 42.3468 45.34 42.8675 45.34C43.2708 45.34 43.5971 45.263 43.8465 45.109C44.1031 44.955 44.3085 44.746 44.4625 44.482L45.1555 44.889C44.9501 45.263 44.6531 45.56 44.2645 45.78C43.8831 46 43.4248 46.11 42.8895 46.11ZM42.8125 41.16C42.3505 41.16 41.9691 41.2993 41.6685 41.578C41.3751 41.8493 41.1881 42.2307 41.1075 42.722H44.3855C44.3635 42.2233 44.2095 41.8383 43.9235 41.567C43.6375 41.2957 43.2671 41.16 42.8125 41.16ZM46.4991 46V40.5H47.2691L47.3241 41.358C47.5148 41.0133 47.7751 40.7677 48.1051 40.621C48.4351 40.467 48.7908 40.39 49.1721 40.39C49.5681 40.39 49.9274 40.467 50.2501 40.621C50.5728 40.7677 50.8294 40.995 51.0201 41.303C51.2181 41.611 51.3171 42.0033 51.3171 42.48V46H50.4371V42.788C50.4371 42.1793 50.3051 41.7577 50.0411 41.523C49.7844 41.281 49.4654 41.16 49.0841 41.16C48.8201 41.16 48.5561 41.2223 48.2921 41.347C48.0281 41.4717 47.8081 41.6733 47.6321 41.952C47.4634 42.2307 47.3791 42.6047 47.3791 43.074V46H46.4991Z" fill="#69709A"/>
<defs>
<linearGradient id="paint0_linear_1_2096" x1="123.5" y1="1.5" x2="135.217" y2="10.4962" gradientUnits="userSpaceOnUse">
<stop stop-color="#27E65C"/>
<stop offset="0.510417" stop-color="#5970CB"/>
<stop offset="1" stop-color="#B518FF"/>
</linearGradient>
</defs>
</svg>
