<svg width="22" height="22" viewBox="0 0 22 22" fill="none" xmlns="http://www.w3.org/2000/svg">
    <path d="M18.5829 2.60669L11.8372 7.61686L13.0846 4.66093L18.5829 2.60669Z" fill="#E2761B" stroke="#E2761B"
          stroke-width="0.0677966" stroke-linecap="round" stroke-linejoin="round"/>
    <path d="M3.00818 2.60669L9.69971 7.66432L8.51327 4.66093L3.00818 2.60669Z" fill="#E4761B" stroke="#E4761B"
          stroke-width="0.0677966" stroke-linecap="round" stroke-linejoin="round"/>
    <path d="M16.1551 14.2202L14.3585 16.9728L18.2026 18.0304L19.3077 14.2812L16.1551 14.2202Z" fill="#E4761B"
          stroke="#E4761B" stroke-width="0.0677966" stroke-linecap="round" stroke-linejoin="round"/>
    <path d="M2.29688 14.2812L3.39518 18.0304L7.23925 16.9728L5.44264 14.2202L2.29688 14.2812Z" fill="#E4761B"
          stroke="#E4761B" stroke-width="0.0677966" stroke-linecap="round" stroke-linejoin="round"/>
    <path d="M7.02248 9.56943L5.95129 11.1898L9.76824 11.3593L9.63265 7.25757L7.02248 9.56943Z" fill="#E4761B"
          stroke="#E4761B" stroke-width="0.0677966" stroke-linecap="round" stroke-linejoin="round"/>
    <path d="M14.5684 9.56928L11.9243 7.20996L11.8362 11.3591L15.6464 11.1896L14.5684 9.56928Z" fill="#E4761B"
          stroke="#E4761B" stroke-width="0.0677966" stroke-linecap="round" stroke-linejoin="round"/>
    <path d="M7.23938 16.9728L9.53091 15.8541L7.55124 14.3083L7.23938 16.9728Z" fill="#E4761B" stroke="#E4761B"
          stroke-width="0.0677966" stroke-linecap="round" stroke-linejoin="round"/>
    <path d="M12.0594 15.8541L14.3578 16.9728L14.0391 14.3083L12.0594 15.8541Z" fill="#E4761B" stroke="#E4761B"
          stroke-width="0.0677966" stroke-linecap="round" stroke-linejoin="round"/>
    <path d="M14.3601 16.9729L12.0618 15.8542L12.2448 17.3526L12.2245 17.9831L14.3601 16.9729Z" fill="#D7C1B3"
          stroke="#D7C1B3" stroke-width="0.0677966" stroke-linecap="round" stroke-linejoin="round"/>
    <path d="M7.24036 16.9729L9.37595 17.9831L9.36239 17.3526L9.53188 15.8542L7.24036 16.9729Z" fill="#D7C1B3"
          stroke="#D7C1B3" stroke-width="0.0677966" stroke-linecap="round" stroke-linejoin="round"/>
    <path d="M9.41028 13.3186L7.49841 12.7559L8.84757 12.1389L9.41028 13.3186Z" fill="#233447" stroke="#233447"
          stroke-width="0.0677966" stroke-linecap="round" stroke-linejoin="round"/>
    <path d="M12.1827 13.3186L12.7455 12.1389L14.1014 12.7559L12.1827 13.3186Z" fill="#233447" stroke="#233447"
          stroke-width="0.0677966" stroke-linecap="round" stroke-linejoin="round"/>
    <path d="M7.23985 16.9728L7.56527 14.2202L5.44324 14.2812L7.23985 16.9728Z" fill="#CD6116" stroke="#CD6116"
          stroke-width="0.0677966" stroke-linecap="round" stroke-linejoin="round"/>
    <path d="M14.0333 14.2202L14.3587 16.9728L16.1554 14.2812L14.0333 14.2202Z" fill="#CD6116" stroke="#CD6116"
          stroke-width="0.0677966" stroke-linecap="round" stroke-linejoin="round"/>
    <path d="M15.6466 11.1897L11.8364 11.3592L12.189 13.3185L12.7517 12.1389L14.1076 12.7558L15.6466 11.1897Z"
          fill="#CD6116" stroke="#CD6116" stroke-width="0.0677966" stroke-linecap="round" stroke-linejoin="round"/>
    <path d="M7.4973 12.7558L8.85323 12.1389L9.40917 13.3185L9.76849 11.3592L5.95154 11.1897L7.4973 12.7558Z"
          fill="#CD6116" stroke="#CD6116" stroke-width="0.0677966" stroke-linecap="round" stroke-linejoin="round"/>
    <path d="M5.95227 11.1897L7.55227 14.3083L7.49803 12.7558L5.95227 11.1897Z" fill="#E4751F" stroke="#E4751F"
          stroke-width="0.0677966" stroke-linecap="round" stroke-linejoin="round"/>
    <path d="M14.1077 12.7558L14.0399 14.3083L15.6467 11.1897L14.1077 12.7558Z" fill="#E4751F" stroke="#E4751F"
          stroke-width="0.0677966" stroke-linecap="round" stroke-linejoin="round"/>
    <path d="M9.76875 11.3591L9.40942 13.3185L9.85688 15.6303L9.95858 12.5862L9.76875 11.3591Z" fill="#E4751F"
          stroke="#E4751F" stroke-width="0.0677966" stroke-linecap="round" stroke-linejoin="round"/>
    <path d="M11.8365 11.3591L11.6534 12.5795L11.7348 15.6303L12.189 13.3185L11.8365 11.3591Z" fill="#E4751F"
          stroke="#E4751F" stroke-width="0.0677966" stroke-linecap="round" stroke-linejoin="round"/>
    <path d="M12.1893 13.3186L11.7351 15.6304L12.0605 15.8542L14.0402 14.3084L14.108 12.7559L12.1893 13.3186Z"
          fill="#F6851B" stroke="#F6851B" stroke-width="0.0677966" stroke-linecap="round" stroke-linejoin="round"/>
    <path d="M7.49841 12.7559L7.55265 14.3084L9.53231 15.8542L9.85774 15.6304L9.41028 13.3186L7.49841 12.7559Z"
          fill="#F6851B" stroke="#F6851B" stroke-width="0.0677966" stroke-linecap="round" stroke-linejoin="round"/>
    <path d="M12.2234 17.9831L12.2437 17.3526L12.0743 17.2034H9.51832L9.36239 17.3526L9.37595 17.9831L7.24036 16.9729L7.98612 17.5831L9.49798 18.6339H12.0946L13.6132 17.5831L14.359 16.9729L12.2234 17.9831Z"
          fill="#C0AD9E" stroke="#C0AD9E" stroke-width="0.0677966" stroke-linecap="round" stroke-linejoin="round"/>
    <path d="M12.0615 15.8541L11.736 15.6304H9.85807L9.53265 15.8541L9.36316 17.3524L9.51909 17.2033H12.075L12.2445 17.3524L12.0615 15.8541Z"
          fill="#161616" stroke="#161616" stroke-width="0.0677966" stroke-linecap="round" stroke-linejoin="round"/>
    <path d="M18.8687 7.94228L19.4449 5.17618L18.5839 2.60669L12.0619 7.44737L14.5704 9.5694L18.1161 10.6067L18.9026 9.69144L18.5636 9.44737L19.106 8.95245L18.6856 8.62703L19.228 8.21347L18.8687 7.94228Z"
          fill="#763D16" stroke="#763D16" stroke-width="0.0677966" stroke-linecap="round" stroke-linejoin="round"/>
    <path d="M2.15649 5.17618L2.73277 7.94228L2.36666 8.21347L2.90904 8.62703L2.49548 8.95245L3.03785 9.44737L2.69887 9.69144L3.47853 10.6067L7.02429 9.5694L9.53277 7.44737L3.01073 2.60669L2.15649 5.17618Z"
          fill="#763D16" stroke="#763D16" stroke-width="0.0677966" stroke-linecap="round" stroke-linejoin="round"/>
    <path d="M18.1153 10.6066L14.5696 9.56934L15.6476 11.1897L14.0408 14.3083L16.156 14.2812H19.3086L18.1153 10.6066Z"
          fill="#F6851B" stroke="#F6851B" stroke-width="0.0677966" stroke-linecap="round" stroke-linejoin="round"/>
    <path d="M7.02328 9.56934L3.47751 10.6066L2.29785 14.2812H5.44361L7.55209 14.3083L5.95209 11.1897L7.02328 9.56934Z"
          fill="#F6851B" stroke="#F6851B" stroke-width="0.0677966" stroke-linecap="round" stroke-linejoin="round"/>
    <path d="M11.8369 11.3592L12.0607 7.44733L13.0912 4.66089H8.51489L9.53184 7.44733L9.76913 11.3592L9.85049 12.5931L9.85727 15.6304H11.7352L11.7488 12.5931L11.8369 11.3592Z"
          fill="#F6851B" stroke="#F6851B" stroke-width="0.0677966" stroke-linecap="round" stroke-linejoin="round"/>
</svg>
