<svg width="98" height="34" viewBox="0 0 98 34" fill="none" xmlns="http://www.w3.org/2000/svg">
<path d="M0.183523 26V0.943179H11.6381C13.3324 0.943179 14.8716 1.31307 16.2557 2.05284C17.6398 2.79261 18.7494 3.81875 19.5847 5.13125C20.4199 6.44375 20.8375 7.95909 20.8375 9.67727C20.8375 11.2761 20.4557 12.7199 19.692 14.0085C18.9284 15.2972 17.9261 16.3233 16.6852 17.0869L18.6898 20.4875C18.9284 20.8455 19.2744 21.0244 19.7278 21.0244H21.9472V26H18.4392C17.3653 26 16.3869 25.7375 15.504 25.2125C14.621 24.6875 13.929 24.0193 13.4278 23.208L10.7432 18.4472H6.19716V26H0.183523ZM6.19716 13.4716H10.958C12.008 13.4716 12.9148 13.1494 13.6784 12.5051C14.442 11.8369 14.8239 10.9062 14.8239 9.71307C14.8239 8.54375 14.442 7.625 13.6784 6.95682C12.9148 6.28864 12.008 5.95454 10.958 5.95454H6.19716V13.4716ZM35.5159 26.4295C33.8693 26.4295 32.4255 26.0119 31.1846 25.1767C29.9676 24.3415 29.013 23.2199 28.321 21.8119C27.6289 20.3801 27.2829 18.7693 27.2829 16.9795C27.2829 15.1182 27.6767 13.4597 28.4642 12.004C29.2755 10.5244 30.421 9.35511 31.9005 8.49602C33.4039 7.63693 35.1818 7.20738 37.2341 7.20738C39.2863 7.20738 41.0284 7.63693 42.4602 8.49602C43.9159 9.35511 45.0255 10.5125 45.7892 11.9682C46.5767 13.4239 46.9704 15.0585 46.9704 16.8722V26H41.5295V23.0648H41.3863C40.8613 24.0193 40.1335 24.8187 39.2028 25.4631C38.2721 26.1074 37.0431 26.4295 35.5159 26.4295ZM37.1625 21.633C38.4272 21.633 39.4295 21.1795 40.1693 20.2727C40.9329 19.342 41.3147 18.1847 41.3147 16.8006C41.3147 15.4881 40.9329 14.3784 40.1693 13.4716C39.4295 12.5409 38.4272 12.0756 37.1625 12.0756C35.85 12.0756 34.8119 12.5409 34.0483 13.4716C33.3085 14.3784 32.9386 15.4881 32.9386 16.8006C32.9386 18.1608 33.3085 19.3062 34.0483 20.2369C34.8119 21.1676 35.85 21.633 37.1625 21.633ZM61.7405 33.2665V26.1074C59.7121 25.6301 58.1371 24.6636 57.0155 23.208C55.9178 21.7523 55.3689 20.0818 55.3689 18.1966V7.63693H60.9172V18.0176C60.9172 18.996 61.2513 19.8432 61.9195 20.5591C62.6115 21.2511 63.4587 21.5972 64.461 21.5972C65.4871 21.5972 66.3343 21.2511 67.0025 20.5591C67.6945 19.8432 68.0405 18.996 68.0405 18.0176V7.63693H73.5888V18.1966C73.5888 20.0818 73.04 21.7523 71.9422 23.208C70.8445 24.6398 69.2934 25.5943 67.2888 26.0716V33.2665H61.7405ZM82.0723 26V21.5972H90.9138C91.2718 21.5972 91.5701 21.4778 91.8087 21.2392C92.0712 21.0006 92.2024 20.7142 92.2024 20.3801C92.2024 20.0222 92.0712 19.7239 91.8087 19.4852C91.5701 19.2466 91.2718 19.1273 90.9138 19.1273H87.6922C86.499 19.1273 85.4132 18.9364 84.4348 18.5545C83.4803 18.1489 82.7167 17.5284 82.1439 16.6932C81.5951 15.858 81.3206 14.7483 81.3206 13.3642C81.3206 12.3142 81.5712 11.3597 82.0723 10.5006C82.5973 9.64148 83.3013 8.94943 84.1843 8.42443C85.0911 7.89943 86.0814 7.63693 87.1553 7.63693H95.9968V12.0756H88.0144C87.6803 12.0756 87.3939 12.183 87.1553 12.3977C86.9405 12.6125 86.8331 12.875 86.8331 13.1852C86.8331 13.5193 86.9405 13.8057 87.1553 14.0443C87.3939 14.2591 87.6803 14.3665 88.0144 14.3665H91.1644C93.1689 14.3665 94.7559 14.8199 95.9252 15.7267C97.0945 16.6335 97.6792 18.1131 97.6792 20.1653C97.6792 21.2392 97.4047 22.2176 96.8559 23.1006C96.3309 23.9835 95.615 24.6875 94.7081 25.2125C93.8013 25.7375 92.799 26 91.7013 26H82.0723Z" fill="white"/>
</svg>
