<svg width="24" height="24" viewBox="0 0 24 24" fill="none" xmlns="http://www.w3.org/2000/svg">
<path d="M23.9999 11.9471C24.0104 14.3204 23.3168 16.6436 22.007 18.6227C20.6971 20.6019 18.8298 22.1482 16.6411 23.0662C14.4524 23.9841 12.0407 24.2324 9.71094 23.7796C7.38115 23.3269 5.23794 22.1935 3.55231 20.5227C1.86669 18.8519 0.714362 16.7188 0.241051 14.3931C-0.23226 12.0674 -0.00529778 9.6536 0.893238 7.4569C1.79177 5.2602 3.32153 3.37928 5.28905 2.05198C7.25657 0.724684 9.5735 0.0106318 11.9468 0.000117761C13.5227 -0.00686342 15.0845 0.296618 16.5431 0.893233C18.0017 1.48985 19.3285 2.36791 20.4477 3.47729C21.5669 4.58667 22.4567 5.90564 23.0662 7.35889C23.6757 8.81214 23.9929 10.3712 23.9999 11.9471Z" fill="#8DC63F"/>
<path d="M23.1008 11.9525C23.1116 14.1477 22.4712 16.2968 21.2605 18.1279C20.0499 19.9591 18.3233 21.3901 16.2993 22.24C14.2753 23.0899 12.0447 23.3204 9.88965 22.9024C7.7346 22.4845 5.75191 21.4368 4.19232 19.892C2.63274 18.3471 1.56633 16.3744 1.12796 14.2234C0.689592 12.0724 0.898965 9.83977 1.72959 7.80778C2.56023 5.77579 3.9748 4.03578 5.79441 2.8078C7.61402 1.57982 9.75693 0.919046 11.9521 0.909043C14.8947 0.896096 17.722 2.05209 19.8125 4.12293C21.9031 6.19376 23.0858 9.00997 23.1008 11.9525Z" fill="#F9E988"/>
<path d="M12.2035 1.62248C12.909 1.49726 13.631 1.49726 14.3365 1.62248C15.0488 1.73542 15.7374 1.9661 16.3739 2.30509C17.007 2.65292 17.5539 3.12509 18.0983 3.5677C18.6426 4.01031 19.1844 4.46335 19.7 4.959C20.2265 5.44689 20.6858 6.00246 21.0661 6.61118C21.4576 7.21512 21.7785 7.86195 22.0226 8.539C22.4861 9.90074 22.647 11.3677 22.4157 12.7668H22.347C22.1148 11.3799 21.8 10.0581 21.3035 8.80074C21.0704 8.16871 20.7962 7.55261 20.4826 6.95639C20.1556 6.35686 19.795 5.77623 19.4026 5.21726C19.0037 4.65421 18.5149 4.16066 17.9557 3.7564C17.3922 3.35466 16.7444 3.09466 16.1174 2.8477C15.4905 2.60074 14.8687 2.3477 14.2148 2.15987C13.5609 1.97205 12.8965 1.83118 12.2026 1.69466L12.2035 1.62248Z" fill="white"/>
<path d="M17.6307 8.03376C16.8255 7.80072 15.9907 7.47028 15.1455 7.13637C15.0968 6.9242 14.909 6.65985 14.529 6.33724C13.9768 5.85811 12.9394 5.87028 12.0429 6.08246C11.0533 5.84941 10.0759 5.7668 9.13768 5.9955C1.46377 8.10941 5.81507 13.2668 2.99768 18.4511C3.39855 19.3016 7.71942 24.2633 13.9716 22.932C13.9716 22.932 11.8333 17.7938 16.6585 15.3277C20.5725 13.3198 23.4003 9.60506 17.6307 8.03376Z" fill="#8BC53F"/>
<path d="M18.5772 11.4087C18.5777 11.5007 18.5509 11.5908 18.5002 11.6676C18.4495 11.7443 18.3772 11.8044 18.2924 11.8401C18.2076 11.8757 18.1141 11.8855 18.0237 11.868C17.9334 11.8506 17.8503 11.8068 17.7848 11.7421C17.7194 11.6774 17.6746 11.5947 17.6562 11.5046C17.6377 11.4144 17.6464 11.3208 17.6811 11.2356C17.7159 11.1504 17.7751 11.0775 17.8513 11.0259C17.9275 10.9744 18.0173 10.9466 18.1093 10.946C18.2326 10.9456 18.3511 10.994 18.4388 11.0807C18.5265 11.1674 18.5762 11.2853 18.5772 11.4087Z" fill="white"/>
<path d="M12.0417 6.07877C12.6009 6.11877 14.6226 6.77442 15.1444 7.13268C14.7096 5.87181 13.2461 5.70399 12.0417 6.07877Z" fill="#009345"/>
<path d="M12.5732 9.26851C12.5734 9.69296 12.4477 10.1079 12.212 10.461C11.9763 10.814 11.6412 11.0892 11.2492 11.2518C10.8571 11.4144 10.4256 11.457 10.0093 11.3744C9.59293 11.2918 9.21045 11.0875 8.9102 10.7875C8.60994 10.4875 8.40539 10.1052 8.32241 9.68891C8.23944 9.27264 8.28176 8.84112 8.44404 8.44891C8.60631 8.0567 8.88124 7.72141 9.23407 7.48545C9.58689 7.2495 10.0018 7.12346 10.4262 7.12329C10.9951 7.12329 11.5407 7.34916 11.9431 7.75125C12.3455 8.15334 12.5718 8.69876 12.5723 9.26764L12.5732 9.26851Z" fill="white"/>
<path d="M11.9377 9.2874C11.9377 9.58596 11.8492 9.87782 11.6833 10.1261C11.5174 10.3743 11.2817 10.5678 11.0058 10.6821C10.73 10.7963 10.4265 10.8262 10.1336 10.768C9.84082 10.7097 9.57184 10.5659 9.36072 10.3548C9.1496 10.1437 9.00583 9.87473 8.94759 9.5819C8.88934 9.28907 8.91923 8.98555 9.03349 8.70971C9.14774 8.43387 9.34123 8.19811 9.58947 8.03224C9.83772 7.86637 10.1296 7.77783 10.4281 7.77783C10.8285 7.77783 11.2125 7.93687 11.4956 8.21997C11.7787 8.50307 11.9377 8.88704 11.9377 9.2874Z" fill="#58595B"/>
<path d="M20.3162 12.3551C18.5771 13.5803 16.5997 14.5099 13.7945 14.5099C12.4814 14.5099 12.2153 13.1186 11.3475 13.7986C10.8997 14.1516 9.32055 14.9412 8.06751 14.8812C6.81446 14.8212 4.78316 14.0873 4.21707 11.4116C3.99273 14.0873 3.87794 16.0568 2.87012 18.3151C4.87012 21.5177 9.63881 23.9881 13.9675 22.9238C13.5058 19.676 16.3484 16.4951 17.9432 14.8699C18.5519 14.2534 19.7084 13.2473 20.3162 12.356V12.3551Z" fill="#8BC53F"/>
<path d="M20.2486 12.4349C19.7086 12.9271 19.066 13.2914 18.4121 13.6132C17.7501 13.9271 17.0601 14.1784 16.3512 14.3636C15.6416 14.5471 14.9016 14.6853 14.1521 14.6175C13.4025 14.5497 12.6364 14.2949 12.1399 13.7332L12.1634 13.7062C12.7721 14.101 13.4747 14.2401 14.1738 14.2601C14.8825 14.2819 15.5913 14.2236 16.2868 14.0862C16.9894 13.9389 17.6768 13.7264 18.3399 13.4514C19.0034 13.1775 19.6599 12.8601 20.2251 12.408L20.2486 12.4349Z" fill="#58595B"/>
</svg>
