<svg width="26" height="26" viewBox="0 0 26 26" fill="none" xmlns="http://www.w3.org/2000/svg">
<path d="M12.988 1C6.364 1 1 6.376 1 13C1 19.624 6.364 25 12.988 25C19.624 25 25 19.624 25 13C25 6.376 19.624 1 12.988 1ZM21.304 8.2H17.764C17.38 6.7 16.828 5.26 16.108 3.928C18.316 4.684 20.152 6.22 21.304 8.2ZM13 3.448C13.996 4.888 14.776 6.484 15.292 8.2H10.708C11.224 6.484 12.004 4.888 13 3.448ZM3.712 15.4C3.52 14.632 3.4 13.828 3.4 13C3.4 12.172 3.52 11.368 3.712 10.6H7.768C7.672 11.392 7.6 12.184 7.6 13C7.6 13.816 7.672 14.608 7.768 15.4H3.712ZM4.696 17.8H8.236C8.62 19.3 9.172 20.74 9.892 22.072C7.684 21.316 5.848 19.792 4.696 17.8ZM8.236 8.2H4.696C5.848 6.208 7.684 4.684 9.892 3.928C9.172 5.26 8.62 6.7 8.236 8.2ZM13 22.552C12.004 21.112 11.224 19.516 10.708 17.8H15.292C14.776 19.516 13.996 21.112 13 22.552ZM15.808 15.4H10.192C10.084 14.608 10 13.816 10 13C10 12.184 10.084 11.38 10.192 10.6H15.808C15.916 11.38 16 12.184 16 13C16 13.816 15.916 14.608 15.808 15.4ZM16.108 22.072C16.828 20.74 17.38 19.3 17.764 17.8H21.304C20.152 19.78 18.316 21.316 16.108 22.072ZM18.232 15.4C18.328 14.608 18.4 13.816 18.4 13C18.4 12.184 18.328 11.392 18.232 10.6H22.288C22.48 11.368 22.6 12.172 22.6 13C22.6 13.828 22.48 14.632 22.288 15.4H18.232Z" fill="white" stroke="#1F212D"/>
</svg>
