<svg width="14" height="16" viewBox="0 0 14 16" fill="none" xmlns="http://www.w3.org/2000/svg">
<path d="M11.6667 11.3092C11.0756 11.3092 10.5467 11.5502 10.1422 11.9277L4.59667 8.59438C4.63556 8.40964 4.66667 8.2249 4.66667 8.03213C4.66667 7.83936 4.63556 7.65462 4.59667 7.46988L10.08 4.16867C10.5 4.57028 11.0522 4.81928 11.6667 4.81928C12.9578 4.81928 14 3.74297 14 2.40964C14 1.07631 12.9578 0 11.6667 0C10.3756 0 9.33333 1.07631 9.33333 2.40964C9.33333 2.60241 9.36444 2.78715 9.40333 2.97189L3.92 6.27309C3.5 5.87149 2.94778 5.62249 2.33333 5.62249C1.04222 5.62249 0 6.69879 0 8.03213C0 9.36546 1.04222 10.4418 2.33333 10.4418C2.94778 10.4418 3.5 10.1928 3.92 9.79116L9.45778 13.1325C9.41889 13.3012 9.39556 13.4779 9.39556 13.6546C9.39556 14.9478 10.4144 16 11.6667 16C12.9189 16 13.9378 14.9478 13.9378 13.6546C13.9378 12.3614 12.9189 11.3092 11.6667 11.3092ZM11.6667 1.60643C12.0944 1.60643 12.4444 1.96787 12.4444 2.40964C12.4444 2.85141 12.0944 3.21285 11.6667 3.21285C11.2389 3.21285 10.8889 2.85141 10.8889 2.40964C10.8889 1.96787 11.2389 1.60643 11.6667 1.60643ZM2.33333 8.83534C1.90556 8.83534 1.55556 8.4739 1.55556 8.03213C1.55556 7.59036 1.90556 7.22892 2.33333 7.22892C2.76111 7.22892 3.11111 7.59036 3.11111 8.03213C3.11111 8.4739 2.76111 8.83534 2.33333 8.83534ZM11.6667 14.4739C11.2389 14.4739 10.8889 14.1124 10.8889 13.6707C10.8889 13.2289 11.2389 12.8675 11.6667 12.8675C12.0944 12.8675 12.4444 13.2289 12.4444 13.6707C12.4444 14.1124 12.0944 14.4739 11.6667 14.4739Z" fill="white"/>
</svg>
