<svg width="409" height="159" viewBox="0 0 409 159" fill="none" xmlns="http://www.w3.org/2000/svg">
<path d="M6.80851 104.865V26.7345H42.5253C47.8084 26.7345 52.6078 27.8878 56.9236 30.1945C61.2394 32.5012 64.6994 35.7009 67.3038 39.7934C69.9081 43.8859 71.2103 48.611 71.2103 53.9685C71.2103 58.954 70.0197 63.4558 67.6386 67.4739C65.2575 71.492 62.1323 74.6916 58.263 77.0728L64.5134 87.6762C65.2575 88.7923 66.3364 89.3504 67.7502 89.3504H74.6703V104.865H63.7321C60.3836 104.865 57.3328 104.046 54.5797 102.409C51.8265 100.772 49.6686 98.6888 48.106 96.1589L39.7349 81.3141H25.5598V104.865H6.80851ZM25.5598 65.7997H40.4046C43.6786 65.7997 46.5062 64.7951 48.8873 62.7861C51.2684 60.7026 52.459 57.8006 52.459 54.0801C52.459 50.434 51.2684 47.5692 48.8873 45.4858C46.5062 43.4023 43.6786 42.3605 40.4046 42.3605H25.5598V65.7997ZM116.979 106.204C111.845 106.204 107.343 104.902 103.474 102.298C99.679 99.6934 96.7026 96.1961 94.5448 91.8059C92.3869 87.3413 91.3079 82.3187 91.3079 76.7379C91.3079 70.9339 92.5357 65.7625 94.9912 61.2235C97.5212 56.61 101.093 52.964 105.706 50.2852C110.394 47.6064 115.938 46.2671 122.337 46.2671C128.736 46.2671 134.168 47.6064 138.633 50.2852C143.172 52.964 146.632 56.5728 149.013 61.1118C151.468 65.6508 152.696 70.7479 152.696 76.4031V104.865H135.731V95.7124H135.284C133.647 98.6888 131.378 101.182 128.476 103.191C125.574 105.2 121.742 106.204 116.979 106.204ZM122.114 91.2479C126.057 91.2479 129.183 89.8341 131.489 87.0065C133.87 84.1045 135.061 80.4956 135.061 76.1798C135.061 72.0873 133.87 68.6272 131.489 65.7997C129.183 62.8977 126.057 61.4467 122.114 61.4467C118.021 61.4467 114.784 62.8977 112.403 65.7997C110.096 68.6272 108.943 72.0873 108.943 76.1798C108.943 80.4212 110.096 83.9929 112.403 86.8949C114.784 89.7969 118.021 91.2479 122.114 91.2479ZM198.751 127.523V105.2C192.426 103.712 187.515 100.698 184.018 96.1589C180.595 91.6199 178.884 86.4112 178.884 80.5328V47.6064H196.184V79.9748C196.184 83.0256 197.226 85.6671 199.309 87.8994C201.467 90.0573 204.109 91.1362 207.234 91.1362C210.434 91.1362 213.075 90.0573 215.159 87.8994C217.316 85.6671 218.395 83.0256 218.395 79.9748V47.6064H235.696V80.5328C235.696 86.4112 233.984 91.6199 230.561 96.1589C227.139 100.624 222.302 103.6 216.051 105.088V127.523H198.751ZM262.148 104.865V91.1362H289.717C290.833 91.1362 291.764 90.7642 292.508 90.0201C293.326 89.276 293.735 88.3831 293.735 87.3413C293.735 86.2252 293.326 85.2951 292.508 84.551C291.764 83.8069 290.833 83.4348 289.717 83.4348H279.672C275.951 83.4348 272.566 82.8395 269.515 81.649C266.539 80.384 264.157 78.4493 262.372 75.845C260.66 73.2407 259.805 69.7806 259.805 65.4648C259.805 62.1908 260.586 59.2144 262.148 56.5356C263.785 53.8569 265.981 51.699 268.734 50.062C271.561 48.425 274.649 47.6064 277.998 47.6064H305.567V61.4467H280.676C279.635 61.4467 278.742 61.7815 277.998 62.4512C277.328 63.1209 276.993 63.9394 276.993 64.9067C276.993 65.9485 277.328 66.8414 277.998 67.5855C278.742 68.2552 279.635 68.59 280.676 68.59H290.499C296.749 68.59 301.697 70.0038 305.343 72.8314C308.989 75.659 310.813 80.2724 310.813 86.6716C310.813 90.0201 309.957 93.0709 308.245 95.8241C306.608 98.5772 304.376 100.772 301.548 102.409C298.721 104.046 295.596 104.865 292.173 104.865H262.148Z" fill="white"/>
<path d="M408.734 118H387.359L368.59 87.501L350.082 118H329.489L359.075 74.5975L331.574 31.977H352.689L370.024 60.912L387.619 31.977H407.17L379.538 73.9458L408.734 118Z" fill="url(#paint0_linear_764_600)"/>
<path d="M15.6967 130.893C18.1137 130.893 20.0522 131.516 21.5119 132.76C22.9717 134.004 23.7016 135.692 23.7016 137.821C23.7016 139.521 23.223 140.921 22.2658 142.021C21.3085 143.122 20.0163 143.876 18.3889 144.283L25.1375 154.585H21.7273L15.2659 144.75H9.59427V154.585H6.72254V130.893H15.6967ZM15.6608 142.057C19.0112 142.057 20.6863 140.645 20.6863 137.821C20.6863 134.998 19.0112 133.586 15.6608 133.586H9.59427V142.057H15.6608ZM26.2158 154.585L35.4412 130.893H38.8514L48.041 154.585H44.9897L42.477 148.016H31.7439L29.2311 154.585H26.2158ZM36.0156 136.816L32.7849 145.324H41.436L38.2412 136.924L37.1284 133.622H37.0566L36.0156 136.816ZM67.2681 154.585H63.9656L57.5401 144.821L51.0787 154.585H47.7403L56.0324 142.524L48.4583 130.893H51.8325L57.8273 140.119L63.8938 130.893H67.0168L59.3349 142.38L67.2681 154.585ZM90.8202 136.637V139.114H84.287V149.631C84.287 150.517 84.5383 151.175 85.0408 151.606C85.5434 152.037 86.1895 152.252 86.9793 152.252C87.6733 152.252 88.2715 152.132 88.7741 151.893C89.2766 151.654 89.7313 151.331 90.1382 150.924L91.1433 153.329C90.5929 153.831 89.9347 154.226 89.169 154.513C88.4271 154.801 87.5656 154.944 86.5844 154.944C85.675 154.944 84.8255 154.789 84.0357 154.478C83.246 154.142 82.6118 153.628 82.1332 152.934C81.6785 152.216 81.4392 151.283 81.4153 150.134V139.114H77.8256V136.637H81.4153V132.329L84.287 131.54V136.637H90.8202ZM101.085 136.278C102.784 136.278 104.279 136.649 105.572 137.391C106.888 138.133 107.917 139.209 108.659 140.621C109.401 142.009 109.772 143.673 109.772 145.611C109.772 147.549 109.401 149.225 108.659 150.637C107.917 152.025 106.888 153.09 105.572 153.831C104.279 154.573 102.784 154.944 101.085 154.944C99.4095 154.944 97.9138 154.573 96.5976 153.831C95.2814 153.09 94.2523 152.025 93.5105 150.637C92.7686 149.225 92.3977 147.549 92.3977 145.611C92.3977 143.673 92.7686 142.009 93.5105 140.621C94.2523 139.209 95.2814 138.133 96.5976 137.391C97.9138 136.649 99.4095 136.278 101.085 136.278ZM101.085 138.755C99.2659 138.755 97.842 139.365 96.813 140.586C95.7839 141.806 95.2694 143.481 95.2694 145.611C95.2694 147.741 95.7839 149.416 96.813 150.637C97.842 151.857 99.2659 152.467 101.085 152.467C102.903 152.467 104.327 151.857 105.356 150.637C106.385 149.416 106.9 147.741 106.9 145.611C106.9 143.481 106.385 141.806 105.356 140.586C104.327 139.365 102.903 138.755 101.085 138.755ZM129.501 136.637L122.501 143.637L129.932 154.585H126.45L120.419 145.719L116.614 149.524V154.585H113.742V128.381H116.614V145.934L125.875 136.637H129.501ZM139.545 154.944C137.846 154.944 136.326 154.573 134.986 153.831C133.67 153.09 132.641 152.025 131.899 150.637C131.157 149.225 130.786 147.549 130.786 145.611C130.786 143.673 131.157 142.009 131.899 140.621C132.641 139.209 133.658 138.133 134.95 137.391C136.242 136.649 137.714 136.278 139.365 136.278C141.041 136.278 142.464 136.637 143.637 137.355C144.834 138.073 145.743 139.054 146.365 140.298C146.987 141.519 147.298 142.895 147.298 144.426C147.298 144.833 147.287 145.204 147.263 145.539C147.239 145.874 147.203 146.173 147.155 146.437H133.622C133.765 148.327 134.352 149.799 135.381 150.852C136.41 151.905 137.774 152.431 139.473 152.431C140.789 152.431 141.854 152.18 142.668 151.678C143.505 151.175 144.175 150.493 144.678 149.631L146.94 150.96C146.269 152.18 145.3 153.149 144.032 153.867C142.787 154.585 141.292 154.944 139.545 154.944ZM139.294 138.791C137.786 138.791 136.541 139.245 135.56 140.155C134.603 141.04 133.993 142.285 133.73 143.888H144.427C144.355 142.261 143.852 141.004 142.919 140.119C141.986 139.233 140.777 138.791 139.294 138.791ZM151.324 154.585V136.637H153.837L154.016 139.437C154.639 138.312 155.488 137.51 156.565 137.032C157.642 136.529 158.803 136.278 160.047 136.278C161.339 136.278 162.512 136.529 163.565 137.032C164.618 137.51 165.456 138.252 166.078 139.257C166.724 140.262 167.047 141.543 167.047 143.098V154.585H164.175V144.103C164.175 142.117 163.744 140.741 162.883 139.975C162.045 139.186 161.004 138.791 159.76 138.791C158.898 138.791 158.037 138.994 157.175 139.401C156.314 139.808 155.596 140.466 155.022 141.375C154.471 142.285 154.196 143.505 154.196 145.037V154.585H151.324Z" fill="#7780B5"/>
<defs>
<linearGradient id="paint0_linear_764_600" x1="345.502" y1="29.3778" x2="401.502" y2="88.8778" gradientUnits="userSpaceOnUse">
<stop stop-color="#27E65C"/>
<stop offset="0.510417" stop-color="#5074FF"/>
<stop offset="1" stop-color="#B518FF"/>
</linearGradient>
</defs>
</svg>
