<svg width="2152" height="892" viewBox="0 0 2152 892" fill="none" xmlns="http://www.w3.org/2000/svg">
<mask id="mask0_418_2246" style="mask-type:alpha" maskUnits="userSpaceOnUse" x="109" y="136" width="1945" height="666">
<path d="M427.027 136.898C506.302 136.898 567.774 155.373 611.442 192.323C655.782 229.273 677.952 278.988 677.952 341.467C677.952 391.182 666.195 432.163 642.682 464.41C619.84 495.986 586.921 519.164 543.924 533.944L717.254 802H525.785L383.695 559.137H279.899V802H109.592V136.898H427.027ZM402.842 436.194C436.433 436.194 461.626 429.476 478.422 416.039C495.217 402.603 503.615 381.105 503.615 351.544C503.615 295.783 470.024 267.903 402.842 267.903H279.899V436.194H402.842ZM734.842 802L968.635 136.898H1176.23L1409.01 802H1230.65L1185.3 651.848H955.535L909.179 802H734.842ZM1042.2 373.715L991.813 533.944H1149.02L1100.65 374.722L1071.42 269.918H1069.41L1042.2 373.715ZM2053.18 802H1846.6L1721.64 589.369L1600.71 802H1404.2L1629.93 467.433L1417.3 136.898H1621.87L1735.75 340.459L1850.63 136.898H2039.07L1826.44 462.395L2053.18 802Z" fill="#090A0E"/>
</mask>
<g mask="url(#mask0_418_2246)">
<g filter="url(#filter0_f_418_2246)">
<ellipse cx="1693.03" cy="622.305" rx="455.801" ry="407.191" fill="#12FFC6"/>
</g>
<g filter="url(#filter1_f_418_2246)">
<ellipse cx="520.507" cy="706.008" rx="347.911" ry="310.807" fill="#8123F9"/>
</g>
<g filter="url(#filter2_f_418_2246)">
<ellipse cx="1888.95" cy="571.251" rx="332.302" ry="296.862" fill="#8123F9"/>
</g>
<g filter="url(#filter3_f_418_2246)">
<ellipse cx="845.721" cy="514.748" rx="455.801" ry="407.191" fill="#12FFC6"/>
</g>
<g filter="url(#filter4_f_418_2246)">
<ellipse cx="966.139" cy="716.104" rx="299.081" ry="267.184" fill="#8123F9"/>
</g>
<g filter="url(#filter5_f_418_2246)">
<ellipse cx="503.19" cy="257.896" rx="189.059" ry="168.896" fill="#8123F9"/>
</g>
<g filter="url(#filter6_f_418_2246)">
<ellipse cx="1331.13" cy="253.875" rx="189.059" ry="168.896" fill="#21DDCD"/>
</g>
<g filter="url(#filter7_f_418_2246)">
<ellipse cx="910.722" cy="624.99" rx="332.398" ry="296.949" fill="#12FFC6"/>
</g>
</g>
<rect x="110.627" y="135.9" width="1947.23" height="111.56" fill="url(#paint0_linear_418_2246)"/>
<rect x="2151.54" y="802.338" width="2134.54" height="152.391" transform="rotate(-180 2151.54 802.338)" fill="url(#paint1_linear_418_2246)"/>
<defs>
<filter id="filter0_f_418_2246" x="886.323" y="-135.793" width="1613.42" height="1516.2" filterUnits="userSpaceOnUse" color-interpolation-filters="sRGB">
<feFlood flood-opacity="0" result="BackgroundImageFix"/>
<feBlend mode="normal" in="SourceGraphic" in2="BackgroundImageFix" result="shape"/>
<feGaussianBlur stdDeviation="175.453" result="effect1_foregroundBlur_418_2246"/>
</filter>
<filter id="filter1_f_418_2246" x="-95.2504" y="127.355" width="1231.51" height="1157.31" filterUnits="userSpaceOnUse" color-interpolation-filters="sRGB">
<feFlood flood-opacity="0" result="BackgroundImageFix"/>
<feBlend mode="normal" in="SourceGraphic" in2="BackgroundImageFix" result="shape"/>
<feGaussianBlur stdDeviation="133.923" result="effect1_foregroundBlur_418_2246"/>
</filter>
<filter id="filter2_f_418_2246" x="1300.82" y="18.5596" width="1176.26" height="1105.38" filterUnits="userSpaceOnUse" color-interpolation-filters="sRGB">
<feFlood flood-opacity="0" result="BackgroundImageFix"/>
<feBlend mode="normal" in="SourceGraphic" in2="BackgroundImageFix" result="shape"/>
<feGaussianBlur stdDeviation="127.914" result="effect1_foregroundBlur_418_2246"/>
</filter>
<filter id="filter3_f_418_2246" x="39.013" y="-243.35" width="1613.42" height="1516.2" filterUnits="userSpaceOnUse" color-interpolation-filters="sRGB">
<feFlood flood-opacity="0" result="BackgroundImageFix"/>
<feBlend mode="normal" in="SourceGraphic" in2="BackgroundImageFix" result="shape"/>
<feGaussianBlur stdDeviation="175.453" result="effect1_foregroundBlur_418_2246"/>
</filter>
<filter id="filter4_f_418_2246" x="436.805" y="218.666" width="1058.67" height="994.875" filterUnits="userSpaceOnUse" color-interpolation-filters="sRGB">
<feFlood flood-opacity="0" result="BackgroundImageFix"/>
<feBlend mode="normal" in="SourceGraphic" in2="BackgroundImageFix" result="shape"/>
<feGaussianBlur stdDeviation="115.126" result="effect1_foregroundBlur_418_2246"/>
</filter>
<filter id="filter5_f_418_2246" x="168.58" y="-56.5505" width="669.219" height="628.893" filterUnits="userSpaceOnUse" color-interpolation-filters="sRGB">
<feFlood flood-opacity="0" result="BackgroundImageFix"/>
<feBlend mode="normal" in="SourceGraphic" in2="BackgroundImageFix" result="shape"/>
<feGaussianBlur stdDeviation="72.7752" result="effect1_foregroundBlur_418_2246"/>
</filter>
<filter id="filter6_f_418_2246" x="996.516" y="-60.572" width="669.219" height="628.893" filterUnits="userSpaceOnUse" color-interpolation-filters="sRGB">
<feFlood flood-opacity="0" result="BackgroundImageFix"/>
<feBlend mode="normal" in="SourceGraphic" in2="BackgroundImageFix" result="shape"/>
<feGaussianBlur stdDeviation="72.7752" result="effect1_foregroundBlur_418_2246"/>
</filter>
<filter id="filter7_f_418_2246" x="322.42" y="72.138" width="1176.6" height="1105.7" filterUnits="userSpaceOnUse" color-interpolation-filters="sRGB">
<feFlood flood-opacity="0" result="BackgroundImageFix"/>
<feBlend mode="normal" in="SourceGraphic" in2="BackgroundImageFix" result="shape"/>
<feGaussianBlur stdDeviation="127.952" result="effect1_foregroundBlur_418_2246"/>
</filter>
<linearGradient id="paint0_linear_418_2246" x1="1084.24" y1="135.9" x2="1084.24" y2="247.46" gradientUnits="userSpaceOnUse">
<stop stop-color="#090A0E"/>
<stop offset="1" stop-color="#090A0E" stop-opacity="0"/>
</linearGradient>
<linearGradient id="paint1_linear_418_2246" x1="3218.81" y1="802.338" x2="3218.81" y2="954.729" gradientUnits="userSpaceOnUse">
<stop stop-color="#090A0E"/>
<stop offset="1" stop-color="#090A0E" stop-opacity="0"/>
</linearGradient>
</defs>
</svg>
