<?xml version="1.0" encoding="utf-8"?>
<!-- Generator: Adobe Illustrator 24.1.2, SVG Export Plug-In . SVG Version: 6.00 Build 0)  -->
<svg version="1.1" id="Слой_1" xmlns="http://www.w3.org/2000/svg" xmlns:xlink="http://www.w3.org/1999/xlink" x="0px" y="0px"
	 width="309px" height="365.4px" viewBox="0 0 309 365.4" style="enable-background:new 0 0 309 365.4;" xml:space="preserve">
<style type="text/css">
	.st0{fill:#FFFFFF;}
	.st1{fill:#FBBC04;}
	.st2{fill:#00BA28;}
	.st3{fill:#004EE4;}
	.st4{fill:#EA0A83;}
	.st5{fill:#FF650E;}
	.st6{fill:#3D96FF;}
	.st7{fill:#7D0AFC;}
	.st8{fill:#00DF9C;}
	.st9{fill:#FC67FF;}
	.st10{fill:#C9CED6;}
	.st11{fill:#090A0E;}
	.st12{fill:none;stroke:#FFFFFF;stroke-dasharray:2,2;}
</style>
<path class="st0" d="M30.7,104.9c9.7-13,21.4-24.3,34.7-33.7l44.5,63.2c-6.6,4.7-12.5,10.3-17.3,16.8L30.7,104.9z"/>
<path class="st1" d="M65.6,71.2c7.9-5.6,16.4-10.4,25.3-14.4l31.8,70.4c-4.4,2-8.7,4.4-12.6,7.2L65.6,71.2z"/>
<path class="st2" d="M90.8,56.8c5.9-2.7,12-5,18.1-6.9l22.8,73.8c-3.1,1-6.1,2.1-9.1,3.4L90.8,56.8z"/>
<path class="st3" d="M109,49.9c6.2-1.9,12.5-3.4,18.9-4.5l13.3,76.1c-3.2,0.6-6.3,1.3-9.4,2.3L109,49.9z"/>
<path class="st4" d="M127.8,45.4c16-2.8,32.3-3.1,48.3-0.8l-10.8,76.5c-8-1.1-16.2-1-24.2,0.4L127.8,45.4z"/>
<path class="st5" d="M176.2,44.6c24.1,3.4,47.1,12.5,67.1,26.5c20,14,36.3,32.5,47.7,54.1l-68.2,36.2c-5.7-10.8-13.9-20-23.9-27
	c-10-7-21.5-11.5-33.5-13.3L176.2,44.6z"/>
<path class="st6" d="M291,125.2c15.3,28.8,21,61.7,16.5,94.1L231,208.4c2.3-16.2-0.6-32.6-8.2-47L291,125.2z"/>
<path class="st7" d="M307.5,219.2c-3.4,24.1-12.5,47.1-26.5,67.1c-14,20-32.5,36.3-54.1,47.7l-36.2-68.2c10.8-5.7,20-13.9,27-23.9
	c7-10,11.5-21.5,13.3-33.5L307.5,219.2z"/>
<path class="st8" d="M226.9,334.1c-5.7,3-11.6,5.7-17.7,8l-27.3-72.2c3-1.1,6-2.5,8.8-4L226.9,334.1z"/>
<path class="st9" d="M209.2,342.1c-21.3,8-44.1,11.3-66.7,9.5l6-77c11.3,0.9,22.7-0.7,33.4-4.8L209.2,342.1z"/>
<path class="st10" d="M142.5,351.6c-27.6-2.2-54.1-11.7-76.7-27.6c-22.6-15.9-40.6-37.6-52-62.8C2.3,236-2.1,208.2,0.9,180.7
	c3-27.5,13.4-53.7,30-75.8l61.8,46.3c-8.3,11.1-13.5,24.2-15,37.9c-1.5,13.8,0.7,27.7,6.4,40.3c5.7,12.6,14.7,23.4,26,31.4
	c11.3,7.9,24.6,12.7,38.4,13.8L142.5,351.6z"/>
<path class="st11" d="M64.3,116.1c-0.9,0-1.6-0.2-2.3-0.5c-0.6-0.3-1.2-0.9-1.6-1.7l2.3-1.1c0.1,0.4,0.3,0.7,0.5,1
	c0.3,0.2,0.6,0.4,1.1,0.4c0.3,0,0.6-0.1,0.8-0.2c0.2-0.1,0.4-0.3,0.5-0.5c0.1-0.2,0.2-0.5,0.2-0.8c0-0.3-0.1-0.6-0.2-0.8
	c-0.1-0.2-0.3-0.4-0.5-0.5c-0.2-0.1-0.5-0.2-0.8-0.2c-0.2,0-0.5,0-0.7,0.1c-0.2,0-0.4,0.1-0.5,0.2c-0.2,0.1-0.3,0.2-0.4,0.3l-2-0.4
	l0.6-5.6h6.3v2h-4.4l-0.3,2l0,0.2h0c0.2-0.2,0.5-0.4,0.9-0.5c0.4-0.1,0.8-0.2,1.2-0.2c0.7,0,1.2,0.1,1.7,0.4
	c0.5,0.3,0.8,0.6,1.1,1.1c0.3,0.5,0.4,1,0.4,1.6c0,0.6-0.1,1.2-0.3,1.6c-0.2,0.4-0.5,0.8-0.9,1.1c-0.4,0.3-0.8,0.5-1.3,0.7
	C65.3,116,64.8,116.1,64.3,116.1z M71.5,115.9l7-10h2l-7,10H71.5z M72.1,105.8c0.6,0,1.1,0.1,1.5,0.4c0.4,0.2,0.8,0.6,1,1
	c0.2,0.4,0.4,0.9,0.4,1.5c0,0.6-0.1,1.1-0.4,1.5c-0.2,0.4-0.6,0.8-1,1c-0.4,0.2-0.9,0.4-1.5,0.4c-0.6,0-1.1-0.1-1.5-0.4
	c-0.4-0.2-0.7-0.6-1-1c-0.2-0.4-0.3-0.9-0.3-1.5c0-0.6,0.1-1.1,0.3-1.5c0.2-0.4,0.6-0.8,1-1C71,105.9,71.5,105.8,72.1,105.8z
	 M72.1,107.5c-0.2,0-0.4,0-0.5,0.1c-0.1,0.1-0.2,0.2-0.3,0.4c-0.1,0.2-0.1,0.4-0.1,0.6c0,0.2,0,0.4,0.1,0.6c0.1,0.2,0.2,0.3,0.3,0.4
	c0.1,0.1,0.3,0.1,0.5,0.1c0.2,0,0.4,0,0.5-0.1c0.1-0.1,0.2-0.2,0.3-0.4c0.1-0.2,0.1-0.4,0.1-0.6c0-0.2,0-0.4-0.1-0.6
	c-0.1-0.2-0.2-0.3-0.3-0.4C72.4,107.5,72.3,107.5,72.1,107.5z M79.7,110.4c0.6,0,1.1,0.1,1.5,0.4c0.4,0.2,0.8,0.6,1,1
	c0.2,0.4,0.3,0.9,0.3,1.5c0,0.6-0.1,1.1-0.3,1.5c-0.2,0.4-0.6,0.8-1,1c-0.4,0.2-0.9,0.3-1.5,0.3c-0.6,0-1.1-0.1-1.5-0.3
	c-0.4-0.2-0.8-0.6-1-1c-0.2-0.4-0.3-0.9-0.3-1.5c0-0.6,0.1-1.1,0.3-1.5c0.2-0.4,0.6-0.8,1-1C78.7,110.5,79.2,110.4,79.7,110.4z
	 M79.7,112.1c-0.2,0-0.4,0-0.5,0.1c-0.1,0.1-0.2,0.2-0.3,0.4c-0.1,0.2-0.1,0.4-0.1,0.6c0,0.2,0,0.4,0.1,0.6s0.2,0.3,0.3,0.4
	c0.1,0.1,0.3,0.1,0.5,0.1c0.2,0,0.4,0,0.5-0.1c0.1-0.1,0.2-0.2,0.3-0.4s0.1-0.4,0.1-0.6c0-0.2,0-0.4-0.1-0.6
	c-0.1-0.2-0.2-0.3-0.3-0.4C80.1,112.2,80,112.1,79.7,112.1z"/>
<path class="st11" d="M64.3,116.1c-0.9,0-1.6-0.2-2.3-0.5c-0.6-0.3-1.2-0.9-1.6-1.7l2.3-1.1c0.1,0.4,0.3,0.7,0.5,1
	c0.3,0.2,0.6,0.4,1.1,0.4c0.3,0,0.6-0.1,0.8-0.2c0.2-0.1,0.4-0.3,0.5-0.5c0.1-0.2,0.2-0.5,0.2-0.8c0-0.3-0.1-0.6-0.2-0.8
	c-0.1-0.2-0.3-0.4-0.5-0.5c-0.2-0.1-0.5-0.2-0.8-0.2c-0.2,0-0.5,0-0.7,0.1c-0.2,0-0.4,0.1-0.5,0.2c-0.2,0.1-0.3,0.2-0.4,0.3l-2-0.4
	l0.6-5.6h6.3v2h-4.4l-0.3,2l0,0.2h0c0.2-0.2,0.5-0.4,0.9-0.5c0.4-0.1,0.8-0.2,1.2-0.2c0.7,0,1.2,0.1,1.7,0.4
	c0.5,0.3,0.8,0.6,1.1,1.1c0.3,0.5,0.4,1,0.4,1.6c0,0.6-0.1,1.2-0.3,1.6c-0.2,0.4-0.5,0.8-0.9,1.1c-0.4,0.3-0.8,0.5-1.3,0.7
	C65.3,116,64.8,116.1,64.3,116.1z M71.5,115.9l7-10h2l-7,10H71.5z M72.1,105.8c0.6,0,1.1,0.1,1.5,0.4c0.4,0.2,0.8,0.6,1,1
	c0.2,0.4,0.4,0.9,0.4,1.5c0,0.6-0.1,1.1-0.4,1.5c-0.2,0.4-0.6,0.8-1,1c-0.4,0.2-0.9,0.4-1.5,0.4c-0.6,0-1.1-0.1-1.5-0.4
	c-0.4-0.2-0.7-0.6-1-1c-0.2-0.4-0.3-0.9-0.3-1.5c0-0.6,0.1-1.1,0.3-1.5c0.2-0.4,0.6-0.8,1-1C71,105.9,71.5,105.8,72.1,105.8z
	 M72.1,107.5c-0.2,0-0.4,0-0.5,0.1c-0.1,0.1-0.2,0.2-0.3,0.4c-0.1,0.2-0.1,0.4-0.1,0.6c0,0.2,0,0.4,0.1,0.6c0.1,0.2,0.2,0.3,0.3,0.4
	c0.1,0.1,0.3,0.1,0.5,0.1c0.2,0,0.4,0,0.5-0.1c0.1-0.1,0.2-0.2,0.3-0.4c0.1-0.2,0.1-0.4,0.1-0.6c0-0.2,0-0.4-0.1-0.6
	c-0.1-0.2-0.2-0.3-0.3-0.4C72.4,107.5,72.3,107.5,72.1,107.5z M79.7,110.4c0.6,0,1.1,0.1,1.5,0.4c0.4,0.2,0.8,0.6,1,1
	c0.2,0.4,0.3,0.9,0.3,1.5c0,0.6-0.1,1.1-0.3,1.5c-0.2,0.4-0.6,0.8-1,1c-0.4,0.2-0.9,0.3-1.5,0.3c-0.6,0-1.1-0.1-1.5-0.3
	c-0.4-0.2-0.8-0.6-1-1c-0.2-0.4-0.3-0.9-0.3-1.5c0-0.6,0.1-1.1,0.3-1.5c0.2-0.4,0.6-0.8,1-1C78.7,110.5,79.2,110.4,79.7,110.4z
	 M79.7,112.1c-0.2,0-0.4,0-0.5,0.1c-0.1,0.1-0.2,0.2-0.3,0.4c-0.1,0.2-0.1,0.4-0.1,0.6c0,0.2,0,0.4,0.1,0.6s0.2,0.3,0.3,0.4
	c0.1,0.1,0.3,0.1,0.5,0.1c0.2,0,0.4,0,0.5-0.1c0.1-0.1,0.2-0.2,0.3-0.4s0.1-0.4,0.1-0.6c0-0.2,0-0.4-0.1-0.6
	c-0.1-0.2-0.2-0.3-0.3-0.4C80.1,112.2,80,112.1,79.7,112.1z"/>
<path class="st0" d="M146.3,83.1c-0.9,0-1.6-0.2-2.3-0.5c-0.6-0.3-1.2-0.9-1.6-1.7l2.3-1.1c0.1,0.4,0.3,0.7,0.5,1
	c0.3,0.2,0.6,0.4,1.1,0.4c0.3,0,0.6-0.1,0.8-0.2c0.2-0.1,0.4-0.3,0.5-0.5c0.1-0.2,0.2-0.5,0.2-0.8c0-0.3-0.1-0.6-0.2-0.8
	c-0.1-0.2-0.3-0.4-0.5-0.5c-0.2-0.1-0.5-0.2-0.8-0.2c-0.2,0-0.5,0-0.7,0.1c-0.2,0-0.4,0.1-0.5,0.2c-0.2,0.1-0.3,0.2-0.4,0.3l-2-0.4
	l0.6-5.6h6.3v2h-4.4l-0.3,2l0,0.2h0c0.2-0.2,0.5-0.4,0.9-0.5c0.4-0.1,0.8-0.2,1.2-0.2c0.7,0,1.2,0.1,1.7,0.4
	c0.5,0.3,0.8,0.6,1.1,1.1c0.3,0.5,0.4,1,0.4,1.6c0,0.6-0.1,1.2-0.3,1.6c-0.2,0.4-0.5,0.8-0.9,1.1c-0.4,0.3-0.8,0.5-1.3,0.7
	C147.3,83,146.8,83.1,146.3,83.1z M153.5,82.9l7-10h2l-7,10H153.5z M154.1,72.8c0.6,0,1.1,0.1,1.5,0.4c0.4,0.2,0.8,0.6,1,1
	s0.4,0.9,0.4,1.5s-0.1,1.1-0.4,1.5s-0.6,0.8-1,1c-0.4,0.2-0.9,0.3-1.5,0.3c-0.6,0-1.1-0.1-1.5-0.3c-0.4-0.2-0.7-0.6-1-1
	c-0.2-0.4-0.3-0.9-0.3-1.5s0.1-1.1,0.3-1.5c0.2-0.4,0.6-0.8,1-1C153,72.9,153.5,72.8,154.1,72.8z M154.1,74.5c-0.2,0-0.4,0-0.5,0.1
	c-0.1,0.1-0.2,0.2-0.3,0.4c-0.1,0.2-0.1,0.4-0.1,0.6c0,0.2,0,0.4,0.1,0.6c0.1,0.2,0.2,0.3,0.3,0.4c0.1,0.1,0.3,0.1,0.5,0.1
	c0.2,0,0.4,0,0.5-0.1c0.1-0.1,0.2-0.2,0.3-0.4c0.1-0.2,0.1-0.4,0.1-0.6c0-0.2,0-0.4-0.1-0.6c-0.1-0.2-0.2-0.3-0.3-0.4
	C154.4,74.5,154.3,74.5,154.1,74.5z M161.7,77.4c0.6,0,1.1,0.1,1.5,0.4c0.4,0.2,0.8,0.6,1,1c0.2,0.4,0.3,0.9,0.3,1.5
	c0,0.6-0.1,1.1-0.3,1.5c-0.2,0.4-0.6,0.8-1,1c-0.4,0.2-0.9,0.3-1.5,0.3c-0.6,0-1.1-0.1-1.5-0.3c-0.4-0.2-0.8-0.6-1-1
	c-0.2-0.4-0.3-0.9-0.3-1.5c0-0.6,0.1-1.1,0.3-1.5s0.6-0.8,1-1C160.7,77.5,161.2,77.4,161.7,77.4z M161.7,79.1c-0.2,0-0.4,0-0.5,0.1
	c-0.1,0.1-0.2,0.2-0.3,0.4c-0.1,0.2-0.1,0.4-0.1,0.6c0,0.2,0,0.4,0.1,0.6c0.1,0.2,0.2,0.3,0.3,0.4c0.1,0.1,0.3,0.1,0.5,0.1
	c0.2,0,0.4,0,0.5-0.1c0.1-0.1,0.2-0.2,0.3-0.4c0.1-0.2,0.1-0.4,0.1-0.6c0-0.2,0-0.4-0.1-0.6c-0.1-0.2-0.2-0.3-0.3-0.4
	C162.1,79.2,162,79.1,161.7,79.1z"/>
<path class="st0" d="M40.5,48.1c-1.1,0-2-0.2-2.7-0.6c-0.7-0.4-1.2-1-1.5-1.9l2.4-1c0.1,0.4,0.1,0.7,0.3,0.9
	c0.1,0.2,0.3,0.4,0.6,0.5c0.2,0.1,0.5,0.1,0.8,0.1c0.3,0,0.5,0,0.7-0.1c0.2-0.1,0.4-0.2,0.5-0.4c0.1-0.2,0.2-0.4,0.2-0.7
	c0-0.3-0.1-0.5-0.2-0.6c-0.1-0.2-0.3-0.3-0.5-0.3c-0.2-0.1-0.4-0.1-0.7-0.1c-0.1,0-0.3,0-0.4,0c-0.1,0-0.2,0-0.4,0v-1.7
	c0.1,0,0.2,0,0.2,0c0.1,0,0.2,0,0.3,0c0.5,0,0.8-0.1,1-0.3c0.2-0.2,0.3-0.5,0.3-0.9c0-0.4-0.1-0.6-0.3-0.8c-0.2-0.2-0.5-0.3-0.9-0.3
	c-0.4,0-0.7,0.1-1,0.3c-0.3,0.2-0.4,0.6-0.5,1l-2.3-0.8c0.1-0.6,0.3-1,0.7-1.4c0.4-0.4,0.8-0.7,1.4-0.9c0.6-0.2,1.2-0.3,1.8-0.3
	c0.8,0,1.4,0.1,1.9,0.3c0.5,0.2,0.9,0.5,1.2,1c0.3,0.4,0.4,0.9,0.4,1.5c0,0.4-0.1,0.8-0.2,1.1c-0.1,0.3-0.3,0.5-0.5,0.7
	c-0.2,0.2-0.4,0.3-0.6,0.4c-0.2,0.1-0.4,0.1-0.5,0.2v0c0.2,0,0.4,0,0.6,0.1s0.5,0.2,0.7,0.3c0.2,0.2,0.4,0.4,0.5,0.6
	c0.2,0.3,0.2,0.6,0.2,1c0,0.6-0.2,1.2-0.5,1.6c-0.3,0.5-0.8,0.8-1.3,1.1C41.9,48,41.2,48.1,40.5,48.1z M47.6,47.9l7-10h2l-7,10H47.6
	z M48.2,37.8c0.6,0,1.1,0.1,1.5,0.4c0.4,0.2,0.8,0.6,1,1c0.2,0.4,0.3,0.9,0.3,1.5c0,0.6-0.1,1.1-0.3,1.5c-0.2,0.4-0.6,0.8-1,1
	c-0.4,0.2-0.9,0.3-1.5,0.3c-0.6,0-1.1-0.1-1.5-0.3c-0.4-0.2-0.7-0.6-1-1c-0.2-0.4-0.3-0.9-0.3-1.5c0-0.6,0.1-1.1,0.3-1.5
	c0.2-0.4,0.6-0.8,1-1C47.2,37.9,47.7,37.8,48.2,37.8z M48.2,39.5c-0.2,0-0.4,0-0.5,0.1c-0.1,0.1-0.2,0.2-0.3,0.4
	c-0.1,0.2-0.1,0.4-0.1,0.6c0,0.2,0,0.4,0.1,0.6s0.2,0.3,0.3,0.4c0.1,0.1,0.3,0.1,0.5,0.1c0.2,0,0.4,0,0.5-0.1
	c0.1-0.1,0.2-0.2,0.3-0.4s0.1-0.4,0.1-0.6c0-0.2,0-0.4-0.1-0.6c-0.1-0.2-0.2-0.3-0.3-0.4C48.6,39.5,48.4,39.5,48.2,39.5z M55.9,42.4
	c0.6,0,1.1,0.1,1.5,0.4c0.4,0.2,0.8,0.6,1,1s0.3,0.9,0.3,1.5c0,0.6-0.1,1.1-0.3,1.5s-0.6,0.8-1,1c-0.4,0.2-0.9,0.3-1.5,0.3
	c-0.6,0-1.1-0.1-1.5-0.3c-0.4-0.2-0.8-0.6-1-1s-0.3-0.9-0.3-1.5c0-0.6,0.1-1.1,0.3-1.5s0.6-0.8,1-1C54.8,42.5,55.3,42.4,55.9,42.4z
	 M55.9,44.1c-0.2,0-0.4,0-0.5,0.1c-0.1,0.1-0.2,0.2-0.3,0.4C55,44.8,55,45,55,45.2c0,0.2,0,0.4,0.1,0.6c0.1,0.2,0.2,0.3,0.3,0.4
	c0.1,0.1,0.3,0.1,0.5,0.1c0.2,0,0.4,0,0.5-0.1c0.1-0.1,0.2-0.2,0.3-0.4c0.1-0.2,0.1-0.4,0.1-0.6c0-0.2,0-0.4-0.1-0.6
	c-0.1-0.2-0.2-0.3-0.3-0.4C56.3,44.2,56.1,44.1,55.9,44.1z"/>
<path class="st0" d="M216.8,109.9v-5.8c0-0.3,0-0.5,0-0.8c0-0.3,0-0.6,0-0.9c-0.3,0.3-0.7,0.6-1.1,0.8c-0.4,0.2-0.8,0.4-1.3,0.5
	l-0.2-2.2c0.3,0,0.5-0.1,0.8-0.2c0.3-0.1,0.6-0.2,0.9-0.4s0.6-0.3,0.8-0.5c0.2-0.2,0.4-0.4,0.5-0.6h2.1v10H216.8z M224.8,110.1
	c-0.9,0-1.6-0.2-2.3-0.5c-0.6-0.3-1.2-0.9-1.6-1.7l2.3-1.1c0.1,0.4,0.3,0.7,0.5,1c0.3,0.2,0.6,0.4,1.1,0.4c0.3,0,0.6-0.1,0.8-0.2
	c0.2-0.1,0.4-0.3,0.5-0.5c0.1-0.2,0.2-0.5,0.2-0.8c0-0.3-0.1-0.6-0.2-0.8c-0.1-0.2-0.3-0.4-0.5-0.5c-0.2-0.1-0.5-0.2-0.8-0.2
	c-0.2,0-0.5,0-0.7,0.1c-0.2,0-0.4,0.1-0.5,0.2c-0.2,0.1-0.3,0.2-0.4,0.3l-2-0.4l0.6-5.6h6.3v2h-4.4l-0.3,2l0,0.2h0
	c0.2-0.2,0.5-0.4,0.9-0.5c0.4-0.1,0.8-0.2,1.2-0.2c0.7,0,1.2,0.1,1.7,0.4c0.5,0.3,0.8,0.6,1.1,1.1c0.3,0.5,0.4,1,0.4,1.6
	c0,0.6-0.1,1.2-0.3,1.6c-0.2,0.4-0.5,0.8-0.9,1.1c-0.4,0.3-0.8,0.5-1.3,0.7C225.8,110,225.4,110.1,224.8,110.1z M232,109.9l7-10h2
	l-7,10H232z M232.6,99.8c0.6,0,1.1,0.1,1.5,0.4c0.4,0.2,0.8,0.6,1,1c0.2,0.4,0.4,0.9,0.4,1.5c0,0.6-0.1,1.1-0.4,1.5
	c-0.2,0.4-0.6,0.8-1,1c-0.4,0.2-0.9,0.3-1.5,0.3c-0.6,0-1.1-0.1-1.5-0.3c-0.4-0.2-0.7-0.6-1-1c-0.2-0.4-0.3-0.9-0.3-1.5
	c0-0.6,0.1-1.1,0.3-1.5c0.2-0.4,0.6-0.8,1-1C231.6,99.9,232.1,99.8,232.6,99.8z M232.6,101.5c-0.2,0-0.4,0-0.5,0.1
	c-0.1,0.1-0.2,0.2-0.3,0.4c-0.1,0.2-0.1,0.4-0.1,0.6c0,0.2,0,0.4,0.1,0.6c0.1,0.2,0.2,0.3,0.3,0.4c0.1,0.1,0.3,0.1,0.5,0.1
	c0.2,0,0.4,0,0.5-0.1c0.1-0.1,0.2-0.2,0.3-0.4c0.1-0.2,0.1-0.4,0.1-0.6c0-0.2,0-0.4-0.1-0.6c-0.1-0.2-0.2-0.3-0.3-0.4
	C233,101.5,232.8,101.5,232.6,101.5z M240.3,104.4c0.6,0,1.1,0.1,1.5,0.4c0.4,0.2,0.8,0.6,1,1c0.2,0.4,0.3,0.9,0.3,1.5
	c0,0.6-0.1,1.1-0.3,1.5c-0.2,0.4-0.6,0.8-1,1c-0.4,0.2-0.9,0.3-1.5,0.3c-0.6,0-1.1-0.1-1.5-0.3c-0.4-0.2-0.8-0.6-1-1
	c-0.2-0.4-0.4-0.9-0.4-1.5c0-0.6,0.1-1.1,0.4-1.5c0.2-0.4,0.6-0.8,1-1C239.2,104.5,239.7,104.4,240.3,104.4z M240.3,106.1
	c-0.2,0-0.4,0-0.5,0.1c-0.1,0.1-0.2,0.2-0.3,0.4c-0.1,0.2-0.1,0.4-0.1,0.6c0,0.2,0,0.4,0.1,0.6c0.1,0.2,0.2,0.3,0.3,0.4
	c0.1,0.1,0.3,0.1,0.5,0.1c0.2,0,0.4,0,0.5-0.1c0.1-0.1,0.2-0.2,0.3-0.4c0.1-0.2,0.1-0.4,0.1-0.6c0-0.2,0-0.4-0.1-0.6
	c-0.1-0.2-0.2-0.3-0.3-0.4C240.7,106.2,240.5,106.1,240.3,106.1z"/>
<path class="st0" d="M240.8,267.9v-5.8c0-0.3,0-0.5,0-0.8c0-0.3,0-0.6,0-0.9c-0.3,0.3-0.7,0.6-1.1,0.8c-0.4,0.2-0.8,0.4-1.3,0.5
	l-0.2-2.2c0.3,0,0.5-0.1,0.8-0.2c0.3-0.1,0.6-0.2,0.9-0.4s0.6-0.3,0.8-0.5c0.2-0.2,0.4-0.4,0.5-0.6h2.1v10H240.8z M248.8,268.1
	c-0.9,0-1.6-0.2-2.3-0.5c-0.6-0.3-1.2-0.9-1.6-1.7l2.3-1.1c0.1,0.4,0.3,0.7,0.5,1c0.3,0.2,0.6,0.4,1.1,0.4c0.3,0,0.6-0.1,0.8-0.2
	c0.2-0.1,0.4-0.3,0.5-0.5c0.1-0.2,0.2-0.5,0.2-0.8c0-0.3-0.1-0.6-0.2-0.8c-0.1-0.2-0.3-0.4-0.5-0.5c-0.2-0.1-0.5-0.2-0.8-0.2
	c-0.2,0-0.5,0-0.7,0.1c-0.2,0-0.4,0.1-0.5,0.2c-0.2,0.1-0.3,0.2-0.4,0.3l-2-0.4l0.6-5.6h6.3v2h-4.4l-0.3,2l0,0.2h0
	c0.2-0.2,0.5-0.4,0.9-0.5c0.4-0.1,0.8-0.2,1.2-0.2c0.7,0,1.2,0.1,1.7,0.4c0.5,0.3,0.8,0.6,1.1,1.1c0.3,0.5,0.4,1,0.4,1.6
	c0,0.6-0.1,1.2-0.3,1.6c-0.2,0.4-0.5,0.8-0.9,1.1c-0.4,0.3-0.8,0.5-1.3,0.7C249.8,268,249.4,268.1,248.8,268.1z M256,267.9l7-10h2
	l-7,10H256z M256.6,257.8c0.6,0,1.1,0.1,1.5,0.4c0.4,0.2,0.8,0.6,1,1c0.2,0.4,0.4,0.9,0.4,1.5c0,0.6-0.1,1.1-0.4,1.5
	c-0.2,0.4-0.6,0.8-1,1c-0.4,0.2-0.9,0.4-1.5,0.4c-0.6,0-1.1-0.1-1.5-0.4c-0.4-0.2-0.7-0.6-1-1c-0.2-0.4-0.3-0.9-0.3-1.5
	c0-0.6,0.1-1.1,0.3-1.5c0.2-0.4,0.6-0.8,1-1C255.6,257.9,256.1,257.8,256.6,257.8z M256.6,259.5c-0.2,0-0.4,0-0.5,0.1
	c-0.1,0.1-0.2,0.2-0.3,0.4c-0.1,0.2-0.1,0.4-0.1,0.6c0,0.2,0,0.4,0.1,0.6c0.1,0.2,0.2,0.3,0.3,0.4c0.1,0.1,0.3,0.1,0.5,0.1
	c0.2,0,0.4,0,0.5-0.1c0.1-0.1,0.2-0.2,0.3-0.4c0.1-0.2,0.1-0.4,0.1-0.6c0-0.2,0-0.4-0.1-0.6c-0.1-0.2-0.2-0.3-0.3-0.4
	C257,259.5,256.8,259.5,256.6,259.5z M264.3,262.4c0.6,0,1.1,0.1,1.5,0.4c0.4,0.2,0.8,0.6,1,1c0.2,0.4,0.3,0.9,0.3,1.5
	c0,0.6-0.1,1.1-0.3,1.5c-0.2,0.4-0.6,0.8-1,1c-0.4,0.2-0.9,0.4-1.5,0.4c-0.6,0-1.1-0.1-1.5-0.4c-0.4-0.2-0.8-0.6-1-1
	c-0.2-0.4-0.4-0.9-0.4-1.5c0-0.6,0.1-1.1,0.4-1.5c0.2-0.4,0.6-0.8,1-1C263.2,262.5,263.7,262.4,264.3,262.4z M264.3,264.1
	c-0.2,0-0.4,0-0.5,0.1c-0.1,0.1-0.2,0.2-0.3,0.4c-0.1,0.2-0.1,0.4-0.1,0.6c0,0.2,0,0.4,0.1,0.6c0.1,0.2,0.2,0.3,0.3,0.4
	c0.1,0.1,0.3,0.1,0.5,0.1c0.2,0,0.4,0,0.5-0.1c0.1-0.1,0.2-0.2,0.3-0.4s0.1-0.4,0.1-0.6c0-0.2,0-0.4-0.1-0.6
	c-0.1-0.2-0.2-0.3-0.3-0.4C264.7,264.2,264.5,264.1,264.3,264.1z"/>
<path class="st11" d="M44.5,247.1c-1.1,0-2-0.2-2.7-0.6c-0.7-0.4-1.2-1-1.5-1.9l2.4-1c0.1,0.4,0.1,0.7,0.3,0.9
	c0.1,0.2,0.3,0.4,0.6,0.5c0.2,0.1,0.5,0.1,0.8,0.1c0.3,0,0.5,0,0.7-0.1c0.2-0.1,0.4-0.2,0.5-0.4c0.1-0.2,0.2-0.4,0.2-0.7
	c0-0.3-0.1-0.5-0.2-0.6c-0.1-0.2-0.3-0.3-0.5-0.3c-0.2-0.1-0.4-0.1-0.7-0.1c-0.1,0-0.3,0-0.4,0c-0.1,0-0.2,0-0.4,0v-1.7
	c0.1,0,0.2,0,0.2,0c0.1,0,0.2,0,0.3,0c0.5,0,0.8-0.1,1-0.3c0.2-0.2,0.3-0.5,0.3-0.9c0-0.4-0.1-0.6-0.3-0.8c-0.2-0.2-0.5-0.3-0.9-0.3
	c-0.4,0-0.7,0.1-1,0.3c-0.3,0.2-0.4,0.6-0.5,1l-2.3-0.8c0.1-0.6,0.3-1,0.7-1.4c0.4-0.4,0.8-0.7,1.4-0.9c0.6-0.2,1.2-0.3,1.8-0.3
	c0.8,0,1.4,0.1,1.9,0.3c0.5,0.2,0.9,0.5,1.2,1c0.3,0.4,0.4,0.9,0.4,1.5c0,0.4-0.1,0.8-0.2,1.1c-0.1,0.3-0.3,0.5-0.5,0.7
	c-0.2,0.2-0.4,0.3-0.6,0.4c-0.2,0.1-0.4,0.1-0.5,0.2v0c0.2,0,0.4,0,0.6,0.1c0.2,0.1,0.5,0.2,0.7,0.4c0.2,0.2,0.4,0.4,0.5,0.6
	c0.2,0.3,0.2,0.6,0.2,1c0,0.6-0.2,1.2-0.5,1.6c-0.3,0.5-0.8,0.8-1.3,1.1C45.9,247,45.2,247.1,44.5,247.1z M54.5,246.9v-2.2h-4.9
	v-1.6c0.1-0.2,0.2-0.4,0.3-0.6c0.2-0.2,0.3-0.5,0.5-0.8l3.3-4.8h3.1v6h1.5v1.8h-1.5v2.2H54.5z M51.7,243h2.8v-3c0-0.2,0-0.4,0-0.6
	c0-0.2,0-0.4,0-0.7h0c-0.1,0.2-0.2,0.4-0.4,0.7c-0.1,0.2-0.3,0.4-0.4,0.6l-1.8,2.6c-0.1,0.1-0.1,0.2-0.2,0.2
	C51.8,242.8,51.8,242.9,51.7,243z M61.4,246.9l7-10h2l-7,10H61.4z M62,236.8c0.6,0,1.1,0.1,1.5,0.4c0.4,0.2,0.8,0.6,1,1
	c0.2,0.4,0.3,0.9,0.3,1.5c0,0.6-0.1,1.1-0.3,1.5c-0.2,0.4-0.6,0.8-1,1c-0.4,0.2-0.9,0.4-1.5,0.4c-0.6,0-1.1-0.1-1.5-0.4
	c-0.4-0.2-0.7-0.6-1-1c-0.2-0.4-0.3-0.9-0.3-1.5c0-0.6,0.1-1.1,0.3-1.5c0.2-0.4,0.6-0.8,1-1C61,236.9,61.5,236.8,62,236.8z
	 M62,238.5c-0.2,0-0.4,0-0.5,0.1c-0.1,0.1-0.2,0.2-0.3,0.4c-0.1,0.2-0.1,0.4-0.1,0.6c0,0.2,0,0.4,0.1,0.6c0.1,0.2,0.2,0.3,0.3,0.4
	c0.1,0.1,0.3,0.1,0.5,0.1c0.2,0,0.4,0,0.5-0.1c0.1-0.1,0.2-0.2,0.3-0.4c0.1-0.2,0.1-0.4,0.1-0.6c0-0.2,0-0.4-0.1-0.6
	c-0.1-0.2-0.2-0.3-0.3-0.4C62.4,238.5,62.3,238.5,62,238.5z M69.7,241.4c0.6,0,1.1,0.1,1.5,0.4c0.4,0.2,0.8,0.6,1,1
	c0.2,0.4,0.3,0.9,0.3,1.5c0,0.6-0.1,1.1-0.3,1.5c-0.2,0.4-0.6,0.8-1,1c-0.4,0.2-0.9,0.4-1.5,0.4c-0.6,0-1.1-0.1-1.5-0.4
	c-0.4-0.2-0.8-0.6-1-1c-0.2-0.4-0.3-0.9-0.3-1.5c0-0.6,0.1-1.1,0.3-1.5c0.2-0.4,0.6-0.8,1-1C68.7,241.5,69.2,241.4,69.7,241.4z
	 M69.7,243.1c-0.2,0-0.4,0-0.5,0.1c-0.1,0.1-0.2,0.2-0.3,0.4c-0.1,0.2-0.1,0.4-0.1,0.6c0,0.2,0,0.4,0.1,0.6s0.2,0.3,0.3,0.4
	c0.1,0.1,0.3,0.1,0.5,0.1c0.2,0,0.4,0,0.5-0.1c0.1-0.1,0.2-0.2,0.3-0.4c0.1-0.2,0.1-0.4,0.1-0.6c0-0.2,0-0.4-0.1-0.6
	c-0.1-0.2-0.2-0.3-0.3-0.4C70.1,243.2,69.9,243.1,69.7,243.1z"/>
<path class="st11" d="M158.4,307.9h8.3v1.9c-0.8,0.8-1.5,1.7-2,2.5c-0.5,0.9-0.8,1.8-1,2.7c-0.2,0.9-0.3,1.9-0.3,2.9h-2.6
	c0-1.1,0.1-2.2,0.4-3.1c0.3-1,0.7-2,1.3-2.9c0.6-0.9,1.4-1.8,2.3-2.6l0.5,0.7h-7V307.9z M169.8,317.9l7-10h2l-7,10H169.8z
	 M170.5,307.8c0.6,0,1.1,0.1,1.5,0.4c0.4,0.2,0.8,0.6,1,1c0.2,0.4,0.3,0.9,0.3,1.5c0,0.6-0.1,1.1-0.3,1.5c-0.2,0.4-0.6,0.8-1,1
	c-0.4,0.2-0.9,0.4-1.5,0.4c-0.6,0-1.1-0.1-1.5-0.4c-0.4-0.2-0.7-0.6-1-1c-0.2-0.4-0.3-0.9-0.3-1.5c0-0.6,0.1-1.1,0.3-1.5
	c0.2-0.4,0.6-0.8,1-1C169.4,307.9,169.9,307.8,170.5,307.8z M170.5,309.5c-0.2,0-0.4,0-0.5,0.1c-0.1,0.1-0.2,0.2-0.3,0.4
	c-0.1,0.2-0.1,0.4-0.1,0.6c0,0.2,0,0.4,0.1,0.6c0.1,0.2,0.2,0.3,0.3,0.4c0.1,0.1,0.3,0.1,0.5,0.1c0.2,0,0.4,0,0.5-0.1
	c0.1-0.1,0.2-0.2,0.3-0.4c0.1-0.2,0.1-0.4,0.1-0.6c0-0.2,0-0.4-0.1-0.6c-0.1-0.2-0.2-0.3-0.3-0.4
	C170.8,309.5,170.7,309.5,170.5,309.5z M178.1,312.4c0.6,0,1.1,0.1,1.5,0.4c0.4,0.2,0.8,0.6,1,1c0.2,0.4,0.4,0.9,0.4,1.5
	c0,0.6-0.1,1.1-0.4,1.5c-0.2,0.4-0.6,0.8-1,1c-0.4,0.2-0.9,0.4-1.5,0.4s-1.1-0.1-1.5-0.4c-0.4-0.2-0.8-0.6-1-1
	c-0.2-0.4-0.3-0.9-0.3-1.5c0-0.6,0.1-1.1,0.3-1.5c0.2-0.4,0.6-0.8,1-1C177.1,312.5,177.6,312.4,178.1,312.4z M178.1,314.1
	c-0.2,0-0.4,0-0.5,0.1c-0.1,0.1-0.2,0.2-0.3,0.4c-0.1,0.2-0.1,0.4-0.1,0.6c0,0.2,0,0.4,0.1,0.6s0.2,0.3,0.3,0.4
	c0.1,0.1,0.3,0.1,0.5,0.1c0.2,0,0.4,0,0.5-0.1c0.1-0.1,0.2-0.2,0.3-0.4s0.1-0.4,0.1-0.6c0-0.2,0-0.4-0.1-0.6
	c-0.1-0.2-0.2-0.3-0.3-0.4C178.5,314.2,178.3,314.1,178.1,314.1z"/>
<path class="st0" d="M261.8,180.9v-5.8c0-0.3,0-0.5,0-0.8c0-0.3,0-0.6,0-0.9c-0.3,0.3-0.7,0.6-1.1,0.8c-0.4,0.2-0.8,0.4-1.3,0.5
	l-0.2-2.2c0.3,0,0.5-0.1,0.8-0.2c0.3-0.1,0.6-0.2,0.9-0.4c0.3-0.2,0.6-0.3,0.8-0.5c0.2-0.2,0.4-0.4,0.5-0.6h2.1v10H261.8z
	 M270.4,181.1c-1.4,0-2.4-0.4-3.1-1.3c-0.7-0.9-1-2.2-1-3.9s0.3-3,1-3.9c0.7-0.9,1.7-1.3,3.1-1.3c1.4,0,2.4,0.4,3.1,1.3
	c0.7,0.9,1.1,2.2,1.1,3.9s-0.4,3-1.1,3.9C272.8,180.7,271.7,181.1,270.4,181.1z M270.4,179.1c0.4,0,0.7-0.1,0.9-0.3
	c0.2-0.2,0.4-0.5,0.5-1c0.1-0.5,0.2-1.1,0.2-1.8c0-0.8-0.1-1.4-0.2-1.8c-0.1-0.5-0.3-0.8-0.5-1c-0.2-0.2-0.5-0.3-0.9-0.3
	c-0.4,0-0.7,0.1-0.9,0.3c-0.2,0.2-0.4,0.5-0.5,1c-0.1,0.5-0.2,1.1-0.2,1.8c0,0.7,0,1.4,0.2,1.8c0.1,0.5,0.3,0.8,0.5,1
	C269.7,179,270,179.1,270.4,179.1z M277.9,180.9l7-10h2l-7,10H277.9z M278.5,170.8c0.6,0,1.1,0.1,1.5,0.4c0.4,0.2,0.8,0.6,1,1
	c0.2,0.4,0.3,0.9,0.3,1.5c0,0.6-0.1,1.1-0.3,1.5c-0.2,0.4-0.6,0.8-1,1c-0.4,0.2-0.9,0.3-1.5,0.3c-0.6,0-1.1-0.1-1.5-0.3
	c-0.4-0.2-0.7-0.6-1-1c-0.2-0.4-0.3-0.9-0.3-1.5c0-0.6,0.1-1.1,0.3-1.5c0.2-0.4,0.6-0.8,1-1C277.5,170.9,278,170.8,278.5,170.8z
	 M278.5,172.5c-0.2,0-0.4,0-0.5,0.1c-0.1,0.1-0.2,0.2-0.3,0.4c-0.1,0.2-0.1,0.4-0.1,0.6c0,0.2,0,0.4,0.1,0.6
	c0.1,0.2,0.2,0.3,0.3,0.4c0.1,0.1,0.3,0.1,0.5,0.1c0.2,0,0.4,0,0.5-0.1c0.1-0.1,0.2-0.2,0.3-0.4c0.1-0.2,0.1-0.4,0.1-0.6
	c0-0.2,0-0.4-0.1-0.6c-0.1-0.2-0.2-0.3-0.3-0.4C278.9,172.5,278.7,172.5,278.5,172.5z M286.2,175.4c0.6,0,1.1,0.1,1.5,0.4
	c0.4,0.2,0.8,0.6,1,1c0.2,0.4,0.4,0.9,0.4,1.5c0,0.6-0.1,1.1-0.4,1.5c-0.2,0.4-0.6,0.8-1,1c-0.4,0.2-0.9,0.4-1.5,0.4
	c-0.6,0-1.1-0.1-1.5-0.4c-0.4-0.2-0.8-0.6-1-1c-0.2-0.4-0.4-0.9-0.4-1.5c0-0.6,0.1-1.1,0.4-1.5c0.2-0.4,0.6-0.8,1-1
	C285.1,175.5,285.6,175.4,286.2,175.4z M286.2,177.1c-0.2,0-0.4,0-0.5,0.1c-0.1,0.1-0.2,0.2-0.3,0.4c-0.1,0.2-0.1,0.4-0.1,0.6
	c0,0.2,0,0.4,0.1,0.6c0.1,0.2,0.2,0.3,0.3,0.4c0.1,0.1,0.3,0.1,0.5,0.1c0.2,0,0.4,0,0.5-0.1c0.1-0.1,0.2-0.2,0.3-0.4
	c0.1-0.2,0.1-0.4,0.1-0.6c0-0.2,0-0.4-0.1-0.6c-0.1-0.2-0.2-0.3-0.3-0.4C286.6,177.2,286.4,177.1,286.2,177.1z"/>
<path class="st12" d="M83.9,76.9L72.4,54.4h-37"/>
<path class="st0" d="M63.8,28.9v-1.7c0.9-0.5,1.6-1,2.2-1.5c0.6-0.5,1.1-0.9,1.5-1.3c0.4-0.4,0.7-0.8,0.9-1.2
	c0.2-0.4,0.3-0.7,0.3-1.1c0-0.4-0.1-0.7-0.3-1c-0.2-0.3-0.6-0.4-1-0.4c-0.5,0-0.8,0.2-1.1,0.5c-0.3,0.3-0.4,0.9-0.4,1.5l-2.2-0.7
	c0-0.7,0.2-1.4,0.5-1.9c0.3-0.5,0.8-0.9,1.4-1.1c0.6-0.3,1.3-0.4,2-0.4c0.7,0,1.2,0.1,1.7,0.3c0.5,0.2,0.9,0.4,1.2,0.7
	c0.3,0.3,0.5,0.6,0.7,1c0.2,0.4,0.2,0.8,0.2,1.2c0,0.6-0.2,1.3-0.5,1.8c-0.3,0.6-0.8,1.1-1.5,1.6c-0.6,0.5-1.4,1-2.3,1.6v0
	c0.2,0,0.4,0,0.6,0s0.5,0,0.7,0c0.3,0,0.5,0,0.7,0h2.4v2H63.8z M74.6,28.9l7-10h2l-7,10H74.6z M75.3,18.8c0.6,0,1.1,0.1,1.5,0.4
	c0.4,0.2,0.8,0.6,1,1s0.3,0.9,0.3,1.5c0,0.6-0.1,1.1-0.3,1.5s-0.6,0.8-1,1c-0.4,0.2-0.9,0.3-1.5,0.3c-0.6,0-1.1-0.1-1.5-0.3
	c-0.4-0.2-0.7-0.6-1-1c-0.2-0.4-0.3-0.9-0.3-1.5c0-0.6,0.1-1.1,0.3-1.5c0.2-0.4,0.6-0.8,1-1C74.2,18.9,74.7,18.8,75.3,18.8z
	 M75.3,20.5c-0.2,0-0.4,0-0.5,0.1c-0.1,0.1-0.2,0.2-0.3,0.4c-0.1,0.2-0.1,0.4-0.1,0.6c0,0.2,0,0.4,0.1,0.6c0.1,0.2,0.2,0.3,0.3,0.4
	c0.1,0.1,0.3,0.1,0.5,0.1c0.2,0,0.4,0,0.5-0.1c0.1-0.1,0.2-0.2,0.3-0.4s0.1-0.4,0.1-0.6c0-0.2,0-0.4-0.1-0.6
	c-0.1-0.2-0.2-0.3-0.3-0.4C75.6,20.5,75.5,20.5,75.3,20.5z M82.9,23.4c0.6,0,1.1,0.1,1.5,0.4c0.4,0.2,0.8,0.6,1,1s0.4,0.9,0.4,1.5
	c0,0.6-0.1,1.1-0.4,1.5s-0.6,0.8-1,1c-0.4,0.2-0.9,0.3-1.5,0.3s-1.1-0.1-1.5-0.3c-0.4-0.2-0.8-0.6-1-1c-0.2-0.4-0.4-0.9-0.4-1.5
	c0-0.6,0.1-1.1,0.4-1.5c0.2-0.4,0.6-0.8,1-1C81.9,23.5,82.4,23.4,82.9,23.4z M82.9,25.1c-0.2,0-0.4,0-0.5,0.1
	c-0.1,0.1-0.2,0.2-0.3,0.4C82.1,25.8,82,26,82,26.2c0,0.2,0,0.4,0.1,0.6c0.1,0.2,0.2,0.3,0.3,0.4c0.1,0.1,0.3,0.1,0.5,0.1
	c0.2,0,0.4,0,0.5-0.1c0.1-0.1,0.2-0.2,0.3-0.4c0.1-0.2,0.1-0.4,0.1-0.6c0-0.2,0-0.4-0.1-0.6c-0.1-0.2-0.2-0.3-0.3-0.4
	C83.3,25.2,83.1,25.1,82.9,25.1z"/>
<path class="st0" d="M94,10.2V8.5c0.9-0.5,1.6-1,2.2-1.5c0.6-0.5,1.1-0.9,1.5-1.3c0.4-0.4,0.7-0.8,0.9-1.2c0.2-0.4,0.3-0.7,0.3-1.1
	c0-0.4-0.1-0.7-0.3-1c-0.2-0.3-0.6-0.4-1-0.4c-0.5,0-0.8,0.2-1.1,0.5c-0.3,0.3-0.4,0.9-0.4,1.5l-2.2-0.7c0-0.7,0.2-1.4,0.5-1.9
	C94.6,1,95,0.6,95.6,0.4c0.6-0.3,1.3-0.4,2-0.4c0.7,0,1.2,0.1,1.7,0.3c0.5,0.2,0.9,0.4,1.2,0.7c0.3,0.3,0.5,0.6,0.7,1
	c0.2,0.4,0.2,0.8,0.2,1.2c0,0.6-0.2,1.3-0.5,1.8c-0.3,0.6-0.8,1.1-1.5,1.6c-0.6,0.5-1.4,1-2.3,1.6v0c0.2,0,0.4,0,0.6,0
	c0.2,0,0.5,0,0.7,0c0.3,0,0.5,0,0.7,0h2.4v2H94z M104.8,10.2l7-10h2l-7,10H104.8z M105.4,0c0.6,0,1.1,0.1,1.5,0.4
	c0.4,0.2,0.8,0.6,1,1c0.2,0.4,0.4,0.9,0.4,1.5c0,0.6-0.1,1.1-0.4,1.5c-0.2,0.4-0.6,0.8-1,1c-0.4,0.2-0.9,0.3-1.5,0.3
	c-0.6,0-1.1-0.1-1.5-0.3c-0.4-0.2-0.7-0.6-1-1c-0.2-0.4-0.4-0.9-0.4-1.5c0-0.6,0.1-1.1,0.4-1.5c0.2-0.4,0.6-0.8,1-1
	C104.4,0.1,104.8,0,105.4,0z M105.4,1.7c-0.2,0-0.4,0-0.5,0.1c-0.1,0.1-0.2,0.2-0.3,0.4c-0.1,0.2-0.1,0.4-0.1,0.6
	c0,0.2,0,0.4,0.1,0.6c0.1,0.2,0.2,0.3,0.3,0.4c0.1,0.1,0.3,0.1,0.5,0.1c0.2,0,0.4,0,0.5-0.1c0.1-0.1,0.2-0.2,0.3-0.4
	c0.1-0.2,0.1-0.4,0.1-0.6c0-0.2,0-0.4-0.1-0.6c-0.1-0.2-0.2-0.3-0.3-0.4C105.8,1.8,105.6,1.7,105.4,1.7z M113.1,4.6
	c0.6,0,1.1,0.1,1.5,0.4c0.4,0.2,0.8,0.6,1,1s0.3,0.9,0.3,1.5c0,0.6-0.1,1.1-0.3,1.5c-0.2,0.4-0.6,0.8-1,1c-0.4,0.2-0.9,0.3-1.5,0.3
	c-0.6,0-1.1-0.1-1.5-0.3c-0.4-0.2-0.8-0.6-1-1c-0.2-0.4-0.3-0.9-0.3-1.5c0-0.6,0.1-1.1,0.3-1.5s0.6-0.8,1-1
	C112,4.7,112.5,4.6,113.1,4.6z M113.1,6.4c-0.2,0-0.4,0-0.5,0.1c-0.1,0.1-0.2,0.2-0.3,0.4c-0.1,0.2-0.1,0.4-0.1,0.6
	c0,0.2,0,0.4,0.1,0.6s0.2,0.3,0.3,0.4c0.1,0.1,0.3,0.1,0.5,0.1c0.2,0,0.4,0,0.5-0.1c0.1-0.1,0.2-0.2,0.3-0.4s0.1-0.4,0.1-0.6
	c0-0.2,0-0.4-0.1-0.6c-0.1-0.2-0.2-0.3-0.3-0.4C113.5,6.4,113.3,6.4,113.1,6.4z"/>
<path class="st12" d="M102.9,65.4l-8.5-30H62.9"/>
<path class="st12" d="M121.9,55.9l-6.5-36H92.9"/>
<path class="st12" d="M215.9,329.9l10.5,35h32"/>
<path class="st0" d="M233,357.9v-1.7c0.9-0.5,1.6-1,2.2-1.5c0.6-0.5,1.1-0.9,1.5-1.3c0.4-0.4,0.7-0.8,0.9-1.2
	c0.2-0.4,0.3-0.7,0.3-1.1c0-0.4-0.1-0.7-0.4-1c-0.2-0.3-0.6-0.4-1-0.4c-0.5,0-0.8,0.2-1.1,0.5c-0.3,0.3-0.4,0.9-0.4,1.5l-2.2-0.7
	c0-0.8,0.2-1.4,0.5-1.9c0.3-0.5,0.8-0.9,1.4-1.1c0.6-0.3,1.3-0.4,2-0.4c0.7,0,1.2,0.1,1.7,0.3c0.5,0.2,0.9,0.4,1.2,0.7
	c0.3,0.3,0.5,0.6,0.7,1c0.2,0.4,0.2,0.8,0.2,1.2c0,0.6-0.2,1.3-0.5,1.8c-0.3,0.6-0.8,1.1-1.5,1.6c-0.6,0.5-1.4,1-2.3,1.6v0
	c0.2,0,0.4,0,0.6,0c0.2,0,0.5,0,0.7,0c0.3,0,0.5,0,0.7,0h2.4v2H233z M243.8,357.9l7-10h2l-7,10H243.8z M244.4,347.8
	c0.6,0,1.1,0.1,1.5,0.4c0.4,0.2,0.8,0.6,1,1c0.2,0.4,0.3,0.9,0.3,1.5c0,0.6-0.1,1.1-0.3,1.5c-0.2,0.4-0.6,0.8-1,1
	c-0.4,0.2-0.9,0.4-1.5,0.4c-0.6,0-1.1-0.1-1.5-0.4c-0.4-0.2-0.7-0.6-1-1c-0.2-0.4-0.3-0.9-0.3-1.5c0-0.6,0.1-1.1,0.3-1.5
	c0.2-0.4,0.6-0.8,1-1C243.4,347.9,243.8,347.8,244.4,347.8z M244.4,349.5c-0.2,0-0.4,0-0.5,0.1c-0.1,0.1-0.2,0.2-0.3,0.4
	c-0.1,0.2-0.1,0.4-0.1,0.6c0,0.2,0,0.4,0.1,0.6c0.1,0.2,0.2,0.3,0.3,0.4c0.1,0.1,0.3,0.1,0.5,0.1c0.2,0,0.4,0,0.5-0.1
	c0.1-0.1,0.2-0.2,0.3-0.4c0.1-0.2,0.1-0.4,0.1-0.6c0-0.2,0-0.4-0.1-0.6c-0.1-0.2-0.2-0.3-0.3-0.4
	C244.8,349.5,244.6,349.5,244.4,349.5z M252.1,352.4c0.6,0,1.1,0.1,1.5,0.4c0.4,0.2,0.8,0.6,1,1c0.2,0.4,0.3,0.9,0.3,1.5
	c0,0.6-0.1,1.1-0.3,1.5c-0.2,0.4-0.6,0.8-1,1c-0.4,0.2-0.9,0.4-1.5,0.4c-0.6,0-1.1-0.1-1.5-0.4c-0.4-0.2-0.8-0.6-1-1
	c-0.2-0.4-0.3-0.9-0.3-1.5c0-0.6,0.1-1.1,0.3-1.5c0.2-0.4,0.6-0.8,1-1C251,352.5,251.5,352.4,252.1,352.4z M252.1,354.1
	c-0.2,0-0.4,0-0.5,0.1c-0.1,0.1-0.2,0.2-0.3,0.4c-0.1,0.2-0.1,0.4-0.1,0.6c0,0.2,0,0.4,0.1,0.6c0.1,0.2,0.2,0.3,0.3,0.4
	c0.1,0.1,0.3,0.1,0.5,0.1c0.2,0,0.4,0,0.5-0.1c0.1-0.1,0.2-0.2,0.3-0.4c0.1-0.2,0.1-0.4,0.1-0.6c0-0.2,0-0.4-0.1-0.6
	c-0.1-0.2-0.2-0.3-0.3-0.4C252.5,354.2,252.3,354.1,252.1,354.1z"/>
</svg>
