<svg width="21" height="22" viewBox="0 0 21 22" fill="none" xmlns="http://www.w3.org/2000/svg">
<circle cx="10.5081" cy="10.5447" r="10.4783" fill="#2A58FC"/>
<g clip-path="url(#clip0_2246_1889)">
<path d="M16.962 12.2479C16.8238 12.3417 16.6624 12.3971 16.4949 12.4082C16.3274 12.4193 16.16 12.3856 16.0103 12.3108C15.6588 12.1152 15.4694 11.6565 15.4694 11.0315V9.11578C15.4694 8.19616 15.0997 7.54186 14.4812 7.36423C13.4359 7.06294 12.6554 8.32432 12.3541 8.79875L10.5055 11.7465V8.14894C10.485 7.31926 10.2111 6.82235 9.69302 6.67395C9.35068 6.57502 8.83717 6.61549 8.33736 7.36648L4.2042 13.9028C3.65426 12.8662 3.36912 11.7132 3.37346 10.5436C3.37346 6.60425 6.56861 3.40019 10.5055 3.40019C14.4424 3.40019 17.649 6.60425 17.649 10.5436V10.5638C17.649 10.5638 17.649 10.5773 17.649 10.584C17.6878 11.3463 17.4367 11.9533 16.9643 12.2479H16.962ZM19.2443 10.5458V10.5076C19.2123 5.70711 15.3051 1.81277 10.5055 1.81277C5.70592 1.81277 1.77588 5.7296 1.77588 10.5436C1.77588 15.3575 5.69223 19.2766 10.5055 19.2766C12.7131 19.2765 14.8367 18.4428 16.4394 16.9472C16.5949 16.8028 16.6865 16.6038 16.6942 16.3934C16.7019 16.1829 16.6251 15.978 16.4804 15.8229C16.4112 15.7475 16.3276 15.6863 16.2343 15.6429C16.141 15.5994 16.0399 15.5746 15.9368 15.5698C15.8337 15.565 15.7307 15.5803 15.6336 15.6149C15.5366 15.6495 15.4474 15.7026 15.3713 15.7712C14.6813 16.4161 13.8661 16.9169 12.9747 17.2436C12.0834 17.5704 11.1342 17.7163 10.1841 17.6726C9.23409 17.6289 8.30281 17.3965 7.4462 16.9894C6.58959 16.5823 5.82531 16.0089 5.19926 15.3036L8.91934 9.41258V12.131C8.91934 13.4373 9.43284 13.86 9.86419 13.9837C10.2955 14.1074 10.9551 14.0219 11.6466 12.9157L13.7007 9.63967C13.7646 9.534 13.8262 9.44406 13.881 9.36536V11.0315C13.881 12.2524 14.3785 13.2282 15.2503 13.7094C15.6467 13.9202 16.0934 14.0221 16.5436 14.0043C16.9937 13.9865 17.4307 13.8497 17.8087 13.6082C18.7673 12.9944 19.2899 11.8836 19.2351 10.5458H19.2443Z" fill="white"/>
</g>
<defs>
<clipPath id="clip0_2246_1889">
<rect width="17.4638" height="17.4638" fill="white" transform="translate(1.77588 1.81277)"/>
</clipPath>
</defs>
</svg>
