<svg width="23" height="23" viewBox="0 0 23 23" fill="none" xmlns="http://www.w3.org/2000/svg">
    <g clip-path="url(#clip0_2670_1908)">
        <path d="M11.5 23C17.8513 23 23 17.8513 23 11.5C23 5.14873 17.8513 0 11.5 0C5.14873 0 0 5.14873 0 11.5C0 17.8513 5.14873 23 11.5 23Z"
              fill="#E84142"/>
        <path d="M15.5559 11.7988C15.9543 11.1106 16.5972 11.1106 16.9956 11.7988L19.4767 16.1543C19.8751 16.8425 19.5492 17.4039 18.7523 17.4039H13.7539C12.9661 17.4039 12.6401 16.8425 13.0295 16.1543L15.5559 11.7988ZM10.7566 3.41372C11.1551 2.72554 11.7889 2.72554 12.1874 3.41372L12.7397 4.40979L14.0437 6.70073C14.3606 7.3527 14.3606 8.12239 14.0437 8.77435L9.67003 16.3535C9.27161 16.9692 8.61058 17.3586 7.87712 17.4039H4.24602C3.44917 17.4039 3.12318 16.8515 3.52161 16.1543L10.7566 3.41372Z"
              fill="white"/>
    </g>
    <defs>
        <clipPath id="clip0_2670_1908">
            <rect width="23" height="23" fill="white"/>
        </clipPath>
    </defs>
</svg>
