<svg width="24" height="24" viewBox="0 0 24 24" fill="none" xmlns="http://www.w3.org/2000/svg">
    <circle cx="12" cy="12" r="12" fill="#8247E5"/>
    <path d="M15.8938 9.67707C15.6276 9.52495 15.2854 9.52495 14.9811 9.67707L12.8515 10.932L11.4063 11.7307L9.31471 12.9856C9.0485 13.1378 8.70623 13.1378 8.40199 12.9856L6.76672 11.9969C6.50051 11.8448 6.31036 11.5405 6.31036 11.1983V9.29677C6.31036 8.99253 6.46248 8.68829 6.76672 8.49815L8.40199 7.5474C8.6682 7.39529 9.01047 7.39529 9.31471 7.5474L10.95 8.53618C11.2162 8.68829 11.4063 8.99253 11.4063 9.3348V10.5898L12.8515 9.75313V8.46012C12.8515 8.15588 12.6993 7.85164 12.3951 7.66149L9.35274 5.8741C9.08653 5.72198 8.74426 5.72198 8.44002 5.8741L5.32159 7.69952C5.01735 7.85164 4.86523 8.15588 4.86523 8.46012V12.0349C4.86523 12.3391 5.01735 12.6434 5.32159 12.8335L8.40199 14.6209C8.6682 14.773 9.01047 14.773 9.31471 14.6209L11.4063 13.404L12.8515 12.5673L14.9431 11.3504C15.2093 11.1983 15.5516 11.1983 15.8558 11.3504L17.4911 12.3011C17.7573 12.4532 17.9474 12.7575 17.9474 13.0997V15.0012C17.9474 15.3055 17.7953 15.6097 17.4911 15.7998L15.8938 16.7506C15.6276 16.9027 15.2854 16.9027 14.9811 16.7506L13.3459 15.7998C13.0796 15.6477 12.8895 15.3435 12.8895 15.0012V13.7843L11.4444 14.6209V15.8759C11.4444 16.1801 11.5965 16.4844 11.9007 16.6745L14.9811 18.4619C15.2473 18.614 15.5896 18.614 15.8938 18.4619L18.9742 16.6745C19.2405 16.5224 19.4306 16.2182 19.4306 15.8759V12.2631C19.4306 11.9588 19.2785 11.6546 18.9742 11.4645L15.8938 9.67707Z"
          fill="white"/>
</svg>
