<svg width="23" height="23" viewBox="0 0 23 23" fill="none" xmlns="http://www.w3.org/2000/svg">
    <circle cx="11.5" cy="11.5" r="11.5" fill="#8247E5"/>
    <path d="M15.2312 9.27387C14.9761 9.12808 14.6481 9.12808 14.3565 9.27387L12.3156 10.4766L10.9307 11.2419L8.92619 12.4446C8.67107 12.5904 8.34307 12.5904 8.0515 12.4446L6.48436 11.497C6.22925 11.3512 6.04702 11.0597 6.04702 10.7317V8.90941C6.04702 8.61785 6.1928 8.32629 6.48436 8.14407L8.0515 7.23294C8.30662 7.08716 8.63463 7.08716 8.92619 7.23294L10.4933 8.18051C10.7484 8.32629 10.9307 8.61785 10.9307 8.94586V10.1485L12.3156 9.34676V8.10762C12.3156 7.81606 12.1698 7.5245 11.8782 7.34227L8.96263 5.62935C8.70752 5.48357 8.37951 5.48357 8.08795 5.62935L5.09945 7.37872C4.80789 7.5245 4.66211 7.81606 4.66211 8.10762V11.5335C4.66211 11.825 4.80789 12.1166 5.09945 12.2988L8.0515 14.0117C8.30662 14.1575 8.63463 14.1575 8.92619 14.0117L10.9307 12.8455L12.3156 12.0437L14.3201 10.8774C14.5752 10.7317 14.9032 10.7317 15.1947 10.8774L16.7619 11.7886C17.017 11.9344 17.1992 12.2259 17.1992 12.5539V14.3762C17.1992 14.6677 17.0534 14.9593 16.7619 15.1415L15.2312 16.0527C14.9761 16.1984 14.6481 16.1984 14.3565 16.0527L12.7894 15.1415C12.5343 14.9957 12.352 14.7042 12.352 14.3762V13.2099L10.9671 14.0117V15.2144C10.9671 15.506 11.1129 15.7975 11.4045 15.9798L14.3565 17.6927C14.6116 17.8385 14.9396 17.8385 15.2312 17.6927L18.1832 15.9798C18.4384 15.834 18.6206 15.5424 18.6206 15.2144V11.7521C18.6206 11.4606 18.4748 11.169 18.1832 10.9868L15.2312 9.27387Z"
          fill="white"/>
</svg>
