<svg width="21" height="22" viewBox="0 0 21 22" fill="none" xmlns="http://www.w3.org/2000/svg">
<g clip-path="url(#clip0_68_132)">
<path d="M16.7483 11.8225C16.7833 11.56 16.8008 11.2887 16.8008 11C16.8008 10.72 16.7833 10.44 16.7396 10.1775L18.5158 8.79498C18.6733 8.67248 18.7171 8.43623 18.6208 8.26123L16.9408 5.35623C16.8358 5.16373 16.6171 5.10248 16.4246 5.16373L14.3333 6.00373C13.8958 5.67123 13.4321 5.39123 12.9158 5.18123L12.6008 2.95873C12.5658 2.74873 12.3908 2.59998 12.1808 2.59998H8.82083C8.61083 2.59998 8.44458 2.74873 8.40958 2.95873L8.09458 5.18123C7.57833 5.39123 7.10583 5.67998 6.67708 6.00373L4.58583 5.16373C4.39333 5.09373 4.17458 5.16373 4.06958 5.35623L2.39833 8.26123C2.29333 8.44498 2.32833 8.67248 2.50333 8.79498L4.27958 10.1775C4.23583 10.44 4.20083 10.7287 4.20083 11C4.20083 11.2712 4.21833 11.56 4.26208 11.8225L2.48583 13.205C2.32833 13.3275 2.28458 13.5637 2.38083 13.7387L4.06083 16.6437C4.16583 16.8362 4.38458 16.8975 4.57708 16.8362L6.66833 15.9962C7.10583 16.3287 7.56958 16.6087 8.08583 16.8187L8.40083 19.0412C8.44458 19.2512 8.61083 19.4 8.82083 19.4H12.1808C12.3908 19.4 12.5658 19.2512 12.5921 19.0412L12.9071 16.8187C13.4233 16.6087 13.8958 16.3287 14.3246 15.9962L16.4158 16.8362C16.6083 16.9062 16.8271 16.8362 16.9321 16.6437L18.6121 13.7387C18.7171 13.5462 18.6733 13.3275 18.5071 13.205L16.7483 11.8225ZM10.5008 14.15C8.76833 14.15 7.35083 12.7325 7.35083 11C7.35083 9.26748 8.76833 7.84998 10.5008 7.84998C12.2333 7.84998 13.6508 9.26748 13.6508 11C13.6508 12.7325 12.2333 14.15 10.5008 14.15Z" fill="white" fill-opacity="0.35"/>
</g>
<defs>
<clipPath id="clip0_68_132">
<rect width="21" height="21" fill="white" transform="translate(0 0.5)"/>
</clipPath>
</defs>
</svg>
