<svg width="46" height="45" viewBox="0 0 46 45" fill="none" xmlns="http://www.w3.org/2000/svg">
<ellipse cx="22.9993" cy="24.1465" rx="15.3333" ry="15.3659" fill="white"/>
<path d="M3.29922 22.5001C3.29922 11.316 12.5666 2.25012 23.9992 2.25012C35.4318 2.25012 44.6992 11.316 44.6992 22.5001C44.6992 33.6842 35.4318 42.7501 23.9992 42.7501C12.5666 42.7501 3.29922 33.6842 3.29922 22.5001ZM30.2092 22.5001L30.2092 14.4001L26.0692 14.4001L26.0692 32.6251L36.4192 22.5001L30.2092 22.5001ZM21.9292 12.3751L11.5792 22.5001L17.7892 22.5001L17.7892 30.6001L21.9292 30.6001L21.9292 12.3751Z" fill="url(#paint0_linear_68_119)"/>
<defs>
<linearGradient id="paint0_linear_68_119" x1="42.3469" y1="2.25012" x2="38.3076" y2="45.1179" gradientUnits="userSpaceOnUse">
<stop stop-color="#27E65C"/>
<stop offset="0.510417" stop-color="#587BFF"/>
<stop offset="1" stop-color="#B518FF"/>
</linearGradient>
</defs>
</svg>
