<svg width="20" height="20" viewBox="0 0 20 20" fill="none" xmlns="http://www.w3.org/2000/svg">
    <path d="M10.8091 9.18182C9.19091 8.64546 8.40909 8.30909 8.40909 7.45455C8.40909 6.52727 9.41818 6.19091 10.0545 6.19091C11.2455 6.19091 11.6818 7.09091 11.7818 7.40909L13.2182 6.8C13.0818 6.39091 12.4727 5.05455 10.9091 4.76364V3.63636H9.09091V4.78182C6.83636 5.29091 6.82727 7.38182 6.82727 7.47273C6.82727 9.53636 8.87273 10.1182 9.87273 10.4818C11.3091 10.9909 11.9455 11.4545 11.9455 12.3273C11.9455 13.3545 10.9909 13.7909 10.1455 13.7909C8.49091 13.7909 8.01818 12.0909 7.96364 11.8909L6.45455 12.5C7.02727 14.4909 8.52727 15.0273 9.09091 15.1909V16.3636H10.9091V15.2364C11.2727 15.1545 13.5455 14.7 13.5455 12.3091C13.5455 11.0455 12.9909 9.93636 10.8091 9.18182ZM1.81818 18.1818H0V12.7273H5.45455V14.5455H3.2C4.66364 16.7364 7.16364 18.1818 10 18.1818C14.5182 18.1818 18.1818 14.5182 18.1818 10H20C20 15.5273 15.5273 20 10 20C6.61818 20 3.62727 18.3182 1.81818 15.7545V18.1818ZM0 10C0 4.47273 4.47273 0 10 0C13.3818 0 16.3727 1.68182 18.1818 4.24545V1.81818H20V7.27273H14.5455V5.45455H16.8C15.3364 3.26364 12.8364 1.81818 10 1.81818C5.48182 1.81818 1.81818 5.48182 1.81818 10H0Z"
          fill="#8E91A5"/>
</svg>
