<svg id="Layer_1" data-name="Layer 1" xmlns="http://www.w3.org/2000/svg" viewBox="0 0 681.39 227.05"><title>coinfox</title><polygon points="120.6 119.57 76.95 75.8 107.89 44.74 152.59 86.21 120.6 119.57" style="fill:#ffd046"/><polygon points="75.97 162.83 32.47 120.16 76.95 75.8 120.6 119.57 75.97 162.83" style="fill:#f9a130"/><polygon points="44.41 194.4 1.31 151.32 32.47 120.16 75.97 162.83 44.41 194.4" style="fill:#f26926"/><polygon points="32.47 120.16 0 88.08 44.61 43.38 76.95 75.8 32.47 120.16" style="fill:#ffd046"/><polygon points="108.23 195.01 75.97 162.83 120.6 119.57 151.95 151 108.23 195.01" style="fill:#f26a26"/><polygon points="0 88.08 32.47 120.16 1.31 151.32 0 88.08" style="fill:#f9a130"/><polygon points="44.61 43.38 76.95 75.8 107.89 44.74 44.61 43.38" style="fill:#fdec81"/><polygon points="152.59 86.21 120.6 119.57 151.95 151 152.59 86.21" style="fill:#f9a130"/><polygon points="44.41 194.4 75.97 162.83 108.23 195.01 44.41 194.4" style="fill:#f9a130"/><polygon points="76.25 227.06 108.23 195.01 44.41 194.4 76.25 227.06"/><polygon points="0 88.08 0 0 44.61 43.38 0 88.08"/><polygon points="152.59 86.21 152.59 0 107.89 44.74 152.59 86.21"/><path d="M263.75,154.3c-4.37,2-12.73,4-23.36,4-20.95,0-41-12.13-41-40,0-23.31,16.58-40.92,43.92-40.92,11,0,17.42,2.21,20.08,3.43l-2,4.69a45.06,45.06,0,0,0-18-3.41c-23.36,0-37.63,13.77-37.63,36.33,0,21.33,13.43,35.07,36.6,35.07,7.42,0,14.62-1.37,19.56-3.64Z" style="fill:#fff"/><path d="M349.07,117c0,27.65-18.69,41.3-38.77,41.3-21.3,0-37.79-15.19-37.79-39.73,0-25.73,17.19-41.3,38.85-41.3C333.2,77.29,349.07,92.72,349.07,117Zm-70.19,1.4c0,17.66,11.34,35.27,31.8,35.27s32-16.91,32-36.32c0-16.53-10-35.45-31.77-35.45S278.88,100.08,278.88,118.42Z" style="fill:#fff"/><path d="M372.43,78.57V157h-6.11V78.57Z" style="fill:#fff"/><path d="M395.37,157V78.57h5.81L435,124.94c7,9.81,12.05,17.08,16.25,24.71l.26-.18c-.9-10.53-1-19.5-1-31.84V78.57h5.94V157h-5.72l-33.06-45.67c-6.46-9-12.37-17.26-16.77-25.38l-.35.18c.7,9.66.8,18.1.8,31.17V157Z" style="fill:#fff"/><path d="M479.28,78.57h42.79v4.69H485.38V114.4h33.67v4.69H485.38V157h-6.1Z" style="fill:#fff"/><path d="M611.48,117c0,27.65-18.7,41.3-38.78,41.3-21.3,0-37.78-15.19-37.78-39.73,0-25.73,17.19-41.3,38.84-41.3C595.61,77.29,611.48,92.72,611.48,117Zm-70.2,1.4c0,17.66,11.34,35.27,31.81,35.27s32-16.91,32-36.32c0-16.53-10-35.45-31.77-35.45S541.28,100.08,541.28,118.42Z" style="fill:#fff"/><path d="M674.32,157l-13.14-19.27c-5.36-7.33-8.48-11.81-11.37-16.33h-.29c-2.8,4.57-5.56,8.82-10.92,16.45L626.16,157h-7.1l27.44-39.76L620.15,78.57h7l13.94,21c3.6,5.21,6.33,9.22,9,13.41h.26c2.69-4.45,5.36-8.15,9.12-13.41l14.52-21h7.16L653.5,116.79,681.39,157Z" style="fill:#fff"/></svg>