<?xml version="1.0" encoding="utf-8"?>
<!-- Generator: Adobe Illustrator 23.0.4, SVG Export Plug-In . SVG Version: 6.00 Build 0)  -->
<svg version="1.1" id="Layer_1" xmlns="http://www.w3.org/2000/svg" xmlns:xlink="http://www.w3.org/1999/xlink" x="0px" y="0px"
	 viewBox="0 0 175 22.9" style="enable-background:new 0 0 175 22.9;" xml:space="preserve">
<style type="text/css">
	.st0{clip-path:url(#SVGID_2_);}
	.st1{fill:#FFFFFF;filter:url(#Adobe_OpacityMaskFilter);}
	.st2{mask:url(#mask0_1_);}
	.st3{fill-rule:evenodd;clip-rule:evenodd;fill:#FFFFFF;}
	.st4{fill-rule:evenodd;clip-rule:evenodd;fill:#D70413;}
	.st5{fill-rule:evenodd;clip-rule:evenodd;fill:#E42522;}
</style>
<g>
	<defs>
		<rect id="SVGID_1_" y="0" width="175" height="22.9"/>
	</defs>
	<clipPath id="SVGID_2_">
		<use xlink:href="#SVGID_1_"  style="overflow:visible;"/>
	</clipPath>
	<g class="st0">
		<defs>
			<filter id="Adobe_OpacityMaskFilter" filterUnits="userSpaceOnUse" x="0" y="0" width="174.6" height="22.7">
				<feColorMatrix  type="matrix" values="1 0 0 0 0  0 1 0 0 0  0 0 1 0 0  0 0 0 1 0"/>
			</filter>
		</defs>
		<mask maskUnits="userSpaceOnUse" x="0" y="0" width="174.6" height="22.7" id="mask0_1_">
			<path class="st1" d="M0,0h174.6v22.7H0V0z"/>
		</mask>
		<g class="st2">
			<path class="st3" d="M13,22.2h6V6.1h-6V22.2z M13,4.3h6V0h-6V4.3z M2.5,22.2h6V10.5h3V6.1H8.4c-0.1-1.5,0.3-1.7,1.8-1.7h1.5V0
				C10.8,0,9.9,0,9,0C6.5,0,5,0.2,3.7,1.5C2.6,2.7,2.4,4.5,2.5,6.1H0v4.5h2.5V22.2z M20.6,22.2h6v-8.5c0-2.6,1.4-3.1,2.4-3.1
				c1.8,0,2,1.3,2,3.2v8.4h6v-11c0-3.7-2.6-5.5-5.4-5.5c-2.4,0-4,0.8-5.1,2.5h-0.1v-2h-5.8V22.2z M48.3,16.4
				c-0.1,1.7-1.2,2.5-2.5,2.5c-1.1,0-1.9-0.7-1.9-1.5c0-1.1,0.7-1.4,2-1.7c0.8-0.2,1.6-0.4,2.4-0.8V16.4z M54.1,12
				c0-3.1,0.1-6.3-7.5-6.3c-3.7,0-7.9,0.7-8.1,5.3h5.6c0-0.7,0.4-1.6,2.2-1.6c1,0,2,0.4,2,1.5c0,1-0.8,1.3-1.6,1.4
				c-3.1,0.6-8.9,0.4-8.9,5.5c0,3.4,2.5,4.9,5.6,4.9c1.9,0,3.8-0.4,5.1-1.9h0.1c0,0.4,0.1,1.1,0.2,1.5h5.4V12z M55.6,22.2h6v-8.5
				c0-2.6,1.4-3.1,2.4-3.1c1.8,0,2,1.3,2,3.2v8.4h6v-11c0-3.7-2.6-5.5-5.4-5.5c-2.4,0-4,0.8-5.1,2.5h-0.1v-2h-5.8V22.2z M73.2,22.2
				h15.7v-4.5h-7.8l7.2-6.9V6.1H73.9v4.5h6.7l-7.4,6.9L73.2,22.2L73.2,22.2z M94.8,12.3c0.3-1.7,1.3-2.7,3.1-2.7
				c1.5,0,2.6,1.2,2.6,2.7H94.8L94.8,12.3z M106.3,15.5c0-6.3-2.7-9.8-9-9.8c-5,0-8.3,3.8-8.3,8.5c0,5.4,3.8,8.4,8.8,8.4
				c3.6,0,6.9-1.6,8.1-5.1h-5.6c-0.5,0.8-1.6,1.1-2.5,1.1c-1.9,0-2.9-1.3-3.1-3.1H106.3z M107.3,22.2h6v-8.5c0-2.6,1.4-3.1,2.4-3.1
				c1.8,0,2,1.3,2,3.2v8.4h5.8v-11c0-3.7-2.3-5.5-5.2-5.5c-2.4,0-4,0.8-5.1,2.5h-0.1v-2h-5.8V22.2z M137.3,5.9h2v2.8h0.1
				c0.7-2,2.9-3.3,5.1-3.3c4.5,0,5.9,2.4,5.9,6.3v10.5h-2V12c0-2.8-0.9-4.9-4.1-4.9c-3.1,0-5,2.4-5,5.6v9.5h-2V5.9z M164.6,12.9
				c-0.1-3-1.9-5.8-5.1-5.8c-3.2,0-5,2.8-5.3,5.8H164.6z M154.2,14.6c0,2.9,1.5,6.4,5.3,6.4c2.8,0,4.4-1.7,5-4.2h2
				c-0.8,3.7-2.9,5.9-7,5.9c-5.1,0-7.2-4-7.2-8.6c0-4.3,2.1-8.6,7.2-8.6c5.1,0,7.2,4.6,7,9.2H154.2z M171.4,5.9h3.3v1.7h-3.3v11
				c0,1.3,0.2,2.1,1.6,2.2c0.6,0,1.1,0,1.7-0.1v1.7c-0.6,0-1.1,0.1-1.7,0.1c-2.6,0-3.5-0.9-3.5-3.7V7.6h-2.8V5.9h2.8V1h2L171.4,5.9
				L171.4,5.9z"/>
			<path class="st4" d="M130.3,22.3c2.9,0,5.2-2.4,5.2-5.3c0-2.9-2.3-5.3-5.2-5.3s-5.2,2.4-5.2,5.3C125.1,20,127.4,22.3,130.3,22.3z
				"/>
			<path class="st5" d="M130.3,16.2c2.2,0,4.1,1.2,5.2,1c0-0.1,0-0.1,0-0.2c0-2.9-2.3-5.3-5.2-5.3s-5.2,2.4-5.2,5.3
				c0,0.1,0,0.1,0,0.2C126.2,17.5,128.1,16.2,130.3,16.2z"/>
		</g>
	</g>
</g>
</svg>
