<svg width="114" height="128" viewBox="0 0 114 128" fill="none" xmlns="http://www.w3.org/2000/svg">
<g filter="url(#filter0_b_2105_1745)">
<path d="M103.243 5.5L103.243 30.4242L103.243 83.8906L113.389 83.8906L56.4975 127.001L-0.000163605 83.8906L10.7419 83.8906L10.7419 30.4242L10.742 5.5L103.243 5.5Z" fill="url(#paint0_linear_2105_1745)"/>
</g>
<g filter="url(#filter1_d_2105_1745)">
<path fill-rule="evenodd" clip-rule="evenodd" d="M75.7362 87.6268C80.841 84.9081 84.2173 78.9436 84.6549 70.3779C85.5302 53.2463 74.3197 32.1969 59.6155 23.3627C52.2635 18.9456 45.43 18.4187 40.3252 21.1374L35.006 23.9703C29.9012 26.689 26.525 32.6535 26.0873 41.2192C25.212 58.3508 36.4225 79.4002 51.1267 88.2344C58.4788 92.6515 65.3122 93.1785 70.417 90.4597L75.7362 87.6268Z" fill="url(#paint1_linear_2105_1745)"/>
<ellipse rx="20.0362" ry="20.0362" transform="matrix(-0.848391 -0.52937 0.0341888 -0.999415 52.4402 57.3592)" fill="white"/>
<path d="M28.3945 42.82C28.9208 27.437 39.9334 21.5719 52.9918 29.72C66.0503 37.8681 76.2097 56.9438 75.6835 72.3269C75.1572 87.7099 64.1447 93.575 51.0862 85.4269C38.0277 77.2789 27.8683 58.2031 28.3945 42.82Z" stroke="white" stroke-width="1.50662"/>
<ellipse rx="30.7483" ry="30.7483" transform="matrix(0.86601 0.500028 3.18428e-05 1 51.8261 57.7752)" fill="url(#paint2_linear_2105_1745)"/>
<path d="M66.3447 84.1538L58.3872 79.5592L51.3997 62.4142L44.51 71.5467L36.8436 67.1201L47.8574 54.8221L37.6188 30.5893L45.4793 35.1279L51.933 51.2925L58.483 42.6362L65.7613 46.8386L55.4753 58.9405L66.3447 84.1538Z" fill="url(#paint3_linear_2105_1745)"/>
</g>
<defs>
<filter id="filter0_b_2105_1745" x="-6.44733" y="-0.947083" width="126.283" height="134.395" filterUnits="userSpaceOnUse" color-interpolation-filters="sRGB">
<feFlood flood-opacity="0" result="BackgroundImageFix"/>
<feGaussianBlur in="BackgroundImage" stdDeviation="3.22354"/>
<feComposite in2="SourceAlpha" operator="in" result="effect1_backgroundBlur_2105_1745"/>
<feBlend mode="normal" in="SourceGraphic" in2="effect1_backgroundBlur_2105_1745" result="shape"/>
</filter>
<filter id="filter1_d_2105_1745" x="17.1654" y="18.0137" width="75.5699" height="88.7518" filterUnits="userSpaceOnUse" color-interpolation-filters="sRGB">
<feFlood flood-opacity="0" result="BackgroundImageFix"/>
<feColorMatrix in="SourceAlpha" type="matrix" values="0 0 0 0 0 0 0 0 0 0 0 0 0 0 0 0 0 0 127 0" result="hardAlpha"/>
<feOffset dy="6.57194"/>
<feGaussianBlur stdDeviation="4.01619"/>
<feComposite in2="hardAlpha" operator="out"/>
<feColorMatrix type="matrix" values="0 0 0 0 0 0 0 0 0 0 0 0 0 0 0 0 0 0 0.25 0"/>
<feBlend mode="normal" in2="BackgroundImageFix" result="effect1_dropShadow_2105_1745"/>
<feBlend mode="normal" in="SourceGraphic" in2="effect1_dropShadow_2105_1745" result="shape"/>
</filter>
<linearGradient id="paint0_linear_2105_1745" x1="61.5724" y1="-1" x2="107.844" y2="116.27" gradientUnits="userSpaceOnUse">
<stop offset="0.177083" stop-color="white" stop-opacity="0"/>
<stop offset="0.510417" stop-color="white" stop-opacity="0.35"/>
<stop offset="1" stop-color="white"/>
</linearGradient>
<linearGradient id="paint1_linear_2105_1745" x1="81.8389" y1="85.9296" x2="36.9026" y2="19.5163" gradientUnits="userSpaceOnUse">
<stop stop-color="#3D044B"/>
<stop offset="0.157197" stop-color="#853EBD"/>
<stop offset="0.287405" stop-color="#5B1EA5"/>
<stop offset="0.575602" stop-color="#7839FF"/>
<stop offset="0.70928" stop-color="#DBC4FF"/>
<stop offset="1" stop-color="#0DFF99"/>
</linearGradient>
<linearGradient id="paint2_linear_2105_1745" x1="30.7483" y1="9.16371e-07" x2="61.4966" y2="61.4966" gradientUnits="userSpaceOnUse">
<stop stop-color="#090A0E"/>
<stop offset="1" stop-color="#31155D"/>
</linearGradient>
<linearGradient id="paint3_linear_2105_1745" x1="42.8037" y1="33.1909" x2="62.313" y2="71.4877" gradientUnits="userSpaceOnUse">
<stop stop-color="#27E65C"/>
<stop offset="0.510417" stop-color="#5074FF"/>
<stop offset="1" stop-color="#B518FF"/>
</linearGradient>
</defs>
</svg>
