<svg width="784" height="378" viewBox="0 0 784 378" fill="none" xmlns="http://www.w3.org/2000/svg">
<mask id="path-1-inside-1_293_101" fill="white">
<path fill-rule="evenodd" clip-rule="evenodd" d="M0.947266 0C8.14483 209.982 180.638 378 392.374 378C604.11 378 776.603 209.982 783.801 0H0.947266Z"/>
</mask>
<path d="M0.947266 0V-0.467822H0.463133L0.479718 0.0160261L0.947266 0ZM783.801 0L784.268 0.0160261L784.285 -0.467822H783.801V0ZM392.374 377.532C391.745 377.532 391.115 377.531 390.487 377.528L390.482 378.463C391.112 378.466 391.743 378.468 392.374 378.468V377.532ZM386.718 377.492C385.463 377.474 384.21 377.451 382.958 377.421L382.936 378.357C384.191 378.386 385.447 378.41 386.705 378.428L386.718 377.492ZM379.207 377.315C377.958 377.274 376.711 377.226 375.465 377.173L375.425 378.108C376.674 378.161 377.924 378.209 379.176 378.25L379.207 377.315ZM371.722 376.996C370.466 376.931 369.211 376.86 367.958 376.783L367.901 377.717C369.157 377.794 370.414 377.865 371.673 377.931L371.722 376.996ZM364.205 376.534C362.955 376.445 361.707 376.35 360.461 376.249L360.386 377.182C361.635 377.283 362.886 377.378 364.139 377.467L364.205 376.534ZM356.727 375.93C355.484 375.818 354.242 375.699 353.002 375.576L352.909 376.507C354.152 376.631 355.397 376.749 356.643 376.862L356.727 375.93ZM349.253 375.183C348.005 375.046 346.759 374.903 345.515 374.755L345.404 375.684C346.652 375.833 347.9 375.976 349.151 376.113L349.253 375.183ZM341.788 374.292C340.548 374.132 339.309 373.966 338.072 373.794L337.943 374.721C339.183 374.893 340.425 375.059 341.668 375.22L341.788 374.292ZM334.367 373.261C333.125 373.076 331.884 372.886 330.645 372.69L330.499 373.614C331.74 373.811 332.984 374.002 334.229 374.187L334.367 373.261ZM326.932 372.083C325.696 371.875 324.463 371.661 323.231 371.441L323.067 372.362C324.301 372.582 325.538 372.797 326.777 373.005L326.932 372.083ZM319.542 370.765C318.314 370.534 317.088 370.297 315.865 370.054L315.683 370.972C316.909 371.215 318.138 371.452 319.369 371.684L319.542 370.765ZM312.178 369.304C310.95 369.049 309.723 368.787 308.499 368.519L308.299 369.433C309.526 369.702 310.756 369.964 311.987 370.22L312.178 369.304ZM304.833 367.7C303.613 367.421 302.395 367.136 301.179 366.846L300.962 367.756C302.181 368.047 303.401 368.332 304.624 368.612L304.833 367.7ZM297.539 365.958C296.322 365.655 295.108 365.347 293.895 365.032L293.66 365.938C294.876 366.253 296.093 366.563 297.313 366.866L297.539 365.958ZM290.259 364.07C289.049 363.744 287.842 363.412 286.636 363.075L286.384 363.976C287.592 364.314 288.803 364.647 290.015 364.974L290.259 364.07ZM283.028 362.045C281.828 361.696 280.63 361.342 279.434 360.982L279.164 361.878C280.363 362.239 281.564 362.594 282.767 362.944L283.028 362.045ZM275.84 359.881C274.643 359.508 273.448 359.129 272.255 358.745L271.968 359.635C273.163 360.021 274.361 360.4 275.562 360.774L275.84 359.881ZM268.685 357.575C267.497 357.18 266.313 356.779 265.13 356.372L264.826 357.257C266.011 357.664 267.199 358.066 268.389 358.463L268.685 357.575ZM261.591 355.136C260.409 354.717 259.231 354.293 258.055 353.863L257.733 354.742C258.912 355.173 260.094 355.598 261.278 356.018L261.591 355.136ZM254.529 352.555C253.357 352.113 252.187 351.666 251.02 351.214L250.682 352.086C251.852 352.54 253.025 352.988 254.2 353.43L254.529 352.555ZM247.527 349.84C246.366 349.377 245.207 348.908 244.051 348.434L243.696 349.3C244.855 349.775 246.017 350.245 247.181 350.709L247.527 349.84ZM240.581 346.992C239.426 346.505 238.273 346.013 237.124 345.515L236.752 346.374C237.904 346.873 239.06 347.366 240.218 347.854L240.581 346.992ZM233.684 344.006C232.54 343.498 231.399 342.985 230.261 342.466L229.873 343.317C231.013 343.837 232.157 344.352 233.304 344.861L233.684 344.006ZM226.856 340.893C225.72 340.362 224.588 339.826 223.459 339.285L223.055 340.129C224.186 340.671 225.321 341.209 226.459 341.741L226.856 340.893ZM220.078 337.644C218.954 337.091 217.833 336.534 216.715 335.971L216.294 336.807C217.415 337.371 218.538 337.93 219.665 338.483L220.078 337.644ZM213.37 334.267C212.258 333.694 211.149 333.115 210.044 332.532L209.607 333.359C210.715 333.944 211.827 334.524 212.941 335.099L213.37 334.267ZM206.729 330.762C205.626 330.166 204.527 329.566 203.431 328.96L202.978 329.779C204.077 330.386 205.179 330.988 206.284 331.585L206.729 330.762ZM200.152 327.127C199.063 326.511 197.976 325.89 196.893 325.264L196.425 326.074C197.511 326.702 198.599 327.325 199.692 327.942L200.152 327.127ZM193.654 323.371C192.575 322.734 191.499 322.091 190.427 321.444L189.944 322.245C191.018 322.894 192.096 323.538 193.178 324.177L193.654 323.371ZM187.22 319.486C186.155 318.828 185.092 318.166 184.034 317.498L183.535 318.29C184.596 318.959 185.661 319.623 186.729 320.282L187.22 319.486ZM180.867 315.481C179.816 314.803 178.767 314.121 177.722 313.434L177.208 314.216C178.256 314.905 179.307 315.588 180.361 316.267L180.867 315.481ZM174.592 311.354C173.552 310.656 172.516 309.953 171.483 309.245L170.954 310.017C171.989 310.726 173.028 311.431 174.07 312.131L174.592 311.354ZM168.395 307.107C167.37 306.389 166.348 305.667 165.329 304.94L164.786 305.702C165.806 306.43 166.831 307.154 167.859 307.874L168.395 307.107ZM162.285 302.745C161.272 302.007 160.263 301.265 159.258 300.518L158.7 301.269C159.708 302.017 160.719 302.761 161.734 303.501L162.285 302.745ZM156.254 298.262C155.256 297.506 154.262 296.745 153.272 295.979L152.7 296.719C153.692 297.487 154.689 298.25 155.689 299.008L156.254 298.262ZM150.313 293.668C149.33 292.893 148.351 292.113 147.376 291.329L146.79 292.058C147.767 292.844 148.748 293.626 149.733 294.403L150.313 293.668ZM144.46 288.96C143.492 288.166 142.528 287.368 141.567 286.565L140.967 287.282C141.93 288.087 142.896 288.888 143.867 289.684L144.46 288.96ZM138.698 284.142C137.745 283.329 136.797 282.513 135.852 281.692L135.238 282.398C136.185 283.221 137.136 284.039 138.091 284.854L138.698 284.142ZM133.03 279.215C132.093 278.384 131.16 277.549 130.231 276.71L129.603 277.404C130.535 278.246 131.47 279.082 132.409 279.915L133.03 279.215ZM127.455 274.179C126.535 273.331 125.618 272.479 124.705 271.622L124.065 272.304C124.98 273.163 125.899 274.017 126.822 274.867L127.455 274.179ZM121.979 269.039C121.075 268.173 120.174 267.304 119.278 266.43L118.625 267.099C119.523 267.975 120.426 268.847 121.332 269.715L121.979 269.039ZM116.602 263.795C115.714 262.912 114.83 262.025 113.951 261.134L113.285 261.792C114.166 262.685 115.052 263.574 115.942 264.458L116.602 263.795ZM111.325 258.449C110.454 257.55 109.588 256.646 108.725 255.738L108.047 256.383C108.911 257.293 109.78 258.198 110.653 259.1L111.325 258.449ZM106.152 253.003C105.298 252.088 104.449 251.168 103.604 250.244L102.914 250.876C103.76 251.802 104.612 252.724 105.467 253.641L106.152 253.003ZM101.083 247.461C100.247 246.529 99.4157 245.593 98.5886 244.653L97.8862 245.271C98.7153 246.213 99.5488 247.151 100.387 248.085L101.083 247.461ZM96.1207 241.821C95.3028 240.873 94.4894 239.922 93.6805 238.967L92.9664 239.571C93.7772 240.529 94.5926 241.483 95.4124 242.432L96.1207 241.821ZM91.268 236.089C90.4684 235.126 89.6733 234.159 88.8828 233.189L88.1572 233.779C88.9497 234.753 89.7467 235.722 90.5482 236.687L91.268 236.089ZM86.5248 230.265C85.7435 229.286 84.9667 228.304 84.1945 227.318L83.4579 227.895C84.2319 228.883 85.0105 229.868 85.7937 230.849L86.5248 230.265ZM81.8937 224.351C81.1317 223.358 80.3743 222.362 79.6216 221.362L78.8741 221.924C79.6286 222.927 80.3878 223.925 81.1516 224.92L81.8937 224.351ZM77.3777 218.35C76.6344 217.343 75.8958 216.332 75.162 215.317L74.4038 215.865C75.1394 216.882 75.8797 217.896 76.6248 218.906L77.3777 218.35ZM72.9748 212.262C72.2514 211.241 71.5328 210.216 70.819 209.188L70.0504 209.722C70.766 210.752 71.4863 211.779 72.2114 212.803L72.9748 212.262ZM68.6926 206.094C67.9887 205.059 67.2896 204.021 66.5953 202.979L65.8167 203.498C66.5126 204.542 67.2134 205.583 67.919 206.621L68.6926 206.094ZM64.5272 199.843C63.8427 198.794 63.1631 197.741 62.4884 196.686L61.6999 197.189C62.3762 198.248 63.0575 199.303 63.7436 200.354L64.5272 199.843ZM60.4828 193.513C59.8193 192.453 59.1608 191.389 58.5073 190.321L57.7093 190.81C58.3644 191.88 59.0245 192.946 59.6895 194.009L60.4828 193.513ZM56.5616 187.109C55.9181 186.035 55.2796 184.958 54.6461 183.877L53.8389 184.35C54.4739 185.433 55.114 186.513 55.759 187.59L56.5616 187.109ZM52.7607 180.625C52.1388 179.54 51.522 178.452 50.9103 177.361L50.0941 177.818C50.7073 178.912 51.3257 180.003 51.949 181.09L52.7607 180.625ZM49.0905 174.078C48.489 172.98 47.8926 171.88 47.3014 170.776L46.4766 171.218C47.0693 172.324 47.6671 173.427 48.27 174.528L49.0905 174.078ZM45.5431 167.455C44.9622 166.345 44.3865 165.231 43.816 164.115L42.9829 164.541C43.5547 165.66 44.1318 166.776 44.7141 167.889L45.5431 167.455ZM42.1253 160.767C41.5669 159.648 41.0137 158.526 40.4657 157.401L39.6245 157.81C40.1738 158.938 40.7283 160.063 41.288 161.185L42.1253 160.767ZM38.8376 154.016C38.3001 152.885 37.7679 151.751 37.2411 150.614L36.3921 151.007C36.9203 152.147 37.4537 153.284 37.9925 154.418L38.8376 154.016ZM35.6768 147.194C35.1625 146.056 34.6534 144.914 34.1497 143.769L33.2933 144.146C33.7982 145.294 34.3085 146.438 34.8241 147.58L35.6768 147.194ZM32.6545 140.327C32.1615 139.177 31.6738 138.024 31.1915 136.868L30.328 137.228C30.8115 138.387 31.3003 139.543 31.7946 140.696L32.6545 140.327ZM29.7608 133.392C29.2895 132.231 28.8237 131.067 28.3633 129.901L27.493 130.244C27.9545 131.414 28.4215 132.58 28.8939 133.744L29.7608 133.392ZM27.0037 126.407C26.5559 125.24 26.1135 124.07 25.6767 122.897L24.7999 123.224C25.2378 124.399 25.6812 125.572 26.1301 126.742L27.0037 126.407ZM24.3824 119.371C23.9565 118.193 23.5361 117.012 23.1212 115.829L22.2382 116.139C22.6541 117.325 23.0756 118.508 23.5025 119.689L24.3824 119.371ZM21.8938 112.274C21.492 111.092 21.0958 109.907 20.705 108.719L19.8163 109.012C20.208 110.202 20.6052 111.39 21.0079 112.575L21.8938 112.274ZM19.5494 105.15C19.1698 103.958 18.7957 102.763 18.4272 101.565L17.533 101.841C17.9023 103.041 18.2773 104.239 18.6579 105.434L19.5494 105.15ZM17.3385 97.9662C16.9815 96.7648 16.63 95.561 16.2843 94.3548L15.3848 94.6126C15.7315 95.8217 16.0837 97.0284 16.4417 98.2327L17.3385 97.9662ZM15.2691 90.7481C14.9363 89.5435 14.6092 88.3366 14.2877 87.1274L13.3834 87.3678C13.7057 88.5799 14.0337 89.7897 14.3672 90.9972L15.2691 90.7481ZM13.3401 83.4929C13.0299 82.2791 12.7254 81.063 12.4266 79.8447L11.5179 80.0676C11.8174 81.2888 12.1227 82.5078 12.4336 83.7245L13.3401 83.4929ZM11.5477 76.1847C11.2623 74.9702 10.9825 73.7535 10.7084 72.5346L9.79558 72.7399C10.0703 73.9617 10.3508 75.1813 10.6369 76.3988L11.5477 76.1847ZM9.90326 68.8716C9.64059 67.6485 9.38363 66.4232 9.13242 65.1958L8.21578 65.3835C8.46759 66.6138 8.72517 67.842 8.98848 69.0681L9.90326 68.8716ZM8.39606 61.5075C8.15637 60.276 7.92247 59.0424 7.69437 57.8068L6.77427 57.9766C7.00292 59.2152 7.23739 60.4518 7.47765 61.6862L8.39606 61.5075ZM7.03241 54.1219C6.81751 52.8917 6.60836 51.6596 6.40499 50.4255L5.4818 50.5776C5.68566 51.8147 5.89531 53.0498 6.11072 54.2829L7.03241 54.1219ZM5.81224 46.7174C5.62044 45.4794 5.43445 44.2395 5.2543 42.9978L4.32835 43.1321C4.50894 44.3769 4.69537 45.6197 4.88762 46.8606L5.81224 46.7174ZM4.73136 39.2668C4.56417 38.0307 4.40275 36.7927 4.24713 35.5528L3.31877 35.6694C3.47476 36.9121 3.63657 38.1531 3.80416 39.3922L4.73136 39.2668ZM3.79819 31.8322C3.65435 30.5902 3.51633 29.3464 3.38415 28.1009L2.45373 28.1996C2.58622 29.4481 2.72457 30.6948 2.86876 31.9398L3.79819 31.8322ZM3.00518 24.3591C2.88472 23.1101 2.77014 21.8594 2.66145 20.607L1.72931 20.6878C1.83826 21.9432 1.95311 23.1969 2.07386 24.4489L3.00518 24.3591ZM2.35512 16.8706C2.25912 15.6269 2.16894 14.3817 2.08459 13.1348L1.15108 13.198C1.23563 14.4478 1.32603 15.696 1.42226 16.9426L2.35512 16.8706ZM1.84912 9.3895C1.77649 8.13947 1.70972 6.88786 1.64886 5.63471L0.714315 5.6801C0.775325 6.93622 0.842245 8.19079 0.915049 9.44378L1.84912 9.3895ZM1.48398 1.87062C1.45944 1.24212 1.43638 0.613234 1.41481 -0.0160261L0.479718 0.0160261C0.501338 0.646769 0.524448 1.27713 0.549044 1.90712L1.48398 1.87062ZM0.947266 0.467822H2.8112V-0.467822H0.947266V0.467822ZM6.53908 0.467822H10.267V-0.467822H6.53908V0.467822ZM13.9948 0.467822H17.7227V-0.467822H13.9948V0.467822ZM21.4506 0.467822H25.1784V-0.467822H21.4506V0.467822ZM28.9063 0.467822H32.6342V-0.467822H28.9063V0.467822ZM36.3621 0.467822H40.0899V-0.467822H36.3621V0.467822ZM43.8178 0.467822H47.5457V-0.467822H43.8178V0.467822ZM51.2736 0.467822H55.0014V-0.467822H51.2736V0.467822ZM58.7293 0.467822H62.4572V-0.467822H58.7293V0.467822ZM66.1851 0.467822H69.9129V-0.467822H66.1851V0.467822ZM73.6408 0.467822H77.3687V-0.467822H73.6408V0.467822ZM81.0966 0.467822H84.8244V-0.467822H81.0966V0.467822ZM88.5523 0.467822H92.2802V-0.467822H88.5523V0.467822ZM96.0081 0.467822H99.7359V-0.467822H96.0081V0.467822ZM103.464 0.467822H107.192V-0.467822H103.464V0.467822ZM110.92 0.467822H114.647V-0.467822H110.92V0.467822ZM118.375 0.467822H122.103V-0.467822H118.375V0.467822ZM125.831 0.467822H129.559V-0.467822H125.831V0.467822ZM133.287 0.467822H137.015V-0.467822H133.287V0.467822ZM140.743 0.467822H144.47V-0.467822H140.743V0.467822ZM148.198 0.467822H151.926V-0.467822H148.198V0.467822ZM155.654 0.467822H159.382V-0.467822H155.654V0.467822ZM163.11 0.467822H166.838V-0.467822H163.11V0.467822ZM170.566 0.467822H174.293V-0.467822H170.566V0.467822ZM178.021 0.467822H181.749V-0.467822H178.021V0.467822ZM185.477 0.467822H189.205V-0.467822H185.477V0.467822ZM192.933 0.467822H196.661V-0.467822H192.933V0.467822ZM200.389 0.467822H204.116V-0.467822H200.389V0.467822ZM207.844 0.467822H211.572V-0.467822H207.844V0.467822ZM215.3 0.467822H219.028V-0.467822H215.3V0.467822ZM222.756 0.467822H226.484V-0.467822H222.756V0.467822ZM230.212 0.467822H233.939V-0.467822H230.212V0.467822ZM237.667 0.467822H241.395V-0.467822H237.667V0.467822ZM245.123 0.467822H248.851V-0.467822H245.123V0.467822ZM252.579 0.467822H256.307V-0.467822H252.579V0.467822ZM260.035 0.467822H263.762V-0.467822H260.035V0.467822ZM267.49 0.467822H271.218V-0.467822H267.49V0.467822ZM274.946 0.467822H278.674V-0.467822H274.946V0.467822ZM282.402 0.467822H286.13V-0.467822H282.402V0.467822ZM289.858 0.467822H293.585V-0.467822H289.858V0.467822ZM297.313 0.467822H301.041V-0.467822H297.313V0.467822ZM304.769 0.467822H308.497V-0.467822H304.769V0.467822ZM312.225 0.467822H315.953V-0.467822H312.225V0.467822ZM319.681 0.467822H323.408V-0.467822H319.681V0.467822ZM327.136 0.467822H330.864V-0.467822H327.136V0.467822ZM334.592 0.467822H338.32V-0.467822H334.592V0.467822ZM342.048 0.467822H345.776V-0.467822H342.048V0.467822ZM349.504 0.467822H353.231V-0.467822H349.504V0.467822ZM356.959 0.467822H360.687V-0.467822H356.959V0.467822ZM364.415 0.467822H368.143V-0.467822H364.415V0.467822ZM371.871 0.467822H375.599V-0.467822H371.871V0.467822ZM379.327 0.467822H383.054V-0.467822H379.327V0.467822ZM386.782 0.467822H390.51V-0.467822H386.782V0.467822ZM394.238 0.467822H397.966V-0.467822H394.238V0.467822ZM401.694 0.467822H405.422V-0.467822H401.694V0.467822ZM409.15 0.467822H412.877V-0.467822H409.15V0.467822ZM416.605 0.467822H420.333V-0.467822H416.605V0.467822ZM424.061 0.467822H427.789V-0.467822H424.061V0.467822ZM431.517 0.467822H435.245V-0.467822H431.517V0.467822ZM438.973 0.467822H442.7V-0.467822H438.973V0.467822ZM446.428 0.467822H450.156V-0.467822H446.428V0.467822ZM453.884 0.467822H457.612V-0.467822H453.884V0.467822ZM461.34 0.467822H465.068V-0.467822H461.34V0.467822ZM468.796 0.467822H472.523V-0.467822H468.796V0.467822ZM476.251 0.467822H479.979V-0.467822H476.251V0.467822ZM483.707 0.467822H487.435V-0.467822H483.707V0.467822ZM491.163 0.467822H494.891V-0.467822H491.163V0.467822ZM498.619 0.467822H502.346V-0.467822H498.619V0.467822ZM506.074 0.467822H509.802V-0.467822H506.074V0.467822ZM513.53 0.467822H517.258V-0.467822H513.53V0.467822ZM520.986 0.467822H524.714V-0.467822H520.986V0.467822ZM528.441 0.467822H532.169V-0.467822H528.441V0.467822ZM535.897 0.467822H539.625V-0.467822H535.897V0.467822ZM543.353 0.467822H547.081V-0.467822H543.353V0.467822ZM550.808 0.467822H554.536V-0.467822H550.808V0.467822ZM558.264 0.467822H561.992V-0.467822H558.264V0.467822ZM565.72 0.467822H569.448V-0.467822H565.72V0.467822ZM573.176 0.467822H576.903V-0.467822H573.176V0.467822ZM580.631 0.467822H584.359V-0.467822H580.631V0.467822ZM588.087 0.467822H591.815V-0.467822H588.087V0.467822ZM595.543 0.467822H599.27V-0.467822H595.543V0.467822ZM602.998 0.467822H606.726V-0.467822H602.998V0.467822ZM610.454 0.467822H614.182V-0.467822H610.454V0.467822ZM617.91 0.467822H621.637V-0.467822H617.91V0.467822ZM625.365 0.467822H629.093V-0.467822H625.365V0.467822ZM632.821 0.467822H636.549V-0.467822H632.821V0.467822ZM640.277 0.467822H644.005V-0.467822H640.277V0.467822ZM647.732 0.467822H651.46V-0.467822H647.732V0.467822ZM655.188 0.467822H658.916V-0.467822H655.188V0.467822ZM662.644 0.467822H666.372V-0.467822H662.644V0.467822ZM670.1 0.467822H673.827V-0.467822H670.1V0.467822ZM677.555 0.467822H681.283V-0.467822H677.555V0.467822ZM685.011 0.467822H688.739V-0.467822H685.011V0.467822ZM692.467 0.467822H696.194V-0.467822H692.467V0.467822ZM699.922 0.467822H703.65V-0.467822H699.922V0.467822ZM707.378 0.467822H711.106V-0.467822H707.378V0.467822ZM714.834 0.467822H718.561V-0.467822H714.834V0.467822ZM722.289 0.467822H726.017V-0.467822H722.289V0.467822ZM729.745 0.467822H733.473V-0.467822H729.745V0.467822ZM737.201 0.467822H740.929V-0.467822H737.201V0.467822ZM744.656 0.467822H748.384V-0.467822H744.656V0.467822ZM752.112 0.467822H755.84V-0.467822H752.112V0.467822ZM759.568 0.467822H763.296V-0.467822H759.568V0.467822ZM767.023 0.467822H770.751V-0.467822H767.023V0.467822ZM774.479 0.467822H778.207V-0.467822H774.479V0.467822ZM781.935 0.467822H783.801V-0.467822H781.935V0.467822ZM783.333 -0.0160261C783.312 0.612848 783.289 1.24134 783.264 1.86946L784.199 1.90596C784.224 1.27636 784.247 0.646383 784.268 0.0160261L783.333 -0.0160261ZM783.099 5.63357C783.038 6.88673 782.972 8.13834 782.899 9.38837L783.833 9.44264C783.906 8.18965 783.973 6.93508 784.034 5.67895L783.099 5.63357ZM782.664 13.1337C782.579 14.3806 782.489 15.6258 782.393 16.8694L783.326 16.9415C783.422 15.6949 783.513 14.4467 783.597 13.1969L782.664 13.1337ZM782.087 20.6059C781.978 21.8583 781.863 23.109 781.743 24.358L782.674 24.4478C782.795 23.1958 782.91 21.9421 783.019 20.6868L782.087 20.6059ZM781.364 28.0998C781.232 29.3453 781.094 30.5891 780.95 31.8311L781.879 31.9388C782.024 30.6938 782.162 29.447 782.294 28.1985L781.364 28.0998ZM780.501 35.5518C780.345 36.7916 780.184 38.0296 780.017 39.2658L780.944 39.3912C781.112 38.1521 781.273 36.9111 781.429 35.6683L780.501 35.5518ZM779.494 42.9968C779.314 44.2386 779.128 45.4784 778.936 46.7164L779.861 46.8597C780.053 45.6187 780.239 44.3759 780.42 43.1311L779.494 42.9968ZM778.343 50.4245C778.14 51.6586 777.931 52.8908 777.716 54.121L778.638 54.282C778.853 53.0488 779.063 51.8137 779.266 50.5767L778.343 50.4245ZM777.054 57.8059C776.826 59.0415 776.592 60.2751 776.352 61.5066L777.271 61.6853C777.511 60.4509 777.745 59.2143 777.974 57.9757L777.054 57.8059ZM775.616 65.195C775.365 66.4223 775.108 67.6476 774.845 68.8707L775.76 69.0672C776.023 67.8411 776.281 66.6129 776.533 65.3826L775.616 65.195ZM774.04 72.5338C773.766 73.7527 773.486 74.9694 773.201 76.1839L774.111 76.398C774.398 75.1805 774.678 73.9609 774.953 72.7391L774.04 72.5338ZM772.322 79.8439C772.023 81.0622 771.718 82.2783 771.408 83.4921L772.315 83.7237C772.626 82.507 772.931 81.288 773.23 80.0668L772.322 79.8439ZM770.461 87.1266C770.139 88.3358 769.812 89.5427 769.479 90.7473L770.381 90.9964C770.715 89.789 771.043 88.5791 771.365 87.367L770.461 87.1266ZM768.464 94.354C768.118 95.5602 767.767 96.764 767.41 97.9654L768.307 98.232C768.665 97.0277 769.017 95.821 769.363 94.6119L768.464 94.354ZM766.321 101.565C765.953 102.762 765.579 103.957 765.199 105.149L766.09 105.433C766.471 104.238 766.846 103.04 767.215 101.84L766.321 101.565ZM764.043 108.719C763.653 109.906 763.256 111.091 762.855 112.273L763.74 112.574C764.143 111.389 764.54 110.202 764.932 109.011L764.043 108.719ZM761.627 115.829C761.212 117.012 760.792 118.192 760.366 119.37L761.246 119.688C761.673 118.508 762.094 117.324 762.51 116.138L761.627 115.829ZM759.072 122.896C758.635 124.069 758.192 125.239 757.745 126.406L758.618 126.741C759.067 125.571 759.511 124.398 759.948 123.223L759.072 122.896ZM756.385 129.9C755.925 131.067 755.459 132.23 754.988 133.391L755.854 133.743C756.327 132.58 756.794 131.413 757.255 130.244L756.385 129.9ZM753.557 136.867C753.075 138.023 752.587 139.176 752.094 140.327L752.954 140.695C753.448 139.542 753.937 138.386 754.42 137.228L753.557 136.867ZM750.599 143.769C750.095 144.913 749.586 146.055 749.072 147.194L749.924 147.579C750.44 146.438 750.95 145.293 751.455 144.146L750.599 143.769ZM747.507 150.613C746.98 151.75 746.448 152.884 745.911 154.016L746.756 154.417C747.295 153.283 747.828 152.146 748.356 151.006L747.507 150.613ZM744.283 157.4C743.735 158.525 743.181 159.647 742.623 160.767L743.46 161.184C744.02 160.062 744.575 158.938 745.124 157.81L744.283 157.4ZM740.932 164.115C740.362 165.231 739.786 166.344 739.205 167.454L740.034 167.888C740.616 166.775 741.194 165.659 741.765 164.54L740.932 164.115ZM737.447 170.775C736.856 171.879 736.259 172.98 735.658 174.077L736.478 174.527C737.081 173.427 737.679 172.324 738.272 171.217L737.447 170.775ZM733.838 177.36C733.226 178.452 732.609 179.54 731.988 180.624L732.799 181.09C733.423 180.002 734.041 178.912 734.654 177.818L733.838 177.36ZM730.102 183.876C729.469 184.957 728.83 186.035 728.187 187.109L728.989 187.59C729.634 186.513 730.274 185.433 730.909 184.35L730.102 183.876ZM726.241 190.321C725.588 191.388 724.929 192.452 724.266 193.513L725.059 194.009C725.724 192.946 726.384 191.879 727.039 190.81L726.241 190.321ZM722.26 196.685C721.585 197.741 720.906 198.794 720.221 199.843L721.005 200.354C721.691 199.302 722.372 198.247 723.048 197.189L722.26 196.685ZM718.153 202.979C717.459 204.021 716.76 205.059 716.056 206.094L716.829 206.62C717.535 205.583 718.236 204.542 718.932 203.498L718.153 202.979ZM713.929 209.188C713.215 210.216 712.497 211.241 711.773 212.261L712.537 212.802C713.262 211.779 713.982 210.752 714.698 209.722L713.929 209.188ZM709.586 215.317C708.852 216.332 708.114 217.343 707.371 218.35L708.123 218.906C708.869 217.896 709.609 216.882 710.344 215.865L709.586 215.317ZM705.127 221.361C704.374 222.362 703.617 223.358 702.854 224.35L703.597 224.92C704.36 223.925 705.12 222.927 705.874 221.924L705.127 221.361ZM700.554 227.318C699.782 228.304 699.005 229.286 698.223 230.265L698.954 230.848C699.738 229.868 700.516 228.883 701.29 227.895L700.554 227.318ZM695.865 233.188C695.075 234.159 694.28 235.126 693.48 236.089L694.2 236.687C695.002 235.722 695.799 234.752 696.591 233.779L695.865 233.188ZM691.068 238.966C690.259 239.922 689.445 240.873 688.628 241.821L689.336 242.432C690.156 241.482 690.971 240.529 691.782 239.571L691.068 238.966ZM686.16 244.653C685.332 245.593 684.501 246.529 683.665 247.46L684.361 248.085C685.199 247.151 686.033 246.213 686.862 245.271L686.16 244.653ZM681.144 250.244C680.299 251.168 679.45 252.088 678.597 253.003L679.281 253.641C680.137 252.723 680.988 251.801 681.834 250.875L681.144 250.244ZM676.023 255.738C675.161 256.646 674.294 257.549 673.423 258.449L674.095 259.1C674.968 258.198 675.837 257.292 676.701 256.383L676.023 255.738ZM670.798 261.134C669.918 262.025 669.034 262.912 668.147 263.795L668.806 264.458C669.696 263.573 670.582 262.685 671.463 261.791L670.798 261.134ZM665.47 266.429C664.574 267.303 663.674 268.173 662.769 269.038L663.416 269.715C664.323 268.847 665.225 267.975 666.124 267.099L665.47 266.429ZM660.043 271.622C659.131 272.478 658.214 273.331 657.293 274.179L657.927 274.867C658.85 274.017 659.769 273.163 660.684 272.304L660.043 271.622ZM654.518 276.71C653.589 277.549 652.656 278.384 651.718 279.214L652.339 279.915C653.278 279.082 654.214 278.245 655.145 277.404L654.518 276.71ZM648.896 281.691C647.952 282.513 647.003 283.329 646.05 284.141L646.658 284.853C647.612 284.039 648.563 283.221 649.51 282.398L648.896 281.691ZM643.181 286.564C642.221 287.368 641.256 288.166 640.288 288.96L640.882 289.684C641.852 288.888 642.819 288.087 643.781 287.282L643.181 286.564ZM637.372 291.329C636.397 292.113 635.418 292.893 634.435 293.668L635.015 294.403C636 293.626 636.981 292.844 637.959 292.058L637.372 291.329ZM631.476 295.979C630.486 296.745 629.492 297.506 628.494 298.262L629.06 299.008C630.06 298.25 631.056 297.487 632.049 296.719L631.476 295.979ZM625.49 300.518C624.485 301.265 623.476 302.007 622.464 302.744L623.015 303.501C624.029 302.761 625.041 302.017 626.048 301.268L625.49 300.518ZM619.419 304.94C618.401 305.667 617.379 306.389 616.353 307.107L616.889 307.874C617.917 307.154 618.942 306.43 619.963 305.702L619.419 304.94ZM613.265 309.245C612.233 309.953 611.196 310.656 610.156 311.354L610.678 312.131C611.72 311.431 612.759 310.726 613.794 310.017L613.265 309.245ZM607.026 313.434C605.981 314.121 604.933 314.803 603.881 315.481L604.387 316.267C605.442 315.588 606.493 314.904 607.54 314.216L607.026 313.434ZM600.715 317.498C599.656 318.165 598.594 318.828 597.528 319.486L598.019 320.282C599.088 319.623 600.152 318.959 601.214 318.289L600.715 317.498ZM594.321 321.444C593.249 322.091 592.174 322.734 591.095 323.371L591.571 324.177C592.652 323.538 593.73 322.894 594.805 322.245L594.321 321.444ZM587.855 325.264C586.772 325.89 585.686 326.511 584.596 327.127L585.057 327.942C586.149 327.324 587.238 326.702 588.324 326.074L587.855 325.264ZM581.318 328.96C580.222 329.565 579.122 330.166 578.02 330.762L578.465 331.585C579.57 330.988 580.672 330.386 581.77 329.779L581.318 328.96ZM574.705 332.532C573.599 333.115 572.49 333.694 571.379 334.267L571.807 335.098C572.922 334.524 574.033 333.944 575.141 333.359L574.705 332.532ZM568.034 335.971C566.916 336.533 565.795 337.091 564.671 337.643L565.083 338.483C566.21 337.929 567.334 337.371 568.455 336.806L568.034 335.971ZM561.289 339.285C560.16 339.826 559.028 340.362 557.893 340.893L558.289 341.741C559.427 341.208 560.562 340.671 561.694 340.128L561.289 339.285ZM554.488 342.466C553.35 342.984 552.209 343.498 551.065 344.006L551.445 344.861C552.592 344.352 553.735 343.837 554.876 343.317L554.488 342.466ZM547.625 345.515C546.475 346.013 545.323 346.505 544.168 346.992L544.531 347.854C545.689 347.366 546.844 346.872 547.997 346.374L547.625 345.515ZM540.698 348.434C539.542 348.908 538.383 349.377 537.221 349.84L537.568 350.709C538.732 350.245 539.894 349.775 541.053 349.3L540.698 348.434ZM533.728 351.214C532.561 351.666 531.392 352.113 530.219 352.555L530.549 353.43C531.724 352.988 532.897 352.54 534.067 352.086L533.728 351.214ZM526.694 353.863C525.518 354.293 524.339 354.717 523.158 355.136L523.471 356.018C524.655 355.598 525.836 355.172 527.015 354.741L526.694 353.863ZM519.619 356.372C518.436 356.778 517.251 357.179 516.064 357.575L516.359 358.463C517.55 358.066 518.738 357.664 519.923 357.257L519.619 356.372ZM512.494 358.745C511.301 359.129 510.106 359.508 508.909 359.881L509.187 360.774C510.388 360.4 511.585 360.02 512.781 359.635L512.494 358.745ZM505.315 360.982C504.119 361.342 502.921 361.696 501.721 362.045L501.982 362.943C503.185 362.594 504.386 362.239 505.585 361.878L505.315 360.982ZM498.112 363.075C496.907 363.412 495.7 363.744 494.49 364.07L494.734 364.974C495.946 364.647 497.157 364.314 498.365 363.975L498.112 363.075ZM490.854 365.032C489.641 365.346 488.427 365.655 487.21 365.958L487.436 366.866C488.656 366.562 489.873 366.253 491.088 365.938L490.854 365.032ZM483.57 366.846C482.354 367.136 481.136 367.421 479.916 367.7L480.125 368.612C481.348 368.332 482.568 368.047 483.787 367.756L483.57 366.846ZM476.25 368.519C475.026 368.787 473.799 369.048 472.571 369.304L472.762 370.22C473.993 369.964 475.222 369.701 476.45 369.433L476.25 368.519ZM468.884 370.054C467.661 370.296 466.435 370.533 465.207 370.765L465.38 371.684C466.611 371.452 467.84 371.215 469.066 370.972L468.884 370.054ZM461.518 371.441C460.286 371.66 459.052 371.874 457.817 372.083L457.972 373.005C459.211 372.797 460.448 372.582 461.682 372.362L461.518 371.441ZM454.104 372.689C452.865 372.886 451.624 373.076 450.382 373.261L450.52 374.187C451.765 374.001 453.009 373.81 454.25 373.614L454.104 372.689ZM446.677 373.794C445.44 373.965 444.201 374.131 442.961 374.292L443.081 375.22C444.324 375.059 445.566 374.893 446.806 374.72L446.677 373.794ZM439.234 374.755C437.99 374.903 436.744 375.046 435.496 375.183L435.598 376.113C436.849 375.976 438.097 375.833 439.345 375.684L439.234 374.755ZM431.747 375.575C430.507 375.699 429.265 375.818 428.022 375.93L428.106 376.862C429.352 376.749 430.597 376.631 431.841 376.506L431.747 375.575ZM424.288 376.249C423.042 376.35 421.794 376.445 420.544 376.534L420.611 377.467C421.863 377.378 423.114 377.283 424.363 377.182L424.288 376.249ZM416.791 376.783C415.538 376.86 414.284 376.931 413.028 376.996L413.076 377.931C414.335 377.865 415.592 377.794 416.848 377.717L416.791 376.783ZM409.285 377.173C408.039 377.226 406.791 377.273 405.542 377.315L405.573 378.25C406.825 378.209 408.075 378.161 409.324 378.108L409.285 377.173ZM401.791 377.421C400.539 377.451 399.286 377.474 398.031 377.492L398.044 378.428C399.302 378.41 400.558 378.386 401.813 378.356L401.791 377.421ZM394.263 377.528C393.633 377.531 393.004 377.532 392.374 377.532V378.468C393.005 378.468 393.636 378.466 394.267 378.463L394.263 377.528ZM0.947266 0V-0.935644H-0.0209986L0.0121711 0.0320522L0.947266 0ZM783.801 0L784.736 0.0320523L784.769 -0.935644H783.801V0ZM392.374 377.064C391.745 377.064 391.117 377.063 390.489 377.06L390.48 378.931C391.111 378.934 391.742 378.936 392.374 378.936V377.064ZM386.725 377.024C385.471 377.007 384.22 376.983 382.969 376.953L382.925 378.824C384.181 378.854 385.439 378.878 386.698 378.896L386.725 377.024ZM379.222 376.847C377.975 376.806 376.729 376.759 375.484 376.706L375.405 378.576C376.655 378.629 377.907 378.676 379.161 378.718L379.222 376.847ZM371.746 376.529C370.491 376.464 369.239 376.393 367.987 376.316L367.872 378.184C369.129 378.261 370.388 378.332 371.649 378.398L371.746 376.529ZM364.238 376.067C362.99 375.978 361.744 375.884 360.499 375.783L360.348 377.648C361.599 377.749 362.851 377.844 364.105 377.934L364.238 376.067ZM356.769 375.464C355.527 375.352 354.287 375.234 353.048 375.11L352.862 376.972C354.107 377.096 355.353 377.215 356.601 377.328L356.769 375.464ZM349.304 374.718C348.058 374.581 346.813 374.439 345.571 374.29L345.349 376.148C346.598 376.297 347.848 376.441 349.1 376.578L349.304 374.718ZM341.848 373.828C340.609 373.668 339.372 373.502 338.136 373.33L337.879 375.184C339.12 375.356 340.364 375.523 341.609 375.684L341.848 373.828ZM334.436 372.798C333.195 372.614 331.956 372.424 330.718 372.228L330.425 374.076C331.669 374.273 332.914 374.464 334.161 374.649L334.436 372.798ZM327.01 371.621C325.776 371.413 324.543 371.2 323.313 370.98L322.985 372.823C324.221 373.043 325.459 373.258 326.699 373.467L327.01 371.621ZM319.628 370.305C318.402 370.074 317.178 369.837 315.956 369.595L315.592 371.431C316.82 371.674 318.05 371.912 319.282 372.144L319.628 370.305ZM312.274 368.847C311.046 368.591 309.822 368.329 308.599 368.062L308.199 369.891C309.428 370.159 310.659 370.422 311.892 370.678L312.274 368.847ZM304.937 367.244C303.718 366.965 302.502 366.681 301.288 366.391L300.853 368.211C302.073 368.503 303.296 368.788 304.52 369.068L304.937 367.244ZM297.652 365.504C296.437 365.202 295.224 364.893 294.013 364.579L293.543 366.391C294.76 366.706 295.979 367.016 297.2 367.32L297.652 365.504ZM290.381 363.619C289.172 363.293 287.966 362.961 286.763 362.624L286.258 364.426C287.467 364.765 288.679 365.098 289.893 365.426L290.381 363.619ZM283.159 361.596C281.96 361.248 280.763 360.894 279.569 360.534L279.029 362.326C280.229 362.687 281.432 363.043 282.636 363.393L283.159 361.596ZM275.979 359.435C274.783 359.062 273.59 358.684 272.399 358.3L271.824 360.081C273.021 360.466 274.221 360.847 275.422 361.221L275.979 359.435ZM268.833 357.131C267.647 356.736 266.463 356.336 265.282 355.93L264.674 357.699C265.86 358.107 267.05 358.51 268.242 358.907L268.833 357.131ZM261.747 354.695C260.567 354.277 259.39 353.853 258.215 353.424L257.573 355.181C258.753 355.613 259.936 356.038 261.122 356.459L261.747 354.695ZM254.694 352.117C253.523 351.676 252.355 351.23 251.189 350.778L250.513 352.522C251.684 352.977 252.858 353.425 254.035 353.868L254.694 352.117ZM247.701 349.406C246.541 348.943 245.383 348.475 244.229 348.002L243.519 349.733C244.679 350.209 245.842 350.679 247.008 351.144L247.701 349.406ZM240.763 346.561C239.609 346.074 238.458 345.583 237.309 345.086L236.566 346.803C237.72 347.303 238.876 347.797 240.036 348.285L240.763 346.561ZM233.874 343.579C232.731 343.071 231.592 342.558 230.455 342.04L229.679 343.743C230.821 344.263 231.966 344.779 233.114 345.289L233.874 343.579ZM227.054 340.47C225.92 339.939 224.789 339.404 223.661 338.863L222.852 340.55C223.986 341.094 225.122 341.632 226.261 342.165L227.054 340.47ZM220.284 337.224C219.161 336.672 218.042 336.115 216.925 335.553L216.084 337.224C217.206 337.789 218.331 338.349 219.459 338.903L220.284 337.224ZM213.584 333.851C212.474 333.279 211.366 332.701 210.262 332.118L209.389 333.773C210.498 334.359 211.611 334.939 212.727 335.514L213.584 333.851ZM206.951 330.35C205.85 329.755 204.752 329.155 203.657 328.55L202.752 330.188C203.852 330.796 204.955 331.399 206.062 331.997L206.951 330.35ZM200.382 326.72C199.294 326.105 198.209 325.485 197.127 324.859L196.191 326.479C197.278 327.108 198.368 327.731 199.462 328.349L200.382 326.72ZM193.892 322.968C192.814 322.332 191.74 321.69 190.669 321.043L189.702 322.645C190.778 323.295 191.857 323.94 192.94 324.579L193.892 322.968ZM187.466 319.088C186.402 318.431 185.341 317.769 184.283 317.102L183.285 318.685C184.348 319.355 185.414 320.02 186.483 320.68L187.466 319.088ZM181.121 315.087C180.07 314.411 179.023 313.729 177.979 313.043L176.951 314.607C178 315.296 179.052 315.981 180.108 316.661L181.121 315.087ZM174.853 310.966C173.814 310.268 172.779 309.566 171.747 308.859L170.689 310.403C171.726 311.113 172.766 311.819 173.81 312.519L174.853 310.966ZM168.663 306.724C167.639 306.007 166.618 305.286 165.601 304.559L164.514 306.082C165.536 306.812 166.561 307.537 167.591 308.257L168.663 306.724ZM162.56 302.366C161.549 301.63 160.541 300.888 159.537 300.142L158.421 301.644C159.43 302.394 160.442 303.139 161.458 303.879L162.56 302.366ZM156.537 297.89C155.54 297.134 154.547 296.374 153.558 295.609L152.413 297.089C153.407 297.858 154.405 298.622 155.406 299.381L156.537 297.89ZM150.603 293.301C149.621 292.527 148.643 291.748 147.669 290.964L146.496 292.423C147.475 293.21 148.457 293.992 149.444 294.77L150.603 293.301ZM144.757 288.599C143.79 287.806 142.826 287.008 141.867 286.206L140.667 287.641C141.631 288.447 142.598 289.249 143.57 290.046L144.757 288.599ZM139.001 283.786C138.05 282.974 137.102 282.159 136.159 281.339L134.931 282.751C135.879 283.575 136.831 284.394 137.787 285.21L139.001 283.786ZM133.34 278.864C132.404 278.035 131.472 277.201 130.544 276.363L129.29 277.751C130.222 278.594 131.159 279.432 132.099 280.265L133.34 278.864ZM127.772 273.835C126.853 272.988 125.937 272.136 125.025 271.281L123.744 272.645C124.66 273.505 125.581 274.36 126.505 275.211L127.772 273.835ZM122.302 268.701C121.399 267.836 120.5 266.968 119.605 266.095L118.298 267.434C119.198 268.311 120.101 269.184 121.009 270.053L122.302 268.701ZM116.931 263.463C116.045 262.581 115.162 261.696 114.284 260.806L112.952 262.12C113.834 263.014 114.721 263.904 115.612 264.79L116.931 263.463ZM111.661 258.123C110.791 257.225 109.926 256.323 109.064 255.416L107.708 256.705C108.573 257.616 109.443 258.523 110.317 259.425L111.661 258.123ZM106.494 252.684C105.641 251.77 104.793 250.851 103.949 249.928L102.569 251.191C103.416 252.118 104.268 253.041 105.125 253.96L106.494 252.684ZM101.431 247.148C100.597 246.217 99.766 245.283 98.9398 244.344L97.535 245.58C98.3651 246.523 99.1996 247.463 100.038 248.398L101.431 247.148ZM96.4748 241.515C95.6579 240.569 94.8455 239.619 94.0375 238.664L92.6094 239.873C93.4211 240.832 94.2375 241.787 95.0582 242.738L96.4748 241.515ZM91.6279 235.79C90.8293 234.829 90.0351 233.863 89.2455 232.893L87.7945 234.075C88.5879 235.049 89.3858 236.019 90.1883 236.986L91.6279 235.79ZM86.8904 229.973C86.11 228.996 85.3341 228.014 84.5629 227.03L83.0895 228.183C83.8644 229.173 84.644 230.159 85.4282 231.141L86.8904 229.973ZM82.2648 224.066C81.5037 223.074 80.7472 222.079 79.9954 221.08L78.5003 222.206C79.2557 223.209 80.0158 224.209 80.7805 225.205L82.2648 224.066ZM77.7541 218.073C77.0117 217.066 76.274 216.056 75.5411 215.043L74.0247 216.139C74.7612 217.158 75.5024 218.173 76.2483 219.184L77.7541 218.073ZM73.3565 211.991C72.634 210.971 71.9162 209.948 71.2033 208.921L69.6662 209.989C70.3825 211.02 71.1037 212.049 71.8297 213.073L73.3565 211.991ZM69.0795 205.831C68.3763 204.798 67.6781 203.76 66.9846 202.72L65.4274 203.757C66.1241 204.803 66.8257 205.845 67.5322 206.884L69.0795 205.831ZM64.9189 199.587C64.2353 198.539 63.5565 197.488 62.8826 196.434L61.3057 197.441C61.9828 198.501 62.6649 199.557 63.3518 200.61L64.9189 199.587ZM60.8794 193.265C60.2167 192.206 59.559 191.143 58.9063 190.077L57.3103 191.054C57.9662 192.125 58.6271 193.193 59.2929 194.258L60.8794 193.265ZM56.963 186.869C56.3202 185.796 55.6824 184.72 55.0497 183.64L53.4353 184.587C54.071 185.671 54.7119 186.752 55.3577 187.83L56.963 186.869ZM53.1666 180.392C52.5454 179.309 51.9294 178.222 51.3183 177.132L49.6861 178.047C50.3 179.142 50.9191 180.234 51.5432 181.323L53.1666 180.392ZM49.5007 173.853C48.9 172.757 48.3043 171.657 47.7138 170.555L46.0642 171.438C46.6576 172.546 47.2561 173.651 47.8597 174.752L49.5007 173.853ZM45.9576 167.238C45.3774 166.129 44.8024 165.017 44.2326 163.902L42.5663 164.754C43.1389 165.874 43.7166 166.991 44.2996 168.105L45.9576 167.238ZM42.5439 160.558C41.9861 159.44 41.4336 158.32 40.8863 157.196L39.2039 158.015C39.7538 159.144 40.309 160.271 40.8694 161.394L42.5439 160.558ZM39.2601 153.815C38.7233 152.686 38.1918 151.553 37.6655 150.417L35.9677 151.204C36.4964 152.345 37.0305 153.483 37.5699 154.618L39.2601 153.815ZM36.1031 147.002C35.5894 145.864 35.081 144.724 34.5779 143.581L32.8651 144.335C33.3707 145.483 33.8815 146.629 34.3977 147.772L36.1031 147.002ZM33.0845 140.143C32.5921 138.994 32.105 137.842 31.6233 136.688L29.8963 137.408C30.3803 138.569 30.8698 139.726 31.3646 140.88L33.0845 140.143ZM30.1943 133.216C29.7236 132.056 29.2583 130.894 28.7984 129.729L27.0578 130.416C27.5199 131.587 27.9874 132.755 28.4604 133.92L30.1943 133.216ZM27.4405 126.239C26.9932 125.074 26.5514 123.905 26.115 122.734L24.3615 123.387C24.8 124.564 25.2439 125.738 25.6933 126.91L27.4405 126.239ZM24.8224 119.212C24.397 118.035 23.977 116.856 23.5626 115.674L21.7968 116.294C22.2132 117.481 22.6351 118.666 23.0626 119.848L24.8224 119.212ZM22.3368 112.124C21.9355 110.943 21.5397 109.759 21.1494 108.573L19.3719 109.158C19.764 110.35 20.1618 111.539 20.565 112.726L22.3368 112.124ZM19.9952 105.008C19.616 103.817 19.2424 102.624 18.8743 101.428L17.0858 101.978C17.4557 103.18 17.8311 104.379 18.2121 105.576L19.9952 105.008ZM17.787 97.8329C17.4303 96.6329 17.0793 95.4306 16.734 94.2259L14.9351 94.7415C15.2822 95.9521 15.6349 97.1602 15.9932 98.366L17.787 97.8329ZM15.72 90.6235C15.3877 89.4204 15.0609 88.2149 14.7398 87.0071L12.9313 87.488C13.254 88.7016 13.5823 89.9129 13.9163 91.1218L15.72 90.6235ZM13.7934 83.377C13.4835 82.1647 13.1794 80.9501 12.881 79.7333L11.0635 80.179C11.3634 81.4017 11.669 82.6222 11.9803 83.8403L13.7934 83.377ZM12.0031 76.0777C11.718 74.8646 11.4386 73.6494 11.1648 72.432L9.33915 72.8426C9.61423 74.0658 9.89501 75.2869 10.1815 76.5058L12.0031 76.0777ZM10.3607 68.7734C10.0983 67.5517 9.84165 66.3279 9.59074 65.102L7.75746 65.4773C8.00958 66.7091 8.26746 67.9387 8.53108 69.1663L10.3607 68.7734ZM8.85526 61.4181C8.61587 60.1881 8.38224 58.956 8.15441 57.7219L6.31422 58.0616C6.54314 59.3016 6.77789 60.5397 7.01844 61.7756L8.85526 61.4181ZM7.49325 54.0414C7.27861 52.8127 7.06972 51.582 6.86659 50.3494L5.02021 50.6537C5.22431 51.8922 5.43421 53.1288 5.64988 54.3634L7.49325 54.0414ZM6.27454 46.6458C6.08298 45.4093 5.89721 44.1709 5.71727 42.9306L3.86537 43.1993C4.04618 44.4455 4.23283 45.6899 4.42532 46.9323L6.27454 46.6458ZM5.19497 39.2041C5.02797 37.9694 4.86674 36.7329 4.71131 35.4946L2.85459 35.7276C3.01077 36.9719 3.17277 38.2143 3.34056 39.4549L5.19497 39.2041ZM4.2629 31.7783C4.11924 30.5378 3.98138 29.2955 3.84936 28.0515L1.98852 28.249C2.12117 29.4989 2.25969 30.7472 2.40404 31.9936L4.2629 31.7783ZM3.47084 24.3141C3.35053 23.0666 3.23608 21.8174 3.12752 20.5665L1.26324 20.7283C1.37231 21.9852 1.48731 23.2403 1.6082 24.4938L3.47084 24.3141ZM2.82156 16.8345C2.72567 15.5924 2.63559 14.3486 2.55135 13.1033L0.684329 13.2296C0.768972 14.4808 0.859479 15.7305 0.955822 16.9786L2.82156 16.8345ZM2.31615 9.36237C2.24361 8.11381 2.17692 6.86369 2.11613 5.61201L0.247044 5.70279C0.308126 6.96039 0.375125 8.21644 0.448015 9.47091L2.31615 9.36237ZM1.95144 1.85237C1.92693 1.22461 1.9039 0.596466 1.88236 -0.0320522L0.0121711 0.0320522C0.0338165 0.663537 0.0569533 1.29464 0.0815782 1.92537L1.95144 1.85237ZM0.947266 0.935644H2.8112V-0.935644H0.947266V0.935644ZM6.53908 0.935644H10.267V-0.935644H6.53908V0.935644ZM13.9948 0.935644H17.7227V-0.935644H13.9948V0.935644ZM21.4506 0.935644H25.1784V-0.935644H21.4506V0.935644ZM28.9063 0.935644H32.6342V-0.935644H28.9063V0.935644ZM36.3621 0.935644H40.0899V-0.935644H36.3621V0.935644ZM43.8178 0.935644H47.5457V-0.935644H43.8178V0.935644ZM51.2736 0.935644H55.0014V-0.935644H51.2736V0.935644ZM58.7293 0.935644H62.4572V-0.935644H58.7293V0.935644ZM66.1851 0.935644H69.9129V-0.935644H66.1851V0.935644ZM73.6408 0.935644H77.3687V-0.935644H73.6408V0.935644ZM81.0966 0.935644H84.8244V-0.935644H81.0966V0.935644ZM88.5523 0.935644H92.2802V-0.935644H88.5523V0.935644ZM96.0081 0.935644H99.7359V-0.935644H96.0081V0.935644ZM103.464 0.935644H107.192V-0.935644H103.464V0.935644ZM110.92 0.935644H114.647V-0.935644H110.92V0.935644ZM118.375 0.935644H122.103V-0.935644H118.375V0.935644ZM125.831 0.935644H129.559V-0.935644H125.831V0.935644ZM133.287 0.935644H137.015V-0.935644H133.287V0.935644ZM140.743 0.935644H144.47V-0.935644H140.743V0.935644ZM148.198 0.935644H151.926V-0.935644H148.198V0.935644ZM155.654 0.935644H159.382V-0.935644H155.654V0.935644ZM163.11 0.935644H166.838V-0.935644H163.11V0.935644ZM170.566 0.935644H174.293V-0.935644H170.566V0.935644ZM178.021 0.935644H181.749V-0.935644H178.021V0.935644ZM185.477 0.935644H189.205V-0.935644H185.477V0.935644ZM192.933 0.935644H196.661V-0.935644H192.933V0.935644ZM200.389 0.935644H204.116V-0.935644H200.389V0.935644ZM207.844 0.935644H211.572V-0.935644H207.844V0.935644ZM215.3 0.935644H219.028V-0.935644H215.3V0.935644ZM222.756 0.935644H226.484V-0.935644H222.756V0.935644ZM230.212 0.935644H233.939V-0.935644H230.212V0.935644ZM237.667 0.935644H241.395V-0.935644H237.667V0.935644ZM245.123 0.935644H248.851V-0.935644H245.123V0.935644ZM252.579 0.935644H256.307V-0.935644H252.579V0.935644ZM260.035 0.935644H263.762V-0.935644H260.035V0.935644ZM267.49 0.935644H271.218V-0.935644H267.49V0.935644ZM274.946 0.935644H278.674V-0.935644H274.946V0.935644ZM282.402 0.935644H286.13V-0.935644H282.402V0.935644ZM289.858 0.935644H293.585V-0.935644H289.858V0.935644ZM297.313 0.935644H301.041V-0.935644H297.313V0.935644ZM304.769 0.935644H308.497V-0.935644H304.769V0.935644ZM312.225 0.935644H315.953V-0.935644H312.225V0.935644ZM319.681 0.935644H323.408V-0.935644H319.681V0.935644ZM327.136 0.935644H330.864V-0.935644H327.136V0.935644ZM334.592 0.935644H338.32V-0.935644H334.592V0.935644ZM342.048 0.935644H345.776V-0.935644H342.048V0.935644ZM349.504 0.935644H353.231V-0.935644H349.504V0.935644ZM356.959 0.935644H360.687V-0.935644H356.959V0.935644ZM364.415 0.935644H368.143V-0.935644H364.415V0.935644ZM371.871 0.935644H375.599V-0.935644H371.871V0.935644ZM379.327 0.935644H383.054V-0.935644H379.327V0.935644ZM386.782 0.935644H390.51V-0.935644H386.782V0.935644ZM394.238 0.935644H397.966V-0.935644H394.238V0.935644ZM401.694 0.935644H405.422V-0.935644H401.694V0.935644ZM409.15 0.935644H412.877V-0.935644H409.15V0.935644ZM416.605 0.935644H420.333V-0.935644H416.605V0.935644ZM424.061 0.935644H427.789V-0.935644H424.061V0.935644ZM431.517 0.935644H435.245V-0.935644H431.517V0.935644ZM438.973 0.935644H442.7V-0.935644H438.973V0.935644ZM446.428 0.935644H450.156V-0.935644H446.428V0.935644ZM453.884 0.935644H457.612V-0.935644H453.884V0.935644ZM461.34 0.935644H465.068V-0.935644H461.34V0.935644ZM468.796 0.935644H472.523V-0.935644H468.796V0.935644ZM476.251 0.935644H479.979V-0.935644H476.251V0.935644ZM483.707 0.935644H487.435V-0.935644H483.707V0.935644ZM491.163 0.935644H494.891V-0.935644H491.163V0.935644ZM498.619 0.935644H502.346V-0.935644H498.619V0.935644ZM506.074 0.935644H509.802V-0.935644H506.074V0.935644ZM513.53 0.935644H517.258V-0.935644H513.53V0.935644ZM520.986 0.935644H524.714V-0.935644H520.986V0.935644ZM528.441 0.935644H532.169V-0.935644H528.441V0.935644ZM535.897 0.935644H539.625V-0.935644H535.897V0.935644ZM543.353 0.935644H547.081V-0.935644H543.353V0.935644ZM550.808 0.935644H554.536V-0.935644H550.808V0.935644ZM558.264 0.935644H561.992V-0.935644H558.264V0.935644ZM565.72 0.935644H569.448V-0.935644H565.72V0.935644ZM573.176 0.935644H576.903V-0.935644H573.176V0.935644ZM580.631 0.935644H584.359V-0.935644H580.631V0.935644ZM588.087 0.935644H591.815V-0.935644H588.087V0.935644ZM595.543 0.935644H599.27V-0.935644H595.543V0.935644ZM602.998 0.935644H606.726V-0.935644H602.998V0.935644ZM610.454 0.935644H614.182V-0.935644H610.454V0.935644ZM617.91 0.935644H621.637V-0.935644H617.91V0.935644ZM625.365 0.935644H629.093V-0.935644H625.365V0.935644ZM632.821 0.935644H636.549V-0.935644H632.821V0.935644ZM640.277 0.935644H644.005V-0.935644H640.277V0.935644ZM647.732 0.935644H651.46V-0.935644H647.732V0.935644ZM655.188 0.935644H658.916V-0.935644H655.188V0.935644ZM662.644 0.935644H666.372V-0.935644H662.644V0.935644ZM670.1 0.935644H673.827V-0.935644H670.1V0.935644ZM677.555 0.935644H681.283V-0.935644H677.555V0.935644ZM685.011 0.935644H688.739V-0.935644H685.011V0.935644ZM692.467 0.935644H696.194V-0.935644H692.467V0.935644ZM699.922 0.935644H703.65V-0.935644H699.922V0.935644ZM707.378 0.935644H711.106V-0.935644H707.378V0.935644ZM714.834 0.935644H718.561V-0.935644H714.834V0.935644ZM722.289 0.935644H726.017V-0.935644H722.289V0.935644ZM729.745 0.935644H733.473V-0.935644H729.745V0.935644ZM737.201 0.935644H740.929V-0.935644H737.201V0.935644ZM744.656 0.935644H748.384V-0.935644H744.656V0.935644ZM752.112 0.935644H755.84V-0.935644H752.112V0.935644ZM759.568 0.935644H763.296V-0.935644H759.568V0.935644ZM767.023 0.935644H770.751V-0.935644H767.023V0.935644ZM774.479 0.935644H778.207V-0.935644H774.479V0.935644ZM781.935 0.935644H783.801V-0.935644H781.935V0.935644ZM782.866 -0.0320523C782.844 0.596081 782.821 1.22384 782.797 1.85121L784.667 1.92421C784.691 1.29387 784.714 0.66315 784.736 0.0320523L782.866 -0.0320523ZM782.632 5.61087C782.571 6.86255 782.505 8.11268 782.432 9.36124L784.3 9.46978C784.373 8.2153 784.44 6.95925 784.501 5.70165L782.632 5.61087ZM782.197 13.1021C782.113 14.3475 782.023 15.5913 781.927 16.8334L783.792 16.9775C783.889 15.7294 783.979 14.4797 784.064 13.2284L782.197 13.1021ZM781.621 20.5654C781.512 21.8163 781.398 23.0656 781.277 24.3131L783.14 24.4927C783.261 23.2393 783.376 21.9841 783.485 20.7272L781.621 20.5654ZM780.899 28.0504C780.767 29.2945 780.629 30.5368 780.485 31.7773L782.344 31.9926C782.489 30.7461 782.627 29.4979 782.76 28.2479L780.899 28.0504ZM780.037 35.4936C779.881 36.7319 779.72 37.9684 779.553 39.2031L781.408 39.4539C781.575 38.2133 781.737 36.9709 781.894 35.7266L780.037 35.4936ZM779.031 42.9296C778.851 44.1699 778.665 45.4083 778.474 46.6448L780.323 46.9313C780.515 45.6889 780.702 44.4445 780.883 43.1983L779.031 42.9296ZM777.882 50.3485C777.679 51.5811 777.47 52.8117 777.255 54.0404L779.098 54.3625C779.314 53.1279 779.524 51.8913 779.728 50.6527L777.882 50.3485ZM776.594 57.7209C776.366 58.9551 776.132 60.1872 775.893 61.4172L777.73 61.7747C777.97 60.5387 778.205 59.3007 778.434 58.0606L776.594 57.7209ZM775.158 65.1011C774.907 66.327 774.65 67.5508 774.388 68.7725L776.217 69.1654C776.481 67.9379 776.739 66.7082 776.991 65.4764L775.158 65.1011ZM773.583 72.4312C773.31 73.6486 773.03 74.8638 772.745 76.0769L774.567 76.505C774.853 75.2861 775.134 74.065 775.409 72.8417L773.583 72.4312ZM771.867 79.7325C771.569 80.9493 771.265 82.1639 770.955 83.3762L772.768 83.8395C773.079 82.6214 773.385 81.4009 773.685 80.1782L771.867 79.7325ZM770.009 87.0064C769.687 88.2141 769.361 89.4196 769.028 90.6227L770.832 91.121C771.166 89.9121 771.494 88.7008 771.817 87.4872L770.009 87.0064ZM768.014 94.2251C767.669 95.4298 767.318 96.6322 766.961 97.8322L768.755 98.3653C769.113 97.1595 769.466 95.9513 769.813 94.7408L768.014 94.2251ZM765.874 101.427C765.506 102.623 765.132 103.816 764.753 105.007L766.536 105.575C766.917 104.378 767.293 103.179 767.662 101.977L765.874 101.427ZM763.599 108.573C763.209 109.759 762.813 110.942 762.412 112.123L764.183 112.725C764.587 111.538 764.984 110.349 765.376 109.158L763.599 108.573ZM761.186 115.674C760.771 116.856 760.351 118.035 759.926 119.211L761.686 119.848C762.113 118.665 762.535 117.48 762.952 116.293L761.186 115.674ZM758.633 122.733C758.197 123.904 757.755 125.073 757.308 126.239L759.055 126.909C759.504 125.737 759.948 124.563 760.387 123.386L758.633 122.733ZM755.95 129.729C755.49 130.894 755.025 132.056 754.554 133.215L756.288 133.919C756.761 132.754 757.228 131.586 757.691 130.416L755.95 129.729ZM753.125 136.687C752.643 137.842 752.156 138.994 751.664 140.142L753.384 140.88C753.879 139.725 754.368 138.568 754.852 137.408L753.125 136.687ZM750.17 143.58C749.667 144.724 749.159 145.864 748.645 147.001L750.351 147.772C750.867 146.629 751.378 145.483 751.883 144.334L750.17 143.58ZM747.083 150.416C746.557 151.552 746.025 152.685 745.488 153.815L747.178 154.618C747.718 153.483 748.252 152.344 748.781 151.203L747.083 150.416ZM743.862 157.195C743.315 158.319 742.762 159.44 742.204 160.558L743.879 161.393C744.439 160.27 744.995 159.144 745.544 158.015L743.862 157.195ZM740.516 163.902C739.946 165.017 739.371 166.129 738.791 167.237L740.449 168.105C741.032 166.991 741.609 165.874 742.182 164.753L740.516 163.902ZM737.035 170.554C736.444 171.657 735.848 172.756 735.248 173.853L736.889 174.752C737.492 173.651 738.091 172.546 738.684 171.438L737.035 170.554ZM733.43 177.132C732.819 178.221 732.203 179.308 731.582 180.392L733.205 181.322C733.829 180.234 734.448 179.142 735.062 178.047L733.43 177.132ZM729.699 183.64C729.066 184.719 728.428 185.795 727.785 186.868L729.391 187.83C730.036 186.752 730.677 185.671 731.313 184.586L729.699 183.64ZM725.842 190.077C725.189 191.143 724.532 192.206 723.869 193.265L725.455 194.257C726.121 193.193 726.782 192.125 727.438 191.054L725.842 190.077ZM721.866 196.433C721.192 197.488 720.513 198.539 719.829 199.587L721.396 200.609C722.083 199.557 722.765 198.501 723.443 197.441L721.866 196.433ZM717.764 202.719C717.07 203.76 716.372 204.797 715.669 205.831L717.216 206.883C717.923 205.845 718.624 204.803 719.321 203.757L717.764 202.719ZM713.545 208.921C712.832 209.948 712.114 210.971 711.392 211.991L712.919 213.073C713.645 212.048 714.366 211.02 715.082 209.988L713.545 208.921ZM709.207 215.043C708.474 216.056 707.737 217.066 706.994 218.072L708.5 219.183C709.246 218.172 709.987 217.158 710.724 216.139L709.207 215.043ZM704.753 221.08C704.001 222.079 703.245 223.074 702.483 224.066L703.968 225.205C704.732 224.209 705.493 223.209 706.248 222.205L704.753 221.08ZM700.185 227.029C699.414 228.014 698.638 228.995 697.858 229.973L699.32 231.14C700.104 230.158 700.884 229.173 701.659 228.183L700.185 227.029ZM695.503 232.893C694.713 233.863 693.919 234.828 693.12 235.79L694.56 236.986C695.362 236.019 696.16 235.049 696.954 234.075L695.503 232.893ZM690.711 238.664C689.903 239.618 689.09 240.569 688.273 241.515L689.69 242.738C690.511 241.787 691.327 240.832 692.139 239.873L690.711 238.664ZM685.808 244.344C684.982 245.282 684.152 246.217 683.317 247.148L684.71 248.398C685.549 247.462 686.383 246.523 687.213 245.58L685.808 244.344ZM680.799 249.928C679.955 250.851 679.107 251.77 678.254 252.684L679.623 253.96C680.48 253.041 681.332 252.118 682.18 251.191L680.799 249.928ZM675.684 255.416C674.823 256.323 673.957 257.225 673.087 258.123L674.431 259.425C675.305 258.522 676.175 257.616 677.04 256.705L675.684 255.416ZM670.465 260.806C669.586 261.696 668.704 262.581 667.817 263.463L669.136 264.79C670.027 263.904 670.914 263.014 671.796 262.12L670.465 260.806ZM665.144 266.094C664.249 266.967 663.349 267.836 662.446 268.7L663.739 270.053C664.647 269.184 665.551 268.311 666.45 267.434L665.144 266.094ZM659.723 271.281C658.811 272.136 657.896 272.988 656.976 273.835L658.243 275.211C659.168 274.36 660.088 273.505 661.004 272.645L659.723 271.281ZM654.204 276.363C653.276 277.201 652.344 278.035 651.408 278.864L652.649 280.265C653.59 279.431 654.526 278.594 655.459 277.751L654.204 276.363ZM648.589 281.338C647.646 282.159 646.698 282.974 645.747 283.785L646.961 285.209C647.917 284.394 648.869 283.575 649.817 282.751L648.589 281.338ZM642.881 286.206C641.922 287.008 640.959 287.805 639.992 288.599L641.178 290.045C642.15 289.249 643.118 288.447 644.081 287.641L642.881 286.206ZM637.079 290.964C636.105 291.748 635.127 292.527 634.146 293.301L635.304 294.77C636.291 293.992 637.273 293.21 638.252 292.422L637.079 290.964ZM631.19 295.609C630.201 296.374 629.208 297.134 628.212 297.89L629.342 299.381C630.344 298.622 631.341 297.858 632.335 297.089L631.19 295.609ZM625.211 300.142C624.207 300.888 623.199 301.63 622.188 302.366L623.29 303.879C624.306 303.139 625.319 302.394 626.327 301.644L625.211 300.142ZM619.147 304.559C618.13 305.285 617.109 306.007 616.085 306.724L617.158 308.257C618.187 307.537 619.213 306.812 620.235 306.082L619.147 304.559ZM613.001 308.859C611.969 309.566 610.934 310.268 609.896 310.966L610.939 312.519C611.982 311.819 613.022 311.113 614.059 310.403L613.001 308.859ZM606.769 313.043C605.725 313.729 604.678 314.411 603.628 315.087L604.641 316.661C605.696 315.981 606.749 315.296 607.797 314.606L606.769 313.043ZM600.465 317.102C599.408 317.769 598.347 318.431 597.282 319.088L598.265 320.68C599.335 320.02 600.401 319.355 601.463 318.685L600.465 317.102ZM594.079 321.043C593.008 321.69 591.934 322.332 590.857 322.968L591.809 324.579C592.891 323.94 593.971 323.295 595.047 322.645L594.079 321.043ZM587.621 324.859C586.539 325.484 585.454 326.105 584.366 326.72L585.287 328.349C586.38 327.731 587.471 327.108 588.558 326.479L587.621 324.859ZM581.091 328.55C579.997 329.155 578.899 329.755 577.798 330.35L578.687 331.996C579.793 331.399 580.897 330.796 581.997 330.188L581.091 328.55ZM574.486 332.118C573.382 332.701 572.275 333.278 571.164 333.851L572.022 335.514C573.138 334.939 574.25 334.358 575.36 333.773L574.486 332.118ZM567.824 335.553C566.707 336.115 565.587 336.672 564.465 337.224L565.29 338.903C566.418 338.349 567.543 337.789 568.665 337.224L567.824 335.553ZM561.087 338.863C559.959 339.404 558.829 339.939 557.695 340.469L558.487 342.164C559.627 341.632 560.763 341.094 561.896 340.55L561.087 338.863ZM554.294 342.04C553.157 342.558 552.018 343.071 550.875 343.579L551.635 345.289C552.783 344.779 553.928 344.263 555.07 343.743L554.294 342.04ZM547.439 345.086C546.291 345.583 545.14 346.074 543.986 346.56L544.713 348.285C545.872 347.796 547.029 347.302 548.182 346.803L547.439 345.086ZM540.52 348.001C539.365 348.475 538.208 348.943 537.048 349.406L537.741 351.144C538.907 350.679 540.07 350.208 541.23 349.733L540.52 348.001ZM533.559 350.777C532.394 351.229 531.225 351.676 530.054 352.117L530.714 353.868C531.89 353.425 533.064 352.976 534.236 352.522L533.559 350.777ZM526.533 353.423C525.359 353.853 524.182 354.277 523.002 354.695L523.627 356.459C524.813 356.038 525.996 355.612 527.176 355.181L526.533 353.423ZM519.467 355.93C518.286 356.336 517.102 356.736 515.916 357.131L516.507 358.906C517.699 358.51 518.888 358.107 520.075 357.699L519.467 355.93ZM512.35 358.299C511.159 358.683 509.966 359.062 508.77 359.434L509.326 361.221C510.528 360.846 511.728 360.466 512.924 360.08L512.35 358.299ZM505.18 360.534C503.986 360.893 502.789 361.247 501.59 361.596L502.112 363.393C503.317 363.043 504.52 362.687 505.72 362.326L505.18 360.534ZM497.986 362.624C496.783 362.961 495.577 363.293 494.368 363.619L494.855 365.425C496.07 365.098 497.282 364.765 498.491 364.426L497.986 362.624ZM490.736 364.579C489.525 364.893 488.312 365.202 487.097 365.504L487.549 367.32C488.77 367.016 489.989 366.706 491.206 366.391L490.736 364.579ZM483.461 366.391C482.247 366.681 481.03 366.965 479.812 367.244L480.229 369.068C481.453 368.788 482.676 368.502 483.896 368.211L483.461 366.391ZM476.15 368.062C474.927 368.329 473.702 368.591 472.475 368.846L472.857 370.678C474.09 370.421 475.321 370.159 476.55 369.89L476.15 368.062ZM468.793 369.595C467.571 369.837 466.347 370.074 465.121 370.305L465.467 372.144C466.699 371.912 467.929 371.674 469.157 371.43L468.793 369.595ZM461.436 370.98C460.206 371.2 458.973 371.413 457.739 371.621L458.05 373.466C459.29 373.258 460.528 373.043 461.764 372.822L461.436 370.98ZM454.031 372.227C452.793 372.424 451.554 372.614 450.313 372.798L450.588 374.649C451.835 374.464 453.08 374.273 454.324 374.076L454.031 372.227ZM446.613 373.33C445.377 373.502 444.14 373.668 442.901 373.828L443.141 375.683C444.385 375.523 445.629 375.356 446.87 375.184L446.613 373.33ZM439.178 374.29C437.936 374.438 436.691 374.581 435.445 374.718L435.649 376.578C436.901 376.44 438.151 376.297 439.4 376.148L439.178 374.29ZM431.701 375.11C430.462 375.234 429.222 375.352 427.98 375.464L428.148 377.328C429.396 377.215 430.642 377.096 431.887 376.972L431.701 375.11ZM424.25 375.783C423.005 375.883 421.759 375.978 420.511 376.067L420.644 377.933C421.898 377.844 423.15 377.749 424.401 377.648L424.25 375.783ZM416.762 376.316C415.511 376.393 414.258 376.464 413.003 376.529L413.101 378.398C414.361 378.332 415.62 378.261 416.877 378.183L416.762 376.316ZM409.265 376.706C408.02 376.759 406.774 376.806 405.527 376.847L405.589 378.717C406.842 378.676 408.094 378.629 409.344 378.576L409.265 376.706ZM401.78 376.953C400.53 376.983 399.278 377.007 398.025 377.024L398.051 378.895C399.31 378.878 400.568 378.854 401.824 378.824L401.78 376.953ZM394.26 377.06C393.632 377.063 393.003 377.064 392.374 377.064V378.936C393.006 378.936 393.638 378.934 394.269 378.931L394.26 377.06Z" fill="url(#paint0_linear_293_101)" mask="url(#path-1-inside-1_293_101)"/>
<defs>
<linearGradient id="paint0_linear_293_101" x1="422.502" y1="392.409" x2="422.502" y2="-140.721" gradientUnits="userSpaceOnUse">
<stop offset="0.410852" stop-color="white"/>
<stop offset="0.714988" stop-color="white" stop-opacity="0"/>
</linearGradient>
</defs>
</svg>
