<?xml version="1.0" encoding="utf-8"?>
<!-- Generator: Adobe Illustrator 24.1.2, SVG Export Plug-In . SVG Version: 6.00 Build 0)  -->
<svg version="1.1" id="Слой_1" xmlns="http://www.w3.org/2000/svg" xmlns:xlink="http://www.w3.org/1999/xlink" x="0px" y="0px"
	 width="199px" height="30px" viewBox="0 0 199 30" style="enable-background:new 0 0 199 30;" xml:space="preserve">
<style type="text/css">
	.st0{fill:#FFFFFF;}
</style>
<path class="st0" d="M0,0.5h11.2c6.5,0,10.5,4.1,10.5,10.1c0,6.7-4.9,10.2-11.1,10.2H6v8.7H0V0.5z M10.8,15.1c3,0,4.8-1.9,4.8-4.5
	c0-2.9-1.9-4.4-4.9-4.4H6v8.9L10.8,15.1z"/>
<path class="st0" d="M26.9,0.5h12.5c3.5,0,6.2,1,8,2.9c1.5,1.6,2.3,3.9,2.3,6.7c0,4.7-2.4,7.6-5.9,9l6.7,10.4h-7l-5.9-9.3h-4.7v9.3
	h-6V0.5z M39.1,14.6c2.9,0,4.6-1.7,4.6-4.2c0-2.7-1.8-4.1-4.7-4.1h-6v8.3H39.1z"/>
<path class="st0" d="M54,15c0-8.2,6.1-15,14.6-15c8.5,0,14.5,6.7,14.5,15c0,8.2-6.1,15-14.6,15C60.1,30,54,23.3,54,15z M76.8,15
	c0-5-3.4-9.1-8.3-9.1c-4.9,0-8.2,4.1-8.2,9.1c0,5,3.4,9.1,8.3,9.1C73.5,24.1,76.8,20,76.8,15z"/>
<path class="st0" d="M85.6,25.3l3.5-4.5c2.5,2.2,5.1,3.5,8.2,3.5c2.5,0,4-1,4-2.8c0-1.6-0.9-2.4-5.5-3.7c-5.5-1.5-9.1-3.1-9.1-9
	c0-5.3,4-8.7,9.6-8.7c3.7-0.1,7.3,1.2,10.2,3.7l-3.1,4.8c-2.4-1.8-4.8-2.9-7.1-2.9c-2.3,0-3.5,1.1-3.5,2.6c0,1.9,1.2,2.5,5.9,3.8
	c5.6,1.5,8.7,3.6,8.7,8.8c0,5.8-4.2,9-10,9C93,29.9,88.9,28.3,85.6,25.3z"/>
<path class="st0" d="M110.6,15c0-8.2,5.9-15,14.3-15c5.2,0,8.1,2.1,10.6,4.7l-3.6,4.4c-2.1-2-3.9-3.2-7-3.2c-4.6,0-7.9,4.1-7.9,9.1
	c0,5,3.3,9.1,7.9,9.1c3.1,0,5-1.3,7.2-3.4l3.8,4.3c-2.8,3.2-5.9,4.9-11.2,4.9C116.6,30,110.6,23.4,110.6,15z"/>
<path class="st0" d="M137.9,15c0-8.2,6.1-15,14.6-15C161,0,167,6.7,167,15c0,8.2-6.1,15-14.6,15C144,30,137.9,23.3,137.9,15z
	 M160.7,15c0-5-3.4-9.1-8.3-9.1c-4.9,0-8.2,4.1-8.2,9.1c0,5,3.4,9.1,8.3,9.1C157.4,24.1,160.7,20,160.7,15z"/>
<path class="st0" d="M171.6,0.5h6.5l7.2,15.8l7.2-15.8h6.5v29h-6V10.6L185.3,23h-0.2l-7.6-12.3v18.8h-5.9V0.5z"/>
<path class="st0" d="M177.6,10.8l7.4,15.7h0.3h0.3l7.4-15.9l-7.7,9L177.6,10.8z"/>
</svg>
