<svg xmlns="http://www.w3.org/2000/svg" style="display: none;">
  <symbol xmlns="http://www.w3.org/2000/svg" viewBox="0 0 28 25" id="telegram-icon">
    <path d="M1.30376 10.5723L26.1352 0.843828C27.2877 0.420758 28.2943 1.12951 27.9208 2.9003L27.923 2.89812L23.695 23.1379C23.3816 24.5728 22.5425 24.9218 21.3685 24.2457L14.9299 19.424L11.8244 22.464C11.481 22.8129 11.1913 23.1074 10.5259 23.1074L10.9831 16.4494L22.9159 5.49542C23.4353 5.03091 22.8 4.76922 22.1154 5.23155L7.3689 14.6656L1.01187 12.6505C-0.368129 12.2057 -0.398176 11.2483 1.30376 10.5723Z"></path>
  </symbol>
  <symbol xmlns="http://www.w3.org/2000/svg" viewBox="0 0 31 25" id="twitter-icon">
    <path d="M31.0001 3.27431C29.8791 3.76834 28.6733 4.10248 27.4087 4.25171C28.6999 3.48286 29.6908 2.26631 30.1585 0.814344C28.9503 1.52666 27.6115 2.0434 26.1879 2.32193C25.0474 1.11466 23.4223 0.360168 21.6229 0.360168C18.1704 0.360168 15.3703 3.14315 15.3703 6.57449C15.3703 7.06157 15.4258 7.53568 15.5331 7.99078C10.3367 7.73171 5.72919 5.25785 2.64511 1.497C2.107 2.41462 1.79831 3.48286 1.79831 4.62154C1.79831 6.77702 2.90297 8.67992 4.57977 9.79404C3.55532 9.76206 2.59055 9.48261 1.74795 9.01592C1.74749 9.04234 1.74749 9.06875 1.74749 9.0947C1.74749 12.1057 3.90364 14.6171 6.76344 15.1876C6.23932 15.3303 5.68583 15.4059 5.11648 15.4059C4.71267 15.4059 4.32144 15.3674 3.94001 15.2951C4.73551 17.7634 7.04415 19.5602 9.78084 19.6107C7.64054 21.2777 4.94488 22.2709 2.01467 22.2709C1.51107 22.2709 1.01214 22.2417 0.523926 22.1838C3.28953 23.9476 6.57692 24.976 10.1077 24.976C21.6084 24.976 27.8979 15.5069 27.8979 7.29422C27.8979 7.02496 27.8918 6.75663 27.8797 6.49061C29.1023 5.6147 30.1622 4.52051 31.0001 3.27431Z"></path>
  </symbol>
    <symbol xmlns="http://www.w3.org/2000/svg" viewBox="0 0 12 12" id="full-arrows">
    <path d="M11.5 5.38889V0.5H6.61111L8.62167 2.51056L2.51056 8.62167L0.5 6.61111V11.5H5.38889L3.37833 9.48944L9.48944 3.37833L11.5 5.38889Z"></path>
  </symbol>
    <symbol xmlns="http://www.w3.org/2000/svg" viewBox="0 0 116 116" id="app_deployement-icon">
    <path d="M50.5641 11.8247C52.2297 11.8247 53.5385 13.1254 53.5385 14.7808V26.6055H89.2308V62.0795H101.128C102.794 62.0795 104.103 63.3802 104.103 65.0357C104.103 66.6911 102.794 67.9919 101.128 67.9919H89.2308V103.466H76.6195C72.5744 93.1193 62.4021 85.7289 50.5641 85.7289C38.7262 85.7289 28.5538 93.1193 24.5087 103.466H11.8974V90.9317C22.3077 86.9113 29.7436 76.8012 29.7436 65.0357C29.7436 53.2701 22.3672 43.16 11.9569 39.1397L11.8974 26.6055H47.5897V14.7808C47.5897 13.1254 48.8985 11.8247 50.5641 11.8247ZM50.5641 0C42.3549 0 35.6923 6.62182 35.6923 14.7808H11.8974C5.35385 14.7808 0.0594871 20.1019 0.0594871 26.6055V49.0724H1.78462C10.6482 49.0724 17.8462 56.2263 17.8462 65.0357C17.8462 73.8451 10.6482 80.999 1.78462 80.999H0V103.466C0 109.969 5.35385 115.291 11.8974 115.291H34.5026V113.517C34.5026 104.707 41.7005 97.5535 50.5641 97.5535C59.4277 97.5535 66.6256 104.707 66.6256 113.517V115.291H89.2308C95.7744 115.291 101.128 109.969 101.128 103.466V79.8165C109.337 79.8165 116 73.1947 116 65.0357C116 56.8767 109.337 50.2548 101.128 50.2548V26.6055C101.128 20.1019 95.7744 14.7808 89.2308 14.7808H65.4359C65.4359 6.62182 58.7733 0 50.5641 0Z"></path>
  </symbol>
  <symbol xmlns="http://www.w3.org/2000/svg" viewBox="0 0 112 122" id="app_subscriptions-icon">
    <path d="M108.04 58.4458L58.2672 3.69581C56.2763 1.50581 53.5112 0.16748 50.4695 0.16748H11.7574C5.67405 0.16748 0.696777 5.64248 0.696777 12.3341V54.9175C0.696777 58.2633 1.91344 61.305 3.95966 63.5558L53.7324 118.306C55.7233 120.496 58.4884 121.834 61.5301 121.834C64.5718 121.834 67.3369 120.496 69.3278 118.245L108.04 75.6616C110.086 73.4716 111.303 70.43 111.303 67.0841C111.303 63.7383 110.031 60.6358 108.04 58.4458ZM61.5301 109.728L11.7574 54.9175V12.3341H50.4695V12.2733L100.242 67.0233L61.5301 109.728Z"></path>
    <path d="M25.5835 36.667C30.165 36.667 33.879 32.5816 33.879 27.542C33.879 22.5024 30.165 18.417 25.5835 18.417C21.0021 18.417 17.2881 22.5024 17.2881 27.542C17.2881 32.5816 21.0021 36.667 25.5835 36.667Z"></path>
    <path d="M38.856 64.3463C38.856 67.8138 40.1279 70.8555 42.1741 73.1672L61.5302 94.4588L80.8863 73.1672C82.9325 70.9163 84.2044 67.753 84.2044 64.3463C84.2044 57.4722 79.1166 51.8755 72.8673 51.8755C69.715 51.8755 66.8946 53.2747 64.8484 55.5255L61.5302 59.1755L58.212 55.5863C56.1658 53.2747 53.29 51.8755 50.1931 51.8755C43.9438 51.8755 38.856 57.4722 38.856 64.3463Z"></path>
  </symbol>
  <symbol xmlns="http://www.w3.org/2000/svg" viewBox="0 0 104 104" id="transaction_fees-icon">
    <path d="M52.1792 0C23.5741 0 0.358398 23.0737 0.358398 51.5039C0.358398 79.9341 23.5741 103.008 52.1792 103.008C80.7843 103.008 104 79.9341 104 51.5039C104 23.0737 80.7843 0 52.1792 0ZM52.1792 92.707C29.3262 92.707 10.7226 74.2171 10.7226 51.5039C10.7226 28.7907 29.3262 10.3008 52.1792 10.3008C75.0322 10.3008 93.6358 28.7907 93.6358 51.5039C93.6358 74.2171 75.0322 92.707 52.1792 92.707ZM56.7913 46.8686C47.5672 43.8298 43.1106 41.9242 43.1106 37.0828C43.1106 31.8294 48.8627 29.9238 52.4901 29.9238C59.2787 29.9238 61.766 35.0227 62.3361 36.8253L70.5238 33.3745C69.7465 31.1084 66.2745 23.5373 56.7394 21.8892V15.4512H47.6708V21.9407C34.1974 24.8249 34.0937 36.6193 34.0937 37.1858C34.0937 48.8772 45.7534 52.1735 51.4537 54.2336C59.6414 57.1178 63.2689 59.7445 63.2689 64.6889C63.2689 70.5089 57.8277 72.981 53.0083 72.981C43.5769 72.981 40.8823 63.3498 40.5713 62.2167L31.9691 65.6675C35.2338 76.9468 43.7842 79.9856 47.619 80.9126V87.5566H56.6876V81.1702C59.3823 80.7066 72.3375 78.1314 72.3375 64.5859C72.3893 57.4269 69.2282 51.1434 56.7913 46.8686Z"></path>
  </symbol>
   <symbol xmlns="http://www.w3.org/2000/svg" viewBox="0 0 125 93" id="analytics-icon">
    <path d="M113.636 27.2261C105.398 27.2261 100.795 35.0674 102.67 40.8939L82.5 60.2794C80.7955 59.7893 78.2954 59.7893 76.5909 60.2794L62.1023 46.3937C64.0341 40.5672 59.4318 32.6714 51.1364 32.6714C42.8977 32.6714 38.2386 40.5127 40.1705 46.3937L14.2614 71.1701C8.18182 69.3731 0 73.7838 0 81.6796C0 87.6695 5.11364 92.5703 11.3636 92.5703C19.6023 92.5703 24.2045 84.729 22.3295 78.9025L48.1818 54.0717C49.8864 54.5617 52.3864 54.5617 54.0909 54.0717L68.5795 67.9573C66.6477 73.7838 71.25 81.6796 79.5455 81.6796C87.7841 81.6796 92.4432 73.8383 90.5114 67.9573L110.739 48.6263C116.818 50.4233 125 46.0125 125 38.1168C125 32.1269 119.886 27.2261 113.636 27.2261Z"></path>
    <path d="M79.5455 32.6729L84.8864 21.4007L96.5909 16.3364L84.8864 11.2721L79.5455 0L74.3182 11.2721L62.5 16.3364L74.3182 21.4007L79.5455 32.6729Z"></path>
    <path d="M14.2045 43.5625L17.0454 32.6715L28.4091 29.9487L17.0454 27.226L14.2045 16.335L11.3636 27.226L0 29.9487L11.3636 32.6715L14.2045 43.5625Z"></path>
  </symbol>
  <symbol xmlns="http://www.w3.org/2000/svg" viewBox="0 0 21 40" id="facebook-icon">
    <path d="M16.65 6.671h3.652V.311c-.63-.087-2.797-.282-5.32-.282-5.265 0-8.871 3.312-8.871 9.399v5.601H.3v7.11h5.81v17.89h7.124V22.141h5.575l.885-7.11h-6.462v-4.899c.002-2.054.556-3.461 3.419-3.461z"></path>
  </symbol>
   <symbol xmlns="http://www.w3.org/2000/svg" viewBox="0 0 19 18" id="linkedIn-icon">
    <path d="M18.5594 11.2868V17.8832H14.7349V11.7289C14.7349 10.1836 14.1827 9.12828 12.798 9.12828C11.7413 9.12828 11.1135 9.83875 10.8363 10.5267C10.7356 10.7725 10.7097 11.114 10.7097 11.4588V17.883H6.88494C6.88494 17.883 6.93628 7.45949 6.88494 6.38052H10.71V8.01053C10.7023 8.02336 10.6914 8.03591 10.6846 8.04817H10.71V8.01053C11.2182 7.22847 12.1246 6.11042 14.1568 6.11042C16.673 6.11042 18.5594 7.7544 18.5594 11.2868ZM2.88394 0.835938C1.57566 0.835938 0.719727 1.69472 0.719727 2.82303C0.719727 3.92739 1.55084 4.81098 2.83374 4.81098H2.85856C4.19251 4.81098 5.02191 3.92739 5.02191 2.82303C4.99653 1.69472 4.19251 0.835938 2.88394 0.835938ZM0.947043 17.8832H4.77035V6.38052H0.947043V17.8832Z"></path>
  </symbol>
  <symbol xmlns="http://www.w3.org/2000/svg" viewBox="0 0 27 21" id="discord-icon">
    <path d="M22.3432 1.66764C20.6609 0.895763 18.857 0.327076 16.9709 0.00136631C16.9365 -0.00491979 16.9022 0.0107895 16.8845 0.0422089C16.6525 0.454843 16.3955 0.993158 16.2156 1.41627C14.1869 1.11256 12.1687 1.11256 10.1816 1.41627C10.0016 0.983753 9.73532 0.454843 9.50228 0.0422089C9.48458 0.0118378 9.45027 -0.00387149 9.41592 0.00136631C7.53083 0.326036 5.7269 0.894722 4.04363 1.66764C4.02905 1.67392 4.01656 1.68441 4.00827 1.69801C0.586586 6.80994 -0.350758 11.7962 0.109071 16.7207C0.111152 16.7448 0.124676 16.7678 0.143402 16.7825C2.40093 18.4403 4.58774 19.4468 6.73394 20.114C6.76829 20.1244 6.80468 20.1119 6.82654 20.0836C7.33422 19.3903 7.78678 18.6593 8.1748 17.8905C8.1977 17.8455 8.17584 17.7921 8.12904 17.7743C7.41121 17.502 6.72769 17.17 6.0702 16.793C6.01819 16.7626 6.01403 16.6882 6.06187 16.6526C6.20023 16.5489 6.33863 16.441 6.47075 16.3321C6.49465 16.3122 6.52796 16.308 6.55606 16.3206C10.8755 18.2927 15.5518 18.2927 19.8203 16.3206C19.8484 16.307 19.8817 16.3112 19.9067 16.3311C20.0388 16.44 20.1772 16.5489 20.3166 16.6526C20.3644 16.6882 20.3613 16.7626 20.3093 16.793C19.6518 17.1773 18.9683 17.502 18.2494 17.7732C18.2026 17.791 18.1818 17.8455 18.2047 17.8905C18.6011 18.6582 19.0536 19.3892 19.5519 20.0825C19.5728 20.1119 19.6102 20.1244 19.6445 20.114C21.8011 19.4468 23.9879 18.4403 26.2455 16.7825C26.2652 16.7678 26.2777 16.7458 26.2798 16.7217C26.8301 11.0285 25.3581 6.08312 22.3775 1.69905C22.3702 1.68441 22.3577 1.67392 22.3432 1.66764ZM8.81984 13.7222C7.51938 13.7222 6.44785 12.5283 6.44785 11.062C6.44785 9.59579 7.4986 8.40188 8.81984 8.40188C10.1514 8.40188 11.2126 9.60627 11.1918 11.062C11.1918 12.5283 10.141 13.7222 8.81984 13.7222ZM17.5899 13.7222C16.2894 13.7222 15.2179 12.5283 15.2179 11.062C15.2179 9.59579 16.2686 8.40188 17.5899 8.40188C18.9215 8.40188 19.9826 9.60627 19.9619 11.062C19.9619 12.5283 18.9215 13.7222 17.5899 13.7222Z"></path>
  </symbol>
  <symbol xmlns="http://www.w3.org/2000/svg" viewBox="0 0 20 17" id="m-icon">
    <path d="M18.4042 2.51226L20 0.96952V0.631836H14.4717L10.5317 10.5417L6.04917 0.631836H0.2525V0.96952L2.11667 3.23731C2.29833 3.40489 2.39333 3.64994 2.36917 3.89668V12.8087C2.42667 13.1295 2.32333 13.4596 2.1 13.6929L0 16.2647V16.5982H5.95417V16.2605L3.85417 13.6929C3.62667 13.4588 3.51917 13.1346 3.565 12.8087V5.10005L8.79167 16.6024H9.39917L13.8933 5.10005V14.263C13.8933 14.5047 13.8933 14.5544 13.7367 14.7127L12.12 16.2933V16.6318H19.9633V16.2942L18.405 14.7523C18.2683 14.6478 18.1975 14.4727 18.2267 14.3026V2.96194C18.1975 2.79099 18.2675 2.61584 18.4042 2.51226Z"></path>
  </symbol>
  <symbol xmlns="http://www.w3.org/2000/svg" viewBox="0 0 32 32" id="github-icon">
    <path d="M29.8535 8.36028C28.4227 5.90885 26.482 3.96805 24.0308 2.53744C21.5792 1.10676 18.9028 0.391602 15.9997 0.391602C13.097 0.391602 10.4197 1.10698 7.96868 2.53744C5.51725 3.96798 3.57659 5.90885 2.14584 8.36028C0.715304 10.8116 0 13.4885 0 16.3909C0 19.8773 1.01717 23.0124 3.05203 25.7969C5.08667 28.5817 7.71511 30.5086 10.9372 31.5779C11.3122 31.6476 11.5899 31.5986 11.7704 31.4323C11.951 31.2658 12.0412 31.0572 12.0412 30.8075C12.0412 30.7659 12.0376 30.391 12.0307 29.6826C12.0235 28.9742 12.0201 28.3561 12.0201 27.8288L11.541 27.9117C11.2354 27.9676 10.85 27.9914 10.3847 27.9846C9.91962 27.9781 9.43679 27.9294 8.93689 27.8388C8.43677 27.749 7.9716 27.5406 7.54101 27.2142C7.11065 26.8879 6.80513 26.4606 6.62454 25.9332L6.41621 25.4538C6.27735 25.1347 6.05874 24.7801 5.76009 24.3915C5.46143 24.0025 5.15941 23.7388 4.8539 23.5999L4.70803 23.4955C4.61084 23.4261 4.52065 23.3424 4.43725 23.2453C4.35392 23.1482 4.29153 23.051 4.24987 22.9536C4.20813 22.8562 4.24272 22.7763 4.35399 22.7137C4.46527 22.651 4.66637 22.6205 4.95817 22.6205L5.37467 22.6828C5.65246 22.7385 5.99606 22.9048 6.40592 23.1827C6.81557 23.4604 7.15231 23.8215 7.41624 24.2657C7.73584 24.8353 8.12089 25.2693 8.57249 25.5679C9.02372 25.8666 9.47868 26.0157 9.93691 26.0157C10.3952 26.0157 10.7909 25.9809 11.1244 25.9118C11.4575 25.8424 11.77 25.738 12.0618 25.5992C12.1868 24.6682 12.5271 23.9531 13.0825 23.4532C12.2909 23.37 11.5793 23.2447 10.9472 23.0781C10.3154 22.9113 9.66255 22.6406 8.98906 22.2653C8.3152 21.8904 7.7562 21.425 7.31189 20.8697C6.86752 20.3141 6.50283 19.5847 6.21832 18.6822C5.93368 17.7793 5.79132 16.7377 5.79132 15.5573C5.79132 13.8764 6.34003 12.4461 7.43725 11.2655C6.92327 10.0018 6.97179 8.58524 7.58297 7.01585C7.98575 6.89071 8.58307 6.98462 9.37462 7.29699C10.1663 7.60952 10.746 7.87723 11.1142 8.0992C11.4824 8.3211 11.7774 8.50914 11.9996 8.66164C13.2915 8.30067 14.6247 8.12014 15.9996 8.12014C17.3745 8.12014 18.7079 8.30067 19.9999 8.66164L20.7915 8.16188C21.3329 7.82842 21.9722 7.52283 22.7078 7.24504C23.4439 6.9674 24.0068 6.89093 24.3959 7.01607C25.0206 8.58553 25.0763 10.0021 24.5622 11.2657C25.6593 12.4463 26.2082 13.877 26.2082 15.5575C26.2082 16.7379 26.0654 17.7828 25.7812 18.6926C25.4966 19.6026 25.1288 20.3313 24.6775 20.8801C24.2258 21.4289 23.6632 21.8907 22.9897 22.2655C22.3161 22.6405 21.663 22.9113 21.0312 23.0781C20.3992 23.2449 19.6875 23.3702 18.896 23.4536C19.6179 24.0783 19.979 25.0645 19.979 26.4116V30.807C19.979 31.0567 20.0658 31.2651 20.2396 31.4317C20.4132 31.598 20.6873 31.647 21.0624 31.5773C24.2849 30.5081 26.9133 28.5811 28.9479 25.7963C30.9822 23.0118 31.9998 19.8767 31.9998 16.3903C31.999 13.4883 31.2834 10.8116 29.8535 8.36028Z"></path>
  </symbol>
    <symbol xmlns="http://www.w3.org/2000/svg" viewBox="0 0 34 35" id="ok-icon">
    <path opacity="0.7" d="M14.3324 21.7667L9.72075 17.0646C9.57004 16.9138 9.33644 16.846 9.01995 16.8611C8.70346 16.8762 8.46986 16.9591 8.31915 17.1098C8.07801 17.3509 7.95745 17.6146 7.95745 17.901C7.95745 18.1873 8.07801 18.4209 8.31915 18.6018L13.2926 23.5752C13.594 23.9068 13.9481 24.0725 14.3551 24.0725C14.762 24.0725 15.1161 23.9068 15.4176 23.5752L25.7713 13.2667C25.922 13.1461 25.9898 12.9276 25.9747 12.6111C25.9597 12.2946 25.8768 12.0459 25.7261 11.8651C25.4849 11.6541 25.2212 11.5486 24.9348 11.5486C24.6485 11.5486 24.4149 11.6541 24.234 11.8651L14.3324 21.7667ZM17 34.2002C14.6489 34.2002 12.4335 33.7631 10.3537 32.889C8.27394 32.0149 6.47296 30.8092 4.9508 29.272C3.42864 27.7348 2.22296 25.9263 1.33378 23.8465C0.444593 21.7667 0 19.5513 0 17.2002C0 14.819 0.444593 12.596 1.33378 10.5313C2.22296 8.4666 3.42864 6.66562 4.9508 5.12839C6.47296 3.59115 8.27394 2.38548 10.3537 1.51137C12.4335 0.637252 14.6489 0.200195 17 0.200195C19.3812 0.200195 21.6042 0.637252 23.6689 1.51137C25.7336 2.38548 27.5346 3.59115 29.0718 5.12839C30.609 6.66562 31.8147 8.4666 32.6888 10.5313C33.5629 12.596 34 14.819 34 17.2002C34 19.5513 33.5629 21.7591 32.6888 23.8239C31.8147 25.8886 30.609 27.6896 29.0718 29.2268C27.5346 30.764 25.7336 31.9772 23.6689 32.8664C21.6042 33.7556 19.3812 34.2002 17 34.2002ZM17 32.2108C21.1897 32.2108 24.7389 30.7565 27.6476 27.8478C30.5563 24.9391 32.0106 21.3899 32.0106 17.2002C32.0106 13.0105 30.5563 9.46128 27.6476 6.55259C24.7389 3.6439 21.1897 2.18956 17 2.18956C12.8103 2.18956 9.26108 3.6439 6.35239 6.55259C3.44371 9.46128 1.98936 13.0105 1.98936 17.2002C1.98936 21.3899 3.44371 24.9391 6.35239 27.8478C9.26108 30.7565 12.8103 32.2108 17 32.2108Z" fill="#53FF8D"></path>
  </symbol>
  <symbol xmlns="http://www.w3.org/2000/svg" viewBox="0 0 34 35" id="cross-icon">
    <path opacity="0.7" d="M9.63032 24.5699C9.81117 24.7809 10.0372 24.8864 10.3085 24.8864C10.5798 24.8864 10.8209 24.7809 11.0319 24.5699L17 18.6018L23.0585 24.6151C23.2394 24.8261 23.4579 24.924 23.7141 24.909C23.9703 24.8939 24.2039 24.7809 24.4149 24.5699C24.5957 24.389 24.6862 24.163 24.6862 23.8917C24.6862 23.6204 24.5957 23.3793 24.4149 23.1683L18.4016 17.2002L24.4601 11.1417C24.641 10.9608 24.7238 10.7423 24.7088 10.4861C24.6937 10.2299 24.5957 9.99629 24.4149 9.7853C24.2039 9.60445 23.9628 9.51403 23.6915 9.51403C23.4202 9.51403 23.1941 9.60445 23.0133 9.7853L17 15.7986L10.9867 9.74009C10.7757 9.55924 10.5421 9.47635 10.2859 9.49142C10.0297 9.50649 9.81117 9.60445 9.63032 9.7853C9.41933 9.99629 9.31383 10.2374 9.31383 10.5087C9.31383 10.78 9.41933 11.006 9.63032 11.1869L15.5984 17.2002L9.58511 23.2135C9.37411 23.4245 9.27615 23.6581 9.29122 23.9143C9.3063 24.1705 9.41933 24.389 9.63032 24.5699ZM17 34.2002C14.6489 34.2002 12.4335 33.7556 10.3537 32.8664C8.27394 31.9772 6.47296 30.7716 4.9508 29.2494C3.42864 27.7272 2.22296 25.9263 1.33378 23.8465C0.444593 21.7667 0 19.5513 0 17.2002C0 14.819 0.444593 12.5885 1.33378 10.5087C2.22296 8.42892 3.42864 6.62794 4.9508 5.10578C6.47296 3.58362 8.27394 2.38548 10.3537 1.51137C12.4335 0.637252 14.6489 0.200195 17 0.200195C19.3812 0.200195 21.6117 0.637252 23.6915 1.51137C25.7713 2.38548 27.5723 3.58362 29.0944 5.10578C30.6166 6.62794 31.8147 8.42892 32.6888 10.5087C33.5629 12.5885 34 14.819 34 17.2002C34 19.5814 33.5629 21.8044 32.6888 23.8691C31.8147 25.9338 30.6166 27.7272 29.0944 29.2494C27.5723 30.7716 25.7713 31.9772 23.6915 32.8664C21.6117 33.7556 19.3812 34.2002 17 34.2002ZM17 32.2108C21.1294 32.2108 24.6636 30.749 27.6024 27.8252C30.5412 24.9014 32.0106 21.3598 32.0106 17.2002C32.0106 13.0708 30.5412 9.53663 27.6024 6.5978C24.6636 3.65897 21.1294 2.18956 17 2.18956C12.8404 2.18956 9.29876 3.65897 6.375 6.5978C3.45124 9.53663 1.98936 13.0708 1.98936 17.2002C1.98936 21.3598 3.45124 24.9014 6.375 27.8252C9.29876 30.749 12.8404 32.2108 17 32.2108Z" fill="#FF2459"></path>
  </symbol>
  <symbol xmlns="http://www.w3.org/2000/svg" viewBox="0 0 20 20" id="lock-icon">
    <g>
      <path d="M14.9997 7.08333H14.1663V5.5C14.1663 3.315 12.2997 1.54167 9.99967 1.54167C7.69967 1.54167 5.83301 3.315 5.83301 5.5V7.08333H4.99967C4.08301 7.08333 3.33301 7.79583 3.33301 8.66667V16.5833C3.33301 17.4542 4.08301 18.1667 4.99967 18.1667H14.9997C15.9163 18.1667 16.6663 17.4542 16.6663 16.5833V8.66667C16.6663 7.79583 15.9163 7.08333 14.9997 7.08333ZM9.99967 14.2083C9.08301 14.2083 8.33301 13.4958 8.33301 12.625C8.33301 11.7542 9.08301 11.0417 9.99967 11.0417C10.9163 11.0417 11.6663 11.7542 11.6663 12.625C11.6663 13.4958 10.9163 14.2083 9.99967 14.2083ZM7.49967 7.08333V5.5C7.49967 4.18583 8.61634 3.125 9.99967 3.125C11.383 3.125 12.4997 4.18583 12.4997 5.5V7.08333H7.49967Z" fill="#FF737B"></path>
    </g>
  </symbol>
  <symbol xmlns="http://www.w3.org/2000/svg" viewBox="0 0 13 17" id="lightning-icon">
    <path d="M3.86686 16.061C3.76612 15.9533 3.71015 15.8246 3.69896 15.675C3.68777 15.5253 3.72694 15.3847 3.81649 15.253L7.44303 9.84812L1.382 9.21964C1.0574 9.18373 0.841937 9.00417 0.735603 8.68095C0.62927 8.35774 0.699226 8.07642 0.945473 7.837L8.70225 0.421013C8.81418 0.301304 8.94849 0.244442 9.1052 0.250428C9.2619 0.256413 9.39622 0.31926 9.50815 0.43897C9.60888 0.546708 9.66485 0.675395 9.67604 0.825032C9.68723 0.974669 9.64806 1.10934 9.55851 1.22905L5.94876 6.65188L11.993 7.28035C12.3176 7.31627 12.5331 7.49583 12.6394 7.81905C12.7457 8.14226 12.6758 8.42358 12.4295 8.663L4.67275 16.079C4.56082 16.1987 4.42651 16.2556 4.2698 16.2496C4.1131 16.2436 3.97879 16.1807 3.86686 16.061Z" fill="white"></path>
  </symbol>
  <symbol xmlns="http://www.w3.org/2000/svg" viewBox="0 0 19 19" id="copy-icon">
    <g>
      <path d="M12.5752 1.45618H3.7514C2.94255 1.45618 2.28076 2.11796 2.28076 2.92681V13.2213H3.7514V2.92681H12.5752V1.45618ZM14.7812 4.39745H6.69267C5.88382 4.39745 5.22204 5.05924 5.22204 5.86809V16.1625C5.22204 16.9714 5.88382 17.6332 6.69267 17.6332H14.7812C15.59 17.6332 16.2518 16.9714 16.2518 16.1625V5.86809C16.2518 5.05924 15.59 4.39745 14.7812 4.39745ZM14.7812 16.1625H6.69267V5.86809H14.7812V16.1625Z"></path>
    </g>
  </symbol>
</svg>