<?xml version="1.0" standalone="no"?>
<!DOCTYPE svg PUBLIC "-//W3C//DTD SVG 20010904//EN"
 "http://www.w3.org/TR/2001/REC-SVG-20010904/DTD/svg10.dtd">
<svg version="1.0" xmlns="http://www.w3.org/2000/svg"
 width="960.000000pt" height="960.000000pt" viewBox="0 0 960.000000 960.000000"
 preserveAspectRatio="xMidYMid meet">
<metadata>
Created by potrace 1.14, written by Peter Selinger 2001-2017
</metadata>
<g transform="translate(0.000000,960.000000) scale(0.100000,-0.100000)"
fill="#000000" stroke="none">
<path d="M7920 9552 l-1086 -2 -69 -118 c-39 -64 -75 -126 -81 -137 -6 -11
-22 -39 -37 -62 -15 -24 -27 -45 -27 -47 0 -2 -23 -41 -50 -85 -28 -45 -47
-81 -43 -81 5 0 3 -4 -3 -8 -5 -4 -50 -74 -98 -157 -49 -82 -99 -167 -112
-187 -13 -21 -24 -40 -24 -43 0 -2 -15 -28 -32 -58 -18 -29 -38 -61 -45 -72
-7 -11 -31 -53 -55 -94 -24 -41 -52 -90 -64 -110 -11 -20 -30 -52 -41 -71 -26
-45 -81 -138 -102 -170 -8 -14 -16 -27 -16 -30 0 -3 -8 -16 -16 -30 -64 -102
-79 -128 -79 -138 0 -7 -4 -12 -9 -12 -5 0 -11 -8 -15 -17 -3 -10 -14 -31 -24
-48 -11 -16 -28 -46 -39 -65 -11 -19 -49 -84 -85 -145 -35 -60 -71 -121 -79
-135 -8 -14 -17 -27 -20 -30 -3 -3 -8 -9 -10 -15 -6 -15 -83 -147 -145 -250
-30 -49 -59 -102 -65 -117 -6 -16 -15 -28 -20 -28 -5 0 -9 -5 -9 -10 0 -6 -18
-40 -40 -76 -22 -36 -40 -70 -40 -75 0 -5 -3 -9 -7 -9 -5 0 -13 -10 -19 -23
-8 -17 -156 -270 -214 -367 -5 -8 -29 -49 -53 -90 -24 -41 -63 -108 -86 -148
l-43 -72 -19 21 c-11 12 -19 28 -19 35 0 7 -3 14 -7 16 -11 4 -83 124 -83 136
0 6 -4 12 -8 14 -4 2 -55 82 -112 178 -57 96 -107 177 -112 178 -4 2 -8 12 -8
22 0 10 -3 20 -8 22 -6 3 -74 111 -108 173 -6 11 -36 61 -67 112 -31 50 -57
96 -57 102 0 6 -4 11 -9 11 -5 0 -11 8 -15 18 -3 9 -26 50 -51 90 -25 41 -45
76 -45 78 0 2 -8 13 -18 24 -9 11 -17 24 -17 28 0 4 -8 18 -17 32 -52 82 -88
141 -88 146 0 3 -12 24 -27 47 -43 65 -53 81 -60 97 -4 8 -22 38 -40 67 -18
29 -33 57 -33 63 0 5 -4 10 -9 10 -5 0 -11 8 -14 18 -6 18 -38 73 -48 82 -3 3
-20 32 -39 65 -19 33 -36 62 -40 65 -3 3 -12 20 -19 38 -8 17 -17 32 -21 32
-5 0 -10 6 -12 13 -2 10 -34 63 -143 245 -27 45 -72 120 -85 143 -63 108 -136
225 -145 231 -5 4 -6 8 -1 8 5 0 2 8 -6 18 -12 14 -62 96 -78 127 -3 6 -39 65
-80 133 -89 146 -101 166 -127 212 -11 19 -49 82 -85 140 -35 58 -67 113 -71
123 -6 16 -69 17 -1127 17 l-1120 0 75 -115 c41 -64 75 -120 75 -125 0 -6 3
-10 8 -10 4 0 18 -20 32 -45 14 -25 28 -45 33 -45 4 0 5 -4 2 -10 -3 -5 -2
-10 2 -10 5 0 17 -15 27 -32 11 -18 48 -77 83 -131 34 -53 63 -101 63 -106 0
-5 3 -11 8 -13 9 -4 62 -82 62 -91 0 -5 9 -17 20 -29 11 -12 20 -28 20 -35 0
-7 4 -13 9 -13 5 0 14 -13 21 -30 7 -16 16 -30 21 -30 5 0 9 -4 9 -10 0 -8 84
-145 108 -175 4 -5 34 -53 67 -105 33 -52 63 -96 67 -98 4 -2 8 -8 8 -12 0 -9
36 -67 65 -105 8 -10 15 -25 15 -32 0 -7 5 -13 10 -13 6 0 14 -8 17 -17 8 -21
150 -243 169 -264 8 -8 14 -18 14 -22 0 -10 144 -232 152 -235 5 -2 8 -7 8
-12 0 -5 40 -71 89 -147 50 -76 118 -183 153 -238 34 -55 66 -101 70 -103 5
-2 8 -8 8 -12 0 -5 10 -24 23 -43 20 -31 78 -120 234 -365 34 -53 67 -102 73
-109 5 -7 10 -14 10 -17 0 -3 39 -65 86 -138 48 -73 99 -153 115 -178 16 -25
32 -50 36 -56 16 -21 34 -50 50 -81 9 -18 20 -33 24 -33 3 0 12 -13 19 -30 7
-16 16 -30 21 -30 5 0 9 -4 9 -9 0 -9 248 -403 272 -432 7 -9 20 -28 28 -42 8
-15 59 -95 113 -179 54 -84 123 -191 152 -238 30 -47 59 -90 65 -97 5 -7 10
-17 10 -23 0 -5 4 -10 8 -10 5 0 14 -11 20 -25 10 -21 7 -31 -17 -67 -15 -24
-51 -79 -79 -123 -28 -44 -56 -87 -62 -95 -61 -90 -162 -249 -166 -262 -4 -10
-10 -18 -15 -18 -5 0 -9 -5 -9 -10 0 -9 -40 -76 -63 -105 -4 -5 -35 -53 -68
-105 -33 -52 -74 -114 -90 -138 -16 -23 -29 -47 -29 -52 0 -6 -4 -10 -10 -10
-5 0 -10 -4 -10 -10 0 -5 -17 -35 -39 -67 -47 -70 -114 -174 -121 -188 -3 -5
-31 -50 -64 -100 -32 -49 -73 -112 -91 -140 -18 -27 -71 -110 -119 -183 -47
-73 -86 -137 -86 -143 0 -5 -4 -9 -10 -9 -5 0 -10 -5 -10 -10 0 -6 -5 -16 -10
-23 -18 -20 -131 -199 -143 -224 -5 -13 -13 -23 -17 -23 -4 0 -13 -13 -20 -30
-7 -16 -16 -30 -21 -30 -5 0 -9 -7 -9 -15 0 -8 -4 -15 -10 -15 -5 0 -10 -4
-10 -9 0 -5 -50 -85 -110 -178 -61 -92 -114 -175 -118 -183 -7 -15 -96 -153
-239 -372 -40 -61 -73 -112 -73 -114 0 -1 -23 -38 -51 -81 -28 -43 -64 -98
-80 -123 -41 -63 -52 -79 -72 -105 -9 -13 -17 -26 -17 -30 0 -3 -22 -39 -50
-80 -27 -41 -50 -78 -50 -84 0 -5 -4 -11 -8 -13 -4 -1 -29 -37 -55 -78 -25
-41 -50 -80 -55 -86 -5 -5 -15 -21 -22 -34 -7 -13 -17 -29 -21 -34 -16 -20
-100 -150 -121 -188 -12 -21 -26 -38 -30 -38 -5 0 -7 -4 -4 -9 3 -5 -1 -14 -8
-21 -8 -6 -24 -30 -36 -52 -11 -22 -26 -46 -33 -53 -7 -7 -29 -39 -49 -71 -52
-81 -57 -88 -110 -172 -27 -40 -48 -75 -48 -77 0 -3 -13 -24 -29 -47 -97 -145
-131 -199 -131 -208 0 -5 -4 -10 -9 -10 -5 0 -14 -13 -21 -30 -7 -16 -16 -30
-19 -30 -4 0 -15 -15 -24 -32 -9 -18 -28 -50 -42 -70 l-25 -38 1086 0 c1077 0
1086 0 1091 20 3 11 8 20 12 20 4 0 15 15 24 32 10 18 26 47 37 63 11 17 23
38 26 47 4 10 10 18 14 18 4 0 10 8 14 18 3 9 15 31 26 47 11 17 23 37 27 45
3 8 10 17 13 20 4 3 17 23 29 45 12 22 51 87 86 144 36 57 65 105 65 108 0 2
10 19 23 36 26 38 37 55 73 120 15 26 31 47 36 47 4 0 8 6 8 13 0 7 16 36 35
66 19 29 35 57 35 62 0 5 3 9 8 9 4 0 16 18 26 40 11 22 23 40 28 40 4 0 8 4
8 9 0 8 140 242 244 406 17 28 36 59 43 70 6 11 45 73 85 138 40 65 84 138 98
162 14 24 33 52 42 62 10 11 18 23 18 27 0 5 29 55 65 113 36 57 65 109 65
114 0 5 3 9 8 9 4 0 16 17 27 37 11 21 36 63 56 93 19 30 44 71 55 90 10 19
22 37 25 40 4 3 21 30 38 60 42 72 52 89 76 125 11 16 25 39 31 50 25 45 85
141 99 160 8 10 15 23 15 27 0 5 9 18 20 30 11 12 20 28 20 35 0 7 5 13 12 13
6 0 9 3 5 6 -3 4 5 21 18 39 14 17 25 37 25 43 0 7 4 12 8 12 5 0 16 15 25 32
9 18 27 50 39 70 13 20 57 92 98 160 41 68 79 128 83 133 9 10 33 50 83 137
l27 47 21 -26 c11 -15 27 -39 36 -55 8 -15 48 -80 88 -145 39 -65 80 -131 90
-148 9 -16 19 -32 22 -35 3 -3 11 -16 19 -30 8 -14 73 -119 143 -234 70 -114
128 -212 128 -216 0 -5 4 -10 8 -12 10 -4 72 -105 72 -118 0 -6 4 -10 8 -10 4
0 21 -25 37 -55 17 -30 33 -55 38 -55 4 0 7 -4 7 -9 0 -5 39 -71 86 -147 47
-77 89 -146 94 -154 5 -8 37 -59 70 -112 33 -54 60 -102 60 -108 0 -5 3 -10 8
-10 6 0 44 -57 47 -70 0 -3 8 -16 17 -30 59 -93 88 -142 88 -149 0 -5 3 -11 8
-13 9 -4 72 -107 72 -119 0 -5 4 -9 8 -9 5 0 17 -18 28 -40 10 -22 22 -40 27
-40 4 0 7 -5 7 -11 0 -6 13 -30 30 -54 16 -24 30 -48 30 -54 0 -5 7 -14 16
-19 9 -5 15 -12 14 -16 -1 -7 69 -127 80 -136 3 -3 11 -16 18 -30 15 -30 33
-60 70 -117 15 -23 55 -89 90 -145 34 -57 96 -157 137 -223 41 -66 107 -174
147 -239 40 -66 88 -142 105 -170 18 -28 36 -58 40 -66 7 -15 46 -76 60 -95 5
-5 17 -27 28 -47 l20 -38 1158 0 1158 0 -18 30 c-9 16 -21 30 -25 30 -4 0 -8
6 -8 13 0 6 -9 23 -20 37 -11 14 -57 81 -103 150 -45 69 -86 128 -92 132 -7 5
-7 8 0 8 6 0 5 4 -1 8 -11 7 -88 120 -128 186 -10 17 -22 32 -27 34 -5 2 -9 8
-9 13 0 6 -5 15 -10 22 -20 23 -170 250 -170 257 0 4 -9 15 -20 25 -11 10 -20
24 -20 32 0 7 -4 13 -10 13 -5 0 -10 7 -10 15 0 8 -4 15 -10 15 -5 0 -10 5
-10 11 0 6 -6 17 -12 24 -26 29 -38 44 -38 49 0 6 -102 160 -110 166 -4 3 -9
10 -11 15 -2 6 -125 191 -274 412 -148 222 -277 415 -285 430 -8 15 -20 32
-26 38 -6 5 -69 98 -139 205 -71 107 -133 197 -137 198 -4 2 -8 8 -8 13 0 11
-42 72 -52 77 -5 2 -8 7 -8 12 0 7 -107 170 -128 196 -5 5 -15 21 -22 35 -7
13 -16 26 -19 29 -6 5 -116 169 -136 202 -35 59 -692 1035 -703 1045 -7 6 -14
15 -14 20 -1 4 -82 129 -182 278 -100 148 -191 286 -204 307 l-23 38 38 57
c21 32 45 70 52 86 8 15 18 27 23 27 4 0 8 4 8 10 0 5 48 85 106 177 59 92
124 195 145 228 21 33 43 66 49 73 6 6 7 12 3 12 -4 0 -3 4 2 8 6 4 49 68 95
142 47 74 90 141 97 148 7 7 13 17 13 22 0 5 22 41 48 82 27 40 91 141 142
223 52 83 98 152 102 153 4 2 8 8 8 13 0 5 32 60 72 122 39 61 86 135 103 162
18 28 52 82 76 120 24 39 46 72 49 75 4 3 10 12 13 20 4 8 15 27 25 42 208
328 268 424 271 432 2 6 8 15 13 21 13 15 98 146 98 151 0 3 23 38 50 79 28
41 50 79 50 85 0 5 5 10 10 10 6 0 10 5 10 10 0 6 24 47 54 93 29 45 70 109
91 142 21 33 56 86 77 118 21 32 38 61 38 64 0 3 10 19 23 36 12 17 27 39 32
49 6 9 30 49 55 88 25 39 52 82 60 96 8 13 45 72 83 130 37 58 67 110 67 115
0 5 5 9 10 9 6 0 14 10 19 23 9 23 50 90 71 114 5 7 10 15 10 18 0 4 11 21 25
39 14 18 25 38 25 44 0 7 4 12 9 12 5 0 11 8 14 18 3 9 36 62 72 117 36 55 68
108 72 118 3 9 8 17 12 17 3 0 17 20 30 45 13 25 28 45 32 45 5 0 8 3 7 8 -2
7 49 92 61 102 4 3 12 16 19 30 13 28 34 62 42 70 11 10 112 181 109 183 -2 1
-492 1 -1089 -1z"/>
</g>
</svg>
