<svg xmlns="http://www.w3.org/2000/svg" xmlns:xlink="http://www.w3.org/1999/xlink" viewBox="0 0 176.57 37.37"><defs><clipPath id="a" transform="translate(-1.32 -0.57)"><rect width="178" height="39.84" style="fill:none"/></clipPath></defs><title>alves_ventures</title><g style="clip-path:url(#a)"><rect x="0.01" y="0.29" width="62.7" height="37.08" style="fill:none"/><path d="M79.5,12.38,77.62,7.23a8.36,8.36,0,0,1-.29-.82c-.1-.31-.2-.65-.3-1-.09.36-.19.7-.29,1s-.2.59-.29.83l-1.87,5.13Zm5.09,5.84H82.36a1,1,0,0,1-.61-.18,1.14,1.14,0,0,1-.35-.47l-1.16-3.16H73.83l-1.16,3.16a1.14,1.14,0,0,1-.33.45,1,1,0,0,1-.61.2H69.48L75.57,2.74h2.94Zm10.66-2.38v2.38H86.19V2.74h2.88v13.1Zm13.48-13.1-6.25,15.48h-2.6L93.63,2.74h2.31a1,1,0,0,1,.61.18,1.12,1.12,0,0,1,.36.47l3.65,9.45c.12.3.23.64.34,1s.22.75.32,1.15c.09-.4.18-.78.28-1.15a9.23,9.23,0,0,1,.33-1l3.63-9.45a1,1,0,0,1,.33-.45,1,1,0,0,1,.62-.2ZM113.23,5V9.32h5.41v2.22h-5.41v4.38h6.87v2.3h-9.76V2.74h9.76V5Zm17.66.53a.94.94,0,0,1-.28.33.63.63,0,0,1-.35.09.94.94,0,0,1-.49-.16l-.62-.37a4.28,4.28,0,0,0-.86-.36,3.25,3.25,0,0,0-1.14-.18,3.32,3.32,0,0,0-1.05.15,2.28,2.28,0,0,0-.76.4,1.63,1.63,0,0,0-.45.62,2,2,0,0,0-.15.78,1.37,1.37,0,0,0,.3.91,2.36,2.36,0,0,0,.81.62,7.25,7.25,0,0,0,1.15.46l1.31.44a10.76,10.76,0,0,1,1.32.54,4.09,4.09,0,0,1,1.14.77,3.33,3.33,0,0,1,.81,1.13,3.87,3.87,0,0,1,.31,1.64,5.15,5.15,0,0,1-.37,2,4.47,4.47,0,0,1-1,1.6A5.09,5.09,0,0,1,128.79,18a6.41,6.41,0,0,1-2.28.38,7.81,7.81,0,0,1-2.83-.56,6.51,6.51,0,0,1-1.23-.64,6.13,6.13,0,0,1-1-.83l.84-1.38a1,1,0,0,1,.28-.25.72.72,0,0,1,.37-.11,1.05,1.05,0,0,1,.58.23l.73.48a6.21,6.21,0,0,0,1,.49,4.08,4.08,0,0,0,1.38.22,2.89,2.89,0,0,0,1.91-.58,2.1,2.1,0,0,0,.67-1.68,1.53,1.53,0,0,0-.31-1,2.46,2.46,0,0,0-.8-.64,5.74,5.74,0,0,0-1.15-.45c-.43-.12-.86-.25-1.31-.4a10.93,10.93,0,0,1-1.3-.51,4.32,4.32,0,0,1-1.15-.78,3.73,3.73,0,0,1-.81-1.2,4.72,4.72,0,0,1-.3-1.79,4.18,4.18,0,0,1,1.32-3.07,4.75,4.75,0,0,1,1.58-1,6,6,0,0,1,2.16-.37,7.11,7.11,0,0,1,2.53.43,5.52,5.52,0,0,1,2,1.2Z" transform="translate(-1.32 -0.57)" style="fill:#144d8f"/><path d="M84.3,21.89,78.05,37.23H76.19L69.94,21.89H71.6a.73.73,0,0,1,.45.14.9.9,0,0,1,.25.35L76.63,33.2c.09.25.18.51.26.8a7.35,7.35,0,0,1,.25.9c.07-.32.15-.62.23-.9a7.55,7.55,0,0,1,.25-.8l4.32-10.82a.74.74,0,0,1,.24-.33.68.68,0,0,1,.46-.16ZM95.78,35.54v1.69H86.32V21.89h9.45v1.69H88.4v5.1h6V30.3h-6v5.24ZM111.1,21.89V37.23h-1a.87.87,0,0,1-.42-.09.91.91,0,0,1-.32-.28l-8.88-11.57c0,.18,0,.36,0,.53s0,.33,0,.48V37.23H98.68V21.89h1.07l.23,0a.43.43,0,0,1,.17.06.44.44,0,0,1,.15.1.88.88,0,0,1,.16.17l8.88,11.55c0-.18,0-.36,0-.53s0-.35,0-.5V21.89Zm14.3,1.75h-5V37.23h-2.07V23.64h-5V21.89h12Zm8.19,11.94a4.38,4.38,0,0,0,1.71-.32,3.46,3.46,0,0,0,1.26-.9,3.75,3.75,0,0,0,.79-1.38,5.26,5.26,0,0,0,.28-1.77V21.89h2.07v9.32a7.08,7.08,0,0,1-.43,2.47,5.76,5.76,0,0,1-1.21,2,5.55,5.55,0,0,1-1.92,1.29,7.13,7.13,0,0,1-5.09,0,5.69,5.69,0,0,1-1.93-1.29,5.78,5.78,0,0,1-1.22-2,7.08,7.08,0,0,1-.42-2.47V21.89h2.07V31.2a5.52,5.52,0,0,0,.27,1.77,3.92,3.92,0,0,0,.79,1.38,3.65,3.65,0,0,0,1.27.91A4.45,4.45,0,0,0,133.59,35.58Zm14.08-6.26a5.07,5.07,0,0,0,1.58-.22,3.14,3.14,0,0,0,1.16-.62,2.54,2.54,0,0,0,.7-1,3.07,3.07,0,0,0,.24-1.23,2.47,2.47,0,0,0-.9-2.07,4.4,4.4,0,0,0-2.7-.69h-2.27v5.79Zm7.08,7.91h-1.84a.91.91,0,0,1-.83-.44l-4-5.48a1.2,1.2,0,0,0-.4-.36,1.32,1.32,0,0,0-.64-.12h-1.58v6.4h-2.06V21.89h4.33a9.36,9.36,0,0,1,2.52.3A4.5,4.5,0,0,1,152,23a3.34,3.34,0,0,1,1,1.34,4.52,4.52,0,0,1,.33,1.76,4.45,4.45,0,0,1-.25,1.52,4.26,4.26,0,0,1-.75,1.27,4.73,4.73,0,0,1-1.19,1,6.11,6.11,0,0,1-1.59.6,1.94,1.94,0,0,1,.69.65Zm11.55-1.69v1.69h-9.45V21.89h9.45v1.69h-7.37v5.1h6V30.3h-6v5.24ZM177,24.29a.63.63,0,0,1-.21.24.46.46,0,0,1-.27.08.79.79,0,0,1-.43-.18,5.64,5.64,0,0,0-.62-.4,5,5,0,0,0-.89-.41,3.8,3.8,0,0,0-1.25-.18,3.6,3.6,0,0,0-1.23.2,2.49,2.49,0,0,0-.89.5,2,2,0,0,0-.53.76,2.18,2.18,0,0,0-.19.93,1.83,1.83,0,0,0,.31,1.07,3,3,0,0,0,.84.72,6.76,6.76,0,0,0,1.18.52l1.35.45a14.41,14.41,0,0,1,1.34.54,4.29,4.29,0,0,1,1.18.74,3.19,3.19,0,0,1,.84,1.1,3.65,3.65,0,0,1,.32,1.6,5.21,5.21,0,0,1-.35,1.9,4.32,4.32,0,0,1-1,1.53,4.69,4.69,0,0,1-1.62,1,5.88,5.88,0,0,1-2.17.37,6.8,6.8,0,0,1-2.72-.53,6.68,6.68,0,0,1-2.09-1.47l.6-1a1,1,0,0,1,.21-.19.43.43,0,0,1,.27-.08.65.65,0,0,1,.32.11l.4.28c.15.12.32.24.52.38a4.43,4.43,0,0,0,.65.37,4.59,4.59,0,0,0,.84.29,4.93,4.93,0,0,0,1.06.11,3.85,3.85,0,0,0,1.32-.21,2.64,2.64,0,0,0,1-.56,2.54,2.54,0,0,0,.63-.89,3,3,0,0,0,.21-1.15,1.89,1.89,0,0,0-.32-1.13,2.51,2.51,0,0,0-.83-.75,5.22,5.22,0,0,0-1.17-.5l-1.35-.43a13,13,0,0,1-1.35-.52,4.23,4.23,0,0,1-1.18-.75,3.36,3.36,0,0,1-.83-1.14,4.15,4.15,0,0,1-.31-1.71,4.08,4.08,0,0,1,.31-1.58,4.21,4.21,0,0,1,.92-1.35,4.57,4.57,0,0,1,1.49-.94,5.57,5.57,0,0,1,2-.35,6.2,6.2,0,0,1,2.33.41,5.44,5.44,0,0,1,1.86,1.17Z" transform="translate(-1.32 -0.57)" style="fill:#144d8f"/></g><path d="M41.7,37.55,23.11,6.66,6.8,34.28h6.67a.39.39,0,0,0,.39-.21c1.15-1.92,2.32-3.84,3.48-5.75l5.42-8.93.35-.57L34.36,37.44l-.2,0H31a.34.34,0,0,1-.34-.19q-1.84-3.08-3.7-6.15-1.43-2.37-2.87-4.74c-.27-.45-.55-.9-.82-1.36l-.16-.24-.53.86L20,29.9q-1.92,3.18-3.85,6.36c-.2.34-.41.67-.61,1a.35.35,0,0,1-.34.2H1.32L23.09.64l18.6,30.91L58.37,3.74h-7.1a.45.45,0,0,0-.44.24Q47.94,8.81,45,13.62q-1.64,2.7-3.26,5.41l-.14.2L30.5.57h1.6c.59,0,1.18,0,1.77,0a.36.36,0,0,1,.36.22q.83,1.42,1.68,2.85l2.17,3.62,2.86,4.82c.22.37.45.73.69,1.14.11-.16.2-.28.28-.41l4.33-7.19L49.16.77a.36.36,0,0,1,.34-.2c4.71,0,9.42,0,14.13,0h.23Z" transform="translate(-1.32 -0.57)" style="fill:#144d8f"/></svg>