<svg width="124" height="60" viewBox="0 0 124 60" fill="none" xmlns="http://www.w3.org/2000/svg">
<path fill-rule="evenodd" clip-rule="evenodd" d="M115.827 22.2114C111.348 26.0124 107.584 29.1916 107.462 29.2762C107.249 29.4241 107.169 29.3698 105.473 27.9217C104.502 27.092 103.705 26.3673 103.704 26.3113C103.702 26.2553 104.502 25.4681 105.482 24.562L107.264 22.9145L108.062 23.6459C108.501 24.0483 109.062 24.5545 109.31 24.7711L109.76 25.1647L110.848 24.2171L111.937 23.2695L110.574 21.966C109.824 21.2491 108.77 20.2504 108.231 19.7468L107.251 18.831L104.338 21.6357C102.421 23.4809 101.382 24.4138 101.299 24.3626C101.23 24.3198 98.7987 22.2746 95.8969 19.8176C92.995 17.3607 90.5977 15.3735 90.5695 15.4017C90.5414 15.4298 91.3004 19.7327 92.2563 24.9638C93.2122 30.1949 93.9943 34.5046 93.9943 34.5408C93.9943 34.577 99.9683 34.6066 107.27 34.6066H120.545L120.652 34.0723C121.141 31.6171 124.023 15.6028 124 15.4706C123.979 15.3518 121.515 17.3835 115.827 22.2114ZM6.35896 22.0305C3.7643 22.5791 1.83215 24.0201 0.755286 26.2095C0.115782 27.5096 -0.00289868 28.1016 5.30304e-05 29.9755C0.00259761 31.5489 0.0139995 31.6368 0.336856 32.571C1.42899 35.7303 4.13011 37.7016 7.67594 37.9271C9.79639 38.062 11.7731 37.3941 13.179 36.0678C13.8008 35.4812 14.7052 34.3161 14.7052 34.1016C14.7052 34.0606 14.0529 33.7181 13.2557 33.3406C11.9233 32.7096 11.7979 32.6691 11.7035 32.8378C11.647 32.9389 11.3516 33.2884 11.0471 33.6146C10.017 34.7178 8.55361 35.1476 7.09842 34.7744C4.91761 34.2151 3.59229 32.5681 3.44145 30.23C3.33804 28.6282 3.85296 27.2489 4.94224 26.2099C6.94218 24.3023 10.1398 24.5436 11.5075 26.7056L11.7893 27.151L13.1709 26.4964C13.9308 26.1364 14.5954 25.7993 14.6478 25.7472C14.7855 25.6104 13.8796 24.3279 13.2186 23.7238C12.4766 23.0456 11.6606 22.5653 10.6837 22.2316C9.97929 21.9911 9.67984 21.9497 8.44552 21.9223C7.50901 21.9014 6.79378 21.9386 6.35896 22.0305ZM76.9965 21.9482C73.2009 22.6767 70.7698 25.2488 70.3932 28.934C70.025 32.5368 71.6216 35.616 74.6013 37.0498C76.0696 37.7564 76.7532 37.9062 78.4724 37.8981C80.1453 37.8902 81.0507 37.6928 82.3402 37.0549C84.3126 36.0791 85.6354 34.4515 86.275 32.2134C86.5874 31.1203 86.6111 28.8241 86.3212 27.7363C85.5683 24.9106 83.5553 22.8845 80.7625 22.1412C80.1137 21.9686 77.5697 21.8381 76.9965 21.9482ZM16.1302 29.8737V37.6601H17.8096H19.489V34.912V32.1638H20.6469H21.8048L23.3187 34.9113L24.8326 37.6586L26.792 37.6594C27.8695 37.6598 28.7513 37.6417 28.7513 37.6192C28.7513 37.5967 27.9769 36.28 27.0305 34.693C25.3973 31.9545 25.3209 31.8029 25.5292 31.716C27.2803 30.9853 28.2279 29.8877 28.5536 28.2127C28.7116 27.4005 28.6236 26.0933 28.3598 25.3336C27.7819 23.6696 26.4361 22.5619 24.5928 22.2332C24.0295 22.1327 22.7544 22.0934 19.9725 22.0909L16.1302 22.0873V29.8737ZM28.5477 22.1876C28.5477 22.2427 29.876 24.3337 31.4994 26.8342L34.4511 31.3805V34.5203V37.6601H36.1306H37.81V34.5059V31.3517L40.7163 26.8662C42.3147 24.3992 43.648 22.3147 43.6789 22.234C43.7268 22.1094 43.4459 22.0875 41.8159 22.0889L39.8965 22.0907L38.0207 25.1424C36.9889 26.8209 36.1366 28.1943 36.1264 28.1943C36.1163 28.1943 35.2657 26.8225 34.2363 25.1458L32.3646 22.0973L30.4562 22.0923C29.2675 22.0891 28.5477 22.1252 28.5477 22.1876ZM44.6295 29.8737V37.6601H46.3089H47.9883V34.912V32.1638L50.253 32.1621C53.4743 32.1596 54.4345 31.9143 55.6091 30.7938C56.6467 29.8042 57.0918 28.6784 57.0795 27.0747C57.0599 24.5079 55.5443 22.6707 53.0845 22.2318C52.5303 22.133 51.2358 22.0934 48.4718 22.0909L44.6295 22.0873V29.8737ZM57.6577 23.614V25.1408H59.897H62.1362V31.4005V37.6601H63.8665H65.5968V31.4005V25.1408H67.8361H70.0753V23.614V22.0873H63.8665H57.6577V23.614ZM101.426 27.838L107.069 32.4183L104.501 32.4455C103.089 32.4604 100.795 32.4604 99.4036 32.4455L96.8738 32.4183L98.4419 30.9933C99.3044 30.2096 100.125 29.4483 100.266 29.3015L100.522 29.0346L99.5736 28.2934C99.0522 27.8858 98.5674 27.5073 98.4964 27.4522C98.4018 27.3787 98.0452 27.6702 97.1581 28.5465C95.9694 29.7205 95.9478 29.7359 95.8899 29.451C95.8575 29.2916 95.6237 27.7643 95.3702 26.0568C95.1169 24.3494 94.8847 22.8436 94.854 22.7107C94.8027 22.4879 94.8371 22.5 95.2904 22.8634C95.561 23.0803 98.3219 25.3189 101.426 27.838ZM119.205 26.19L118.671 29.7327L117.437 28.5564C116.758 27.9094 116.17 27.38 116.131 27.38C116.04 27.38 114.057 28.9383 114.051 29.0151C114.048 29.0466 114.875 29.8253 115.888 30.7454L117.731 32.4183L115.118 32.4455C113.68 32.4604 111.371 32.4604 109.986 32.4455L107.467 32.4183L113.581 27.4582C116.943 24.7301 119.705 22.5316 119.717 22.5726C119.729 22.6136 119.499 24.2413 119.205 26.19ZM79.6921 25.0597C81.579 25.5334 82.8802 27.2411 83.0588 29.4784C83.3404 33.0063 80.4894 35.5985 77.2546 34.756C76.3904 34.5309 75.7281 34.1351 75.1383 33.4913C73.1368 31.3069 73.4857 27.3002 75.8165 25.7049C76.9378 24.9372 78.3009 24.7104 79.6921 25.0597ZM24.0486 25.404C24.6713 25.7143 24.9422 26.0577 25.0976 26.7332C25.2539 27.4128 25.0805 28.0213 24.591 28.5107C24.0086 29.0932 23.451 29.2121 21.3026 29.2121H19.489V27.1765V25.1408H21.5047C23.4686 25.1408 23.534 25.1475 24.0486 25.404ZM52.4159 25.3344C52.8954 25.5571 53.2254 25.8545 53.418 26.2379C53.9247 27.2457 53.5291 28.4207 52.5241 28.8931C52.1004 29.0922 51.8924 29.1103 50.0251 29.1103H47.9883V27.1256V25.1408L49.9985 25.143C51.7405 25.145 52.0631 25.1705 52.4159 25.3344ZM55.5712 43.5274C53.8481 43.8059 52.4351 44.5816 51.6476 45.6814C50.5112 47.2683 50.5785 49.6225 51.7989 50.9734C52.6245 51.8872 53.7279 52.3779 56.508 53.0673C59.0456 53.6966 59.6934 54.0614 59.6934 54.8613C59.6934 56.5465 56.6404 57.0392 54.0944 55.7649C53.6502 55.5425 53.0366 55.132 52.7309 54.8525L52.175 54.3446L51.3231 55.5446C50.8546 56.2045 50.4346 56.8052 50.3897 56.8793C50.2288 57.1449 51.2101 57.9529 52.4485 58.5744C53.4998 59.102 54.9071 59.4357 56.3854 59.5081C59.6428 59.6674 61.9615 58.5506 62.8626 56.3883C63.0626 55.9084 63.0964 55.6467 63.0996 54.5562C63.1028 53.3839 63.0817 53.238 62.8295 52.7C62.1555 51.2618 60.8275 50.4894 57.6076 49.6626C55.6489 49.1597 54.7838 48.8391 54.5166 48.517C54.2655 48.2146 54.2669 47.7084 54.52 47.335C54.8939 46.7832 55.3305 46.5848 56.2749 46.538C57.7106 46.4666 59.412 46.9916 60.4454 47.8248C60.663 48.0003 60.8783 48.1438 60.9238 48.1438C60.9693 48.1438 61.4226 47.5827 61.9309 46.897L62.8551 45.6501L62.5211 45.3677C61.6561 44.6361 60.4024 44.0342 59.0827 43.7168C58.4198 43.5575 56.1445 43.4347 55.5712 43.5274ZM82.3605 43.6649C79.0168 44.3697 76.6164 47.085 76.3007 50.5196C76.042 53.3341 76.8547 55.6873 78.673 57.3882C80.3065 58.9162 82.5701 59.6761 84.9813 59.5055C88.3368 59.2682 90.9262 57.3826 91.9874 54.4035C92.5166 52.918 92.6069 50.7975 92.2066 49.2634C91.4357 46.3091 89.1429 44.1923 86.0785 43.606C85.0524 43.4097 83.4511 43.435 82.3605 43.6649ZM112.468 43.6038C110.546 43.976 109.216 44.9172 108.513 46.401C108.21 47.0401 108.193 47.1385 108.193 48.2965C108.193 49.4234 108.215 49.5621 108.474 50.0888C108.629 50.4049 108.996 50.889 109.297 51.1733C110.19 52.0183 111.124 52.4101 113.842 53.0796C115.707 53.5389 116.309 53.7787 116.692 54.2152C117.029 54.5995 117.074 54.9273 116.848 55.3634C116.324 56.3768 114.635 56.7625 112.789 56.2904C111.774 56.0309 110.895 55.5871 110.077 54.9206L109.417 54.3835L108.525 55.6423C108.035 56.3346 107.633 56.9621 107.633 57.0367C107.633 57.1917 108.58 57.9557 109.263 58.352C109.873 58.706 110.954 59.107 111.846 59.3097C112.977 59.567 115.589 59.5379 116.622 59.2564C118.681 58.6953 120.023 57.3535 120.368 55.5123C120.539 54.6041 120.429 53.4711 120.1 52.7383C119.444 51.2773 117.883 50.3533 114.911 49.6669C113.136 49.257 112.348 48.9755 111.965 48.6137C111.361 48.044 111.526 47.2811 112.357 46.8047C112.725 46.5938 112.903 46.5664 113.893 46.5679C115.417 46.5701 116.531 46.9316 117.652 47.7875C117.917 47.9897 118.173 48.1412 118.222 48.1241C118.331 48.0857 120.051 45.7976 120.051 45.6914C120.051 45.6494 119.856 45.4479 119.618 45.2436C119.027 44.7362 117.525 44.0124 116.539 43.7606C115.483 43.4905 113.456 43.4124 112.468 43.6038ZM0.6591 51.4518V59.2382H2.33852H4.01795V51.4518V43.6653H2.33852H0.6591V51.4518ZM6.56253 51.4518V59.2382H8.24093H9.91944L9.9458 54.3026L9.97227 49.3671L13.58 54.3026L17.1878 59.2382H18.8473H20.5068V51.4518V43.6653H18.7775H17.0482L17.0218 48.4093L16.9953 53.1532L13.4984 48.4093L10.0016 43.6653H8.28206H6.56253V51.4518ZM21.3657 43.8435C21.4022 43.9414 22.7469 47.4452 24.3537 51.6296L27.2754 59.2376L29.4096 59.2124L31.5438 59.1873L34.5242 51.4542C36.1634 47.201 37.5046 43.7085 37.5046 43.6932C37.5046 43.6779 36.6389 43.6653 35.5807 43.6653H33.6568L33.5565 43.9453C32.5723 46.6918 29.438 55.3271 29.4177 55.3479C29.392 55.3743 29.0119 54.3344 26.1992 46.5407L25.1615 43.6653H23.2304C21.4339 43.6653 21.3039 43.6778 21.3657 43.8435ZM38.3189 51.4518V59.2382H43.8661H49.4133V57.7623V56.2865H45.5964H41.7795V54.5562V52.8258H45.4946H49.2097V51.35V49.8741H45.4946H41.7795V48.2965V46.7188H45.5964H49.4133V45.1921V43.6653H43.8661H38.3189V51.4518ZM63.5612 45.1921V46.7188H65.8004H68.0396V52.9785V59.2382H69.7699H71.5003V52.9785V46.7188H73.7395H75.9787V45.1921V43.6653H69.7699H63.5612V45.1921ZM94.1979 51.4431V59.2382H95.9282H97.6585V56.4867V53.7352L98.799 53.764L99.9394 53.7928L101.43 56.49L102.921 59.1873L104.882 59.215C106.672 59.2402 106.837 59.228 106.778 59.074C106.742 58.9813 105.978 57.6707 105.079 56.1618C104.18 54.6529 103.459 53.4063 103.478 53.3917C103.496 53.377 103.783 53.2424 104.115 53.0926C104.924 52.7274 105.546 52.1994 106.007 51.4873C106.576 50.6062 106.753 49.8251 106.699 48.4231C106.658 47.3511 106.627 47.2046 106.293 46.5019C106.095 46.0836 105.777 45.5638 105.587 45.3469C105.117 44.8105 104.173 44.217 103.366 43.9502C102.732 43.7409 102.475 43.7272 98.4474 43.6887L94.1979 43.648V51.4431ZM86.3771 46.9464C87.33 47.4173 87.9774 48.0872 88.4583 49.0997C89.5926 51.4885 88.8006 54.6251 86.7537 55.8496C84.9272 56.9423 82.4764 56.6147 81.0475 55.0872C80.0968 54.0707 79.6933 52.824 79.7721 51.1464C79.8728 49.0028 80.9906 47.3715 82.7886 46.7439C83.3563 46.5457 83.6257 46.5142 84.5358 46.5389C85.5435 46.5663 85.6603 46.5921 86.3771 46.9464ZM101.842 46.8347C102.781 47.149 103.305 47.9126 103.236 48.8645C103.181 49.6334 102.828 50.1737 102.169 50.498C101.712 50.7228 101.542 50.7415 99.6688 50.7724L97.6585 50.8054V48.7621V46.7188H99.5773C100.741 46.7188 101.632 46.7644 101.842 46.8347Z" fill="white"/>
<path fill-rule="evenodd" clip-rule="evenodd" d="M51.9575 0.0661937C51.0975 0.198003 49.6667 0.679947 48.985 1.06744C46.2312 2.63256 44.7783 5.64127 45.1483 9.01254C45.3598 10.9407 46.0598 12.4011 47.4183 13.7485C48.3511 14.6736 49.5283 15.3555 50.8418 15.7313C51.9416 16.0461 53.9944 16.1223 55.0711 15.8883C56.3141 15.6182 57.432 15.0327 58.3251 14.1843C59.1142 13.4347 59.9621 12.2904 59.8237 12.1615C59.7798 12.1207 59.1136 11.7879 58.3434 11.4219L56.9429 10.7567L56.7944 11.0439C56.5494 11.5177 55.7344 12.2612 55.1202 12.5712C54.3394 12.9654 53.5747 13.0958 52.7385 12.9773C50.2404 12.6235 48.6037 10.6716 48.5998 8.04152C48.5976 6.50846 49.1234 5.22355 50.1374 4.2848C52.2231 2.35387 55.129 2.65576 56.7994 4.97693L57.0082 5.26711L58.4566 4.5415C59.4494 4.04419 59.8822 3.7768 59.8322 3.69151C58.7996 1.92893 57.1905 0.673125 55.3672 0.206755C54.5896 0.00797183 52.8151 -0.0652085 51.9575 0.0661937ZM0.658691 8.05221V15.858L4.45012 15.8009C8.40379 15.7413 8.79657 15.7018 10.1652 15.2267C11.7624 14.6722 13.3847 13.3103 14.1117 11.9134C14.8217 10.5491 14.9599 9.89856 14.9544 7.94381C14.9499 6.34541 14.9288 6.15141 14.6771 5.39923C14.2871 4.23361 13.7504 3.37578 12.8472 2.47479C12.1883 1.81737 11.8865 1.60506 11.0151 1.18591C9.24279 0.333477 9.20553 0.328183 4.65368 0.28462L0.658691 0.246349V8.05221ZM16.8422 5.33938C16.8422 9.42384 16.8721 10.5754 16.9943 11.2145C17.436 13.5232 18.9968 15.1408 21.4225 15.8038C22.3668 16.0619 25.359 16.0571 26.3081 15.7958C28.5729 15.1723 30.0064 13.7875 30.6434 11.608C30.8011 11.0687 30.8266 10.37 30.8617 5.62824L30.9013 0.259174H29.1645H27.4277L27.4261 5.06843C27.4244 10.2613 27.3944 10.6169 26.8857 11.4851C26.2128 12.6333 24.8059 13.2017 23.1999 12.9742C22.0003 12.8044 21.0624 12.1311 20.5878 11.0991C20.3547 10.5922 20.3537 10.5692 20.3247 5.42468L20.2957 0.259174H18.569H16.8422V5.33938ZM32.4151 1.73503V3.21089H34.6543H36.8935V9.52145V15.832H38.6239H40.3542V9.52145V3.21089H42.5934H44.8326V1.73503V0.259174H38.6239H32.4151V1.73503ZM61.2197 8.04559V15.832H62.9501H64.6804V12.5749V9.31789H68.2428H71.8052V12.5749V15.832H73.5355H75.2658V8.04559V0.259174H73.5355H71.8052V3.26178V6.26439H68.2428H64.6804V3.26178V0.259174H62.9501H61.2197V8.04559ZM8.01457 3.36041C9.39261 3.65242 10.5235 4.51341 11.0832 5.69644C11.4357 6.44149 11.5441 6.98257 11.5471 8.01109C11.5512 9.50089 11.1077 10.5701 10.0837 11.5386C9.04217 12.5237 8.13945 12.7785 5.69197 12.7785H4.01754V7.9947V3.21089L5.67152 3.21262C6.71347 3.21374 7.58046 3.2685 8.01457 3.36041ZM94.3469 36.265C94.3858 36.5309 94.4636 36.9661 94.5197 37.2319L94.6215 37.7154H107.265H119.909L120.037 36.9266C120.107 36.4927 120.188 36.0576 120.216 35.9597C120.265 35.7907 119.601 35.7815 107.272 35.7815H94.2762L94.3469 36.265Z" fill="#FFA31F"/>
</svg>
