<svg width="116" height="93" viewBox="0 0 116 93" fill="none" xmlns="http://www.w3.org/2000/svg">
<path fill-rule="evenodd" clip-rule="evenodd" d="M21.0773 4.2833L16.8554 8.56275L16.8293 9.51326L16.8032 10.4637H21.1201H25.437V5.22996C25.437 2.35141 25.4061 -0.00201874 25.3682 1.29943e-06C25.3303 0.00211315 23.3994 1.92959 21.0773 4.2833Z" fill="url(#paint0_linear_426_2490)"/>
<path fill-rule="evenodd" clip-rule="evenodd" d="M36.5753 2.97723C34.9599 4.56415 33.0072 6.47538 32.2358 7.22427L30.8333 8.58595L30.8634 25.4428C30.8909 40.8322 30.9072 42.3836 31.0507 43.2637C32.5919 52.714 39.701 59.6626 49.1036 60.9094C50.3853 61.0793 53.3268 61.0531 54.6106 60.8604C61.9645 59.7564 68.005 55.0875 70.9026 48.268C71.897 45.9279 72.3071 43.9006 72.4167 40.7847C72.5226 37.777 72.7965 36.584 73.8506 34.5409C74.4788 33.3234 75.0855 32.5042 76.1083 31.4921C78.5177 29.1081 81.6768 27.9039 85.1282 28.0539C88.0077 28.1789 90.166 29.0228 92.6416 30.9917L92.9702 31.253L96.1022 28.2375L99.2342 25.2219L98.6978 24.7363C95.6164 21.9476 91.93 20.2059 87.6523 19.518C86.1623 19.2784 82.8286 19.2979 81.3193 19.555C77.5979 20.189 74.2928 21.6723 71.4382 23.9893C68.4781 26.3919 65.8936 30.1705 64.7233 33.8064C64.115 35.6963 63.8882 37.1347 63.7897 39.7287C63.7457 40.8903 63.6631 42.0885 63.6063 42.3915C62.8334 46.5117 59.8807 50.0419 55.9358 51.562C54.4785 52.1235 53.4111 52.3067 51.6276 52.3013C50.2809 52.2971 49.9279 52.2638 49.0485 52.0579C44.3824 50.9652 40.9295 47.4515 39.7748 42.6211C39.6198 41.9725 39.6073 40.7138 39.5613 21.0121L39.5123 0.0917969L36.5753 2.97723ZM16.888 37.6628V58.5059H21.2017H25.5155V37.6628V16.8197H21.2017H16.888V37.6628ZM50.0673 19.4525C49.9159 19.4713 49.2964 19.5665 48.6906 19.664C48.0848 19.7615 47.393 19.8685 47.1532 19.9018C46.8737 19.9407 46.7173 20.0078 46.7173 20.0888C46.7173 20.2055 46.9443 21.1852 48.1802 26.4018C48.4298 27.4552 48.6552 28.3382 48.681 28.3642C48.707 28.3901 49.0089 28.3547 49.3519 28.2854C49.7544 28.2041 50.5939 28.1606 51.7194 28.1626C53.316 28.1654 53.5458 28.187 54.4398 28.4175C56.6131 28.9776 58.4721 29.9983 60.0612 31.504C60.6453 32.0574 61.7307 33.4109 62.0589 33.9951C62.1708 34.1943 62.2899 34.3573 62.3236 34.3573C62.3573 34.3573 62.4588 34.0783 62.5491 33.7375C63.1335 31.5335 64.524 28.7338 66.1042 26.58L66.719 25.742L66.0765 25.1356C62.7044 21.9533 58.3138 19.9431 53.7456 19.4901C52.8077 19.3971 50.6867 19.3753 50.0673 19.4525ZM73.4267 47.5117C72.7118 49.7286 71.4059 52.1984 69.8833 54.213L69.5539 54.6489L70.182 55.2571C75.5933 60.497 83.669 62.3842 90.8907 60.0964C93.7029 59.2056 96.2364 57.7836 98.4024 55.8806L99.2288 55.1545L98.0955 54.0526C97.4723 53.4466 96.0656 52.0885 94.9695 51.0346C93.0027 49.1435 92.974 49.1204 92.7697 49.2708C92.6558 49.3546 92.2322 49.6711 91.8284 49.9741C90.8237 50.7279 88.9328 51.6551 87.8358 51.9318C84.0349 52.8905 80.2951 52.1729 77.2815 49.9066C76.1386 49.0472 74.9217 47.7059 74.2059 46.5166L73.9075 46.0208L73.4267 47.5117ZM28.9727 70.7792C28.939 70.8128 28.9115 71.9697 28.9115 73.3501V75.8598H29.3704H29.8293V73.2889V70.7179H29.4316C29.2128 70.7179 29.0063 70.7455 28.9727 70.7792ZM31.2716 70.7748C31.2355 70.8108 31.206 71.9697 31.206 73.3501V75.8598H31.6629H32.1199L32.1448 74.1103L32.1698 72.3608L33.4547 74.1082L34.7397 75.8554L35.223 75.8576L35.7063 75.8598L35.6819 73.3118L35.6575 70.7638H35.2445H34.8314L34.7856 72.5453L34.7397 74.3267L33.4088 72.5453C32.0928 70.7837 32.0738 70.7635 31.7075 70.7365C31.5038 70.7216 31.3075 70.7388 31.2716 70.7748ZM36.5006 70.7774C36.466 70.812 36.4376 70.9987 36.4376 71.1923V71.5443H37.2178H37.9979V73.7021V75.8598H38.4552H38.9124L38.9371 73.725L38.9617 71.5902L39.7699 71.5636L40.578 71.537L40.55 71.1504L40.522 70.7638L38.5428 70.7391C37.4541 70.7255 36.5352 70.7428 36.5006 70.7774ZM41.3633 70.7792C41.3296 70.8128 41.3021 71.9697 41.3021 73.3501V75.8598H43.1837H45.0652V75.4925V75.1253H43.6426H42.2199V74.4366V73.748H43.459H44.6981V73.3348V72.9216H43.459H42.2199V72.2329V71.5443H43.5967H44.9734V71.1311V70.7179H43.199C42.223 70.7179 41.3969 70.7455 41.3633 70.7792ZM46.2354 70.7693C46.1975 70.8084 46.1666 71.9697 46.1666 73.3501V75.8598H46.6255H47.0844V75.1253V74.3907L47.7957 74.3928L48.507 74.3949L48.9237 75.1044L49.3404 75.8139L49.8701 75.8416L50.3997 75.8693L49.8486 75.0494L49.2976 74.2295L49.6693 73.9306C50.117 73.5707 50.2968 73.1763 50.2968 72.5543C50.2968 71.7477 49.9722 71.251 49.24 70.9371C48.9741 70.8231 48.5232 70.7691 47.5892 70.7393C46.8825 70.7167 46.2733 70.7303 46.2354 70.7693ZM51.5512 70.7792C51.5175 70.8128 51.49 71.9697 51.49 73.3501V75.8598H51.9489H52.4078V74.0992V72.3386L53.7157 74.0955L55.0236 75.8524L55.4595 75.8561L55.8955 75.8598V73.2889V70.7179H55.4844H55.0733L55.0485 72.5241L55.0236 74.3302L53.669 72.5241C52.3221 70.7282 52.3123 70.7179 51.9633 70.7179C51.7703 70.7179 51.5848 70.7455 51.5512 70.7792ZM58.7372 71.1541C58.6295 71.3939 58.1694 72.4364 57.7146 73.4708C57.26 74.5051 56.8288 75.4657 56.7564 75.6056L56.6251 75.8598H57.1248H57.6244L57.8379 75.3089L58.0515 74.758H59.3385H60.6255L60.8442 75.3089L61.063 75.8598H61.5528H62.0426L61.83 75.3778C61.7131 75.1126 61.2324 74.0074 60.7617 72.9216C60.2911 71.8358 59.8658 70.8959 59.8169 70.8327C59.768 70.7696 59.549 70.7179 59.3304 70.7179C58.9449 70.7179 58.927 70.731 58.7372 71.1541ZM61.6778 71.1294V71.5443H62.458H63.2381V73.7021V75.8598H63.697H64.1559V73.7021V71.5443H64.9872H65.8186L65.7903 71.1541L65.7621 70.7638L63.72 70.7391L61.6778 70.7144V71.1294ZM66.6078 70.7748C66.5717 70.8108 66.5423 71.9697 66.5423 73.3501V75.8598H67.0027H67.463L67.4386 73.3118L67.4142 70.7638L67.0438 70.7365C66.84 70.7216 66.6438 70.7388 66.6078 70.7748ZM70.3316 70.8511C69.378 71.1493 68.6925 71.8209 68.4583 72.6866C68.2047 73.624 68.6097 74.7891 69.3818 75.344C70.0041 75.7911 70.3638 75.906 71.1342 75.9034C71.999 75.9005 72.7101 75.5874 73.1943 74.9963C74.4134 73.5079 73.7409 71.4212 71.8624 70.8632C71.2809 70.6905 70.8562 70.6871 70.3316 70.8511ZM74.7721 70.7792C74.7385 70.8128 74.7109 71.9697 74.7109 73.3501V75.8598H75.1678H75.6248L75.6497 74.0937L75.6746 72.3276L76.9919 74.0937L78.3093 75.8598H78.7602H79.2112L79.1868 73.3118L79.1624 70.7638H78.7494H78.3363L78.3114 72.5463L78.2864 74.3287L76.9913 72.5922C76.2789 71.6371 75.65 70.8252 75.5936 70.7882C75.465 70.7036 74.8543 70.6969 74.7721 70.7792ZM82.1751 70.8283C82.1068 70.917 80.1507 75.2868 79.9578 75.7813C79.941 75.8245 80.1384 75.8598 80.3964 75.8598H80.8656L81.1044 75.3089L81.3432 74.758H82.6042H83.8652L84.104 75.3089L84.3428 75.8598H84.8106C85.2146 75.8598 85.2712 75.838 85.2263 75.6991C85.1977 75.6108 84.702 74.4642 84.1247 73.1511L83.0751 70.7638L82.6709 70.7365C82.419 70.7194 82.2324 70.7539 82.1751 70.8283ZM86.0657 70.7748C86.0296 70.8108 86.0002 71.9697 86.0002 73.3501V75.8598H87.5657H89.1313L89.1031 75.4696L89.0749 75.0794L87.9981 75.0535L86.9214 75.0277L86.8967 72.8957L86.8721 70.7638L86.5017 70.7365C86.2979 70.7216 86.1017 70.7388 86.0657 70.7748ZM48.6902 71.6456C49.1865 71.7706 49.3822 71.977 49.4362 72.4324C49.5283 73.208 49.0267 73.564 47.8416 73.5641L47.0844 73.5643V72.5543V71.5443H47.6862C48.0173 71.5443 48.469 71.5898 48.6902 71.6456ZM71.6104 71.6402C72.6141 71.919 73.1468 73.1048 72.7018 74.0693C72.0616 75.457 70.0977 75.4593 69.4683 74.0731C69.0312 73.1105 69.5159 72.0114 70.5348 71.6551C70.8968 71.5285 71.1937 71.5244 71.6104 71.6402ZM59.7916 72.8499C60.0213 73.3879 60.2093 73.8514 60.2093 73.8798C60.2093 73.9083 59.8169 73.9316 59.3374 73.9316C58.8578 73.9316 58.4651 73.9007 58.4646 73.8627C58.4634 73.7582 59.3129 71.8106 59.3454 71.8432C59.361 71.8588 59.5619 72.3118 59.7916 72.8499ZM83.0978 72.9445L83.5107 73.9316H82.5973H81.6839L81.8309 73.5873C81.9116 73.3979 82.1083 72.9252 82.268 72.5369C82.4277 72.1485 82.5869 71.8592 82.6217 71.8941C82.6565 71.9289 82.8708 72.4016 83.0978 72.9445ZM18.8377 72.9631C17.5008 73.1232 17.5021 73.1954 18.845 73.376C19.7458 73.4971 21.4596 73.4985 24.4342 73.3804C26.7714 73.2877 27.7669 73.215 27.6944 73.1426C27.643 73.0911 21.3595 72.8289 20.4675 72.8411C20.0889 72.8462 19.3555 72.9011 18.8377 72.9631ZM91.4612 72.9719C90.0478 73.0352 88.7468 73.0948 88.5701 73.1044L88.2488 73.1217L88.5242 73.1968C88.8346 73.2812 93.5396 73.4755 95.2243 73.4734C96.3913 73.4719 97.9255 73.3228 98.0557 73.1983C98.158 73.1004 97.8106 73.0302 96.6928 72.9228C95.5792 72.8157 94.7861 72.8232 91.4612 72.9719ZM81.2574 80.0844C80.0381 80.3357 79.3986 81.332 79.8303 82.3082C80.0639 82.8365 80.3682 83.0446 81.4221 83.3969C82.6842 83.8186 82.8796 83.9538 82.8796 84.4056C82.8796 85.2509 81.4804 85.3472 80.2807 84.5846C80.0377 84.4302 79.8074 84.3232 79.769 84.347C79.7305 84.3708 79.624 84.5565 79.5324 84.7598C79.3338 85.2004 79.3739 85.2701 80.0304 85.6276C82.015 86.7082 84.3241 85.8008 84.0404 84.0518C83.9303 83.3728 83.4266 82.9574 82.2792 82.5996C81.3545 82.3111 80.9745 82.0869 80.8988 81.7852C80.8135 81.4455 80.908 81.2863 81.2893 81.1269C81.7249 80.9448 82.394 81.0214 83.0587 81.3294C83.3282 81.4544 83.5583 81.5454 83.5699 81.5316C83.5817 81.5179 83.6836 81.3236 83.7965 81.0999C83.9927 80.7107 83.9944 80.6878 83.8361 80.572C83.3066 80.1846 81.9847 79.9347 81.2574 80.0844ZM0 83.0605V86.0518H1.58949C3.50159 86.0518 3.95032 85.9519 4.43135 85.4192C5.1523 84.621 4.91238 83.523 3.90075 82.9904C3.74931 82.9108 3.68993 82.8438 3.76886 82.8418C3.92783 82.8378 4.32635 82.4437 4.48614 82.1326C4.64089 81.8311 4.61023 81.2682 4.41942 80.9084C4.32231 80.7255 4.0767 80.4902 3.84578 80.359C3.46121 80.1405 3.35942 80.128 1.72092 80.0993L0 80.0692V83.0605ZM6.05764 83.0677V86.0518H7.89329H9.72894V85.5927V85.1336H8.3981H7.06725V82.6086V80.0835H6.56245H6.05764V83.0677ZM12.0815 80.3042C11.2946 80.6356 10.8623 81.047 10.4806 81.8281C10.2754 82.248 10.2339 82.4569 10.2339 83.0677C10.2339 84.3408 10.8245 85.25 12.0131 85.8065C12.5339 86.0503 12.7156 86.0878 13.3521 86.0834C14.3591 86.0763 15.0023 85.8224 15.6469 85.1775C17.1075 83.7163 16.7166 81.3532 14.8555 80.3941C14.4417 80.1808 14.2261 80.1357 13.492 80.1091C12.7285 80.0813 12.5532 80.1056 12.0815 80.3042ZM18.8164 80.2865C18.114 80.5563 17.3425 81.3381 17.1129 82.0127C16.8941 82.6557 16.8942 83.4797 17.113 84.1236C17.3478 84.8143 18.1957 85.6589 18.9072 85.911C19.9366 86.2758 21.0245 86.1038 21.9888 85.4238L22.4223 85.1181L22.0867 84.7824C21.8004 84.4959 21.7277 84.4633 21.5912 84.5597C21.1406 84.8777 20.6589 85.0665 20.1988 85.1052C19.7664 85.1416 19.6094 85.1081 19.1832 84.8885C18.0014 84.2794 17.6474 82.9738 18.3685 81.8846C19.0399 80.8706 20.6315 80.7155 21.5466 81.575C21.7762 81.7906 21.7678 81.7956 22.1878 81.1951C22.3376 80.9811 22.3333 80.9685 22.026 80.7119C21.2682 80.0789 19.8473 79.8907 18.8164 80.2865ZM23.4045 83.0677V86.0518H23.9552H24.5059V85.2633V84.4747L24.9878 83.9734L25.4696 83.472L26.4303 84.7619L27.391 86.0518H28.0248C28.5193 86.0518 28.6385 86.0266 28.5674 85.937C28.2896 85.5876 26.3197 82.7961 26.2825 82.6993C26.2583 82.636 26.7383 82.0319 27.3491 81.3569L28.4596 80.1294L27.883 80.1015L27.3062 80.0736L26.7993 80.6065C26.5205 80.8996 25.8905 81.5722 25.3991 82.1011L24.5059 83.0626V81.5731V80.0835H23.9552H23.4045V83.0677ZM30.8 80.3062C29.3966 80.8971 28.6251 82.4484 29.0343 83.8566C29.5558 85.6513 31.5261 86.5907 33.2253 85.8549C33.705 85.6471 34.3266 85.2347 34.3266 85.1243C34.3266 85.0825 34.197 84.9004 34.0384 84.7198L33.7502 84.3913L33.5464 84.5828C33.2819 84.8313 32.482 85.1336 32.0885 85.1336C30.9757 85.1336 30.0197 84.1758 30.0149 83.0559C30.0112 82.2088 30.4091 81.5672 31.1529 81.2206C31.9396 80.8542 32.957 80.9992 33.5578 81.5634L33.7525 81.7463L34.0574 81.3612L34.3623 80.9762L34.092 80.7595C33.5343 80.3123 33.0396 80.1453 32.1698 80.1103C31.4505 80.0815 31.2734 80.1068 30.8 80.3062ZM35.428 83.0677V86.0518H35.9328H36.4376V84.8122V83.5727H37.9979H39.5582V84.8122V86.0518H40.1089H40.6596V83.0677V80.0835H40.1089H39.5582V81.369V82.6545H37.9979H36.4376V81.369V80.0835H35.9328H35.428V83.0677ZM42.8366 82.9044C42.15 84.4604 41.5607 85.805 41.5271 85.8926C41.4733 86.0328 41.532 86.0518 42.0185 86.0518H42.5708L42.8238 85.407L43.0766 84.762L44.5959 84.7872L46.1151 84.8122L46.3635 85.4091L46.612 86.0059L47.1694 86.0333C47.476 86.0482 47.7269 86.0399 47.7269 86.0146C47.7269 85.9894 47.1536 84.6549 46.4528 83.0491L45.1788 80.1294L44.6319 80.1024L44.085 80.0755L42.8366 82.9044ZM48.5529 83.0677V86.0518H49.1036H49.6543V83.0677V80.0835H49.1036H48.5529V83.0677ZM51.2146 83.0677V86.0518H51.7653H52.316V83.9677V81.8836L53.8534 83.9652L55.3907 86.0469L55.9185 86.0493L56.4462 86.0518V83.0677V80.0835H55.9431H55.4401L55.4154 82.1724L55.3907 84.2613L53.8331 82.1724L52.2754 80.0835H51.745H51.2146V83.0677ZM61.9532 80.1642C60.3534 80.6886 59.4293 82.3291 59.8732 83.8566C60.1936 84.9591 60.9943 85.7223 62.1367 86.0141C62.6405 86.1428 62.8244 86.1497 63.3197 86.0586C63.6421 85.9993 64.0745 85.8647 64.2806 85.7596C64.7015 85.5448 65.1655 85.2185 65.1655 85.1373C65.1655 85.1078 65.0402 84.9315 64.887 84.7455L64.6083 84.4074L64.2216 84.676C63.0793 85.4688 61.6476 85.1522 61.0743 83.9798C60.8674 83.5567 60.8361 83.391 60.8682 82.886C60.9179 82.105 61.245 81.6105 61.9473 81.2542C62.7484 80.8478 63.552 80.9346 64.3045 81.5089L64.6006 81.7348L64.9007 81.3558L65.2007 80.9768L64.9775 80.796C64.4013 80.3291 63.8614 80.1426 63.0087 80.1154C62.5543 80.1009 62.0794 80.1229 61.9532 80.1642ZM67.5755 80.2729C66.9232 80.5308 66.1622 81.2429 65.8913 81.8492C65.5889 82.5257 65.585 83.6092 65.8826 84.2613C66.7904 86.2502 69.529 86.7327 71.0835 85.1775C72.5184 83.7421 72.1721 81.4082 70.3819 80.4484C69.8558 80.1664 69.7177 80.1341 68.9286 80.1097C68.2185 80.0878 67.9674 80.118 67.5755 80.2729ZM73.0588 83.0677V86.0518H73.6095H74.1602V83.9698V81.8878L74.5503 82.397C74.7648 82.6771 75.4567 83.6112 76.0877 84.4726L77.2349 86.0391L77.7627 86.0454L78.2904 86.0518V83.0677V80.0835H77.7874H77.2843L77.2596 82.1682L77.2349 84.2529L75.6794 82.1682L74.1238 80.0835H73.5914H73.0588V83.0677ZM85.1911 82.2643C85.218 84.2931 85.2338 84.4706 85.4181 84.8122C85.8799 85.6685 86.6576 86.0855 87.7899 86.084C89.1065 86.0824 89.9486 85.5118 90.2569 84.4125C90.3722 84.0014 90.4057 83.4546 90.4057 81.9827V80.0835H89.855H89.3043L89.3042 82.0806C89.3041 83.8005 89.2818 84.1214 89.1435 84.3925C88.8884 84.8932 88.5608 85.0772 87.8558 85.1158C87.328 85.1446 87.193 85.1186 86.918 84.9342C86.7413 84.8158 86.5038 84.535 86.3902 84.31C86.1958 83.925 86.1837 83.7894 86.1837 81.9923V80.0835H85.673H85.1621L85.1911 82.2643ZM91.8742 83.0677V86.0518H93.664H95.4538V85.5927V85.1336H94.1688H92.8839V82.6086V80.0835H92.3791H91.8742V83.0677ZM95.8209 80.5426V81.0017H96.7387H97.6565V83.5314V86.061L98.1843 86.0334L98.712 86.0059L98.7365 83.5038L98.7609 81.0017H99.6772H100.594V80.5426V80.0835H98.2072H95.8209V80.5426ZM101.511 83.0677V86.0518H102.016H102.521V83.0677V80.0835H102.016H101.511V83.0677ZM104.173 83.0677V86.0518H104.678H105.183L105.186 83.9629C105.188 81.8839 105.189 81.8751 105.365 82.1036C105.462 82.2298 106.157 83.1595 106.91 84.1695L108.278 86.0059L108.796 86.0334L109.313 86.061V83.0723V80.0835H108.81H108.307L108.282 82.1517L108.257 84.2199L106.71 82.1517L105.162 80.0835H104.668H104.173V83.0677ZM112.603 80.2064C111.076 80.7754 110.299 82.0265 110.525 83.5528C110.708 84.7855 111.56 85.6717 112.891 86.0128C113.634 86.2031 114.483 86.0866 115.342 85.676L115.921 85.3997V84.2566V83.1136H115.462H115.003V83.9445V84.7753L114.613 84.9525C114.104 85.1837 113.249 85.1874 112.75 84.9604C112.233 84.7255 111.739 84.1191 111.603 83.5528C111.287 82.2371 112.296 81.0003 113.683 81.0023C114.175 81.0029 114.645 81.1461 115.043 81.4162C115.227 81.5417 115.392 81.6445 115.408 81.6445C115.424 81.6445 115.552 81.4796 115.691 81.278C115.997 80.8362 115.957 80.7623 115.206 80.3981C114.77 80.1866 114.536 80.1387 113.81 80.1126C113.229 80.0917 112.827 80.1229 112.603 80.2064ZM3.18944 81.1844C3.43661 81.3351 3.48773 81.4227 3.48773 81.6951C3.48773 82.3904 3.15759 82.5613 1.8127 82.5621L1.00961 82.5627V81.7822V81.0017L1.95038 81.0021C2.72631 81.0024 2.94346 81.0343 3.18944 81.1844ZM14.2829 81.2223C15.4601 81.7706 15.8194 83.2822 15.0209 84.3273C13.8621 85.8441 11.4447 85.1096 11.3065 83.1988C11.1915 81.6084 12.8077 80.5351 14.2829 81.2223ZM69.7125 81.2191C70.2874 81.4868 70.6266 81.881 70.8079 82.4919C70.9799 83.0713 70.9799 83.064 70.8062 83.6492C70.1566 85.8378 66.9328 85.5169 66.7445 83.2449C66.6105 81.6284 68.2253 80.5262 69.7125 81.2191ZM45.1538 82.5501C45.4134 83.1744 45.6084 83.7026 45.5872 83.7239C45.5659 83.7451 45.0952 83.7508 44.5411 83.7365L43.5339 83.7104L44.0471 82.4997C44.3295 81.8338 44.5877 81.3173 44.6211 81.3519C44.6545 81.3865 44.8942 81.9257 45.1538 82.5501ZM3.25387 83.6108C3.77602 83.8291 3.92655 84.3725 3.5707 84.7547C3.27691 85.0701 3.00817 85.1336 1.96736 85.1336H1.00961V84.3072V83.4809H1.97626C2.60222 83.4809 3.0525 83.5267 3.25387 83.6108ZM0 91.5151V92.7547H0.73426C1.45631 92.7547 1.46852 92.7508 1.46852 92.5251C1.46852 92.308 1.44098 92.2956 0.963716 92.2956H0.458912V91.2855V90.2755H0.229456H0V91.5151ZM2.56991 91.5151V92.7547H3.48773H4.40556V92.5251C4.40556 92.3007 4.39023 92.2956 3.71719 92.2956H3.02882V92.0201V91.7446H3.62541C4.20061 91.7446 4.22199 91.7364 4.22199 91.5151C4.22199 91.2938 4.20061 91.2855 3.62541 91.2855H3.02882V90.9642V90.6428H3.71719C4.34434 90.6428 4.40556 90.6265 4.40556 90.4592C4.40556 90.2877 4.34434 90.2755 3.48773 90.2755H2.56991V91.5151ZM5.87894 91.4003C5.6113 92.0189 5.3724 92.5768 5.34798 92.6399C5.31944 92.7141 5.39011 92.7547 5.54779 92.7547C5.7364 92.7547 5.81359 92.6921 5.88785 92.4792C5.98183 92.2095 5.99697 92.2037 6.60834 92.2037C7.2197 92.2037 7.23484 92.2095 7.32883 92.4792C7.4017 92.6882 7.48128 92.7547 7.65906 92.7547C7.78793 92.7547 7.89329 92.7315 7.89329 92.7032C7.89329 92.675 7.66035 92.1172 7.37573 91.4637C6.8969 90.3646 6.83963 90.2755 6.61182 90.2755C6.38457 90.2755 6.32803 90.3623 5.87894 91.4003ZM8.9029 91.5151V92.7547H9.62357C10.2201 92.7547 10.398 92.7188 10.6561 92.5462C11.4529 92.0138 11.4622 90.9659 10.6748 90.4466C10.4769 90.316 10.242 90.2766 9.6601 90.2762L8.9029 90.2755V91.5151ZM12.3906 91.5151V92.7547H12.6201H12.8495V91.5151V90.2755H12.6201H12.3906V91.5151ZM14.2263 91.5151V92.7547H14.4522C14.6729 92.7547 14.6787 92.7363 14.7046 91.9537L14.7311 91.1528L15.3236 91.9537C15.7688 92.5554 15.9685 92.7547 16.1267 92.7547C16.3359 92.7547 16.3373 92.7464 16.3373 91.5151V90.2755H16.1114C15.8907 90.2755 15.8849 90.2939 15.859 91.0765L15.8325 91.8774L15.2399 91.0765C14.7948 90.4748 14.5951 90.2755 14.4368 90.2755C14.2277 90.2755 14.2263 90.2838 14.2263 91.5151ZM18.1148 90.4516C17.6953 90.7075 17.5304 90.9942 17.5308 91.4667C17.5312 91.9657 17.7784 92.4129 18.1643 92.6124C18.5491 92.8115 19.1662 92.7919 19.5317 92.569C19.8147 92.3964 19.8331 92.3551 19.807 91.9496C19.7834 91.5829 19.7477 91.5106 19.5782 91.4864C19.402 91.4614 19.3737 91.5059 19.3488 91.8477C19.3237 92.1901 19.288 92.246 19.0544 92.308C18.7289 92.3945 18.2293 92.2052 18.0885 91.9421C17.681 91.1803 18.4994 90.3796 19.2753 90.7811C19.5212 90.9082 19.5878 90.9138 19.6521 90.8121C19.7623 90.6379 19.7071 90.5225 19.4506 90.3917C19.1146 90.2202 18.4451 90.2502 18.1148 90.4516ZM22.6703 91.5151V92.7547H23.5881H24.5059V92.5251C24.5059 92.3007 24.4906 92.2956 23.8175 92.2956H23.1292V92.0201V91.7446H23.7258C24.301 91.7446 24.3224 91.7364 24.3224 91.5151C24.3224 91.2938 24.301 91.2855 23.7258 91.2855H23.1292V90.9642V90.6428H23.8175C24.4447 90.6428 24.5059 90.6265 24.5059 90.4592C24.5059 90.2877 24.4447 90.2755 23.5881 90.2755H22.6703V91.5151ZM25.5742 90.3903C25.6124 90.4535 25.78 90.696 25.9467 90.9292C26.1134 91.1625 26.2498 91.4052 26.2498 91.4684C26.2498 91.5318 26.0618 91.8471 25.8321 92.1691L25.4145 92.7547H25.692C25.9229 92.7547 26.0218 92.677 26.2802 92.2932L26.5908 91.8317L26.9022 92.2908C27.1476 92.6527 27.2669 92.7504 27.4659 92.7523C27.6047 92.7536 27.7183 92.7294 27.7183 92.6986C27.7183 92.6678 27.5313 92.375 27.3028 92.048L26.8874 91.4534L27.3075 90.8645L27.7276 90.2755H27.4535C27.2386 90.2755 27.1238 90.3542 26.9212 90.6409C26.7791 90.8418 26.6324 91.007 26.5953 91.0082C26.5581 91.0092 26.4184 90.8448 26.2848 90.6428C26.0933 90.3534 25.9849 90.2755 25.7733 90.2755C25.5825 90.2755 25.5248 90.3088 25.5742 90.3903ZM28.8197 91.5151V92.7547H29.0491C29.2545 92.7547 29.2786 92.7172 29.2786 92.3984V92.0421L29.8432 92.0013C30.3169 91.967 30.4423 91.9201 30.6233 91.7097C30.8356 91.4628 30.9055 91.0149 30.7819 90.6928C30.6776 90.4209 30.2355 90.2755 29.5126 90.2755H28.8197V91.5151ZM31.9403 91.5151V92.7547H32.8581H33.7759V92.5251C33.7759 92.3007 33.7606 92.2956 33.0876 92.2956H32.3992V92.0201V91.7446H32.9958C33.571 91.7446 33.5924 91.7364 33.5924 91.5151C33.5924 91.2938 33.571 91.2855 32.9958 91.2855H32.3992V90.9642V90.6428H33.0876C33.7147 90.6428 33.7759 90.6265 33.7759 90.4592C33.7759 90.2877 33.7147 90.2755 32.8581 90.2755H31.9403V91.5151ZM34.9691 91.5151V92.7547H35.1986C35.4051 92.7547 35.428 92.7179 35.428 92.3874C35.428 92.023 35.4309 92.0201 35.7783 92.0201C36.0913 92.0201 36.1505 92.0591 36.3348 92.3874C36.5035 92.6877 36.5911 92.7547 36.815 92.7547H37.0889L36.8132 92.3537L36.5374 91.9528L36.7629 91.7409C36.9886 91.5288 37.0663 91.0449 36.9313 90.6928C36.827 90.4209 36.385 90.2755 35.6621 90.2755H34.9691V91.5151ZM37.9979 90.4592C37.9979 90.6122 38.0592 90.6428 38.3651 90.6428H38.7322V91.6987V92.7547H38.9617H39.1911V91.6987V90.6428H39.6041C39.9559 90.6428 40.0172 90.6156 40.0172 90.4592C40.0172 90.2866 39.9559 90.2755 39.0075 90.2755C38.0592 90.2755 37.9979 90.2866 37.9979 90.4592ZM41.1603 90.5009C40.7127 90.9487 40.9042 91.3811 41.6746 91.6621C42.1355 91.8302 42.2244 91.8969 42.2016 92.057C42.1648 92.3147 41.5734 92.3742 41.2377 92.1541C41.0445 92.0274 40.99 92.0224 40.9249 92.1252C40.7848 92.3463 40.837 92.4553 41.1553 92.6065C41.7168 92.873 42.5643 92.7267 42.7136 92.3373C42.9 91.8512 42.6616 91.5163 41.9595 91.2781C41.6513 91.1735 41.5235 91.078 41.5027 90.937C41.4632 90.6694 41.82 90.5883 42.2487 90.7674C42.5638 90.8992 42.5816 90.8967 42.64 90.7122C42.7293 90.4308 42.458 90.2755 41.8769 90.2755C41.4776 90.2755 41.3433 90.3178 41.1603 90.5009ZM45.5241 91.5151V92.7547H45.7536H45.983V91.5151V90.2755H45.7536H45.5241V91.5151ZM47.3598 91.5151V92.7547H47.5892C47.8173 92.7547 47.8187 92.7497 47.8187 91.9113V91.068L48.4382 91.908C48.8949 92.5272 49.112 92.7489 49.2642 92.7513C49.4684 92.7547 49.4707 92.7403 49.4707 91.5151C49.4707 90.3447 49.4607 90.2755 49.2907 90.2755C49.1266 90.2755 49.1081 90.3511 49.0842 91.1209L49.0577 91.9663L48.4289 91.1209C47.9408 90.4646 47.7509 90.2755 47.5799 90.2755H47.3598V91.5151ZM52.4996 91.5151V92.7547H53.1836C53.5598 92.7547 53.9701 92.708 54.0952 92.6509C54.5516 92.4428 54.6033 91.7259 54.1796 91.4794C54.0885 91.4263 54.0606 91.3817 54.1176 91.3801C54.3 91.3753 54.4557 90.8681 54.3408 90.6533C54.1812 90.3549 53.9404 90.2755 53.194 90.2755H52.4996V91.5151ZM55.712 91.5151V92.7547H56.4526C57.1682 92.7547 57.1922 92.7477 57.164 92.5481C57.1383 92.3681 57.0725 92.3379 56.6527 92.3137L56.1709 92.2859V91.2808V90.2755H55.9414H55.712V91.5151ZM58.6764 90.4555C57.889 90.9357 57.9215 92.1931 58.7321 92.6124C59.1121 92.809 59.7341 92.7919 60.0896 92.5751C60.5017 92.3237 60.6988 91.9808 60.6988 91.5151C60.6988 91.0494 60.5017 90.7065 60.0896 90.4551C59.7052 90.2206 59.0611 90.2208 58.6764 90.4555ZM62.1704 90.4516C61.7509 90.7075 61.5859 90.9942 61.5864 91.4667C61.5872 92.4883 62.6317 93.0959 63.4886 92.5732C63.83 92.3649 63.8218 92.0472 63.4779 92.1616C63.3712 92.197 63.1106 92.2457 62.8986 92.2697C62.575 92.3063 62.4758 92.2758 62.2791 92.079C61.9444 91.7443 61.9585 91.2662 62.3132 90.9112C62.6121 90.6122 62.8791 90.5763 63.2735 90.7821C63.4732 90.8863 63.569 90.8947 63.6635 90.8162C63.8505 90.6609 63.8177 90.5707 63.5181 90.4156C63.1446 90.2225 62.5187 90.2392 62.1704 90.4516ZM64.8902 91.5151V92.7547H65.1197C65.3185 92.7547 65.3491 92.7138 65.3491 92.4493C65.3491 92.1189 65.7597 91.6174 65.8817 91.7987C66.3901 92.5549 66.589 92.7547 66.8332 92.7547C66.976 92.7547 67.093 92.7427 67.093 92.728C67.093 92.7134 66.8709 92.3943 66.5993 92.0187L66.1057 91.3359L66.5586 90.8286L67.0117 90.3214L66.7608 90.2909C66.5513 90.2652 66.4152 90.3635 65.9339 90.8877L65.3577 91.5151L65.3533 90.8953C65.3493 90.2965 65.3413 90.2755 65.1197 90.2755H64.8902V91.5151ZM68.4972 90.4555C67.7098 90.9357 67.7422 92.1931 68.5529 92.6124C68.9089 92.7966 69.4159 92.7934 69.814 92.6044C70.1874 92.4271 70.2077 92.1406 69.8436 92.1863C69.719 92.2019 69.4436 92.2369 69.2316 92.2641C68.9042 92.3059 68.8111 92.2781 68.6121 92.079C67.9283 91.395 68.8224 90.2985 69.6603 90.7936C69.9096 90.9409 69.957 90.945 70.0325 90.8256C70.165 90.6158 70.1434 90.5669 69.851 90.4156C69.4745 90.2208 68.8517 90.2392 68.4972 90.4555ZM71.315 91.5151V92.7547H71.5444C71.7614 92.7547 71.7739 92.7271 71.7739 92.2496V91.7446H72.3705H72.9671V92.2496C72.9671 92.7271 72.9795 92.7547 73.1965 92.7547H73.426V91.5151V90.2755H73.1965C72.9795 90.2755 72.9671 90.3031 72.9671 90.7805V91.2855H72.3705H71.7739V90.7805C71.7739 90.3031 71.7614 90.2755 71.5444 90.2755H71.315V91.5151ZM75.4531 90.4821C75.4095 90.5957 75.1833 91.1176 74.9506 91.6417C74.7178 92.1658 74.5274 92.6307 74.5274 92.6747C74.5274 92.7187 74.6266 92.7547 74.7478 92.7547C74.9103 92.7547 74.9936 92.6822 75.0643 92.4792C75.1577 92.2111 75.1763 92.2037 75.7593 92.2037C76.332 92.2037 76.3646 92.2159 76.5007 92.4792C76.601 92.6733 76.7105 92.7547 76.8714 92.7547C77.1321 92.7547 77.1844 92.9429 76.4447 91.2185C76.0728 90.3515 76.0222 90.279 75.7871 90.2774C75.6067 90.2761 75.5092 90.3358 75.4531 90.4821ZM78.1069 91.5151V92.7547H78.3363H78.5658V91.5151V90.2755H78.3363H78.1069V91.5151ZM79.9425 91.5215C79.9425 92.7611 79.9436 92.7672 80.149 92.7381C80.3403 92.711 80.3589 92.6515 80.4014 91.9304L80.4473 91.152L81.0399 91.9533C81.4851 92.5555 81.6847 92.7547 81.843 92.7547C82.0521 92.7547 82.0535 92.7464 82.0535 91.5151V90.2755H81.8276C81.6069 90.2755 81.6011 90.2939 81.5752 91.0765L81.5487 91.8774L80.9562 91.0765C80.511 90.4748 80.3113 90.2755 80.1531 90.2755C79.9439 90.2755 79.9425 90.2835 79.9425 91.5215ZM84.7152 90.4592C84.7152 90.6156 84.7764 90.6428 85.1282 90.6428H85.5413V91.6987V92.7547H85.7707H86.0002V91.6987V90.6428H86.3673C86.6732 90.6428 86.7344 90.6122 86.7344 90.4592C86.7344 90.2866 86.6732 90.2755 85.7248 90.2755C84.7764 90.2755 84.7152 90.2866 84.7152 90.4592ZM87.744 91.5183V92.7611L88.6848 92.7349C89.5556 92.7107 89.6256 92.6951 89.6256 92.5251C89.6256 92.3596 89.5555 92.3388 88.9143 92.3147L88.2029 92.2878V92.0205C88.2029 91.7542 88.2057 91.7529 88.8225 91.7259C89.3854 91.7012 89.4447 91.6798 89.4714 91.4921C89.4994 91.2944 89.4724 91.2855 88.846 91.2855H88.1913L88.2201 90.9871L88.2488 90.6887L88.9143 90.6617C89.5043 90.6378 89.5797 90.6144 89.5797 90.4551C89.5797 90.2888 89.5117 90.2755 88.6619 90.2755H87.744V91.5183ZM91.0986 90.5593C90.1883 91.359 90.7226 92.7555 91.9385 92.7543C92.1303 92.7541 92.4274 92.6685 92.5986 92.564C92.8777 92.3939 92.8955 92.3596 92.7699 92.234C92.6611 92.1251 92.588 92.1164 92.4416 92.1947C92.3381 92.2502 92.0927 92.2956 91.8963 92.2956C91.4171 92.2956 91.14 92.0054 91.14 91.5035C91.14 90.8399 91.7059 90.4847 92.3067 90.7714C92.5534 90.8891 92.6576 90.8999 92.7559 90.8184C92.9382 90.667 92.918 90.6108 92.6173 90.4331C92.46 90.3401 92.1603 90.2755 91.8863 90.2755C91.4979 90.2755 91.3687 90.3221 91.0986 90.5593ZM93.9852 91.5151V92.7547H94.2147C94.4317 92.7547 94.4442 92.7271 94.4442 92.2496V91.7446H95.0866H95.7291V92.2496C95.7291 92.7271 95.7416 92.7547 95.9586 92.7547H96.188V91.5151V90.2755H95.9586C95.7416 90.2755 95.7291 90.3031 95.7291 90.7805V91.2855H95.0866H94.4442V90.7805C94.4442 90.3031 94.4317 90.2755 94.2147 90.2755H93.9852V91.5151ZM97.473 91.5151V92.7547H97.699C97.9209 92.7547 97.9255 92.7392 97.9514 91.9093L97.9778 91.0639L98.6066 91.9093C99.0947 92.5656 99.2846 92.7547 99.4556 92.7547H99.6758V91.5151V90.2755H99.4463C99.2182 90.2755 99.2168 90.2805 99.2168 91.1189V91.9622L98.5973 91.1222C98.081 90.4222 97.9357 90.2817 97.7254 90.2789L97.473 90.2755V91.5151ZM101.448 90.4551C101.035 90.7065 100.838 91.0494 100.838 91.5151C100.838 92.2234 101.393 92.7536 102.136 92.7543C102.889 92.7549 103.438 92.2408 103.438 91.5335C103.439 90.5312 102.318 89.9239 101.448 90.4551ZM104.632 91.5151V92.7547H105.366C106.088 92.7547 106.101 92.7508 106.101 92.5251C106.101 92.308 106.073 92.2956 105.596 92.2956H105.091V91.2855V90.2755H104.861H104.632V91.5151ZM107.596 90.4555C106.788 90.9487 106.84 92.1995 107.687 92.6013C108.55 93.0111 109.473 92.5608 109.63 91.6528C109.8 90.673 108.497 89.9059 107.596 90.4555ZM111.084 90.4501C110.297 90.9447 110.329 92.193 111.14 92.6124C111.501 92.7992 112.072 92.793 112.48 92.5979C112.8 92.4455 112.808 92.4286 112.782 91.9781C112.759 91.5818 112.726 91.511 112.554 91.4864C112.378 91.4614 112.349 91.5059 112.324 91.8477C112.299 92.1901 112.264 92.246 112.03 92.308C111.705 92.3945 111.205 92.2052 111.064 91.9421C110.658 91.1829 111.475 90.3796 112.247 90.779C112.524 90.9225 112.548 90.9218 112.662 90.7664C112.766 90.6246 112.755 90.5825 112.589 90.466C112.269 90.2418 111.43 90.233 111.084 90.4501ZM113.877 90.5667C114.517 91.6418 114.636 91.9182 114.636 92.3297C114.636 92.7218 114.654 92.7547 114.866 92.7547C115.077 92.7547 115.095 92.7214 115.095 92.3355C115.095 92.0054 115.191 91.7418 115.548 91.0959L116 90.2755L115.754 90.2766C115.549 90.2775 115.458 90.369 115.202 90.8351C115.034 91.1416 114.869 91.3658 114.835 91.3333C114.801 91.3008 114.647 91.0598 114.493 90.7978C114.275 90.4287 114.154 90.3146 113.953 90.2912L113.695 90.261L113.877 90.5667ZM10.3185 90.7716C10.6548 90.9122 10.8864 91.3891 10.7732 91.7076C10.6246 92.1262 10.3588 92.2956 9.85064 92.2956H9.36181V91.5304C9.36181 91.1095 9.38935 90.7376 9.42303 90.704C9.52638 90.6007 9.99373 90.6359 10.3185 90.7716ZM30.1446 90.7323C30.3206 90.7993 30.38 90.8873 30.38 91.0812C30.38 91.4481 30.2244 91.561 29.7192 91.561H29.2786V91.1631C29.2786 90.9442 29.3061 90.7376 29.3398 90.704C29.4299 90.6139 29.8743 90.6296 30.1446 90.7323ZM36.4545 90.8066C36.594 90.9462 36.5756 91.3835 36.4262 91.4782C36.3568 91.5222 36.1038 91.5588 35.864 91.5596L35.428 91.561V91.0902V90.6195L35.8924 90.6641C36.1477 90.6886 36.4007 90.7527 36.4545 90.8066ZM53.7311 90.6985C53.811 90.7292 53.8763 90.8488 53.8763 90.9642C53.8763 91.2034 53.7217 91.2855 53.2722 91.2855C52.9748 91.2855 52.9585 91.2687 52.9585 90.9642C52.9585 90.6596 52.9748 90.6428 53.2722 90.6428C53.4447 90.6428 53.6513 90.6679 53.7311 90.6985ZM59.941 90.9112C60.6191 91.5896 59.931 92.6188 59.0465 92.2491C58.1893 91.8907 58.5028 90.6747 59.4592 90.6486C59.5787 90.6454 59.7909 90.761 59.941 90.9112ZM102.773 90.9692C103.149 91.3963 103.008 92.0326 102.491 92.2491C101.886 92.5018 101.328 92.1292 101.328 91.4728C101.328 91.1378 101.545 90.8343 101.879 90.7042C102.133 90.6048 102.565 90.7327 102.773 90.9692ZM108.862 90.8984C109.59 91.5491 108.874 92.6285 107.967 92.2491C107.114 91.8929 107.422 90.6756 108.371 90.6486C108.483 90.6455 108.704 90.7579 108.862 90.8984ZM76.048 91.4241L76.1819 91.7446H75.7728H75.3636L75.5573 91.2783C75.7658 90.7763 75.7792 90.7803 76.048 91.4241ZM6.82779 91.2874C6.90902 91.4904 6.97547 91.6763 6.97547 91.7006C6.97547 91.7248 6.81026 91.7446 6.60834 91.7446C6.40642 91.7446 6.24121 91.7248 6.24121 91.7006C6.24121 91.5704 6.54721 90.9183 6.60834 90.9183C6.6479 90.9183 6.74665 91.0844 6.82779 91.2874ZM53.8229 91.7737C53.9138 91.8401 53.9729 91.9744 53.9542 92.0721C53.9269 92.2162 53.8299 92.2549 53.4395 92.2774L52.9585 92.3052V91.979C52.9585 91.6624 52.9688 91.6528 53.3081 91.6528C53.5004 91.6528 53.732 91.7072 53.8229 91.7737Z" fill="url(#paint1_linear_426_2490)"/>
<defs>
<linearGradient id="paint0_linear_426_2490" x1="26.2147" y1="5.92238" x2="16.8032" y2="5.23373" gradientUnits="userSpaceOnUse">
<stop stop-color="#42B99D"/>
<stop offset="1" stop-color="#2B9BC2"/>
</linearGradient>
<linearGradient id="paint1_linear_426_2490" x1="16.7112" y1="28.3723" x2="115.968" y2="27.6377" gradientUnits="userSpaceOnUse">
<stop stop-color="#7861A9"/>
<stop offset="0.228132" stop-color="#5379B8"/>
<stop offset="0.433914" stop-color="#2D90C8"/>
<stop offset="0.66002" stop-color="#35A8B2"/>
<stop offset="1" stop-color="#43BB9B"/>
</linearGradient>
</defs>
</svg>
