<svg width="171" height="57" viewBox="0 0 171 57" fill="none" xmlns="http://www.w3.org/2000/svg">
<path fill-rule="evenodd" clip-rule="evenodd" d="M14.4188 0.0366547C13.5808 0.11937 12.5262 0.347198 11.4889 0.669586C7.97507 1.76169 4.671 4.32034 2.52206 7.61351C1.54674 9.10817 0.705814 11.1234 0.337818 12.848C-0.0178681 14.5146 -0.00916296 14.031 0.00505089 31.4365C0.0141641 42.5985 0.0412996 47.8442 0.0921702 48.2756C0.55361 52.1863 3.58245 55.3564 7.56151 56.0935C8.58756 56.2835 9.25813 56.3215 10.1591 56.2406C12.0906 56.0673 13.7569 55.349 15.3035 54.0233C15.993 53.4322 16.3342 53.0359 17.6073 51.3471C18.1642 50.6084 20.3638 47.6951 22.4954 44.8731C27.1999 38.6449 27.0086 38.8981 29.1399 36.0802C30.0903 34.8237 31.4799 32.985 32.228 31.9941C32.9761 31.0032 34.354 29.18 35.29 27.9425C36.226 26.7049 37.2842 25.3049 37.6416 24.8314C39.2692 22.6751 46.1036 13.6308 48.0763 11.0227C49.2796 9.43172 50.9549 7.25579 51.799 6.18718C53.2715 4.32323 56.3371 0.245887 56.3371 0.151395C56.3371 0.126395 52.5525 0.113791 47.9268 0.123433L39.5165 0.140927L37.0284 3.41902C33.612 7.92013 30.9359 11.449 23.6631 21.0435C20.2318 25.5701 17.3194 29.3821 17.1911 29.5147C16.966 29.7472 16.9399 29.7558 16.4538 29.7558C16.049 29.7558 15.912 29.7274 15.7578 29.6117C15.2975 29.2662 15.1453 28.7547 15.3531 28.251C15.4473 28.0228 17.6163 25.0574 18.7611 23.5918C20.4259 21.4604 24.849 15.5389 24.849 15.4415C24.849 15.4196 22.9134 15.3928 20.5475 15.3817C16.6027 15.3632 16.2279 15.3516 16.0284 15.2411C15.2643 14.818 15.1868 13.6867 15.8873 13.1807L16.1099 13.0199L21.0745 12.9816C24.2983 12.9567 26.1114 12.9177 26.2451 12.8702C26.5575 12.7595 26.9701 12.5294 27.1738 12.3522C27.2742 12.2649 28.2258 11.0158 29.2884 9.57636C31.2348 6.93988 34.0776 3.15413 35.5463 1.24287C35.983 0.674683 36.3407 0.191685 36.3414 0.169508C36.342 0.147332 32.6318 0.108488 28.0964 0.0831434C23.5611 0.0577986 18.7639 0.023569 17.4361 0.0071087C16.1082 -0.00942052 14.7505 0.00387178 14.4188 0.0366547ZM150.167 12.0672C150.142 12.0924 150.121 16.6215 150.121 22.1317V32.1504L151.09 32.1078C151.623 32.0844 152.664 32.0451 153.403 32.0206L154.746 31.9759V21.9985V12.0213H152.479C151.232 12.0213 150.192 12.042 150.167 12.0672ZM106.236 12.2022C106.209 12.229 106.188 16.7241 106.188 22.1914V32.1319H106.695H107.202L107.224 27.3969C107.245 22.7675 107.249 22.65 107.395 22.1248C107.848 20.4925 109.019 19.3064 110.609 18.8679C111.165 18.7147 112.644 18.6942 113.193 18.8322C114.502 19.1612 115.601 20.1552 116.013 21.3827C116.303 22.2461 116.321 22.5986 116.321 27.479V32.1319H116.833H117.346L117.325 27.0181C117.303 21.9155 117.303 21.9033 117.148 21.3897C116.698 19.902 115.577 18.5571 114.368 18.0542C114.125 17.9531 113.707 17.8226 113.44 17.7643C112.8 17.6246 111.468 17.6243 110.836 17.7636C109.318 18.0977 108.096 18.9988 107.49 20.2301L107.209 20.8006L107.191 16.497L107.174 12.1935L106.729 12.1734C106.484 12.1624 106.262 12.1754 106.236 12.2022ZM59.8056 22.6276V32.1319H60.3239H60.8423L60.783 28.1201C60.7504 25.9136 60.7237 23.8449 60.7237 23.5229V22.9375L65.1953 22.9198L69.6668 22.9021V22.4549V22.0077H65.1783H60.6897V18.0131V14.0186H65.6203H70.551V13.5709V13.1233H65.1783H59.8056V22.6276ZM139.927 17.2637C138.85 17.3901 137.569 17.8428 136.814 18.3634C136.307 18.7124 135.514 19.52 135.264 19.9409C134.967 20.44 134.711 21.1804 134.651 21.715L134.602 22.1454H136.701H138.8L138.926 21.7839C139.08 21.341 139.464 20.9523 139.984 20.7102C140.308 20.5594 140.459 20.5343 141.042 20.5333C141.815 20.532 142.256 20.6511 142.709 20.9833C143.144 21.3019 143.261 21.6412 143.238 22.5052L143.218 23.213L141.416 23.2945C138.857 23.4103 137.85 23.5845 136.611 24.1252C134.836 24.9001 134.044 26.0668 134.051 27.8962C134.058 29.646 134.841 30.9526 136.316 31.671C137.291 32.1465 137.664 32.2271 138.9 32.2293C139.764 32.2309 140.061 32.204 140.546 32.0802C141.71 31.7834 142.263 31.4323 142.848 30.6194C143.013 30.3906 143.171 30.2034 143.2 30.2034C143.229 30.2034 143.252 30.6683 143.252 31.2365V32.2696H145.497H147.741L147.74 26.8804C147.739 21.004 147.744 21.0856 147.344 20.2004C146.654 18.6702 144.84 17.5358 142.642 17.2592C141.978 17.1756 140.658 17.1777 139.927 17.2637ZM162.771 17.2274C161.793 17.4053 161.234 17.5775 160.561 17.9089C158.778 18.7862 157.512 20.3064 157.032 22.1454C156.756 23.2039 156.697 23.8196 156.736 25.2677C156.767 26.4513 156.792 26.6721 156.98 27.4051C157.325 28.7527 157.774 29.5627 158.685 30.4819C159.961 31.7679 161.423 32.3288 163.655 32.3888C165.96 32.4508 167.524 31.9734 169.046 30.7444C169.357 30.4926 169.739 30.1204 169.894 29.9174C170.232 29.4733 170.617 28.6675 170.76 28.1056C170.944 27.3789 171.157 27.4486 168.756 27.4486C167.133 27.4486 166.647 27.4681 166.647 27.5332C166.647 27.7435 166.181 28.2971 165.793 28.5465C165.138 28.968 164.813 29.0604 163.987 29.0603C163.312 29.0602 163.235 29.0456 162.824 28.8408C162.176 28.5175 161.796 28.1463 161.506 27.5515C161.292 27.1131 161.253 26.9584 161.223 26.4197L161.188 25.7957H166.094H171L171 24.6765C170.999 23.4122 170.895 22.6258 170.604 21.6888C170.054 19.9177 168.691 18.4375 166.967 17.7386C166.061 17.3715 165.387 17.25 164.097 17.2218C163.461 17.2078 162.864 17.2104 162.771 17.2274ZM118.701 17.5026C118.701 17.5248 119.24 19.1442 119.898 21.1011C120.557 23.0581 121.61 26.1934 122.24 28.0684C122.869 29.9435 123.435 31.6252 123.497 31.8055L123.611 32.1334L126.304 32.1154L128.997 32.0974L129.361 30.961C130.106 28.6359 133.603 17.9041 133.666 17.7516C133.702 17.6647 133.731 17.5635 133.731 17.5269C133.731 17.4851 132.82 17.4671 131.274 17.4786L128.817 17.4966L127.568 22.7653C126.882 25.6631 126.303 28.0779 126.283 28.1316C126.26 28.1905 126.221 28.2042 126.184 28.166C126.15 28.1313 125.798 26.7237 125.4 25.0381C124.475 21.1142 123.746 18.0496 123.66 17.7204L123.593 17.4622H121.147C119.802 17.4622 118.701 17.4804 118.701 17.5026ZM77.2838 17.675C76.726 17.7475 75.9408 18.0346 75.584 18.2963C75.229 18.5567 74.748 19.2175 74.4265 19.8866C74.2863 20.1783 74.1526 20.3978 74.1295 20.3744C74.1063 20.351 74.0874 19.7946 74.0874 19.138V17.9443H73.6454H73.2033V25.0435V32.1428L73.3903 32.1053C73.4932 32.0846 73.6904 32.048 73.8286 32.0239L74.0799 31.9802L74.1035 27.1833C74.1304 21.7162 74.1057 21.9671 74.7465 20.6409C75.255 19.5887 75.9436 19.0138 76.9571 18.7957C77.4589 18.6877 78.3246 18.7057 78.6607 18.8311C78.745 18.8625 78.8995 18.9092 79.004 18.9349L79.1939 18.9814L79.174 18.4483L79.1541 17.9151L78.78 17.8016C78.2668 17.6459 77.8067 17.6069 77.2838 17.675ZM84.0847 17.9096C82.916 18.1737 82.1114 18.6191 81.2963 19.4533C80.0583 20.72 79.4358 22.3709 79.3455 24.6267C79.2825 26.1981 79.5155 27.7267 79.9718 28.7359C80.6227 30.1756 81.7888 31.3295 83.1116 31.8426C83.9837 32.1809 84.3465 32.2359 85.6489 32.2272C86.6314 32.2208 86.9323 32.1938 87.3732 32.0733C88.6185 31.7327 89.9042 30.8967 90.5143 30.0309C90.8613 29.5385 91.286 28.6513 91.342 28.302L91.3795 28.0684H90.8722H90.3649L90.2843 28.4221C90.0535 29.4346 89.3727 30.2498 88.3323 30.7599C87.4708 31.1821 86.8608 31.3174 85.7849 31.3248C84.7778 31.3317 84.2362 31.2335 83.5106 30.9122C82.3886 30.4155 81.3249 29.2979 80.8694 28.1373C80.573 27.3822 80.3595 26.0546 80.4071 25.2619C80.4111 25.1938 81.5621 25.1758 85.921 25.1758H91.4297V24.691C91.4297 21.2323 89.8136 18.7008 87.1451 17.9792C86.5321 17.8134 84.6951 17.7716 84.0847 17.9096ZM97.0064 17.907C95.3826 18.2575 94.1699 19.2767 93.7662 20.6303C93.5315 21.4171 93.659 22.5014 94.0946 23.425C94.3392 23.9436 94.5717 24.1595 95.2633 24.5102C95.9508 24.859 96.2939 24.9717 98.4566 25.5593C99.4974 25.842 100.59 26.1675 100.885 26.2826C101.578 26.5535 102.025 26.9531 102.326 27.5719C102.525 27.9814 102.549 28.0936 102.549 28.6177C102.549 29.112 102.52 29.2676 102.365 29.6021C102.121 30.13 101.544 30.7061 101.004 30.9623C100.202 31.3423 99.5998 31.4623 98.4686 31.4678C97.3136 31.4734 96.8942 31.3906 96.0624 30.9927C95.1731 30.5674 94.4565 29.6506 94.1913 28.5991L94.1009 28.2406L93.5732 28.2204L93.0456 28.2001L93.0944 28.5303C93.2299 29.4467 93.6132 30.1983 94.268 30.8319C95.3777 31.9055 96.7418 32.4073 98.5504 32.4073C100.257 32.4073 101.531 31.973 102.506 31.0586C102.775 30.8065 103.074 30.4634 103.171 30.2961C103.748 29.2994 103.772 27.8047 103.226 26.8641C102.869 26.2488 102 25.5835 101.154 25.2775C100.729 25.1237 97.941 24.3726 97.062 24.175C96.1893 23.9788 95.6519 23.7173 95.2306 23.284C94.7713 22.8115 94.6002 22.4244 94.5696 21.7886C94.5313 20.9936 94.7935 20.3226 95.3504 19.7909C95.5991 19.5534 96.4387 19.1525 97.0064 19.0001C97.5978 18.8414 98.9818 18.8403 99.5715 18.998C100.229 19.1739 100.904 19.5526 101.332 19.986C101.761 20.4206 102.009 20.9016 102.178 21.6289L102.29 22.111L102.811 22.1311C103.42 22.1547 103.399 22.1969 103.196 21.3367C102.801 19.6681 101.84 18.6455 100.101 18.0414C99.6152 17.8727 99.4436 17.8503 98.5026 17.832C97.7903 17.8182 97.3051 17.8425 97.0064 17.907ZM87.0604 18.8718C87.9531 19.0903 89.0086 19.7767 89.5163 20.4688C90.16 21.3463 90.5845 22.5916 90.6279 23.7295L90.6476 24.246L85.5979 24.2637L80.5483 24.2814V23.9492C80.5483 22.5859 81.2944 20.8879 82.3273 19.9003C82.9645 19.2912 83.7289 18.9076 84.5651 18.7773C85.1394 18.6879 86.5233 18.7402 87.0604 18.8718ZM164.82 20.5287C165.207 20.6624 165.612 21.0052 165.894 21.4361C166.124 21.7878 166.375 22.5213 166.375 22.8414V23.0408H163.723C160.699 23.0408 160.962 23.1081 161.204 22.3944C161.396 21.8307 161.675 21.3403 161.937 21.1071C162.226 20.85 162.906 20.5008 163.272 20.4219C163.649 20.3404 164.432 20.3944 164.82 20.5287ZM143.116 26.403C143.116 27.4102 143.012 27.7491 142.57 28.1668C142.382 28.3451 142.06 28.5662 141.855 28.658C141.139 28.979 140.007 29.0427 139.489 28.7914C139.371 28.7339 139.085 28.5091 138.855 28.2916C138.491 27.9478 138.43 27.8543 138.389 27.5743C138.326 27.1448 138.443 26.8101 138.79 26.4289C139.237 25.937 139.487 25.8605 140.974 25.7618C141.685 25.7147 142.458 25.672 142.691 25.667L143.116 25.6579V26.403ZM113.295 38.0342C112.597 38.1715 112.279 38.5141 112.279 39.1285C112.279 39.4395 112.315 39.532 112.566 39.8684C112.724 40.0798 112.852 40.2801 112.852 40.3136C112.852 40.347 112.78 40.4079 112.691 40.4489C111.619 40.9436 111.549 42.4596 112.57 43.0659C112.821 43.2145 112.984 43.253 113.46 43.2758C114.033 43.3033 114.052 43.2989 114.583 43.0203L115.123 42.7369L115.34 42.9497L115.557 43.1625L115.837 43.0178C115.991 42.9382 116.117 42.8513 116.117 42.8247C116.117 42.798 115.93 42.5854 115.702 42.3522L115.287 41.9282L115.405 41.7451C115.557 41.5111 115.706 40.8695 115.708 40.4481L115.709 40.121H115.403H115.097L115.096 40.4137C115.095 40.734 114.936 41.4134 114.839 41.512C114.802 41.5486 114.548 41.3195 114.215 40.9503L113.653 40.3266L114.135 39.8752C114.668 39.3746 114.753 39.171 114.625 38.69C114.559 38.4435 114.505 38.3864 114.194 38.238C113.817 38.0581 113.518 37.9902 113.295 38.0342ZM158.134 38.0917C157.909 38.2152 157.846 38.3979 157.948 38.6247C158.108 38.9809 158.483 39.0029 158.713 38.6697C158.838 38.4891 158.788 38.2948 158.571 38.122C158.37 37.9621 158.37 37.9621 158.134 38.0917ZM75.8062 38.203C75.3858 38.2994 75.1299 38.5916 75.0279 39.0912C74.9498 39.4741 74.9317 39.5011 74.7539 39.5011C74.5816 39.5011 74.5635 39.5241 74.5635 39.7422C74.5635 39.9641 74.5797 39.9832 74.7675 39.9832H74.9715L74.9725 41.4812C74.9732 42.305 74.9974 43.017 75.0264 43.0632C75.067 43.128 75.137 43.1293 75.3314 43.0689L75.5836 42.9904V41.418V39.8455H75.9577H76.3317V39.6044V39.3634H75.9896C75.5954 39.3634 75.5206 39.2706 75.6532 38.9463C75.7503 38.7088 75.9041 38.6058 76.1616 38.6058C76.3222 38.6058 76.3382 38.5831 76.319 38.3825C76.2949 38.1297 76.2278 38.1062 75.8062 38.203ZM125.532 38.3225C125.049 38.5448 124.616 39.186 124.62 39.6733C124.62 39.7491 124.681 39.9445 124.754 40.1075C124.871 40.3683 124.946 40.4313 125.381 40.6331C125.653 40.7592 126.143 40.9253 126.469 41.0021C126.795 41.0789 127.158 41.2111 127.276 41.2959C127.476 41.44 127.488 41.4718 127.458 41.7864C127.406 42.3308 126.986 42.6714 126.371 42.6673C125.964 42.6646 125.299 42.2968 125.162 41.9992C125.074 41.8071 125.025 41.7766 124.805 41.7754C124.505 41.7736 124.484 41.8556 124.683 42.2495C125.024 42.9279 125.574 43.2872 126.271 43.2884C126.843 43.2893 127.224 43.1706 127.548 42.8898C128.063 42.4433 128.222 41.7723 127.954 41.1753C127.8 40.8322 127.617 40.7254 126.515 40.3378C126.089 40.1878 125.689 40.0443 125.626 40.0187C125.441 39.9435 125.358 39.6046 125.454 39.3157C125.58 38.9327 125.798 38.8081 126.35 38.8039C126.811 38.8003 126.822 38.8045 127.041 39.0646C127.163 39.21 127.282 39.4141 127.306 39.5183C127.344 39.6856 127.381 39.7077 127.618 39.7077C127.934 39.7077 127.999 39.6039 127.887 39.2786C127.644 38.5726 127.082 38.1916 126.288 38.1941C125.97 38.1951 125.715 38.2384 125.532 38.3225ZM60.2816 40.7411V43.165L61.4548 43.1391C62.7901 43.1095 63.0465 43.0369 63.5067 42.5581C63.8698 42.1803 64.0142 41.8552 64.0976 41.2277C64.261 39.9987 63.8534 38.9519 63.0424 38.5174C62.7926 38.3835 62.6362 38.3655 61.5228 38.3426L60.2816 38.3172V40.7411ZM114.23 38.8179C114.392 39.0187 114.383 39.4389 114.212 39.6591C114.136 39.7562 113.97 39.9013 113.841 39.9814C113.643 40.1058 113.588 40.1142 113.469 40.0387C113.391 39.9899 113.325 39.9343 113.32 39.915C113.137 39.1756 113.187 38.8004 113.486 38.6719C113.71 38.5758 114.095 38.6515 114.23 38.8179ZM162.812 38.7147C162.789 38.7747 162.771 38.9141 162.771 39.0247C162.771 39.203 162.747 39.2256 162.563 39.2256C162.369 39.2256 162.356 39.2409 162.376 39.4495C162.393 39.6336 162.429 39.677 162.577 39.6944L162.757 39.7155L162.786 41.0718C162.802 41.8178 162.84 42.4833 162.869 42.5506C162.951 42.7381 163.142 42.8119 163.659 42.8557L164.131 42.8958V42.6448C164.131 42.4048 164.121 42.3937 163.898 42.3937C163.727 42.3937 163.627 42.3453 163.524 42.2123C163.395 42.046 163.383 41.9393 163.383 40.9381V39.8455H163.757H164.131V39.608V39.3706L163.774 39.3497L163.417 39.3289L163.396 38.9674L163.376 38.6058H163.115C162.939 38.6058 162.84 38.6415 162.812 38.7147ZM61.8512 38.9165C62.6285 39.0347 62.8281 39.1198 63.1207 39.4573C63.4006 39.7801 63.5048 40.1259 63.5076 40.7408C63.5105 41.3912 63.3557 41.8209 63.0018 42.1446C62.658 42.4592 62.3337 42.5409 61.5233 42.5167L60.8597 42.497L60.8416 40.6547L60.8234 38.8124H60.995C61.0894 38.8124 61.4747 38.8592 61.8512 38.9165ZM94.7161 39.4625C94.3133 39.5901 93.9825 39.8129 93.8897 40.0192C93.769 40.2873 93.7935 40.7471 93.9416 40.993C94.0845 41.2303 94.079 41.2279 94.8531 41.3952C95.1463 41.4586 95.4905 41.5547 95.6182 41.6087C95.8331 41.6996 95.8502 41.7296 95.8502 42.0141C95.8502 42.2846 95.8263 42.3339 95.6496 42.4264C95.3925 42.561 94.8803 42.5613 94.6238 42.427C94.5141 42.3696 94.3772 42.2301 94.3194 42.1171C94.2297 41.9413 94.1755 41.9116 93.9442 41.9116C93.7086 41.9116 93.6743 41.9315 93.6763 42.0666C93.6819 42.4194 94.0915 42.8174 94.5885 42.953C95.1285 43.1003 96.0001 42.8325 96.3196 42.4212C96.5118 42.1737 96.5206 41.5574 96.3346 41.3691C96.1891 41.2217 95.4891 40.9729 95.0341 40.9068C94.5268 40.833 94.4221 40.729 94.4221 40.2989C94.4221 39.8703 94.4544 39.8455 95.0102 39.8455C95.4612 39.8455 95.5894 39.9083 95.7817 40.2234C95.9044 40.4244 95.9691 40.4653 96.164 40.4653C96.8107 40.4653 96.3186 39.6584 95.538 39.4389C95.2062 39.3456 95.0733 39.3494 94.7161 39.4625ZM68.9746 39.5934C68.5391 39.7173 68.2147 39.9857 68.0267 40.3774C67.8962 40.6492 67.8692 40.8142 67.8716 41.3262C67.8748 41.999 67.9583 42.2796 68.2652 42.6482C68.5216 42.956 69.1132 43.1719 69.6046 43.1369C70.1298 43.0994 70.7301 42.7957 70.8712 42.496C71.0078 42.2058 70.9498 42.0491 70.7061 42.0504C70.4386 42.0519 70.3713 42.114 70.2852 42.4383C70.1999 42.7598 70.1241 42.807 69.6931 42.807C69.2025 42.807 68.9374 42.656 68.7816 42.2877C68.7074 42.1125 68.6467 41.8941 68.6467 41.8026V41.6362H69.9049H71.163V41.3751C71.163 40.979 70.9782 40.3438 70.7904 40.0945C70.446 39.6372 69.6207 39.4095 68.9746 39.5934ZM81.0821 39.5934C80.298 39.8155 79.9375 40.3624 79.9366 41.3309C79.936 41.9858 80.0902 42.4063 80.4481 42.7253C80.9363 43.1606 81.543 43.2584 82.2324 43.013C82.6939 42.8488 82.9956 42.5691 83.016 42.2867C83.0294 42.1 83.0109 42.0822 82.784 42.063C82.4762 42.0369 82.3165 42.1844 82.3165 42.4946C82.3165 42.7644 82.2391 42.807 81.7498 42.8067C81.1599 42.8063 80.8397 42.509 80.7073 41.8391L80.6673 41.6362H81.9339H83.2006V41.2879C83.2006 40.2509 82.6914 39.6465 81.7281 39.5402C81.5461 39.5201 81.2567 39.5439 81.0821 39.5934ZM86.8051 41.1885V42.8838L87.0941 42.8626L87.3831 42.8414L87.4171 41.6017C87.4555 40.2046 87.4983 40.0495 87.9039 39.84C88.4452 39.5604 88.9756 39.7376 89.1146 40.2446C89.1531 40.385 89.1848 41.0671 89.185 41.7606L89.1854 43.0215L89.4744 43.0003L89.7635 42.9791L89.7848 41.8428C89.7972 41.1833 89.7746 40.5586 89.7309 40.3541C89.6082 39.7786 89.2594 39.5434 88.5251 39.541C88.0834 39.5396 88.0049 39.5608 87.7301 39.7571L87.4251 39.9747L87.4042 39.7551C87.3845 39.55 87.3641 39.5342 87.0941 39.5144L86.8051 39.4932V41.1885ZM101.336 39.5961C100.582 39.8101 100.204 40.3828 100.203 41.3129C100.202 42.3876 100.72 43.0327 101.662 43.1311C102.395 43.2078 103.25 42.7647 103.283 42.2904C103.297 42.0928 103.285 42.0838 103.025 42.0838C102.763 42.0838 102.749 42.0953 102.651 42.3937C102.595 42.5642 102.519 42.7265 102.481 42.7543C102.444 42.7821 102.245 42.8053 102.039 42.8057C101.437 42.807 101.126 42.5275 100.987 41.86L100.94 41.6362H102.204H103.467V41.2316C103.467 40.5036 103.188 39.9887 102.639 39.7026C102.303 39.5272 101.741 39.4813 101.336 39.5961ZM133.012 39.5621C132.641 39.6587 132.262 39.9201 132.079 40.2057C131.864 40.5413 131.799 40.926 131.842 41.6067C131.885 42.2763 132.12 42.6867 132.608 42.9409C133.456 43.3831 134.823 42.9737 134.903 42.2537C134.919 42.107 134.891 42.0809 134.696 42.0619C134.414 42.0345 134.291 42.1348 134.235 42.437C134.211 42.5667 134.136 42.7031 134.068 42.74C133.852 42.8569 133.307 42.8176 133.064 42.6676C132.832 42.5239 132.579 42.0704 132.577 41.7911L132.575 41.6362H133.833H135.091V41.3043C135.091 40.554 134.762 39.9338 134.238 39.6993C133.91 39.5522 133.309 39.4849 133.012 39.5621ZM139.879 39.5626C139.104 39.7638 138.691 40.3345 138.673 41.2311C138.653 42.1975 138.95 42.7562 139.618 43.0091C140.098 43.1912 140.538 43.1865 141.005 42.9942C141.4 42.8314 141.729 42.4554 141.769 42.1183C141.788 41.9613 141.765 41.9442 141.505 41.9251C141.247 41.9061 141.209 41.9243 141.114 42.1103C140.957 42.4188 140.753 42.5315 140.351 42.5315C139.881 42.5315 139.676 42.4437 139.511 42.1716C139.155 41.5857 139.196 40.8407 139.605 40.426C140.021 40.0047 140.8 40.0478 141.081 40.5078C141.215 40.7274 141.252 40.7462 141.509 40.7272C141.776 40.7075 141.789 40.6959 141.769 40.5049C141.73 40.1404 141.57 39.933 141.186 39.7491C140.787 39.5576 140.213 39.4758 139.879 39.5626ZM152.683 39.5471C152.658 39.5723 152.638 40.3743 152.638 41.3293C152.638 43.2087 152.629 43.1657 153.023 43.251L153.239 43.2977L153.261 41.9516L153.284 40.6054L153.496 40.3901C153.655 40.2299 153.79 40.1655 154.027 40.1385L154.345 40.1022L154.324 39.8189L154.304 39.5356L154.012 39.5417C153.778 39.5466 153.674 39.5933 153.485 39.779L153.25 40.0102V39.7557C153.25 39.5064 153.244 39.5011 152.989 39.5011C152.846 39.5011 152.708 39.5218 152.683 39.5471ZM158.041 39.5885C158.023 39.6365 158.016 40.45 158.026 41.3963L158.044 43.1169L158.333 43.138L158.622 43.1593V41.3302V39.5011H158.348C158.19 39.5011 158.06 39.5379 158.041 39.5885ZM148.207 39.6162C148.108 39.6426 148.091 39.8021 148.071 40.8651C148.049 41.9889 148.035 42.1034 147.893 42.3348C147.537 42.915 146.663 42.9763 146.366 42.4419C146.311 42.3437 146.269 41.8306 146.246 40.9819L146.211 39.6733L145.98 39.651C145.841 39.6376 145.726 39.665 145.692 39.7199C145.618 39.8375 145.621 41.9228 145.695 42.3123C145.798 42.8471 146.25 43.1533 146.933 43.1498C147.255 43.1482 147.718 42.9669 147.868 42.7842C147.992 42.6323 148.081 42.7011 148.081 42.9488C148.081 43.1391 148.097 43.1513 148.353 43.1513H148.625V41.3607V39.57L148.472 39.578C148.388 39.5824 148.268 39.5995 148.207 39.6162ZM167.78 39.6905C167.763 39.719 168.052 40.5609 168.423 41.5616C169.078 43.3309 169.093 43.3859 168.985 43.5589C168.738 43.9533 168.607 44.0467 168.302 44.0467C168.022 44.0467 168.008 44.0563 168.008 44.2492C168.008 44.3606 168.033 44.468 168.065 44.4876C168.097 44.5074 168.386 44.5047 168.708 44.4817L169.293 44.4399L169.467 44.0883C169.689 43.6363 171.002 39.7671 170.958 39.6941C170.891 39.5849 170.463 39.635 170.399 39.7594C170.365 39.8257 170.13 40.4766 169.877 41.2057C169.624 41.9348 169.394 42.5315 169.366 42.5315C169.338 42.5315 169.139 42.0123 168.924 41.3779C168.334 39.6405 168.333 39.6389 168.049 39.6389C167.919 39.6389 167.797 39.6621 167.78 39.6905ZM69.9361 40.1636C70.1749 40.3671 70.3469 40.6651 70.3469 40.8751C70.3469 41.0107 70.3093 41.0163 69.3948 41.0163C68.7066 41.0163 68.4427 40.9937 68.4427 40.9348C68.4427 40.6872 68.7314 40.2774 69.0032 40.1391C69.4023 39.9361 69.6776 39.9433 69.9361 40.1636ZM81.84 40.0944C82.145 40.218 82.3641 40.4825 82.4275 40.8039L82.4695 41.0163H81.4409C80.4194 41.0163 80.4122 41.0152 80.4125 40.8613C80.4129 40.5978 80.6695 40.2588 80.9747 40.1185C81.328 39.956 81.4876 39.9516 81.84 40.0944ZM102.173 40.0855C102.414 40.2115 102.638 40.5214 102.694 40.8039L102.736 41.0163H101.776C100.903 41.0163 100.815 41.0052 100.815 40.8947C100.815 40.6484 101.064 40.3078 101.362 40.1464C101.711 39.9573 101.901 39.943 102.173 40.0855ZM133.796 40.0849C134.007 40.1954 134.237 40.527 134.311 40.8269L134.358 41.0163H133.398C132.449 41.0163 132.439 41.0147 132.439 40.8613C132.44 40.5978 132.696 40.2588 133.001 40.1185C133.349 39.9586 133.54 39.9506 133.796 40.0849ZM114.485 42.2647C114.485 42.3739 113.789 42.6692 113.532 42.6692C112.955 42.6692 112.444 42.2605 112.444 41.7985C112.444 41.4774 112.533 41.3272 112.869 41.0806L113.151 40.8738L113.818 41.5464C114.185 41.9163 114.485 42.2395 114.485 42.2647Z" fill="white"/>
</svg>
