<svg width="210" height="40" viewBox="0 0 210 40" fill="none" xmlns="http://www.w3.org/2000/svg">
<path fill-rule="evenodd" clip-rule="evenodd" d="M92.3508 0.196184C89.7215 0.654892 87.5716 2.11581 86.6181 4.09169C86.1479 5.06609 85.971 5.96135 85.9794 7.32308C85.989 8.85218 86.3664 10.0145 87.1873 11.0427C88.2835 12.4154 89.5923 13.1514 93.158 14.4002C95.4369 15.1983 96.3412 15.6289 96.7693 16.1201C97.6976 17.1854 97.0756 18.6484 95.5916 18.8905C94.4581 19.0753 93.3241 18.3927 93.0287 17.3477C92.9435 17.0465 92.8535 16.7308 92.8287 16.6462C92.794 16.528 91.9972 16.4923 89.3971 16.4923C86.4216 16.4923 86.0012 16.5161 85.933 16.6876C85.8903 16.7951 85.9474 17.3351 86.06 17.8876C86.8128 21.5844 90.01 23.8809 94.6878 24.085C97.9593 24.2278 100.261 23.4991 102.082 21.7445C103.429 20.4459 104.118 18.7529 104.118 16.7385C104.119 14.8223 103.583 13.6273 102.139 12.3249C101.072 11.3631 100.06 10.8473 96.9188 9.66388C95.7268 9.21477 94.5138 8.71323 94.2231 8.54917C93.1664 7.95274 92.7278 7.1008 93.027 6.22535C93.5746 4.62363 96.2022 4.97563 96.6588 6.71188L96.8195 7.32308L100.356 7.35581L103.892 7.38856L103.801 6.61735C103.385 3.11643 100.85 0.757539 96.8278 0.127385C95.7211 -0.0460303 93.5478 -0.0125546 92.3508 0.196184ZM113.301 20C113.301 33.2513 113.344 40 113.428 40C113.513 40 113.556 33.2513 113.556 20C113.556 6.74868 113.513 0 113.428 0C113.344 0 113.301 6.74868 113.301 20ZM9.84496 0.25957C8.02125 0.513478 6.13826 1.28763 4.59758 2.41698C1.20068 4.90683 -0.47285 9.50092 0.277285 14.2769C1.29196 20.7369 6.56738 24.6598 13.3447 23.9943C15.7261 23.7606 18.0224 22.8162 19.8249 21.3297C20.789 20.5345 22.0176 19.0074 22.6476 17.8212L23.1674 16.8423V13.6519V10.4615H17.0452H10.9231L10.9577 12.8308L10.9923 15.2L14.2231 15.2615L17.4539 15.3231L16.9134 16.1044C15.8379 17.6587 14.3936 18.291 12.1592 18.1855C8.87937 18.0308 7.19883 16.411 6.81777 13.037C6.56598 10.8085 7.16352 8.78621 8.43482 7.56443C9.22027 6.8096 10.0098 6.43766 11.1611 6.28C12.8621 6.04714 14.4068 6.51938 15.3587 7.56345L15.869 8.12308H19.3825H22.8962L22.6467 7.23077C21.3897 2.73502 17.3325 0.0712627 11.8437 0.138093C11.1651 0.14634 10.2657 0.200986 9.84496 0.25957ZM32.9362 0.467199C32.9018 0.521106 30.9977 5.74104 28.7048 12.0672C26.4119 18.3934 24.5088 23.6385 24.4755 23.7231C24.428 23.8438 25.1573 23.8769 27.8634 23.8769H31.3118L31.9291 22L32.5464 20.1231H36.6817H40.817L41.4371 22L42.0573 23.8769H45.5034C48.7238 23.8769 48.9456 23.8628 48.8885 23.6615C48.8422 23.4978 41.3825 2.82646 40.6275 0.769231L40.4807 0.369231H36.7398C34.6823 0.369231 32.9708 0.413291 32.9362 0.467199ZM50.9596 12.1231V23.8769H54.2743H57.589V12.1231V0.369231H54.2743H50.9596V12.1231ZM61.1586 12.1231V23.8769H64.4722H67.7857L67.8187 17.432L67.8517 10.987L72.0996 17.432L76.3473 23.8769H79.6532H82.959V12.1231V0.369231H79.6454H76.3319L76.2989 6.91434L76.2659 13.4596L72.0106 6.91434L67.7552 0.369231H64.457H61.1586V12.1231ZM150.649 1.85895C150.501 2.20492 150.444 2.23459 150.051 2.17305C149.518 2.08948 149.044 2.25219 148.583 2.67705C147.992 3.22117 148.16 3.56923 149.014 3.56923C149.548 3.56923 150.107 3.25809 150.334 2.83508C150.513 2.50055 150.555 2.48381 150.916 2.60517C151.403 2.76923 151.504 2.68074 151.241 2.31902C151.129 2.16419 151.037 1.91139 151.037 1.75717C151.037 1.35902 150.842 1.41034 150.649 1.85895ZM153.053 1.68406C153.145 1.71963 153.255 1.7152 153.297 1.67434C153.34 1.63348 153.265 1.60443 153.13 1.60972C152.982 1.61563 152.951 1.6448 153.053 1.68406ZM155.467 1.7296C154.937 2.03545 155.544 2.45256 156.16 2.20603C156.477 2.07951 156.56 2.08308 156.645 2.22646C157.123 3.0336 157.388 3.34277 157.741 3.50449C158.208 3.71828 158.901 3.74782 159.374 3.57415C159.666 3.46708 159.722 3.50129 159.98 3.94339C160.32 4.52763 160.471 4.56209 160.471 4.05539C160.471 3.84899 160.562 3.51151 160.672 3.30548C160.782 3.09957 160.854 2.91335 160.831 2.89194C160.809 2.8704 160.568 2.92652 160.297 3.01674C159.808 3.17957 159.802 3.1776 159.341 2.71163C159.075 2.44209 158.668 2.18695 158.385 2.11188C157.88 1.97797 157.205 2.03988 157.083 2.23126C156.941 2.45292 156.747 2.32726 156.802 2.04948C156.85 1.80702 156.806 1.76012 156.53 1.75803C156.349 1.75668 156.086 1.72074 155.945 1.67816C155.805 1.63569 155.59 1.65871 155.467 1.7296ZM146.896 1.89083C146.67 2.05083 146.675 2.06917 147.012 2.28234C147.311 2.47139 147.427 2.48369 147.762 2.36172C148.024 2.26634 148.201 2.25883 148.285 2.33945C148.482 2.53021 148.55 2.48615 148.57 2.15372C148.588 1.84185 148.441 1.74338 148.295 1.97058C148.245 2.04923 148.115 2.02671 147.941 1.90904C147.599 1.67815 147.207 1.67126 146.896 1.89083ZM154.904 2.29748C154.951 2.34252 155.028 2.34252 155.074 2.29748C155.121 2.25231 155.083 2.21538 154.989 2.21538C154.896 2.21538 154.858 2.25231 154.904 2.29748ZM145.045 2.46523C144.885 2.56825 144.924 2.65009 145.283 2.96677C145.643 3.28431 145.781 3.3328 146.137 3.26818C146.482 3.20578 146.588 3.2384 146.7 3.44185C146.817 3.65231 146.801 3.69231 146.6 3.69231C145.867 3.69231 143.898 5.09034 143.898 5.6112C143.898 6.02609 145.337 6.75618 146.534 6.94855C147.627 7.12406 149.245 6.47496 150.068 5.5312L150.403 5.14708L151.07 5.57231C151.869 6.08086 152.571 6.4368 152.642 6.36886C152.67 6.34179 152.574 5.97969 152.428 5.56406C152.23 4.99655 152.175 4.57748 152.206 3.88086C152.235 3.24677 152.203 2.95335 152.104 2.9536C152.024 2.95372 151.609 3.31508 151.181 3.75655L150.403 4.55914L149.63 4.18228C149.182 3.96406 148.453 3.74351 147.897 3.65809C146.938 3.51077 146.938 3.51052 147.01 3.16295C147.072 2.86314 147.049 2.82535 146.839 2.88948C146.678 2.93883 146.489 2.85908 146.273 2.65108C145.936 2.32542 145.391 2.24295 145.045 2.46523ZM155.508 3.12418C155.29 3.4656 155.16 3.56062 155.006 3.49256C154.892 3.44222 154.495 3.37821 154.125 3.3504C153.548 3.30708 153.388 3.34622 153.011 3.62412C152.769 3.80259 152.511 4.05514 152.439 4.18536C152.329 4.38437 152.368 4.45255 152.686 4.6112C153.446 4.99052 154.433 4.77748 154.97 4.11852C155.219 3.81292 155.243 3.80837 155.613 3.99298C156.073 4.22265 156.315 4.24062 156.184 4.0352C156.131 3.95299 156.024 3.61083 155.945 3.27496L155.803 2.66412L155.508 3.12418ZM161.265 2.81095C160.976 2.98806 161.548 3.36751 161.979 3.28431C162.185 3.24455 162.411 3.27545 162.492 3.35434C162.598 3.45625 162.639 3.45723 162.639 3.35779C162.639 3.28209 162.671 3.13957 162.71 3.04111C162.763 2.90659 162.704 2.87643 162.47 2.91963C162.299 2.95114 162.12 2.91643 162.072 2.84234C161.972 2.68541 161.5 2.66708 161.265 2.81095ZM164.424 3.21206C164.285 3.50548 164.223 3.5264 163.65 3.47323C163.072 3.41957 162.995 3.44652 162.578 3.84923C162.054 4.35545 162.023 4.49772 162.415 4.59938C163.062 4.76665 163.426 4.67938 163.87 4.25083C164.235 3.89846 164.377 3.83717 164.686 3.89698C165.13 3.98252 165.127 3.99151 164.817 3.37625L164.574 2.89317L164.424 3.21206ZM142.037 3.46523C141.981 3.55323 142.002 3.57391 142.093 3.51938C142.24 3.43175 142.291 3.32308 142.184 3.32308C142.153 3.32308 142.087 3.38708 142.037 3.46523ZM139.563 3.83163C138.861 4.02806 138.761 4.18338 139.045 4.63397C139.178 4.84492 139.502 5.17637 139.765 5.37034C140.172 5.66954 140.362 5.72295 141.019 5.72234C141.446 5.72184 141.938 5.68025 142.113 5.62966C142.396 5.54831 142.474 5.60418 142.802 6.12283L143.171 6.70769L143.323 6.06966C143.407 5.71865 143.572 5.28948 143.689 5.11582C143.894 4.81502 143.892 4.8 143.661 4.8C143.528 4.8 143.215 4.88222 142.966 4.98265L142.514 5.16517L142.123 4.68948C141.501 3.93058 140.458 3.58129 139.563 3.83163ZM143.93 3.82597C143.772 3.88345 143.643 3.98659 143.643 4.05526C143.643 4.23988 144.221 4.34646 144.492 4.21169C144.621 4.14745 144.798 4.11963 144.886 4.14991C144.983 4.18338 145.045 4.09822 145.045 3.93366C145.045 3.71163 145.012 3.68886 144.862 3.80886C144.739 3.90769 144.604 3.91729 144.448 3.83852C144.314 3.77071 144.096 3.76542 143.93 3.82597ZM166.241 4.14277C165.987 4.24185 166.296 4.67274 166.755 4.85883C167.013 4.96382 167.255 4.98326 167.443 4.91422C167.675 4.82929 167.763 4.86068 167.879 5.07003C168.019 5.32369 168.03 5.31902 168.2 4.92899C168.426 4.41009 168.428 4.41748 168.071 4.54868C167.824 4.63914 167.711 4.60332 167.475 4.36099C167.197 4.0752 166.659 3.97994 166.241 4.14277ZM138.031 4.51618C137.901 4.86991 137.838 4.90745 137.404 4.89071C136.864 4.86991 136.361 5.13514 136.037 5.61218C135.776 5.99692 135.94 6.14904 136.619 6.152C136.962 6.15348 137.157 6.04886 137.547 5.65255C137.987 5.20566 138.085 5.16062 138.449 5.23779C138.796 5.31139 138.834 5.29772 138.704 5.14597C138.62 5.04788 138.466 4.7776 138.363 4.54535L138.176 4.12308L138.031 4.51618ZM158.431 4.27926C158.431 4.34794 158.29 4.4384 158.116 4.48037C157.692 4.58314 157.443 5.01846 157.745 5.13009C157.888 5.18326 158.054 5.10671 158.234 4.90449C158.384 4.73625 158.576 4.6208 158.66 4.648C158.877 4.71766 158.852 4.49108 158.623 4.30769C158.513 4.21969 158.431 4.20751 158.431 4.27926ZM161.364 4.5632C161.045 4.94043 161.044 4.94068 160.571 4.74745C160.31 4.64098 159.946 4.55385 159.762 4.55385C159.293 4.55385 158.577 4.90498 158.343 5.24972C158.089 5.62412 158.271 5.85649 158.958 6.0352C159.589 6.19914 160.258 6.03286 160.732 5.59446C161.068 5.28357 161.095 5.27902 161.471 5.46683C162.016 5.73908 162.171 5.72271 161.999 5.41095C161.922 5.27311 161.851 4.9408 161.84 4.67249C161.829 4.40418 161.789 4.18474 161.751 4.18498C161.713 4.18523 161.539 4.35544 161.364 4.5632ZM154.144 4.91298C153.855 5.03975 153.583 5.19901 153.54 5.26658C153.416 5.45932 154.23 6.53415 154.835 6.97723C155.136 7.19754 155.624 7.44086 155.919 7.51791C156.581 7.69071 157.625 7.59828 158.188 7.31717C158.485 7.16935 158.626 7.14855 158.66 7.24788C158.687 7.32603 158.944 7.72935 159.231 8.14412L159.753 8.89846L159.916 8.12529C160.006 7.70006 160.229 7.0768 160.411 6.74031C160.593 6.40382 160.718 6.10486 160.688 6.07606C160.658 6.04739 160.225 6.16628 159.725 6.34043L158.816 6.65699L158.063 5.88062C157.524 5.32345 157.136 5.04369 156.692 4.88997C155.885 4.61058 154.812 4.62031 154.144 4.91298ZM163.18 4.91975C162.882 5.05034 162.639 5.1904 162.639 5.23089C162.639 5.46732 163.087 6.06597 163.551 6.44972C164.397 7.14868 165.364 7.31471 166.357 6.9312C166.701 6.7984 166.91 6.77021 166.938 6.85292C166.963 6.92394 167.162 7.25256 167.38 7.58326L167.778 8.18462L167.951 7.45859C168.046 7.0592 168.242 6.54696 168.387 6.32012C168.636 5.93157 168.638 5.90806 168.418 5.91458C168.289 5.9184 167.931 6.0208 167.621 6.14215L167.057 6.36295L166.34 5.65575C165.333 4.66228 164.311 4.42425 163.18 4.91975ZM134.279 5.28234C134.159 5.46929 134.585 5.78462 134.957 5.78462C135.149 5.78462 135.366 5.84369 135.441 5.91582C135.537 6.00874 135.598 5.97071 135.648 5.78572C135.694 5.61698 135.666 5.54215 135.569 5.57465C135.487 5.60222 135.283 5.52234 135.116 5.39705C134.79 5.15249 134.397 5.09871 134.279 5.28234ZM169.948 5.25132C169.995 5.29637 170.071 5.29637 170.118 5.25132C170.165 5.20615 170.126 5.16923 170.033 5.16923C169.939 5.16923 169.901 5.20615 169.948 5.25132ZM170.458 5.25132C170.505 5.29637 170.581 5.29637 170.628 5.25132C170.674 5.20615 170.636 5.16923 170.543 5.16923C170.449 5.16923 170.411 5.20615 170.458 5.25132ZM132.363 5.58314C132.135 5.74388 132.139 5.75976 132.449 5.95569C132.698 6.11336 132.849 6.13218 133.107 6.03754C133.291 5.96985 133.521 5.944 133.618 5.97982C133.732 6.02203 133.816 5.93428 133.856 5.73022C133.923 5.39434 133.837 5.33144 133.611 5.54991C133.51 5.64714 133.399 5.64714 133.211 5.54991C132.866 5.37181 132.65 5.38031 132.363 5.58314ZM153.062 6.15385C152.914 6.63102 152.892 6.64615 152.349 6.64615C151.677 6.64615 151.145 6.89071 150.812 7.352C150.223 8.16738 150.465 8.58646 151.434 8.42843C152.052 8.32751 152.642 7.86818 152.891 7.29218C153.069 6.88 153.102 6.86314 153.587 6.92603C154.217 7.00751 154.295 6.90868 153.894 6.53661C153.724 6.37834 153.55 6.11668 153.508 5.9552C153.396 5.52418 153.235 5.59594 153.062 6.15385ZM150.79 6.01723C150.685 6.20566 150.523 6.27692 150.198 6.27692C149.453 6.27692 148.771 7.13649 149.371 7.32024C149.725 7.4288 150.487 7.08394 150.591 6.76825C150.662 6.55372 150.755 6.50942 151.05 6.55114C151.488 6.61329 151.483 6.62978 151.177 6.14326C150.94 5.76702 150.93 5.76394 150.79 6.01723ZM137.975 5.99742C137.553 6.10092 137.141 6.41735 137.141 6.63766C137.141 6.91889 138.027 7.38462 138.563 7.38462C138.8 7.38462 139.215 7.27003 139.485 7.13009L139.977 6.87545L140.319 7.19163C140.507 7.36542 140.687 7.50769 140.718 7.50769C140.749 7.50769 140.774 7.17538 140.774 6.76923C140.774 6.36308 140.739 6.03077 140.696 6.03077C140.653 6.03077 140.476 6.13859 140.302 6.27028C139.988 6.50892 139.985 6.50868 139.371 6.20874C138.771 5.91532 138.486 5.87225 137.975 5.99742ZM131.487 6.68209L131.135 7.33354L130.409 7.22018C129.14 7.02215 128.112 7.48529 127.578 8.49576C127.354 8.91889 127.35 8.97514 127.535 9.1232C127.647 9.2128 128.131 9.30745 128.612 9.33366C129.374 9.37514 129.557 9.34043 130.051 9.06092C130.362 8.8848 130.747 8.53243 130.905 8.27803C131.064 8.02351 131.206 7.79828 131.221 7.77736C131.237 7.75643 131.575 7.83077 131.974 7.94252C132.767 8.16529 132.958 8.11914 132.641 7.78092C132.357 7.47877 132.042 6.72025 132.042 6.3424C132.042 5.86499 131.875 5.96714 131.487 6.68209ZM161.154 6.2176C161.039 6.5056 161.35 7.10092 161.823 7.50215C162.258 7.87064 162.956 8.07741 163.393 7.96701C163.588 7.91791 163.664 8.0096 163.79 8.44541C163.876 8.74203 163.985 8.98462 164.032 8.98462C164.079 8.98462 164.187 8.79865 164.272 8.57145C164.357 8.34425 164.541 8.05871 164.68 7.93699C165.049 7.61428 164.999 7.56246 164.361 7.61144C163.894 7.64726 163.772 7.61342 163.704 7.42769C163.553 7.01588 163.015 6.40308 162.638 6.21526C162.146 5.96948 161.252 5.97095 161.154 6.2176ZM143.927 6.60788C143.641 6.99409 143.63 6.99754 143.198 6.82326C142.42 6.50966 141.724 6.65698 141.165 7.2528C140.938 7.49563 140.935 7.53046 141.127 7.71631C141.248 7.83311 141.623 7.94018 142.022 7.97218C142.65 8.0224 142.749 7.99372 143.164 7.64172L143.619 7.25625L144.093 7.52603L144.566 7.79582L144.464 7.49785C144.407 7.33403 144.329 6.97846 144.289 6.70769L144.217 6.21538L143.927 6.60788ZM128.464 6.59397C128.218 6.88024 128.518 7.01415 129.332 6.98105C129.944 6.95619 130.002 6.92861 130.002 6.66191C130.002 6.42203 129.969 6.39606 129.819 6.51655C129.685 6.62338 129.566 6.62745 129.381 6.53157C129.018 6.34425 128.657 6.36874 128.464 6.59397ZM130.201 6.51015C130.121 6.63557 130.438 6.79594 130.862 6.84468C131.207 6.88419 131.228 6.79262 130.926 6.57132C130.667 6.38178 130.303 6.35101 130.201 6.51015ZM175.194 6.68505C175.117 6.86659 175.009 6.89391 174.622 6.83077C174.226 6.76615 174.084 6.80591 173.779 7.06658C173.469 7.33108 173.441 7.39951 173.602 7.50363C173.908 7.70092 174.435 7.65034 174.776 7.39102C174.979 7.2368 175.195 7.17735 175.382 7.22437C175.633 7.288 175.655 7.26695 175.547 7.06412C175.478 6.93575 175.392 6.74769 175.356 6.64615C175.301 6.4944 175.273 6.50129 175.194 6.68505ZM168.599 6.72862C168.288 6.81034 168.32 7.04554 168.689 7.38006C168.944 7.61157 169.098 7.65218 169.513 7.5984C169.938 7.54338 170.037 7.57169 170.101 7.76615C170.2 8.06991 170.415 8.06831 170.415 7.76394C170.415 7.63409 170.449 7.44431 170.489 7.34215C170.545 7.20172 170.497 7.17317 170.292 7.22486C170.118 7.26868 169.919 7.20209 169.74 7.04037C169.436 6.76677 168.954 6.6352 168.599 6.72862ZM145.141 7.22326C144.823 7.30351 144.865 7.54585 145.262 7.92948C145.554 8.21157 145.699 8.25698 146.221 8.23028C146.739 8.20369 146.868 8.24344 147.042 8.48308L147.248 8.76726L147.42 8.29132C147.652 7.648 147.643 7.61501 147.282 7.77391C147.008 7.8944 146.912 7.86338 146.512 7.52504C146.075 7.15385 145.723 7.07655 145.141 7.22326ZM166.728 7.33661C166.58 7.55397 166.461 7.58646 165.994 7.53563C165.423 7.47348 164.933 7.71865 164.933 8.06745C164.933 8.43483 165.788 8.46855 166.248 8.11914C166.49 7.93514 166.672 7.89169 166.935 7.95495C167.233 8.02658 167.267 8.01194 167.145 7.86658C167.064 7.77071 166.976 7.55385 166.951 7.38462C166.904 7.07815 166.903 7.07791 166.728 7.33661ZM123.914 7.39926C123.398 7.54326 123.391 7.75311 123.889 8.23372C124.377 8.70449 125.077 8.90191 125.673 8.73674C125.915 8.67003 126.12 8.61539 126.13 8.61539C126.14 8.61539 126.233 8.73994 126.336 8.89231L126.524 9.16923H124.598C123.538 9.16923 122.515 9.21157 122.323 9.26326C121.714 9.42794 121.53 9.96443 121.534 11.5692C121.537 13.3313 121.846 14.5126 122.805 16.4308C124.634 20.0924 127.864 23.4613 132.274 26.3055C138.106 30.0673 146.18 32.0117 153.925 31.5196C157.705 31.2794 161.549 30.6247 165.125 29.6122C167.357 28.9798 167.611 28.8938 167.611 28.7675C167.611 28.7047 167.352 28.1961 167.037 27.6372C166.313 26.3545 166.299 26.1745 166.937 26.29L167.41 26.3758L167.212 26.0801C167.03 25.8094 167.033 25.7537 167.247 25.4154C167.552 24.9348 167.546 24.4677 167.228 24.106L166.973 23.8154L166.717 24.1078C166.344 24.5322 166.287 24.9051 166.525 25.3494C166.688 25.6551 166.701 25.7792 166.583 25.9166C166.5 26.0132 166.387 26.0923 166.331 26.0923C166.177 26.0923 165.454 24.1834 165.189 23.0769C165.053 22.5087 164.918 21.3116 164.87 20.2462C164.769 18.0236 164.724 17.6154 164.488 16.7385C164.388 16.3662 164.215 15.6462 164.104 15.1385C163.903 14.2209 162.993 11.7712 162.746 11.4846C162.282 10.9451 157.69 10.2542 153.746 10.1303C150.997 10.0442 151.097 10.0891 151.544 9.13846C151.679 8.85083 151.762 8.61539 151.728 8.61539C151.694 8.61539 151.458 8.69945 151.204 8.80209C150.741 8.98855 150.74 8.98818 150.333 8.55951C149.71 7.90265 148.901 7.70031 148.175 8.01982C147.74 8.21108 147.765 8.40234 148.294 8.91311C148.805 9.40615 149.456 9.57391 150.157 9.39323C150.592 9.28099 150.64 9.29625 150.831 9.60911C150.945 9.79422 151.037 9.97871 151.037 10.019C151.037 10.0593 149.889 10.0923 148.485 10.0923H145.933L146.014 9.75385C146.059 9.56775 146.175 9.29268 146.272 9.14277C146.528 8.74572 146.502 8.73071 145.91 8.93243L145.373 9.11532L144.97 8.69022C144.436 8.128 143.696 7.9088 143.006 8.10855C142.429 8.2752 142.379 8.43926 142.762 8.90892C143.272 9.53477 144.182 9.77034 144.972 9.48049C145.262 9.37415 145.32 9.40259 145.5 9.73809C145.611 9.94548 145.683 10.1286 145.66 10.1451C145.638 10.1615 144.758 10.2464 143.707 10.3338C142.655 10.421 141.307 10.5391 140.711 10.5961C138.386 10.8181 136.043 10.8641 134.528 10.7178C132.36 10.5083 130.708 10.2386 129.747 9.9376C129.291 9.79471 128.459 9.58486 127.898 9.47101C126.892 9.26695 126.879 9.25969 126.92 8.91052C126.943 8.71594 127.023 8.48554 127.097 8.39852C127.312 8.14831 127.096 8.05932 126.66 8.21822C126.286 8.35471 126.235 8.33748 125.836 7.94141C125.49 7.59766 124.686 7.22535 124.392 7.27336C124.357 7.27902 124.142 7.33575 123.914 7.39926ZM153.757 7.45637C153.619 7.80172 154.159 8.18216 154.765 8.16677C155.114 8.15791 155.353 8.21932 155.445 8.34166C155.565 8.49994 155.611 8.46585 155.733 8.128C155.871 7.74782 155.864 7.72972 155.604 7.7952C155.422 7.84123 155.205 7.76296 154.958 7.56308C154.533 7.21736 153.875 7.15889 153.757 7.45637ZM160.403 7.51544C160.248 7.7568 160.753 8.14867 161.126 8.07668C161.373 8.02904 161.493 8.06929 161.557 8.22068C161.637 8.41009 161.656 8.40652 161.751 8.18462C161.903 7.82683 161.894 7.72652 161.714 7.78671C161.627 7.81612 161.418 7.73772 161.251 7.61243C160.913 7.35914 160.531 7.31544 160.403 7.51544ZM158.23 7.75705C158.008 7.97157 157.918 7.98622 157.563 7.86646C157.049 7.69354 156.587 7.80037 156.189 8.184C155.768 8.59101 155.8 8.70498 156.385 8.87422C156.95 9.03754 157.476 8.8992 157.864 8.48566C158.062 8.27471 158.111 8.27077 158.447 8.43852C158.649 8.53932 158.813 8.6064 158.812 8.58782C158.811 8.56911 158.737 8.31889 158.648 8.03163L158.486 7.50942L158.23 7.75705ZM37.9325 11.2985C38.5764 13.248 39.1033 14.8818 39.1033 14.9292C39.1033 14.9766 38.0072 15.0154 36.6674 15.0154C34.7723 15.0154 34.2445 14.9812 34.2903 14.8615C34.3225 14.777 34.8571 13.1431 35.4781 11.2308C36.0991 9.3184 36.6419 7.75385 36.6845 7.75385C36.7269 7.75385 37.2885 9.34892 37.9325 11.2985ZM122.48 7.86191C122.48 8.04665 122.85 8.27705 123.037 8.208C123.134 8.17182 123.278 8.20443 123.357 8.28037C123.463 8.3824 123.5 8.37538 123.5 8.25354C123.5 8.16283 123.4 8.01514 123.277 7.92517C123.025 7.74055 122.48 7.69723 122.48 7.86191ZM171.941 8.07692C171.64 8.4224 171.595 8.43618 171.24 8.29022C170.497 7.98425 169.759 8.14646 169.205 8.7376L168.951 9.00812L169.251 9.24246C169.454 9.40111 169.751 9.47692 170.17 9.47692C170.679 9.47692 170.868 9.40985 171.236 9.09809C171.658 8.74018 171.698 8.73009 171.97 8.91348C172.294 9.13305 172.64 9.17428 172.515 8.97846C172.469 8.90732 172.394 8.59237 172.348 8.2784L172.263 7.70769L171.941 8.07692ZM173.921 7.86892C173.434 7.98338 172.71 8.34535 172.71 8.47434C172.71 8.68874 173.529 9.75028 173.912 10.0321C174.845 10.7195 176.075 10.8974 177.244 10.5142C177.568 10.4079 177.849 10.3386 177.867 10.3604C177.885 10.3822 178.052 10.6549 178.238 10.9665C178.424 11.2782 178.683 11.6262 178.814 11.7399C179.041 11.9385 179.054 11.922 179.134 11.3394C179.18 11.0053 179.387 10.408 179.596 10.0122C179.803 9.61625 179.974 9.2784 179.975 9.26154C179.981 9.152 179.42 9.28061 178.774 9.53674L178.018 9.83692L177.829 9.56455C177.725 9.41489 177.377 9.04308 177.054 8.73846C176.177 7.90966 175.063 7.60049 173.921 7.86892ZM139.75 8.00775C139.597 8.24615 140.1 8.64098 140.466 8.57034C140.65 8.53477 140.854 8.55668 140.918 8.61895C140.99 8.688 141.099 8.63397 141.199 8.48037C141.342 8.25982 141.333 8.23311 141.132 8.26597C141.005 8.28665 140.76 8.20751 140.587 8.09022C140.23 7.84886 139.874 7.81378 139.75 8.00775ZM152.726 8.32295C152.499 8.43298 152.312 8.57231 152.312 8.63262C152.312 8.6928 152.499 8.85489 152.726 8.99286C153.13 9.23717 153.707 9.25932 154.24 9.0512C154.357 9.00541 154.533 9.05354 154.645 9.16209C154.928 9.4352 154.957 9.41145 155.011 8.86154C155.065 8.32197 155.027 8.28689 154.67 8.53932C154.461 8.68689 154.385 8.67951 154.103 8.48369C153.621 8.14843 153.191 8.09834 152.726 8.32295ZM162.918 8.45661C162.69 8.75926 162.635 8.77637 162.328 8.64123C161.749 8.38658 161.046 8.45588 160.609 8.81095C160.122 9.20628 160.12 9.29932 160.592 9.53526C161.193 9.83545 161.809 9.77551 162.277 9.37132L162.685 9.01957L163.115 9.26412L163.544 9.50868L163.445 9.15434C163.39 8.95951 163.35 8.64763 163.356 8.46154C163.37 8.03385 163.238 8.03237 162.918 8.45661ZM168.567 8.24615C168.523 8.31385 168.287 8.36923 168.041 8.36923C167.516 8.36923 167.101 8.55545 167.101 8.79114C167.101 9.17255 167.805 9.20591 168.204 8.84345C168.442 8.62757 168.53 8.60726 168.686 8.73206C168.849 8.86277 168.873 8.82966 168.849 8.50424C168.821 8.12012 168.712 8.01982 168.567 8.24615ZM123.577 8.47176C123.541 8.52825 123.336 8.54954 123.122 8.51914C122.724 8.46277 122.3 8.67951 122.425 8.87545C122.522 9.02732 123.212 9.01256 123.312 8.85649C123.357 8.78609 123.499 8.76062 123.628 8.8C123.814 8.85711 123.847 8.82067 123.793 8.62043C123.719 8.3456 123.676 8.31643 123.577 8.47176ZM141.721 8.65895C141.565 8.9792 141.505 9.00431 141.042 8.94437C140.418 8.86351 139.828 9.08554 139.457 9.54019C139.099 9.98006 139.109 10.0719 139.53 10.2266C140.072 10.4254 140.713 10.2471 141.181 9.76812C141.56 9.3808 141.642 9.34966 142.079 9.42868C142.483 9.50166 142.536 9.488 142.412 9.3424C142.331 9.24714 142.181 8.97538 142.079 8.73846L141.893 8.30769L141.721 8.65895ZM164.583 8.74228C164.253 8.87015 164.225 9.06868 164.489 9.40554C164.963 10.0097 165.779 10.2437 166.496 9.98056C166.763 9.88271 166.829 9.92086 167.034 10.2882C167.312 10.7865 167.483 10.8267 167.483 10.3938C167.483 10.2213 167.571 9.91668 167.678 9.71692C167.888 9.32345 167.803 9.27458 167.295 9.49809C167.002 9.62695 166.923 9.60221 166.556 9.26671C165.85 8.62215 165.282 8.47102 164.583 8.74228ZM130.763 8.94375C130.59 9.05674 130.424 9.16714 130.396 9.18917C130.367 9.2112 130.453 9.34609 130.587 9.48874C131.147 10.0868 132.03 10.2572 132.733 9.90326C133.092 9.72246 133.12 9.72923 133.507 10.0921L133.91 10.4683L133.901 10.065C133.896 9.84308 133.938 9.50203 133.993 9.3072L134.095 8.95286L133.624 9.22055C133.16 9.48517 133.151 9.48554 132.885 9.25181C132.254 8.69846 131.343 8.56615 130.763 8.94375ZM158.081 8.98954C157.704 9.1344 157.719 9.27889 158.145 9.60283C158.41 9.8048 158.61 9.85477 158.969 9.80862C159.355 9.75902 159.456 9.79102 159.519 9.98154C159.633 10.3282 159.755 10.2673 159.911 9.78462C160.057 9.33415 160.023 9.28135 159.708 9.4736C159.571 9.5568 159.428 9.50819 159.198 9.30092C158.801 8.94326 158.454 8.8464 158.081 8.98954ZM137.005 9.29416C136.722 9.56837 136.631 9.59373 136.327 9.48246C135.653 9.23496 135.013 9.32258 134.562 9.72394L134.145 10.0939L134.446 10.3393C134.884 10.6961 135.706 10.6662 136.308 10.2715C136.762 9.97452 136.803 9.96874 137.102 10.1583C137.276 10.2682 137.437 10.3397 137.461 10.317C137.484 10.2944 137.465 9.98375 137.418 9.62659L137.332 8.97736L137.005 9.29416ZM147.596 9.21009C147.111 9.2544 146.792 9.44062 146.903 9.61391C147.001 9.768 147.563 9.74991 147.666 9.58929C147.713 9.51569 147.86 9.48283 147.992 9.51618C148.124 9.54966 148.232 9.54056 148.231 9.49612C148.225 9.27532 147.998 9.17317 147.596 9.21009ZM171.608 9.53994C171.568 9.64234 171.573 9.97612 171.621 10.2817C171.733 11.0054 172.439 11.7552 173.126 11.8795C173.599 11.9653 173.602 11.97 173.602 12.5675C173.602 12.8985 173.637 13.1692 173.68 13.1692C173.722 13.1692 173.871 13.0297 174.01 12.8591C174.149 12.6885 174.431 12.4646 174.638 12.3615C175.105 12.1282 175.024 11.9841 174.367 11.8768C173.948 11.8085 173.857 11.7442 173.857 11.5152C173.857 10.7294 173.243 9.83397 172.491 9.52332C171.96 9.304 171.7 9.30892 171.608 9.53994ZM138.671 9.72308C138.671 9.81329 138.709 9.85021 138.756 9.80517C138.803 9.76 138.803 9.68615 138.756 9.64099C138.709 9.59594 138.671 9.63286 138.671 9.72308ZM180.168 9.86806C180.028 9.94363 179.894 10.0203 179.871 10.0383C179.848 10.0562 179.922 10.2086 180.037 10.3769C180.309 10.7778 180.893 11.0023 181.441 10.9164C181.813 10.8582 181.92 10.8982 182.136 11.1776C182.39 11.5058 182.391 11.5061 182.395 11.2226C182.397 11.066 182.461 10.8258 182.537 10.6891C182.718 10.363 182.617 10.2831 182.259 10.4682C182.004 10.5998 181.937 10.5796 181.706 10.3013C181.456 10.0005 180.901 9.71877 180.574 9.72677C180.491 9.72886 180.308 9.79237 180.168 9.86806ZM138.607 10.0923C138.564 10.16 138.589 10.2154 138.663 10.2154C138.738 10.2154 138.798 10.16 138.798 10.0923C138.798 10.0246 138.773 9.96923 138.742 9.96923C138.711 9.96923 138.651 10.0246 138.607 10.0923ZM162.639 10.3503C162.639 11.0638 163.178 11.6524 163.977 11.8101C164.309 11.8757 164.365 11.9458 164.399 12.3428C164.421 12.5942 164.455 12.8 164.474 12.8C164.493 12.8 164.744 12.5849 165.03 12.3218L165.551 11.8437L165.083 11.7706C164.657 11.704 164.597 11.6447 164.423 11.112C164.207 10.4492 163.61 9.96923 163.002 9.96923C162.681 9.96923 162.639 10.0133 162.639 10.3503ZM168.344 10.1627C167.906 10.3921 167.907 10.4587 168.356 10.8738C168.815 11.2988 169.495 11.4159 170.024 11.161C170.406 10.9774 170.428 10.9815 170.624 11.2697C170.887 11.657 171.053 11.6507 171.053 11.2534C171.053 11.0798 171.115 10.8258 171.191 10.6891C171.384 10.3407 171.247 10.2682 170.859 10.5136C170.539 10.7158 170.511 10.7109 169.94 10.3456C169.293 9.93169 168.876 9.88394 168.344 10.1627ZM165.292 10.5456C165.384 10.5812 165.494 10.5767 165.536 10.5359C165.579 10.495 165.503 10.466 165.369 10.4713C165.22 10.4772 165.19 10.5063 165.292 10.5456ZM166.081 10.7542C166.081 10.7797 166.181 10.8767 166.304 10.9696C166.506 11.1226 166.51 11.1183 166.352 10.9231C166.185 10.718 166.081 10.6529 166.081 10.7542ZM182.782 11.3194C182.782 11.5806 182.888 11.7607 183.154 11.9505C183.364 12.1007 183.497 12.2896 183.459 12.385C183.373 12.6012 183.558 12.6011 183.865 12.3849C184.098 12.2202 184.098 12.2138 183.853 12.139C183.694 12.0902 183.592 11.9376 183.575 11.7233C183.55 11.4065 183.15 10.9538 182.895 10.9538C182.833 10.9538 182.782 11.1184 182.782 11.3194ZM176.938 11.5135C176.725 11.9648 176.756 12.8782 177.001 13.377C177.117 13.6133 177.426 13.9431 177.687 14.1102L178.162 14.4137L177.923 15.0222C177.791 15.3569 177.712 15.6308 177.747 15.6308C177.782 15.6308 178.025 15.52 178.286 15.3846C178.548 15.2492 178.949 15.1385 179.178 15.1385C179.749 15.1385 179.7 14.9806 179.022 14.6334C178.547 14.39 178.466 14.2981 178.544 14.0932C178.596 13.9573 178.638 13.5374 178.638 13.16C178.638 12.3918 178.284 11.7473 177.668 11.3963C177.204 11.1318 177.111 11.147 176.938 11.5135ZM175.94 11.6513C175.986 11.6964 176.063 11.6964 176.11 11.6513C176.156 11.6062 176.118 11.5692 176.025 11.5692C175.931 11.5692 175.893 11.6062 175.94 11.6513ZM179.769 11.7465C179.55 11.8388 179.337 11.965 179.298 12.0273C179.183 12.2068 179.656 12.8622 180.179 13.2473C180.594 13.553 180.77 13.6 181.497 13.6C181.958 13.6 182.455 13.5574 182.602 13.5055C182.825 13.4266 182.929 13.5024 183.233 13.967C183.434 14.2729 183.637 14.5231 183.685 14.5231C183.733 14.5231 183.809 14.2859 183.854 13.9959C183.899 13.7061 184.052 13.2844 184.195 13.0591C184.336 12.8336 184.428 12.6254 184.398 12.5962C184.368 12.5671 184.047 12.6518 183.685 12.7846L183.027 13.026L182.46 12.4407C181.665 11.6198 180.677 11.365 179.769 11.7465ZM169.937 11.8758C169.424 12.0912 169.414 12.2471 169.899 12.4891C170.379 12.7287 170.668 12.7264 171.032 12.48C171.299 12.2996 171.342 12.2996 171.549 12.48C171.863 12.755 171.881 12.739 171.881 12.1846C171.881 11.6335 171.862 11.6153 171.56 11.8793C171.369 12.0462 171.307 12.0463 170.976 11.88C170.529 11.6549 170.464 11.6546 169.937 11.8758ZM184.641 12.1681C184.537 12.3307 185.041 12.7163 185.255 12.6372C185.358 12.599 185.47 12.6338 185.505 12.7146C185.55 12.8214 185.601 12.8138 185.693 12.6865C185.79 12.5526 185.718 12.459 185.385 12.2865C184.901 12.0361 184.741 12.0108 184.641 12.1681ZM166.662 12.4582C166.417 12.7951 166.404 13.6577 166.636 14.1886C166.869 14.7238 169.155 18.0974 169.906 19.0154C171.865 21.4102 172.359 22.7151 172.791 26.6388C173 28.538 173.168 28.9732 173.207 27.7212C173.223 27.2294 173.573 26.9985 175.13 26.4545C177.253 25.7121 185.734 23.5077 186.466 23.5077C186.613 23.5077 186.734 23.471 186.734 23.4262C186.734 23.2722 184.972 21.1073 184.291 20.4251C180.773 16.8978 174.465 13.6937 168.56 12.4334C167.104 12.1226 166.903 12.1253 166.662 12.4582ZM165.147 13.0432C164.746 13.5028 164.627 14.0069 164.809 14.4698C164.936 14.7906 164.916 14.8551 164.623 15.0804C164.199 15.4073 164.21 15.4692 164.71 15.537C164.938 15.568 165.225 15.6352 165.347 15.6864C165.554 15.7732 165.556 15.7495 165.379 15.3415C165.227 14.9898 165.222 14.8844 165.353 14.8057C165.706 14.594 166.081 13.9785 166.079 13.6142C166.074 12.626 165.707 12.4007 165.147 13.0432ZM176.082 12.8795C175.969 13.0535 175.885 13.0614 175.49 12.9355C174.945 12.7618 174.473 12.8523 174.155 13.1914C173.932 13.4293 173.933 13.4434 174.17 13.6111C174.541 13.8725 175.29 13.8289 175.626 13.5264C175.901 13.2793 175.924 13.2775 176.161 13.4847C176.474 13.7579 176.513 13.7097 176.439 13.1385C176.374 12.6338 176.285 12.5694 176.082 12.8795ZM184.633 13.5244C184.434 14.3984 184.913 15.3275 185.789 15.7671L186.375 16.0615L186.308 16.7115L186.241 17.3615L186.615 17.058C186.82 16.891 187.189 16.6843 187.435 16.5986C187.68 16.513 187.881 16.4032 187.881 16.3547C187.881 16.3063 187.637 16.1884 187.339 16.0927L186.797 15.9188L186.724 15.1902C186.683 14.7894 186.588 14.3508 186.512 14.2154C186.251 13.7513 185.626 13.2831 185.173 13.2122C184.748 13.1455 184.715 13.1646 184.633 13.5244ZM180.08 14.0715C179.922 14.2246 179.902 14.3797 179.987 14.8159C180.363 16.7593 181.724 17.9407 183.731 18.065L184.661 18.1226L184.736 18.8151C184.816 19.5494 185.045 20.3077 185.186 20.3077C185.233 20.3077 185.409 20.0268 185.578 19.6836C185.763 19.3072 186.185 18.7977 186.639 18.4004L187.394 17.7414L186.801 17.6558C186.476 17.6086 185.931 17.5959 185.589 17.6276L184.969 17.685L184.826 17.1351C184.495 15.8684 183.667 14.8254 182.549 14.2704C181.823 13.9094 180.37 13.7924 180.08 14.0715ZM176.057 14.1135C175.559 14.3034 176.298 14.9764 176.855 14.8414C177.082 14.7865 177.2 14.8191 177.252 14.9508C177.365 15.2336 177.517 15.1766 177.587 14.8257C177.636 14.5785 177.602 14.5205 177.424 14.5488C177.301 14.5685 177.093 14.4943 176.963 14.3838C176.685 14.1479 176.281 14.0277 176.057 14.1135ZM166.208 15.2004C166.021 15.7482 166.137 16.2615 166.528 16.6164C166.817 16.8782 166.823 16.9152 166.644 17.2494L166.454 17.6043L167.001 17.5234C167.7 17.4199 167.736 17.3808 167.381 17.103C167.114 16.8943 167.1 16.829 167.223 16.3871C167.37 15.861 167.253 15.3818 166.881 14.9849C166.575 14.6585 166.371 14.7237 166.208 15.2004ZM187.275 14.8914C186.883 15.05 186.913 15.1717 187.453 15.6294C187.87 15.9828 187.972 16.0148 188.465 15.9435C188.934 15.8754 189.032 15.9002 189.152 16.1167C189.229 16.2556 189.357 16.3692 189.437 16.3692C189.516 16.3692 189.545 16.3345 189.501 16.2921C189.457 16.2496 189.502 16.0281 189.601 15.7998C189.79 15.3633 189.681 15.2623 189.284 15.5046C189.144 15.5899 188.991 15.5247 188.707 15.259C188.279 14.8588 187.715 14.7138 187.275 14.8914ZM178.67 15.5925C178.358 15.6714 178.392 15.8169 178.793 16.1216C178.998 16.2772 179.243 16.358 179.394 16.3199C179.535 16.2843 179.751 16.3445 179.877 16.4545C180.081 16.6335 180.104 16.634 180.104 16.4599C180.104 16.3535 180.139 16.1781 180.182 16.0702C180.237 15.9316 180.205 15.8948 180.07 15.9445C179.966 15.9831 179.687 15.9009 179.451 15.7617C179.214 15.6225 178.992 15.5148 178.957 15.5225C178.922 15.53 178.793 15.5616 178.67 15.5925ZM184.753 16.0078C184.602 16.2427 185.104 16.6395 185.483 16.5857C185.716 16.5527 185.859 16.6006 185.914 16.7297C185.983 16.8929 186.012 16.8847 186.101 16.6769C186.253 16.3191 186.244 16.2188 186.064 16.279C185.977 16.3084 185.768 16.23 185.601 16.1047C185.263 15.8514 184.881 15.8078 184.753 16.0078ZM190.716 17.0647C190.488 17.3663 190.438 17.3803 190.049 17.2494C189.286 16.9926 188.701 17.0688 188.204 17.4897C187.956 17.6998 187.754 17.9129 187.754 17.9633C187.754 18.0137 187.981 18.154 188.259 18.2751C188.903 18.5554 189.584 18.4608 190.054 18.0252C190.395 17.7102 190.412 17.7074 190.811 17.9066C191.036 18.0187 191.24 18.091 191.264 18.0672C191.289 18.0433 191.259 17.811 191.199 17.5509C191.138 17.2907 191.118 17.0015 191.156 16.9082C191.271 16.6167 190.974 16.7227 190.716 17.0647ZM167.924 17.2388C167.797 17.4377 167.983 18.2154 168.158 18.2154C168.293 18.2153 168.338 17.823 168.267 17.2615C168.244 17.0735 168.039 17.0598 167.924 17.2388ZM165.109 18.3803C164.922 18.759 164.923 18.8229 165.122 19.1943C165.277 19.4842 165.299 19.6351 165.199 19.7311C164.975 19.9473 165.037 20.0206 165.443 20.0206C165.85 20.0206 165.911 19.9473 165.686 19.7301C165.586 19.6329 165.586 19.5261 165.686 19.3444C165.874 19.006 165.856 18.4484 165.648 18.1846C165.412 17.8846 165.341 17.9107 165.109 18.3803ZM166.378 18.0513C166.425 18.0964 166.501 18.0964 166.548 18.0513C166.595 18.0062 166.557 17.9692 166.463 17.9692C166.37 17.9692 166.331 18.0062 166.378 18.0513ZM183.499 18.3018C183.309 18.4855 183.434 19.071 183.71 19.2833C183.869 19.4068 183.981 19.6011 183.957 19.7152C183.919 19.8967 183.961 19.9054 184.296 19.7834C184.68 19.6433 184.717 19.4462 184.359 19.4462C184.226 19.4462 184.191 19.3717 184.246 19.2047C184.29 19.0719 184.264 18.8516 184.188 18.7152C184.031 18.4327 183.62 18.1856 183.499 18.3018ZM167.228 18.5941C167.228 18.9477 167.904 19.5692 168.288 19.5692C168.523 19.5692 168.625 19.6528 168.688 19.8982L168.774 20.2271L169.085 19.9035C169.47 19.5028 169.472 19.4462 169.1 19.4462C168.888 19.4462 168.745 19.3242 168.591 19.0126C168.278 18.3781 167.228 18.0558 167.228 18.5941ZM190.718 18.4734C190.49 18.5385 190.303 18.6436 190.303 18.707C190.303 18.7703 190.48 19.0162 190.695 19.2534C191.14 19.7424 191.801 19.9274 192.367 19.7214C192.691 19.6031 192.745 19.6241 192.944 19.9493C193.064 20.1465 193.194 20.307 193.231 20.3061C193.341 20.3034 193.711 19.0769 193.602 19.0769C193.547 19.0769 193.357 19.141 193.178 19.2194C192.885 19.3487 192.812 19.3199 192.401 18.9118C192.152 18.6641 191.879 18.4608 191.795 18.4598C191.711 18.459 191.527 18.435 191.387 18.4066C191.247 18.3783 190.945 18.4084 190.718 18.4734ZM187.371 18.8346C186.791 18.9455 186.269 19.1521 186.168 19.3109C185.959 19.6366 187.152 20.9174 187.973 21.2495C188.524 21.4726 189.693 21.4593 190.276 21.2235C190.711 21.0471 190.76 21.0483 190.877 21.237C191.34 21.9834 191.746 22.5231 191.845 22.5231C191.909 22.5231 191.961 22.3708 191.961 22.1846C191.962 21.6882 192.21 20.9087 192.485 20.5349C192.909 19.9585 192.763 19.9258 191.683 20.3549L190.959 20.6425L190.38 19.9957C189.534 19.05 188.444 18.6292 187.371 18.8346ZM166.491 19.2325C165.776 19.9676 165.632 21.145 166.151 22.0208L166.473 22.5647L166.022 23.0106C165.774 23.2559 165.571 23.4982 165.571 23.5492C165.571 23.6002 165.762 23.6073 165.997 23.5648C166.231 23.5223 166.667 23.5511 166.966 23.6288C167.264 23.7065 167.537 23.7425 167.572 23.709C167.607 23.6756 167.462 23.4047 167.25 23.1072L166.864 22.5663L167.172 22.2062C167.646 21.6528 167.909 20.6756 167.745 20.0847C167.593 19.543 167.165 18.9538 166.922 18.9538C166.835 18.9538 166.641 19.0793 166.491 19.2325ZM168.682 20.7241C168.552 21.0521 168.983 21.7746 169.432 21.9814C169.783 22.1429 169.854 22.2366 169.806 22.475C169.733 22.8476 169.838 22.8455 170.307 22.4652L170.681 22.1611L170.357 22.0826C170.149 22.0322 170.033 21.9184 170.033 21.7652C170.033 21.0418 168.902 20.1705 168.682 20.7241ZM184.821 20.7241C184.821 20.8177 184.979 20.9237 185.172 20.9594C185.622 21.0428 185.696 20.9674 185.386 20.741C185.073 20.5127 184.821 20.5051 184.821 20.7241ZM185.714 20.8308C185.715 21.3721 186.178 21.8969 186.796 22.0562C187.304 22.1876 187.371 22.245 187.371 22.5485C187.371 22.7376 187.428 22.8923 187.499 22.8923C187.569 22.8923 187.626 22.8343 187.626 22.7633C187.626 22.6924 187.778 22.4986 187.963 22.3326C188.29 22.0409 188.292 22.0303 188.027 22.0154C187.877 22.0069 187.685 21.9931 187.602 21.9846C187.519 21.9761 187.404 21.7938 187.346 21.5794C187.131 20.7778 185.713 20.1273 185.714 20.8308ZM192.859 21.0889C192.782 21.3154 192.759 21.6063 192.807 21.735C192.894 21.9642 192.89 21.9643 192.624 21.7387C192.356 21.5111 192.35 21.5125 192.198 21.8338C192.066 22.113 192.082 22.2082 192.306 22.5013L192.568 22.8431L191.977 23.05L191.387 23.2567L191.15 22.9471C190.65 22.2943 189.552 21.9847 188.843 22.2967C188.456 22.4672 188.453 22.4864 188.76 22.9365C189.254 23.6594 190.155 23.9428 190.987 23.637C191.272 23.5326 191.335 23.5679 191.582 23.9726L191.859 24.425L192.069 23.8208C192.25 23.3008 192.332 23.2102 192.66 23.1696C193.135 23.1105 193.226 23.0277 192.969 22.8885C192.828 22.8126 192.786 22.6615 192.828 22.3855L192.888 21.9909L193.061 22.31C193.156 22.4857 193.355 22.6661 193.502 22.7111C193.676 22.7647 193.746 22.8634 193.702 22.9964C193.425 23.837 193.415 23.7979 193.848 23.5814C194.065 23.4732 194.332 23.3846 194.44 23.3846C194.738 23.3846 194.677 23.1506 194.341 23.0028C194.073 22.8846 194.05 22.8105 194.102 22.2081C194.156 21.5804 194.134 21.52 193.71 21.1104C193.463 20.872 193.202 20.6769 193.131 20.6769C193.059 20.6769 192.937 20.8623 192.859 21.0889ZM194.328 21.1553C194.229 21.3104 194.507 21.4916 194.977 21.5774C195.265 21.63 195.4 21.5999 195.451 21.4716C195.498 21.3531 195.44 21.2923 195.279 21.2923C195.145 21.2923 195 21.2369 194.957 21.1692C194.859 21.0169 194.423 21.0071 194.328 21.1553ZM170.713 21.6206C170.76 21.6656 170.836 21.6656 170.883 21.6206C170.929 21.5754 170.891 21.5385 170.798 21.5385C170.704 21.5385 170.666 21.5754 170.713 21.6206ZM188.582 21.7846C188.626 21.8523 188.787 21.9068 188.94 21.9058C189.167 21.9042 189.184 21.8816 189.028 21.7846C188.777 21.6279 188.482 21.6279 188.582 21.7846ZM189.921 21.76C189.921 21.9444 190.226 22.1538 190.495 22.1538C190.642 22.1538 190.823 22.2129 190.898 22.285C190.994 22.378 191.055 22.3392 191.106 22.1522C191.157 21.9632 191.128 21.9063 191.005 21.9522C190.91 21.9873 190.763 21.9364 190.68 21.8389C190.52 21.6527 189.921 21.5905 189.921 21.76ZM199.561 21.762C199.509 21.8421 199.295 21.9077 199.084 21.9077C198.606 21.9077 198.208 22.1056 198.208 22.3428C198.208 22.5887 199.017 22.583 199.23 22.3356C199.323 22.2274 199.491 22.179 199.628 22.2209C199.881 22.2985 199.903 22.2315 199.75 21.8543C199.684 21.6907 199.625 21.6619 199.561 21.762ZM170.717 22.4436C170.453 22.9783 170.563 23.6137 170.986 23.9972C171.27 24.2545 171.281 24.303 171.112 24.5366C171.009 24.6778 170.925 24.831 170.925 24.8772C170.925 24.9643 171.96 24.8699 172.073 24.7726C172.108 24.7423 171.979 24.5868 171.787 24.427C171.594 24.2672 171.488 24.1063 171.549 24.0695C171.611 24.0329 171.699 23.8081 171.745 23.5703C171.842 23.0719 171.544 22.3419 171.164 22.1452C170.963 22.0417 170.892 22.089 170.717 22.4436ZM195.204 22.2073C194.969 22.375 194.967 22.401 195.17 22.7303C195.522 23.3031 195.991 23.5678 196.654 23.5685C196.983 23.5689 197.374 23.526 197.523 23.4732C197.749 23.3934 197.844 23.4556 198.086 23.8425L198.377 24.3077L198.535 23.7988C198.622 23.5189 198.758 23.1728 198.837 23.0295C199.011 22.7153 198.889 22.6967 198.275 22.9442C197.861 23.1115 197.832 23.1057 197.635 22.8153C197.16 22.1147 195.808 21.7766 195.204 22.2073ZM201.646 22.2949C201.48 22.5137 201.389 22.5337 201.009 22.4356C200.247 22.2388 199.227 22.6183 199.227 23.0991C199.227 23.5744 200.691 23.6033 201.204 23.138C201.442 22.9218 201.547 22.8966 201.757 23.0048C202.165 23.2158 202.317 23.1767 202.164 22.9004C202.092 22.7695 202.032 22.5202 202.032 22.3466C202.032 21.9674 201.909 21.9509 201.646 22.2949ZM167.611 22.6927C167.611 24.0251 168.826 25.3415 170.065 25.3511C170.386 25.3536 170.415 25.3932 170.415 25.8308C170.415 26.093 170.451 26.4807 170.495 26.6922L170.575 27.0767L171.083 26.5188C171.363 26.2121 171.764 25.8751 171.974 25.77C172.464 25.5254 172.315 25.3856 171.434 25.2631C170.74 25.1666 170.739 25.166 170.702 24.6954C170.594 23.3374 169.394 22.1538 168.126 22.1538H167.611V22.6927ZM186.351 22.2887C186.351 22.5276 186.783 23.1385 186.952 23.1385C187.042 23.1385 187.116 23.0831 187.116 23.0154C187.116 22.9477 187.055 22.8923 186.981 22.8923C186.907 22.8923 186.881 22.838 186.923 22.7718C187.035 22.5978 186.758 22.1538 186.538 22.1538C186.435 22.1538 186.351 22.2145 186.351 22.2887ZM203.135 22.8535C203.089 22.8975 203.052 23.2178 203.052 23.5657C203.052 24.417 203.567 25.2149 204.353 25.5823C204.663 25.7274 205.003 25.8462 205.108 25.8462C205.264 25.8462 205.289 25.989 205.242 26.6111L205.185 27.3759L205.853 26.7957C206.221 26.4766 206.598 26.2154 206.692 26.2154C206.785 26.2154 206.894 26.1642 206.935 26.1015C206.975 26.0389 206.698 25.9207 206.32 25.8391L205.633 25.6907L205.559 25.0869C205.458 24.264 205.012 23.5431 204.392 23.2025C203.82 22.8882 203.26 22.7327 203.135 22.8535ZM192.502 23.5385C192.531 23.6231 192.722 23.7102 192.927 23.7319C193.286 23.7701 193.29 23.7646 193.044 23.582C192.735 23.3519 192.43 23.3274 192.502 23.5385ZM194.135 23.6239C193.987 23.7141 193.98 23.7973 194.098 24.0468C194.32 24.5175 194.952 24.7807 195.664 24.6992C196.219 24.6357 196.273 24.6543 196.419 24.9616L196.577 25.2923L196.793 24.7385C197.026 24.1424 196.971 24.0287 196.554 24.2439C196.326 24.3618 196.23 24.3201 195.863 23.9442C195.5 23.5723 195.354 23.5079 194.878 23.5095C194.571 23.5106 194.236 23.5621 194.135 23.6239ZM199.706 23.8969C199.306 24.0379 199.271 24.198 199.554 24.5887C199.95 25.1343 200.949 25.4037 201.508 25.1152C201.685 25.0234 201.777 25.0741 201.953 25.3614C202.231 25.8161 202.415 25.824 202.415 25.3813C202.415 25.1932 202.504 24.9163 202.613 24.7659C202.832 24.4638 202.734 24.4281 202.211 24.6199C201.906 24.7319 201.814 24.7025 201.469 24.3814C201.086 24.0249 200.513 23.7439 200.207 23.7636C200.124 23.7689 199.898 23.8289 199.706 23.8969ZM193.435 23.9873C193.378 24.0758 193.214 24.1136 193.054 24.0748C192.769 24.0058 192.216 24.2858 192.216 24.4993C192.216 24.6612 193.074 24.6454 193.179 24.4816C193.226 24.408 193.373 24.3751 193.505 24.4085C193.764 24.4741 193.779 24.4347 193.631 24.0697C193.56 23.8943 193.508 23.8726 193.435 23.9873ZM205.78 24.7584C205.63 24.9924 206.242 25.3841 206.637 25.3078C206.886 25.2598 207.006 25.2997 207.07 25.4515C207.15 25.6409 207.169 25.6373 207.264 25.4154C207.423 25.0425 207.406 24.9511 207.192 25.0302C207.086 25.0698 206.885 24.9927 206.746 24.8587C206.469 24.5908 205.924 24.5342 205.78 24.7584ZM193.575 24.8908C193.366 25.0406 193.355 25.1333 193.474 25.7549C193.547 26.1378 193.72 26.6613 193.857 26.9179C194.391 27.917 195.603 28.6769 196.664 28.6769H197.154L197.214 29.5797C197.297 30.8327 197.385 30.9094 197.898 30.1753C198.133 29.8377 198.615 29.3809 198.97 29.1589C199.73 28.6837 199.662 28.598 198.434 28.4812C197.523 28.3945 197.548 28.4158 197.373 27.5692C197.246 26.9568 196.763 26.086 196.339 25.7058C195.541 24.9908 194.05 24.5509 193.575 24.8908ZM167.938 25.1474C167.431 25.506 168.361 26.1867 169.183 26.058C169.516 26.0058 169.638 26.0454 169.769 26.2478C169.949 26.5249 170.035 26.4517 170.221 25.8645C170.307 25.5954 170.286 25.5807 169.934 25.6554C169.668 25.7119 169.535 25.6848 169.487 25.5642C169.413 25.3783 168.64 24.9846 168.349 24.9846C168.25 24.9846 168.065 25.058 167.938 25.1474ZM197.08 25.3538C197.08 25.5231 197.109 25.5924 197.145 25.5077C197.18 25.4231 197.18 25.2847 197.145 25.2C197.109 25.1154 197.08 25.1846 197.08 25.3538ZM199.387 25.6271C199.229 25.7006 199.1 25.8352 199.1 25.9262C199.1 26.1796 199.949 27.0295 200.37 27.1979C200.746 27.3482 201.789 27.3223 202.175 27.1532C202.33 27.0854 202.474 27.2031 202.749 27.6234C202.951 27.9318 203.159 28.1842 203.211 28.1844C203.264 28.1845 203.307 27.977 203.308 27.7231C203.308 27.4693 203.426 27.0753 203.569 26.8476C203.713 26.6201 203.807 26.4105 203.777 26.382C203.748 26.3536 203.452 26.4193 203.12 26.5281C202.531 26.721 202.511 26.7193 202.324 26.462C202.219 26.3168 201.901 26.0357 201.617 25.8374C201.187 25.537 200.983 25.4783 200.388 25.4853C199.995 25.4898 199.544 25.5537 199.387 25.6271ZM202.925 25.6369C202.925 25.8929 203.204 26.0923 203.562 26.0923C203.744 26.0923 203.955 26.1514 204.029 26.2235C204.126 26.3164 204.185 26.2805 204.234 26.1004C204.285 25.9136 204.243 25.8462 204.076 25.8462C203.951 25.8462 203.777 25.7631 203.689 25.6615C203.495 25.435 202.925 25.4166 202.925 25.6369ZM209.599 25.6923C209.476 25.8741 209.412 25.8837 209.187 25.7538C208.82 25.5424 208.139 25.5609 207.798 25.7916C207.425 26.0436 207.439 26.266 207.839 26.4417C208.336 26.6603 208.886 26.6138 209.182 26.3285C209.435 26.0842 209.459 26.0822 209.692 26.2866C210.003 26.5579 210.042 26.5089 209.968 25.9385C209.902 25.4277 209.816 25.3702 209.599 25.6923ZM204.436 26.3903C204.325 26.6256 204.323 26.7852 204.427 27.0073C204.534 27.2329 204.531 27.3199 204.416 27.3596C204.219 27.4278 204.312 27.5152 204.708 27.6332C204.993 27.7179 205.008 27.7066 204.852 27.5254C204.717 27.3678 204.712 27.2842 204.83 27.1465C205.019 26.9269 204.956 26.1904 204.743 26.1228C204.656 26.0954 204.518 26.2158 204.436 26.3903ZM167.515 26.3655C167.357 26.439 167.228 26.5695 167.228 26.6555C167.228 26.8903 167.847 27.5536 168.257 27.7583C168.667 27.9632 169.68 27.9978 170.026 27.8187C170.219 27.7194 170.32 27.7878 170.619 28.2187C170.916 28.6474 170.987 28.6954 171.022 28.4923C171.101 28.0316 171.456 27.2 171.573 27.2C171.638 27.2 171.69 27.3274 171.69 27.4831C171.69 27.6388 171.753 27.8267 171.83 27.9007C171.93 27.998 171.911 28.1202 171.76 28.3426L171.552 28.6501L172.067 28.6975C172.645 28.7506 172.67 28.7276 172.375 28.4128C172.182 28.2076 172.182 28.1679 172.375 27.8844C172.63 27.5077 172.644 26.8361 172.403 26.5174C172.227 26.2847 172.218 26.2846 171.957 26.513C171.81 26.6411 171.69 26.8236 171.69 26.9186C171.69 27.0137 171.645 27.0642 171.589 27.031C171.533 26.9978 171.246 27.0751 170.951 27.2026L170.414 27.4346L170.128 27.0588C169.577 26.3353 168.305 25.9978 167.515 26.3655ZM197.443 26.385C197.443 26.4105 197.543 26.5074 197.666 26.6004C197.868 26.7534 197.872 26.749 197.714 26.5538C197.547 26.3488 197.443 26.2837 197.443 26.385ZM206.271 26.7892C205.726 27.0017 206.565 27.7241 207.297 27.6729C207.671 27.6469 207.824 27.6944 207.924 27.8677C208.045 28.0754 208.074 28.0593 208.232 27.6959C208.459 27.1743 208.462 27.1819 208.068 27.2773C207.837 27.3333 207.685 27.3012 207.59 27.1767C207.3 26.7977 206.701 26.6217 206.271 26.7892ZM199.61 27.7388C199.61 27.9674 199.697 28.2245 199.804 28.31C199.924 28.4059 199.967 28.5604 199.917 28.7129C199.852 28.9097 199.88 28.9439 200.052 28.8801C200.171 28.8361 200.328 28.8 200.401 28.8C200.482 28.8 200.472 28.7285 200.376 28.617C200.29 28.5163 200.252 28.305 200.293 28.1473C200.378 27.8214 200.076 27.3231 199.794 27.3231C199.67 27.3231 199.61 27.4586 199.61 27.7388ZM15.0082 27.5612C13.7709 27.9259 12.8353 28.7879 12.5121 29.8612C12.0514 31.3916 12.6638 32.9419 13.9883 33.5972C14.2337 33.7185 15.202 34.0503 16.14 34.3345C17.5493 34.7615 17.9347 34.9316 18.3588 35.3135C18.8147 35.7241 18.8777 35.8503 18.9215 36.4417C19.0198 37.7657 18.1091 38.5842 16.538 38.5842C15.4406 38.5842 14.8133 38.2727 14.4173 37.5313C14.2567 37.2306 14.0963 36.8876 14.0608 36.7692C14.0077 36.5919 13.8463 36.5538 13.147 36.5538H12.2978L12.3631 37.1129C12.5022 38.304 13.6234 39.4142 15.1083 39.8309C16.1071 40.1113 17.6822 40.0196 18.5095 39.6329C19.7653 39.046 20.5016 38.0218 20.5916 36.7365C20.6611 35.7454 20.4446 35.0421 19.8864 34.4457C19.3026 33.8218 18.8375 33.5948 16.8927 32.9849C14.5366 32.2459 14.0667 31.8785 14.0667 30.7759C14.0667 29.7166 14.7504 29.0031 15.913 28.8492C17.0499 28.6988 18.259 29.3177 18.5984 30.2239L18.7566 30.6462H19.6234C20.4376 30.6462 20.49 30.6294 20.4889 30.3692C20.4845 29.4113 19.1807 27.9612 18.0261 27.6302C17.3569 27.4383 15.5643 27.3974 15.0082 27.5612ZM25.3347 27.5612C24.0974 27.9259 23.1618 28.7879 22.8386 29.8612C22.3779 31.3916 22.9903 32.9419 24.3148 33.5972C24.5602 33.7185 25.5285 34.0503 26.4665 34.3345C27.8757 34.7615 28.2611 34.9316 28.6853 35.3135C29.1412 35.7241 29.2042 35.8503 29.248 36.4417C29.3463 37.7657 28.4355 38.5842 26.8645 38.5842C25.7671 38.5842 25.1397 38.2727 24.7438 37.5313C24.5831 37.2306 24.4228 36.8876 24.3873 36.7692C24.3342 36.5919 24.1728 36.5538 23.4735 36.5538H22.6243L22.6896 37.1129C22.8287 38.304 23.9499 39.4142 25.4347 39.8309C26.4336 40.1113 28.0087 40.0196 28.836 39.6329C30.0917 39.046 30.8281 38.0218 30.9181 36.7365C30.9876 35.7454 30.7711 35.0421 30.2128 34.4457C29.6291 33.8218 29.164 33.5948 27.2192 32.9849C24.8631 32.2459 24.3932 31.8785 24.3932 30.7759C24.3932 29.7166 25.0769 29.0031 26.2394 28.8492C27.3764 28.6988 28.5855 29.3177 28.9248 30.2239L29.0831 30.6462H29.9498C30.7641 30.6462 30.8165 30.6294 30.8154 30.3692C30.811 29.4113 29.5072 27.9612 28.3526 27.6302C27.6834 27.4383 25.8908 27.3974 25.3347 27.5612ZM36.9103 27.6838C34.8845 28.309 33.3479 29.9003 32.7966 31.9436C32.6893 32.3415 32.6015 33.1423 32.6015 33.7231C32.6015 35.5893 33.2224 37.1266 34.4582 38.3196C35.6265 39.4475 37.0534 40 38.798 40C41.5721 40 43.9221 38.211 44.6592 35.5377C44.8898 34.7015 44.8875 32.7364 44.655 31.893C44.0696 29.7696 42.4395 28.1626 40.3144 27.6137C39.4094 27.3799 37.7862 27.4134 36.9103 27.6838ZM50.7684 27.619C49.2119 28.0962 47.9168 29.1249 47.1708 30.4764C46.6114 31.4902 46.3701 32.4686 46.3701 33.7231C46.3701 34.9716 46.6113 35.9557 47.1611 36.9519C47.6466 37.831 48.6678 38.8438 49.5209 39.2921C51.729 40.4523 54.6999 40.1547 56.5427 38.5887C57.1205 38.0977 57.8581 37.1012 58.026 36.5846C58.1138 36.3146 58.0927 36.3077 57.1729 36.3077H56.2296L55.8295 36.9038C55.0516 38.0628 53.8572 38.5861 52.1924 38.4975C50.8983 38.4286 50.0977 38.0657 49.2635 37.1701C48.5075 36.3583 48.1446 35.4292 48.0612 34.0923C47.923 31.8758 48.8566 30.0735 50.561 29.2665C51.2463 28.9419 53.0019 28.8111 53.7533 29.0284C54.5413 29.2564 55.3648 29.8501 55.8071 30.509L56.2296 31.1385H57.1729C58.0915 31.1385 58.1138 31.1312 58.0301 30.8615C57.7626 30 56.4355 28.5605 55.4717 28.0865C54.2055 27.4639 51.992 27.2438 50.7684 27.619ZM97.4925 27.5612C96.2553 27.9259 95.3196 28.7879 94.9964 29.8612C94.5357 31.3916 95.1482 32.9419 96.4726 33.5972C96.718 33.7185 97.6863 34.0503 98.6244 34.3345C100.034 34.7615 100.419 34.9316 100.843 35.3135C101.299 35.7241 101.362 35.8503 101.406 36.4417C101.504 37.7657 100.593 38.5842 99.0224 38.5842C97.925 38.5842 97.2976 38.2727 96.9016 37.5313C96.741 37.2306 96.5806 36.8876 96.5452 36.7692C96.492 36.5919 96.3306 36.5538 95.6313 36.5538H94.7821L94.8474 37.1129C94.9865 38.304 96.1077 39.4142 97.5926 39.8309C98.5915 40.1113 100.167 40.0196 100.994 39.6329C102.25 39.046 102.986 38.0218 103.076 36.7365C103.145 35.7454 102.929 35.0421 102.371 34.4457C101.787 33.8218 101.322 33.5948 99.377 32.9849C97.0209 32.2459 96.551 31.8785 96.551 30.7759C96.551 29.7166 97.2347 29.0031 98.3973 28.8492C99.5342 28.6988 100.743 29.3177 101.083 30.2239L101.241 30.6462H102.108C102.922 30.6462 102.974 30.6294 102.973 30.3692C102.969 29.4113 101.665 27.9612 100.51 27.6302C99.8412 27.4383 98.0486 27.3974 97.4925 27.5612ZM3.48895 30.2462C2.95452 31.7184 1.95094 34.49 1.25868 36.405L0 39.887L0.898531 39.8512L1.79706 39.8154L2.24786 38.49L2.69865 37.1646L5.3625 37.1977L8.02648 37.2308L8.4941 38.5231L8.96173 39.8154L9.81767 39.8518C10.2885 39.8718 10.6736 39.8512 10.6736 39.8059C10.6736 39.6342 6.41644 27.8695 6.30119 27.7231C6.22559 27.6267 5.85894 27.5692 5.32043 27.5692H4.46053L3.48895 30.2462ZM60.5212 33.7231V39.8769H61.3499H62.1785V33.7231V27.5692H61.3499H60.5212V33.7231ZM67.6151 30.2462C67.0807 31.7184 66.0771 34.49 65.3848 36.405L64.1261 39.887L65.0247 39.8512L65.9232 39.8154L66.374 38.49L66.8248 37.1646L69.4886 37.1977L72.1526 37.2308L72.6202 38.5231L73.0879 39.8154L73.9438 39.8518C74.4146 39.8718 74.7998 39.8512 74.7998 39.8059C74.7998 39.6342 70.5426 27.8695 70.4273 27.7231C70.3517 27.6267 69.9851 27.5692 69.4466 27.5692H68.5867L67.6151 30.2462ZM75.8449 28.2154L75.8834 28.8615L77.5726 28.8959L79.2618 28.9302V34.4036V39.8769H80.0905H80.9192V34.4V28.9231H82.5765H84.2338V28.2462V27.5692H80.0201H75.8063L75.8449 28.2154ZM86.1461 33.7231V39.8769H89.4608H92.7755V39.2V38.5231H90.2895H87.8035V36.4308V34.3385H90.0345H92.2655V33.6615V32.9846H90.0345H87.8035V30.9538V28.9231H90.2895H92.7755V28.2462V27.5692H89.4608H86.1461V33.7231ZM198.632 27.6513C198.679 27.6964 198.756 27.6964 198.803 27.6513C198.849 27.6062 198.811 27.5692 198.717 27.5692C198.624 27.5692 198.586 27.6062 198.632 27.6513ZM168.035 28.1436C168.082 28.1887 168.159 28.1887 168.206 28.1436C168.252 28.0985 168.214 28.0615 168.121 28.0615C168.027 28.0615 167.989 28.0985 168.035 28.1436ZM169.778 28.4732C169.778 28.632 169.889 28.8587 170.024 28.9771C170.272 29.1935 170.255 29.554 169.999 29.5038C169.859 29.4762 169.492 30.0423 169.59 30.1365C169.62 30.1653 169.882 29.9594 170.172 29.679C170.463 29.3986 170.636 29.1692 170.558 29.1692C170.479 29.1692 170.415 29.0548 170.415 28.915C170.415 28.5569 170.186 28.1846 169.965 28.1846C169.854 28.1846 169.778 28.3018 169.778 28.4732ZM193.961 28.6969C193.672 29.1425 193.455 30.2284 193.515 30.9323C193.628 32.2482 194.585 33.5929 195.838 34.197L196.392 34.4642L196.027 35.4783C195.68 36.4401 195.578 36.9231 195.723 36.9231C195.758 36.9231 196.023 36.7588 196.31 36.5578C196.928 36.1252 198.067 35.6923 198.587 35.6923C199.403 35.6923 199.081 35.3147 197.698 34.6471C197.312 34.461 196.981 34.2957 196.961 34.2796C196.942 34.2635 197.014 33.9263 197.121 33.5301C197.379 32.5727 197.366 31.887 197.074 31.0839C196.732 30.1463 196.151 29.3862 195.44 28.9479C194.555 28.4021 194.193 28.3407 193.961 28.6969ZM40.6578 29.2692C42.3879 30.0918 43.2916 31.8439 43.1537 34.1081C43.0634 35.5919 42.6951 36.4319 41.728 37.3606C40.7344 38.3147 39.9645 38.5794 38.4228 38.4974C37.1297 38.4286 36.3288 38.0655 35.4949 37.1701C34.5932 36.2018 34.334 35.4324 34.334 33.7231C34.334 31.8581 34.6035 31.1488 35.7137 30.0919C36.7374 29.1174 37.2777 28.9218 38.8483 28.9573C39.8175 28.9792 40.1789 29.0415 40.6578 29.2692ZM168.057 29.0462C168.1 29.1138 168.164 29.1692 168.199 29.1692C168.234 29.1692 168.228 29.1138 168.184 29.0462C168.141 28.9785 168.077 28.9231 168.042 28.9231C168.007 28.9231 168.013 28.9785 168.057 29.0462ZM171.19 29.2474C171.044 29.4257 170.925 29.6473 170.925 29.7397C170.925 29.8321 170.832 29.9077 170.718 29.9077C170.549 29.9077 170.54 29.941 170.67 30.0923C170.863 30.3169 171.052 30.3321 171.053 30.1231C171.054 30.0385 171.226 29.8748 171.436 29.7596C171.703 29.6128 171.818 29.4559 171.818 29.2366C171.818 28.8261 171.529 28.8311 171.19 29.2474ZM199.547 29.1687C199.423 29.3617 199.773 29.9567 200.088 30.0907C200.246 30.1575 200.375 30.3099 200.375 30.4292C200.375 30.6857 200.485 30.6978 200.789 30.4748C201.082 30.2603 201.071 30.1538 200.757 30.1538C200.572 30.1538 200.502 30.0718 200.502 29.8551C200.502 29.6789 200.364 29.4517 200.166 29.3013C199.791 29.0165 199.662 28.9888 199.547 29.1687ZM169.32 29.5575C169.263 29.6455 169.284 29.6662 169.376 29.6117C169.457 29.5634 169.523 29.4996 169.523 29.4697C169.523 29.367 169.41 29.4156 169.32 29.5575ZM6.45328 32.7584C7.02149 34.3601 7.48644 35.7033 7.48644 35.743C7.48644 35.7828 6.51945 35.8154 5.33739 35.8154H3.18846L3.53153 34.8615C3.72021 34.3369 4.20696 32.9778 4.61326 31.8415C5.01943 30.705 5.36722 29.7911 5.38596 29.8107C5.4047 29.8302 5.88494 31.1567 6.45328 32.7584ZM70.5794 32.7584C71.1476 34.3601 71.6126 35.7033 71.6126 35.743C71.6126 35.7828 70.6456 35.8154 69.4635 35.8154H67.3146L67.6577 34.8615C67.8464 34.3369 68.3331 32.9778 68.7394 31.8415C69.1456 30.705 69.4934 29.7911 69.5121 29.8107C69.5308 29.8302 70.0111 31.1567 70.5794 32.7584ZM198.829 30.0674C198.716 30.151 198.472 30.434 198.288 30.6961C197.864 31.2993 197.827 32.2313 198.205 32.829L198.457 33.2272L197.918 33.7183L197.379 34.2092L197.976 34.2123C198.305 34.214 198.729 34.2724 198.918 34.3419C199.108 34.4114 199.291 34.4417 199.324 34.409C199.358 34.3764 199.24 34.1099 199.063 33.8171L198.739 33.2846L199.067 32.9808C199.476 32.6021 199.858 31.808 199.862 31.3312C199.865 30.8971 199.392 29.9061 199.184 29.9116C199.103 29.9137 198.943 29.9839 198.829 30.0674ZM197.437 36.7542C197.222 37.3838 197.447 38.0383 198.042 38.5118C198.496 38.8725 198.504 38.8951 198.362 39.3428C198.189 39.886 198.247 39.9916 198.566 39.7135C198.693 39.602 198.981 39.4753 199.204 39.4323C199.715 39.3335 199.718 39.1986 199.214 38.9469C198.864 38.7724 198.827 38.7041 198.896 38.3676C199.022 37.7633 198.847 37.1893 198.4 36.7313C197.869 36.1874 197.629 36.1931 197.437 36.7542Z" fill="white"/>
</svg>
