<svg width="130" height="63" viewBox="0 0 130 63" fill="none" xmlns="http://www.w3.org/2000/svg">
<path fill-rule="evenodd" clip-rule="evenodd" d="M46.1406 0.774086C44.3271 1.19731 42.8346 1.55211 42.824 1.56256C42.8037 1.58239 43.0604 2.68857 43.0853 2.68857C43.0932 2.68857 44.0074 2.47785 45.1168 2.22025C46.2262 1.96269 47.1396 1.75744 47.1464 1.76417C47.1533 1.77091 46.1873 3.19259 44.9997 4.92353L42.8403 8.07069L42.5103 7.77693C39.1805 4.8132 35.306 2.87647 30.9056 1.97628C27.5707 1.29402 23.8574 1.30765 20.264 2.01537C14.0726 3.2347 8.78559 6.61375 5.19659 11.6452C2.74545 15.0816 1.17646 19.1519 0.643099 23.4582C0.492716 24.6725 0.455559 25.3348 0.455266 26.8042C0.454974 28.2657 0.488494 28.857 0.641803 30.0943C1.13191 34.0494 2.55975 37.8176 4.76588 40.9778C4.98284 41.2886 5.15124 41.5661 5.14012 41.5945C5.12896 41.6228 3.96022 43.2117 2.54286 45.1253C1.12551 47.0388 -0.0186613 48.6182 0.000230628 48.6349C0.0191225 48.6517 0.377191 48.906 0.795947 49.2001L1.55727 49.7348L1.6595 49.6031C1.71572 49.5306 2.80835 48.0574 4.08761 46.3294C5.36687 44.6013 6.42778 43.1824 6.44521 43.1763C6.46264 43.1701 6.7107 43.4159 6.9965 43.7225C7.86344 44.6524 9.05254 45.6988 10.1911 46.5336C13.3912 48.8803 17.3369 50.4614 21.4343 51.039C24.506 51.472 27.6989 51.3946 30.6921 50.8146C34.788 50.0209 38.4464 48.3079 41.6009 45.7068C42.2208 45.1956 43.5549 43.8923 44.0799 43.2849C45.0389 42.1754 45.9678 40.8856 46.6621 39.6994C48.3664 36.7878 49.4843 33.4174 49.9579 29.7626C50.1395 28.3603 50.1839 27.5901 50.1858 25.8045C50.1877 23.9587 50.1453 23.2882 49.9368 21.8669C49.28 17.389 47.4816 13.3534 44.6429 9.98672L44.2422 9.51155C45.5043 7.66329 48.8313 2.80894 48.8309 2.83139C48.8284 2.95392 49.4768 6.7955 49.5053 6.82675C49.5357 6.86021 50.6079 6.72156 50.652 6.67847C50.6613 6.66945 50.4205 5.16208 50.1169 3.32876C49.6627 0.585608 49.5537 -0.00373628 49.5014 1.77719e-05C49.4664 0.00254767 47.954 0.350858 46.1406 0.774086ZM107.723 1.49168C99.0115 1.79821 91.3238 5.16999 86.4796 10.8087C84.7502 12.8218 83.3714 15.1659 82.4351 17.6844C81.4752 20.2667 80.9738 23.1915 80.9732 26.2126C80.9718 33.6241 83.579 39.9768 88.461 44.4574C92.8557 48.4906 98.8496 50.8114 105.988 51.2436C110.237 51.5009 114.462 51.0852 120.303 49.8348C121.387 49.6028 124.895 48.8184 125.334 48.71C125.485 48.6727 125.494 48.6621 125.47 48.5487C125.403 48.2195 125.273 47.2343 125.216 46.615C125.082 45.1767 125.061 44.3324 125.039 39.7598C125.017 34.9668 125.042 33.6681 125.171 32.9046C125.448 31.263 126.22 30.7418 128.976 30.3357C129.367 30.2781 129.757 30.2204 129.843 30.2074L130 30.1839V29.1061V28.0284H120.324H110.648V29.1064V30.1846L110.91 30.2082C111.053 30.2212 111.603 30.2693 112.132 30.3152C114.278 30.5013 115.589 30.7435 116.437 31.1104C117.318 31.4913 117.871 32.1201 118.146 33.0551C118.435 34.0318 118.475 34.9154 118.452 39.7802C118.433 44.0522 118.435 44.004 118.193 44.8164C117.922 45.7248 117.444 46.3377 116.547 46.9262C116.042 47.2573 115.787 47.3881 115.2 47.6162C112.707 48.586 109.122 48.8202 105.578 48.2447C98.7621 47.138 93.6402 42.9833 90.886 36.3273C89.0085 31.7901 88.379 26.143 89.149 20.7447C89.933 15.2482 92.2939 10.7984 95.9377 7.94921C98.5239 5.92692 101.695 4.7213 105.445 4.33451C106.335 4.24274 108.886 4.23022 109.792 4.31317C111.972 4.51304 113.561 4.80446 114.887 5.24777C116.073 5.64451 117.034 6.09141 117.905 6.65166C118.562 7.07432 118.88 7.33086 119.491 7.9282C120.934 9.34135 121.947 11.1399 122.915 14.0119C123.105 14.573 123.293 15.156 123.334 15.3075C123.387 15.5025 123.428 15.5829 123.476 15.5829C123.512 15.5829 124.027 15.4884 124.619 15.3729C125.625 15.1765 125.695 15.1573 125.695 15.0752C125.695 15.027 125.62 14.3732 125.528 13.6224C125.143 10.464 124.609 4.61758 124.608 3.54988L124.608 3.32104L123.156 3.04153C119.359 2.31067 117.489 2.02145 114.953 1.77238C112.534 1.53481 109.664 1.42337 107.723 1.49168ZM55.5609 3.54017V4.59583L56.0311 4.64496C56.8171 4.7271 58.0213 4.88803 58.5075 4.97584C61.3632 5.49182 62.0901 6.36986 62.2892 9.54378C62.3463 10.4527 62.3469 42.2774 62.2899 43.2078C62.1037 46.247 61.3997 47.1644 58.8628 47.6736C58.2247 47.8016 57.5211 47.9035 56.4073 48.0289L55.5609 48.1242V49.1752V50.2262H65.6547H75.7485V49.1722V48.1181L75.0693 48.0473C72.7886 47.8096 71.5943 47.5671 70.7747 47.1751C70.4513 47.0205 70.3152 46.9244 70.0409 46.6573C69.4402 46.0723 69.2184 45.4918 69.0118 43.9627C68.9427 43.4523 68.9091 10.5111 68.9764 9.46217C69.0586 8.184 69.2221 7.3917 69.532 6.77134C69.7783 6.27805 70.2308 5.83597 70.7538 5.57776C71.5795 5.17007 72.4996 4.96911 74.7399 4.7071C75.2134 4.65169 75.6341 4.6064 75.6747 4.6064C75.7433 4.6064 75.7485 4.53229 75.7485 3.54547V2.48454H65.6547H55.5609V3.54017ZM26.4498 4.35732C27.8694 4.54568 29.0939 4.85151 30.3369 5.32815C33.8364 6.67018 36.8262 9.27272 38.9206 12.7999C39.0845 13.0759 39.2186 13.3207 39.2186 13.3439C39.2186 13.3858 29.8516 27.1013 29.7513 27.2061C29.7076 27.2518 28.76 26.9678 24.1454 25.5261C21.0911 24.5718 18.5442 23.7794 18.4855 23.7651C18.3845 23.7404 18.1625 24.0315 14.1596 29.4375L9.9403 35.1359L9.78185 34.6527C8.44445 30.5739 7.98498 25.6967 8.50234 21.0712C9.25429 14.3484 12.1701 9.15271 16.7754 6.3293C18.5732 5.22712 20.8 4.49533 23.0016 4.28322C23.6824 4.21765 25.7285 4.2616 26.4498 4.35732ZM40.4729 15.9808C41.5782 18.8079 42.197 21.7663 42.4422 25.3965C42.5073 26.3608 42.507 29.1485 42.4416 30.1298C42.2493 33.0162 41.8209 35.3779 41.0906 37.5767C39.901 41.1588 38.0125 43.8962 35.4275 45.7854C33.5047 47.1907 31.3293 48.0197 28.6347 48.3741C27.9866 48.4594 26.0108 48.495 25.2969 48.4343C23.2405 48.2594 21.5264 47.7915 19.6788 46.9005C16.6462 45.438 14.1739 43.1245 12.1571 39.8618C11.7498 39.2028 10.7851 37.3397 10.8136 37.2671C10.8264 37.2346 17.0973 28.7441 19.1386 25.9954C19.144 25.9882 21.7113 26.7831 24.8437 27.7617C27.9762 28.7404 30.55 29.5251 30.5634 29.5055C34.1972 24.1782 40.205 15.4197 40.2254 15.4197C40.2409 15.4197 40.3522 15.6722 40.4729 15.9808ZM3.33076 57.1232C1.91003 57.3736 0.89141 58.5978 0.89141 60.0549C0.89141 61.3667 1.67822 62.4739 2.89763 62.8782C3.28019 63.005 4.14174 63.0357 4.58937 62.9385C5.21084 62.8035 5.87248 62.394 6.22624 61.9255C6.70318 61.2938 6.88934 60.7007 6.85657 59.9174C6.84528 59.6481 6.80629 59.3233 6.76984 59.1958C6.48968 58.215 5.69802 57.4402 4.71272 57.1826C4.41429 57.1046 3.62819 57.0708 3.33076 57.1232ZM22.1448 57.1106C21.5267 57.1941 20.9722 57.4673 20.5111 57.9157C20.1372 58.2792 19.9369 58.5938 19.7562 59.1013C19.6495 59.401 19.6398 59.4779 19.6385 60.0398C19.6372 60.5698 19.6501 60.6929 19.7349 60.9579C19.9017 61.4794 20.0997 61.7996 20.4927 62.1832C21.0957 62.772 21.6768 62.9987 22.5799 62.9975C23.1274 62.9969 23.4552 62.9348 23.8622 62.7546C24.1727 62.6172 24.5849 62.3406 24.7881 62.1334L24.9237 61.9951L24.6967 61.7762C24.4392 61.5279 24.4992 61.5201 24.0674 61.858C23.1205 62.5989 21.8547 62.5457 21.0301 61.7304C20.5598 61.2654 20.3461 60.7194 20.3522 59.999C20.3551 59.6698 20.3773 59.5292 20.4674 59.2715C20.8042 58.3079 21.5934 57.7343 22.5824 57.7343C23.1918 57.7343 23.5521 57.8635 24.1195 58.2856L24.4114 58.5027L24.6574 58.258L24.9033 58.0133L24.6944 57.8302C24.2744 57.4621 23.7405 57.2156 23.1661 57.1247C22.9047 57.0832 22.3989 57.0763 22.1448 57.1106ZM102.08 57.1425C101.015 57.352 100.177 58.1374 99.8577 59.226C99.7234 59.6843 99.7239 60.4691 99.8588 60.9352C100.16 61.9742 100.942 62.7137 101.977 62.9386C102.473 63.0463 103.367 63.0077 103.815 62.8591C104.194 62.7332 104.575 62.5395 104.881 62.3169L105.089 62.1646V61.0104V59.8562H103.877H102.665V60.1622V60.4682H103.543H104.421V61.1577V61.8471L104.211 61.9783C104.096 62.0505 103.856 62.1654 103.678 62.2336C103.41 62.3367 103.278 62.3611 102.901 62.3774C102.128 62.4107 101.638 62.2411 101.161 61.7743C100.669 61.2936 100.47 60.7366 100.504 59.9378C100.534 59.2308 100.742 58.7562 101.224 58.2975C101.617 57.9228 102.112 57.7352 102.707 57.7354C103.309 57.7356 103.767 57.8829 104.24 58.2276L104.457 58.3856L104.67 58.1361C104.788 57.9989 104.877 57.8664 104.868 57.8416C104.841 57.7621 104.283 57.4132 104.013 57.3071C103.483 57.0985 102.66 57.0285 102.08 57.1425ZM114.473 57.1042C114.427 57.1145 114.286 57.1427 114.159 57.1667C114.033 57.1907 113.752 57.2937 113.534 57.3956C113.201 57.5518 113.082 57.6366 112.777 57.935C112.471 58.2334 112.384 58.3498 112.224 58.6748C111.958 59.2148 111.886 59.5733 111.913 60.2183C111.949 61.0644 112.19 61.6116 112.777 62.1834C113.377 62.7666 113.968 62.9964 114.874 62.9975C115.873 62.9988 116.621 62.6583 117.22 61.9297C117.665 61.3886 117.857 60.8189 117.857 60.0398C117.857 59.4169 117.796 59.1474 117.538 58.632C117.21 57.9745 116.466 57.3811 115.727 57.1857C115.482 57.1211 114.64 57.0664 114.473 57.1042ZM14.6737 59.9885C13.9439 61.5659 13.3467 62.8707 13.3467 62.8881C13.3467 62.9055 13.5079 62.9144 13.7048 62.9079L14.063 62.8961L14.4049 62.1516L14.7469 61.407L16.3142 61.4077L17.8816 61.4085L18.2137 62.1465C18.3964 62.5524 18.5672 62.8925 18.5934 62.9023C18.6195 62.9121 18.7935 62.9147 18.9801 62.9081L19.3193 62.8961L17.9863 60.0194L16.6534 57.1427L16.3271 57.1316L16.0008 57.1205L14.6737 59.9885ZM37.1696 57.2151C36.8501 57.3215 36.5042 57.5284 36.3533 57.7035C36.1222 57.9716 36.0279 58.2204 36.009 58.6116C35.9992 58.815 36.0122 59.0546 36.0381 59.1485C36.1477 59.5452 36.5415 59.9205 37.0408 60.1041C37.1696 60.1514 37.5948 60.2714 37.9856 60.3706C38.7723 60.5705 39.0514 60.6844 39.2448 60.8847C39.7014 61.3576 39.4354 62.0912 38.7304 62.3038C38.0205 62.5178 37.1779 62.3238 36.449 61.7784L36.1766 61.5746L35.9622 61.8221C35.7152 62.1073 35.7117 62.094 36.1025 62.3645C36.6727 62.7593 37.2227 62.9467 37.9229 62.9851C38.4842 63.0159 38.8862 62.9509 39.2576 62.7695C39.8904 62.4604 40.2375 61.8514 40.1603 61.1854C40.1202 60.8394 39.9951 60.5832 39.7627 60.3709C39.4292 60.0664 39.02 59.8982 38.0274 59.6579C37.4275 59.5127 37.1928 59.4189 36.9865 59.2421C36.4479 58.7804 36.6685 58.0221 37.4075 57.7951C38.0009 57.6129 38.7688 57.7723 39.3953 58.2077L39.593 58.3451L39.8034 58.0737L40.0138 57.8023L39.8147 57.6635C39.5165 57.4555 39.0504 57.2488 38.7302 57.1826C38.5716 57.1498 38.223 57.1238 37.9438 57.124C37.5356 57.1243 37.3915 57.1413 37.1696 57.2151ZM64.5793 57.2179C64.0858 57.3821 63.7624 57.645 63.5425 58.0608C63.4127 58.3061 63.3799 58.8485 63.4754 59.1691C63.6547 59.7713 64.1101 60.0574 65.3747 60.3624C66.1856 60.558 66.413 60.6494 66.6433 60.8724C66.7998 61.024 66.8435 61.0978 66.8669 61.2508C66.9351 61.6945 66.7494 62.0323 66.3214 62.2431C66.0879 62.3581 66.0431 62.3657 65.592 62.3657C65.3051 62.3657 65.0271 62.3425 64.9024 62.3081C64.5883 62.2217 64.1824 62.0117 63.8783 61.7785L63.6067 61.5701L63.4692 61.7231C63.3935 61.8072 63.2947 61.9249 63.2495 61.9847L63.1673 62.0934L63.4078 62.2806C63.7258 62.528 64.2043 62.7685 64.59 62.8749C64.9915 62.9857 65.6842 63.025 66.081 62.9595C66.7055 62.8565 67.223 62.4958 67.4599 61.9984C67.562 61.7839 67.5763 61.7057 67.5754 61.366C67.5746 61.0501 67.5564 60.9389 67.4773 60.7656C67.2547 60.2776 66.7068 59.9652 65.6068 59.6988C64.4718 59.424 64.1289 59.1841 64.1239 58.6617C64.1215 58.4089 64.1647 58.286 64.3185 58.1074C64.8035 57.5447 66.0237 57.6068 66.8583 58.2365C66.9455 58.3024 67.0221 58.3494 67.0285 58.3411C67.0349 58.3328 67.1307 58.2093 67.2414 58.0667C67.3521 57.9241 67.425 57.7955 67.4035 57.781C67.382 57.7666 67.2747 57.6934 67.1652 57.6184C66.6514 57.2667 66.1345 57.1233 65.383 57.1239C64.9487 57.1243 64.8131 57.1402 64.5793 57.2179ZM8.03857 60.0398V62.9165H8.37294H8.70731V61.8148V60.7131L9.53278 60.7145L10.3583 60.7159L11.1942 61.8151L12.0301 62.9142L12.4585 62.9154C12.6941 62.916 12.8869 62.9061 12.8869 62.8933C12.8869 62.8763 11.6787 61.2991 11.1653 60.646C11.1398 60.6135 11.2158 60.5736 11.4172 60.5139C12.1754 60.2891 12.6204 59.7575 12.6675 59.0207C12.7184 58.2241 12.2687 57.5803 11.4831 57.3251C11.1013 57.201 10.6048 57.1654 9.24021 57.1642L8.03857 57.1631V60.0398ZM25.802 60.0398V62.9165H27.8082H29.8144V62.6105V62.3045H28.1635H26.5125V59.7338V57.1631H26.1572H25.802V60.0398ZM30.7757 60.0398V62.9165H32.9073H35.0389V62.6105V62.3045H33.2417H31.4445V61.3251V60.3458H33.0536H34.6628V60.0194V59.693H33.0536H31.4445V58.7544V57.8159H33.2417H35.0389V57.4895V57.1631H32.9073H30.7757V60.0398ZM43.6072 60.0398V62.9165H43.9624H44.3177V60.0398V57.1631H43.9624H43.6072V60.0398ZM45.7806 60.0381V62.9165H46.1149H46.4493V60.6082V58.2999L48.3115 60.6082L50.1738 62.9165H50.4641H50.7543V60.0398V57.1631H50.3994H50.0445L50.0337 59.4072L50.0229 61.6514L48.2248 59.4174L46.4268 57.1835L46.1037 57.1715L45.7806 57.1596V60.0381ZM51.632 57.1832C51.632 57.1942 52.1887 58.475 52.8691 60.0293C53.5495 61.5836 54.1161 62.879 54.1281 62.908C54.144 62.946 54.2382 62.9573 54.4675 62.9488L54.7851 62.9369L56.0277 60.101C56.7112 58.5412 57.2713 57.2421 57.2724 57.2141C57.274 57.177 57.1745 57.1631 56.9081 57.1631H56.5416L55.5431 59.5195C54.994 60.8156 54.5269 61.9104 54.5052 61.9526C54.4739 62.0132 54.2514 61.5223 53.4371 59.5961L52.4087 57.1631H52.0204C51.8068 57.1631 51.632 57.1721 51.632 57.1832ZM58.1941 60.0398V62.9165H60.3466H62.4991V62.6105V62.3045H60.6809H58.8628V61.3251V60.3458H60.472H62.0811V60.0194V59.693H60.472H58.8628V58.7544V57.8159H60.66H62.4573V57.4895V57.1631H60.3257H58.1941V60.0398ZM68.1416 57.4895V57.8159H69.1238H70.106V60.3662V62.9165H70.4613H70.8165V60.3662V57.8159H71.7778H72.7392V57.4895V57.1631H70.4404H68.1416V57.4895ZM73.7423 60.0398V62.9165H74.0763H74.4103L74.4211 60.6444L74.4319 58.3721L75.476 59.8693C76.0503 60.6928 76.5381 61.3606 76.5601 61.3535C76.5821 61.3463 77.062 60.6778 77.6267 59.8679L78.6533 58.3954L78.6641 60.6559L78.6749 62.9165H79.0298H79.3848V60.0398V57.1631H79.0296H78.6746L77.6153 58.7139L76.5561 60.2647L75.4979 58.7139L74.4396 57.1631H74.0909H73.7423V60.0398ZM80.764 60.0398V62.9165H82.9165H85.069V62.6105V62.3045H83.2718H81.4746V61.3251V60.3458H83.0628H84.6511V60.0194V59.693H83.0628H81.4746V58.7544V57.8159H83.2509H85.0272V57.4895V57.1631H82.8956H80.764V60.0398ZM86.1557 60.0398V62.9165H86.4898H86.8238L86.8346 60.6175L86.8454 58.3184L88.6994 60.6175L90.5534 62.9165H90.8415H91.1295V60.0398V57.1631H90.7746H90.4197L90.4089 59.4035L90.3981 61.6439L88.6008 59.4058L86.8036 57.1678L86.4797 57.1654L86.1557 57.1631V60.0398ZM92.0908 57.4895V57.8159H93.073H94.0552V60.3662V62.9165H94.4105H94.7658V60.3662V57.8159H95.748H96.7302V57.4895V57.1631H94.4105H92.0908V57.4895ZM106.343 60.0353V62.9165H106.678H107.012V61.8148V60.7131L107.838 60.7134L108.663 60.7137L109.499 61.814L110.335 62.9143L110.763 62.9154C110.999 62.916 111.192 62.907 111.192 62.8954C111.192 62.8838 110.798 62.362 110.316 61.7358L109.44 60.5974L109.725 60.5128C110.084 60.4067 110.488 60.1455 110.673 59.9011C111.019 59.4444 111.083 58.6872 110.819 58.1643C110.597 57.7231 110.125 57.3841 109.541 57.2458C109.407 57.2142 108.792 57.1886 107.838 57.1751L106.343 57.154V60.0353ZM118.933 59.1523L118.948 61.1415L119.061 61.4711C119.335 62.2717 119.884 62.761 120.708 62.9398C121.084 63.0215 121.917 63.0014 122.23 62.9029C122.726 62.7471 123.176 62.4188 123.434 62.0242C123.502 61.9202 123.611 61.6883 123.675 61.5088L123.793 61.1823L123.806 59.1727L123.819 57.1631H123.485H123.152L123.136 59.0707C123.121 60.8934 123.116 60.9901 123.03 61.2435C122.806 61.902 122.395 62.2401 121.691 62.3468C120.895 62.4673 120.145 62.1251 119.847 61.5063C119.65 61.0973 119.636 60.9308 119.635 58.9891L119.635 57.1631H119.276H118.918L118.933 59.1523ZM125.152 60.0347V62.9165H125.486H125.82V61.9215V60.9264L126.813 60.9058C127.917 60.8827 128.104 60.8509 128.588 60.6033C129.156 60.3125 129.493 59.7993 129.53 59.1678C129.588 58.1835 129.104 57.5405 128.098 57.2652C127.896 57.2099 127.585 57.1922 126.5 57.1746L125.152 57.1528V60.0347ZM4.42319 57.7899C5.25381 58.0071 5.90942 58.698 6.09458 59.5513C6.50051 61.4222 4.66248 62.956 2.96032 62.1667C2.36076 61.8887 1.96804 61.4518 1.7441 60.8135C1.60002 60.403 1.58138 59.7784 1.7015 59.3869C1.9438 58.5973 2.54562 57.9912 3.27848 57.7988C3.56486 57.7236 4.15214 57.7191 4.42319 57.7899ZM115.503 57.8145C116.236 58.0357 116.786 58.5707 117.027 59.2989C117.185 59.7776 117.185 60.3556 117.027 60.8106C116.766 61.5579 116.299 62.0321 115.588 62.271C115.186 62.4063 114.545 62.4007 114.159 62.2586C113.585 62.0472 113.147 61.6646 112.882 61.1415C112.205 59.8068 112.896 58.1645 114.289 57.7988C114.624 57.7109 115.183 57.7181 115.503 57.8145ZM10.9445 57.8604C11.2731 57.9197 11.5505 58.0625 11.7261 58.2628C12.0884 58.676 12.0376 59.3636 11.6182 59.7231C11.2421 60.0455 10.9668 60.0996 9.69997 60.1004L8.70731 60.101V58.9585V57.8159H9.70273C10.2502 57.8159 10.809 57.8359 10.9445 57.8604ZM109.277 57.8618C109.718 57.9531 110.073 58.2035 110.207 58.5185C110.369 58.8967 110.237 59.4535 109.923 59.7231C109.547 60.0455 109.272 60.0996 108.005 60.1004L107.012 60.101V58.9585V57.8159H108.034C108.632 57.8159 109.148 57.835 109.277 57.8618ZM127.826 57.8795C128.513 58.0375 128.858 58.4564 128.822 59.0886C128.794 59.5903 128.581 59.885 128.081 60.1164L127.806 60.2438L126.813 60.2567L125.82 60.2696V59.0427V57.8159L126.688 57.8165C127.318 57.817 127.629 57.8342 127.826 57.8795ZM16.957 59.3887C17.299 60.1412 17.5699 60.7658 17.5589 60.7764C17.548 60.7871 16.9756 60.7911 16.287 60.7851L15.0349 60.7743L15.6641 59.3979C16.0102 58.6409 16.3027 58.0213 16.3142 58.021C16.3257 58.0207 16.6149 58.6361 16.957 59.3887Z" fill="white"/>
</svg>
