<svg width="192" height="70" viewBox="0 0 192 70" fill="none" xmlns="http://www.w3.org/2000/svg">
<path d="M41.4246 35.817C41.0281 37.498 39.9842 39.3783 38.6193 40.8532L38.7742 40.9965L38.6193 40.8532L37.4321 42.1363L37.3143 42.2636L37.4164 42.4038L38.7373 44.2171C39.4628 45.2131 40.371 46.519 40.7546 47.1176L40.7546 47.1177C40.9502 47.4226 41.142 47.7013 41.2943 47.9052C41.3701 48.0066 41.4384 48.0927 41.4939 48.155C41.5211 48.1856 41.5492 48.215 41.5763 48.2384C41.5895 48.2499 41.6074 48.2642 41.6285 48.2768C41.6432 48.2856 41.6892 48.3123 41.7521 48.3123C41.8261 48.3123 41.8925 48.2802 41.9291 48.261C41.9748 48.237 42.0246 48.2047 42.076 48.1681C42.1794 48.0945 42.3063 47.9911 42.4484 47.8673C42.7334 47.619 43.0929 47.2767 43.4719 46.8963C44.2289 46.1365 45.0764 45.2116 45.5756 44.5598C47.4224 42.1488 49.0188 38.3718 49.2945 35.7409C49.5218 33.5703 49.5334 32.8876 49.3719 31.0283C48.7547 23.9209 44.3297 17.7811 37.8716 15.0802L37.7902 15.2749L37.8716 15.0802C37.1351 14.7722 36.1658 14.4815 35.2326 14.2678C34.302 14.0547 33.3895 13.914 32.7691 13.914H31.9976H31.7866V14.125V17.5572V20.9894V21.1632L31.9573 21.1965L32.4822 21.2986C33.9807 21.5901 35.1255 21.9423 36.1243 22.4533C37.1218 22.9636 37.9835 23.6373 38.9093 24.5838C39.6923 25.3842 40.5615 26.4693 40.8424 26.985L41.2084 27.6573H35.527H29.4902H29.0748L29.3199 27.9927L29.7034 28.5176L29.7034 28.5176C29.9204 28.8146 30.4097 29.4006 30.7926 29.8232C31.1716 30.2416 32.1763 31.3784 33.0251 32.3496L33.0251 32.3496L34.5685 34.1152L34.6316 34.1873H34.7274H38.3252C38.6588 34.1873 38.9622 34.1861 39.2382 34.1851C39.8159 34.1828 40.2734 34.1811 40.6364 34.1915C40.9038 34.1991 41.1117 34.2133 41.2728 34.2373C41.4361 34.2616 41.5354 34.2939 41.5955 34.3283C41.6477 34.3581 41.6687 34.388 41.6809 34.425C41.6964 34.4718 41.7027 34.5466 41.6873 34.6717C41.6659 34.8445 41.6125 35.0575 41.5417 35.3395C41.5063 35.4803 41.4667 35.6382 41.4246 35.817ZM41.4246 35.817L41.6299 35.8655L41.4246 35.817Z" fill="white" stroke="white" stroke-width="0.421941"/>
<path d="M29.0435 51.6612L29.0434 51.6612C28.8093 51.6122 27.8881 51.4328 26.9951 51.2622C23.9358 50.6781 21.0618 49.1034 18.7248 46.7371C12.85 40.7885 11.4505 31.1648 15.3313 23.4784C16.3629 21.435 17.2441 20.212 18.8234 18.6327C21.0124 16.4437 23.8826 14.8407 26.7059 14.2358M29.0435 51.6612L26.7059 14.2358M29.0435 51.6612L29.473 51.7509L29.7271 51.804V51.5444V48.0223C29.7271 47.7241 29.7278 47.4499 29.7285 47.1978C29.7301 46.6246 29.7314 46.166 29.7228 45.8004C29.7105 45.2812 29.6787 44.9141 29.583 44.6583C29.5328 44.5239 29.4625 44.4126 29.3633 44.3244C29.2652 44.2372 29.1509 44.1833 29.029 44.1455C28.9091 44.1083 28.7727 44.0839 28.6259 44.0615C28.5653 44.0522 28.5042 44.0435 28.4404 44.0343C28.342 44.0202 28.2372 44.0051 28.1181 43.986L28.1181 43.986C27.9307 43.9558 27.5959 43.8527 27.1992 43.7032C26.8071 43.5555 26.3696 43.3683 25.9825 43.178M29.0435 51.6612L25.9825 43.178M26.7059 14.2358C27.4433 14.0777 28.3816 13.9386 28.7957 13.9297C28.7957 13.9297 28.7957 13.9297 28.7958 13.9297C28.7958 13.9297 28.7958 13.9297 28.7958 13.9297L29.5115 13.9141L29.7271 13.9094V14.125V17.548C29.7271 17.8375 29.7278 18.1037 29.7285 18.3485C29.7301 18.9049 29.7313 19.3504 29.7228 19.7055C29.7107 20.2098 29.6791 20.568 29.5836 20.8189C29.5334 20.9509 29.4634 21.0601 29.365 21.1469C29.2679 21.2326 29.1547 21.286 29.0342 21.3241C28.9156 21.3615 28.7805 21.3868 28.6348 21.4103C28.5748 21.4201 28.5142 21.4293 28.4509 21.439C28.3532 21.4539 28.2491 21.4697 28.1309 21.4898C27.6647 21.5689 26.8821 21.8772 26.074 22.2814C25.27 22.6835 24.4705 23.1655 23.971 23.5748L23.971 23.5748C22.3616 24.8935 20.87 27.3305 20.2726 29.6358C20.0687 30.423 19.964 31.5731 19.9639 32.7353C19.9639 33.8975 20.0685 35.049 20.2725 35.8389C21.0832 38.9782 23.3511 41.8839 25.9825 43.178M26.7059 14.2358L25.9825 43.178" fill="white" stroke="white" stroke-width="0.421941"/>
<path d="M29.345 0.345282L29.5103 0.288539C29.5159 0.467409 29.521 0.727097 29.5253 1.04907C29.5339 1.69702 29.5393 2.59336 29.5393 3.58148V7.02573L27.8216 7.60711L27.8215 7.60712C26.7997 7.95313 25.6952 8.35394 25.3699 8.49825C25.0648 8.63361 23.5717 9.17964 22.0455 9.71279C20.523 10.2445 18.709 10.9004 18.014 11.1706L18.0905 11.3672L18.014 11.1706C17.7042 11.291 17.4619 11.3855 17.2736 11.4736C17.0848 11.562 16.934 11.6513 16.8145 11.7682C16.5799 11.9977 16.5029 12.3032 16.3899 12.7511C16.3868 12.7635 16.3836 12.776 16.3805 12.7886L16.3804 12.7886C16.193 13.5314 15.8016 14.5647 15.3563 15.55C14.9103 16.5369 14.4193 17.4555 14.0381 17.9748C13.6569 18.494 12.8623 19.3519 12.2785 19.8721L12.4189 20.0296L12.2785 19.8721C11.7508 20.3425 10.7556 20.9748 9.74024 21.5212C8.72077 22.0699 7.72061 22.5105 7.18411 22.6178L6.56011 22.7426L6.38147 22.7784L6.3908 22.9603L6.51411 25.365L6.51411 25.365C6.58216 26.6893 6.72229 28.338 6.82675 29.0308C8.08435 37.3713 8.86593 40.256 11.2308 45.2383L11.4214 45.1479L11.2308 45.2384C14.7559 52.6647 20.5556 58.2863 28.0569 61.5464L29.4459 62.1501L29.4958 65.5503C29.5173 67.0149 29.5185 67.8905 29.4876 68.3995C29.473 68.6392 29.4521 68.7805 29.4295 68.8596C29.4089 68.8546 29.3826 68.8477 29.3501 68.8383C29.258 68.812 29.1357 68.7725 28.9864 68.7209C28.6884 68.6178 28.2914 68.4694 27.8307 68.2895C26.9097 67.9297 25.7404 67.4458 24.6118 66.9509C23.9008 66.639 22.4908 65.9074 21.4829 65.3265C13.6846 60.8307 8.21912 54.5216 4.50093 45.7146C1.55149 38.7279 0.0707946 30.0884 0.221417 20.6996L0.276529 17.2664L1.80752 17.1586C4.95074 16.937 7.31068 16.0874 8.57204 14.6507C9.72808 13.3341 10.4881 11.0543 10.7737 8.1773L10.8875 7.03111L11.6554 6.7511C11.6555 6.7511 11.6555 6.75109 11.6555 6.75109C11.6555 6.75109 11.6555 6.75109 11.6555 6.75108C12.1475 6.57186 13.0652 6.23028 13.6956 5.99206C15.0725 5.47183 19.2893 3.96529 23.3301 2.5498C24.1445 2.26455 24.9281 1.98395 25.5347 1.76159C26.1333 1.54214 26.5761 1.37355 26.694 1.31546L26.6941 1.31539C26.8899 1.21875 27.6496 0.930622 28.3876 0.675486C28.7549 0.54857 29.0943 0.431545 29.345 0.345282Z" fill="white" stroke="url(#paint0_linear_426_2445)" stroke-width="0.421941"/>
<path d="M32.4724 0.345282L32.3071 0.288539C32.3015 0.467409 32.2964 0.727097 32.2921 1.04907C32.2835 1.69702 32.2781 2.59336 32.2781 3.58148V7.02573L33.9958 7.60711L33.9959 7.60712C35.0177 7.95313 36.1221 8.35394 36.4474 8.49825C36.7526 8.63361 38.2457 9.17964 39.7718 9.71279C41.2944 10.2445 43.1084 10.9004 43.8034 11.1706L43.7269 11.3672L43.8034 11.1706C44.1132 11.291 44.3555 11.3855 44.5438 11.4736C44.7326 11.562 44.8834 11.6513 45.0029 11.7682C45.2374 11.9977 45.3145 12.3032 45.4275 12.7511C45.4306 12.7635 45.4337 12.776 45.4369 12.7886L45.4369 12.7886C45.6244 13.5314 46.0158 14.5647 46.4611 15.55C46.9071 16.5369 47.3981 17.4555 47.7792 17.9748C48.1605 18.494 48.9551 19.3519 49.5388 19.8721L49.3985 20.0296L49.5389 19.8721C50.0666 20.3425 51.0618 20.9748 52.0771 21.5212C53.0966 22.0699 54.0968 22.5105 54.6333 22.6178L55.2573 22.7426L55.4359 22.7784L55.4266 22.9603L55.3033 25.365L55.3033 25.365C55.2352 26.6893 55.0951 28.338 54.9906 29.0308C53.733 37.3713 52.9515 40.256 50.5866 45.2383L50.396 45.1479L50.5866 45.2384C47.0615 52.6647 41.2617 58.2863 33.7605 61.5464L32.3715 62.1501L32.3216 65.5503C32.3001 67.0149 32.2989 67.8905 32.3298 68.3995C32.3443 68.6392 32.3653 68.7805 32.3879 68.8596C32.4085 68.8546 32.4347 68.8477 32.4673 68.8383C32.5594 68.812 32.6817 68.7725 32.8309 68.7209C33.129 68.6178 33.526 68.4694 33.9867 68.2895C34.9077 67.9297 36.077 67.4458 37.2056 66.9509C37.9166 66.639 39.3266 65.9074 40.3344 65.3265C48.1328 60.8307 53.5983 54.5216 57.3165 45.7146C60.2659 38.7279 61.7466 30.0884 61.596 20.6996L61.5409 17.2664L60.0099 17.1586C56.8666 16.937 54.5067 16.0874 53.2453 14.6507C52.0893 13.3341 51.3293 11.0543 51.0437 8.1773L50.9299 7.03111L50.1619 6.7511C50.1619 6.7511 50.1619 6.75109 50.1619 6.75109C50.1619 6.75109 50.1619 6.75109 50.1619 6.75108C49.6699 6.57186 48.7522 6.23028 48.1218 5.99206C46.7449 5.47183 42.5281 3.96529 38.4872 2.5498C37.6728 2.26455 36.8893 1.98395 36.2827 1.76159C35.6841 1.54214 35.2413 1.37355 35.1234 1.31546L35.1232 1.31539C34.9275 1.21875 34.1678 0.930622 33.4298 0.675486C33.0624 0.54857 32.7231 0.431545 32.4724 0.345282Z" fill="white" stroke="white" stroke-width="0.421941"/>
<path d="M92.3806 21.129H94.4547V23.4351C95.0735 22.5262 95.7262 21.8494 96.4127 21.4046C97.0992 20.9501 97.8147 20.7229 98.5592 20.7229C99.1201 20.7229 99.7196 20.9018 100.358 21.2595L99.2989 22.971C98.8735 22.7873 98.5157 22.6954 98.2257 22.6954C97.5488 22.6954 96.8961 22.9758 96.2676 23.5366C95.6391 24.0878 95.1605 24.9484 94.8318 26.1183C94.5804 27.0176 94.4547 28.8354 94.4547 31.5718V36.9092H92.3806V21.129ZM101.723 21.129H103.87L109.294 33.2832L114.559 21.129H116.72L107.307 42.6817H105.161L108.207 35.7199L101.723 21.129ZM120.711 21.129H122.727V24.0298C123.53 22.9275 124.453 22.1008 125.497 21.5496C126.542 20.9985 127.707 20.7229 128.993 20.7229C131.236 20.7229 133.156 21.5303 134.751 23.145C136.346 24.7598 137.144 26.7033 137.144 28.9756C137.144 31.2962 136.351 33.2687 134.765 34.8931C133.189 36.5079 131.285 37.3153 129.051 37.3153C127.794 37.3153 126.638 37.0542 125.585 36.5321C124.531 36.0099 123.578 35.2316 122.727 34.197V42.6817H120.711V21.129ZM128.833 22.6809C127.074 22.6809 125.589 23.2949 124.381 24.5229C123.182 25.7509 122.582 27.2786 122.582 29.1061C122.582 30.3051 122.848 31.3832 123.38 32.3405C123.921 33.2977 124.69 34.0568 125.686 34.6176C126.692 35.1784 127.75 35.4588 128.862 35.4588C129.955 35.4588 130.98 35.1784 131.937 34.6176C132.904 34.0471 133.673 33.2542 134.243 32.2389C134.814 31.2237 135.099 30.1601 135.099 29.0481C135.099 27.9265 134.814 26.8629 134.243 25.8573C133.682 24.8517 132.923 24.0733 131.966 23.5221C131.009 22.9613 129.965 22.6809 128.833 22.6809ZM144.065 15.2695H146.11V21.129H149.33V22.8695H146.11V36.9092H144.065V22.8695H141.294V21.129H144.065V15.2695ZM161.167 20.7229C163.594 20.7229 165.605 21.6028 167.201 23.3626C168.651 24.9677 169.376 26.8677 169.376 29.0626C169.376 31.2672 168.608 33.1962 167.07 34.8496C165.542 36.4934 163.575 37.3153 161.167 37.3153C158.75 37.3153 156.772 36.4934 155.235 34.8496C153.707 33.1962 152.943 31.2672 152.943 29.0626C152.943 26.8774 153.669 24.9822 155.119 23.3771C156.714 21.6076 158.73 20.7229 161.167 20.7229ZM161.167 22.7099C159.485 22.7099 158.039 23.3336 156.83 24.5809C155.622 25.8283 155.017 27.3367 155.017 29.1061C155.017 30.2471 155.293 31.3107 155.844 32.297C156.395 33.2832 157.14 34.0471 158.078 34.5886C159.016 35.1204 160.045 35.3863 161.167 35.3863C162.289 35.3863 163.318 35.1204 164.256 34.5886C165.194 34.0471 165.939 33.2832 166.49 32.297C167.041 31.3107 167.317 30.2471 167.317 29.1061C167.317 27.3367 166.708 25.8283 165.489 24.5809C164.281 23.3336 162.84 22.7099 161.167 22.7099Z" fill="white"/>
<path d="M85.4567 44.1136H86.9684L90.6615 52.1492L94.3242 44.1136H95.8461L90.7934 55.1523H90.5398L85.4567 44.1136ZM108.256 51.4897L109.453 52.1187C109.061 52.8898 108.608 53.5121 108.094 53.9856C107.58 54.459 107.001 54.8209 106.359 55.0712C105.716 55.3147 104.989 55.4364 104.177 55.4364C102.378 55.4364 100.971 54.848 99.9568 53.671C98.9422 52.4874 98.4349 51.1515 98.4349 49.6634C98.4349 48.2633 98.8644 47.0154 99.7234 45.9196C100.812 44.5262 102.27 43.8295 104.096 43.8295C105.977 43.8295 107.478 44.5431 108.601 45.9703C109.399 46.9782 109.805 48.2362 109.819 49.7446H99.8959C99.9229 51.0297 100.332 52.0849 101.124 52.9101C101.915 53.7285 102.892 54.1378 104.056 54.1378C104.617 54.1378 105.162 54.0397 105.689 53.8435C106.224 53.6474 106.677 53.387 107.049 53.0623C107.421 52.7376 107.823 52.2134 108.256 51.4897ZM108.256 48.5169C108.067 47.7594 107.789 47.154 107.424 46.7008C107.066 46.2476 106.589 45.8824 105.994 45.6051C105.398 45.3278 104.773 45.1891 104.117 45.1891C103.034 45.1891 102.104 45.5374 101.326 46.2341C100.758 46.7414 100.329 47.5024 100.038 48.5169H108.256ZM113.412 44.1136H114.832V46.0921C115.4 45.3345 116.029 44.7697 116.719 44.3977C117.409 44.0189 118.16 43.8295 118.972 43.8295C119.797 43.8295 120.527 44.0392 121.163 44.4586C121.806 44.878 122.279 45.4427 122.584 46.153C122.888 46.8632 123.04 47.9691 123.04 49.4707V55.1523H121.63V49.8866C121.63 48.615 121.576 47.7661 121.468 47.34C121.299 46.6095 120.981 46.0616 120.514 45.6964C120.047 45.3244 119.438 45.1384 118.688 45.1384C117.829 45.1384 117.058 45.4225 116.374 45.9906C115.698 46.5588 115.252 47.2622 115.035 48.101C114.9 48.6488 114.832 49.6499 114.832 51.1041V55.1523H113.412V44.1136ZM136.536 44.1136H137.966V52.9101C137.966 54.459 137.831 55.592 137.561 56.309C137.189 57.3236 136.543 58.1048 135.623 58.6527C134.703 59.2005 133.597 59.4745 132.305 59.4745C131.358 59.4745 130.506 59.3392 129.748 59.0687C128.997 58.8049 128.385 58.4464 127.912 57.9932C127.438 57.5468 127.002 56.8907 126.603 56.0249H128.145C128.565 56.7554 129.106 57.2965 129.769 57.6482C130.431 58 131.253 58.1758 132.234 58.1758C133.201 58.1758 134.016 57.9932 134.679 57.6279C135.349 57.2694 135.826 56.8163 136.11 56.2684C136.394 55.7205 136.536 54.8378 136.536 53.6203V53.0521C136.002 53.7285 135.349 54.2494 134.578 54.6146C133.807 54.9731 132.988 55.1523 132.122 55.1523C131.108 55.1523 130.154 54.9021 129.261 54.4015C128.368 53.8943 127.679 53.2145 127.192 52.3622C126.705 51.51 126.461 50.5732 126.461 49.5518C126.461 48.5305 126.715 47.5801 127.222 46.7008C127.729 45.8148 128.429 45.1147 129.322 44.6006C130.222 44.0866 131.169 43.8295 132.163 43.8295C132.988 43.8295 133.756 44.002 134.466 44.347C135.183 44.6852 135.873 45.2466 136.536 46.0312V44.1136ZM132.346 45.1992C131.541 45.1992 130.793 45.3954 130.103 45.7877C129.413 46.1732 128.872 46.711 128.48 47.4009C128.088 48.0841 127.892 48.8247 127.892 49.6228C127.892 50.8336 128.297 51.8346 129.109 52.626C129.921 53.4174 130.973 53.8131 132.264 53.8131C133.57 53.8131 134.618 53.4208 135.41 52.6362C136.208 51.8516 136.607 50.8201 136.607 49.5417C136.607 48.7097 136.424 47.9691 136.059 47.3197C135.694 46.6636 135.176 46.1462 134.507 45.7674C133.837 45.3886 133.117 45.1992 132.346 45.1992ZM151.239 51.4897L152.436 52.1187C152.044 52.8898 151.591 53.5121 151.077 53.9856C150.562 54.459 149.984 54.8209 149.342 55.0712C148.699 55.3147 147.972 55.4364 147.16 55.4364C145.361 55.4364 143.954 54.848 142.94 53.671C141.925 52.4874 141.418 51.1515 141.418 49.6634C141.418 48.2633 141.847 47.0154 142.706 45.9196C143.795 44.5262 145.253 43.8295 147.079 43.8295C148.959 43.8295 150.461 44.5431 151.584 45.9703C152.382 46.9782 152.788 48.2362 152.801 49.7446H142.879C142.906 51.0297 143.315 52.0849 144.106 52.9101C144.898 53.7285 145.875 54.1378 147.038 54.1378C147.6 54.1378 148.144 54.0397 148.672 53.8435C149.206 53.6474 149.659 53.387 150.032 53.0623C150.404 52.7376 150.806 52.2134 151.239 51.4897ZM151.239 48.5169C151.049 47.7594 150.772 47.154 150.407 46.7008C150.048 46.2476 149.572 45.8824 148.976 45.6051C148.381 45.3278 147.755 45.1891 147.099 45.1891C146.017 45.1891 145.087 45.5374 144.309 46.2341C143.741 46.7414 143.312 47.5024 143.021 48.5169H151.239ZM155.857 44.1136H157.308V45.7268C157.741 45.091 158.197 44.6175 158.677 44.3064C159.158 43.9885 159.658 43.8295 160.179 43.8295C160.571 43.8295 160.991 43.9547 161.437 44.2049L160.696 45.4022C160.399 45.2736 160.149 45.2094 159.946 45.2094C159.472 45.2094 159.016 45.4055 158.576 45.7978C158.136 46.1834 157.801 46.7854 157.572 47.6038C157.396 48.2329 157.308 49.5045 157.308 51.4187V55.1523H155.857V44.1136ZM169.129 45.321L168.216 46.2646C167.459 45.5273 166.718 45.1587 165.994 45.1587C165.534 45.1587 165.139 45.3108 164.807 45.6152C164.482 45.9196 164.32 46.2747 164.32 46.6805C164.32 47.039 164.455 47.3806 164.726 47.7053C164.997 48.0367 165.565 48.4256 166.43 48.872C167.486 49.4199 168.203 49.9475 168.581 50.4548C168.953 50.9689 169.139 51.5472 169.139 52.1897C169.139 53.0961 168.822 53.8638 168.186 54.4929C167.55 55.1219 166.755 55.4364 165.801 55.4364C165.166 55.4364 164.557 55.2978 163.975 55.0204C163.4 54.7431 162.923 54.361 162.545 53.874L163.437 52.8594C164.161 53.6778 164.929 54.087 165.741 54.087C166.309 54.087 166.792 53.9044 167.191 53.5391C167.59 53.1739 167.79 52.7444 167.79 52.2506C167.79 51.8448 167.658 51.4829 167.394 51.165C167.131 50.8539 166.535 50.4616 165.609 49.9881C164.614 49.474 163.938 48.9667 163.579 48.4662C163.221 47.9657 163.042 47.3941 163.042 46.7516C163.042 45.9128 163.326 45.2162 163.894 44.6615C164.469 44.1069 165.193 43.8295 166.065 43.8295C167.08 43.8295 168.101 44.3267 169.129 45.321Z" fill="white"/>
<path d="M81.4823 37.1241C77.5218 37.1241 74.5514 36.0845 72.5711 34.0052C70.6107 31.9259 69.6305 29.0645 69.6305 25.4208C69.6305 23.2029 70.076 21.2127 70.9671 19.4503C71.8582 17.6681 73.1949 16.2621 74.9771 15.2324C76.7594 14.2026 78.9278 13.6878 81.4823 13.6878C82.5318 13.6878 83.4625 13.7769 84.2745 13.9551C85.1062 14.1135 85.9973 14.3908 86.9478 14.7868V19.4206C85.2646 18.6087 83.4923 18.2028 81.6308 18.2028C80.3436 18.2028 79.1951 18.5196 78.1852 19.1533C77.195 19.7672 76.4227 20.6187 75.8683 21.7078C75.3138 22.797 75.0366 24.0247 75.0366 25.3911C75.0366 27.5694 75.6009 29.3219 76.7297 30.6487C77.8782 31.9556 79.4624 32.6091 81.4823 32.6091C82.4328 32.6091 83.3635 32.4705 84.2745 32.1933C85.1854 31.8962 86.1458 31.4804 87.1557 30.9457L88.73 35.3122C87.5815 35.9062 86.3735 36.3518 85.1062 36.6488C83.8388 36.9657 82.6308 37.1241 81.4823 37.1241Z" fill="white"/>
<path d="M72.5711 34.0052L72.3186 34.2433L72.3198 34.2446L72.5711 34.0052ZM70.9671 19.4503L71.2769 19.6069L71.2776 19.6055L70.9671 19.4503ZM84.2745 13.9551L84.2 14.2942L84.2095 14.296L84.2745 13.9551ZM86.9478 14.7868H87.2949C87.2949 14.6467 87.2106 14.5203 87.0813 14.4664L86.9478 14.7868ZM86.9478 19.4206L86.797 19.7332C86.9046 19.7851 87.0312 19.778 87.1324 19.7145C87.2335 19.651 87.2949 19.54 87.2949 19.4206H86.9478ZM78.1852 19.1533L78.3681 19.4483L78.3696 19.4473L78.1852 19.1533ZM75.8683 21.7078L75.559 21.5503L75.8683 21.7078ZM76.7297 30.6487L76.4653 30.8736L76.469 30.8778L76.7297 30.6487ZM84.2745 32.1933L84.3755 32.5254L84.3821 32.5232L84.2745 32.1933ZM87.1557 30.9457L87.4822 30.828C87.4481 30.7334 87.3747 30.6582 87.2809 30.622C87.1871 30.5857 87.0822 30.5919 86.9933 30.639L87.1557 30.9457ZM88.73 35.3122L88.8895 35.6204C89.0441 35.5405 89.1156 35.3582 89.0565 35.1945L88.73 35.3122ZM85.1062 36.6488L85.027 36.3109L85.022 36.3121L85.1062 36.6488ZM81.4823 36.777C77.5797 36.777 74.7154 35.7535 72.8225 33.7658L72.3198 34.2446C74.3874 36.4155 77.4638 37.4712 81.4823 37.4712V36.777ZM72.8237 33.7671C70.9393 31.7686 69.9775 29.0013 69.9775 25.4208H69.2834C69.2834 29.1277 70.282 32.0833 72.3186 34.2433L72.8237 33.7671ZM69.9775 25.4208C69.9775 23.2505 70.4132 21.3151 71.2769 19.6069L70.6574 19.2937C69.7389 21.1104 69.2834 23.1553 69.2834 25.4208H69.9775ZM71.2776 19.6055C72.1372 17.8862 73.4253 16.5298 75.1508 15.5329L74.8035 14.9319C72.9645 15.9944 71.5792 17.45 70.6567 19.2951L71.2776 19.6055ZM75.1508 15.5329C76.8689 14.5402 78.9742 14.0348 81.4823 14.0348V13.3407C78.8814 13.3407 76.6498 13.8651 74.8035 14.9319L75.1508 15.5329ZM81.4823 14.0348C82.513 14.0348 83.418 14.1224 84.2 14.2941L84.3489 13.6161C83.5071 13.4313 82.5506 13.3407 81.4823 13.3407V14.0348ZM84.2095 14.296C85.0133 14.4492 85.8813 14.7184 86.8143 15.1072L87.0813 14.4664C86.1132 14.0631 85.199 13.7779 84.3394 13.6142L84.2095 14.296ZM86.6007 14.7868V19.4206H87.2949V14.7868H86.6007ZM87.0986 19.108C85.3685 18.2735 83.5447 17.8557 81.6308 17.8557V18.5498C83.4398 18.5498 85.1606 18.9439 86.797 19.7332L87.0986 19.108ZM81.6308 17.8557C80.2838 17.8557 79.0703 18.1882 78.0007 18.8593L78.3696 19.4473C79.3199 18.851 80.4035 18.5498 81.6308 18.5498V17.8557ZM78.0023 18.8583C76.9555 19.5073 76.1407 20.4076 75.559 21.5503L76.1776 21.8653C76.7047 20.8298 77.4345 20.027 78.368 19.4483L78.0023 18.8583ZM75.559 21.5503C74.9769 22.6938 74.6895 23.9765 74.6895 25.3911H75.3836C75.3836 24.0729 75.6507 22.9001 76.1776 21.8653L75.559 21.5503ZM74.6895 25.3911C74.6895 27.6305 75.2708 29.4695 76.4653 30.8736L76.994 30.4238C75.931 29.1743 75.3836 27.5083 75.3836 25.3911H74.6895ZM76.469 30.8778C77.6943 32.2721 79.3803 32.9562 81.4823 32.9562V32.262C79.5445 32.262 78.0622 31.6392 76.9904 30.4196L76.469 30.8778ZM81.4823 32.9562C82.4671 32.9562 83.4319 32.8125 84.3755 32.5253L84.1734 31.8612C83.2952 32.1285 82.3985 32.262 81.4823 32.262V32.9562ZM84.3821 32.5232C85.3151 32.219 86.2939 31.7947 87.3181 31.2524L86.9933 30.639C85.9977 31.1661 85.0557 31.5735 84.1669 31.8633L84.3821 32.5232ZM86.8292 31.0634L88.4035 35.4299L89.0565 35.1945L87.4822 30.828L86.8292 31.0634ZM88.5706 35.0039C87.4476 35.5847 86.2666 36.0204 85.027 36.3109L85.1854 36.9868C86.4804 36.6832 87.7153 36.2278 88.8895 35.6204L88.5706 35.0039ZM85.022 36.3121C83.7785 36.623 82.5989 36.777 81.4823 36.777V37.4712C82.6628 37.4712 83.8991 37.3084 85.1903 36.9856L85.022 36.3121Z" fill="white" fill-opacity="0.51"/>
<path d="M79.701 51.6053H73.8462L72.7871 54.6826H69.1903L74.4856 39.3562H79.0416L84.3568 54.6826H80.76L79.701 51.6053ZM78.6619 48.5281L76.7636 43.013L74.8852 48.5281H78.6619Z" fill="white"/>
<path d="M79.701 51.6053L79.9217 51.5294C79.8893 51.4351 79.8006 51.3719 79.701 51.3719V51.6053ZM73.8462 51.6053V51.3719C73.7465 51.3719 73.6578 51.4351 73.6254 51.5294L73.8462 51.6053ZM72.7871 54.6826V54.9161C72.8868 54.9161 72.9754 54.8528 73.0079 54.7586L72.7871 54.6826ZM69.1903 54.6826L68.9696 54.6064C68.945 54.6777 68.9563 54.7566 69.0001 54.8181C69.0439 54.8796 69.1148 54.9161 69.1903 54.9161V54.6826ZM74.4856 39.3562V39.1227C74.386 39.1227 74.2974 39.1859 74.2649 39.28L74.4856 39.3562ZM79.0416 39.3562L79.2621 39.2797C79.2296 39.1857 79.141 39.1227 79.0416 39.1227V39.3562ZM84.3568 54.6826V54.9161C84.4324 54.9161 84.5033 54.8795 84.5471 54.818C84.5909 54.7564 84.6022 54.6775 84.5774 54.6061L84.3568 54.6826ZM80.76 54.6826L80.5393 54.7586C80.5717 54.8528 80.6604 54.9161 80.76 54.9161V54.6826ZM78.6619 48.5281V48.7616C78.7373 48.7616 78.8081 48.7251 78.852 48.6637C78.8958 48.6022 78.9072 48.5234 78.8827 48.4521L78.6619 48.5281ZM76.7636 43.013L76.9843 42.937C76.9519 42.8426 76.863 42.7793 76.7632 42.7795C76.6634 42.7796 76.5747 42.8432 76.5426 42.9377L76.7636 43.013ZM74.8852 48.5281L74.6642 48.4528C74.6399 48.5241 74.6515 48.6027 74.6954 48.664C74.7392 48.7252 74.8099 48.7616 74.8852 48.7616V48.5281ZM79.701 51.3719H73.8462V51.8388H79.701V51.3719ZM73.6254 51.5294L72.5663 54.6066L73.0079 54.7586L74.0669 51.6813L73.6254 51.5294ZM72.7871 54.4491H69.1903V54.9161H72.7871V54.4491ZM69.411 54.7589L74.7063 39.4325L74.2649 39.28L68.9696 54.6064L69.411 54.7589ZM74.4856 39.5897H79.0416V39.1227H74.4856V39.5897ZM78.821 39.4327L84.1363 54.7591L84.5774 54.6061L79.2621 39.2797L78.821 39.4327ZM84.3568 54.4491H80.76V54.9161H84.3568V54.4491ZM80.9808 54.6066L79.9217 51.5294L79.4802 51.6813L80.5393 54.7586L80.9808 54.6066ZM78.8827 48.4521L76.9843 42.937L76.5428 43.089L78.4411 48.6041L78.8827 48.4521ZM76.5426 42.9377L74.6642 48.4528L75.1063 48.6033L76.9846 43.0882L76.5426 42.9377ZM74.8852 48.7616H78.6619V48.2946H74.8852V48.7616Z" fill="white" fill-opacity="0.51"/>
<defs>
<linearGradient id="paint0_linear_426_2445" x1="14.8751" y1="0" x2="14.8751" y2="69.0838" gradientUnits="userSpaceOnUse">
<stop stop-color="#3078BE"/>
<stop offset="1" stop-color="#3078BE" stop-opacity="0"/>
</linearGradient>
</defs>
</svg>
