<svg width="48" height="48" viewBox="0 0 48 48" fill="none" xmlns="http://www.w3.org/2000/svg">
<circle cx="23.9999" cy="23.9999" r="23.9999" fill="#12161C"/>
<path d="M33.5999 10.4004C32.2744 10.4004 31.1999 11.4749 31.1999 12.8004V30.5585C31.1999 31.3118 30.778 32.0041 30.0986 32.3295C29.6688 32.5353 29.2359 32.7357 28.7999 32.9304V17.6004C28.7999 16.2749 27.7254 15.2004 26.3999 15.2004H23.1999C21.8745 15.2004 20.8 16.2749 20.8 17.6004V34.2329C20.8 35.1382 20.1926 35.9346 19.3116 36.1435C19.0087 36.2154 18.7048 36.2847 18.4 36.3514V23.2004C18.4 21.8749 17.3254 20.8004 16 20.8004H12.8C11.4745 20.8004 10.4 21.8749 10.4 23.2004V35.6096C10.4 36.6632 9.58266 37.5401 8.5296 37.5732C7.95528 37.5913 7.37871 37.6004 6.8 37.6004C5.92151 37.6004 5.04791 37.5794 4.17969 37.5379C8.50272 43.8551 15.7673 48.0004 24 48.0004C37.2547 48.0004 47.9999 37.2552 47.9999 24.0004C47.9999 22.3188 47.8269 20.6776 47.4978 19.0935C45.0105 21.9433 42.2287 24.5294 39.1999 26.8044V12.8004C39.1999 11.4749 38.1254 10.4004 36.7999 10.4004H33.5999Z" fill="white"/>
<path fill-rule="evenodd" clip-rule="evenodd" d="M47.9967 23.6182C38.2292 34.3616 24.6163 41.5463 9.33252 42.9976C13.3885 46.1336 18.4762 47.9995 23.9998 47.9995C37.2546 47.9995 47.9997 37.2544 47.9997 23.9996C47.9997 23.8722 47.9987 23.7451 47.9967 23.6182Z" fill="#F1B73C"/>
</svg>
