<svg width="48" height="49" viewBox="0 0 48 49" fill="none" xmlns="http://www.w3.org/2000/svg">
<circle cx="24" cy="24.4863" r="24" fill="#2A58FC"/>
<g clip-path="url(#clip0_420_2878)">
<path d="M38.7831 28.3874C38.4665 28.6024 38.0969 28.7292 37.7133 28.7546C37.3296 28.7799 36.9462 28.7029 36.6032 28.5316C35.7982 28.0836 35.3644 27.033 35.3644 25.6013V21.2135C35.3644 19.1072 34.5175 17.6085 33.1009 17.2017C30.7067 16.5116 28.919 19.4007 28.229 20.4874L23.9948 27.239V18.999C23.9477 17.0987 23.3204 15.9605 22.1338 15.6206C21.3497 15.394 20.1736 15.4867 19.0288 17.2068L9.56195 32.1778C8.30235 29.8036 7.64924 27.1627 7.65917 24.4838C7.65917 15.461 14.9775 8.12222 23.9948 8.12222C33.012 8.12222 40.3565 15.461 40.3565 24.4838V24.5301C40.3565 24.5301 40.3565 24.561 40.3565 24.5765C40.4454 26.3223 39.8704 27.7128 38.7883 28.3874H38.7831ZM44.0105 24.4889V24.4014C43.9373 13.4061 34.988 4.48633 23.9948 4.48633C13.0016 4.48633 4 13.4576 4 24.4838C4 35.5099 12.9702 44.4863 23.9948 44.4863C29.0511 44.4861 33.9151 42.5767 37.586 39.1509C37.9423 38.8202 38.152 38.3645 38.1696 37.8825C38.1872 37.4005 38.0113 36.9311 37.6801 36.5759C37.5216 36.4032 37.3299 36.263 37.1162 36.1635C36.9025 36.064 36.671 36.0071 36.4348 35.9961C36.1987 35.9851 35.9627 36.0202 35.7404 36.0994C35.5182 36.1786 35.3139 36.3003 35.1396 36.4575C33.5591 37.9345 31.692 39.0816 29.6504 39.8299C27.6088 40.5783 25.4347 40.9125 23.2587 40.8125C21.0827 40.7124 18.9496 40.1802 16.9876 39.2477C15.0256 38.3153 13.275 37.0019 11.8411 35.3863L20.3617 21.8933V28.1196C20.3617 31.1118 21.5379 32.08 22.5259 32.3632C23.5139 32.6465 25.0246 32.4508 26.6085 29.917L31.3131 22.4135C31.4595 22.1714 31.6006 21.9654 31.7261 21.7852V25.6013C31.7261 28.3977 32.8657 30.6328 34.8625 31.7349C35.7705 32.2179 36.7937 32.4512 37.8247 32.4104C38.8558 32.3696 39.8566 32.0563 40.7224 31.5032C42.9179 30.0972 44.115 27.5532 43.9896 24.4889H44.0105Z" fill="white"/>
</g>
<defs>
<clipPath id="clip0_420_2878">
<rect width="40" height="40" fill="white" transform="translate(4 4.48633)"/>
</clipPath>
</defs>
</svg>
