<svg width="48" height="49" viewBox="0 0 48 49" fill="none" xmlns="http://www.w3.org/2000/svg">
<path fill-rule="evenodd" clip-rule="evenodd" d="M23.9266 0.977539C10.7156 0.977539 0 11.9246 0 25.4211C0 36.2182 6.89907 45.3658 16.2936 48.6649C17.4679 48.8149 17.9083 48.0651 17.9083 47.4653C17.9083 46.8654 17.9083 45.3658 17.9083 43.2664C11.3027 44.766 9.83486 39.9672 9.83486 39.9672C8.80734 37.118 7.19265 36.3682 7.19265 36.3682C4.99082 34.8686 7.33945 34.8686 7.33945 34.8686C9.68807 35.0185 11.0092 37.4179 11.0092 37.4179C13.211 41.1669 16.5872 40.1172 17.9083 39.5174C18.055 37.8678 18.789 36.8181 19.3761 36.2182C14.0917 35.6184 8.51377 33.5189 8.51377 24.0714C8.51377 21.3722 9.3945 19.2727 11.0092 17.4732C10.7156 16.8733 9.98165 14.324 11.3027 11.0249C11.3027 11.0249 13.3578 10.425 17.9083 13.5742C19.8165 12.9744 21.8716 12.8244 23.9266 12.8244C25.9817 12.8244 28.0367 13.1243 29.9449 13.5742C34.4954 10.425 36.5505 11.0249 36.5505 11.0249C37.8716 14.324 36.9908 16.8733 36.844 17.4732C38.3119 19.1227 39.3395 21.3722 39.3395 24.0714C39.3395 33.5189 33.7615 35.4684 28.4771 36.0683C29.3578 36.8181 30.0917 38.3177 30.0917 40.5671C30.0917 43.8662 30.0917 46.4155 30.0917 47.3153C30.0917 47.9151 30.5321 48.665 31.7064 48.515C41.2477 45.2159 48 36.0683 48 25.2711C47.8532 11.9246 37.1376 0.977539 23.9266 0.977539Z" fill="white"/>
</svg>
