<svg width="48" height="49" viewBox="0 0 48 49" fill="none" xmlns="http://www.w3.org/2000/svg">
<rect y="0.826172" width="48" height="48" rx="24" fill="url(#paint0_linear_426_2223)"/>
<path d="M13.4382 20.1511C14.8764 20.1511 15.9801 20.4744 16.7494 21.1211C17.5186 21.7566 17.9033 22.6039 17.9033 23.663C17.9033 25.3242 17.212 26.4223 15.8296 26.9575L18.522 31.1885H14.291L12.3344 27.5261H11.2641V31.1885H7.45123V20.1511H13.4382ZM12.7692 24.9674C13.1817 24.9674 13.4883 24.895 13.689 24.75C13.9008 24.5939 14.0067 24.3264 14.0067 23.9473C14.0067 23.5794 13.9008 23.3174 13.689 23.1613C13.4883 23.0052 13.1817 22.9272 12.7692 22.9272H11.2641V24.9674H12.7692ZM18.239 31.1885L21.8178 20.1511H26.5003L30.0958 31.1885H26.1157L25.614 29.0813H22.6373L22.1188 31.1885H18.239ZM23.6741 24.8504L23.2226 26.6565H25.0454L24.6106 24.8504L24.1591 22.9774H24.1089L23.6741 24.8504ZM41.5332 31.1885H36.834L35.3791 28.3288L34.0412 31.1885H29.643L33.3054 25.6865L29.7768 20.1511H34.3757L35.6634 22.9105L36.9678 20.1511H41.2155L37.7036 25.5862L41.5332 31.1885Z" fill="white"/>
<defs>
<linearGradient id="paint0_linear_426_2223" x1="9.77516e-07" y1="15.2262" x2="65.6" y2="57.3595" gradientUnits="userSpaceOnUse">
<stop stop-color="#9225FF"/>
<stop offset="1" stop-color="#00FF66"/>
</linearGradient>
</defs>
</svg>
