<?xml version="1.0" encoding="utf-8"?>
<!-- Generator: Adobe Illustrator 24.1.2, SVG Export Plug-In . SVG Version: 6.00 Build 0)  -->
<svg version="1.1" id="Слой_1" xmlns="http://www.w3.org/2000/svg" xmlns:xlink="http://www.w3.org/1999/xlink" x="0px" y="0px"
	 viewBox="0 0 170.7 79.5" style="enable-background:new 0 0 170.7 79.5;" xml:space="preserve">
<style type="text/css">
	.st0{fill:#FFFFFF;stroke:#FFFFFF;stroke-width:0.4851;}
	.st1{fill:#FFFFFF;}
	.st2{fill:#FFFFFF;fill-opacity:0.51;}
</style>
<path class="st0" d="M36.5,24.1v0.2l0.2,0l0.6,0.1c1.7,0.3,3,0.7,4.2,1.3c1.1,0.6,2.1,1.4,3.2,2.4c0.9,0.9,1.9,2.2,2.2,2.8
	c0,0,0,0,0,0l0.4,0.8h-6.5h-6.9h-0.5l0.3,0.4l0.4,0.6l0,0c0.2,0.3,0.8,1,1.3,1.5c0.4,0.5,1.6,1.8,2.6,2.9v0l1.8,2l0.1,0.1h0.1h4.1
	c0.4,0,0.7,0,1,0c0.7,0,1.2,0,1.6,0c0.3,0,0.5,0,0.7,0.1c0.2,0,0.3,0.1,0.4,0.1c0.1,0,0.1,0.1,0.1,0.1c0,0.1,0,0.1,0,0.3
	c0,0.2-0.1,0.4-0.2,0.8c0,0.2-0.1,0.3-0.1,0.5c-0.5,1.9-1.7,4.1-3.2,5.8l0,0L43,48.4l-0.1,0.1l0.1,0.2l1.5,2.1
	c0.8,1.1,1.9,2.6,2.3,3.3v0c0.2,0.4,0.4,0.7,0.6,0.9c0.1,0.1,0.2,0.2,0.2,0.3c0,0,0.1,0.1,0.1,0.1c0,0,0,0,0.1,0c0,0,0.1,0,0.1,0
	c0.1,0,0.2,0,0.2-0.1c0.1,0,0.1-0.1,0.2-0.1c0.1-0.1,0.3-0.2,0.4-0.3c0.3-0.3,0.7-0.7,1.2-1.1c0.9-0.9,1.8-1.9,2.4-2.7
	c2.1-2.8,4-7.1,4.3-10.1l-0.2,0l0.2,0c0.3-2.5,0.3-3.3,0.1-5.4C56,27.5,51,20.4,43.5,17.3l-0.1,0.2l0.1-0.2c-0.8-0.4-2-0.7-3-0.9
	c-1.1-0.2-2.1-0.4-2.8-0.4h-0.9h-0.2v0.2v3.9V24.1z"/>
<path class="st0" d="M33.4,59.4L33.4,59.4l0.5,0.1l0.3,0.1v-0.3v-4c0-0.3,0-0.7,0-0.9c0-0.7,0-1.2,0-1.6c0-0.6-0.1-1-0.2-1.3
	c-0.1-0.2-0.1-0.3-0.3-0.4c-0.1-0.1-0.2-0.2-0.4-0.2c-0.1,0-0.3-0.1-0.5-0.1c-0.1,0-0.1,0-0.2,0c-0.1,0-0.2,0-0.4-0.1l0,0.2l0-0.2
	c-0.2,0-0.6-0.2-1.1-0.3c-0.5-0.2-1-0.4-1.4-0.6c-3-1.5-5.6-4.8-6.6-8.4C23.1,40.3,23,39,23,37.6c0-1.3,0.1-2.7,0.4-3.6
	c0.7-2.7,2.4-5.5,4.3-7l0,0c0.6-0.5,1.5-1,2.4-1.5c0.9-0.5,1.8-0.8,2.4-0.9l0-0.2l0,0.2c0.1,0,0.3,0,0.4-0.1c0.1,0,0.1,0,0.2,0
	c0.2,0,0.3-0.1,0.5-0.1c0.1,0,0.3-0.1,0.4-0.2c0.1-0.1,0.2-0.2,0.3-0.4c0.1-0.3,0.1-0.7,0.2-1.3c0-0.4,0-0.9,0-1.6
	c0-0.3,0-0.6,0-0.9v-3.9V16l-0.2,0l-0.8,0c0,0,0,0,0,0l0,0c-0.5,0-1.6,0.2-2.4,0.4c-3.2,0.7-6.5,2.5-9.1,5.1c-1.8,1.8-2.8,3.2-4,5.6
	c-4.5,8.8-2.9,19.9,3.9,26.7c2.7,2.7,6,4.5,9.5,5.2C32.1,59.1,33.1,59.3,33.4,59.4z"/>
<path class="st0" d="M30.7,1.5L30.7,1.5c0.2-0.1,1.1-0.4,1.9-0.7c0.4-0.1,0.8-0.3,1.1-0.4l0.2-0.1c0,0.2,0,0.5,0,0.9
	C34,2,34,3,34,4.1v4l-2,0.7v0c-1.2,0.4-2.4,0.9-2.8,1c-0.4,0.2-2.1,0.8-3.8,1.4c-1.8,0.6-3.8,1.4-4.6,1.7l0,0
	c-0.4,0.1-0.6,0.2-0.9,0.3c-0.2,0.1-0.4,0.2-0.5,0.3c-0.3,0.3-0.4,0.6-0.5,1.1c0,0,0,0,0,0l0,0c-0.2,0.9-0.7,2-1.2,3.2
	c-0.5,1.1-1.1,2.2-1.5,2.8c-0.4,0.6-1.4,1.6-2,2.2l0.2,0.2l-0.2-0.2c-0.6,0.5-1.8,1.3-2.9,1.9C10,25.4,8.9,25.9,8.3,26l-0.7,0.1
	l-0.2,0l0,0.2l0.1,2.8l0,0c0.1,1.5,0.2,3.4,0.4,4.2C9.3,43,10.2,46.3,12.9,52l0.2-0.1L12.9,52c4.1,8.5,10.7,15,19.3,18.7l1.6,0.7
	l0.1,3.9c0,1.7,0,2.7,0,3.3c0,0.3,0,0.4-0.1,0.5c0,0-0.1,0-0.1,0c-0.1,0-0.2-0.1-0.4-0.1c-0.3-0.1-0.8-0.3-1.3-0.5
	c-1.1-0.4-2.4-1-3.7-1.5c-0.8-0.4-2.4-1.2-3.6-1.9c-9-5.2-15.2-12.4-19.5-22.5c-3.4-8-5.1-18-4.9-28.8l0.1-3.9l1.8-0.1h0
	c3.6-0.3,6.3-1.2,7.8-2.9c1.3-1.5,2.2-4.1,2.5-7.4l0.1-1.3l0.9-0.3C14,7.6,15,7.2,15.7,6.9c1.6-0.6,6.4-2.3,11.1-4
	c0.9-0.3,1.8-0.7,2.5-0.9C30,1.8,30.6,1.6,30.7,1.5z"/>
<path class="st0" d="M40.4,1.5L40.4,1.5c-0.2-0.1-1.1-0.4-1.9-0.7c-0.4-0.1-0.8-0.3-1.1-0.4l-0.2-0.1c0,0.2,0,0.5,0,0.9
	c0,0.7,0,1.8,0,2.9v4l2,0.7v0c1.2,0.4,2.4,0.9,2.8,1c0.4,0.2,2.1,0.8,3.8,1.4c1.8,0.6,3.8,1.4,4.6,1.7l0,0c0.4,0.1,0.6,0.2,0.9,0.3
	c0.2,0.1,0.4,0.2,0.5,0.3c0.3,0.3,0.4,0.6,0.5,1.1c0,0,0,0,0,0h0c0.2,0.9,0.7,2,1.2,3.2c0.5,1.1,1.1,2.2,1.5,2.8
	c0.4,0.6,1.4,1.6,2,2.2L56.8,23l0.2-0.2c0.6,0.5,1.8,1.3,2.9,1.9c1.2,0.6,2.3,1.1,2.9,1.3l0.7,0.1l0.2,0l0,0.2l-0.1,2.8l0,0
	c-0.1,1.5-0.2,3.4-0.4,4.2C61.8,43,60.9,46.3,58.2,52l-0.2-0.1l0.2,0.1c-4.1,8.5-10.7,15-19.3,18.7l-1.6,0.7l-0.1,3.9
	c0,1.7,0,2.7,0,3.3c0,0.3,0,0.4,0.1,0.5c0,0,0.1,0,0.1,0c0.1,0,0.2-0.1,0.4-0.1c0.3-0.1,0.8-0.3,1.3-0.5c1.1-0.4,2.4-1,3.7-1.5
	c0.8-0.4,2.4-1.2,3.6-1.9c9-5.2,15.2-12.4,19.5-22.5c3.4-8,5.1-18,4.9-28.8l-0.1-3.9L69,19.7l0,0c-3.6-0.3-6.3-1.2-7.8-2.9
	c-1.3-1.5-2.2-4.1-2.5-7.4l-0.1-1.3l-0.9-0.3c-0.6-0.2-1.6-0.6-2.3-0.9c-1.6-0.6-6.4-2.3-11.1-4c-0.9-0.3-1.8-0.7-2.5-0.9
	C41,1.8,40.5,1.6,40.4,1.5z"/>
<path class="st1" d="M105.7,19.6h1.8v1.9c0.5-0.8,1.1-1.3,1.7-1.7c0.6-0.4,1.2-0.6,1.8-0.6c0.5,0,1,0.2,1.5,0.5l-0.9,1.4
	c-0.4-0.2-0.7-0.2-0.9-0.2c-0.6,0-1.1,0.2-1.7,0.7c-0.5,0.5-0.9,1.2-1.2,2.2c-0.2,0.8-0.3,2.3-0.3,4.6v4.5h-1.8V19.6z M113.6,19.6
	h1.8l4.6,10.3l4.4-10.3h1.8l-7.9,18.2h-1.8l2.6-5.9L113.6,19.6z M129.6,19.6h1.7v2.4c0.7-0.9,1.5-1.6,2.3-2.1s1.9-0.7,2.9-0.7
	c1.9,0,3.5,0.7,4.9,2c1.3,1.4,2,3,2,4.9c0,2-0.7,3.6-2,5c-1.3,1.4-2.9,2-4.8,2c-1.1,0-2-0.2-2.9-0.7c-0.9-0.4-1.7-1.1-2.4-2v7.2
	h-1.7V19.6z M136.5,20.9c-1.5,0-2.7,0.5-3.8,1.6c-1,1-1.5,2.3-1.5,3.9c0,1,0.2,1.9,0.7,2.7c0.5,0.8,1.1,1.4,1.9,1.9
	c0.8,0.5,1.7,0.7,2.7,0.7c0.9,0,1.8-0.2,2.6-0.7c0.8-0.5,1.5-1.2,1.9-2c0.5-0.9,0.7-1.8,0.7-2.7c0-0.9-0.2-1.8-0.7-2.7
	c-0.5-0.8-1.1-1.5-1.9-2C138.3,21.2,137.5,20.9,136.5,20.9z M149.4,14.7h1.7v4.9h2.7v1.5h-2.7v11.8h-1.7V21.1H147v-1.5h2.3V14.7z
	 M163.8,19.3c2,0,3.7,0.7,5.1,2.2c1.2,1.4,1.8,3,1.8,4.8c0,1.9-0.6,3.5-1.9,4.9c-1.3,1.4-2.9,2.1-5,2.1c-2,0-3.7-0.7-5-2.1
	c-1.3-1.4-1.9-3-1.9-4.9c0-1.8,0.6-3.4,1.8-4.8C160,20,161.7,19.3,163.8,19.3z M163.8,21c-1.4,0-2.6,0.5-3.7,1.6
	c-1,1.1-1.5,2.3-1.5,3.8c0,1,0.2,1.9,0.7,2.7c0.5,0.8,1.1,1.5,1.9,1.9c0.8,0.4,1.7,0.7,2.6,0.7c0.9,0,1.8-0.2,2.6-0.7
	c0.8-0.5,1.4-1.1,1.9-1.9c0.5-0.8,0.7-1.7,0.7-2.7c0-1.5-0.5-2.8-1.5-3.8C166.4,21.5,165.2,21,163.8,21z"/>
<path class="st1" d="M98.1,47h1.3l3.1,6.8l3.1-6.8h1.3l-4.3,9.3h-0.2L98.1,47z M117.3,53.2l1,0.5c-0.3,0.7-0.7,1.2-1.1,1.6
	c-0.4,0.4-0.9,0.7-1.5,0.9c-0.5,0.2-1.2,0.3-1.8,0.3c-1.5,0-2.7-0.5-3.6-1.5c-0.9-1-1.3-2.1-1.3-3.4c0-1.2,0.4-2.2,1.1-3.2
	c0.9-1.2,2.1-1.8,3.7-1.8c1.6,0,2.9,0.6,3.8,1.8c0.7,0.9,1,1.9,1,3.2h-8.4c0,1.1,0.4,2,1,2.7c0.7,0.7,1.5,1,2.5,1
	c0.5,0,0.9-0.1,1.4-0.2c0.5-0.2,0.8-0.4,1.1-0.7C116.6,54.2,116.9,53.8,117.3,53.2z M117.3,50.7c-0.2-0.6-0.4-1.2-0.7-1.5
	c-0.3-0.4-0.7-0.7-1.2-0.9c-0.5-0.2-1-0.4-1.6-0.4c-0.9,0-1.7,0.3-2.4,0.9c-0.5,0.4-0.8,1.1-1.1,1.9H117.3z M121.7,47h1.2v1.7
	c0.5-0.6,1-1.1,1.6-1.4c0.6-0.3,1.2-0.5,1.9-0.5c0.7,0,1.3,0.2,1.8,0.5c0.5,0.4,0.9,0.8,1.2,1.4c0.3,0.6,0.4,1.5,0.4,2.8v4.8h-1.2
	v-4.4c0-1.1,0-1.8-0.1-2.1c-0.1-0.6-0.4-1.1-0.8-1.4c-0.4-0.3-0.9-0.5-1.5-0.5c-0.7,0-1.4,0.2-2,0.7c-0.6,0.5-0.9,1.1-1.1,1.8
	c-0.1,0.5-0.2,1.3-0.2,2.5v3.4h-1.2V47z M141.2,47h1.2v7.4c0,1.3-0.1,2.3-0.3,2.9c-0.3,0.9-0.9,1.5-1.6,2c-0.8,0.5-1.7,0.7-2.8,0.7
	c-0.8,0-1.5-0.1-2.2-0.3c-0.6-0.2-1.2-0.5-1.6-0.9c-0.4-0.4-0.8-0.9-1.1-1.7h1.3c0.4,0.6,0.8,1.1,1.4,1.4c0.6,0.3,1.3,0.4,2.1,0.4
	c0.8,0,1.5-0.2,2.1-0.5c0.6-0.3,1-0.7,1.2-1.1c0.2-0.5,0.4-1.2,0.4-2.2v-0.5c-0.5,0.6-1,1-1.7,1.3c-0.6,0.3-1.3,0.5-2.1,0.5
	c-0.9,0-1.7-0.2-2.4-0.6c-0.8-0.4-1.3-1-1.7-1.7c-0.4-0.7-0.6-1.5-0.6-2.4c0-0.9,0.2-1.7,0.6-2.4c0.4-0.7,1-1.3,1.8-1.8
	c0.8-0.4,1.6-0.7,2.4-0.7c0.7,0,1.3,0.1,1.9,0.4c0.6,0.3,1.2,0.8,1.7,1.4V47z M137.6,47.9c-0.7,0-1.3,0.2-1.9,0.5
	c-0.6,0.3-1,0.8-1.4,1.4c-0.3,0.6-0.5,1.2-0.5,1.9c0,1,0.3,1.9,1,2.5s1.6,1,2.7,1c1.1,0,2-0.3,2.7-1c0.7-0.7,1-1.5,1-2.6
	c0-0.7-0.2-1.3-0.5-1.9c-0.3-0.6-0.7-1-1.3-1.3C138.9,48,138.3,47.9,137.6,47.9z M153.6,53.2l1,0.5c-0.3,0.7-0.7,1.2-1.1,1.6
	c-0.4,0.4-0.9,0.7-1.5,0.9c-0.5,0.2-1.2,0.3-1.8,0.3c-1.5,0-2.7-0.5-3.6-1.5c-0.9-1-1.3-2.1-1.3-3.4c0-1.2,0.4-2.2,1.1-3.2
	c0.9-1.2,2.1-1.8,3.7-1.8c1.6,0,2.9,0.6,3.8,1.8c0.7,0.9,1,1.9,1,3.2h-8.4c0,1.1,0.4,2,1,2.7c0.7,0.7,1.5,1,2.5,1
	c0.5,0,0.9-0.1,1.4-0.2c0.5-0.2,0.8-0.4,1.1-0.7C152.9,54.2,153.2,53.8,153.6,53.2z M153.6,50.7c-0.2-0.6-0.4-1.2-0.7-1.5
	c-0.3-0.4-0.7-0.7-1.2-0.9s-1-0.4-1.6-0.4c-0.9,0-1.7,0.3-2.4,0.9c-0.5,0.4-0.8,1.1-1.1,1.9H153.6z M157.5,47h1.2v1.4
	c0.4-0.5,0.8-0.9,1.2-1.2c0.4-0.3,0.8-0.4,1.3-0.4c0.3,0,0.7,0.1,1.1,0.3l-0.6,1c-0.3-0.1-0.5-0.2-0.6-0.2c-0.4,0-0.8,0.2-1.2,0.5
	c-0.4,0.3-0.7,0.8-0.8,1.5c-0.1,0.5-0.2,1.6-0.2,3.2v3.2h-1.2V47z M168.7,48l-0.8,0.8c-0.6-0.6-1.3-0.9-1.9-0.9
	c-0.4,0-0.7,0.1-1,0.4c-0.3,0.3-0.4,0.6-0.4,0.9c0,0.3,0.1,0.6,0.3,0.9c0.2,0.3,0.7,0.6,1.4,1c0.9,0.5,1.5,0.9,1.8,1.3
	c0.3,0.4,0.5,0.9,0.5,1.5c0,0.8-0.3,1.4-0.8,1.9c-0.5,0.5-1.2,0.8-2,0.8c-0.5,0-1.1-0.1-1.5-0.4c-0.5-0.2-0.9-0.6-1.2-1l0.8-0.9
	c0.6,0.7,1.3,1,1.9,1c0.5,0,0.9-0.2,1.2-0.5c0.3-0.3,0.5-0.7,0.5-1.1c0-0.3-0.1-0.6-0.3-0.9c-0.2-0.3-0.7-0.6-1.5-1
	c-0.8-0.4-1.4-0.9-1.7-1.3c-0.3-0.4-0.5-0.9-0.5-1.4c0-0.7,0.2-1.3,0.7-1.8c0.5-0.5,1.1-0.7,1.8-0.7C166.9,46.7,167.8,47.1,168.7,48
	z"/>
<path class="st1" d="M93.7,41.9c-4.6,0-8-1.2-10.2-3.6C81.2,36,80,32.7,80,28.5c0-2.5,0.5-4.8,1.5-6.9c1-2,2.6-3.7,4.6-4.8
	c2-1.2,4.5-1.8,7.5-1.8c1.2,0,2.3,0.1,3.2,0.3c1,0.2,2,0.5,3.1,1v5.3c-1.9-0.9-4-1.4-6.1-1.4c-1.5,0-2.8,0.4-4,1.1
	c-1.1,0.7-2,1.7-2.7,2.9c-0.6,1.3-1,2.7-1,4.2c0,2.5,0.6,4.5,1.9,6c1.3,1.5,3.1,2.3,5.5,2.3c1.1,0,2.2-0.2,3.2-0.5
	c1-0.3,2.2-0.8,3.3-1.4l1.8,5c-1.3,0.7-2.7,1.2-4.2,1.5C96.4,41.8,95,41.9,93.7,41.9z"/>
<path class="st2" d="M83.4,38.4l-0.3,0.3l0,0L83.4,38.4z M81.6,21.6l0.4,0.2l0,0L81.6,21.6z M96.9,15.3l-0.1,0.4l0,0L96.9,15.3z
	 M100,16.3h0.4c0-0.2-0.1-0.3-0.2-0.4L100,16.3z M100,21.6l-0.2,0.4c0.1,0.1,0.3,0.1,0.4,0c0.1-0.1,0.2-0.2,0.2-0.3H100z M89.9,21.3
	l0.2,0.3l0,0L89.9,21.3z M88.2,34.5l-0.3,0.3l0,0L88.2,34.5z M96.9,36.3l0.1,0.4l0,0L96.9,36.3z M100.2,34.8l0.4-0.1
	c0-0.1-0.1-0.2-0.2-0.2c-0.1,0-0.2,0-0.3,0L100.2,34.8z M102,39.9l0.2,0.4c0.2-0.1,0.3-0.3,0.2-0.5L102,39.9z M97.8,41.4L97.7,41
	l0,0L97.8,41.4z M93.7,41.5c-4.5,0-7.8-1.2-10-3.5l-0.6,0.6c2.4,2.5,5.9,3.7,10.5,3.7V41.5z M83.7,38.1c-2.2-2.3-3.3-5.5-3.3-9.6
	h-0.8c0,4.3,1.1,7.7,3.5,10.1L83.7,38.1z M80.4,28.5c0-2.5,0.5-4.7,1.5-6.7l-0.7-0.4c-1.1,2.1-1.6,4.4-1.6,7H80.4z M81.9,21.8
	c1-2,2.5-3.5,4.5-4.7L86,16.4c-2.1,1.2-3.7,2.9-4.8,5L81.9,21.8z M86.4,17.1c2-1.1,4.4-1.7,7.3-1.7v-0.8c-3,0-5.6,0.6-7.7,1.8
	L86.4,17.1z M93.7,15.4c1.2,0,2.2,0.1,3.1,0.3l0.2-0.8c-1-0.2-2.1-0.3-3.3-0.3V15.4z M96.8,15.7c0.9,0.2,1.9,0.5,3,0.9l0.3-0.7
	c-1.1-0.5-2.2-0.8-3.2-1L96.8,15.7z M99.6,16.3v5.3h0.8v-5.3H99.6z M100.1,21.2c-2-1-4.1-1.4-6.3-1.4v0.8c2.1,0,4.1,0.5,5.9,1.4
	L100.1,21.2z M93.8,19.8c-1.5,0-2.9,0.4-4.2,1.2l0.4,0.7c1.1-0.7,2.3-1,3.7-1V19.8z M89.7,20.9c-1.2,0.7-2.1,1.8-2.8,3.1l0.7,0.4
	c0.6-1.2,1.4-2.1,2.5-2.8L89.7,20.9z M86.9,24c-0.7,1.3-1,2.8-1,4.4h0.8c0-1.5,0.3-2.9,0.9-4.1L86.9,24z M85.9,28.5
	c0,2.6,0.7,4.7,2,6.3l0.6-0.5c-1.2-1.4-1.9-3.4-1.9-5.8H85.9z M87.9,34.8c1.4,1.6,3.3,2.4,5.8,2.4v-0.8c-2.2,0-3.9-0.7-5.2-2.1
	L87.9,34.8z M93.7,37.2c1.1,0,2.2-0.2,3.3-0.5l-0.2-0.8c-1,0.3-2,0.5-3.1,0.5V37.2z M97,36.7c1.1-0.3,2.2-0.8,3.4-1.5l-0.4-0.7
	c-1.1,0.6-2.2,1.1-3.2,1.4L97,36.7z M99.8,35l1.8,5l0.8-0.3l-1.8-5L99.8,35z M101.8,39.5c-1.3,0.7-2.6,1.2-4.1,1.5l0.2,0.8
	c1.5-0.3,2.9-0.9,4.3-1.6L101.8,39.5z M97.7,41c-1.4,0.4-2.8,0.5-4.1,0.5v0.8c1.4,0,2.8-0.2,4.3-0.6L97.7,41z"/>
<path class="st1" d="M91.6,58.8h-6.7l-1.2,3.5h-4.1l6.1-17.6h5.2L97,62.3h-4.1L91.6,58.8z M90.4,55.2l-2.2-6.3l-2.2,6.3H90.4z"/>
<path class="st2" d="M91.6,58.8l0.3-0.1c0-0.1-0.1-0.2-0.3-0.2V58.8z M84.9,58.8v-0.3c-0.1,0-0.2,0.1-0.3,0.2L84.9,58.8z M83.7,62.3
	v0.3c0.1,0,0.2-0.1,0.3-0.2L83.7,62.3z M79.5,62.3l-0.3-0.1c0,0.1,0,0.2,0,0.2c0.1,0.1,0.1,0.1,0.2,0.1V62.3z M85.6,44.7v-0.3
	c-0.1,0-0.2,0.1-0.3,0.2L85.6,44.7z M90.9,44.7l0.3-0.1c0-0.1-0.1-0.2-0.3-0.2V44.7z M97,62.3v0.3c0.1,0,0.2,0,0.2-0.1
	c0.1-0.1,0.1-0.2,0-0.2L97,62.3z M92.8,62.3l-0.3,0.1c0,0.1,0.1,0.2,0.3,0.2V62.3z M90.4,55.2v0.3c0.1,0,0.2,0,0.2-0.1
	c0.1-0.1,0.1-0.2,0-0.2L90.4,55.2z M88.2,48.9l0.3-0.1c0-0.1-0.1-0.2-0.3-0.2c-0.1,0-0.2,0.1-0.3,0.2L88.2,48.9z M86.1,55.2
	l-0.3-0.1c0,0.1,0,0.2,0,0.2s0.1,0.1,0.2,0.1V55.2z M91.6,58.5h-6.7v0.5h6.7V58.5z M84.6,58.7l-1.2,3.5l0.5,0.2l1.2-3.5L84.6,58.7z
	 M83.7,62.1h-4.1v0.5h4.1V62.1z M79.8,62.4l6.1-17.6l-0.5-0.2l-6.1,17.6L79.8,62.4z M85.6,45h5.2v-0.5h-5.2V45z M90.6,44.8l6.1,17.6
	l0.5-0.2l-6.1-17.6L90.6,44.8z M97,62.1h-4.1v0.5H97V62.1z M93.1,62.2l-1.2-3.5l-0.5,0.2l1.2,3.5L93.1,62.2z M90.7,55.2l-2.2-6.3
	L88,49l2.2,6.3L90.7,55.2z M88,48.8l-2.2,6.3l0.5,0.2l2.2-6.3L88,48.8z M86.1,55.5h4.3V55h-4.3V55.5z"/>
</svg>
