<svg width="219" height="61" viewBox="0 0 219 61" fill="none" xmlns="http://www.w3.org/2000/svg">
<g clip-path="url(#clip0_955_703)">
<path d="M102.757 19.525C103.396 19.525 104.035 19.7379 104.461 20.1637C104.887 20.696 105.1 21.2283 105.1 21.8671C105.1 25.1674 103.929 28.0419 101.586 30.2776C99.2442 32.6198 96.4762 33.7909 93.1758 33.7909C89.8755 33.7909 87.001 32.6198 84.7653 30.2776C82.4231 27.9355 81.2521 25.1674 81.2521 21.8671C81.2521 18.5668 82.4231 15.6923 84.7653 13.4566C87.1075 11.1144 89.8755 9.94336 93.1758 9.94336C96.0503 9.94336 98.7119 10.9015 100.841 12.7114C101.373 13.1372 101.586 13.6695 101.693 14.3083C101.693 14.9471 101.586 15.5859 101.16 16.0117C100.735 16.544 100.202 16.7569 99.5636 16.8634C98.9248 16.9699 98.286 16.7569 97.8602 16.3311C96.5826 15.2665 94.9857 14.6277 93.2823 14.6277C91.2595 14.6277 89.5561 15.3729 88.1721 16.7569C86.7881 18.1409 86.0429 19.8443 86.0429 21.8671C86.0429 23.8899 86.7881 25.5933 88.1721 26.9773C89.5561 28.3613 91.2595 29.1066 93.2823 29.1066C94.8792 29.1066 96.2632 28.6807 97.4343 27.7225C98.7119 26.8708 99.5636 25.6998 99.9894 24.3158H95.1986C94.5598 24.3158 93.9211 24.1028 93.4952 23.5705C93.0694 23.1447 92.8564 22.5059 92.8564 21.8671C92.8564 21.2283 93.0694 20.5896 93.4952 20.1637C94.0275 19.7379 94.5598 19.525 95.1986 19.525H102.757ZM120.537 33.8973C117.236 33.8973 114.362 32.7263 112.126 30.3841C109.784 28.0419 108.613 25.2739 108.613 21.9736C108.613 18.6733 109.784 15.7988 112.126 13.5631C114.468 11.2209 117.236 10.0498 120.537 10.0498C123.837 10.0498 126.711 11.2209 128.947 13.5631C131.289 15.9052 132.46 18.6733 132.46 21.9736C132.46 25.2739 131.289 28.1484 128.947 30.3841C126.711 32.7263 123.837 33.8973 120.537 33.8973ZM120.537 14.7342C118.514 14.7342 116.81 15.4794 115.426 16.8634C114.042 18.2474 113.297 19.9508 113.297 21.9736C113.297 23.9964 114.042 25.6998 115.426 27.0838C116.81 28.4678 118.514 29.213 120.537 29.213C122.559 29.213 124.263 28.4678 125.647 27.0838C127.031 25.6998 127.776 23.9964 127.776 21.9736C127.776 19.9508 127.031 18.2474 125.647 16.8634C124.263 15.3729 122.559 14.7342 120.537 14.7342ZM136.187 14.7342C135.548 14.7342 134.909 14.5212 134.483 14.0954C134.057 13.5631 133.844 13.0308 133.844 12.392C133.844 11.7532 134.057 11.1144 134.483 10.6886C135.015 10.2627 135.548 10.0498 136.187 10.0498H152.582C153.22 10.0498 153.859 10.2627 154.285 10.6886C154.711 11.2209 154.924 11.7532 154.924 12.392C154.924 13.0308 154.711 13.6695 154.285 14.0954C153.753 14.5212 153.22 14.7342 152.582 14.7342H146.726V31.5552C146.726 32.194 146.513 32.7263 146.088 33.2586C145.555 33.7909 145.023 34.0038 144.384 34.0038C143.745 34.0038 143.213 33.7909 142.681 33.2586C142.148 32.8327 141.936 32.194 141.936 31.5552V14.7342H136.187ZM173.129 9.94336C175.152 9.94336 176.855 10.6886 178.239 12.0726C179.623 13.4566 180.368 15.16 180.368 17.1828C180.368 18.6733 179.943 20.0573 179.091 21.2283C180.901 22.7188 181.752 24.5287 181.752 26.7644C181.752 28.7872 181.007 30.4906 179.623 31.8746C178.239 33.2586 176.536 34.0038 174.513 34.0038H162.163C161.525 34.0038 160.992 33.7909 160.46 33.2586C159.928 32.8327 159.715 32.194 159.715 31.5552V12.392C159.715 11.7532 159.928 11.1144 160.46 10.6886C160.886 10.2627 161.525 10.0498 162.163 10.0498H173.129V9.94336ZM164.612 19.525H173.129C173.768 19.525 174.3 19.312 174.832 18.7797C175.365 18.3539 175.578 17.7151 175.578 17.0763C175.578 16.4376 175.365 15.9052 174.832 15.3729C174.406 14.8406 173.768 14.6277 173.129 14.6277H164.612V19.525ZM174.513 29.1066C175.152 29.1066 175.684 28.8936 176.216 28.3613C176.749 27.9355 176.962 27.2967 176.962 26.6579C176.962 26.0191 176.749 25.4868 176.216 24.9545C175.79 24.4222 175.152 24.2093 174.513 24.2093H164.612V29.0001H174.513V29.1066ZM190.908 33.8973C190.269 33.8973 189.631 33.6844 189.205 33.2586C188.779 32.7263 188.566 32.194 188.566 31.5552V12.392C188.566 11.7532 188.779 11.1144 189.205 10.6886C189.737 10.2627 190.269 10.0498 190.908 10.0498C191.547 10.0498 192.186 10.2627 192.611 10.6886C193.037 11.2209 193.25 11.7532 193.25 12.392V31.5552C193.25 32.194 193.037 32.8327 192.611 33.2586C192.186 33.6844 191.653 33.8973 190.908 33.8973ZM199.851 14.7342C199.212 14.7342 198.573 14.5212 198.148 14.0954C197.722 13.5631 197.509 13.0308 197.509 12.392C197.509 11.7532 197.722 11.1144 198.148 10.6886C198.68 10.2627 199.212 10.0498 199.851 10.0498H216.246C216.885 10.0498 217.524 10.2627 217.95 10.6886C218.375 11.2209 218.588 11.7532 218.588 12.392C218.588 13.0308 218.375 13.6695 217.95 14.0954C217.417 14.5212 216.885 14.7342 216.246 14.7342H210.391V31.5552C210.391 32.194 210.178 32.7263 209.752 33.2586C209.22 33.7909 208.687 34.0038 208.049 34.0038C207.41 34.0038 206.877 33.7909 206.345 33.2586C205.813 32.8327 205.6 32.194 205.6 31.5552V14.7342H199.851ZM3.53467 24.9545C5.23806 24.9545 6.62207 23.5705 6.62207 21.8671C6.62207 20.1637 5.23806 18.7797 3.53467 18.7797C1.83127 18.7797 0.447266 20.2702 0.447266 21.9736C0.447266 23.677 1.83127 24.9545 3.53467 24.9545ZM24.8271 37.5171C26.5305 37.5171 27.9145 36.1331 27.9145 34.4297C27.9145 32.7263 26.5305 31.3423 24.8271 31.3423C23.1237 31.3423 21.7397 32.7263 21.7397 34.4297C21.8462 36.1331 23.2302 37.5171 24.8271 37.5171Z" fill="white"/>
<path d="M69.1154 19.6319C68.3701 18.8867 67.6249 18.8867 67.0926 18.8867H33.9829C35.3669 11.8602 41.6481 6.64356 48.994 6.64356C53.0396 6.64356 56.8722 8.24049 59.7467 11.115C60.9178 12.2861 62.8341 12.3925 64.0052 11.2214C65.2827 10.0503 65.2827 8.02756 64.1117 6.75002C60.1726 2.70446 54.743 0.46875 48.994 0.46875C43.8838 0.46875 39.1995 2.27861 35.5798 5.25955C33.8764 6.53709 32.5989 6.64356 29.9373 6.64356H24.8271C23.1237 6.64356 21.7397 8.02756 21.7397 9.83742C21.7397 11.5408 23.2302 12.8184 24.9336 12.8184H33.0247L29.9373 13.2442C29.5115 13.3507 29.1921 13.5636 29.0856 13.883C28.6598 14.9476 28.3404 16.1187 28.021 17.2898C27.7016 18.3544 26.2111 18.7802 23.9754 18.7802H12.7969C11.0935 18.7802 9.60303 20.0578 9.60303 21.7612C9.60303 23.4646 10.987 24.955 12.6904 24.955H31.9601L28.7662 25.4874C28.2339 25.5938 27.9145 26.1261 28.021 26.6584C30.1502 36.24 38.7737 43.373 48.994 43.373C60.4919 43.373 69.8606 34.3237 70.3929 22.9323C70.4994 21.7612 70.0735 20.4836 69.1154 19.6319ZM48.994 37.3047C41.5417 37.3047 35.3669 31.9816 33.9829 25.0615H64.0052C62.6212 31.9816 56.4464 37.3047 48.994 37.3047Z" fill="white"/>
</g>
<path d="M127.112 54V46.2893H125.626V44.6728H127.131V44.3012C127.131 43.6447 127.199 43.0997 127.335 42.6662C127.484 42.2327 127.676 41.8858 127.911 41.6257C128.146 41.3656 128.407 41.1736 128.691 41.0497C128.976 40.9135 129.261 40.8268 129.546 40.7896C129.843 40.7525 130.122 40.7339 130.382 40.7339C130.568 40.7339 130.754 40.7463 130.94 40.771C131.125 40.7958 131.286 40.8268 131.423 40.8639V42.5919C131.311 42.5299 131.194 42.4804 131.07 42.4432C130.958 42.3937 130.81 42.3689 130.624 42.3689C130.438 42.3689 130.252 42.3875 130.066 42.4247C129.881 42.4494 129.713 42.5238 129.565 42.6476C129.416 42.7591 129.298 42.9325 129.212 43.1679C129.125 43.4032 129.082 43.7253 129.082 44.134V44.6728H131.423V46.2893H129.063V54H127.112ZM136.931 54.2787C135.42 54.2787 134.293 53.8514 133.55 52.9967C132.819 52.142 132.453 50.9219 132.453 49.3364C132.453 47.6518 132.831 46.4194 133.587 45.639C134.355 44.8463 135.457 44.4499 136.894 44.4499C137.922 44.4499 138.771 44.6419 139.439 45.0259C140.108 45.3975 140.604 45.9487 140.926 46.6795C141.248 47.4103 141.409 48.2959 141.409 49.3364C141.409 50.9095 141.019 52.1296 140.238 52.9967C139.47 53.8514 138.368 54.2787 136.931 54.2787ZM136.913 52.6251C137.544 52.6251 138.046 52.4888 138.418 52.2163C138.789 51.9314 139.055 51.5412 139.216 51.0458C139.39 50.5503 139.477 49.9805 139.477 49.3364C139.477 48.618 139.39 48.0172 139.216 47.5342C139.043 47.0511 138.771 46.6919 138.399 46.4565C138.027 46.2088 137.532 46.0849 136.913 46.0849C136.293 46.0849 135.798 46.215 135.426 46.4751C135.055 46.7352 134.788 47.1068 134.627 47.5899C134.466 48.073 134.386 48.6552 134.386 49.3364C134.386 50.3645 134.578 51.1696 134.962 51.7518C135.346 52.334 135.996 52.6251 136.913 52.6251ZM147.803 54.2787C146.948 54.2787 146.211 54.1424 145.592 53.8699C144.985 53.585 144.514 53.1639 144.18 52.6065C143.845 52.0491 143.678 51.3554 143.678 50.5255V44.6728H145.629V50.2468C145.629 51.0396 145.802 51.628 146.149 52.0119C146.508 52.3835 147.06 52.5693 147.803 52.5693C148.546 52.5693 149.091 52.3835 149.438 52.0119C149.797 51.628 149.977 51.0396 149.977 50.2468V44.6728H151.853V50.5255C151.853 51.7642 151.494 52.6994 150.776 53.3311C150.07 53.9628 149.079 54.2787 147.803 54.2787ZM154.601 45.4346C154.874 45.2984 155.177 45.1745 155.511 45.063C155.858 44.9392 156.224 44.8339 156.608 44.7472C156.992 44.6605 157.382 44.5923 157.778 44.5428C158.175 44.4932 158.559 44.4685 158.93 44.4685C159.81 44.4685 160.528 44.5923 161.085 44.8401C161.643 45.0754 162.058 45.447 162.33 45.9549C162.603 46.4503 162.739 47.0759 162.739 47.8314V54H160.788V48.0916C160.788 47.8562 160.757 47.6271 160.695 47.4041C160.646 47.1688 160.54 46.9582 160.379 46.7724C160.231 46.5742 160.008 46.4194 159.71 46.3079C159.426 46.1964 159.048 46.1407 158.577 46.1407C158.243 46.1407 157.896 46.1716 157.537 46.2336C157.19 46.2955 156.862 46.3822 156.552 46.4937V54H154.601V45.4346ZM169.612 54.2787C169.043 54.2787 168.485 54.2044 167.94 54.0557C167.395 53.9195 166.9 53.6718 166.454 53.3125C166.008 52.9409 165.655 52.4269 165.395 51.7704C165.135 51.1139 165.005 50.2654 165.005 49.2249C165.005 47.7509 165.364 46.5866 166.082 45.7319C166.801 44.8772 167.891 44.4499 169.352 44.4499C169.588 44.4499 169.879 44.4808 170.226 44.5428C170.572 44.6047 170.925 44.6976 171.285 44.8215C171.644 44.933 171.947 45.0816 172.195 45.2674L171.693 45.9177V40.771H173.626V52.0491C173.626 52.4331 173.502 52.7675 173.254 53.0524C173.019 53.3373 172.703 53.5727 172.307 53.7585C171.91 53.9319 171.477 54.0619 171.006 54.1486C170.535 54.2353 170.071 54.2787 169.612 54.2787ZM169.668 52.5879C170.226 52.5879 170.702 52.5198 171.099 52.3835C171.495 52.2473 171.693 52.0677 171.693 51.8447V46.6609C171.371 46.4751 171.031 46.3388 170.672 46.2521C170.312 46.1654 169.965 46.1221 169.631 46.1221C169.024 46.1221 168.522 46.2459 168.126 46.4937C167.742 46.729 167.457 47.082 167.271 47.5527C167.086 48.011 166.993 48.5808 166.993 49.2621C166.993 49.8814 167.067 50.445 167.216 50.9529C167.364 51.4483 167.631 51.8447 168.015 52.142C168.411 52.4393 168.962 52.5879 169.668 52.5879ZM179.756 54.2787C179.273 54.2787 178.808 54.2292 178.362 54.1301C177.917 54.0434 177.508 53.8885 177.136 53.6656C176.777 53.4426 176.486 53.1391 176.263 52.7551C176.052 52.3588 175.947 51.8695 175.947 51.2873C175.947 50.5937 176.083 50.0239 176.356 49.578C176.628 49.132 177.019 48.7976 177.526 48.5746C178.034 48.3517 178.641 48.2402 179.347 48.2402C179.818 48.2402 180.239 48.2774 180.611 48.3517C180.995 48.426 181.335 48.5313 181.633 48.6675C181.942 48.7914 182.202 48.9339 182.413 49.0949L182.617 50.3769C182.345 50.1911 181.979 50.0363 181.521 49.9124C181.063 49.7761 180.567 49.708 180.035 49.708C179.329 49.708 178.79 49.8319 178.418 50.0796C178.059 50.3274 177.879 50.699 177.879 51.1944C177.879 51.566 177.985 51.8695 178.195 52.1048C178.406 52.3278 178.666 52.495 178.976 52.6065C179.298 52.7056 179.632 52.7551 179.979 52.7551C180.71 52.7551 181.249 52.7056 181.595 52.6065C181.942 52.5074 182.116 52.2783 182.116 51.919V48.0172C182.116 47.3607 181.917 46.8839 181.521 46.5866C181.125 46.2769 180.561 46.1221 179.83 46.1221C179.31 46.1221 178.771 46.2088 178.214 46.3822C177.656 46.5432 177.198 46.7724 176.839 47.0697V45.2488C177.186 45.0135 177.687 44.8277 178.344 44.6914C179.013 44.5428 179.7 44.4685 180.406 44.4685C180.753 44.4685 181.1 44.5056 181.447 44.5799C181.806 44.6419 182.14 44.7472 182.45 44.8958C182.76 45.0321 183.032 45.224 183.268 45.4718C183.515 45.7071 183.707 45.9982 183.844 46.345C183.98 46.6919 184.048 47.1006 184.048 47.5713V52.0305C184.048 52.6375 183.856 53.1082 183.472 53.4426C183.1 53.7647 182.593 53.9814 181.948 54.0929C181.304 54.2168 180.574 54.2787 179.756 54.2787ZM190.115 54.2415C189.273 54.2415 188.604 54.0186 188.109 53.5727C187.625 53.1267 187.384 52.4702 187.384 51.6032V46.2893H185.879V44.6728H187.384V42.0716H189.391V44.6728H191.657V46.2893H189.391V51.213C189.391 51.6465 189.465 51.9748 189.614 52.1977C189.775 52.4083 190.066 52.5136 190.487 52.5136C190.697 52.5136 190.908 52.4888 191.119 52.4393C191.329 52.3773 191.509 52.303 191.657 52.2163V53.9443C191.434 54.0434 191.18 54.1177 190.896 54.1672C190.623 54.2168 190.363 54.2415 190.115 54.2415ZM193.976 54V44.7286H195.927L195.945 54H193.976ZM193.92 43.1864V41.4213H196.001V43.1864H193.92ZM202.741 54.2787C201.23 54.2787 200.103 53.8514 199.36 52.9967C198.629 52.142 198.264 50.9219 198.264 49.3364C198.264 47.6518 198.641 46.4194 199.397 45.639C200.165 44.8463 201.267 44.4499 202.704 44.4499C203.732 44.4499 204.581 44.6419 205.25 45.0259C205.919 45.3975 206.414 45.9487 206.736 46.6795C207.058 47.4103 207.219 48.2959 207.219 49.3364C207.219 50.9095 206.829 52.1296 206.049 52.9967C205.281 53.8514 204.178 54.2787 202.741 54.2787ZM202.723 52.6251C203.354 52.6251 203.856 52.4888 204.228 52.2163C204.599 51.9314 204.866 51.5412 205.027 51.0458C205.2 50.5503 205.287 49.9805 205.287 49.3364C205.287 48.618 205.2 48.0172 205.027 47.5342C204.853 47.0511 204.581 46.6919 204.209 46.4565C203.838 46.2088 203.342 46.0849 202.723 46.0849C202.103 46.0849 201.608 46.215 201.236 46.4751C200.865 46.7352 200.598 47.1068 200.437 47.5899C200.276 48.073 200.196 48.6552 200.196 49.3364C200.196 50.3645 200.388 51.1696 200.772 51.7518C201.156 52.334 201.806 52.6251 202.723 52.6251ZM209.488 45.4346C209.761 45.2984 210.064 45.1745 210.399 45.063C210.745 44.9392 211.111 44.8339 211.495 44.7472C211.879 44.6605 212.269 44.5923 212.665 44.5428C213.062 44.4932 213.446 44.4685 213.817 44.4685C214.697 44.4685 215.415 44.5923 215.973 44.8401C216.53 45.0754 216.945 45.447 217.217 45.9549C217.49 46.4503 217.626 47.0759 217.626 47.8314V54H215.675V48.0916C215.675 47.8562 215.644 47.6271 215.582 47.4041C215.533 47.1688 215.428 46.9582 215.267 46.7724C215.118 46.5742 214.895 46.4194 214.598 46.3079C214.313 46.1964 213.935 46.1407 213.464 46.1407C213.13 46.1407 212.783 46.1716 212.424 46.2336C212.077 46.2955 211.749 46.3822 211.439 46.4937V54H209.488V45.4346Z" fill="white"/>
<defs>
<clipPath id="clip0_955_703">
<rect width="218.247" height="42.9043" fill="white" transform="translate(0.446777 0.46875)"/>
</clipPath>
</defs>
</svg>
