<svg width="204" height="75" viewBox="0 0 204 75" fill="none" xmlns="http://www.w3.org/2000/svg">
<g clip-path="url(#clip0_939_888)">
<g clip-path="url(#clip1_939_888)">
<path d="M72.9799 46.5481C71.2141 53.6324 67.3869 60.0338 61.9824 64.9429C56.578 69.8519 49.839 73.048 42.6178 74.127C35.3967 75.2059 28.0177 74.1192 21.4143 71.0043C14.8108 67.8894 9.27946 62.8862 5.51984 56.6275C1.76021 50.3688 -0.0588037 43.1359 0.292849 35.8434C0.644503 28.5508 3.15103 21.5264 7.49541 15.6585C11.8398 9.79059 17.8269 5.34278 24.6994 2.87764C31.572 0.412494 39.0212 0.0407455 46.1051 1.80941C55.5984 4.18428 63.761 10.2298 68.7999 18.6183C73.8389 27.0067 75.3423 37.0521 72.9799 46.5481Z" fill="white"/>
<path fill-rule="evenodd" clip-rule="evenodd" d="M56.8342 21.8596L56.0078 21.0837C53.5268 18.8662 50.6714 17.1073 47.5748 15.889C44.4636 14.6437 41.1437 14.0026 37.7925 14C30.7366 14.0402 23.9713 16.8153 18.9195 21.7415C17.7595 22.8659 16.6882 24.0782 15.715 25.3677C14.7825 26.6121 13.9372 27.9195 13.1851 29.2806L20.2856 35.6728C20.9581 34.2298 21.7897 32.8664 22.7649 31.6081C23.7421 30.3056 24.8749 29.1274 26.1381 28.1C29.4392 25.306 33.6196 23.7652 37.9443 23.7485H38.872C42.5327 23.942 46.054 25.2155 48.9915 27.4085L49.9023 28.1L26.914 48.7945C29.8496 50.9887 33.373 52.2571 37.0336 52.4376L55.5862 35.7403L62.6193 29.4155C61.8549 28.0038 60.9867 26.6508 60.0219 25.3677C59.0551 24.1147 57.9891 22.9416 56.8342 21.8596Z" fill="#090A0E"/>
<path fill-rule="evenodd" clip-rule="evenodd" d="M49.7209 47.1193C46.4176 49.9095 42.2387 51.4498 37.9147 51.4707C34.8973 51.4636 31.9294 50.7042 29.2793 49.2613C28.8071 49.0083 28.4529 48.8059 28.1156 48.5866L27.9638 48.4855C27.6096 48.2662 27.2723 48.0301 26.935 47.7771C26.5976 47.5241 26.3109 47.3217 26.0242 47.0856L48.9114 26.4585C45.9758 24.2643 42.4523 22.9959 38.7918 22.8154L20.2392 39.5128L13.2061 45.8375C13.9665 47.2515 14.8349 48.6048 15.8034 49.8853C16.7438 51.1397 17.7875 52.3132 18.9236 53.3935C23.9326 58.4044 30.721 61.2294 37.806 61.2515C44.8911 61.2737 51.697 58.4911 56.7372 53.5115C57.9071 52.3918 58.9844 51.1791 59.9586 49.8853C60.891 48.6409 61.7364 47.3335 62.4885 45.9724L55.3879 39.5802C54.7398 41.0077 53.9367 42.3594 52.9929 43.6112C52.0471 44.9077 50.9485 46.0855 49.7209 47.1193Z" fill="#090A0E"/>
</g>
</g>
<path d="M87.4537 36.6426V31.9369L98.2608 19.6941L98.859 20.9304H87.693V16.464H103.485V21.0899L93.4355 33.4124L93.2361 31.897H103.485V36.6426H87.4537ZM116.094 37.2408C114.871 37.2408 113.715 37.1211 112.625 36.8819C111.561 36.6692 110.617 36.3103 109.793 35.8051C108.996 35.2734 108.371 34.5689 107.919 33.6916C107.467 32.7876 107.241 31.671 107.241 30.3417C107.241 29.0922 107.494 28.0022 107.999 27.0717C108.53 26.1412 109.328 25.4234 110.391 24.9182C111.455 24.4131 112.797 24.1605 114.419 24.1605C115.323 24.1605 116.2 24.2536 117.051 24.4397C117.902 24.6258 118.66 24.8784 119.324 25.1974C120.016 25.5164 120.561 25.862 120.959 26.2342L121.199 29.1055C120.667 28.7865 120.029 28.5339 119.284 28.3478C118.54 28.1617 117.742 28.0687 116.892 28.0687C115.589 28.0687 114.632 28.2681 114.02 28.6668C113.436 29.039 113.143 29.6372 113.143 30.4614C113.143 30.9665 113.289 31.4185 113.582 31.8173C113.874 32.216 114.26 32.5218 114.738 32.7345C115.243 32.9472 115.762 33.0535 116.293 33.0535C117.649 33.0535 118.593 32.9604 119.125 32.7743C119.683 32.5882 119.962 32.216 119.962 31.6577V24.2403C119.962 23.0174 119.564 22.14 118.766 21.6083C117.995 21.05 116.892 20.7709 115.456 20.7709C114.286 20.7709 113.103 20.9835 111.907 21.4089C110.737 21.8077 109.78 22.2995 109.036 22.8844V17.6204C109.727 17.1951 110.79 16.7963 112.226 16.4241C113.688 16.0519 115.323 15.8658 117.131 15.8658C117.769 15.8658 118.474 15.9189 119.245 16.0253C120.016 16.1316 120.786 16.331 121.557 16.6235C122.328 16.8893 123.033 17.2881 123.671 17.8198C124.336 18.3515 124.867 19.0295 125.266 19.8536C125.665 20.6778 125.864 21.7014 125.864 22.9243L125.825 32.4553C125.825 33.5985 125.439 34.529 124.668 35.2468C123.897 35.9381 122.78 36.4432 121.318 36.7622C119.883 37.0812 118.141 37.2408 116.094 37.2408ZM150.281 23.0838V36.6426H144.339V24.2802C144.339 23.7751 144.259 23.3098 144.1 22.8844C143.967 22.4591 143.754 22.1001 143.461 21.8077C143.169 21.4887 142.77 21.2494 142.265 21.0899C141.76 20.9038 141.149 20.8107 140.431 20.8107C139.819 20.8107 139.248 20.8905 138.716 21.05C138.211 21.1829 137.799 21.3292 137.48 21.4887V36.6426H131.538V18.1787C132.043 17.9129 132.708 17.647 133.532 17.3812C134.356 17.0887 135.26 16.8362 136.243 16.6235C137.227 16.4108 138.211 16.238 139.194 16.105C140.205 15.9721 141.135 15.9057 141.986 15.9057C143.794 15.9057 145.309 16.1449 146.532 16.6235C147.782 17.0754 148.712 17.8198 149.324 18.8567C149.962 19.8935 150.281 21.3026 150.281 23.0838ZM144.179 19.5346C145.003 18.8168 146 18.192 147.17 17.6603C148.34 17.102 149.576 16.6766 150.879 16.3842C152.182 16.0652 153.391 15.9057 154.508 15.9057C156.316 15.9057 157.831 16.1449 159.054 16.6235C160.304 17.0754 161.234 17.8198 161.846 18.8567C162.484 19.8935 162.803 21.3026 162.803 23.0838V36.6426H156.861V24.2802C156.861 23.7751 156.781 23.3098 156.621 22.8844C156.489 22.4591 156.276 22.1001 155.983 21.8077C155.691 21.4887 155.292 21.2494 154.787 21.0899C154.282 20.9038 153.67 20.8107 152.953 20.8107C152.341 20.8107 151.77 20.9038 151.238 21.0899C150.733 21.2494 150.321 21.4621 150.002 21.7279L144.179 19.5346ZM168.586 36.6426V16.7431H174.528L174.567 36.6426H168.586ZM168.466 13.7123V9.12627H174.607V13.7123H168.466ZM189.368 37.2408C185.965 37.2408 183.399 36.3368 181.671 34.529C179.97 32.6946 179.119 30.0094 179.119 26.4735C179.119 22.6717 179.983 19.9467 181.711 18.2984C183.466 16.6235 186.018 15.786 189.368 15.786C191.628 15.786 193.515 16.1715 195.031 16.9425C196.573 17.6869 197.729 18.8434 198.5 20.4119C199.298 21.9805 199.696 24.001 199.696 26.4735C199.696 30.0094 198.806 32.6946 197.025 34.529C195.243 36.3368 192.691 37.2408 189.368 37.2408ZM189.368 32.4952C190.351 32.4952 191.162 32.2692 191.8 31.8173C192.465 31.3387 192.957 30.6608 193.276 29.7834C193.622 28.8795 193.794 27.7762 193.794 26.4735C193.794 24.9847 193.622 23.8149 193.276 22.9642C192.957 22.0869 192.465 21.4621 191.8 21.0899C191.136 20.6911 190.325 20.4917 189.368 20.4917C188.358 20.4917 187.533 20.6911 186.895 21.0899C186.257 21.4887 185.779 22.1267 185.46 23.0041C185.167 23.8548 185.021 25.0113 185.021 26.4735C185.021 28.494 185.367 30.0094 186.058 31.0197C186.776 32.0034 187.879 32.4952 189.368 32.4952Z" fill="white"/>
<path d="M109.816 60.0449L105.052 48.6212H108.71L112.164 57.426L111.351 57.4486L114.421 48.6212H117.966L113.202 60.0449H109.816ZM124.487 60.3836C123.343 60.3836 122.327 60.1503 121.439 59.6837C120.566 59.2021 119.881 58.5248 119.385 57.6518C118.903 56.7638 118.662 55.7102 118.662 54.4911C118.662 52.5043 119.151 50.9691 120.13 49.8855C121.123 48.7867 122.538 48.2374 124.374 48.2374C125.638 48.2374 126.654 48.5083 127.422 49.0501C128.205 49.592 128.777 50.3821 129.138 51.4207C129.499 52.4592 129.672 53.7235 129.657 55.2135H120.965L120.604 53.0688H126.88L126.383 54.1299C126.368 52.9107 126.195 52.0528 125.864 51.5561C125.533 51.0594 124.991 50.8111 124.239 50.8111C123.817 50.8111 123.433 50.9165 123.087 51.1272C122.756 51.3379 122.493 51.6916 122.297 52.1883C122.117 52.6699 122.026 53.3397 122.026 54.1976C122.026 55.2813 122.282 56.1166 122.794 56.7036C123.321 57.2906 124.156 57.5841 125.3 57.5841C125.721 57.5841 126.135 57.5389 126.542 57.4486C126.963 57.3433 127.354 57.2228 127.716 57.0874C128.077 56.9519 128.385 56.8315 128.641 56.7262V59.616C128.099 59.8417 127.49 60.0223 126.812 60.1578C126.15 60.3083 125.375 60.3836 124.487 60.3836ZM131.994 49.592C132.28 49.4414 132.657 49.2909 133.123 49.1404C133.59 48.9749 134.101 48.8319 134.658 48.7115C135.215 48.5911 135.772 48.4932 136.329 48.418C136.901 48.3427 137.428 48.3051 137.909 48.3051C138.933 48.3051 139.806 48.4405 140.528 48.7115C141.251 48.9673 141.8 49.3888 142.176 49.9758C142.568 50.5628 142.763 51.3605 142.763 52.3689V60.0449H139.399V53.0462C139.399 52.7602 139.354 52.4968 139.264 52.256C139.189 52.0152 139.068 51.812 138.903 51.6464C138.737 51.4658 138.511 51.3304 138.225 51.24C137.939 51.1347 137.593 51.082 137.187 51.082C136.841 51.082 136.495 51.1272 136.148 51.2175C135.802 51.2927 135.539 51.3755 135.358 51.4658V60.0449H131.994V49.592ZM150.425 60.4965C149.101 60.4965 148.115 60.1879 147.468 59.5708C146.821 58.9387 146.497 58.0507 146.497 56.9068V51.1949H144.826V48.6212H146.497V45.483H150.019V48.6212H152.525V51.1949H150.019V56.4778C150.019 56.8691 150.102 57.1626 150.267 57.3583C150.433 57.5389 150.711 57.6292 151.103 57.6292C151.328 57.6292 151.577 57.5841 151.848 57.4938C152.119 57.4035 152.344 57.2906 152.525 57.1551V60.0449C152.209 60.2105 151.863 60.3234 151.486 60.3836C151.125 60.4588 150.771 60.4965 150.425 60.4965ZM160.451 60.3836C159.398 60.3836 158.464 60.218 157.652 59.8869C156.839 59.5558 156.207 59.0516 155.755 58.3743C155.304 57.6819 155.078 56.7864 155.078 55.6876V48.6212H158.442V55.4167C158.442 56.1392 158.6 56.681 158.916 57.0422C159.247 57.3884 159.766 57.5615 160.474 57.5615C161.196 57.5615 161.716 57.3884 162.032 57.0422C162.348 56.681 162.506 56.1392 162.506 55.4167V48.6212H165.666V55.6876C165.666 57.3132 165.2 58.5022 164.267 59.2547C163.334 60.0073 162.062 60.3836 160.451 60.3836ZM168.637 60.0449V49.8177C168.848 49.6371 169.224 49.4339 169.766 49.2082C170.308 48.9673 170.925 48.7566 171.617 48.576C172.325 48.3803 173.032 48.2825 173.74 48.2825C174.447 48.2825 175.004 48.3352 175.41 48.4405C175.817 48.5459 176.125 48.6814 176.336 48.8469V51.3078C176.08 51.2476 175.756 51.2024 175.365 51.1723C174.974 51.1422 174.567 51.1272 174.146 51.1272C173.724 51.1121 173.326 51.1121 172.949 51.1272C172.573 51.1422 172.257 51.1723 172.001 51.2175V60.0449H168.637ZM183.067 60.3836C181.923 60.3836 180.907 60.1503 180.019 59.6837C179.146 59.2021 178.462 58.5248 177.965 57.6518C177.483 56.7638 177.242 55.7102 177.242 54.4911C177.242 52.5043 177.732 50.9691 178.71 49.8855C179.703 48.7867 181.118 48.2374 182.954 48.2374C184.219 48.2374 185.235 48.5083 186.002 49.0501C186.785 49.592 187.357 50.3821 187.718 51.4207C188.079 52.4592 188.252 53.7235 188.237 55.2135H179.545L179.184 53.0688H185.46L184.964 54.1299C184.949 52.9107 184.775 52.0528 184.444 51.5561C184.113 51.0594 183.571 50.8111 182.819 50.8111C182.397 50.8111 182.014 50.9165 181.667 51.1272C181.336 51.3379 181.073 51.6916 180.877 52.1883C180.697 52.6699 180.606 53.3397 180.606 54.1976C180.606 55.2813 180.862 56.1166 181.374 56.7036C181.901 57.2906 182.736 57.5841 183.88 57.5841C184.301 57.5841 184.715 57.5389 185.122 57.4486C185.543 57.3433 185.934 57.2228 186.296 57.0874C186.657 56.9519 186.965 56.8315 187.221 56.7262V59.616C186.679 59.8417 186.07 60.0223 185.393 60.1578C184.73 60.3083 183.955 60.3836 183.067 60.3836ZM193.961 60.3836C193.148 60.3836 192.448 60.2933 191.861 60.1127C191.289 59.9471 190.748 59.759 190.236 59.5482V56.5907C190.552 56.8014 190.906 57.0197 191.297 57.2454C191.688 57.4561 192.117 57.6292 192.584 57.7647C193.065 57.9001 193.57 57.9679 194.096 57.9679C194.638 57.9679 195.014 57.8776 195.225 57.697C195.451 57.5013 195.564 57.268 195.564 56.9971C195.564 56.7412 195.451 56.538 195.225 56.3875C194.999 56.222 194.706 56.0865 194.345 55.9811C193.983 55.8758 193.6 55.7779 193.193 55.6876C192.832 55.6124 192.471 55.4995 192.11 55.349C191.748 55.1834 191.425 54.9652 191.139 54.6943C190.853 54.4233 190.62 54.0922 190.439 53.7009C190.273 53.2945 190.191 52.8054 190.191 52.2334C190.191 51.4959 190.334 50.8863 190.62 50.4047C190.906 49.908 191.282 49.5092 191.748 49.2082C192.215 48.9071 192.719 48.6964 193.261 48.576C193.803 48.4405 194.33 48.3803 194.841 48.3954C195.775 48.4255 196.512 48.5309 197.054 48.7115C197.611 48.877 198.115 49.0953 198.567 49.3662V52.0077C198.055 51.7217 197.543 51.4583 197.031 51.2175C196.535 50.9616 195.963 50.8337 195.316 50.8337C194.729 50.8337 194.307 50.924 194.051 51.1046C193.795 51.2852 193.667 51.526 193.667 51.827C193.667 52.113 193.75 52.3388 193.916 52.5043C194.096 52.6699 194.33 52.8054 194.616 52.9107C194.902 53.001 195.218 53.0913 195.564 53.1816C195.94 53.2719 196.324 53.3848 196.715 53.5203C197.122 53.6407 197.498 53.8213 197.844 54.0621C198.205 54.2879 198.491 54.6115 198.702 55.0329C198.928 55.4393 199.041 55.9811 199.041 56.6584C199.026 57.5765 198.777 58.314 198.296 58.8709C197.814 59.4128 197.189 59.8041 196.422 60.0449C195.669 60.2707 194.849 60.3836 193.961 60.3836Z" fill="white"/>
<defs>
<clipPath id="clip0_939_888">
<rect width="73.8223" height="73.8223" fill="white" transform="translate(0.25 0.711914)"/>
</clipPath>
<clipPath id="clip1_939_888">
<rect width="73.8223" height="73.8223" fill="white" transform="translate(0.25 0.711914)"/>
</clipPath>
</defs>
</svg>
