<svg id="Layer_1" data-name="Layer 1" xmlns="http://www.w3.org/2000/svg" viewBox="0 0 175.84 84"><title>skyventures</title><path d="M117.84,0a29.36,29.36,0,0,0,5.08,1A64.93,64.93,0,0,1,154,16.33a19,19,0,0,1,3,3.07C141.82,7.32,124.63,2.24,105.48,5.1S71.37,18,60.4,34.21L68,43.92H61.84l-4.06-5-2.9,5H49V20h5V32.32c.6.11.63-.33.78-.57A64.8,64.8,0,0,1,92.23,2.48a56.69,56.69,0,0,1,9.39-2c.5-.07,1.09,0,1.47-.46Z" style="fill:#fea43e"/><path d="M175.84,66.75a6.43,6.43,0,0,1-5.23,3.87,14.19,14.19,0,0,1-9.13-1.46,16.42,16.42,0,0,1,1.46-3.23,23.43,23.43,0,0,0,3.54,1.2,10.47,10.47,0,0,0,3.35.06c.67-.1,1.37-.37,1.43-1.17s-.67-1.09-1.32-1.23c-1.06-.22-2.14-.35-3.2-.56a16,16,0,0,1-2.16-.57,3.81,3.81,0,0,1-2.72-3.13,4.36,4.36,0,0,1,1.69-4.43c2.19-1.59,4.72-1.75,7.29-1.46A10.58,10.58,0,0,1,175.17,56l-1.47,3.18A16.23,16.23,0,0,0,170,58.08a6.91,6.91,0,0,0-2.72.23c-.52.17-1,.47-1,1.12s.45.94,1,1.14a18.28,18.28,0,0,0,3.42.66c2.37.41,4.39,1.24,5.19,3.77Z" style="fill:#2598d4"/><path d="M101.59,84V75.84c.64-.12,1.18-.27,1.61.32,1.94-.79,3.48-.57,4.42.64a3.58,3.58,0,0,1,.08,4.09c-.91,1.28-2.43,1.55-4.61.75V84Zm3.31-3.2a1.92,1.92,0,0,0,0-3.83,1.76,1.76,0,0,0-1.83,1.92A1.73,1.73,0,0,0,104.9,80.8Z" style="fill:#fea43e"/><path d="M37.11,20.52l3.85,9a2.87,2.87,0,0,1-1.43.18H21.79a13.82,13.82,0,0,0-6.89,1.42,4.56,4.56,0,0,0-2.55,4.26A4.13,4.13,0,0,0,15,39.09c2.77,1.44,5.82,1.94,8.81,2.66a73.11,73.11,0,0,1,7.1,2,2.4,2.4,0,0,1,1.57,1.43c2.23,5.29,4.48,10.58,6.82,15.82a2.57,2.57,0,0,1-.33,2.76,16.53,16.53,0,0,1-10.35,6.9,37.55,37.55,0,0,1-26.2-3.1A9.64,9.64,0,0,1,0,65.87l3.83-8.53a32.18,32.18,0,0,0,5.5,2.93c4.9,1.88,9.92,2.8,15.16,1.76a9.34,9.34,0,0,0,2.7-1c3.16-1.76,3.29-5.53.23-7.45a19.88,19.88,0,0,0-5.84-2.13A102.36,102.36,0,0,1,11.1,48.71a17.51,17.51,0,0,1-6.81-4.05C0,40.24-.21,32.49,3.79,27.45c3.07-3.9,7.33-5.6,12-6.43a36.38,36.38,0,0,1,6.59-.51c4.41,0,8.83,0,13.24,0Z" style="fill:#fea43e"/><path d="M52.48,56.6c.85-1.93,1.58-3.6,2.31-5.28s1.41-3.28,2.12-5H68.29L57.77,70.72H46.36L29.9,32.52H42.23C45.59,40.43,49,48.38,52.48,56.6Z" style="fill:#2598d4"/><path d="M68.87,49.18l1.6-3.46c.8.14,1.43.58,2.19.66a2.83,2.83,0,0,0,2.67-1,2.12,2.12,0,0,0,.16-2.52c-2.22-5.07-4.38-10.16-6.56-15.25a1.4,1.4,0,0,1-.24-1h5.06c1.56,3.73,3.14,7.54,4.86,11.66l4.88-11.68h4.8a31.43,31.43,0,0,1-1.68,4.18q-3.15,7.47-6.33,14.93c-2,4.63-5.82,5.73-10.17,4.27A2.36,2.36,0,0,1,68.87,49.18Z" style="fill:#fea43e"/><path d="M89.38,70.53H85V54.87h4.16c.3.4,0,.91.3,1.41a8.53,8.53,0,0,1,4.86-1.75c3.77,0,6.3,1.95,6.63,5.69.26,2.89.09,5.82.11,8.74v1.57H96.63c-.36-.4-.2-.88-.2-1.32,0-2.33,0-4.67,0-7s-1-3.59-3-3.66a3.48,3.48,0,0,0-3.82,3.56c-.09,2.33,0,4.67,0,7A2.76,2.76,0,0,1,89.38,70.53Z" style="fill:#2598d4"/><path d="M115.5,54.85h4.56V60c0,1.29,0,2.58,0,3.87a2.82,2.82,0,0,0,2.56,2.9,3.34,3.34,0,0,0,3.8-2.14,6.3,6.3,0,0,0,.36-2.32c0-2.45,0-4.9,0-7.44h4.51V70.54h-4.1c-.29-.43-.07-.92-.21-1.36-.21-.18-.39,0-.53.11a6.94,6.94,0,0,1-5.75,1.42,5.68,5.68,0,0,1-5.19-5.66C115.32,61.71,115.5,58.33,115.5,54.85Z" style="fill:#2598d4"/><path d="M161,64H149.37c.19,3.18,4.55,4.06,8.11,1.72.57.21.87.74,1.26,1.15a4.82,4.82,0,0,1,1.14,1.4,4.7,4.7,0,0,1-2.21,1.7,10.52,10.52,0,0,1-9.28-.42c-3-1.64-4.34-4.74-3.79-8.41a7.91,7.91,0,0,1,6-6.34c4.39-1.06,8.49.87,10,4.75A8.26,8.26,0,0,1,161,64Zm-4.4-2.8A3.49,3.49,0,0,0,152.78,58a3.35,3.35,0,0,0-3.52,3.18Z" style="fill:#2598d4"/><path d="M79.51,65.67a18.39,18.39,0,0,1,2.32,2.46c0,.52-.45.73-.76,1-3.25,2.65-9.7,2.16-12.52-1a7.82,7.82,0,0,1-1.48-8.62c1.26-3.18,3.86-4.73,7.19-5,5.58-.39,9.59,3.92,8.65,9.42H71.29a2.6,2.6,0,0,0,1.56,2.41A5.8,5.8,0,0,0,79.51,65.67Zm-1-4.45A3.48,3.48,0,0,0,74.78,58a3.36,3.36,0,0,0-3.53,3.19Z" style="fill:#2598d4"/><path d="M109.12,51.38V55c1.3.36,2.57,0,3.86.26a17.21,17.21,0,0,1,0,3.45h-3.88a64,64,0,0,0,.09,6.95c.12,1.1.9,1.57,2.1,1.46a14.51,14.51,0,0,0,1.67-.36l1.18,3.09a7.52,7.52,0,0,1-6.65.46,4.51,4.51,0,0,1-2.94-4.41c-.09-2.32,0-4.65,0-6.91-.84-.42-1.57-.11-2.36-.33V55.2l2.12-.14c.37-1.2,0-2.43.27-3.68Z" style="fill:#2598d4"/><path d="M144.22,58.68c-4.26.32-5.14,1.28-5.14,5.44,0,2,0,4.07,0,6.11a2,2,0,0,1-.12.31h-4.4V54.85h4.25l.12,1.69a7.18,7.18,0,0,1,5.31-1.95Z" style="fill:#2598d4"/><path d="M67.4,82v-8.2a20.75,20.75,0,0,1,4.6.12,2.68,2.68,0,0,1,2.31,2.7,2.81,2.81,0,0,1-2.21,2.92,11.34,11.34,0,0,1-3,.29c0,.71-.09,1.51-.13,2.19C68.47,82,68.13,82,67.4,82ZM69,75.17a27.58,27.58,0,0,0,.07,3.12,7.89,7.89,0,0,0,2.42-.05,1.41,1.41,0,0,0,1.28-1.46,1.47,1.47,0,0,0-1.18-1.56A5.91,5.91,0,0,0,69,75.17Z" style="fill:#fea43e"/><path d="M173.24,75a2.25,2.25,0,0,1-.84.84c-2.12-1.07-3.62-1-4.61.24a3.13,3.13,0,0,0,0,3.61c1,1.27,2.42,1.36,4.5.26a1.31,1.31,0,0,1,.88.77c-1.35,1.79-4.34,2-6.21.36a4.35,4.35,0,0,1-.33-6.06A4.58,4.58,0,0,1,173.24,75Z" style="fill:#fea43e"/><path d="M158.23,82a2.88,2.88,0,0,1-1.62.07c-1.17-2.65-2.36-5.37-3.56-8.12a2.83,2.83,0,0,1,1.7,0L157.43,80l2.74-6.12a2.27,2.27,0,0,1,1.48,0C160.65,76.69,159.31,79.32,158.23,82Z" style="fill:#fea43e"/><path d="M85.17,79.46H80.54c.61,1.53,1.71,1.75,3.41.84a1.19,1.19,0,0,1,.77.7c0,.59-1.22,1.17-2.41,1.17a3.31,3.31,0,0,1-3.56-3.35,3.24,3.24,0,0,1,3.43-3.19C84.19,75.73,85.35,77.11,85.17,79.46Zm-1.43-1.17A1.6,1.6,0,0,0,82,76.89a1.55,1.55,0,0,0-1.58,1.51A18.15,18.15,0,0,0,83.74,78.29Z" style="fill:#fea43e"/><path d="M125.8,81.13a3.65,3.65,0,0,1-4.55.46,3.27,3.27,0,0,1,2.88-5.81c1.52.43,2.28,1.67,2.1,3.65h-4.67c.64,1.54,1.61,1.73,3.57.88A1.28,1.28,0,0,1,125.8,81.13Zm-4.41-2.78c1.52,0,2.11,0,3.46,0a1.62,1.62,0,0,0-1.57-1.43A1.71,1.71,0,0,0,121.39,78.35Z" style="fill:#fea43e"/><path d="M93.19,75.62a3.28,3.28,0,1,1-3.44,3.21A3.27,3.27,0,0,1,93.19,75.62ZM95,78.93a1.86,1.86,0,0,0-1.83-2,1.77,1.77,0,0,0-1.86,1.89,1.73,1.73,0,0,0,1.79,1.94A1.83,1.83,0,0,0,95,78.93Z" style="fill:#fea43e"/><path d="M136.81,81.43a1.4,1.4,0,0,1,.53-1.07,4.15,4.15,0,0,0,3.18.32c.29-.71-.09-.9-.59-1s-1.15-.21-1.71-.37a1.65,1.65,0,0,1-1.36-1.57A1.71,1.71,0,0,1,138,76a4.52,4.52,0,0,1,3.9.17c0,.5-.25.75-.42,1.07-1.07-.11-2.76-1.07-3.06.25-.13.59.52.68.89.76s.49.07.74.12c1.56.31,2.26.93,2.2,1.91s-1,1.74-2.42,1.89A4.77,4.77,0,0,1,136.81,81.43Z" style="fill:#fea43e"/><path d="M114.72,81.94a1.64,1.64,0,0,1-1.32-.08v-8.4c.4-.31.81-.2,1.32-.12Z" style="fill:#fea43e"/><path d="M130.91,76.9v-3c.37-.26.74-.12,1.15-.13v3A.88.88,0,0,1,130.91,76.9Z" style="fill:#fea43e"/></svg>