<svg width="159" height="41" viewBox="0 0 159 41" fill="none" xmlns="http://www.w3.org/2000/svg">
<path d="M61.5132 34.9178C60.2755 34.9178 59.8762 33.7127 59.8762 32.5585C59.8762 31.4042 60.2755 30.1991 61.5132 30.1991C62.6094 30.1991 62.849 31.1501 62.8961 31.4623H65.4732C65.2446 29.3062 63.9451 28.0685 61.5858 28.0576C58.9361 28.0576 57.2266 29.8507 57.2266 32.5585C57.2266 35.0992 58.8018 37.0593 61.5858 37.0593C64.1012 37.0593 65.5095 35.219 65.5095 33.484H62.9107C62.751 34.2898 62.4025 34.9178 61.5132 34.9178Z" fill="white"/>
<path d="M76.9317 28.2607L73.7666 36.8559H76.4272L76.8119 35.629H79.5451L79.9044 36.8559H82.6485L79.5197 28.2607H76.9317ZM77.389 33.7852L78.2202 31.1355H78.2456L79.0151 33.7852H77.389Z" fill="white"/>
<path d="M95.9443 28.2607H91.5161V36.8559H94.1658V34.257H95.7302C97.7047 34.257 99.0986 33.2842 99.0986 31.2008C99.0949 29.9703 98.2782 28.2607 95.9443 28.2607ZM95.1857 32.2099H94.1622V30.464H95.3418C95.9915 30.464 96.5941 30.5111 96.5941 31.2952C96.5941 32.159 95.8717 32.2099 95.1857 32.2099Z" fill="white"/>
<path d="M110.807 28.2607H108.158V36.8559H110.807V28.2607Z" fill="white"/>
<path d="M119.835 30.464H122.241V36.8559H124.891V30.464H127.298V28.2607H119.835V30.464Z" fill="white"/>
<path d="M137.965 28.2607L134.8 36.8559H137.461L137.846 35.629H140.579L140.942 36.8559H143.686L140.557 28.2607H137.965ZM138.423 33.7852L139.254 31.1355H139.279L140.049 33.7852H138.423Z" fill="white"/>
<path d="M155.196 34.6526V28.2607H152.546V36.8559H159V34.6526H155.196Z" fill="white"/>
<path d="M71.1613 17.2009C73.4662 16.0467 74.7293 13.8834 74.7293 10.878C74.7293 6.4933 71.7493 4.02148 66.5516 4.02148H57.7568V23.6908H62.7586V18.1555H66.5516H66.6931L69.6151 23.6908H75.2919L71.1613 17.2009ZM66.5516 14.2209H62.7586V7.95607H66.5516C68.7149 7.95607 69.978 8.99417 69.978 11.045C69.9817 13.1248 68.7185 14.2209 66.5516 14.2209Z" fill="white"/>
<path d="M89.131 12.7109H81.7119V16.6092H89.131V12.7109Z" fill="white"/>
<path d="M103.89 3.76758C99.4512 3.76758 96.5293 6.40999 96.5293 10.566C96.5293 14.3881 99.0011 16.918 102.881 16.918C105.074 16.918 106.645 16.1303 107.574 14.8091C107.629 18.0395 106.112 20.0359 102.965 20.0359C101.448 20.0359 99.9594 19.5858 98.8342 18.7727L96.9249 22.2573C98.5837 23.2699 101.085 23.887 103.277 23.887C108.812 23.887 112.38 19.8108 112.38 13.546C112.377 7.50617 109.175 3.76758 103.89 3.76758ZM104.003 13.2665C102.206 13.2665 101.164 12.2829 101.164 10.5987C101.164 8.77293 102.29 7.76025 104.086 7.76025C106.112 7.76025 107.037 9.0524 107.037 10.5152C107.037 12.1122 105.941 13.2665 104.003 13.2665Z" fill="white"/>
<path d="M129.334 12.1411L128.408 11.9995L133.326 6.8853V4.04688H120.343V7.86895H127.508L123.123 12.4206V15.0921H126.27C128.238 15.0921 129.334 15.9051 129.334 17.5639C129.334 19.1646 128.267 20.1192 126.299 20.1192C124.528 20.1192 122.844 19.3061 121.381 17.7308L119.359 21.5239C121.156 22.9576 123.995 23.9122 126.695 23.9122C131.276 23.9122 134.227 21.2698 134.227 17.5058C134.227 14.475 132.201 12.5912 129.334 12.1411Z" fill="white"/>
<path d="M158.819 13.825C158.819 7.41857 155.697 3.85059 150.136 3.85059C144.518 3.85059 141.396 7.41857 141.396 13.825C141.396 20.2604 144.514 23.8284 150.136 23.8284C155.697 23.8321 158.819 20.2604 158.819 13.825ZM150.136 20.177C147.606 20.177 146.539 18.3222 146.539 13.825C146.539 9.32779 147.606 7.50206 150.136 7.50206C152.608 7.50206 153.704 9.32779 153.704 13.825C153.704 18.3222 152.608 20.177 150.136 20.177Z" fill="white"/>
<path d="M40.8265 20.4133C40.8265 26.8451 37.8574 32.5801 33.2114 36.3186C32.0027 37.295 30.6851 38.1335 29.2695 38.8159V2.01074C36.1079 5.31014 40.8265 12.3118 40.8265 20.4133Z" fill="url(#paint0_linear_426_2458)"/>
<path d="M26.0784 0.798562V40.0283C24.2817 40.551 22.3762 40.8305 20.4125 40.8305C19.8317 40.8305 19.2474 40.8051 18.6775 40.7579C17.2438 40.6345 15.8536 40.3695 14.5215 39.963V0.863905C16.3871 0.301302 18.3653 3.49123e-05 20.4125 3.49123e-05C22.3798 -0.00359479 24.2817 0.275885 26.0784 0.798562Z" fill="url(#paint1_linear_426_2458)"/>
<path d="M11.557 2.01074V38.8159C4.71498 35.5165 2.09259e-06 28.5148 2.09259e-06 20.4133C-0.0036276 12.3118 4.71498 5.31014 11.557 2.01074Z" fill="url(#paint2_linear_426_2458)"/>
<path d="M33.2085 12.1706V36.3154C31.9998 37.2917 30.6822 38.1302 29.2666 38.8126V12.167H33.2085V12.1706Z" fill="#396796"/>
<path d="M18.6775 19.3975V40.7582C17.2438 40.6348 15.8536 40.3698 14.5215 39.9633V19.3975H18.6775Z" fill="#396796"/>
<defs>
<linearGradient id="paint0_linear_426_2458" x1="12.6526" y1="-20.015" x2="34.194" y2="25.5158" gradientUnits="userSpaceOnUse">
<stop offset="0.2279" stop-color="#306AAD"/>
<stop offset="0.3688" stop-color="#3382B8"/>
<stop offset="0.6504" stop-color="#38ADCD"/>
<stop offset="0.8703" stop-color="#3BC8D9"/>
<stop offset="1" stop-color="#3CD2DE"/>
</linearGradient>
<linearGradient id="paint1_linear_426_2458" x1="-7.25132" y1="-37.8525" x2="22.7687" y2="25.5989" gradientUnits="userSpaceOnUse">
<stop offset="0.2279" stop-color="#306AAD"/>
<stop offset="0.3688" stop-color="#3382B8"/>
<stop offset="0.6504" stop-color="#38ADCD"/>
<stop offset="0.8703" stop-color="#3BC8D9"/>
<stop offset="1" stop-color="#3CD2DE"/>
</linearGradient>
<linearGradient id="paint2_linear_426_2458" x1="-22.5027" y1="-40.025" x2="10.0527" y2="21.8682" gradientUnits="userSpaceOnUse">
<stop offset="0.2279" stop-color="#306AAD"/>
<stop offset="0.3688" stop-color="#3382B8"/>
<stop offset="0.6504" stop-color="#38ADCD"/>
<stop offset="0.8703" stop-color="#3BC8D9"/>
<stop offset="1" stop-color="#3CD2DE"/>
</linearGradient>
</defs>
</svg>
