<svg width="174" height="55" viewBox="0 0 174 55" fill="none" xmlns="http://www.w3.org/2000/svg">
<path fill-rule="evenodd" clip-rule="evenodd" d="M105.616 35.3595L105.685 38.1359L108.223 38.2065L110.761 38.2768L110.685 39.1937L110.609 40.1103L108.086 40.1806L105.562 40.251V45.5309C105.562 51.8267 105.459 51.5863 108.165 51.5863H109.994V52.5952V53.6044L107.264 53.5207C104.624 53.44 104.514 53.4146 103.94 52.7448C103.349 52.0548 103.347 52.032 103.347 46.1519V40.2515L100.947 40.1809L98.5463 40.1103L98.4704 39.1939L98.3946 38.2776L100.809 38.2068L103.224 38.1359L103.347 35.7089C103.479 33.0976 103.749 32.583 104.986 32.583C105.532 32.583 105.548 32.6558 105.616 35.3595ZM74.0514 38.5308C75.5622 38.9792 77.5196 40.943 78.07 42.5627C78.297 43.2303 78.4826 44.4788 78.4826 45.337V46.8972H72.3282H66.1737V47.4658C66.1737 48.3252 67.313 50.439 68.0798 51.0027C70.3031 52.6362 73.6881 52.3534 75.3306 50.3965C75.6843 49.975 76.0206 49.4895 76.0777 49.3175C76.157 49.0791 76.4261 49.1152 77.2092 49.4693C77.7742 49.7247 78.2365 49.978 78.2365 50.032C78.2365 50.3829 77.4118 51.5848 76.7188 52.2435C75.1848 53.7019 73.9246 54.1769 71.5896 54.1772C69.8009 54.1777 69.2955 54.0785 68.1082 53.4941C65.2653 52.0942 63.7119 49.456 63.7119 46.0267C63.7119 40.209 68.358 36.8407 74.0514 38.5308ZM92.039 38.286C93.519 38.6041 94.9675 39.7774 95.7937 41.3275C96.2908 42.2601 96.3346 42.7384 96.4112 48.0695L96.4934 53.8075H95.2556H94.0178L93.9432 48.1487C93.8735 42.8443 93.8364 42.446 93.3507 41.7937C92.4935 40.6419 91.4391 40.172 89.7111 40.172C88.0484 40.172 87.3702 40.4215 86.2769 41.4361C84.8597 42.751 84.7706 43.1419 84.6371 48.6248L84.514 53.6841L83.3447 53.7594L82.1753 53.8346V46.047V38.2593H83.2831H84.3909V39.6167C84.3909 40.3633 84.4402 40.9741 84.5005 40.9741C84.5608 40.9741 85.0918 40.463 85.6804 39.8383C87.2235 38.2011 89.2936 37.6956 92.039 38.286ZM153.569 38.7773C155.987 39.8201 157.506 42.3929 157.506 45.4448V46.8972H151.319H145.133L145.267 47.9024C145.432 49.1327 146.458 50.6717 147.576 51.3645C148.756 52.0952 151.042 52.2658 152.447 51.7277C153.456 51.3413 154.843 50.0939 155.09 49.3499C155.169 49.1144 155.443 49.1499 156.227 49.4967C156.795 49.7482 157.26 50.0347 157.26 50.1339C157.26 50.5244 155.592 52.476 154.803 53.0091C151.897 54.9729 147.587 54.5434 145.032 52.0355C141.45 48.5206 141.93 41.9978 145.969 39.3188C148.064 37.9289 151.101 37.7127 153.569 38.7773ZM169.57 38.537C170.982 39.0197 172.523 40.2157 173.285 41.4203C173.678 42.0425 174 42.6232 174 42.7108C174 42.871 172.316 43.442 171.844 43.442C171.705 43.442 171.526 43.1787 171.445 42.8566C171.238 42.0299 169.532 40.5619 168.417 40.2515C165.286 39.3798 162.113 40.8749 162.82 42.889C163.188 43.9381 164.399 44.5783 166.666 44.9213C169.02 45.2775 171.899 46.2072 172.59 46.8345C173.863 47.9893 174.119 50.0624 173.191 51.704C172.788 52.4188 172.241 52.8887 171.181 53.4316C169.854 54.112 169.519 54.1767 167.37 54.1658C165.334 54.1555 164.81 54.0605 163.507 53.4672C161.8 52.69 160.417 51.3983 159.862 50.0651L159.487 49.1611L160.599 48.781L161.712 48.4009L161.954 49.0387C162.916 51.5755 166.096 52.8716 169.165 51.9772C170.808 51.4985 171.36 50.8269 171.247 49.4456C171.18 48.6334 171.042 48.4389 170.257 48.0547C169.756 47.8089 168.261 47.3965 166.934 47.1383C165.607 46.8799 164.135 46.5418 163.661 46.3871C162.328 45.9515 161.028 44.9638 160.602 44.0625C159.465 41.6617 160.963 39.2371 164.141 38.3329C165.404 37.9733 168.233 38.0797 169.57 38.537ZM116.439 43.7505C116.51 48.7415 116.563 49.3205 117.018 50.1055C117.699 51.2805 118.883 51.8336 120.702 51.8272C122.655 51.8208 123.953 51.2102 124.888 49.8585L125.626 48.7923L125.749 43.5874L125.872 38.3827L127.042 38.3074L128.211 38.2322V46.0341V53.8359L127.165 53.7599L126.118 53.6841L126.044 52.3884C126.003 51.6759 125.892 51.093 125.798 51.0935C125.703 51.0937 125.406 51.4237 125.136 51.8267C124.867 52.2295 124.138 52.8368 123.516 53.1764C120.946 54.5785 117.615 54.1557 115.729 52.1883C114.154 50.5448 113.932 49.4804 113.932 43.5617C113.932 40.8265 114.006 38.5143 114.097 38.4239C114.187 38.3334 114.733 38.2593 115.311 38.2593H116.361L116.439 43.7505ZM141.505 39.2465V40.2337H138.817C137.338 40.2337 135.954 40.3011 135.74 40.3835C135.398 40.515 135.35 41.346 135.35 47.1704V53.8075H134.105H132.86L132.936 46.7533L133.011 39.6989L133.815 38.9792L134.619 38.2593H138.062H141.505V39.2465ZM49.6373 39.1848C49.7823 39.558 50.6907 42.0291 51.6557 44.676C52.621 47.3229 53.5833 49.9607 53.7943 50.5374C54.0053 51.1142 54.2542 51.5863 54.3475 51.5863C54.4408 51.5863 54.9358 50.4479 55.4476 49.0567C55.9594 47.6655 57.0449 44.7224 57.8597 42.5166L59.341 38.5061H60.5418C61.3961 38.5061 61.7425 38.6038 61.7425 38.8452C61.7425 39.0318 61.3742 40.1147 60.9239 41.2515C59.6819 44.3875 56.6512 52.249 56.2497 53.3756C56.1234 53.73 55.7923 53.8075 54.4021 53.8075H52.7086L52.3123 52.882C51.4004 50.7519 46.9717 39.0777 46.9717 38.804C46.9717 38.612 47.3988 38.5061 48.1728 38.5061C49.255 38.5061 49.3998 38.5732 49.6373 39.1848ZM69.0047 40.6219C67.8905 41.2026 67.1431 41.9768 66.639 43.0718C65.7502 45.002 65.5595 44.9228 71.0973 44.9228H76.0209V44.3219C76.0209 42.8756 74.8407 41.1992 73.3823 40.5735C72.3171 40.1165 69.9232 40.1429 69.0047 40.6219ZM148.028 40.5844C146.601 41.2251 145.197 43.1392 145.197 44.4453C145.197 44.9016 145.417 44.9228 150.121 44.9228H155.044V44.3219C155.044 42.8756 153.864 41.1992 152.406 40.5735C151.405 40.1441 148.996 40.15 148.028 40.5844Z" fill="#AEACCB"/>
<path fill-rule="evenodd" clip-rule="evenodd" d="M102.912 5.66239C102.649 5.92646 102.367 6.50939 102.287 6.95807C102.207 7.40675 102.173 11.9942 102.212 17.1522L102.283 26.5305L103.944 26.6036L105.606 26.6764V15.9296V5.18262H104.498C103.729 5.18262 103.244 5.32946 102.912 5.66239ZM53.1123 11.854C52.4925 12.2654 51.8039 12.8799 51.5821 13.2193C51.0353 14.0559 50.7081 13.7677 50.7081 12.4486V11.3525H49.108H47.5078V22.0882V32.8238H48.5691C49.297 32.8238 49.8 32.6656 50.1693 32.3206C50.6771 31.8462 50.7081 31.6056 50.7081 28.1251C50.7081 25.7487 50.7987 24.4327 50.9624 24.4327C51.1025 24.4327 51.617 24.8338 52.106 25.3242C53.3098 26.5307 54.3107 26.9007 56.3722 26.9007C59.1179 26.9007 60.995 25.7092 62.3532 23.1042C63.0929 21.6854 63.1402 21.4386 63.1402 19.0032C63.1402 16.5678 63.0929 16.321 62.3532 14.9022C60.9586 12.2277 59.1331 11.1057 56.176 11.1057C54.4311 11.1057 54.1273 11.18 53.1123 11.854ZM70.0081 11.6968C66.7686 13.2089 65.0513 16.7591 65.7337 20.5324C66.2344 23.3004 67.6445 25.2062 70.0081 26.3096C70.9938 26.7696 71.6819 26.8965 73.205 26.8982C75.6156 26.9012 76.6729 26.5922 78.1951 25.4404C79.0518 24.7921 79.6308 24.0603 80.2497 22.8441C81.0367 21.2974 81.1113 20.967 81.1113 19.0281C81.1113 17.2581 81.0054 16.6799 80.4737 15.5481C79.5677 13.6198 78.7241 12.724 77.0001 11.8604C75.6688 11.1936 75.2476 11.106 73.3788 11.1082C71.6725 11.1102 71.0214 11.2237 70.0081 11.6968ZM88.4514 11.433C88.0203 11.5924 87.1895 12.0631 86.605 12.4789C82.4318 15.4486 82.4318 22.5578 86.605 25.5275C88.1432 26.6221 88.9812 26.8615 91.3277 26.8765C93.8471 26.8926 94.9394 26.471 96.7314 24.7906C98.3414 23.2809 99.026 21.5543 99.026 19.0032C99.026 16.4521 98.3414 14.7255 96.7314 13.2158C94.9394 11.5354 93.8471 11.1139 91.3277 11.1299C90.1769 11.1373 88.8824 11.2735 88.4514 11.433ZM109.217 11.5171C109.127 11.6075 109.053 12.2183 109.053 12.8745V14.0673H113.443C115.858 14.0673 117.903 14.1371 117.988 14.2225C118.073 14.3079 117.344 15.2396 116.367 16.2929C115.391 17.3462 113.339 19.5553 111.809 21.2022L109.026 24.1961L109.101 25.3632L109.176 26.5305L115.884 26.5961L122.593 26.6618V26.0246C122.593 25.3338 122.188 24.4177 121.756 24.1279C121.607 24.0282 119.74 23.9451 117.607 23.9428C115.475 23.9409 113.73 23.8414 113.73 23.7217C113.73 23.6023 115.724 21.3586 118.161 18.7359L122.593 13.9673V12.6601V11.3525H115.987C112.353 11.3525 109.307 11.4266 109.217 11.5171ZM57.1822 14.1539C59.0581 14.9397 60.2328 17.2547 59.9852 19.6775C59.5822 23.6213 55.5475 25.5149 52.5631 23.1615C50.4088 21.4628 50.2896 16.8726 52.3509 15.0036C53.5655 13.9027 55.6901 13.529 57.1822 14.1539ZM75.8751 14.7067C78.2514 16.247 78.6246 20.4694 76.5895 22.792C75.8844 23.5968 74.7564 24.0189 73.3077 24.0201C71.5531 24.0218 70.1706 23.1899 69.3781 21.656C68.6433 20.2328 68.6423 17.8124 69.3762 16.3701C70.6004 13.9646 73.561 13.2067 75.8751 14.7067ZM92.4033 14.0848C93.6219 14.3926 94.9333 15.5259 95.4187 16.6905C95.8934 17.8292 95.8417 20.4018 95.3218 21.5198C94.0219 24.3148 90.3009 24.9421 88.1018 22.7375C85.5593 20.1886 86.4982 15.3482 89.7613 14.182C90.9361 13.7622 91.101 13.7561 92.4033 14.0848Z" fill="white"/>
<path fill-rule="evenodd" clip-rule="evenodd" d="M11.3593 2.77978C8.45072 4.48956 4.70503 6.63885 3.03549 7.55639L0 9.22492L0.0975399 19.3803L0.19508 29.5356L8.22547 34.1983C12.6422 36.7628 16.4259 38.8653 16.6339 38.8704C16.8415 38.8755 20.7639 36.729 25.3498 34.1001L33.6877 29.3204V19.4242V9.52814L25.9511 5.08108C21.6962 2.63485 17.8619 0.417209 17.431 0.152475C16.7444 -0.269371 15.9934 0.0558508 11.3593 2.77978ZM15.6683 10.1644C15.6683 13.7882 15.5664 16.8555 15.4419 16.9804C15.2029 17.22 3.52476 10.5839 3.52476 10.2084C3.52476 9.8573 15.0509 3.25937 15.3745 3.42512C15.5363 3.508 15.6683 6.54066 15.6683 10.1644ZM25.5594 7.53989C27.8753 8.88084 29.7704 10.0992 29.7704 10.2473C29.7704 10.3954 27.5231 11.8004 24.7759 13.3688C22.0287 14.9375 19.3846 16.4788 18.9 16.7942L18.0186 17.3673V10.2297V3.09244L19.6835 4.09717C20.5989 4.64981 23.2431 6.19933 25.5594 7.53989ZM31.3373 19.4372C31.3373 23.2177 31.2445 26.3109 31.1313 26.3109C30.4916 26.3109 19.2193 19.4553 19.4743 19.2212C20.011 18.7286 30.7137 12.5636 31.0322 12.5636C31.1998 12.5636 31.3373 15.6567 31.3373 19.4372ZM9.28 16.4537C11.8239 17.945 13.8522 19.3147 13.7876 19.4977C13.7226 19.6803 12.6563 20.4007 11.4177 21.0983L9.16601 22.3662L7.64219 19.7235C4.83116 14.8488 4.24005 13.7419 4.44806 13.7419C4.56166 13.7419 6.73613 14.9623 9.28 16.4537ZM4.73597 19.2711C6.00869 21.4801 7.0499 23.3933 7.04951 23.5225C7.04873 23.7169 3.42016 25.79 2.28455 26.2453C2.10475 26.3175 1.95785 23.7692 1.95785 20.583C1.95785 17.3963 2.06205 14.8939 2.18975 15.022C2.31745 15.1496 3.46325 17.0621 4.73597 19.2711ZM15.6683 27.2928C15.6683 30.4252 15.5903 32.9881 15.4951 32.9881C15.2468 32.9881 10.8853 25.499 10.7063 24.7649C10.6052 24.3509 11.2939 23.744 12.8185 22.9031C14.0626 22.2169 15.2127 21.6423 15.3745 21.6266C15.5363 21.6105 15.6683 24.1604 15.6683 27.2928ZM24.1883 25.1188C27.2587 26.8989 29.7673 28.4696 29.7634 28.6094C29.7563 28.8683 18.6912 35.3448 18.2564 35.3448C18.1256 35.3448 18.0186 32.2411 18.0186 28.448C18.0186 24.6549 18.1507 21.6258 18.3124 21.7169C18.4742 21.808 21.118 23.3391 24.1883 25.1188ZM10.8947 30.0423C12.2038 32.3106 13.1894 34.1665 13.0845 34.1665C12.6708 34.1665 3.54121 28.8474 3.53337 28.602C3.52241 28.2716 7.48472 25.9385 8.07623 25.9267C8.31714 25.922 9.58555 27.774 10.8947 30.0423Z" fill="url(#paint0_linear_426_2433)"/>
<defs>
<linearGradient id="paint0_linear_426_2433" x1="33.6877" y1="17.2757" x2="-3.34293e-07" y2="19.8671" gradientUnits="userSpaceOnUse">
<stop stop-color="#F36FB2"/>
<stop offset="0.534507" stop-color="#9059DC"/>
<stop offset="0.757138" stop-color="#4E80E7"/>
<stop offset="1" stop-color="#16B1DC"/>
</linearGradient>
</defs>
</svg>
