<svg width="189" height="63" viewBox="0 0 189 63" fill="none" xmlns="http://www.w3.org/2000/svg">
<path d="M22.5396 28.311L22.04 27.8095C21.6631 27.433 21.0148 27.6997 21.0148 28.2339V35.3962C21.0148 35.7273 21.2858 35.9961 21.6178 35.9961H28.7814C29.3151 35.9961 29.5849 35.349 29.2047 34.972C29.0925 34.8595 29.0295 34.7071 29.0295 34.5482C29.0295 34.3893 29.0925 34.2368 29.2047 34.1243L36.8247 26.4836C37.0586 26.25 37.0586 25.8707 36.8247 25.6354L36.1306 24.9439C35.7534 24.5673 36.0223 23.9202 36.5549 23.9202H43.7146C44.0456 23.9202 44.3163 24.189 44.3163 24.5201V31.6828C44.3163 32.2164 43.6663 32.4843 43.2891 32.1071L42.8056 31.6246C42.5686 31.3839 42.1914 31.3839 41.9589 31.6246L29.1131 44.4649C28.8797 44.6977 28.5003 44.6977 28.2637 44.4649L12.5472 28.7477C12.4911 28.692 12.4465 28.6257 12.4161 28.5527C12.3857 28.4797 12.37 28.4014 12.37 28.3223C12.37 28.2432 12.3857 28.1649 12.4161 28.0919C12.4465 28.0188 12.4911 27.9526 12.5472 27.8969L34.3046 6.14006C34.5374 5.90593 34.5374 5.52386 34.3046 5.29053L29.1886 0.174822C29.0756 0.0628317 28.9229 0 28.7638 0C28.6047 0 28.452 0.0628317 28.339 0.174822L0.175078 28.3419C-0.0583592 28.5761 -0.0583592 28.9582 0.175078 29.1914L28.339 57.3554C28.5726 57.5881 28.9558 57.5881 29.1886 57.3554L57.3515 29.1914C57.5841 28.9573 57.5841 28.5772 57.3515 28.3437L40.7823 11.7743C40.5506 11.5412 40.1694 11.5412 39.9346 11.7743L23.3903 28.3113C23.3346 28.3674 23.2683 28.412 23.1953 28.4424C23.1224 28.4729 23.0441 28.4885 22.965 28.4885C22.8859 28.4885 22.8076 28.4729 22.7346 28.4424C22.6616 28.412 22.5954 28.3674 22.5397 28.3113L22.5396 28.311ZM152.545 35.4374C151.819 35.4374 151.193 35.6976 150.667 36.2208C150.149 36.7444 149.884 37.3625 149.884 38.0782C149.884 39.1694 150.438 40.0181 151.537 40.6245C152.743 40.9537 153.712 40.7395 154.441 39.9933C154.968 39.4664 155.228 38.8348 155.228 38.0988C155.228 37.3539 154.968 36.7311 154.441 36.221C153.918 35.7011 153.29 35.4413 152.543 35.4413L152.545 35.4381V35.4374ZM109.747 15.1926H107.762C106.904 15.1926 106.206 15.8849 106.206 16.7426V17.8502C104.094 15.6535 101.702 14.5545 99.0312 14.5545C95.9463 14.5545 93.3723 15.7025 91.3199 17.9921C89.2617 20.2817 88.2367 23.1437 88.2367 26.5799C88.2367 30.0749 89.2617 32.9927 91.314 35.3312C93.389 37.622 96.0055 38.767 99.1748 38.767C101.681 38.767 104.027 37.7437 106.207 35.7022V37.8921C106.207 38.9558 107.071 39.8204 108.133 39.8204H111.524V16.9673C111.524 15.9896 110.727 15.1926 109.747 15.1926ZM104.729 32.0116C103.521 33.361 101.939 34.0346 99.9766 34.0346C98.1386 34.0346 96.6161 33.3371 95.412 31.9423C94.2329 30.5643 93.645 28.7713 93.645 26.5764C93.645 24.5233 94.25 22.794 95.457 21.3998C96.6797 20.0182 98.2014 19.3313 100.022 19.3313C101.952 19.3313 103.518 20.0119 104.726 21.3827C105.935 22.7774 106.539 24.5469 106.539 26.6964C106.539 28.846 105.935 30.6154 104.726 32.0135L104.729 32.0118L104.729 32.0116ZM88.2349 19.0594V16.7935C88.2349 15.909 87.519 15.1965 86.6341 15.1965H84.5414C83.6598 15.1965 82.9425 15.9056 82.9425 16.7935V17.7833C81.0285 15.6323 78.6288 14.5548 75.7428 14.5548C72.4492 14.5548 69.7953 15.7975 67.7891 18.2727C65.9219 20.6063 64.989 23.448 64.989 26.7894C64.989 30.2239 65.995 33.0893 68.0036 35.3771C69.9958 37.6414 72.5516 38.7642 75.6736 38.7642C78.4152 38.7642 80.8402 37.6939 82.9423 35.5441V38.744C82.9423 43.4987 81.0059 45.8761 77.1328 45.8761C75.0301 45.8761 73.4329 45.1603 72.3352 43.7319C72.0552 43.3704 71.8228 42.9181 71.638 42.3777C71.3785 41.6212 70.6592 41.1181 69.8622 41.1181H67.8561C66.8445 41.1181 66.0927 42.0805 66.3485 43.0598C66.8972 45.1432 67.9566 46.8385 69.5339 48.1504C71.5099 49.7988 74.029 50.6246 77.0855 50.6246C80.7081 50.6246 83.5555 49.4291 85.6275 47.0482C86.7252 45.8089 87.4595 44.3264 87.837 42.6009C87.9629 41.9761 88.0614 41.2487 88.1307 40.4229C88.1999 39.6022 88.2342 38.6497 88.2342 37.5659V34.2363C86.7529 32.1002 86.0074 29.5489 86.0074 26.5774C86.0074 23.6578 86.7514 21.1572 88.2342 19.0618V19.0601L88.2349 19.0594ZM81.5299 31.831C80.354 33.3 78.7566 34.0343 76.7304 34.0343C74.7069 34.0343 73.1231 33.3046 71.9759 31.8444C70.9272 30.514 70.4019 28.8016 70.4019 26.7182C70.4019 24.5991 70.9269 22.8735 71.9759 21.5415C73.1394 20.0538 74.7214 19.3095 76.7304 19.3095C78.6116 19.3095 80.1573 19.9913 81.3636 21.3541C82.5562 22.6864 83.1547 24.4664 83.1547 26.6968C83.1547 28.782 82.6119 30.4907 81.5296 31.8279V31.8315L81.5299 31.831ZM132.241 15.2095V15.1927H121.262V8.47075C121.262 7.60638 120.564 6.90561 119.697 6.90561H117.554C116.68 6.90561 115.97 7.61478 115.97 8.4895V15.1928H113.71V20.1299H115.967V39.8176H118.986C119.285 39.8182 119.581 39.7599 119.857 39.6459C120.133 39.5319 120.384 39.3645 120.595 39.1534C120.806 38.9422 120.973 38.6914 121.087 38.4153C121.201 38.1393 121.26 37.8434 121.259 37.5448V20.1332H126.688C127.113 19.3158 127.639 18.5545 128.253 17.867C129.378 16.6413 130.708 15.7531 132.238 15.2095H132.241H132.241ZM159.253 6.90549C158.314 6.90549 157.507 7.24328 156.832 7.91862C156.16 8.59213 155.819 9.39426 155.819 10.3179C155.819 11.2925 156.157 12.1094 156.832 12.7901C157.507 13.4636 158.324 13.7998 159.28 13.7998C160.237 13.7998 161.043 13.4637 161.7 12.7881C162.373 12.1094 162.715 11.2991 162.715 10.3417C162.715 9.38747 162.377 8.57729 161.701 7.92219C161.024 7.24351 160.209 6.90549 159.253 6.90549ZM160.325 17.786H158.405C157.421 17.786 156.619 18.5832 156.619 19.5724V36.3795C157.024 36.8541 157.217 37.413 157.217 38.0629C157.217 38.7129 157.024 39.2785 156.619 39.7565V40.7023H160.026C161.07 40.7023 161.914 39.8562 161.914 38.8109V19.3699C161.914 18.4951 161.202 17.786 160.324 17.786H160.325ZM185.205 21.0316C182.821 18.6962 179.918 17.5277 176.499 17.5277C173.095 17.5277 170.208 18.6862 167.841 21.0112C165.474 23.3311 164.288 26.1476 164.288 29.4569C164.288 32.9691 165.446 35.8869 167.77 38.21C170.093 40.5606 172.973 41.7373 176.404 41.7373C179.869 41.7373 182.795 40.5856 185.181 38.2791C187.545 35.9541 188.734 33.0802 188.734 29.6444C188.734 26.2387 187.557 23.3681 185.205 21.0279V21.0316ZM181.46 35.0087C180.224 36.3442 178.569 37.0045 176.5 37.0045C174.441 37.0045 172.788 36.3342 171.532 34.9816C170.31 33.6512 169.697 31.8345 169.697 29.5482C169.697 27.4173 170.328 25.6748 171.582 24.3273C172.835 22.9799 174.473 22.3027 176.499 22.3027C178.551 22.3027 180.207 22.9799 181.46 24.3273C182.7 25.6578 183.321 27.441 183.321 29.663C183.321 31.8952 182.699 33.6714 181.46 35.0051V35.0087Z" fill="#FF6262"/>
<path d="M134.213 34.0835C133.122 32.9791 132.513 31.473 132.373 29.5921H147.545C148.238 29.5921 148.809 29.0382 148.819 28.3477C148.819 24.5605 147.846 21.6089 145.902 19.4743C143.939 17.327 141.271 16.2529 137.901 16.2529C134.564 16.2529 131.88 17.3605 129.857 19.5693C127.848 21.8148 126.845 24.7458 126.845 28.3694C126.845 32.0236 127.882 34.9579 129.948 37.1668C131.393 38.7031 133.165 39.6991 135.267 40.1636C136.148 40.371 137.064 40.4791 137.987 40.4655C141.757 40.5434 145.035 40.6209 148.803 40.6987L148.809 40.1465C148.347 39.6452 148.116 39.0407 148.116 38.3346C148.116 37.6493 148.358 37.06 148.828 36.5502L148.832 35.8798C145.857 35.8055 138.654 35.7345 138.367 35.7345C136.678 35.7345 135.29 35.1892 134.213 34.0868V34.0835H134.213ZM133.477 23.5002C133.81 22.9834 134.203 22.541 134.668 22.173C135.132 21.7998 135.642 21.5211 136.209 21.3254C136.773 21.1295 137.378 21.0314 138.022 21.0314C140.842 21.0314 142.622 22.4414 143.365 25.263H132.726C132.899 24.6059 133.15 24.0184 133.477 23.4999V23.5002Z" fill="#FF6262"/>
<mask id="path-3-outside-1_4041:1898" maskUnits="userSpaceOnUse" x="105.83" y="44.8186" width="44" height="18" fill="black">
<rect fill="white" x="105.83" y="44.8186" width="44" height="18"/>
<path d="M112.981 60.639L112.308 60.5926C112.18 60.5578 112.053 60.5229 111.925 60.4881L111.519 60.3953C111.414 60.3605 111.31 60.3257 111.205 60.2908C111.101 60.256 110.997 60.2212 110.892 60.1864C110.857 60.1516 110.811 60.1167 110.753 60.0819L110.579 59.9775L110.497 59.9311C110.463 59.9078 110.428 59.8846 110.393 59.8498C110.335 59.815 110.3 59.7918 110.289 59.7802C110.289 59.7686 110.277 59.757 110.265 59.7454C110.207 59.7106 110.149 59.6641 110.091 59.5945C110.056 59.5481 110.01 59.5017 109.952 59.4552L109.79 59.316C109.407 58.8982 109.105 58.4339 108.896 57.9233C108.687 57.4126 108.583 56.8672 108.583 56.2753V46.8283C108.583 46.6078 108.501 46.3989 108.327 46.2016C108.142 46.0275 107.933 45.9463 107.712 45.9463C107.492 45.9463 107.283 46.0159 107.085 46.2016C106.911 46.3757 106.83 46.5846 106.83 46.8283V56.4029C106.83 58.0626 107.48 59.4784 108.664 60.6506C109.859 61.8228 111.275 62.3915 112.911 62.3915H112.969C113.202 62.3915 113.399 62.3218 113.573 62.1477C113.747 61.9853 113.84 61.7764 113.84 61.521C113.84 61.2773 113.747 61.08 113.573 60.9175C113.41 60.7551 113.213 60.6622 112.993 60.6506L112.981 60.639Z"/>
<path d="M120.044 60.6738C118.884 60.6738 117.897 60.2676 117.073 59.4436C116.238 58.5964 115.843 57.6099 115.843 56.4726C115.843 55.3468 116.238 54.3371 117.073 53.4899C117.886 52.6659 118.884 52.2713 120.044 52.2713C121.216 52.2713 122.215 52.6775 123.027 53.4899C123.851 54.3371 124.257 55.3352 124.257 56.4842C124.257 57.6331 123.851 58.6196 123.027 59.4436C122.215 60.2676 121.216 60.6738 120.044 60.6738ZM125.975 61.5558V56.4726C125.975 54.8594 125.406 53.4667 124.245 52.2945C123.097 51.1224 121.681 50.5537 120.044 50.5537C118.408 50.5537 117.015 51.1224 115.855 52.2945C114.694 53.4667 114.125 54.8594 114.125 56.4726C114.125 58.0858 114.694 59.4784 115.855 60.6506C117.015 61.8112 118.408 62.3915 120.044 62.3915C120.613 62.3915 121.147 62.3218 121.657 62.1709C122.168 62.0201 122.656 61.7996 123.12 61.5094C123.282 61.405 123.468 61.2773 123.677 61.1148C123.886 60.9524 124.071 60.7899 124.234 60.639V61.5326C124.234 61.7764 124.315 61.9853 124.466 62.1593C124.64 62.3102 124.849 62.3915 125.104 62.3915C125.336 62.3915 125.534 62.3102 125.708 62.1361C125.87 61.9737 125.952 61.7764 125.952 61.5326L125.975 61.5558Z"/>
<path d="M132.841 60.6854C131.668 60.6854 130.67 60.2676 129.846 59.4436C129.022 58.608 128.628 57.6099 128.628 56.4378C128.628 55.2656 129.034 54.2675 129.846 53.4435C130.67 52.6195 131.668 52.2017 132.841 52.2017C133.421 52.2017 133.966 52.3062 134.477 52.5151C134.988 52.724 135.452 53.0373 135.87 53.4551C136.694 54.2791 137.1 55.2772 137.1 56.461C137.1 57.6331 136.694 58.6312 135.87 59.4552C135.046 60.2792 134.036 60.697 132.841 60.697V60.6854ZM132.841 50.4725C132.307 50.4725 131.785 50.5421 131.262 50.693C130.74 50.8438 130.241 51.0411 129.765 51.3197C129.568 51.4357 129.371 51.5866 129.173 51.7375C128.976 51.8884 128.79 52.0508 128.616 52.2249V46.689C128.616 46.5614 128.605 46.4569 128.581 46.3757C128.558 46.2944 128.512 46.2248 128.454 46.1668C128.21 45.9347 127.978 45.8186 127.757 45.8186C127.514 45.8186 127.27 45.9347 127.026 46.1668C126.98 46.2248 126.945 46.2944 126.922 46.3757C126.899 46.4569 126.887 46.5614 126.887 46.689C126.887 47.513 126.887 48.3254 126.887 49.1262C126.887 49.927 126.887 50.7394 126.887 51.5518V56.4146C126.887 58.0509 127.456 59.4552 128.639 60.6274C129.835 61.7996 131.239 62.3915 132.852 62.3915C134.5 62.3915 135.916 61.7996 137.088 60.6274C138.26 59.4552 138.841 58.0509 138.841 56.4029C138.841 54.7549 138.26 53.3507 137.088 52.1785C135.916 51.0063 134.5 50.426 132.841 50.426V50.4725Z"/>
<path d="M148.678 57.4126H148.689C148.573 57.2153 148.422 57.018 148.237 56.8324C148.051 56.6467 147.842 56.461 147.598 56.2869C147.239 56.0432 146.786 55.8575 146.241 55.7298C145.695 55.6022 145.057 55.5325 144.337 55.5325C143.827 55.5325 143.374 55.4861 142.991 55.4049C142.608 55.3236 142.306 55.2076 142.086 55.0683C141.784 54.8594 141.587 54.6621 141.494 54.488V54.5112C141.459 54.4184 141.447 54.2211 141.447 53.9193V53.7801C141.459 53.6524 141.54 53.4899 141.691 53.2926V53.3042C141.97 52.9793 142.329 52.724 142.782 52.5383C143.235 52.3526 143.78 52.2597 144.418 52.2597C145.289 52.2597 146.055 52.5383 146.716 53.0953C146.728 53.1069 146.74 53.1185 146.751 53.1185C146.902 53.223 147.088 53.2926 147.297 53.281C147.459 53.281 147.587 53.2346 147.68 53.1882C147.772 53.1418 147.854 53.0721 147.935 52.9677C148.005 52.8864 148.051 52.8052 148.074 52.7124C148.097 52.6195 148.109 52.5151 148.109 52.399C148.097 52.2249 148.063 52.0973 148.005 52.016C147.947 51.9348 147.865 51.8535 147.761 51.7723C147.285 51.4009 146.763 51.1108 146.182 50.9019C145.602 50.693 144.999 50.5885 144.372 50.5885C143.444 50.5885 142.631 50.7394 141.946 51.0295C141.262 51.3197 140.693 51.7491 140.252 52.3178C140.078 52.5499 139.939 52.782 139.834 53.0257C139.73 53.2694 139.672 53.5015 139.66 53.722L139.648 54.0238C139.625 54.546 139.718 54.9638 139.869 55.2772C139.973 55.4861 140.124 55.695 140.322 55.9039C140.519 56.1128 140.751 56.3217 141.018 56.519C141.366 56.7743 141.807 56.9716 142.353 57.1109C142.898 57.2502 143.536 57.3198 144.268 57.3198C144.801 57.3198 145.254 57.3546 145.637 57.4358C146.02 57.5171 146.333 57.6099 146.542 57.7608C146.832 57.9581 147.018 58.167 147.123 58.3411C147.157 58.3991 147.181 58.4687 147.192 58.55C147.204 58.6312 147.204 58.7241 147.204 58.8285C147.204 58.8633 147.204 58.9098 147.204 58.9678C147.204 59.0258 147.192 59.0838 147.181 59.1419V59.2115C147.157 59.3392 147.076 59.5016 146.925 59.6989C146.658 60.0239 146.287 60.2792 145.823 60.4649C145.358 60.6506 144.813 60.7435 144.186 60.7435C143.861 60.7435 143.548 60.7086 143.258 60.6274C142.968 60.5462 142.678 60.4301 142.399 60.2792C142.132 60.1284 141.9 59.9543 141.703 59.7454C141.505 59.5365 141.331 59.316 141.18 59.0722C141.122 58.9794 141.053 58.8982 140.972 58.8285C140.89 58.7589 140.797 58.7009 140.693 58.666V58.6777C140.612 58.6428 140.519 58.6196 140.414 58.6196C140.275 58.6196 140.136 58.666 139.997 58.7589L140.008 58.7473C139.892 58.8053 139.799 58.8749 139.741 58.9562C139.683 59.0374 139.637 59.1303 139.602 59.2347C139.579 59.2927 139.567 59.3392 139.567 59.374C139.567 59.4088 139.567 59.4552 139.567 59.5016C139.567 59.6525 139.614 59.8034 139.707 59.9427H139.695C139.904 60.3257 140.171 60.6738 140.496 60.9872C140.821 61.3005 141.18 61.5675 141.575 61.788C142.376 62.2406 143.258 62.4495 144.221 62.4495C145.161 62.4495 145.974 62.3102 146.658 62.0201C147.343 61.7299 147.912 61.3005 148.353 60.7318C148.527 60.5113 148.666 60.2792 148.771 60.0355C148.875 59.7918 148.933 59.5597 148.956 59.3276C148.968 59.2579 148.968 59.1767 148.968 59.0955V58.8633C148.968 58.3063 148.875 57.8537 148.678 57.4939V57.4126Z"/>
</mask>
<path d="M112.981 60.639L112.308 60.5926C112.18 60.5578 112.053 60.5229 111.925 60.4881L111.519 60.3953C111.414 60.3605 111.31 60.3257 111.205 60.2908C111.101 60.256 110.997 60.2212 110.892 60.1864C110.857 60.1516 110.811 60.1167 110.753 60.0819L110.579 59.9775L110.497 59.9311C110.463 59.9078 110.428 59.8846 110.393 59.8498C110.335 59.815 110.3 59.7918 110.289 59.7802C110.289 59.7686 110.277 59.757 110.265 59.7454C110.207 59.7106 110.149 59.6641 110.091 59.5945C110.056 59.5481 110.01 59.5017 109.952 59.4552L109.79 59.316C109.407 58.8982 109.105 58.4339 108.896 57.9233C108.687 57.4126 108.583 56.8672 108.583 56.2753V46.8283C108.583 46.6078 108.501 46.3989 108.327 46.2016C108.142 46.0275 107.933 45.9463 107.712 45.9463C107.492 45.9463 107.283 46.0159 107.085 46.2016C106.911 46.3757 106.83 46.5846 106.83 46.8283V56.4029C106.83 58.0626 107.48 59.4784 108.664 60.6506C109.859 61.8228 111.275 62.3915 112.911 62.3915H112.969C113.202 62.3915 113.399 62.3218 113.573 62.1477C113.747 61.9853 113.84 61.7764 113.84 61.521C113.84 61.2773 113.747 61.08 113.573 60.9175C113.41 60.7551 113.213 60.6622 112.993 60.6506L112.981 60.639Z" fill="#FF6262"/>
<path d="M120.044 60.6738C118.884 60.6738 117.897 60.2676 117.073 59.4436C116.238 58.5964 115.843 57.6099 115.843 56.4726C115.843 55.3468 116.238 54.3371 117.073 53.4899C117.886 52.6659 118.884 52.2713 120.044 52.2713C121.216 52.2713 122.215 52.6775 123.027 53.4899C123.851 54.3371 124.257 55.3352 124.257 56.4842C124.257 57.6331 123.851 58.6196 123.027 59.4436C122.215 60.2676 121.216 60.6738 120.044 60.6738ZM125.975 61.5558V56.4726C125.975 54.8594 125.406 53.4667 124.245 52.2945C123.097 51.1224 121.681 50.5537 120.044 50.5537C118.408 50.5537 117.015 51.1224 115.855 52.2945C114.694 53.4667 114.125 54.8594 114.125 56.4726C114.125 58.0858 114.694 59.4784 115.855 60.6506C117.015 61.8112 118.408 62.3915 120.044 62.3915C120.613 62.3915 121.147 62.3218 121.657 62.1709C122.168 62.0201 122.656 61.7996 123.12 61.5094C123.282 61.405 123.468 61.2773 123.677 61.1148C123.886 60.9524 124.071 60.7899 124.234 60.639V61.5326C124.234 61.7764 124.315 61.9853 124.466 62.1593C124.64 62.3102 124.849 62.3915 125.104 62.3915C125.336 62.3915 125.534 62.3102 125.708 62.1361C125.87 61.9737 125.952 61.7764 125.952 61.5326L125.975 61.5558Z" fill="#FF6262"/>
<path d="M132.841 60.6854C131.668 60.6854 130.67 60.2676 129.846 59.4436C129.022 58.608 128.628 57.6099 128.628 56.4378C128.628 55.2656 129.034 54.2675 129.846 53.4435C130.67 52.6195 131.668 52.2017 132.841 52.2017C133.421 52.2017 133.966 52.3062 134.477 52.5151C134.988 52.724 135.452 53.0373 135.87 53.4551C136.694 54.2791 137.1 55.2772 137.1 56.461C137.1 57.6331 136.694 58.6312 135.87 59.4552C135.046 60.2792 134.036 60.697 132.841 60.697V60.6854ZM132.841 50.4725C132.307 50.4725 131.785 50.5421 131.262 50.693C130.74 50.8438 130.241 51.0411 129.765 51.3197C129.568 51.4357 129.371 51.5866 129.173 51.7375C128.976 51.8884 128.79 52.0508 128.616 52.2249V46.689C128.616 46.5614 128.605 46.4569 128.581 46.3757C128.558 46.2944 128.512 46.2248 128.454 46.1668C128.21 45.9347 127.978 45.8186 127.757 45.8186C127.514 45.8186 127.27 45.9347 127.026 46.1668C126.98 46.2248 126.945 46.2944 126.922 46.3757C126.899 46.4569 126.887 46.5614 126.887 46.689C126.887 47.513 126.887 48.3254 126.887 49.1262C126.887 49.927 126.887 50.7394 126.887 51.5518V56.4146C126.887 58.0509 127.456 59.4552 128.639 60.6274C129.835 61.7996 131.239 62.3915 132.852 62.3915C134.5 62.3915 135.916 61.7996 137.088 60.6274C138.26 59.4552 138.841 58.0509 138.841 56.4029C138.841 54.7549 138.26 53.3507 137.088 52.1785C135.916 51.0063 134.5 50.426 132.841 50.426V50.4725Z" fill="#FF6262"/>
<path d="M148.678 57.4126H148.689C148.573 57.2153 148.422 57.018 148.237 56.8324C148.051 56.6467 147.842 56.461 147.598 56.2869C147.239 56.0432 146.786 55.8575 146.241 55.7298C145.695 55.6022 145.057 55.5325 144.337 55.5325C143.827 55.5325 143.374 55.4861 142.991 55.4049C142.608 55.3236 142.306 55.2076 142.086 55.0683C141.784 54.8594 141.587 54.6621 141.494 54.488V54.5112C141.459 54.4184 141.447 54.2211 141.447 53.9193V53.7801C141.459 53.6524 141.54 53.4899 141.691 53.2926V53.3042C141.97 52.9793 142.329 52.724 142.782 52.5383C143.235 52.3526 143.78 52.2597 144.418 52.2597C145.289 52.2597 146.055 52.5383 146.716 53.0953C146.728 53.1069 146.74 53.1185 146.751 53.1185C146.902 53.223 147.088 53.2926 147.297 53.281C147.459 53.281 147.587 53.2346 147.68 53.1882C147.772 53.1418 147.854 53.0721 147.935 52.9677C148.005 52.8864 148.051 52.8052 148.074 52.7124C148.097 52.6195 148.109 52.5151 148.109 52.399C148.097 52.2249 148.063 52.0973 148.005 52.016C147.947 51.9348 147.865 51.8535 147.761 51.7723C147.285 51.4009 146.763 51.1108 146.182 50.9019C145.602 50.693 144.999 50.5885 144.372 50.5885C143.444 50.5885 142.631 50.7394 141.946 51.0295C141.262 51.3197 140.693 51.7491 140.252 52.3178C140.078 52.5499 139.939 52.782 139.834 53.0257C139.73 53.2694 139.672 53.5015 139.66 53.722L139.648 54.0238C139.625 54.546 139.718 54.9638 139.869 55.2772C139.973 55.4861 140.124 55.695 140.322 55.9039C140.519 56.1128 140.751 56.3217 141.018 56.519C141.366 56.7743 141.807 56.9716 142.353 57.1109C142.898 57.2502 143.536 57.3198 144.268 57.3198C144.801 57.3198 145.254 57.3546 145.637 57.4358C146.02 57.5171 146.333 57.6099 146.542 57.7608C146.832 57.9581 147.018 58.167 147.123 58.3411C147.157 58.3991 147.181 58.4687 147.192 58.55C147.204 58.6312 147.204 58.7241 147.204 58.8285C147.204 58.8633 147.204 58.9098 147.204 58.9678C147.204 59.0258 147.192 59.0838 147.181 59.1419V59.2115C147.157 59.3392 147.076 59.5016 146.925 59.6989C146.658 60.0239 146.287 60.2792 145.823 60.4649C145.358 60.6506 144.813 60.7435 144.186 60.7435C143.861 60.7435 143.548 60.7086 143.258 60.6274C142.968 60.5462 142.678 60.4301 142.399 60.2792C142.132 60.1284 141.9 59.9543 141.703 59.7454C141.505 59.5365 141.331 59.316 141.18 59.0722C141.122 58.9794 141.053 58.8982 140.972 58.8285C140.89 58.7589 140.797 58.7009 140.693 58.666V58.6777C140.612 58.6428 140.519 58.6196 140.414 58.6196C140.275 58.6196 140.136 58.666 139.997 58.7589L140.008 58.7473C139.892 58.8053 139.799 58.8749 139.741 58.9562C139.683 59.0374 139.637 59.1303 139.602 59.2347C139.579 59.2927 139.567 59.3392 139.567 59.374C139.567 59.4088 139.567 59.4552 139.567 59.5016C139.567 59.6525 139.614 59.8034 139.707 59.9427H139.695C139.904 60.3257 140.171 60.6738 140.496 60.9872C140.821 61.3005 141.18 61.5675 141.575 61.788C142.376 62.2406 143.258 62.4495 144.221 62.4495C145.161 62.4495 145.974 62.3102 146.658 62.0201C147.343 61.7299 147.912 61.3005 148.353 60.7318C148.527 60.5113 148.666 60.2792 148.771 60.0355C148.875 59.7918 148.933 59.5597 148.956 59.3276C148.968 59.2579 148.968 59.1767 148.968 59.0955V58.8633C148.968 58.3063 148.875 57.8537 148.678 57.4939V57.4126Z" fill="#FF6262"/>
<path d="M112.981 60.639L112.308 60.5926C112.18 60.5578 112.053 60.5229 111.925 60.4881L111.519 60.3953C111.414 60.3605 111.31 60.3257 111.205 60.2908C111.101 60.256 110.997 60.2212 110.892 60.1864C110.857 60.1516 110.811 60.1167 110.753 60.0819L110.579 59.9775L110.497 59.9311C110.463 59.9078 110.428 59.8846 110.393 59.8498C110.335 59.815 110.3 59.7918 110.289 59.7802C110.289 59.7686 110.277 59.757 110.265 59.7454C110.207 59.7106 110.149 59.6641 110.091 59.5945C110.056 59.5481 110.01 59.5017 109.952 59.4552L109.79 59.316C109.407 58.8982 109.105 58.4339 108.896 57.9233C108.687 57.4126 108.583 56.8672 108.583 56.2753V46.8283C108.583 46.6078 108.501 46.3989 108.327 46.2016C108.142 46.0275 107.933 45.9463 107.712 45.9463C107.492 45.9463 107.283 46.0159 107.085 46.2016C106.911 46.3757 106.83 46.5846 106.83 46.8283V56.4029C106.83 58.0626 107.48 59.4784 108.664 60.6506C109.859 61.8228 111.275 62.3915 112.911 62.3915H112.969C113.202 62.3915 113.399 62.3218 113.573 62.1477C113.747 61.9853 113.84 61.7764 113.84 61.521C113.84 61.2773 113.747 61.08 113.573 60.9175C113.41 60.7551 113.213 60.6622 112.993 60.6506L112.981 60.639Z" stroke="#FF6262" stroke-width="0.366079" mask="url(#path-3-outside-1_4041:1898)"/>
<path d="M120.044 60.6738C118.884 60.6738 117.897 60.2676 117.073 59.4436C116.238 58.5964 115.843 57.6099 115.843 56.4726C115.843 55.3468 116.238 54.3371 117.073 53.4899C117.886 52.6659 118.884 52.2713 120.044 52.2713C121.216 52.2713 122.215 52.6775 123.027 53.4899C123.851 54.3371 124.257 55.3352 124.257 56.4842C124.257 57.6331 123.851 58.6196 123.027 59.4436C122.215 60.2676 121.216 60.6738 120.044 60.6738ZM125.975 61.5558V56.4726C125.975 54.8594 125.406 53.4667 124.245 52.2945C123.097 51.1224 121.681 50.5537 120.044 50.5537C118.408 50.5537 117.015 51.1224 115.855 52.2945C114.694 53.4667 114.125 54.8594 114.125 56.4726C114.125 58.0858 114.694 59.4784 115.855 60.6506C117.015 61.8112 118.408 62.3915 120.044 62.3915C120.613 62.3915 121.147 62.3218 121.657 62.1709C122.168 62.0201 122.656 61.7996 123.12 61.5094C123.282 61.405 123.468 61.2773 123.677 61.1148C123.886 60.9524 124.071 60.7899 124.234 60.639V61.5326C124.234 61.7764 124.315 61.9853 124.466 62.1593C124.64 62.3102 124.849 62.3915 125.104 62.3915C125.336 62.3915 125.534 62.3102 125.708 62.1361C125.87 61.9737 125.952 61.7764 125.952 61.5326L125.975 61.5558Z" stroke="#FF6262" stroke-width="0.366079" mask="url(#path-3-outside-1_4041:1898)"/>
<path d="M132.841 60.6854C131.668 60.6854 130.67 60.2676 129.846 59.4436C129.022 58.608 128.628 57.6099 128.628 56.4378C128.628 55.2656 129.034 54.2675 129.846 53.4435C130.67 52.6195 131.668 52.2017 132.841 52.2017C133.421 52.2017 133.966 52.3062 134.477 52.5151C134.988 52.724 135.452 53.0373 135.87 53.4551C136.694 54.2791 137.1 55.2772 137.1 56.461C137.1 57.6331 136.694 58.6312 135.87 59.4552C135.046 60.2792 134.036 60.697 132.841 60.697V60.6854ZM132.841 50.4725C132.307 50.4725 131.785 50.5421 131.262 50.693C130.74 50.8438 130.241 51.0411 129.765 51.3197C129.568 51.4357 129.371 51.5866 129.173 51.7375C128.976 51.8884 128.79 52.0508 128.616 52.2249V46.689C128.616 46.5614 128.605 46.4569 128.581 46.3757C128.558 46.2944 128.512 46.2248 128.454 46.1668C128.21 45.9347 127.978 45.8186 127.757 45.8186C127.514 45.8186 127.27 45.9347 127.026 46.1668C126.98 46.2248 126.945 46.2944 126.922 46.3757C126.899 46.4569 126.887 46.5614 126.887 46.689C126.887 47.513 126.887 48.3254 126.887 49.1262C126.887 49.927 126.887 50.7394 126.887 51.5518V56.4146C126.887 58.0509 127.456 59.4552 128.639 60.6274C129.835 61.7996 131.239 62.3915 132.852 62.3915C134.5 62.3915 135.916 61.7996 137.088 60.6274C138.26 59.4552 138.841 58.0509 138.841 56.4029C138.841 54.7549 138.26 53.3507 137.088 52.1785C135.916 51.0063 134.5 50.426 132.841 50.426V50.4725Z" stroke="#FF6262" stroke-width="0.366079" mask="url(#path-3-outside-1_4041:1898)"/>
<path d="M148.678 57.4126H148.689C148.573 57.2153 148.422 57.018 148.237 56.8324C148.051 56.6467 147.842 56.461 147.598 56.2869C147.239 56.0432 146.786 55.8575 146.241 55.7298C145.695 55.6022 145.057 55.5325 144.337 55.5325C143.827 55.5325 143.374 55.4861 142.991 55.4049C142.608 55.3236 142.306 55.2076 142.086 55.0683C141.784 54.8594 141.587 54.6621 141.494 54.488V54.5112C141.459 54.4184 141.447 54.2211 141.447 53.9193V53.7801C141.459 53.6524 141.54 53.4899 141.691 53.2926V53.3042C141.97 52.9793 142.329 52.724 142.782 52.5383C143.235 52.3526 143.78 52.2597 144.418 52.2597C145.289 52.2597 146.055 52.5383 146.716 53.0953C146.728 53.1069 146.74 53.1185 146.751 53.1185C146.902 53.223 147.088 53.2926 147.297 53.281C147.459 53.281 147.587 53.2346 147.68 53.1882C147.772 53.1418 147.854 53.0721 147.935 52.9677C148.005 52.8864 148.051 52.8052 148.074 52.7124C148.097 52.6195 148.109 52.5151 148.109 52.399C148.097 52.2249 148.063 52.0973 148.005 52.016C147.947 51.9348 147.865 51.8535 147.761 51.7723C147.285 51.4009 146.763 51.1108 146.182 50.9019C145.602 50.693 144.999 50.5885 144.372 50.5885C143.444 50.5885 142.631 50.7394 141.946 51.0295C141.262 51.3197 140.693 51.7491 140.252 52.3178C140.078 52.5499 139.939 52.782 139.834 53.0257C139.73 53.2694 139.672 53.5015 139.66 53.722L139.648 54.0238C139.625 54.546 139.718 54.9638 139.869 55.2772C139.973 55.4861 140.124 55.695 140.322 55.9039C140.519 56.1128 140.751 56.3217 141.018 56.519C141.366 56.7743 141.807 56.9716 142.353 57.1109C142.898 57.2502 143.536 57.3198 144.268 57.3198C144.801 57.3198 145.254 57.3546 145.637 57.4358C146.02 57.5171 146.333 57.6099 146.542 57.7608C146.832 57.9581 147.018 58.167 147.123 58.3411C147.157 58.3991 147.181 58.4687 147.192 58.55C147.204 58.6312 147.204 58.7241 147.204 58.8285C147.204 58.8633 147.204 58.9098 147.204 58.9678C147.204 59.0258 147.192 59.0838 147.181 59.1419V59.2115C147.157 59.3392 147.076 59.5016 146.925 59.6989C146.658 60.0239 146.287 60.2792 145.823 60.4649C145.358 60.6506 144.813 60.7435 144.186 60.7435C143.861 60.7435 143.548 60.7086 143.258 60.6274C142.968 60.5462 142.678 60.4301 142.399 60.2792C142.132 60.1284 141.9 59.9543 141.703 59.7454C141.505 59.5365 141.331 59.316 141.18 59.0722C141.122 58.9794 141.053 58.8982 140.972 58.8285C140.89 58.7589 140.797 58.7009 140.693 58.666V58.6777C140.612 58.6428 140.519 58.6196 140.414 58.6196C140.275 58.6196 140.136 58.666 139.997 58.7589L140.008 58.7473C139.892 58.8053 139.799 58.8749 139.741 58.9562C139.683 59.0374 139.637 59.1303 139.602 59.2347C139.579 59.2927 139.567 59.3392 139.567 59.374C139.567 59.4088 139.567 59.4552 139.567 59.5016C139.567 59.6525 139.614 59.8034 139.707 59.9427H139.695C139.904 60.3257 140.171 60.6738 140.496 60.9872C140.821 61.3005 141.18 61.5675 141.575 61.788C142.376 62.2406 143.258 62.4495 144.221 62.4495C145.161 62.4495 145.974 62.3102 146.658 62.0201C147.343 61.7299 147.912 61.3005 148.353 60.7318C148.527 60.5113 148.666 60.2792 148.771 60.0355C148.875 59.7918 148.933 59.5597 148.956 59.3276C148.968 59.2579 148.968 59.1767 148.968 59.0955V58.8633C148.968 58.3063 148.875 57.8537 148.678 57.4939V57.4126Z" stroke="#FF6262" stroke-width="0.366079" mask="url(#path-3-outside-1_4041:1898)"/>
<line x1="66.5234" y1="55.4491" x2="103.613" y2="55.4491" stroke="#FF6262" stroke-width="0.712203"/>
<line x1="151.422" y1="55.4491" x2="188.682" y2="55.4491" stroke="#FF6262" stroke-width="0.712203"/>
</svg>
