<svg width="313" height="356" viewBox="0 0 313 356" fill="none" xmlns="http://www.w3.org/2000/svg">
<g filter="url(#filter0_d_404_16030)">
<rect x="64.5189" y="89.916" width="155.511" height="199.167" rx="8.20689" transform="rotate(-0.143263 64.5189 89.916)" stroke="white" stroke-opacity="0.21" stroke-width="0.705926"/>
<path d="M74.2163 98.86L74.2262 102.815L73.1956 102.817L73.1857 98.8626L74.2163 98.86ZM75.0195 102.813L75.012 99.8167L75.9228 99.8145L75.9543 100.42C76.0456 100.2 76.179 100.034 76.3545 99.9212C76.53 99.809 76.7376 99.7525 76.9772 99.7519C77.2848 99.7511 77.5347 99.8404 77.7269 100.02C77.9191 100.199 78.0156 100.462 78.0165 100.81L78.0215 102.805L77.0028 102.808L76.9985 101.082C76.998 100.874 76.9577 100.731 76.8776 100.651C76.7975 100.571 76.6956 100.532 76.5717 100.532C76.4239 100.532 76.2962 100.584 76.1886 100.689C76.085 100.793 76.0336 100.971 76.0342 101.222L76.0382 102.81L75.0195 102.813ZM80.1476 99.744C80.4512 99.7432 80.703 99.7865 80.9029 99.8739C81.1069 99.9613 81.265 100.075 81.3772 100.214C81.4894 100.354 81.5616 100.505 81.594 100.669L80.6541 100.983C80.6297 100.811 80.5794 100.684 80.5033 100.6C80.4272 100.512 80.3192 100.469 80.1794 100.469C79.9877 100.469 79.842 100.538 79.7425 100.674C79.647 100.81 79.5996 101.024 79.6003 101.315C79.601 101.611 79.6535 101.822 79.7577 101.95C79.8659 102.074 80.0098 102.135 80.1896 102.135C80.4732 102.134 80.6386 101.972 80.6857 101.648L81.6032 101.939C81.5599 102.199 81.4146 102.417 81.1674 102.594C80.9242 102.77 80.6008 102.859 80.1974 102.86C79.706 102.861 79.3122 102.726 79.016 102.455C78.7237 102.18 78.5769 101.797 78.5757 101.306C78.5749 100.978 78.6401 100.698 78.7713 100.466C78.9065 100.234 79.0918 100.056 79.3272 99.9318C79.5626 99.8074 79.8361 99.7448 80.1476 99.744ZM83.5533 99.7355C83.8689 99.7347 84.1447 99.7959 84.3807 99.9192C84.6206 100.042 84.8068 100.22 84.9392 100.451C85.0756 100.682 85.1442 100.962 85.1451 101.289C85.1459 101.617 85.0787 101.897 84.9434 102.129C84.8122 102.361 84.6269 102.539 84.3875 102.663C84.1522 102.788 83.8767 102.85 83.5611 102.851C83.2495 102.852 82.9737 102.791 82.7338 102.668C82.4978 102.544 82.3116 102.367 82.1752 102.136C82.0428 101.904 81.9762 101.625 81.9754 101.297C81.9745 100.97 82.0397 100.69 82.171 100.458C82.3062 100.226 82.4915 100.048 82.7269 99.9233C82.9663 99.7989 83.2417 99.7363 83.5533 99.7355ZM83.5551 100.46C83.3794 100.461 83.2417 100.527 83.1422 100.659C83.0466 100.787 82.9992 100.999 83 101.295C83.0007 101.586 83.0492 101.798 83.1454 101.93C83.2456 102.061 83.3835 102.127 83.5593 102.126C83.7391 102.126 83.8767 102.06 83.9722 101.927C84.0718 101.795 84.1212 101.584 84.1204 101.292C84.1197 100.996 84.0692 100.785 83.9691 100.657C83.8729 100.526 83.7349 100.46 83.5551 100.46ZM85.7218 102.786L85.7143 99.79L86.6251 99.7877L86.6565 100.369C86.7519 100.157 86.8853 99.9968 87.0568 99.8885C87.2323 99.7802 87.4339 99.7258 87.6615 99.7252C87.8812 99.7247 88.0731 99.7741 88.2371 99.8736C88.4052 99.973 88.5294 100.12 88.6097 100.316C88.7011 100.12 88.8366 99.9719 89.0161 99.8716C89.1996 99.7713 89.3992 99.7209 89.6149 99.7203C89.9105 99.7196 90.1544 99.8088 90.3466 99.9881C90.5428 100.163 90.6413 100.427 90.6422 100.778L90.6471 102.774L89.6285 102.776L89.6241 101.015C89.6236 100.823 89.5854 100.689 89.5093 100.613C89.4332 100.538 89.3352 100.5 89.2154 100.5C89.0636 100.501 88.9379 100.559 88.8383 100.675C88.7387 100.787 88.6892 100.955 88.6898 101.179L88.6938 102.778L87.6752 102.781L87.6708 101.019C87.6703 100.828 87.632 100.694 87.5559 100.618C87.4798 100.543 87.3819 100.505 87.262 100.505C87.1222 100.505 86.9985 100.56 86.8909 100.668C86.7874 100.776 86.7359 100.954 86.7365 101.202L86.7404 102.783L85.7218 102.786ZM91.8636 99.4271C91.6558 99.4276 91.504 99.39 91.4079 99.3144C91.3158 99.2347 91.2696 99.111 91.2692 98.9432C91.2687 98.7715 91.3144 98.6475 91.406 98.5714C91.5017 98.4913 91.6534 98.4509 91.8611 98.4504C92.0648 98.4499 92.2147 98.4895 92.3108 98.5691C92.4069 98.6448 92.4551 98.7685 92.4555 98.9403C92.456 99.108 92.4083 99.232 92.3127 99.3121C92.217 99.3882 92.0673 99.4266 91.8636 99.4271ZM92.3737 99.7733L92.3812 102.769L91.3626 102.772L91.3551 99.7759L92.3737 99.7733ZM93.1063 102.767L93.0989 99.7715L94.0096 99.7692L94.0411 100.374C94.1324 100.154 94.2658 99.9883 94.4413 99.876C94.6168 99.7637 94.8244 99.7073 95.064 99.7067C95.3716 99.7059 95.6215 99.7952 95.8137 99.9745C96.0059 100.154 96.1024 100.417 96.1033 100.765L96.1083 102.76L95.0897 102.763L95.0853 101.037C95.0848 100.829 95.0445 100.685 94.9644 100.606C94.8843 100.526 94.7824 100.486 94.6585 100.487C94.5107 100.487 94.383 100.539 94.2754 100.643C94.1718 100.748 94.1204 100.925 94.121 101.177L94.125 102.765L93.1063 102.767ZM98.6898 102.088C99.0373 102.088 99.3032 102.161 99.4873 102.308C99.6754 102.451 99.7698 102.659 99.7705 102.931C99.7714 103.306 99.6223 103.584 99.3232 103.765C99.028 103.949 98.6288 104.042 98.1255 104.043C97.5822 104.045 97.1906 103.978 96.9506 103.842C96.7105 103.707 96.5902 103.524 96.5897 103.292C96.5893 103.156 96.633 103.04 96.7206 102.944C96.8122 102.848 96.9579 102.782 97.1575 102.745C96.8657 102.638 96.7193 102.437 96.7186 102.141C96.7183 102.001 96.7599 101.88 96.8435 101.775C96.9271 101.667 97.0428 101.589 97.1905 101.541C96.8705 101.366 96.71 101.093 96.7091 100.721C96.7083 100.398 96.8335 100.148 97.0847 99.9713C97.3399 99.7909 97.6972 99.7001 98.1565 99.699C98.3882 99.6984 98.598 99.7218 98.7859 99.7693C98.8015 99.6254 98.8411 99.4915 98.9047 99.3675C98.9723 99.2435 99.0639 99.1434 99.1796 99.0672C99.2992 98.9871 99.4449 98.9467 99.6167 98.9463C99.6287 98.9463 99.6427 98.9483 99.6587 98.9522C99.6746 98.9522 99.6926 98.9521 99.7126 98.9521L99.7982 99.6349C99.7542 99.6231 99.7063 99.6172 99.6543 99.6173C99.5145 99.6177 99.4027 99.6459 99.319 99.702C99.2352 99.7582 99.1795 99.8302 99.1518 99.9182C99.4518 100.093 99.6022 100.358 99.6031 100.714C99.6039 101.038 99.4767 101.288 99.2215 101.464C98.9703 101.64 98.617 101.729 98.1616 101.73C97.9539 101.731 97.7661 101.713 97.5983 101.678C97.4665 101.718 97.4008 101.788 97.401 101.888C97.4014 102.024 97.5134 102.091 97.7371 102.091L98.6898 102.088ZM98.158 100.28C98.0262 100.28 97.9184 100.319 97.8347 100.395C97.755 100.471 97.7153 100.579 97.7157 100.719C97.716 100.855 97.7562 100.96 97.8363 101.036C97.9204 101.112 98.0284 101.149 98.1602 101.149C98.288 101.149 98.3938 101.11 98.4775 101.034C98.5612 100.958 98.6028 100.852 98.6025 100.716C98.6021 100.577 98.5599 100.469 98.4759 100.393C98.3918 100.318 98.2858 100.28 98.158 100.28ZM98.1298 103.384C98.4174 103.383 98.6311 103.353 98.7707 103.293C98.9144 103.236 98.9861 103.164 98.9859 103.076C98.9857 103.016 98.9616 102.969 98.9136 102.933C98.8696 102.901 98.7917 102.885 98.6798 102.885L97.6073 102.888C97.5314 102.888 97.4695 102.908 97.4217 102.948C97.3778 102.988 97.356 103.038 97.3561 103.098C97.3564 103.19 97.4245 103.26 97.5604 103.308C97.6963 103.359 97.8861 103.385 98.1298 103.384ZM105.177 98.7826L105.179 99.5795L103.891 99.5828L103.899 102.74L102.868 102.743L102.861 99.5853L101.566 99.5886L101.564 98.7917L105.177 98.7826ZM106.573 99.6779C106.888 99.6771 107.164 99.7384 107.4 99.8616C107.64 99.9848 107.826 100.162 107.959 100.393C108.095 100.625 108.164 100.904 108.165 101.232C108.165 101.559 108.098 101.839 107.963 102.071C107.832 102.303 107.646 102.481 107.407 102.606C107.172 102.73 106.896 102.793 106.581 102.794C106.269 102.794 105.993 102.733 105.753 102.61C105.517 102.487 105.331 102.309 105.195 102.078C105.062 101.847 104.996 101.567 104.995 101.24C104.994 100.912 105.059 100.632 105.191 100.4C105.326 100.168 105.511 99.9902 105.746 99.8657C105.986 99.7413 106.261 99.6787 106.573 99.6779ZM106.575 100.403C106.399 100.403 106.261 100.47 106.162 100.602C106.066 100.73 106.019 100.942 106.02 101.237C106.02 101.529 106.069 101.74 106.165 101.872C106.265 102.004 106.403 102.069 106.579 102.069C106.759 102.068 106.896 102.002 106.992 101.87C107.091 101.738 107.141 101.526 107.14 101.234C107.139 100.939 107.089 100.727 106.989 100.6C106.892 100.468 106.754 100.402 106.575 100.403ZM109.749 98.4596L109.756 100.988L110.891 99.727L112.023 99.7242L110.924 100.901L112.097 102.72L110.97 102.723L110.242 101.496L109.758 102.037L109.76 102.726L108.741 102.728L108.731 98.4622L109.749 98.4596ZM113.767 102.776C113.268 102.777 112.872 102.642 112.58 102.371C112.291 102.1 112.147 101.717 112.145 101.222C112.145 100.894 112.21 100.615 112.341 100.383C112.476 100.147 112.66 99.9683 112.891 99.8479C113.126 99.7234 113.4 99.6608 113.711 99.6601C114.027 99.6593 114.295 99.7205 114.515 99.8438C114.739 99.9631 114.909 100.13 115.025 100.346C115.142 100.557 115.2 100.801 115.201 101.076C115.201 101.152 115.197 101.226 115.189 101.298C115.186 101.366 115.182 101.424 115.178 101.472L113.135 101.477C113.163 101.685 113.231 101.834 113.34 101.926C113.448 102.014 113.59 102.057 113.765 102.057C113.917 102.056 114.037 102.026 114.125 101.966C114.216 101.906 114.284 101.822 114.328 101.714L115.143 101.981C115.088 102.153 114.99 102.299 114.851 102.419C114.715 102.536 114.552 102.624 114.36 102.684C114.172 102.745 113.975 102.775 113.767 102.776ZM113.713 100.373C113.39 100.374 113.198 100.56 113.139 100.932L114.236 100.929C114.191 100.558 114.017 100.372 113.713 100.373ZM115.775 102.711L115.767 99.7148L116.678 99.7126L116.71 100.318C116.801 100.098 116.934 99.9316 117.11 99.8193C117.285 99.7071 117.493 99.6506 117.733 99.65C118.04 99.6492 118.29 99.7385 118.482 99.9178C118.674 100.097 118.771 100.36 118.772 100.708L118.777 102.703L117.758 102.706L117.754 100.98C117.753 100.772 117.713 100.629 117.633 100.549C117.553 100.469 117.451 100.43 117.327 100.43C117.179 100.43 117.052 100.483 116.944 100.587C116.84 100.691 116.789 100.869 116.789 101.12L116.793 102.708L115.775 102.711ZM120.749 102.758C120.449 102.759 120.172 102.712 119.916 102.617C119.66 102.517 119.446 102.376 119.274 102.193L119.751 101.628C119.852 101.756 119.984 101.863 120.148 101.951C120.316 102.034 120.502 102.076 120.705 102.075C120.829 102.075 120.931 102.057 121.011 102.021C121.091 101.984 121.13 101.928 121.13 101.853C121.13 101.801 121.11 101.757 121.07 101.721C121.03 101.685 120.95 101.655 120.83 101.632L120.41 101.549C120.035 101.474 119.767 101.363 119.607 101.215C119.45 101.064 119.372 100.866 119.371 100.623C119.371 100.459 119.421 100.303 119.52 100.155C119.62 100.007 119.773 99.8846 119.981 99.7882C120.188 99.6918 120.454 99.6432 120.777 99.6424C121.396 99.6408 121.848 99.8115 122.133 100.154L121.649 100.707C121.552 100.587 121.428 100.494 121.276 100.426C121.124 100.359 120.973 100.325 120.821 100.325C120.529 100.326 120.384 100.4 120.384 100.548C120.384 100.6 120.408 100.646 120.456 100.686C120.508 100.726 120.602 100.757 120.738 100.781L121.284 100.887C121.591 100.947 121.813 101.05 121.949 101.197C122.086 101.341 122.154 101.516 122.154 101.724C122.155 102.016 122.038 102.262 121.803 102.462C121.572 102.658 121.22 102.757 120.749 102.758Z" fill="white"/>
<path d="M142.544 165.414L142.425 117.616C168.823 117.55 190.277 138.896 190.343 165.295C190.409 191.693 169.062 213.146 142.664 213.212C135.58 213.23 128.581 211.673 122.173 208.654L142.544 165.414Z" fill="#901DEA"/>
<path d="M142.544 165.414L122.173 208.654C102.631 199.447 91.6924 178.277 95.4901 157.011L142.544 165.414Z" fill="#26A75A"/>
<path d="M142.544 165.413L95.4903 157.011C98.4713 140.318 110.073 126.454 125.979 120.577L142.544 165.413Z" fill="#394DFC"/>
<path d="M142.545 165.413L125.979 120.577C131.245 118.632 136.812 117.629 142.425 117.615L142.545 165.413Z" fill="#DFA308"/>
<circle cx="142.463" cy="165.337" r="35.3094" transform="rotate(-0.143263 142.463 165.337)" fill="#1E2D4B"/>
<circle cx="78.694" cy="242.848" r="2.56796" transform="rotate(-0.143263 78.694 242.848)" fill="#1CF69C"/>
<path d="M88.2257 241.156L88.2313 243.382C88.2326 243.883 88.1 244.259 87.8335 244.512C87.5671 244.762 87.1779 244.887 86.666 244.888C86.1542 244.889 85.7644 244.766 85.4967 244.518C85.229 244.267 85.0945 243.891 85.0933 243.39L85.0877 241.164L85.8555 241.162L85.861 243.354C85.8618 243.662 85.9273 243.89 86.0575 244.038C86.1914 244.186 86.3937 244.26 86.6645 244.259C86.9352 244.259 87.1354 244.184 87.2648 244.035C87.3943 243.887 87.4586 243.658 87.4578 243.35L87.4524 241.158L88.2257 241.156ZM90.4509 241.095C90.7848 241.094 91.0779 241.151 91.3305 241.265C91.583 241.38 91.7985 241.55 91.9772 241.776L91.55 242.272C91.3974 242.079 91.2301 241.939 91.0482 241.85C90.8699 241.758 90.6621 241.712 90.4247 241.713C90.1873 241.713 90.0149 241.758 89.9076 241.848C89.8002 241.933 89.7467 242.037 89.747 242.16C89.7472 242.26 89.7845 242.345 89.8589 242.415C89.937 242.482 90.0725 242.537 90.2655 242.581L90.9502 242.735C91.3102 242.816 91.5702 242.938 91.7301 243.101C91.89 243.26 91.9703 243.467 91.9709 243.723C91.9715 243.964 91.909 244.172 91.7833 244.347C91.6576 244.518 91.4817 244.65 91.2557 244.743C91.0297 244.833 90.7701 244.878 90.4771 244.879C90.095 244.88 89.7592 244.814 89.4695 244.681C89.1799 244.548 88.9513 244.376 88.7839 244.165L89.2166 243.647C89.3431 243.824 89.516 243.972 89.7351 244.09C89.958 244.205 90.2048 244.262 90.4755 244.261C90.7018 244.26 90.8761 244.223 90.9983 244.148C91.1205 244.07 91.1814 243.961 91.1811 243.82C91.1808 243.727 91.1472 243.645 91.0803 243.575C91.0171 243.505 90.8982 243.451 90.7238 243.415L89.9778 243.25C89.6512 243.18 89.3987 243.066 89.2203 242.907C89.0418 242.747 88.9523 242.531 88.9516 242.256C88.951 242.037 89.0099 241.841 89.1281 241.666C89.2464 241.491 89.4167 241.354 89.639 241.253C89.865 241.149 90.1356 241.096 90.4509 241.095ZM94.1096 241.142C94.6846 241.14 95.1301 241.299 95.4462 241.617C95.7622 241.935 95.921 242.387 95.9225 242.973C95.924 243.559 95.7674 244.012 95.453 244.332C95.1385 244.652 94.6938 244.812 94.1188 244.814L92.7 244.817L92.6908 241.145L94.1096 241.142ZM94.0783 244.202C94.427 244.201 94.6883 244.096 94.8621 243.888C95.0396 243.676 95.1278 243.372 95.1269 242.975C95.1259 242.578 95.0361 242.276 94.8575 242.069C94.6827 241.858 94.4209 241.753 94.0722 241.754L93.4602 241.755L93.4663 244.203L94.0783 244.202ZM99.453 241.128L99.4545 241.746L98.2249 241.749L98.2325 244.804L97.4647 244.805L97.4571 241.751L96.2219 241.754L96.2203 241.136L99.453 241.128Z" fill="#8E91A5"/>
<path d="M112.452 245.038C112.085 245.039 111.771 244.963 111.511 244.812C111.255 244.657 111.078 244.435 110.981 244.146L111.703 243.827C111.778 244.223 112.024 244.421 112.439 244.42C112.625 244.42 112.769 244.371 112.873 244.275C112.98 244.174 113.033 244.042 113.033 243.879C113.032 243.567 112.839 243.412 112.453 243.413C112.364 243.413 112.271 243.419 112.175 243.431L112.174 242.869C112.229 242.876 112.292 242.879 112.363 242.879C112.571 242.879 112.719 242.836 112.808 242.75C112.9 242.665 112.946 242.531 112.946 242.349C112.945 242.197 112.899 242.08 112.806 241.999C112.713 241.914 112.585 241.872 112.422 241.872C112.244 241.872 112.103 241.917 111.999 242.007C111.895 242.096 111.823 242.228 111.783 242.402L111.098 242.148C111.164 241.87 111.321 241.65 111.569 241.49C111.817 241.33 112.114 241.25 112.459 241.249C112.867 241.248 113.177 241.34 113.389 241.525C113.601 241.71 113.707 241.947 113.708 242.236C113.708 242.436 113.67 242.6 113.592 242.726C113.515 242.852 113.422 242.947 113.315 243.01C113.207 243.074 113.109 243.111 113.02 243.122L113.02 243.139C113.131 243.143 113.246 243.172 113.365 243.227C113.484 243.283 113.584 243.368 113.666 243.482C113.748 243.597 113.789 243.744 113.79 243.922C113.79 244.148 113.732 244.345 113.613 244.512C113.499 244.679 113.341 244.809 113.141 244.903C112.941 244.992 112.711 245.037 112.452 245.038ZM116.112 244.973L116.11 244.111L114.318 244.115L114.317 243.614C114.335 243.577 114.361 243.533 114.394 243.481C114.431 243.425 114.472 243.362 114.516 243.291L115.88 241.301L116.798 241.299L116.804 243.552L117.399 243.551L117.401 244.107L116.805 244.109L116.807 244.971L116.112 244.973ZM114.973 243.557L116.114 243.554L116.111 242.341C116.111 242.26 116.112 242.176 116.116 242.091C116.119 242.006 116.123 241.918 116.126 241.829L116.115 241.829C116.075 241.911 116.025 242 115.966 242.097C115.91 242.193 115.858 242.277 115.81 242.348L115.045 243.451C115.02 243.488 114.995 243.524 114.973 243.557ZM118.756 241.239C119.052 241.238 119.29 241.332 119.468 241.521C119.647 241.709 119.737 241.959 119.737 242.271C119.738 242.583 119.65 242.833 119.472 243.023C119.295 243.212 119.057 243.308 118.761 243.308C118.464 243.309 118.226 243.215 118.048 243.026C117.869 242.838 117.78 242.588 117.779 242.276C117.778 241.964 117.866 241.714 118.044 241.524C118.222 241.335 118.459 241.239 118.756 241.239ZM118.581 244.967L121.048 241.288L121.66 241.287L119.193 244.965L118.581 244.967ZM118.757 241.767C118.631 241.767 118.534 241.812 118.468 241.901C118.401 241.991 118.368 242.115 118.369 242.274C118.369 242.434 118.403 242.558 118.47 242.647C118.537 242.732 118.633 242.775 118.759 242.774C118.885 242.774 118.982 242.731 119.048 242.646C119.115 242.556 119.148 242.432 119.148 242.273C119.147 242.113 119.113 241.989 119.046 241.9C118.979 241.811 118.883 241.767 118.757 241.767ZM121.475 242.945C121.772 242.945 122.009 243.039 122.188 243.227C122.366 243.416 122.456 243.666 122.457 243.978C122.458 244.289 122.369 244.54 122.192 244.73C122.014 244.919 121.777 245.015 121.48 245.015C121.183 245.016 120.946 244.922 120.767 244.733C120.589 244.545 120.499 244.294 120.498 243.983C120.498 243.671 120.586 243.421 120.763 243.231C120.941 243.041 121.178 242.946 121.475 242.945ZM121.476 243.48C121.35 243.48 121.254 243.525 121.187 243.614C121.121 243.699 121.088 243.822 121.088 243.981C121.088 244.141 121.122 244.265 121.189 244.354C121.256 244.443 121.353 244.487 121.479 244.487C121.605 244.486 121.701 244.442 121.768 244.352C121.834 244.263 121.867 244.139 121.867 243.979C121.867 243.82 121.833 243.698 121.766 243.612C121.699 243.524 121.602 243.479 121.476 243.48Z" fill="white"/>
<circle cx="78.6642" cy="230.864" r="2.56796" transform="rotate(-0.143263 78.6642 230.864)" fill="#901DEA"/>
<path d="M88.196 229.172L88.2015 231.398C88.2028 231.899 88.0702 232.276 87.8037 232.528C87.5373 232.778 87.1481 232.903 86.6363 232.904C86.1244 232.905 85.7346 232.782 85.4669 232.534C85.1992 232.283 85.0647 231.907 85.0635 231.406L85.0579 229.18L85.8257 229.178L85.8312 231.371C85.832 231.678 85.8975 231.906 86.0277 232.054C86.1616 232.202 86.3639 232.276 86.6347 232.275C86.9055 232.275 87.1056 232.2 87.235 232.051C87.3645 231.903 87.4288 231.674 87.4281 231.367L87.4226 229.174L88.196 229.172ZM90.4212 229.111C90.755 229.11 91.0482 229.167 91.3007 229.282C91.5532 229.396 91.7688 229.566 91.9474 229.792L91.5202 230.288C91.3676 230.096 91.2004 229.955 91.0184 229.866C90.8401 229.774 90.6323 229.728 90.3949 229.729C90.1575 229.73 89.9851 229.774 89.8778 229.864C89.7704 229.949 89.7169 230.053 89.7172 230.176C89.7174 230.276 89.7548 230.361 89.8291 230.431C89.9072 230.498 90.0427 230.553 90.2357 230.597L90.9204 230.751C91.2804 230.832 91.5404 230.954 91.7003 231.117C91.8602 231.276 91.9405 231.483 91.9411 231.739C91.9417 231.98 91.8792 232.188 91.7535 232.363C91.6278 232.534 91.4519 232.666 91.2259 232.759C90.9999 232.849 90.7403 232.894 90.4473 232.895C90.0652 232.896 89.7294 232.83 89.4397 232.697C89.1501 232.564 88.9215 232.392 88.7541 232.181L89.1868 231.663C89.3133 231.84 89.4862 231.988 89.7053 232.106C89.9282 232.221 90.175 232.278 90.4458 232.277C90.672 232.277 90.8463 232.239 90.9685 232.164C91.0907 232.086 91.1516 231.977 91.1513 231.836C91.151 231.743 91.1175 231.662 91.0505 231.591C90.9873 231.521 90.8684 231.467 90.694 231.431L89.948 231.266C89.6214 231.196 89.3689 231.082 89.1905 230.923C89.012 230.764 88.9225 230.547 88.9218 230.272C88.9212 230.053 88.9801 229.857 89.0984 229.682C89.2166 229.507 89.3869 229.37 89.6092 229.269C89.8352 229.165 90.1059 229.112 90.4212 229.111ZM94.0798 229.158C94.6548 229.156 95.1003 229.315 95.4164 229.633C95.7325 229.951 95.8912 230.403 95.8927 230.989C95.8942 231.575 95.7377 232.028 95.4232 232.348C95.1087 232.668 94.664 232.828 94.089 232.83L92.6702 232.833L92.6611 229.161L94.0798 229.158ZM94.0486 232.218C94.3972 232.217 94.6585 232.113 94.8323 231.904C95.0098 231.693 95.0981 231.388 95.0971 230.991C95.0961 230.594 95.0063 230.292 94.8277 230.085C94.6529 229.874 94.3911 229.769 94.0424 229.77L93.4304 229.771L93.4365 232.22L94.0486 232.218ZM99.8103 231.803C99.7 232.163 99.5059 232.432 99.2282 232.611C98.9504 232.786 98.6261 232.874 98.2551 232.875C97.8916 232.876 97.5761 232.801 97.3087 232.649C97.045 232.498 96.8404 232.281 96.695 232C96.5534 231.718 96.4821 231.381 96.4811 230.988C96.4801 230.595 96.5516 230.257 96.6955 229.975C96.8395 229.692 97.043 229.475 97.3059 229.322C97.5689 229.169 97.8785 229.093 98.2345 229.092C98.6092 229.091 98.9302 229.17 99.1977 229.329C99.4689 229.484 99.6549 229.721 99.7559 230.039L99.0611 230.336C98.9975 230.114 98.9007 229.956 98.7706 229.864C98.6405 229.768 98.4735 229.72 98.2695 229.72C97.9653 229.721 97.7227 229.831 97.5414 230.05C97.3639 230.266 97.2757 230.578 97.2767 230.986C97.2777 231.39 97.3638 231.702 97.535 231.92C97.7062 232.138 97.9531 232.247 98.2758 232.246C98.4761 232.246 98.6485 232.192 98.7929 232.084C98.941 231.976 99.0444 231.812 99.1032 231.593L99.8103 231.803Z" fill="#8E91A5"/>
<path d="M112.361 233.054C112.038 233.055 111.765 232.989 111.542 232.856C111.323 232.723 111.143 232.519 111.001 232.245L111.69 231.898C111.739 232.062 111.815 232.193 111.919 232.293C112.023 232.393 112.176 232.443 112.376 232.442C112.58 232.442 112.739 232.387 112.854 232.279C112.972 232.172 113.031 232.018 113.031 231.817C113.03 231.617 112.974 231.465 112.863 231.361C112.755 231.258 112.597 231.206 112.39 231.207C112.085 231.208 111.861 231.297 111.717 231.476L111.116 231.366L111.339 229.329L113.559 229.323L113.56 229.941L111.919 229.945L111.81 230.841L111.793 230.913L111.805 230.913C111.882 230.828 111.988 230.761 112.121 230.712C112.258 230.66 112.414 230.634 112.588 230.633C112.826 230.633 113.03 230.68 113.201 230.776C113.375 230.872 113.509 231.007 113.602 231.182C113.696 231.352 113.742 231.548 113.743 231.771C113.744 232.053 113.681 232.29 113.556 232.484C113.434 232.673 113.267 232.816 113.056 232.913C112.848 233.007 112.617 233.053 112.361 233.054ZM114.369 232.993L114.368 232.47C114.812 232.173 115.168 231.91 115.434 231.683C115.701 231.453 115.891 231.241 116.006 231.048C116.124 230.854 116.183 230.663 116.182 230.474C116.182 230.303 116.13 230.164 116.026 230.057C115.921 229.946 115.775 229.891 115.586 229.891C115.378 229.892 115.215 229.963 115.097 230.104C114.982 230.245 114.919 230.446 114.909 230.705L114.246 230.457C114.267 230.082 114.402 229.79 114.65 229.582C114.902 229.37 115.228 229.263 115.629 229.262C115.925 229.262 116.17 229.317 116.363 229.428C116.56 229.535 116.707 229.677 116.804 229.855C116.905 230.033 116.955 230.224 116.956 230.428C116.957 230.78 116.824 231.11 116.558 231.419C116.295 231.724 115.886 232.047 115.33 232.39L115.33 232.396C115.412 232.392 115.52 232.388 115.653 232.384C115.79 232.376 115.907 232.372 116.004 232.372L117.016 232.369L117.018 232.987L114.369 232.993ZM118.454 229.255C118.751 229.255 118.988 229.349 119.167 229.537C119.345 229.726 119.435 229.976 119.436 230.288C119.437 230.599 119.348 230.85 119.171 231.04C118.993 231.229 118.756 231.324 118.459 231.325C118.162 231.326 117.925 231.232 117.746 231.043C117.568 230.854 117.478 230.604 117.477 230.293C117.477 229.981 117.565 229.731 117.743 229.541C117.92 229.351 118.157 229.256 118.454 229.255ZM118.28 232.984L120.747 229.305L121.359 229.304L118.892 232.982L118.28 232.984ZM118.455 229.784C118.329 229.784 118.233 229.829 118.166 229.918C118.1 230.007 118.067 230.132 118.067 230.291C118.068 230.451 118.101 230.575 118.168 230.664C118.235 230.749 118.332 230.791 118.458 230.791C118.584 230.791 118.68 230.748 118.747 230.662C118.813 230.573 118.847 230.449 118.846 230.289C118.846 230.13 118.812 230.006 118.745 229.917C118.678 229.828 118.581 229.784 118.455 229.784ZM121.174 230.962C121.47 230.962 121.708 231.056 121.886 231.244C122.065 231.433 122.155 231.683 122.155 231.995C122.156 232.306 122.068 232.557 121.89 232.746C121.713 232.936 121.475 233.031 121.179 233.032C120.882 233.033 120.644 232.939 120.466 232.75C120.287 232.561 120.198 232.311 120.197 232C120.196 231.688 120.284 231.437 120.462 231.248C120.64 231.058 120.877 230.963 121.174 230.962ZM121.175 231.496C121.049 231.497 120.952 231.541 120.886 231.631C120.819 231.716 120.786 231.839 120.787 231.998C120.787 232.158 120.821 232.282 120.888 232.371C120.955 232.46 121.051 232.504 121.177 232.503C121.303 232.503 121.4 232.458 121.466 232.369C121.533 232.28 121.566 232.156 121.566 231.996C121.565 231.837 121.531 231.714 121.464 231.629C121.398 231.54 121.301 231.496 121.175 231.496Z" fill="white"/>
<circle cx="78.7238" cy="254.832" r="2.56796" transform="rotate(-0.143263 78.7238 254.832)" fill="#394DFC"/>
<path d="M85.8945 256.818L84.817 253.149L85.6349 253.147L86.3658 256.177L87.0927 253.143L87.8271 253.141L88.5802 256.172L89.2904 253.138L90.0749 253.136L89.0158 256.811L88.1534 256.813L87.6365 254.811L87.4619 253.943L87.4508 253.943L87.2805 254.812L86.7791 256.816L85.8945 256.818ZM90.676 256.806L90.6668 253.134L93.4209 253.127L93.4224 253.745L91.4361 253.75L91.4384 254.662L93.0019 254.658L93.0033 255.248L91.4399 255.252L91.4422 256.187L93.5064 256.182L93.508 256.799L90.676 256.806ZM97.092 253.118L97.0936 253.736L95.8639 253.739L95.8716 256.793L95.1038 256.795L95.0961 253.741L93.8609 253.744L93.8594 253.126L97.092 253.118ZM98.4872 253.115L98.491 254.622L100.11 254.618L100.106 253.111L100.874 253.109L100.883 256.781L100.116 256.783L100.112 255.236L98.4926 255.24L98.4964 256.787L97.7286 256.789L97.7194 253.117L98.4872 253.115Z" fill="#8E91A5"/>
<path d="M110.762 256.97L110.761 256.447C111.205 256.149 111.561 255.887 111.827 255.66C112.094 255.429 112.284 255.218 112.399 255.024C112.517 254.831 112.576 254.64 112.575 254.451C112.575 254.28 112.523 254.141 112.419 254.034C112.314 253.923 112.168 253.868 111.979 253.868C111.771 253.869 111.608 253.94 111.49 254.081C111.375 254.222 111.312 254.422 111.302 254.682L110.639 254.433C110.66 254.059 110.795 253.767 111.043 253.559C111.295 253.347 111.621 253.24 112.022 253.239C112.318 253.239 112.563 253.294 112.756 253.404C112.953 253.511 113.1 253.654 113.197 253.832C113.298 254.009 113.348 254.2 113.349 254.404C113.35 254.757 113.217 255.087 112.951 255.396C112.688 255.701 112.279 256.024 111.723 256.367L111.723 256.373C111.805 256.369 111.913 256.365 112.046 256.361C112.183 256.353 112.3 256.349 112.397 256.349L113.409 256.346L113.411 256.964L110.762 256.97ZM115.279 257.015C114.957 257.015 114.684 256.949 114.461 256.816C114.242 256.683 114.061 256.48 113.92 256.206L114.609 255.859C114.657 256.022 114.734 256.154 114.838 256.253C114.942 256.353 115.094 256.403 115.295 256.403C115.499 256.402 115.658 256.348 115.773 256.24C115.891 256.132 115.95 255.978 115.949 255.778C115.949 255.577 115.893 255.426 115.781 255.322C115.674 255.218 115.516 255.167 115.308 255.167C115.004 255.168 114.78 255.258 114.636 255.436L114.034 255.326L114.257 253.289L116.477 253.284L116.479 253.901L114.838 253.905L114.729 254.802L114.712 254.874L114.723 254.874C114.801 254.788 114.906 254.721 115.04 254.673C115.177 254.621 115.333 254.594 115.507 254.594C115.744 254.593 115.949 254.641 116.119 254.737C116.294 254.833 116.428 254.968 116.521 255.142C116.614 255.312 116.661 255.509 116.662 255.731C116.662 256.013 116.6 256.251 116.474 256.444C116.352 256.634 116.186 256.777 115.974 256.874C115.767 256.967 115.535 257.014 115.279 257.015ZM118.085 253.224C118.382 253.223 118.62 253.317 118.798 253.506C118.977 253.695 119.066 253.945 119.067 254.257C119.068 254.568 118.98 254.819 118.802 255.008C118.624 255.198 118.387 255.293 118.091 255.294C117.794 255.295 117.556 255.201 117.378 255.012C117.199 254.823 117.11 254.573 117.109 254.261C117.108 253.95 117.196 253.699 117.374 253.51C117.551 253.32 117.789 253.225 118.085 253.224ZM117.911 256.952L120.378 253.274L120.99 253.273L118.523 256.951L117.911 256.952ZM118.087 253.753C117.961 253.753 117.864 253.798 117.798 253.887C117.731 253.976 117.698 254.1 117.699 254.26C117.699 254.419 117.733 254.544 117.8 254.633C117.867 254.718 117.963 254.76 118.089 254.76C118.215 254.759 118.312 254.717 118.378 254.631C118.445 254.542 118.478 254.418 118.477 254.258C118.477 254.099 118.443 253.974 118.376 253.886C118.309 253.797 118.213 253.752 118.087 253.753ZM120.805 254.931C121.102 254.93 121.339 255.024 121.518 255.213C121.696 255.402 121.786 255.652 121.787 255.963C121.787 256.275 121.699 256.526 121.521 256.715C121.344 256.905 121.107 257 120.81 257.001C120.513 257.002 120.276 256.908 120.097 256.719C119.919 256.53 119.829 256.28 119.828 255.968C119.827 255.657 119.916 255.406 120.093 255.217C120.271 255.027 120.508 254.932 120.805 254.931ZM120.806 255.465C120.68 255.465 120.584 255.51 120.517 255.599C120.451 255.685 120.418 255.807 120.418 255.967C120.418 256.126 120.452 256.251 120.519 256.339C120.586 256.428 120.683 256.473 120.809 256.472C120.935 256.472 121.031 256.427 121.098 256.338C121.164 256.249 121.197 256.124 121.197 255.965C121.197 255.805 121.163 255.683 121.096 255.598C121.029 255.509 120.932 255.465 120.806 255.465Z" fill="white"/>
<circle cx="78.7541" cy="266.816" r="2.56796" transform="rotate(-0.143263 78.7541 266.816)" fill="#DFA308"/>
<path d="M88.1694 265.124L86.8732 267.425L86.8767 268.799L86.1089 268.801L86.1054 267.427L84.7977 265.132L85.6156 265.13L86.2081 266.225L86.4878 266.803L86.7701 266.224L87.3571 265.126L88.1694 265.124ZM91.3883 265.733L89.4076 265.738L89.4099 266.668L90.9734 266.664L90.9749 267.287L89.4115 267.291L89.4152 268.793L88.6474 268.795L88.6382 265.123L91.3868 265.116L91.3883 265.733ZM92.8129 265.112L92.822 268.784L92.0542 268.786L92.045 265.114L92.8129 265.112Z" fill="#8E91A5"/>
<path d="M111.527 268.952L111.521 266.626C111.521 266.541 111.521 266.454 111.521 266.365C111.524 266.272 111.528 266.177 111.531 266.081C111.405 266.2 111.264 266.302 111.109 266.388C110.953 266.47 110.794 266.528 110.631 266.562L110.529 265.916C110.611 265.905 110.705 265.879 110.813 265.838C110.92 265.797 111.028 265.746 111.135 265.687C111.246 265.627 111.346 265.562 111.435 265.491C111.527 265.421 111.598 265.35 111.646 265.279L112.269 265.278L112.278 268.95L111.527 268.952ZM114.6 265.216C114.893 265.216 115.146 265.276 115.357 265.398C115.573 265.52 115.733 265.725 115.837 266.014L115.193 266.316C115.148 266.172 115.073 266.059 114.969 265.978C114.869 265.893 114.73 265.85 114.552 265.851C114.299 265.851 114.101 265.969 113.957 266.203C113.817 266.433 113.747 266.734 113.748 267.105L113.748 267.199L113.765 267.221C113.806 267.091 113.876 266.984 113.976 266.898C114.076 266.813 114.19 266.749 114.32 266.708C114.45 266.667 114.578 266.646 114.704 266.646C114.938 266.645 115.144 266.691 115.322 266.784C115.504 266.872 115.645 267.002 115.746 267.172C115.85 267.342 115.902 267.546 115.903 267.784C115.904 268.032 115.849 268.247 115.738 268.429C115.631 268.611 115.477 268.753 115.277 268.853C115.077 268.95 114.841 268.999 114.571 269C114.259 269.001 113.988 268.927 113.758 268.779C113.531 268.632 113.354 268.419 113.228 268.141C113.105 267.863 113.043 267.527 113.042 267.134C113.04 266.708 113.108 266.353 113.245 266.071C113.381 265.785 113.568 265.571 113.805 265.43C114.042 265.288 114.307 265.217 114.6 265.216ZM114.555 267.208C114.373 267.209 114.223 267.263 114.105 267.371C113.986 267.479 113.927 267.62 113.928 267.794C113.928 267.965 113.99 268.107 114.113 268.222C114.235 268.333 114.384 268.388 114.558 268.388C114.758 268.387 114.912 268.335 115.019 268.231C115.127 268.127 115.18 267.98 115.18 267.791C115.179 267.609 115.125 267.467 115.017 267.363C114.909 267.259 114.755 267.208 114.555 267.208ZM117.317 265.21C117.614 265.209 117.851 265.303 118.03 265.492C118.208 265.68 118.298 265.93 118.299 266.242C118.3 266.554 118.211 266.804 118.034 266.994C117.856 267.183 117.619 267.279 117.322 267.279C117.025 267.28 116.788 267.186 116.609 266.997C116.431 266.809 116.341 266.558 116.34 266.247C116.34 265.935 116.428 265.685 116.605 265.495C116.783 265.305 117.02 265.21 117.317 265.21ZM117.143 268.938L119.609 265.259L120.221 265.258L117.755 268.936L117.143 268.938ZM117.318 265.738C117.192 265.738 117.096 265.783 117.029 265.872C116.963 265.962 116.93 266.086 116.93 266.245C116.93 266.405 116.964 266.529 117.031 266.618C117.098 266.703 117.195 266.745 117.321 266.745C117.447 266.745 117.543 266.702 117.61 266.616C117.676 266.527 117.709 266.403 117.709 266.243C117.709 266.084 117.675 265.96 117.608 265.871C117.541 265.782 117.444 265.738 117.318 265.738ZM120.036 266.916C120.333 266.916 120.571 267.01 120.749 267.198C120.928 267.387 121.017 267.637 121.018 267.949C121.019 268.26 120.931 268.511 120.753 268.701C120.575 268.89 120.338 268.985 120.042 268.986C119.745 268.987 119.507 268.893 119.329 268.704C119.15 268.515 119.061 268.265 119.06 267.954C119.059 267.642 119.147 267.392 119.325 267.202C119.503 267.012 119.74 266.917 120.036 266.916ZM120.038 267.451C119.912 267.451 119.815 267.496 119.749 267.585C119.682 267.67 119.649 267.793 119.65 267.952C119.65 268.112 119.684 268.236 119.751 268.325C119.818 268.414 119.914 268.458 120.04 268.458C120.166 268.457 120.263 268.413 120.329 268.323C120.396 268.234 120.429 268.11 120.428 267.95C120.428 267.791 120.394 267.669 120.327 267.583C120.26 267.495 120.164 267.45 120.038 267.451Z" fill="white"/>
<circle cx="148.457" cy="242.673" r="2.56796" transform="rotate(-0.143263 148.457 242.673)" fill="#1CF69C"/>
<path d="M157.988 240.982L157.994 243.207C157.995 243.708 157.863 244.085 157.596 244.338C157.33 244.587 156.941 244.712 156.429 244.713C155.917 244.715 155.527 244.591 155.259 244.343C154.992 244.092 154.857 243.716 154.856 243.215L154.85 240.989L155.618 240.987L155.624 243.18C155.624 243.488 155.69 243.715 155.82 243.864C155.954 244.012 156.156 244.085 156.427 244.085C156.698 244.084 156.898 244.009 157.028 243.861C157.157 243.712 157.221 243.484 157.221 243.176L157.215 240.983L157.988 240.982ZM160.214 240.92C160.547 240.92 160.841 240.976 161.093 241.091C161.346 241.205 161.561 241.375 161.74 241.601L161.313 242.097C161.16 241.905 160.993 241.764 160.811 241.676C160.633 241.583 160.425 241.537 160.187 241.538C159.95 241.539 159.778 241.584 159.67 241.673C159.563 241.758 159.509 241.862 159.51 241.985C159.51 242.085 159.547 242.17 159.622 242.24C159.7 242.307 159.835 242.362 160.028 242.406L160.713 242.56C161.073 242.641 161.333 242.763 161.493 242.926C161.653 243.085 161.733 243.292 161.734 243.548C161.734 243.789 161.672 243.997 161.546 244.172C161.42 244.343 161.244 244.475 161.018 244.568C160.792 244.658 160.533 244.703 160.24 244.704C159.858 244.705 159.522 244.639 159.232 244.506C158.943 244.373 158.714 244.201 158.547 243.99L158.979 243.472C159.106 243.649 159.279 243.797 159.498 243.916C159.721 244.03 159.967 244.087 160.238 244.086C160.465 244.086 160.639 244.048 160.761 243.974C160.883 243.895 160.944 243.786 160.944 243.645C160.944 243.552 160.91 243.471 160.843 243.4C160.78 243.33 160.661 243.276 160.486 243.24L159.741 243.075C159.414 243.005 159.161 242.891 158.983 242.732C158.805 242.573 158.715 242.356 158.714 242.081C158.714 241.863 158.773 241.666 158.891 241.491C159.009 241.317 159.179 241.179 159.402 241.078C159.628 240.974 159.898 240.921 160.214 240.92ZM165.255 240.963L165.256 241.581L164.027 241.584L164.034 244.639L163.266 244.641L163.259 241.586L162.024 241.589L162.022 240.971L165.255 240.963Z" fill="#8E91A5"/>
<path d="M181.175 241.137L184.085 241.13L184.086 241.714C183.628 242.175 183.306 242.66 183.122 243.169C182.938 243.674 182.846 244.219 182.848 244.805L182.086 244.807C182.084 244.24 182.183 243.702 182.382 243.193C182.581 242.684 182.893 242.207 183.319 241.761L181.177 241.766L181.175 241.137ZM185.436 241.071C185.733 241.07 185.97 241.164 186.149 241.353C186.327 241.542 186.417 241.792 186.418 242.104C186.419 242.415 186.33 242.666 186.153 242.855C185.975 243.045 185.738 243.14 185.441 243.141C185.144 243.142 184.907 243.048 184.728 242.859C184.55 242.67 184.46 242.42 184.459 242.108C184.458 241.797 184.547 241.546 184.724 241.357C184.902 241.167 185.139 241.072 185.436 241.071ZM185.262 244.799L187.728 241.121L188.34 241.119L185.874 244.798L185.262 244.799ZM185.437 241.6C185.311 241.6 185.215 241.645 185.148 241.734C185.082 241.823 185.049 241.947 185.049 242.107C185.049 242.266 185.083 242.391 185.15 242.479C185.217 242.565 185.314 242.607 185.44 242.607C185.566 242.606 185.662 242.564 185.729 242.478C185.795 242.389 185.828 242.265 185.828 242.105C185.828 241.946 185.794 241.821 185.727 241.732C185.66 241.644 185.563 241.599 185.437 241.6ZM188.155 242.778C188.452 242.777 188.69 242.871 188.868 243.06C189.047 243.249 189.136 243.499 189.137 243.81C189.138 244.122 189.05 244.373 188.872 244.562C188.694 244.752 188.457 244.847 188.161 244.848C187.864 244.848 187.626 244.755 187.448 244.566C187.269 244.377 187.179 244.127 187.179 243.815C187.178 243.504 187.266 243.253 187.444 243.064C187.621 242.874 187.859 242.779 188.155 242.778ZM188.157 243.312C188.031 243.312 187.934 243.357 187.868 243.446C187.801 243.532 187.768 243.654 187.768 243.814C187.769 243.973 187.803 244.098 187.87 244.186C187.937 244.275 188.033 244.319 188.159 244.319C188.285 244.319 188.382 244.274 188.448 244.185C188.515 244.096 188.548 243.971 188.547 243.812C188.547 243.652 188.513 243.53 188.446 243.445C188.379 243.356 188.283 243.312 188.157 243.312Z" fill="white"/>
<circle cx="148.426" cy="230.69" r="2.56796" transform="rotate(-0.143263 148.426 230.69)" fill="#901DEA"/>
<path d="M154.902 232.678L154.892 229.006L156.5 229.002C156.946 229.001 157.274 229.087 157.486 229.261C157.698 229.435 157.804 229.681 157.805 230C157.805 230.197 157.746 230.371 157.628 230.523C157.51 230.676 157.336 230.773 157.106 230.814L157.106 230.82C157.362 230.856 157.559 230.952 157.696 231.108C157.834 231.263 157.903 231.448 157.904 231.663C157.904 231.979 157.79 232.226 157.561 232.404C157.335 232.583 157.003 232.673 156.565 232.674L154.902 232.678ZM155.642 230.545L156.404 230.543C156.808 230.542 157.01 230.384 157.009 230.069C157.009 229.754 156.806 229.596 156.402 229.597L155.64 229.599L155.642 230.545ZM155.646 232.097L156.497 232.095C156.701 232.095 156.853 232.054 156.953 231.972C157.057 231.886 157.108 231.766 157.108 231.61C157.107 231.458 157.055 231.341 156.951 231.26C156.851 231.175 156.699 231.132 156.495 231.133L155.643 231.135L155.646 232.097ZM161.696 228.989L161.702 231.214C161.703 231.715 161.571 232.092 161.304 232.345C161.038 232.594 160.649 232.719 160.137 232.721C159.625 232.722 159.235 232.599 158.967 232.351C158.7 232.099 158.565 231.723 158.564 231.222L158.558 228.997L159.326 228.995L159.332 231.187C159.332 231.495 159.398 231.723 159.528 231.871C159.662 232.019 159.864 232.092 160.135 232.092C160.406 232.091 160.606 232.016 160.735 231.868C160.865 231.719 160.929 231.491 160.928 231.183L160.923 228.991L161.696 228.989ZM163.922 228.928C164.255 228.927 164.549 228.984 164.801 229.098C165.054 229.212 165.269 229.382 165.448 229.608L165.021 230.104C164.868 229.912 164.701 229.771 164.519 229.683C164.341 229.591 164.133 229.545 163.895 229.545C163.658 229.546 163.486 229.591 163.378 229.68C163.271 229.766 163.217 229.87 163.218 229.992C163.218 230.092 163.255 230.177 163.33 230.248C163.408 230.314 163.543 230.37 163.736 230.414L164.421 230.568C164.781 230.648 165.041 230.77 165.201 230.933C165.361 231.092 165.441 231.3 165.442 231.556C165.442 231.797 165.38 232.005 165.254 232.179C165.128 232.35 164.952 232.482 164.726 232.576C164.5 232.665 164.241 232.71 163.948 232.711C163.566 232.712 163.23 232.646 162.94 232.513C162.651 232.38 162.422 232.209 162.255 231.997L162.687 231.479C162.814 231.657 162.987 231.805 163.206 231.923C163.429 232.037 163.675 232.094 163.946 232.093C164.172 232.093 164.347 232.055 164.469 231.981C164.591 231.903 164.652 231.793 164.652 231.652C164.651 231.559 164.618 231.478 164.551 231.408C164.488 231.337 164.369 231.284 164.194 231.247L163.448 231.082C163.122 231.012 162.869 230.898 162.691 230.739C162.512 230.58 162.423 230.363 162.422 230.089C162.422 229.87 162.481 229.673 162.599 229.498C162.717 229.324 162.887 229.186 163.11 229.085C163.336 228.981 163.606 228.928 163.922 228.928ZM167.58 228.974C168.155 228.973 168.601 229.131 168.917 229.449C169.233 229.767 169.392 230.22 169.393 230.806C169.395 231.392 169.238 231.845 168.924 232.164C168.609 232.484 168.164 232.645 167.589 232.646L166.171 232.65L166.162 228.978L167.58 228.974ZM167.549 232.034C167.898 232.033 168.159 231.929 168.333 231.721C168.51 231.509 168.599 231.205 168.598 230.808C168.597 230.411 168.507 230.109 168.328 229.901C168.153 229.69 167.892 229.585 167.543 229.586L166.931 229.588L166.937 232.036L167.549 232.034Z" fill="#8E91A5"/>
<path d="M181.628 232.825L181.622 230.5C181.622 230.414 181.621 230.327 181.621 230.238C181.625 230.145 181.628 230.051 181.632 229.954C181.506 230.073 181.365 230.176 181.209 230.261C181.054 230.343 180.895 230.401 180.731 230.435L180.63 229.79C180.711 229.779 180.806 229.752 180.913 229.711C181.021 229.67 181.128 229.62 181.236 229.56C181.347 229.501 181.447 229.436 181.536 229.365C181.628 229.294 181.698 229.223 181.746 229.153L182.37 229.151L182.379 232.823L181.628 232.825ZM184.616 232.874C184.145 232.875 183.781 232.716 183.524 232.398C183.271 232.076 183.144 231.605 183.142 230.985C183.141 230.366 183.265 229.897 183.517 229.577C183.772 229.254 184.135 229.091 184.606 229.09C185.077 229.089 185.439 229.249 185.692 229.571C185.949 229.89 186.078 230.359 186.08 230.978C186.081 231.598 185.955 232.069 185.699 232.392C185.448 232.712 185.087 232.872 184.616 232.874ZM184.614 232.256C184.852 232.255 185.027 232.153 185.142 231.949C185.256 231.741 185.313 231.418 185.312 230.98C185.311 230.542 185.253 230.222 185.137 230.018C185.022 229.811 184.845 229.707 184.608 229.708C184.37 229.708 184.194 229.813 184.08 230.021C183.965 230.225 183.909 230.546 183.91 230.984C183.911 231.421 183.969 231.744 184.085 231.951C184.2 232.155 184.377 232.257 184.614 232.256ZM187.543 229.083C187.839 229.082 188.077 229.176 188.255 229.365C188.434 229.553 188.524 229.804 188.524 230.115C188.525 230.427 188.437 230.677 188.259 230.867C188.082 231.057 187.844 231.152 187.548 231.153C187.251 231.153 187.013 231.059 186.835 230.871C186.656 230.682 186.567 230.432 186.566 230.12C186.565 229.809 186.653 229.558 186.831 229.368C187.009 229.179 187.246 229.083 187.543 229.083ZM187.368 232.811L189.835 229.133L190.447 229.131L187.98 232.809L187.368 232.811ZM187.544 229.611C187.418 229.612 187.321 229.656 187.255 229.746C187.188 229.835 187.155 229.959 187.156 230.119C187.156 230.278 187.19 230.402 187.257 230.491C187.324 230.576 187.42 230.619 187.546 230.618C187.672 230.618 187.769 230.575 187.835 230.49C187.902 230.401 187.935 230.276 187.935 230.117C187.934 229.957 187.9 229.833 187.833 229.744C187.766 229.655 187.67 229.611 187.544 229.611ZM190.262 230.79C190.559 230.789 190.796 230.883 190.975 231.072C191.153 231.26 191.243 231.51 191.244 231.822C191.245 232.134 191.156 232.384 190.979 232.574C190.801 232.763 190.564 232.859 190.267 232.859C189.97 232.86 189.733 232.766 189.554 232.577C189.376 232.389 189.286 232.139 189.285 231.827C189.285 231.515 189.373 231.265 189.55 231.075C189.728 230.886 189.965 230.79 190.262 230.79ZM190.263 231.324C190.137 231.324 190.041 231.369 189.974 231.458C189.908 231.544 189.875 231.666 189.875 231.825C189.875 231.985 189.909 232.109 189.976 232.198C190.043 232.287 190.14 232.331 190.266 232.331C190.392 232.331 190.488 232.286 190.555 232.197C190.621 232.107 190.654 231.983 190.654 231.824C190.654 231.664 190.62 231.542 190.553 231.457C190.486 231.368 190.389 231.323 190.263 231.324Z" fill="white"/>
<circle cx="148.486" cy="254.658" r="2.56796" transform="rotate(-0.143263 148.486 254.658)" fill="#394DFC"/>
<path d="M158.103 255.625C157.992 255.985 157.798 256.255 157.521 256.433C157.243 256.609 156.918 256.697 156.548 256.697C156.184 256.698 155.869 256.623 155.601 256.472C155.337 256.32 155.133 256.104 154.987 255.822C154.846 255.541 154.774 255.203 154.774 254.81C154.773 254.417 154.844 254.079 154.988 253.797C155.132 253.515 155.335 253.297 155.598 253.144C155.861 252.992 156.171 252.915 156.527 252.914C156.902 252.913 157.223 252.992 157.49 253.151C157.761 253.306 157.947 253.543 158.048 253.862L157.354 254.158C157.29 253.936 157.193 253.778 157.063 253.686C156.933 253.59 156.766 253.542 156.562 253.543C156.258 253.543 156.015 253.653 155.834 253.873C155.656 254.088 155.568 254.4 155.569 254.808C155.57 255.212 155.656 255.524 155.827 255.742C155.999 255.961 156.246 256.069 156.568 256.069C156.769 256.068 156.941 256.014 157.085 255.906C157.233 255.798 157.337 255.635 157.396 255.416L158.103 255.625ZM159.518 252.962L159.522 254.47L161.141 254.466L161.137 252.958L161.905 252.956L161.914 256.628L161.147 256.63L161.143 255.084L159.524 255.088L159.528 256.634L158.76 256.636L158.751 252.964L159.518 252.962ZM164.204 252.895C164.538 252.894 164.831 252.951 165.084 253.065C165.336 253.179 165.552 253.35 165.731 253.575L165.303 254.072C165.151 253.879 164.984 253.739 164.802 253.65C164.623 253.558 164.416 253.512 164.178 253.512C163.941 253.513 163.768 253.558 163.661 253.647C163.554 253.733 163.5 253.837 163.5 253.959C163.501 254.059 163.538 254.145 163.612 254.215C163.69 254.282 163.826 254.337 164.019 254.381L164.704 254.535C165.064 254.616 165.324 254.737 165.484 254.9C165.643 255.059 165.724 255.267 165.724 255.523C165.725 255.764 165.662 255.972 165.537 256.146C165.411 256.317 165.235 256.449 165.009 256.543C164.783 256.632 164.524 256.677 164.231 256.678C163.849 256.679 163.513 256.613 163.223 256.48C162.933 256.348 162.705 256.176 162.537 255.965L162.97 255.446C163.097 255.624 163.269 255.772 163.489 255.89C163.711 256.004 163.958 256.061 164.229 256.061C164.455 256.06 164.63 256.023 164.752 255.948C164.874 255.87 164.935 255.76 164.935 255.619C164.934 255.527 164.901 255.445 164.834 255.375C164.771 255.304 164.652 255.251 164.477 255.214L163.731 255.049C163.405 254.98 163.152 254.865 162.974 254.706C162.795 254.547 162.706 254.33 162.705 254.056C162.705 253.837 162.763 253.64 162.882 253.466C163 253.291 163.17 253.153 163.392 253.053C163.618 252.948 163.889 252.896 164.204 252.895ZM166.454 256.617L166.444 252.945L168.052 252.941C168.497 252.94 168.826 253.026 169.038 253.2C169.25 253.374 169.356 253.62 169.357 253.939C169.357 254.136 169.298 254.31 169.18 254.463C169.062 254.615 168.888 254.712 168.658 254.753L168.658 254.759C168.914 254.795 169.111 254.891 169.248 255.047C169.386 255.202 169.455 255.387 169.455 255.602C169.456 255.918 169.342 256.165 169.112 256.343C168.887 256.522 168.555 256.612 168.117 256.613L166.454 256.617ZM167.194 254.484L167.956 254.482C168.36 254.481 168.562 254.323 168.561 254.008C168.56 253.693 168.358 253.535 167.954 253.536L167.191 253.538L167.194 254.484ZM167.198 256.037L168.049 256.034C168.253 256.034 168.405 255.993 168.505 255.911C168.608 255.825 168.66 255.705 168.66 255.549C168.659 255.397 168.607 255.28 168.503 255.199C168.403 255.114 168.251 255.071 168.046 255.072L167.195 255.074L167.198 256.037Z" fill="#8E91A5"/>
<path d="M180.953 256.795L180.952 256.272C181.396 255.974 181.752 255.712 182.018 255.485C182.285 255.254 182.475 255.042 182.59 254.849C182.708 254.656 182.767 254.465 182.766 254.276C182.766 254.105 182.714 253.966 182.61 253.859C182.505 253.748 182.359 253.692 182.17 253.693C181.962 253.693 181.799 253.764 181.68 253.905C181.566 254.047 181.503 254.247 181.493 254.507L180.83 254.258C180.851 253.883 180.986 253.592 181.234 253.384C181.486 253.172 181.812 253.065 182.213 253.064C182.509 253.063 182.754 253.118 182.947 253.229C183.144 253.336 183.291 253.479 183.388 253.656C183.489 253.834 183.539 254.025 183.54 254.229C183.541 254.581 183.408 254.912 183.142 255.22C182.879 255.525 182.47 255.849 181.914 256.192L181.914 256.197C181.996 256.193 182.103 256.189 182.237 256.185C182.374 256.178 182.491 256.174 182.587 256.173L183.6 256.171L183.602 256.788L180.953 256.795ZM185.038 253.057C185.335 253.056 185.572 253.15 185.751 253.339C185.929 253.528 186.019 253.778 186.02 254.089C186.021 254.401 185.932 254.652 185.755 254.841C185.577 255.031 185.34 255.126 185.043 255.127C184.746 255.127 184.509 255.033 184.33 254.845C184.152 254.656 184.062 254.406 184.061 254.094C184.061 253.783 184.149 253.532 184.326 253.342C184.504 253.153 184.741 253.058 185.038 253.057ZM184.864 256.785L187.33 253.107L187.942 253.105L185.476 256.784L184.864 256.785ZM185.039 253.586C184.913 253.586 184.817 253.631 184.75 253.72C184.684 253.809 184.651 253.933 184.651 254.093C184.651 254.252 184.685 254.376 184.752 254.465C184.819 254.55 184.916 254.593 185.042 254.593C185.168 254.592 185.264 254.549 185.331 254.464C185.397 254.375 185.43 254.25 185.43 254.091C185.43 253.931 185.396 253.807 185.329 253.718C185.262 253.629 185.165 253.585 185.039 253.586ZM187.757 254.764C188.054 254.763 188.292 254.857 188.47 255.046C188.649 255.235 188.738 255.485 188.739 255.796C188.74 256.108 188.652 256.358 188.474 256.548C188.296 256.738 188.059 256.833 187.763 256.834C187.466 256.834 187.228 256.74 187.05 256.552C186.871 256.363 186.782 256.113 186.781 255.801C186.78 255.49 186.868 255.239 187.046 255.049C187.224 254.86 187.461 254.765 187.757 254.764ZM187.759 255.298C187.633 255.298 187.536 255.343 187.47 255.432C187.403 255.518 187.37 255.64 187.371 255.8C187.371 255.959 187.405 256.083 187.472 256.172C187.539 256.261 187.635 256.305 187.761 256.305C187.887 256.305 187.984 256.26 188.05 256.171C188.117 256.082 188.15 255.957 188.149 255.798C188.149 255.638 188.115 255.516 188.048 255.431C187.981 255.342 187.885 255.298 187.759 255.298Z" fill="white"/>
<circle cx="148.516" cy="266.642" r="2.56796" transform="rotate(-0.143263 148.516 266.642)" fill="#DFA308"/>
<path d="M156.568 264.897C156.931 264.896 157.245 264.972 157.509 265.123C157.772 265.275 157.975 265.491 158.117 265.773C158.262 266.054 158.335 266.392 158.336 266.785C158.337 267.178 158.266 267.516 158.122 267.798C157.982 268.08 157.78 268.298 157.517 268.45C157.254 268.603 156.941 268.68 156.577 268.681C156.214 268.682 155.898 268.606 155.631 268.455C155.367 268.304 155.163 268.087 155.017 267.806C154.876 267.524 154.804 267.187 154.803 266.794C154.802 266.4 154.872 266.063 155.012 265.78C155.156 265.498 155.36 265.281 155.623 265.128C155.889 264.975 156.204 264.898 156.568 264.897ZM156.569 265.526C156.258 265.527 156.017 265.637 155.847 265.856C155.681 266.072 155.598 266.384 155.599 266.792C155.6 267.2 155.684 267.513 155.852 267.731C156.023 267.946 156.264 268.053 156.576 268.052C156.884 268.051 157.121 267.943 157.287 267.728C157.457 267.508 157.542 267.195 157.541 266.787C157.54 266.379 157.454 266.067 157.282 265.853C157.115 265.634 156.877 265.525 156.569 265.526ZM160.906 265.832L160.907 266.4L160.017 266.402L160.02 267.71C160.02 267.843 160.054 267.941 160.121 268.004C160.192 268.063 160.286 268.093 160.405 268.093C160.501 268.092 160.583 268.079 160.65 268.053C160.72 268.023 160.783 267.984 160.839 267.936L160.962 268.442C160.87 268.512 160.757 268.568 160.623 268.61C160.494 268.651 160.355 268.671 160.206 268.672C159.928 268.672 159.7 268.61 159.521 268.484C159.347 268.355 159.259 268.138 159.258 267.834L159.255 266.404L158.743 266.405L158.741 265.838L159.253 265.837L159.252 265.197L160.013 264.983L160.015 265.835L160.906 265.832ZM161.472 268.613L161.462 264.613L162.224 264.611L162.228 266.302C162.317 266.124 162.439 265.992 162.595 265.906C162.75 265.817 162.926 265.772 163.123 265.771C163.412 265.771 163.652 265.855 163.841 266.025C164.031 266.192 164.126 266.444 164.127 266.781L164.131 268.606L163.369 268.608L163.365 267.006C163.364 266.765 163.318 266.6 163.225 266.511C163.132 266.418 163.013 266.372 162.868 266.373C162.761 266.373 162.659 266.399 162.562 266.451C162.466 266.5 162.387 266.582 162.324 266.697C162.261 266.808 162.23 266.957 162.23 267.142L162.234 268.611L161.472 268.613ZM166.208 268.657C165.77 268.658 165.419 268.533 165.155 268.281C164.891 268.026 164.759 267.67 164.757 267.214C164.757 266.91 164.815 266.65 164.933 266.434C165.052 266.219 165.216 266.053 165.427 265.938C165.642 265.822 165.887 265.764 166.161 265.764C166.443 265.763 166.683 265.82 166.88 265.934C167.076 266.045 167.227 266.199 167.331 266.395C167.436 266.588 167.488 266.808 167.489 267.057C167.489 267.131 167.487 267.201 167.484 267.268C167.48 267.335 167.475 267.394 167.468 267.446L165.504 267.451C165.534 267.666 165.608 267.827 165.727 267.935C165.85 268.038 166.008 268.09 166.201 268.089C166.364 268.089 166.495 268.057 166.595 267.994C166.695 267.93 166.773 267.843 166.828 267.732L167.435 267.964C167.347 268.183 167.192 268.354 166.969 268.477C166.747 268.596 166.493 268.656 166.208 268.657ZM166.157 266.326C165.797 266.326 165.581 266.525 165.508 266.923L166.76 266.919C166.737 266.727 166.673 266.58 166.569 266.48C166.469 266.377 166.332 266.325 166.157 266.326ZM168.139 268.596L168.132 265.814L168.794 265.813L168.845 266.358C168.915 266.168 169.021 266.022 169.161 265.917C169.306 265.81 169.487 265.755 169.706 265.755C169.836 265.754 169.936 265.775 170.007 265.815L169.919 266.455C169.882 266.444 169.836 266.435 169.78 266.428C169.728 266.417 169.66 266.411 169.574 266.412C169.459 266.412 169.35 266.44 169.246 266.496C169.146 266.548 169.063 266.63 168.996 266.741C168.93 266.849 168.897 266.986 168.897 267.153L168.901 268.594L168.139 268.596Z" fill="#8E91A5"/>
<path d="M182.145 268.775L182.139 266.449C182.139 266.364 182.139 266.277 182.139 266.188C182.142 266.095 182.146 266.001 182.149 265.904C182.023 266.023 181.883 266.125 181.727 266.211C181.571 266.293 181.412 266.351 181.249 266.385L181.147 265.74C181.229 265.728 181.323 265.702 181.431 265.661C181.538 265.62 181.646 265.57 181.753 265.51C181.864 265.45 181.964 265.385 182.053 265.315C182.146 265.244 182.216 265.173 182.264 265.103L182.887 265.101L182.896 268.773L182.145 268.775ZM184.523 265.041C184.82 265.041 185.057 265.135 185.236 265.323C185.414 265.512 185.504 265.762 185.505 266.074C185.505 266.385 185.417 266.636 185.24 266.826C185.062 267.015 184.825 267.11 184.528 267.111C184.231 267.112 183.994 267.018 183.815 266.829C183.637 266.64 183.547 266.39 183.546 266.079C183.545 265.767 183.634 265.516 183.811 265.327C183.989 265.137 184.226 265.042 184.523 265.041ZM184.349 268.77L186.815 265.091L187.427 265.09L184.961 268.768L184.349 268.77ZM184.524 265.57C184.398 265.57 184.302 265.615 184.235 265.704C184.169 265.793 184.136 265.918 184.136 266.077C184.136 266.237 184.17 266.361 184.237 266.45C184.304 266.535 184.401 266.577 184.527 266.577C184.653 266.577 184.749 266.534 184.816 266.448C184.882 266.359 184.915 266.235 184.915 266.075C184.915 265.916 184.881 265.792 184.814 265.703C184.747 265.614 184.65 265.57 184.524 265.57ZM187.242 266.748C187.539 266.747 187.777 266.841 187.955 267.03C188.134 267.219 188.223 267.469 188.224 267.781C188.225 268.092 188.137 268.343 187.959 268.532C187.781 268.722 187.544 268.817 187.248 268.818C186.951 268.819 186.713 268.725 186.535 268.536C186.356 268.347 186.266 268.097 186.266 267.786C186.265 267.474 186.353 267.223 186.531 267.034C186.708 266.844 186.946 266.749 187.242 266.748ZM187.244 267.282C187.118 267.283 187.021 267.327 186.955 267.417C186.888 267.502 186.855 267.625 186.855 267.784C186.856 267.944 186.89 268.068 186.957 268.157C187.024 268.245 187.12 268.29 187.246 268.289C187.372 268.289 187.469 268.244 187.535 268.155C187.602 268.066 187.635 267.942 187.634 267.782C187.634 267.623 187.6 267.5 187.533 267.415C187.466 267.326 187.37 267.282 187.244 267.282Z" fill="white"/>
<rect x="183.654" y="120.937" width="23.5396" height="16.6917" rx="5.13591" transform="rotate(-0.143263 183.654 120.937)" fill="white" fill-opacity="0.1"/>
<path d="M191.214 124.454L191.219 126.508C191.22 126.97 191.098 127.318 190.852 127.552C190.606 127.782 190.247 127.897 189.774 127.898C189.302 127.9 188.942 127.786 188.695 127.557C188.448 127.325 188.324 126.978 188.323 126.515L188.317 124.461L189.026 124.459L189.031 126.483C189.032 126.767 189.092 126.977 189.213 127.114C189.336 127.251 189.523 127.319 189.773 127.318C190.023 127.317 190.208 127.248 190.327 127.111C190.447 126.974 190.506 126.763 190.505 126.479L190.5 124.455L191.214 124.454ZM193.268 124.397C193.576 124.396 193.847 124.449 194.08 124.554C194.313 124.66 194.512 124.817 194.677 125.025L194.283 125.483C194.142 125.306 193.987 125.176 193.819 125.094C193.655 125.009 193.463 124.967 193.244 124.967C193.025 124.968 192.866 125.009 192.767 125.092C192.667 125.171 192.618 125.267 192.618 125.38C192.619 125.472 192.653 125.551 192.722 125.616C192.794 125.677 192.919 125.728 193.097 125.769L193.729 125.911C194.061 125.986 194.301 126.098 194.449 126.248C194.596 126.395 194.671 126.587 194.671 126.823C194.672 127.046 194.614 127.237 194.498 127.399C194.382 127.556 194.22 127.678 194.011 127.764C193.802 127.847 193.563 127.889 193.292 127.89C192.94 127.89 192.63 127.83 192.362 127.707C192.095 127.584 191.884 127.426 191.729 127.231L192.129 126.752C192.245 126.916 192.405 127.053 192.607 127.162C192.813 127.268 193.041 127.32 193.291 127.319C193.5 127.319 193.661 127.284 193.773 127.216C193.886 127.143 193.942 127.042 193.942 126.912C193.942 126.827 193.911 126.751 193.849 126.686C193.791 126.621 193.681 126.572 193.52 126.538L192.831 126.386C192.53 126.322 192.297 126.216 192.132 126.069C191.967 125.922 191.885 125.722 191.884 125.469C191.884 125.267 191.938 125.085 192.047 124.924C192.156 124.763 192.313 124.636 192.519 124.543C192.727 124.446 192.977 124.398 193.268 124.397ZM196.645 124.44C197.176 124.439 197.587 124.585 197.879 124.879C198.171 125.172 198.317 125.59 198.319 126.131C198.32 126.672 198.176 127.09 197.885 127.385C197.595 127.68 197.185 127.828 196.654 127.83L195.344 127.833L195.336 124.443L196.645 124.44ZM196.616 127.265C196.938 127.264 197.179 127.168 197.34 126.976C197.504 126.78 197.585 126.499 197.584 126.133C197.583 125.766 197.501 125.487 197.336 125.296C197.174 125.101 196.933 125.004 196.611 125.005L196.046 125.007L196.052 127.266L196.616 127.265ZM201.935 126.882C201.833 127.214 201.654 127.463 201.398 127.628C201.141 127.789 200.842 127.871 200.499 127.872C200.164 127.872 199.873 127.803 199.626 127.663C199.382 127.523 199.194 127.324 199.059 127.064C198.929 126.804 198.863 126.492 198.862 126.129C198.861 125.766 198.927 125.455 199.06 125.194C199.193 124.934 199.381 124.733 199.623 124.592C199.866 124.451 200.152 124.38 200.48 124.379C200.826 124.378 201.123 124.451 201.37 124.598C201.62 124.741 201.792 124.96 201.885 125.254L201.243 125.528C201.185 125.322 201.095 125.177 200.975 125.092C200.855 125.003 200.701 124.959 200.513 124.959C200.232 124.96 200.008 125.062 199.841 125.264C199.677 125.463 199.595 125.751 199.596 126.128C199.597 126.501 199.677 126.788 199.835 126.99C199.993 127.191 200.221 127.292 200.519 127.291C200.703 127.291 200.863 127.241 200.996 127.141C201.133 127.041 201.228 126.89 201.282 126.688L201.935 126.882Z" fill="#8E91A5"/>
<path d="M189.435 133.899C189.137 133.9 188.885 133.839 188.68 133.716C188.477 133.593 188.311 133.406 188.18 133.153L188.816 132.832C188.861 132.983 188.931 133.104 189.027 133.197C189.124 133.289 189.264 133.335 189.449 133.334C189.637 133.334 189.784 133.284 189.89 133.184C190 133.085 190.054 132.942 190.054 132.757C190.053 132.573 190.001 132.432 189.898 132.337C189.799 132.241 189.653 132.194 189.462 132.194C189.181 132.195 188.974 132.277 188.841 132.442L188.286 132.341L188.492 130.461L190.541 130.455L190.542 131.025L189.027 131.029L188.927 131.856L188.911 131.923L188.922 131.923C188.993 131.844 189.091 131.782 189.214 131.738C189.34 131.689 189.484 131.665 189.645 131.665C189.864 131.664 190.053 131.708 190.21 131.797C190.372 131.885 190.495 132.01 190.581 132.171C190.667 132.328 190.71 132.509 190.711 132.715C190.712 132.975 190.654 133.194 190.538 133.373C190.425 133.547 190.272 133.68 190.077 133.769C189.885 133.855 189.671 133.899 189.435 133.899ZM191.289 133.843L191.288 133.36C191.698 133.086 192.026 132.843 192.272 132.634C192.518 132.421 192.694 132.225 192.8 132.047C192.909 131.869 192.963 131.692 192.963 131.518C192.962 131.36 192.914 131.232 192.818 131.133C192.722 131.03 192.586 130.979 192.412 130.98C192.22 130.98 192.07 131.046 191.96 131.176C191.855 131.306 191.797 131.491 191.787 131.731L191.175 131.502C191.195 131.156 191.319 130.887 191.548 130.694C191.781 130.499 192.082 130.4 192.451 130.399C192.725 130.399 192.951 130.449 193.13 130.552C193.311 130.65 193.447 130.782 193.536 130.946C193.629 131.11 193.676 131.286 193.676 131.475C193.677 131.8 193.555 132.105 193.309 132.39C193.067 132.671 192.689 132.97 192.176 133.286L192.176 133.291C192.252 133.288 192.351 133.284 192.474 133.28C192.601 133.273 192.709 133.27 192.798 133.269L193.732 133.267L193.734 133.837L191.289 133.843ZM195.06 130.393C195.333 130.392 195.553 130.479 195.718 130.653C195.882 130.827 195.965 131.058 195.966 131.346C195.967 131.633 195.885 131.865 195.721 132.04C195.557 132.215 195.338 132.303 195.064 132.303C194.79 132.304 194.571 132.217 194.406 132.043C194.241 131.869 194.159 131.638 194.158 131.35C194.157 131.063 194.239 130.831 194.403 130.656C194.567 130.481 194.786 130.393 195.06 130.393ZM194.899 133.834L197.176 130.439L197.741 130.437L195.464 133.833L194.899 133.834ZM195.061 130.881C194.944 130.881 194.855 130.922 194.794 131.005C194.733 131.087 194.702 131.202 194.702 131.349C194.703 131.496 194.734 131.611 194.796 131.693C194.858 131.771 194.947 131.811 195.063 131.81C195.18 131.81 195.268 131.77 195.33 131.691C195.391 131.609 195.422 131.494 195.421 131.347C195.421 131.2 195.39 131.085 195.328 131.003C195.266 130.921 195.177 130.88 195.061 130.881ZM197.57 131.968C197.844 131.968 198.063 132.054 198.228 132.229C198.393 132.403 198.475 132.634 198.476 132.921C198.477 133.209 198.395 133.44 198.231 133.615C198.067 133.79 197.849 133.878 197.575 133.879C197.301 133.88 197.081 133.793 196.917 133.619C196.752 133.444 196.669 133.213 196.668 132.926C196.668 132.638 196.749 132.407 196.913 132.232C197.077 132.057 197.296 131.969 197.57 131.968ZM197.571 132.461C197.455 132.462 197.366 132.503 197.304 132.585C197.243 132.664 197.212 132.777 197.213 132.924C197.213 133.072 197.244 133.186 197.306 133.268C197.368 133.35 197.457 133.391 197.573 133.391C197.69 133.391 197.779 133.349 197.84 133.267C197.902 133.185 197.932 133.07 197.932 132.923C197.931 132.775 197.9 132.663 197.838 132.584C197.777 132.502 197.687 132.461 197.571 132.461Z" fill="white"/>
<path d="M133.681 173.865L133.672 170.287C133.672 170.124 133.671 169.958 133.671 169.788C133.677 169.612 133.679 169.434 133.679 169.252C133.472 169.447 133.241 169.614 132.984 169.752C132.733 169.891 132.473 169.986 132.203 170.037L132.049 168.7C132.262 168.674 132.494 168.608 132.745 168.501C133.002 168.393 133.24 168.264 133.46 168.113C133.679 167.955 133.839 167.801 133.939 167.65L135.229 167.647L135.244 173.861L133.681 173.865ZM139.142 167.543C139.638 167.542 140.078 167.644 140.461 167.85C140.851 168.057 141.131 168.411 141.302 168.912L139.985 169.537C139.922 169.318 139.812 169.145 139.654 169.02C139.503 168.889 139.299 168.823 139.042 168.824C138.678 168.825 138.389 168.989 138.177 169.316C137.964 169.636 137.859 170.082 137.86 170.653L137.86 170.804L137.879 170.861C137.948 170.672 138.064 170.512 138.227 170.379C138.389 170.247 138.574 170.149 138.781 170.086C138.988 170.017 139.195 169.982 139.403 169.981C139.785 169.98 140.128 170.055 140.429 170.204C140.731 170.354 140.967 170.57 141.137 170.852C141.314 171.134 141.402 171.47 141.403 171.859C141.404 172.286 141.308 172.657 141.114 172.971C140.92 173.279 140.648 173.518 140.297 173.689C139.952 173.859 139.544 173.945 139.073 173.946C138.54 173.947 138.069 173.832 137.66 173.601C137.258 173.364 136.943 173.013 136.716 172.549C136.495 172.079 136.384 171.498 136.382 170.808C136.38 170.073 136.501 169.464 136.745 168.98C136.988 168.496 137.317 168.138 137.731 167.904C138.151 167.665 138.621 167.544 139.142 167.543ZM139.038 171.074C138.787 171.075 138.577 171.151 138.408 171.302C138.239 171.447 138.154 171.648 138.155 171.905C138.156 172.15 138.241 172.35 138.411 172.507C138.587 172.657 138.797 172.732 139.042 172.731C139.325 172.731 139.541 172.658 139.691 172.513C139.848 172.368 139.926 172.164 139.925 171.901C139.925 171.637 139.846 171.433 139.688 171.289C139.537 171.145 139.321 171.074 139.038 171.074ZM144.433 173.933C143.893 173.934 143.422 173.832 143.02 173.625C142.624 173.413 142.29 173.069 142.019 172.592L143.439 171.882C143.509 172.133 143.619 172.334 143.77 172.484C143.928 172.634 144.16 172.709 144.468 172.708C144.756 172.708 144.985 172.632 145.154 172.481C145.324 172.323 145.408 172.097 145.407 171.802C145.406 171.231 145.091 170.946 144.463 170.948C144.03 170.949 143.698 171.072 143.466 171.317L142.241 171.094L142.628 167.628L146.545 167.619L146.548 168.871L143.808 168.878L143.651 170.121L143.624 170.272L143.633 170.272C143.758 170.127 143.934 170.017 144.159 169.941C144.385 169.865 144.636 169.827 144.912 169.826C145.32 169.825 145.669 169.906 145.958 170.068C146.254 170.231 146.477 170.453 146.628 170.735C146.786 171.017 146.865 171.34 146.866 171.704C146.867 172.213 146.756 172.634 146.53 172.967C146.305 173.294 146.008 173.536 145.638 173.694C145.268 173.852 144.866 173.931 144.433 173.933ZM149.388 167.122L149.398 171.095L151.182 169.114L152.961 169.109L151.233 170.959L153.077 173.817L151.306 173.821L150.162 171.894L149.402 172.743L149.404 173.826L147.804 173.83L147.787 167.126L149.388 167.122Z" fill="white"/>
<circle cx="180.485" cy="137.422" r="2.56795" transform="rotate(-0.143263 180.485 137.422)" fill="#901DEA" stroke="white" stroke-width="1.28398"/>
<path d="M138.953 158.189L138.955 158.986L137.667 158.989L137.675 162.147L136.644 162.15L136.636 158.992L135.342 158.995L135.34 158.198L138.953 158.189ZM140.349 159.085C140.664 159.084 140.94 159.145 141.176 159.268C141.416 159.391 141.602 159.569 141.734 159.8C141.871 160.031 141.939 160.311 141.94 160.638C141.941 160.966 141.874 161.246 141.739 161.478C141.607 161.71 141.422 161.888 141.183 162.013C140.947 162.137 140.672 162.2 140.356 162.2C140.045 162.201 139.769 162.14 139.529 162.017C139.293 161.893 139.107 161.716 138.97 161.485C138.838 161.253 138.771 160.974 138.771 160.646C138.77 160.319 138.835 160.039 138.966 159.807C139.101 159.575 139.287 159.397 139.522 159.272C139.762 159.148 140.037 159.085 140.349 159.085ZM140.35 159.81C140.175 159.81 140.037 159.876 139.937 160.008C139.842 160.136 139.794 160.348 139.795 160.644C139.796 160.935 139.844 161.147 139.941 161.279C140.041 161.41 140.179 161.476 140.355 161.475C140.534 161.475 140.672 161.409 140.767 161.277C140.867 161.144 140.916 160.933 140.916 160.641C140.915 160.345 140.864 160.134 140.764 160.006C140.668 159.875 140.53 159.809 140.35 159.81ZM144.631 159.134L144.633 159.859L143.74 159.861L143.743 161.065C143.744 161.209 143.778 161.313 143.846 161.377C143.918 161.436 144.016 161.466 144.14 161.466C144.236 161.466 144.318 161.455 144.385 161.435C144.453 161.411 144.517 161.377 144.577 161.333L144.686 161.962C144.587 162.03 144.459 162.086 144.303 162.131C144.152 162.171 143.998 162.191 143.842 162.192C143.498 162.192 143.227 162.121 143.027 161.978C142.83 161.831 142.73 161.583 142.725 161.236L142.722 159.864L142.206 159.865L142.205 159.14L142.72 159.139L142.718 158.467L143.736 158.183L143.738 159.136L144.631 159.134ZM146.823 160.225C146.823 160.085 146.782 159.975 146.702 159.896C146.626 159.812 146.522 159.77 146.391 159.771C146.259 159.771 146.145 159.805 146.049 159.873C145.958 159.937 145.894 160.053 145.858 160.221L144.995 160.02C145.05 159.732 145.197 159.502 145.437 159.33C145.676 159.157 146.013 159.07 146.449 159.069C146.888 159.068 147.228 159.165 147.468 159.36C147.712 159.552 147.835 159.833 147.836 160.204L147.838 161.301C147.839 161.457 147.909 161.534 148.049 161.534C148.121 161.534 148.178 161.526 148.222 161.51L148.164 162.091C148.044 162.147 147.898 162.176 147.727 162.176C147.539 162.176 147.377 162.141 147.241 162.069C147.105 161.994 147.013 161.88 146.965 161.728C146.881 161.884 146.748 162.001 146.564 162.077C146.384 162.149 146.193 162.186 145.989 162.186C145.682 162.187 145.436 162.118 145.252 161.978C145.071 161.835 144.981 161.63 144.98 161.362C144.98 161.146 145.043 160.968 145.171 160.828C145.302 160.684 145.508 160.584 145.787 160.527L146.823 160.309L146.823 160.225ZM145.987 161.264C145.987 161.351 146.019 161.417 146.083 161.461C146.147 161.505 146.223 161.527 146.311 161.526C146.447 161.526 146.567 161.486 146.67 161.406C146.774 161.321 146.825 161.192 146.825 161.016L146.825 160.848L146.34 160.951C146.22 160.975 146.13 161.012 146.07 161.06C146.014 161.104 145.987 161.172 145.987 161.264ZM149.622 157.851L149.63 161.099C149.63 161.23 149.653 161.324 149.697 161.38C149.741 161.436 149.815 161.464 149.919 161.463C149.979 161.463 150.028 161.459 150.068 161.451C150.108 161.443 150.156 161.431 150.212 161.415L150.148 162.026C150.076 162.07 149.982 162.106 149.866 162.135C149.751 162.163 149.637 162.177 149.525 162.177C149.205 162.178 148.973 162.105 148.829 161.957C148.685 161.81 148.613 161.569 148.612 161.233L148.603 157.854L149.622 157.851Z" fill="white"/>
</g>
<defs>
<filter id="filter0_d_404_16030" x="0.843632" y="0.172382" width="311.607" height="355.153" filterUnits="userSpaceOnUse" color-interpolation-filters="sRGB">
<feFlood flood-opacity="0" result="BackgroundImageFix"/>
<feColorMatrix in="SourceAlpha" type="matrix" values="0 0 0 0 0 0 0 0 0 0 0 0 0 0 0 0 0 0 127 0" result="hardAlpha"/>
<feOffset dx="14.1238" dy="-11.5558"/>
<feGaussianBlur stdDeviation="38.7333"/>
<feComposite in2="hardAlpha" operator="out"/>
<feColorMatrix type="matrix" values="0 0 0 0 0.483333 0 0 0 0 0.166667 0 0 0 0 1 0 0 0 0.7 0"/>
<feBlend mode="normal" in2="BackgroundImageFix" result="effect1_dropShadow_404_16030"/>
<feBlend mode="normal" in="SourceGraphic" in2="effect1_dropShadow_404_16030" result="shape"/>
</filter>
</defs>
</svg>
