<svg width="187" height="144" viewBox="0 0 187 144" fill="none" xmlns="http://www.w3.org/2000/svg">
<path d="M42.6747 10.9745L42.6693 3.81224L46.1528 3.8096C47.0354 3.80894 47.6866 3.97484 48.1065 4.30731C48.5263 4.63979 48.7365 5.11711 48.737 5.73928C48.7373 6.14441 48.6182 6.49538 48.3796 6.79218C48.1411 7.08898 47.7759 7.27373 47.284 7.34645L47.284 7.3573C47.8339 7.42923 48.2428 7.62064 48.5107 7.93152C48.7859 8.23517 48.9236 8.60403 48.9239 9.0381C48.9244 9.65304 48.7041 10.1307 48.2631 10.471C47.8292 10.8042 47.1819 10.971 46.321 10.9717L42.6747 10.9745ZM44.4729 6.74087L45.8294 6.73985C46.495 6.73934 46.8276 6.47865 46.8272 5.95776C46.8268 5.43687 46.4938 5.17668 45.8282 5.17718L44.4718 5.17821L44.4729 6.74087ZM44.4752 9.66002L46.0053 9.65886C46.6781 9.65835 47.0143 9.39042 47.0139 8.85506C47.0135 8.33417 46.6769 8.07398 46.0041 8.07449L44.474 8.07565L44.4752 9.66002ZM51.7968 11.0761C51.247 11.0765 50.7983 10.9285 50.4508 10.6322C50.1034 10.3358 49.9294 9.84761 49.9288 9.16756L49.9261 5.54305L51.7709 5.54165L51.7733 8.73209C51.7736 9.07935 51.8425 9.32166 51.9801 9.45901C52.1176 9.59636 52.313 9.66494 52.5662 9.66475C52.8267 9.66456 53.0472 9.57034 53.228 9.3821C53.4159 9.18663 53.5097 8.87547 53.5094 8.44863L53.5072 5.54034L55.352 5.53895L55.3561 10.9649L53.7066 10.9661L53.6516 9.94608C53.4783 10.3296 53.2361 10.6156 52.9252 10.8039C52.6142 10.985 52.2381 11.0757 51.7968 11.0761ZM62.136 5.53382L60.165 10.9612C59.9629 11.5329 59.7426 11.9889 59.5041 12.3291C59.2656 12.6765 58.9836 12.9227 58.6582 13.0676C58.3328 13.2198 57.9422 13.2961 57.4864 13.2964C57.1753 13.2966 56.8931 13.2643 56.6399 13.1994C56.3938 13.1344 56.1767 13.0442 55.9885 12.9286L56.3566 11.6803C56.4869 11.7743 56.6244 11.8393 56.7691 11.8754C56.9138 11.9187 57.0983 11.9402 57.3226 11.94C57.5324 11.9399 57.7024 11.9036 57.8325 11.8311C57.9699 11.7659 58.0784 11.6284 58.1578 11.4185L58.2986 11.082L57.6681 9.60664L56.0372 5.53843L58.0665 5.5369L58.9044 8.62904L59.1658 9.77913L59.4687 8.5852L60.302 5.53521L62.136 5.53382ZM69.9057 3.22736L66.8736 11.7158L65.159 11.7171L68.1911 3.22865L69.9057 3.22736ZM76.7634 3.67795C77.429 3.67745 78.0151 3.7819 78.5217 3.99132C79.0355 4.1935 79.4806 4.4934 79.8571 4.89102L78.9573 6.09625C78.646 5.77093 78.3094 5.52883 77.9476 5.36994C77.5929 5.20382 77.1877 5.12092 76.732 5.12127C76.3341 5.12157 76.0483 5.1869 75.8748 5.31725C75.7013 5.4476 75.6146 5.60683 75.6147 5.79493C75.6148 5.94685 75.6837 6.07702 75.8212 6.18544C75.966 6.28661 76.1975 6.37325 76.5159 6.44536L77.7207 6.71574C78.437 6.8816 78.9617 7.12356 79.2947 7.44163C79.6278 7.7597 79.7945 8.18279 79.7949 8.71091C79.7953 9.21733 79.6654 9.64789 79.4052 10.0026C79.145 10.35 78.7871 10.6144 78.3315 10.7956C77.8758 10.9695 77.355 11.0568 76.769 11.0572C76.0455 11.0577 75.3835 10.9425 74.7829 10.7114C74.1822 10.4732 73.7045 10.1624 73.3497 9.77927L74.2495 8.53062C74.5174 8.84151 74.8793 9.10168 75.3352 9.31114C75.7912 9.51336 76.2615 9.61429 76.7462 9.61392C77.4986 9.61335 77.8746 9.39241 77.8743 8.95111C77.8742 8.79918 77.8162 8.67262 77.7004 8.57142C77.5918 8.46299 77.3891 8.37271 77.0925 8.30059L75.7683 8.00859C75.3631 7.92208 75.0013 7.79936 74.6829 7.64045C74.3717 7.48152 74.1255 7.2719 73.9445 7.0116C73.7634 6.74405 73.6727 6.41133 73.6724 6.01343C73.6721 5.56489 73.7948 5.1669 74.0405 4.81945C74.2862 4.46477 74.6405 4.18597 75.1033 3.98306C75.5662 3.78014 76.1195 3.67844 76.7634 3.67795ZM83.4812 11.0521C82.5769 11.0528 81.8605 10.8074 81.332 10.3158C80.8107 9.82427 80.5498 9.12995 80.5491 8.23286C80.5486 7.63963 80.6676 7.13312 80.906 6.71333C81.1517 6.28631 81.4842 5.96412 81.9037 5.74677C82.3303 5.52217 82.8258 5.40966 83.3901 5.40924C83.9617 5.4088 84.4465 5.52057 84.8445 5.74454C85.2498 5.96127 85.5575 6.26489 85.7676 6.6554C85.9777 7.03867 86.0829 7.4799 86.0833 7.97909C86.0834 8.11654 86.0763 8.25039 86.0619 8.38062C86.0548 8.50361 86.0476 8.60852 86.0405 8.69534L82.34 8.69814C82.3909 9.0743 82.5141 9.3455 82.7096 9.51175C82.905 9.67076 83.1619 9.75015 83.4802 9.74991C83.7551 9.7497 83.9721 9.69527 84.1312 9.58664C84.2975 9.47799 84.4204 9.32597 84.4998 9.13058L85.976 9.6178C85.875 9.92896 85.6979 10.1932 85.4449 10.4104C85.1991 10.6204 84.9026 10.7798 84.5554 10.8885C84.2155 10.9973 83.8574 11.0518 83.4812 11.0521ZM83.3911 6.7006C82.8051 6.70105 82.4581 7.03772 82.3501 7.71061L84.336 7.70911C84.2559 7.03636 83.9409 6.70019 83.3911 6.7006ZM88.9349 3.21297L88.9393 9.09467C88.9395 9.33341 88.9794 9.50339 89.0591 9.60461C89.1387 9.70584 89.2726 9.75638 89.4607 9.75624C89.5692 9.75615 89.6596 9.74885 89.732 9.73433C89.8043 9.7198 89.8911 9.69803 89.9924 9.66902L89.8738 10.776C89.7437 10.8557 89.5737 10.9209 89.3639 10.9717C89.1542 11.0225 88.948 11.048 88.7454 11.0481C88.1667 11.0486 87.747 10.9151 87.4863 10.6476C87.2257 10.3801 87.0951 9.94251 87.0947 9.3348L87.09 3.21437L88.9349 3.21297ZM92.485 3.21029L92.4895 9.09199C92.4896 9.33073 92.5296 9.50071 92.6092 9.60193C92.6889 9.70315 92.8228 9.7537 93.0109 9.75355C93.1194 9.75347 93.2098 9.74617 93.2821 9.73164C93.3545 9.71712 93.4413 9.69535 93.5425 9.66634L93.424 10.7733C93.2938 10.853 93.1239 10.9182 92.9141 10.969C92.7043 11.0198 92.4982 11.0453 92.2956 11.0455C91.7168 11.0459 91.2971 10.9124 91.0365 10.6449C90.7758 10.3774 90.6453 9.93982 90.6448 9.33212L90.6402 3.21168L92.485 3.21029ZM100.588 3.76846C101.456 3.7678 102.132 3.9771 102.617 4.39633C103.11 4.80833 103.356 5.39414 103.357 6.15377C103.357 6.9134 103.112 7.5032 102.62 7.92318C102.136 8.33592 101.459 8.54261 100.591 8.54327L99.1695 8.54434L99.1713 10.9317L97.3048 10.9332L97.2994 3.77095L100.588 3.76846ZM100.297 7.1436C101.086 7.14301 101.48 6.81354 101.479 6.15519C101.479 5.49685 101.084 5.16797 100.296 5.16857L99.167 5.16942L99.1685 7.14446L100.297 7.1436ZM104.423 10.9278L104.419 5.50186L106.047 5.50063L106.124 6.67257C106.254 6.27457 106.452 5.96333 106.72 5.73886C106.995 5.50715 107.345 5.39113 107.772 5.39081C107.91 5.3907 108.026 5.40508 108.12 5.43395C108.221 5.45558 108.301 5.48084 108.358 5.50973L108.175 7.02913C108.103 7.00748 108.009 6.98585 107.893 6.96423C107.784 6.94261 107.651 6.93186 107.491 6.93198C107.159 6.93223 106.869 7.03735 106.623 7.24734C106.385 7.45732 106.266 7.77212 106.266 8.19172L106.268 10.9264L104.423 10.9278ZM111.671 11.0308C110.766 11.0315 110.05 10.7861 109.521 10.2945C109 9.80296 108.739 9.10864 108.738 8.21156C108.738 7.61832 108.857 7.11181 109.095 6.69203C109.341 6.265 109.674 5.94281 110.093 5.72546C110.52 5.50087 111.015 5.38836 111.579 5.38793C112.151 5.3875 112.636 5.49927 113.034 5.72324C113.439 5.93997 113.747 6.24359 113.957 6.63409C114.167 7.01737 114.272 7.4586 114.273 7.95778C114.273 8.09524 114.266 8.22908 114.251 8.35931C114.244 8.48231 114.237 8.58721 114.23 8.67403L110.529 8.67683C110.58 9.05299 110.703 9.32419 110.899 9.49044C111.094 9.64945 111.351 9.72884 111.67 9.7286C111.944 9.72839 112.161 9.67397 112.321 9.56533C112.487 9.45668 112.61 9.30467 112.689 9.10927L114.165 9.59649C114.064 9.90765 113.887 10.1718 113.634 10.3891C113.388 10.5991 113.092 10.7584 112.745 10.8672C112.405 10.976 112.047 11.0305 111.671 11.0308ZM111.58 6.6793C110.994 6.67974 110.647 7.01641 110.539 7.68931L112.525 7.68781C112.445 7.01505 112.13 6.67888 111.58 6.6793ZM117.586 11.0263C117.043 11.0268 116.54 10.9403 116.077 10.767C115.614 10.5865 115.227 10.33 114.916 9.99744L115.783 8.97671C115.964 9.20808 116.203 9.40323 116.5 9.56217C116.804 9.71387 117.14 9.78957 117.509 9.7893C117.733 9.78913 117.918 9.75643 118.062 9.69121C118.207 9.62599 118.279 9.52465 118.279 9.3872C118.279 9.29315 118.243 9.21359 118.17 9.14854C118.098 9.08348 117.953 9.02933 117.736 8.98609L116.977 8.83474C116.296 8.69779 115.812 8.49559 115.522 8.22813C115.24 7.95343 115.098 7.59543 115.098 7.15412C115.098 6.8575 115.188 6.57529 115.369 6.30747C115.549 6.03966 115.828 5.81879 116.204 5.64488C116.58 5.47096 117.061 5.38379 117.647 5.38334C118.768 5.3825 119.586 5.69296 120.1 6.31475L119.222 7.31378C119.048 7.09688 118.824 6.92703 118.549 6.80425C118.274 6.68147 117.999 6.62019 117.724 6.6204C117.196 6.62079 116.932 6.75483 116.932 7.02251C116.932 7.11656 116.975 7.19973 117.062 7.27201C117.156 7.34428 117.326 7.40203 117.572 7.44525L118.56 7.63984C119.117 7.74793 119.519 7.93573 119.765 8.20322C120.011 8.46348 120.134 8.78171 120.135 9.1579C120.135 9.68603 119.922 10.1311 119.495 10.4932C119.076 10.848 118.44 11.0257 117.586 11.0263ZM123.372 11.022C122.83 11.0224 122.327 10.936 121.864 10.7627C121.4 10.5822 121.013 10.3256 120.702 9.99307L121.569 8.97234C121.75 9.20371 121.989 9.39886 122.286 9.5578C122.59 9.70949 122.926 9.7852 123.295 9.78492C123.519 9.78475 123.704 9.75206 123.849 9.68684C123.993 9.62162 124.066 9.52028 124.065 9.38282C124.065 9.28877 124.029 9.20922 123.957 9.14416C123.884 9.07911 123.74 9.02496 123.523 8.98171L122.763 8.83036C122.083 8.69342 121.598 8.49122 121.308 8.22376C121.026 7.94906 120.884 7.59106 120.884 7.14975C120.884 6.85313 120.974 6.57091 121.155 6.3031C121.335 6.03528 121.614 5.81442 121.99 5.6405C122.366 5.46659 122.847 5.37941 123.433 5.37897C124.554 5.37812 125.372 5.68859 125.886 6.31037L125.008 7.30941C124.834 7.0925 124.61 6.92266 124.335 6.79988C124.06 6.6771 123.785 6.61581 123.51 6.61602C122.982 6.61642 122.718 6.75046 122.718 7.01814C122.718 7.11219 122.762 7.19535 122.848 7.26763C122.943 7.33991 123.113 7.39766 123.359 7.44088L124.346 7.63546C124.903 7.74356 125.305 7.93136 125.551 8.19885C125.797 8.45911 125.921 8.77733 125.921 9.15353C125.921 9.68165 125.708 10.1267 125.282 10.4888C124.862 10.8436 124.226 11.0213 123.372 11.022ZM128.713 11.0179C128.164 11.0184 127.715 10.8704 127.367 10.574C127.02 10.2777 126.846 9.78947 126.845 9.10942L126.843 5.48491L128.688 5.48352L128.69 8.67396C128.69 9.02122 128.759 9.26352 128.897 9.40087C129.034 9.53823 129.23 9.60681 129.483 9.60662C129.743 9.60642 129.964 9.5122 130.145 9.32397C130.333 9.12849 130.426 8.81734 130.426 8.3905L130.424 5.4822L132.269 5.48081L132.273 10.9067L130.623 10.908L130.568 9.88794C130.395 10.2715 130.153 10.5575 129.842 10.7458C129.531 10.9269 129.155 11.0176 128.713 11.0179ZM133.598 10.9057L133.594 5.47981L135.222 5.47858L135.299 6.65052C135.429 6.25252 135.627 5.94128 135.895 5.71681C136.17 5.4851 136.52 5.36908 136.947 5.36876C137.085 5.36865 137.2 5.38303 137.295 5.4119C137.396 5.43353 137.475 5.45879 137.533 5.48768L137.35 7.00708C137.278 6.98543 137.184 6.9638 137.068 6.94218C136.959 6.92056 136.825 6.90981 136.666 6.90993C136.333 6.91018 136.044 7.0153 135.798 7.22529C135.56 7.43527 135.441 7.75007 135.441 8.16967L135.443 10.9043L133.598 10.9057ZM140.845 11.0088C139.941 11.0095 139.225 10.764 138.696 10.2725C138.175 9.78091 137.914 9.08659 137.913 8.1895C137.913 7.59627 138.032 7.08976 138.27 6.66998C138.516 6.24295 138.848 5.92076 139.268 5.70341C139.695 5.47881 140.19 5.3663 140.754 5.36588C141.326 5.36545 141.811 5.47721 142.209 5.70119C142.614 5.91792 142.922 6.22154 143.132 6.61204C143.342 6.99532 143.447 7.43654 143.448 7.93573C143.448 8.07319 143.441 8.20703 143.426 8.33726C143.419 8.46026 143.412 8.56516 143.405 8.65198L139.704 8.65478C139.755 9.03094 139.878 9.30214 140.074 9.46839C140.269 9.6274 140.526 9.70679 140.844 9.70655C141.119 9.70634 141.336 9.65192 141.495 9.54328C141.662 9.43463 141.785 9.28261 141.864 9.08722L143.34 9.57444C143.239 9.8856 143.062 10.1498 142.809 10.367C142.563 10.577 142.267 10.7364 141.92 10.8452C141.58 10.954 141.222 11.0085 140.845 11.0088ZM140.755 6.65725C140.169 6.65769 139.822 6.99436 139.714 7.66725L141.7 7.66575C141.62 6.993 141.305 6.65683 140.755 6.65725Z" fill="white"/>
<rect x="43.4233" y="121.7" width="44.7638" height="21.7037" rx="8.13888" transform="rotate(-0.0433063 43.4233 121.7)" fill="#01AC45"/>
<path d="M53.2645 130.509L55.91 133.559L50.6236 133.563L53.2645 130.509Z" fill="white"/>
<path d="M63.4352 135.754L63.434 134.177L60.1581 134.18L60.1574 133.264C60.1913 133.196 60.2387 133.115 60.2997 133.02C60.3674 132.918 60.4419 132.803 60.5232 132.674L63.0232 129.04L64.7018 129.038L64.7049 133.159L65.7935 133.158L65.7943 134.175L64.7057 134.176L64.7069 135.753L63.4352 135.754ZM61.3578 133.161L63.4434 133.16L63.4417 130.942C63.4416 130.793 63.4449 130.64 63.4516 130.484C63.4582 130.328 63.4649 130.169 63.4715 130.006L63.4512 130.006C63.3767 130.155 63.2853 130.318 63.1769 130.494C63.0753 130.671 62.9804 130.824 62.8924 130.952L61.4899 132.968C61.4425 133.036 61.3985 133.1 61.3578 133.161ZM66.7314 135.752L66.7307 134.795C67.5442 134.252 68.1949 133.773 68.683 133.359C69.171 132.938 69.52 132.552 69.73 132.199C69.9467 131.846 70.055 131.496 70.0547 131.151C70.0545 130.839 69.9594 130.584 69.7693 130.388C69.5792 130.184 69.3113 130.083 68.9653 130.083C68.5855 130.083 68.2872 130.213 68.0704 130.47C67.8603 130.728 67.7453 131.095 67.7253 131.569L66.5143 131.113C66.5545 130.427 66.8016 129.895 67.2558 129.515C67.7167 129.128 68.3134 128.934 69.0459 128.933C69.5885 128.933 70.0362 129.034 70.389 129.238C70.7486 129.434 71.0167 129.695 71.1933 130.02C71.3767 130.346 71.4685 130.695 71.4688 131.068C71.4693 131.712 71.2256 132.316 70.7377 132.88C70.2565 133.436 69.5075 134.027 68.4906 134.651L68.4907 134.662C68.6399 134.655 68.8365 134.648 69.0807 134.641C69.3316 134.627 69.5453 134.62 69.7216 134.62L71.5732 134.619L71.5741 135.748L66.7314 135.752ZM74.2122 128.93C74.7548 128.929 75.189 129.102 75.5148 129.447C75.8407 129.793 76.0038 130.251 76.0042 130.82C76.0046 131.39 75.8422 131.848 75.5169 132.194C75.1916 132.54 74.7577 132.714 74.2151 132.714C73.6725 132.715 73.2383 132.542 72.9125 132.196C72.5867 131.851 72.4235 131.393 72.4231 130.823C72.4227 130.253 72.5851 129.796 72.9104 129.449C73.2357 129.103 73.6696 128.93 74.2122 128.93ZM73.8817 135.746L78.4038 129.028L79.5229 129.027L75.0007 135.745L73.8817 135.746ZM74.213 129.896C73.9824 129.896 73.8061 129.978 73.6841 130.141C73.5622 130.303 73.5013 130.531 73.5015 130.822C73.5017 131.114 73.5629 131.341 73.6851 131.504C73.8073 131.66 73.9837 131.738 74.2144 131.737C74.445 131.737 74.6212 131.659 74.7432 131.503C74.8652 131.34 74.926 131.113 74.9258 130.821C74.9256 130.53 74.8644 130.303 74.7422 130.14C74.62 129.977 74.4436 129.896 74.213 129.896ZM79.1793 132.059C79.7219 132.059 80.1561 132.231 80.4819 132.577C80.8077 132.923 80.9709 133.38 80.9713 133.95C80.9717 134.52 80.8093 134.978 80.484 135.324C80.1587 135.67 79.7248 135.843 79.1822 135.844C78.6396 135.844 78.2054 135.672 77.8796 135.326C77.5537 134.98 77.3906 134.523 77.3902 133.953C77.3898 133.383 77.5522 132.925 77.8775 132.579C78.2028 132.233 78.6367 132.06 79.1793 132.059ZM79.18 133.036C78.9494 133.036 78.7732 133.118 78.6512 133.281C78.5292 133.437 78.4684 133.66 78.4686 133.952C78.4688 134.244 78.53 134.471 78.6522 134.634C78.7744 134.796 78.9508 134.878 79.1814 134.877C79.412 134.877 79.5883 134.796 79.7103 134.633C79.8322 134.47 79.8931 134.243 79.8929 133.951C79.8927 133.659 79.8315 133.436 79.7093 133.28C79.5871 133.117 79.4107 133.036 79.18 133.036Z" fill="white"/>
<rect x="99.7173" y="121.656" width="44.7638" height="21.7037" rx="8.13888" transform="rotate(-0.0433063 99.7173 121.656)" fill="#DC2A4A"/>
<path d="M109.562 134.536L106.916 131.485L112.203 131.481L109.562 134.536Z" fill="white"/>
<path d="M118.915 135.813C118.325 135.813 117.827 135.692 117.42 135.448C117.019 135.204 116.69 134.831 116.432 134.329L117.693 133.698C117.781 133.996 117.921 134.237 118.111 134.42C118.301 134.603 118.579 134.694 118.945 134.694C119.318 134.694 119.61 134.595 119.82 134.398C120.037 134.201 120.145 133.92 120.145 133.553C120.144 133.187 120.042 132.909 119.839 132.719C119.642 132.53 119.354 132.435 118.974 132.435C118.418 132.436 118.007 132.599 117.743 132.924L116.644 132.722L117.059 128.998L121.118 128.995L121.119 130.124L118.117 130.126L117.915 131.765L117.885 131.897L117.905 131.897C118.047 131.741 118.241 131.619 118.485 131.53C118.736 131.435 119.021 131.387 119.339 131.387C119.773 131.387 120.146 131.475 120.459 131.651C120.777 131.827 121.022 132.074 121.192 132.393C121.361 132.705 121.446 133.064 121.447 133.471C121.447 133.987 121.332 134.421 121.102 134.774C120.878 135.12 120.573 135.381 120.187 135.558C119.807 135.727 119.383 135.813 118.915 135.813ZM125.086 128.911C125.805 128.91 126.378 129.072 126.806 129.398C127.24 129.716 127.457 130.157 127.458 130.72C127.458 131.072 127.37 131.381 127.194 131.646C127.024 131.904 126.777 132.097 126.452 132.226L126.452 132.236C126.845 132.378 127.154 132.585 127.378 132.856C127.602 133.127 127.714 133.47 127.714 133.883C127.715 134.467 127.481 134.935 127.013 135.288C126.546 135.634 125.905 135.808 125.091 135.808C124.291 135.809 123.653 135.636 123.178 135.291C122.71 134.939 122.475 134.471 122.475 133.887C122.475 133.48 122.586 133.141 122.81 132.87C123.034 132.592 123.345 132.381 123.745 132.238L123.745 132.228C123.42 132.1 123.169 131.906 122.992 131.649C122.816 131.384 122.727 131.076 122.727 130.723C122.726 130.16 122.94 129.719 123.367 129.4C123.801 129.074 124.374 128.911 125.086 128.911ZM125.087 129.989C124.768 129.989 124.517 130.067 124.334 130.224C124.151 130.38 124.06 130.597 124.06 130.875C124.06 131.146 124.152 131.363 124.335 131.526C124.525 131.682 124.776 131.759 125.088 131.759C125.407 131.759 125.658 131.681 125.841 131.525C126.03 131.362 126.125 131.145 126.125 130.873C126.125 130.595 126.033 130.378 125.85 130.222C125.667 130.067 125.412 129.989 125.087 129.989ZM125.09 134.72C125.477 134.719 125.779 134.634 125.995 134.465C126.219 134.288 126.331 134.047 126.331 133.742C126.33 133.437 126.218 133.196 125.994 133.02C125.77 132.844 125.469 132.756 125.089 132.756C124.716 132.756 124.414 132.845 124.183 133.021C123.96 133.198 123.848 133.439 123.848 133.744C123.849 134.049 123.961 134.29 124.185 134.466C124.409 134.635 124.71 134.72 125.09 134.72ZM130.397 128.886C130.939 128.886 131.374 129.058 131.699 129.404C132.025 129.75 132.188 130.207 132.189 130.777C132.189 131.347 132.027 131.805 131.702 132.151C131.376 132.497 130.942 132.67 130.4 132.671C129.857 132.671 129.423 132.499 129.097 132.153C128.771 131.807 128.608 131.35 128.608 130.78C128.607 130.21 128.77 129.752 129.095 129.406C129.42 129.06 129.854 128.887 130.397 128.886ZM130.066 135.703L134.588 128.985L135.708 128.984L131.185 135.702L130.066 135.703ZM130.398 129.853C130.167 129.853 129.991 129.934 129.869 130.097C129.747 130.26 129.686 130.487 129.686 130.779C129.686 131.071 129.748 131.298 129.87 131.461C129.992 131.616 130.168 131.694 130.399 131.694C130.63 131.694 130.806 131.616 130.928 131.46C131.05 131.297 131.111 131.07 131.11 130.778C131.11 130.486 131.049 130.259 130.927 130.096C130.805 129.934 130.628 129.853 130.398 129.853ZM135.364 132.016C135.907 132.015 136.341 132.188 136.667 132.534C136.992 132.879 137.156 133.337 137.156 133.907C137.156 134.477 136.994 134.934 136.669 135.281C136.343 135.627 135.909 135.8 135.367 135.8C134.824 135.801 134.39 135.628 134.064 135.283C133.738 134.937 133.575 134.479 133.575 133.91C133.574 133.34 133.737 132.882 134.062 132.536C134.387 132.19 134.821 132.016 135.364 132.016ZM135.365 132.993C135.134 132.993 134.958 133.074 134.836 133.237C134.714 133.393 134.653 133.617 134.653 133.909C134.653 134.2 134.715 134.428 134.837 134.59C134.959 134.753 135.135 134.834 135.366 134.834C135.597 134.834 135.773 134.752 135.895 134.589C136.017 134.427 136.078 134.199 136.078 133.908C136.077 133.616 136.016 133.392 135.894 133.236C135.772 133.074 135.595 132.992 135.365 132.993Z" fill="white"/>
<circle cx="93.2428" cy="111.034" r="2.82857" transform="rotate(-0.0433063 93.2428 111.034)" stroke="white" stroke-width="2.03472"/>
<line x1="60.3344" y1="66.617" x2="90.7934" y2="107.165" stroke="white" stroke-width="2.03472"/>
<g filter="url(#filter0_d_418_2493)">
<mask id="path-10-outside-1_418_2493" maskUnits="userSpaceOnUse" x="29.25" y="47.042" width="128.05" height="66.0967" fill="black">
<rect fill="white" x="29.25" y="47.042" width="128.05" height="66.0967"/>
<path fill-rule="evenodd" clip-rule="evenodd" d="M153.257 111.35C153.231 78.4051 126.504 51.7183 93.5591 51.7432C60.6141 51.7681 33.9271 78.4952 33.9516 111.44L31.2986 111.442C31.2729 77.032 59.1469 49.1161 93.5571 49.0901C127.967 49.0641 155.883 76.9378 155.91 111.348L153.257 111.35Z"/>
</mask>
<path fill-rule="evenodd" clip-rule="evenodd" d="M153.257 111.35C153.231 78.4051 126.504 51.7183 93.5591 51.7432C60.6141 51.7681 33.9271 78.4952 33.9516 111.44L31.2986 111.442C31.2729 77.032 59.1469 49.1161 93.5571 49.0901C127.967 49.0641 155.883 76.9378 155.91 111.348L153.257 111.35Z" fill="#00F118"/>
<path d="M153.257 111.35L151.9 111.351L151.901 112.707L153.258 112.706L153.257 111.35ZM33.9516 111.44L33.9526 112.797L35.3091 112.796L35.3081 111.439L33.9516 111.44ZM31.2986 111.442L29.9421 111.443L29.9431 112.8L31.2996 112.799L31.2986 111.442ZM155.91 111.348L155.911 112.704L157.267 112.703L157.266 111.347L155.91 111.348ZM154.613 111.349C154.587 77.6549 127.252 50.3612 93.558 50.3867L93.5601 53.0996C125.756 53.0753 151.876 79.1553 151.9 111.351L154.613 111.349ZM93.558 50.3867C59.8639 50.4121 32.57 77.7471 32.5951 111.441L35.3081 111.439C35.2841 79.2434 61.3643 53.124 93.5601 53.0996L93.558 50.3867ZM31.2996 112.799L33.9526 112.797L33.9506 110.084L31.2975 110.086L31.2996 112.799ZM93.556 47.7336C58.3967 47.7602 29.9159 76.2839 29.9421 111.443L32.655 111.441C32.6299 77.7802 59.897 50.472 93.5581 50.4466L93.556 47.7336ZM157.266 111.347C157.239 76.1876 128.715 47.7071 93.556 47.7336L93.5581 50.4466C127.219 50.4212 154.527 77.688 154.553 111.349L157.266 111.347ZM153.258 112.706L155.911 112.704L155.909 109.991L153.256 109.993L153.258 112.706Z" fill="#381C36" mask="url(#path-10-outside-1_418_2493)"/>
<mask id="path-12-outside-2_418_2493" maskUnits="userSpaceOnUse" x="29.25" y="47.048" width="120.05" height="66.0907" fill="black">
<rect fill="white" x="29.25" y="47.048" width="120.05" height="66.0907"/>
<path fill-rule="evenodd" clip-rule="evenodd" d="M144.165 79.7262C133.606 62.9041 114.885 51.727 93.5591 51.7432C60.6143 51.7681 33.9273 78.495 33.9516 111.44L31.2986 111.442C31.2732 77.0317 59.147 49.1161 93.5571 49.0901C115.834 49.0733 135.389 60.7497 146.417 78.3227L144.165 79.7262Z"/>
</mask>
<path fill-rule="evenodd" clip-rule="evenodd" d="M144.165 79.7262C133.606 62.9041 114.885 51.727 93.5591 51.7432C60.6143 51.7681 33.9273 78.495 33.9516 111.44L31.2986 111.442C31.2732 77.0317 59.147 49.1161 93.5571 49.0901C115.834 49.0733 135.389 60.7497 146.417 78.3227L144.165 79.7262Z" fill="#00B2EA"/>
<path d="M144.165 79.7262L143.016 80.4474L143.735 81.5926L144.883 80.8774L144.165 79.7262ZM33.9516 111.44L33.9526 112.796L35.3091 112.795L35.3081 111.439L33.9516 111.44ZM31.2986 111.442L29.9421 111.443L29.9431 112.799L31.2996 112.798L31.2986 111.442ZM146.417 78.3227L147.135 79.4739L148.289 78.7542L147.566 77.6017L146.417 78.3227ZM145.314 79.0051C134.517 61.8039 115.371 50.3702 93.558 50.3867L93.5601 53.0996C114.4 53.0839 132.695 64.0043 143.016 80.4474L145.314 79.0051ZM93.558 50.3867C59.8641 50.4121 32.5703 77.7468 32.5951 111.441L35.3081 111.439C35.2844 79.2431 61.3644 53.124 93.5601 53.0996L93.558 50.3867ZM31.2996 112.798L33.9526 112.796L33.9506 110.083L31.2975 110.085L31.2996 112.798ZM93.556 47.7336C58.3968 47.7602 29.9162 76.2836 29.9421 111.443L32.655 111.441C32.6302 77.7799 59.8972 50.472 93.5581 50.4466L93.556 47.7336ZM147.566 77.6017C136.3 59.6495 116.319 47.7164 93.556 47.7336L93.5581 50.4466C115.348 50.4301 134.478 61.8498 145.268 79.0437L147.566 77.6017ZM144.883 80.8774L147.135 79.4739L145.7 77.1715L143.448 78.575L144.883 80.8774Z" fill="#381C36" mask="url(#path-12-outside-2_418_2493)"/>
<mask id="path-14-outside-3_418_2493" maskUnits="userSpaceOnUse" x="29.25" y="47.0722" width="88.0499" height="66.0665" fill="black">
<rect fill="white" x="29.25" y="47.0722" width="88.0499" height="66.0665"/>
<path fill-rule="evenodd" clip-rule="evenodd" d="M115.084 52.8915C108.373 50.4272 101.122 49.0844 93.5571 49.0901C59.1468 49.1161 31.2728 77.0321 31.2986 111.442L33.9516 111.44C33.9269 78.4954 60.614 51.7681 93.5591 51.7432C100.799 51.7377 107.738 53.0221 114.16 55.3793L115.084 52.8915Z"/>
</mask>
<path fill-rule="evenodd" clip-rule="evenodd" d="M115.084 52.8915C108.373 50.4272 101.122 49.0844 93.5571 49.0901C59.1468 49.1161 31.2728 77.0321 31.2986 111.442L33.9516 111.44C33.9269 78.4954 60.614 51.7681 93.5591 51.7432C100.799 51.7377 107.738 53.0221 114.16 55.3793L115.084 52.8915Z" fill="#901DEA"/>
<path d="M115.084 52.8915L116.355 53.3638L116.829 52.0876L115.551 51.6182L115.084 52.8915ZM31.2986 111.442L29.9421 111.443L29.9431 112.8L31.2996 112.799L31.2986 111.442ZM33.9516 111.44L33.9526 112.797L35.3091 112.796L35.3081 111.439L33.9516 111.44ZM114.16 55.3793L113.692 56.6527L114.961 57.1183L115.431 55.8516L114.16 55.3793ZM115.551 51.6182C108.693 49.0996 101.283 47.7278 93.556 47.7336L93.5581 50.4466C100.961 50.441 108.054 51.7548 114.616 54.1649L115.551 51.6182ZM93.556 47.7336C58.3966 47.7602 29.9158 76.284 29.9421 111.443L32.655 111.441C32.6298 77.7803 59.897 50.472 93.5581 50.4466L93.556 47.7336ZM31.2996 112.799L33.9526 112.797L33.9506 110.084L31.2975 110.086L31.2996 112.799ZM93.558 50.3867C59.8638 50.4121 32.5699 77.7472 32.5951 111.441L35.3081 111.439C35.284 79.2435 61.3642 53.124 93.5601 53.0996L93.558 50.3867ZM114.627 54.1059C108.057 51.6944 100.96 50.3811 93.558 50.3867L93.5601 53.0996C100.637 53.0943 107.418 54.3497 113.692 56.6527L114.627 54.1059ZM115.431 55.8516L116.355 53.3638L113.812 52.4193L112.888 54.907L115.431 55.8516Z" fill="#381C36" mask="url(#path-14-outside-3_418_2493)"/>
<mask id="path-16-outside-4_418_2493" maskUnits="userSpaceOnUse" x="29.2534" y="51.4577" width="45.0468" height="62.034" fill="black">
<rect fill="white" x="29.2534" y="51.4577" width="45.0468" height="62.034"/>
<path fill-rule="evenodd" clip-rule="evenodd" d="M70.6356 53.4605C47.5762 62.6101 31.2788 85.1274 31.2987 111.443C31.2987 111.443 31.2987 111.443 31.2987 111.443L33.9517 111.441C33.9517 111.441 33.9517 111.441 33.9517 111.441C33.9327 86.2494 49.5318 64.6934 71.6045 55.931L70.6356 53.4605Z"/>
</mask>
<path fill-rule="evenodd" clip-rule="evenodd" d="M70.6356 53.4605C47.5762 62.6101 31.2788 85.1274 31.2987 111.443C31.2987 111.443 31.2987 111.443 31.2987 111.443L33.9517 111.441C33.9517 111.441 33.9517 111.441 33.9517 111.441C33.9327 86.2494 49.5318 64.6934 71.6045 55.931L70.6356 53.4605Z" fill="#E40056"/>
<path d="M70.6356 53.4605L71.8984 52.9652L71.4012 51.6973L70.1353 52.1996L70.6356 53.4605ZM31.2987 111.443L29.9422 111.444L29.9432 112.801L31.2997 112.8L31.2987 111.443ZM33.9517 111.441L33.9527 112.798L35.3092 112.797L35.3082 111.44L33.9517 111.441ZM71.6045 55.931L72.105 57.1918L73.3605 56.6934L72.8673 55.4358L71.6045 55.931ZM70.1353 52.1996C46.5762 61.5475 29.9219 84.5534 29.9422 111.444L32.6552 111.442C32.6357 85.7015 48.5761 63.6727 71.1359 54.7213L70.1353 52.1996ZM29.9422 111.444C29.9422 111.444 29.9422 111.444 29.9422 111.444C29.9422 111.444 29.9422 111.444 29.9422 111.444L32.6552 111.442C32.6552 111.442 32.6552 111.442 32.6552 111.442C32.6552 111.442 32.6552 111.442 32.6552 111.442L29.9422 111.444ZM31.2997 112.8L33.9527 112.798L33.9507 110.085L31.2977 110.087L31.2997 112.8ZM32.5952 111.442L32.5952 111.442L32.5952 111.442L32.5952 111.442L32.5952 111.442L32.5952 111.442L32.5952 111.442C32.5952 111.442 32.5952 111.442 32.5952 111.442C32.5952 111.442 32.5952 111.442 32.5952 111.442C32.5952 111.442 32.5952 111.442 32.5952 111.442C32.5952 111.442 32.5952 111.442 32.5952 111.442C32.5952 111.442 32.5952 111.442 32.5952 111.442C32.5952 111.442 32.5952 111.442 32.5952 111.442C32.5952 111.442 32.5952 111.442 32.5952 111.442C32.5952 111.442 32.5952 111.442 32.5952 111.442C32.5952 111.442 32.5952 111.442 32.5952 111.442C32.5952 111.442 32.5952 111.442 32.5952 111.442C32.5952 111.442 32.5952 111.442 32.5952 111.442C32.5952 111.442 32.5952 111.442 32.5952 111.442C32.5952 111.442 32.5952 111.442 32.5952 111.442C32.5952 111.442 32.5952 111.442 32.5952 111.442C32.5952 111.442 32.5952 111.442 32.5952 111.442C32.5952 111.442 32.5952 111.442 32.5952 111.442C32.5952 111.442 32.5952 111.442 32.5952 111.442C32.5952 111.442 32.5952 111.442 32.5952 111.442C32.5952 111.442 32.5952 111.442 32.5952 111.442C32.5952 111.442 32.5952 111.442 32.5952 111.442C32.5952 111.442 32.5952 111.442 32.5952 111.442C32.5952 111.442 32.5952 111.442 32.5952 111.442L32.5952 111.442L32.5952 111.442L32.5952 111.442L32.5952 111.442L32.5952 111.442L32.5952 111.442L32.5952 111.442L32.5952 111.442L32.5952 111.442L32.5952 111.442C32.5952 111.442 32.5952 111.442 32.5952 111.442C32.5952 111.442 32.5952 111.442 32.5952 111.442C32.5952 111.442 32.5952 111.442 32.5952 111.442C32.5952 111.442 32.5952 111.442 32.5952 111.442C32.5952 111.442 32.5952 111.442 32.5952 111.442C32.5952 111.442 32.5952 111.442 32.5952 111.442C32.5952 111.442 32.5952 111.442 32.5952 111.442C32.5952 111.442 32.5952 111.442 32.5952 111.442C32.5952 111.442 32.5952 111.442 32.5952 111.442C32.5952 111.442 32.5952 111.442 32.5952 111.442C32.5952 111.442 32.5952 111.442 32.5952 111.442C32.5952 111.442 32.5952 111.442 32.5952 111.442C32.5952 111.442 32.5952 111.442 32.5952 111.442C32.5952 111.442 32.5952 111.442 32.5952 111.442C32.5952 111.442 32.5952 111.442 32.5952 111.442C32.5952 111.442 32.5952 111.442 32.5952 111.442C32.5952 111.442 32.5952 111.442 32.5952 111.442C32.5952 111.442 32.5952 111.442 32.5952 111.442C32.5952 111.442 32.5952 111.442 32.5952 111.442C32.5952 111.442 32.5952 111.442 32.5952 111.442C32.5952 111.442 32.5952 111.442 32.5952 111.442C32.5952 111.442 32.5952 111.442 32.5952 111.442L32.5952 111.442L32.5952 111.442L32.5952 111.442L32.5952 111.442L32.5952 111.442L32.5952 111.442L32.5952 111.442L32.5952 111.442L32.5952 111.442L32.5952 111.442L32.5952 111.442C32.5952 111.442 32.5952 111.442 32.5952 111.442C32.5952 111.442 32.5952 111.442 32.5952 111.442C32.5952 111.442 32.5952 111.442 32.5952 111.442C32.5952 111.442 32.5952 111.442 32.5952 111.442C32.5952 111.442 32.5952 111.442 32.5952 111.442C32.5952 111.442 32.5952 111.442 32.5952 111.442C32.5952 111.442 32.5952 111.442 32.5952 111.442C32.5952 111.442 32.5952 111.442 32.5952 111.442C32.5952 111.442 32.5952 111.442 32.5952 111.442C32.5952 111.442 32.5952 111.442 32.5952 111.442C32.5952 111.442 32.5952 111.442 32.5952 111.442C32.5952 111.442 32.5952 111.442 32.5952 111.442C32.5952 111.442 32.5952 111.442 32.5952 111.442C32.5952 111.442 32.5952 111.442 32.5952 111.442C32.5952 111.442 32.5952 111.442 32.5952 111.442C32.5952 111.442 32.5952 111.442 32.5952 111.442C32.5952 111.442 32.5952 111.442 32.5952 111.442C32.5952 111.442 32.5952 111.442 32.5952 111.442C32.5952 111.442 32.5952 111.442 32.5952 111.442C32.5952 111.442 32.5952 111.442 32.5952 111.442C32.5952 111.442 32.5952 111.442 32.5952 111.442L32.5952 111.442L32.5952 111.442L32.5952 111.442L32.5952 111.442L32.5952 111.442L32.5952 111.442L32.5952 111.442L32.5952 111.442L32.5952 111.442L32.5952 111.442L32.5952 111.442C32.5952 111.442 32.5952 111.442 32.5952 111.442C32.5952 111.442 32.5952 111.442 32.5952 111.442C32.5952 111.442 32.5952 111.442 32.5952 111.442C32.5952 111.442 32.5952 111.442 32.5952 111.442C32.5952 111.442 32.5952 111.442 32.5952 111.442C32.5952 111.442 32.5952 111.442 32.5952 111.442C32.5952 111.442 32.5952 111.442 32.5952 111.442C32.5952 111.442 32.5952 111.442 32.5952 111.442C32.5952 111.442 32.5952 111.442 32.5952 111.442C32.5952 111.442 32.5952 111.442 32.5952 111.442C32.5952 111.442 32.5952 111.442 32.5952 111.442C32.5952 111.442 32.5952 111.442 32.5952 111.442C32.5952 111.442 32.5952 111.442 32.5952 111.442C32.5952 111.442 32.5952 111.442 32.5952 111.442C32.5952 111.442 32.5952 111.442 32.5952 111.442C32.5952 111.442 32.5952 111.442 32.5952 111.442C32.5952 111.442 32.5952 111.442 32.5952 111.442C32.5952 111.442 32.5952 111.442 32.5952 111.442C32.5952 111.442 32.5952 111.442 32.5952 111.442C32.5952 111.442 32.5952 111.442 32.5952 111.442C32.5952 111.442 32.5952 111.442 32.5952 111.442L32.5952 111.442L32.5952 111.442L32.5952 111.442L32.5952 111.442L32.5952 111.442L35.3082 111.44L35.3082 111.44L35.3082 111.44L35.3082 111.44L35.3082 111.44L35.3082 111.44C35.3082 111.44 35.3082 111.44 35.3082 111.44C35.3082 111.44 35.3082 111.44 35.3082 111.44C35.3082 111.44 35.3082 111.44 35.3082 111.44C35.3082 111.44 35.3082 111.44 35.3082 111.44C35.3082 111.44 35.3082 111.44 35.3082 111.44C35.3082 111.44 35.3082 111.44 35.3082 111.44C35.3082 111.44 35.3082 111.44 35.3082 111.44C35.3082 111.44 35.3082 111.44 35.3082 111.44C35.3082 111.44 35.3082 111.44 35.3082 111.44C35.3082 111.44 35.3082 111.44 35.3082 111.44C35.3082 111.44 35.3082 111.44 35.3082 111.44C35.3082 111.44 35.3082 111.44 35.3082 111.44C35.3082 111.44 35.3082 111.44 35.3082 111.44C35.3082 111.44 35.3082 111.44 35.3082 111.44C35.3082 111.44 35.3082 111.44 35.3082 111.44C35.3082 111.44 35.3082 111.44 35.3082 111.44C35.3082 111.44 35.3082 111.44 35.3082 111.44C35.3082 111.44 35.3082 111.44 35.3082 111.44C35.3082 111.44 35.3082 111.44 35.3082 111.44C35.3082 111.44 35.3082 111.44 35.3082 111.44C35.3082 111.44 35.3082 111.44 35.3082 111.44L35.3082 111.44L35.3082 111.44L35.3082 111.44L35.3082 111.44L35.3082 111.44L35.3082 111.44L35.3082 111.44L35.3082 111.44L35.3082 111.44L35.3082 111.44L35.3082 111.44C35.3082 111.44 35.3082 111.44 35.3082 111.44C35.3082 111.44 35.3082 111.44 35.3082 111.44C35.3082 111.44 35.3082 111.44 35.3082 111.44C35.3082 111.44 35.3082 111.44 35.3082 111.44C35.3082 111.44 35.3082 111.44 35.3082 111.44C35.3082 111.44 35.3082 111.44 35.3082 111.44C35.3082 111.44 35.3082 111.44 35.3082 111.44C35.3082 111.44 35.3082 111.44 35.3082 111.44C35.3082 111.44 35.3082 111.44 35.3082 111.44C35.3082 111.44 35.3082 111.44 35.3082 111.44C35.3082 111.44 35.3082 111.44 35.3082 111.44C35.3082 111.44 35.3082 111.44 35.3082 111.44C35.3082 111.44 35.3082 111.44 35.3082 111.44C35.3082 111.44 35.3082 111.44 35.3082 111.44C35.3082 111.44 35.3082 111.44 35.3082 111.44C35.3082 111.44 35.3082 111.44 35.3082 111.44C35.3082 111.44 35.3082 111.44 35.3082 111.44C35.3082 111.44 35.3082 111.44 35.3082 111.44C35.3082 111.44 35.3082 111.44 35.3082 111.44C35.3082 111.44 35.3082 111.44 35.3082 111.44C35.3082 111.44 35.3082 111.44 35.3082 111.44L35.3082 111.44L35.3082 111.44L35.3082 111.44L35.3082 111.44L35.3082 111.44L35.3082 111.44L35.3082 111.44L35.3082 111.44L35.3082 111.44L35.3082 111.44L35.3082 111.44C35.3082 111.44 35.3082 111.44 35.3082 111.44C35.3082 111.44 35.3082 111.44 35.3082 111.44C35.3082 111.44 35.3082 111.44 35.3082 111.44C35.3082 111.44 35.3082 111.44 35.3082 111.44C35.3082 111.44 35.3082 111.44 35.3082 111.44C35.3082 111.44 35.3082 111.44 35.3082 111.44C35.3082 111.44 35.3082 111.44 35.3082 111.44C35.3082 111.44 35.3082 111.44 35.3082 111.44C35.3082 111.44 35.3082 111.44 35.3082 111.44C35.3082 111.44 35.3082 111.44 35.3082 111.44C35.3082 111.44 35.3082 111.44 35.3082 111.44C35.3082 111.44 35.3082 111.44 35.3082 111.44C35.3082 111.44 35.3082 111.44 35.3082 111.44C35.3082 111.44 35.3082 111.44 35.3082 111.44C35.3082 111.44 35.3082 111.44 35.3082 111.44C35.3082 111.44 35.3082 111.44 35.3082 111.44C35.3082 111.44 35.3082 111.44 35.3082 111.44C35.3082 111.44 35.3082 111.44 35.3082 111.44C35.3082 111.44 35.3082 111.44 35.3082 111.44C35.3082 111.44 35.3082 111.44 35.3082 111.44C35.3082 111.44 35.3082 111.44 35.3082 111.44C35.3082 111.44 35.3082 111.44 35.3082 111.44L35.3082 111.44L35.3082 111.44L35.3082 111.44L35.3082 111.44L35.3082 111.44L35.3082 111.44L35.3082 111.44L35.3082 111.44L35.3082 111.44L35.3082 111.44C35.3082 111.44 35.3082 111.44 35.3082 111.44C35.3082 111.44 35.3082 111.44 35.3082 111.44C35.3082 111.44 35.3082 111.44 35.3082 111.44C35.3082 111.44 35.3082 111.44 35.3082 111.44C35.3082 111.44 35.3082 111.44 35.3082 111.44C35.3082 111.44 35.3082 111.44 35.3082 111.44C35.3082 111.44 35.3082 111.44 35.3082 111.44C35.3082 111.44 35.3082 111.44 35.3082 111.44C35.3082 111.44 35.3082 111.44 35.3082 111.44C35.3082 111.44 35.3082 111.44 35.3082 111.44C35.3082 111.44 35.3082 111.44 35.3082 111.44C35.3082 111.44 35.3082 111.44 35.3082 111.44C35.3082 111.44 35.3082 111.44 35.3082 111.44C35.3082 111.44 35.3082 111.44 35.3082 111.44C35.3082 111.44 35.3082 111.44 35.3082 111.44C35.3082 111.44 35.3082 111.44 35.3082 111.44C35.3082 111.44 35.3082 111.44 35.3082 111.44C35.3082 111.44 35.3082 111.44 35.3082 111.44C35.3082 111.44 35.3082 111.44 35.3082 111.44C35.3082 111.44 35.3082 111.44 35.3082 111.44C35.3082 111.44 35.3082 111.44 35.3082 111.44C35.3082 111.44 35.3082 111.44 35.3082 111.44L35.3082 111.44L35.3082 111.44L35.3082 111.44L35.3082 111.44L35.3082 111.44L35.3082 111.44L32.5952 111.442ZM71.104 54.6703C48.5318 63.6309 32.5758 85.6755 32.5952 111.442L35.3082 111.44C35.2896 86.8234 50.5318 65.7558 72.105 57.1918L71.104 54.6703ZM72.8673 55.4358L71.8984 52.9652L69.3728 53.9557L70.3417 56.4263L72.8673 55.4358Z" fill="#381C36" mask="url(#path-16-outside-4_418_2493)"/>
<mask id="path-18-outside-5_418_2493" maskUnits="userSpaceOnUse" x="29.2719" y="75.84" width="16.028" height="37.0121" fill="black">
<rect fill="white" x="29.2719" y="75.84" width="16.028" height="37.0121"/>
<path fill-rule="evenodd" clip-rule="evenodd" d="M41.0959 77.8432C34.886 87.5411 31.2895 99.0724 31.2988 111.443L33.9519 111.441C33.9429 99.5992 37.3851 88.5606 43.3287 79.2767L41.0959 77.8432Z"/>
</mask>
<path fill-rule="evenodd" clip-rule="evenodd" d="M41.0959 77.8432C34.886 87.5411 31.2895 99.0724 31.2988 111.443L33.9519 111.441C33.9429 99.5992 37.3851 88.5606 43.3287 79.2767L41.0959 77.8432Z" fill="#930000"/>
<path d="M41.0959 77.8432L41.8287 76.7017L40.6859 75.9679L39.9535 77.1117L41.0959 77.8432ZM31.2988 111.443L29.9423 111.444L29.9434 112.801L31.2999 112.8L31.2988 111.443ZM33.9519 111.441L33.9529 112.798L35.3094 112.797L35.3083 111.44L33.9519 111.441ZM43.3287 79.2767L44.4711 80.008L45.2015 78.8671L44.0615 78.1352L43.3287 79.2767ZM39.9535 77.1117C33.6079 87.0217 29.9328 98.8062 29.9423 111.444L32.6553 111.442C32.6462 99.3387 36.1642 88.0604 42.2382 78.5746L39.9535 77.1117ZM31.2999 112.8L33.9529 112.798L33.9508 110.085L31.2978 110.087L31.2999 112.8ZM42.1862 78.5453C36.1069 88.0413 32.5862 99.333 32.5954 111.442L35.3083 111.44C35.2996 99.8655 38.6633 89.0799 44.4711 80.008L42.1862 78.5453ZM44.0615 78.1352L41.8287 76.7017L40.363 78.9846L42.5958 80.4182L44.0615 78.1352Z" fill="#381C36" mask="url(#path-18-outside-5_418_2493)"/>
</g>
<path d="M7.12181 80.545C7.60471 80.5446 8.02258 80.6366 8.3754 80.8208C8.72822 80.9996 9.02685 81.2652 9.27128 81.6177L8.68571 82.1797C8.47929 81.8652 8.2458 81.6402 7.98525 81.5047C7.73013 81.3639 7.42622 81.2935 7.07354 81.2938C6.67745 81.2941 6.38993 81.3703 6.21099 81.5224C6.03205 81.6744 5.94266 81.859 5.94283 82.076C5.94295 82.2442 6.00004 82.3907 6.11407 82.5154C6.23354 82.6401 6.45336 82.7376 6.77355 82.8079L7.86434 83.0512C8.37989 83.1702 8.74627 83.3463 8.96349 83.5794C9.18612 83.8071 9.29758 84.1 9.29785 84.4582C9.2981 84.7891 9.20879 85.0768 9.02992 85.3211C8.85104 85.56 8.60159 85.7473 8.28156 85.8832C7.96153 86.0137 7.58991 86.0791 7.16668 86.0794C6.59696 86.0798 6.11126 85.9744 5.70959 85.7631C5.3079 85.5464 4.99842 85.278 4.78114 84.958L5.38297 84.3553C5.55139 84.6428 5.78759 84.8786 6.09158 85.0629C6.401 85.2417 6.76731 85.3309 7.19054 85.3306C7.56492 85.3303 7.85787 85.265 8.06939 85.1346C8.28632 84.9988 8.39469 84.8061 8.3945 84.5565C8.39439 84.4046 8.34003 84.269 8.23142 84.1497C8.12823 84.025 7.93283 83.9302 7.6452 83.8653L6.46486 83.5976C5.97645 83.4949 5.6155 83.3242 5.38201 83.0856C5.14851 82.8471 5.03163 82.5487 5.03136 82.1906C5.03113 81.8868 5.11502 81.61 5.28304 81.3603C5.45105 81.1106 5.68964 80.9123 5.99881 80.7656C6.3134 80.6189 6.68773 80.5453 7.12181 80.545ZM12.9796 81.9242L12.9801 82.6078L11.5802 82.6089L11.5819 84.7738C11.582 84.9692 11.6364 85.1156 11.745 85.2132C11.8536 85.3054 11.9947 85.3514 12.1683 85.3513C12.3202 85.3511 12.4477 85.3293 12.5508 85.2859C12.6593 85.2369 12.7596 85.1718 12.8518 85.0903L13.0476 85.725C12.9229 85.8336 12.7683 85.9205 12.5839 85.9858C12.4049 86.0456 12.2041 86.0756 11.9817 86.0758C11.6235 86.076 11.3223 85.9894 11.078 85.816C10.8337 85.6371 10.7114 85.3388 10.7111 84.921L10.7094 82.6096L9.92804 82.6102L9.92752 81.9265L10.7089 81.9259L10.7081 80.9736L11.5788 80.7288L11.5797 81.9252L12.9796 81.9242ZM13.844 85.993L13.8409 81.9235L14.5816 81.923L14.6635 82.6554C14.8856 82.1126 15.3113 81.841 15.9407 81.8406C16.0221 81.8405 16.1035 81.8486 16.1849 81.8648C16.2663 81.8756 16.3341 81.8945 16.3884 81.9216L16.2669 82.6868C16.2072 82.6651 16.1393 82.6489 16.0634 82.6381C15.9928 82.6218 15.8952 82.6138 15.7704 82.6139C15.5967 82.614 15.4286 82.6603 15.2659 82.7526C15.1086 82.8396 14.9757 82.9753 14.8674 83.1599C14.7644 83.339 14.713 83.5642 14.7132 83.8355L14.7149 85.9923L13.844 85.993ZM18.8737 81.8383C19.2698 81.838 19.6198 81.9219 19.9238 82.0898C20.2278 82.2578 20.464 82.5018 20.6324 82.8218C20.8063 83.1364 20.8934 83.5134 20.8937 83.9529C20.8941 84.3924 20.8075 84.7723 20.6341 85.0926C20.4662 85.4074 20.2303 85.649 19.9266 85.8175C19.6229 85.9859 19.273 86.0703 18.8769 86.0706C18.4808 86.0709 18.1307 85.987 17.8268 85.819C17.5228 85.6511 17.2839 85.4098 17.11 85.0952C16.9361 84.7752 16.849 84.3955 16.8487 83.956C16.8484 83.5165 16.9349 83.1393 17.1083 82.8245C17.2817 82.5042 17.5202 82.2599 17.824 82.0914C18.1277 81.923 18.4776 81.8386 18.8737 81.8383ZM18.8742 82.522C18.5161 82.5223 18.234 82.6473 18.028 82.897C17.822 83.1414 17.7192 83.4941 17.7196 83.9553C17.7199 84.4165 17.8233 84.7718 18.0296 85.0213C18.236 85.2653 18.5182 85.3872 18.8764 85.3869C19.2345 85.3866 19.5138 85.2643 19.7144 85.02C19.9204 84.7703 20.0232 84.4148 20.0229 83.9536C20.0225 83.4924 19.9192 83.1398 19.7128 82.8958C19.5118 82.6463 19.2323 82.5217 18.8742 82.522ZM21.9908 85.9868L21.9877 81.9174L22.7609 81.9168L22.8022 82.6167C22.9376 82.3453 23.1247 82.1471 23.3633 82.0221C23.6074 81.8972 23.8786 81.8346 24.177 81.8343C24.4646 81.8341 24.7224 81.8909 24.9504 82.0047C25.1838 82.113 25.3684 82.2811 25.5042 82.5089C25.64 82.7312 25.708 83.0106 25.7083 83.347L25.7103 85.984L24.8394 85.9847L24.8376 83.6162C24.8373 83.2147 24.753 82.9381 24.5847 82.7863C24.4218 82.629 24.2156 82.5505 23.966 82.5507C23.7869 82.5508 23.6133 82.5917 23.4452 82.6732C23.277 82.7547 23.1361 82.8905 23.0223 83.0804C22.9139 83.265 22.8598 83.5119 22.86 83.8212L22.8617 85.9862L21.9908 85.9868ZM29.3246 85.3464C29.737 85.3461 30.0572 85.4381 30.2852 85.6224C30.5132 85.8013 30.6274 86.0508 30.6276 86.3709C30.6278 86.6585 30.5385 86.9028 30.3596 87.1037C30.1807 87.31 29.9366 87.4648 29.6274 87.5681C29.3182 87.6769 28.9683 87.7314 28.5776 87.7317C27.9048 87.7322 27.4083 87.6295 27.088 87.4235C26.7731 87.2176 26.6156 86.96 26.6154 86.6507C26.6152 86.4662 26.6694 86.3007 26.7778 86.1541C26.8862 86.0075 27.0651 85.907 27.3147 85.8526C27.1627 85.7876 27.0433 85.6981 26.9564 85.5843C26.8695 85.4649 26.826 85.3131 26.8258 85.1286C26.8257 84.9495 26.8771 84.7921 26.9801 84.6564C27.0831 84.5152 27.2349 84.4093 27.4356 84.3386C27.0068 84.0948 26.7922 83.7179 26.7918 83.2078C26.7915 82.7955 26.9513 82.4644 27.2713 82.2145C27.5912 81.9593 28.0143 81.8314 28.5406 81.831C28.8825 81.8308 29.1836 81.8848 29.4442 81.9931C29.4874 81.7218 29.6066 81.4992 29.8018 81.3255C29.997 81.1463 30.2438 81.0565 30.5422 81.0563C30.5693 81.0563 30.591 81.0563 30.6073 81.0563L30.7462 81.7398C30.7191 81.7344 30.6865 81.7317 30.6485 81.7318C30.1819 81.7321 29.9216 81.9032 29.8676 82.2451C30.1553 82.4945 30.2994 82.8145 30.2997 83.2052C30.3 83.623 30.1402 83.9568 29.8202 84.2066C29.5003 84.4565 29.0744 84.5816 28.5427 84.582C28.3202 84.5821 28.1168 84.5633 27.9322 84.5255C27.7858 84.5636 27.68 84.6233 27.615 84.7048C27.5553 84.7808 27.5256 84.8622 27.5256 84.949C27.5258 85.2149 27.7185 85.3476 28.1038 85.3474L29.3246 85.3464ZM28.5411 82.4414C28.2915 82.4416 28.0827 82.5123 27.9146 82.6535C27.7519 82.7893 27.6706 82.9738 27.6708 83.2072C27.671 83.4405 27.7525 83.6276 27.9154 83.7686C28.0837 83.9095 28.2927 83.9799 28.5423 83.9797C28.7973 83.9795 29.0061 83.9088 29.1688 83.7676C29.3369 83.6264 29.4208 83.4392 29.4207 83.2058C29.4205 82.9725 29.3362 82.7881 29.1679 82.6526C29.0051 82.5116 28.7961 82.4413 28.5411 82.4414ZM28.5772 87.0806C29.0221 87.0802 29.3503 87.0203 29.5618 86.9008C29.7788 86.7812 29.8872 86.6401 29.8871 86.4773C29.887 86.3525 29.8353 86.2522 29.7322 86.1763C29.6345 86.1004 29.4554 86.0626 29.1949 86.0628L27.8846 86.0637C27.7272 86.0639 27.597 86.1047 27.494 86.1861C27.3964 86.2676 27.3476 86.3734 27.3477 86.5037C27.3479 86.6827 27.4565 86.8237 27.6736 86.9266C27.8907 87.0296 28.1919 87.0809 28.5772 87.0806ZM12.7559 89.5407C13.2388 89.5404 13.6567 89.6323 14.0095 89.8165C14.3623 89.9953 14.6609 90.2609 14.9054 90.6134L14.3198 91.1755C14.1134 90.8609 13.8799 90.6359 13.6193 90.5005C13.3642 90.3596 13.0603 90.2893 12.7076 90.2896C12.3115 90.2899 12.024 90.366 11.8451 90.5181C11.6661 90.6702 11.5767 90.8547 11.5769 91.0717C11.577 91.2399 11.6341 91.3864 11.7481 91.5111C11.8676 91.6358 12.0874 91.7333 12.4076 91.8036L13.4984 92.047C14.014 92.1659 14.3803 92.342 14.5976 92.5752C14.8202 92.8029 14.9316 93.0958 14.9319 93.4539C14.9322 93.7849 14.8429 94.0725 14.664 94.3168C14.4851 94.5557 14.2357 94.7431 13.9156 94.879C13.5956 95.0094 13.224 95.0748 12.8008 95.0751C12.231 95.0756 11.7453 94.9701 11.3437 94.7588C10.942 94.5421 10.6325 94.2738 10.4152 93.9538L11.017 93.3511C11.1855 93.6385 11.4217 93.8743 11.7257 94.0586C12.0351 94.2374 12.4014 94.3267 12.8246 94.3264C13.199 94.3261 13.4919 94.2607 13.7035 94.1304C13.9204 93.9945 14.0288 93.8018 14.0286 93.5522C14.0285 93.4003 13.9741 93.2647 13.8655 93.1454C13.7623 93.0207 13.5669 92.9259 13.2793 92.861L12.0989 92.5933C11.6105 92.4906 11.2496 92.32 11.0161 92.0814C10.7826 91.8428 10.6657 91.5445 10.6654 91.1864C10.6652 90.8825 10.7491 90.6057 10.9171 90.356C11.0851 90.1063 11.3237 89.9081 11.6329 89.7613C11.9475 89.6146 12.3218 89.5411 12.7559 89.5407ZM17.8192 95.0714C17.4123 95.0717 17.0541 94.9878 16.7447 94.8199C16.4407 94.6519 16.2018 94.4106 16.0279 94.096C15.854 93.776 15.7669 93.3963 15.7666 92.9568C15.7663 92.5173 15.8501 92.1401 16.0181 91.8253C16.1914 91.505 16.4273 91.2607 16.7256 91.0923C17.0293 90.9238 17.3765 90.8395 17.7672 90.8392C18.1633 90.8389 18.4997 90.92 18.7766 91.0826C19.0534 91.2451 19.2652 91.4675 19.4119 91.7495C19.5586 92.0315 19.6321 92.3516 19.6324 92.7097C19.6325 92.8128 19.6298 92.9078 19.6245 92.9946C19.6191 93.0814 19.611 93.1547 19.6002 93.2143L16.6214 93.2166C16.6597 93.5964 16.782 93.8866 16.9883 94.0872C17.2001 94.2824 17.4714 94.3798 17.8024 94.3796C18.0737 94.3794 18.2934 94.3276 18.4615 94.2244C18.6297 94.1212 18.7625 93.9773 18.86 93.7928L19.5521 94.1178C19.4112 94.4163 19.1862 94.6498 18.8771 94.8182C18.5733 94.9867 18.2207 95.0711 17.8192 95.0714ZM17.7514 91.531C17.453 91.5312 17.2062 91.6182 17.011 91.792C16.8212 91.9658 16.6993 92.2182 16.6453 92.5492L18.7858 92.5476C18.7639 92.222 18.6606 91.9725 18.476 91.799C18.2914 91.6201 18.0498 91.5308 17.7514 91.531ZM21.5759 89.0864L21.5795 93.8477C21.5796 94.0484 21.615 94.1868 21.6856 94.2627C21.7562 94.3386 21.8729 94.3765 22.0356 94.3764C22.1333 94.3763 22.2147 94.3708 22.2798 94.3599C22.3503 94.3436 22.4371 94.3164 22.5402 94.2783L22.443 94.9295C22.2532 95.0219 22.028 95.0682 21.7676 95.0684C21.404 95.0686 21.1354 94.9766 20.9616 94.7923C20.7933 94.6079 20.709 94.3177 20.7087 93.9216L20.705 89.0871L21.5759 89.0864ZM24.1113 89.0845L24.1149 93.8458C24.1151 94.0465 24.1504 94.1849 24.221 94.2608C24.2916 94.3367 24.4083 94.3746 24.5711 94.3744C24.6688 94.3744 24.7501 94.3689 24.8152 94.358C24.8858 94.3417 24.9726 94.3145 25.0756 94.2764L24.9784 94.9276C24.7886 95.02 24.5635 95.0663 24.303 95.0665C23.9395 95.0667 23.6708 94.9747 23.4971 94.7903C23.3287 94.606 23.2444 94.3158 23.2441 93.9197L23.2404 89.0852L24.1113 89.0845Z" fill="#8E91A5"/>
<path d="M159.048 80.4298C159.53 80.4294 159.948 80.5213 160.301 80.7055C160.654 80.8843 160.953 81.15 161.197 81.5025L160.611 82.0645C160.405 81.7499 160.172 81.525 159.911 81.3895C159.656 81.2486 159.352 81.1783 158.999 81.1786C158.603 81.1789 158.316 81.2551 158.137 81.4071C157.958 81.5592 157.868 81.7437 157.869 81.9608C157.869 82.129 157.926 82.2754 158.04 82.4001C158.159 82.5248 158.379 82.6223 158.699 82.6926L159.79 82.936C160.306 83.055 160.672 83.231 160.889 83.4642C161.112 83.6919 161.223 83.9848 161.224 84.3429C161.224 84.6739 161.135 84.9615 160.956 85.2058C160.777 85.4447 160.527 85.6321 160.207 85.768C159.887 85.8985 159.516 85.9638 159.092 85.9642C158.523 85.9646 158.037 85.8592 157.635 85.6479C157.234 85.4311 156.924 85.1628 156.707 84.8428L157.309 84.2401C157.477 84.5275 157.713 84.7634 158.017 84.9476C158.327 85.1264 158.693 85.2157 159.116 85.2154C159.491 85.2151 159.784 85.1498 159.995 85.0194C160.212 84.8836 160.32 84.6909 160.32 84.4413C160.32 84.2893 160.266 84.1537 160.157 84.0344C160.054 83.9097 159.859 83.8149 159.571 83.75L158.391 83.4823C157.902 83.3796 157.541 83.209 157.308 82.9704C157.074 82.7318 156.957 82.4335 156.957 82.0754C156.957 81.7715 157.041 81.4948 157.209 81.245C157.377 80.9953 157.615 80.7971 157.925 80.6504C158.239 80.5036 158.614 80.4301 159.048 80.4298ZM164.905 81.8089L164.906 82.4926L163.506 82.4937L163.508 84.6586C163.508 84.8539 163.562 85.0004 163.671 85.098C163.779 85.1901 163.92 85.2362 164.094 85.236C164.246 85.2359 164.374 85.2141 164.477 85.1706C164.585 85.1217 164.685 85.0565 164.778 84.9751L164.973 85.6098C164.849 85.7184 164.694 85.8053 164.51 85.8705C164.331 85.9304 164.13 85.9604 163.907 85.9605C163.549 85.9608 163.248 85.8742 163.004 85.7008C162.76 85.5219 162.637 85.2236 162.637 84.8058L162.635 82.4943L161.854 82.4949L161.853 81.8113L162.635 81.8107L162.634 80.8584L163.505 80.6136L163.505 81.81L164.905 81.8089ZM165.77 85.8777L165.767 81.8083L166.507 81.8077L166.589 82.5402C166.811 81.9974 167.237 81.7258 167.866 81.7253C167.948 81.7253 168.029 81.7333 168.111 81.7496C168.192 81.7603 168.26 81.7793 168.314 81.8064L168.193 82.5715C168.133 82.5499 168.065 82.5336 167.989 82.5228C167.919 82.5066 167.821 82.4985 167.696 82.4986C167.523 82.4988 167.354 82.545 167.192 82.6374C167.034 82.7243 166.902 82.8601 166.793 83.0446C166.69 83.2238 166.639 83.449 166.639 83.7203L166.641 85.8771L165.77 85.8777ZM170.799 81.7231C171.196 81.7228 171.546 81.8066 171.85 81.9746C172.154 82.1426 172.39 82.3866 172.558 82.7066C172.732 83.0211 172.819 83.3982 172.819 83.8377C172.82 84.2772 172.733 84.6571 172.56 84.9773C172.392 85.2922 172.156 85.5338 171.852 85.7022C171.549 85.8707 171.199 85.955 170.803 85.9553C170.407 85.9556 170.057 85.8718 169.753 85.7038C169.449 85.5358 169.21 85.2946 169.036 84.98C168.862 84.66 168.775 84.2802 168.774 83.8407C168.774 83.4012 168.861 83.0241 169.034 82.7092C169.207 82.389 169.446 82.1446 169.75 81.9762C170.053 81.8078 170.403 81.7234 170.799 81.7231ZM170.8 82.4068C170.442 82.407 170.16 82.532 169.954 82.7818C169.748 83.0261 169.645 83.3789 169.645 83.8401C169.646 84.3013 169.749 84.6566 169.955 84.906C170.162 85.1501 170.444 85.2719 170.802 85.2717C171.16 85.2714 171.44 85.1491 171.64 84.9048C171.846 84.655 171.949 84.2995 171.949 83.8383C171.948 83.3771 171.845 83.0245 171.639 82.7805C171.438 82.5311 171.158 82.4065 170.8 82.4068ZM173.917 85.8716L173.914 81.8021L174.687 81.8016L174.728 82.5015C174.863 82.2301 175.05 82.0319 175.289 81.9069C175.533 81.7819 175.804 81.7193 176.103 81.7191C176.39 81.7189 176.648 81.7757 176.876 81.8894C177.11 81.9978 177.294 82.1658 177.43 82.3936C177.566 82.616 177.634 82.8954 177.634 83.2318L177.636 85.8688L176.765 85.8694L176.763 83.501C176.763 83.0995 176.679 82.8228 176.51 82.671C176.348 82.5138 176.141 82.4353 175.892 82.4355C175.713 82.4356 175.539 82.4764 175.371 82.558C175.203 82.6395 175.062 82.7752 174.948 82.9652C174.84 83.1498 174.786 83.3967 174.786 83.706L174.787 85.8709L173.917 85.8716ZM181.25 85.2312C181.663 85.2309 181.983 85.3229 182.211 85.5072C182.439 85.6861 182.553 85.9356 182.553 86.2557C182.554 86.5433 182.464 86.7875 182.285 86.9884C182.106 87.1947 181.862 87.3496 181.553 87.4529C181.244 87.5616 180.894 87.6162 180.503 87.6165C179.831 87.617 179.334 87.5142 179.014 87.3083C178.699 87.1024 178.541 86.8447 178.541 86.5355C178.541 86.351 178.595 86.1855 178.704 86.0389C178.812 85.8923 178.991 85.7918 179.24 85.7373C179.089 85.6723 178.969 85.5829 178.882 85.469C178.795 85.3497 178.752 85.1978 178.752 85.0133C178.751 84.8343 178.803 84.6769 178.906 84.5412C179.009 84.4 179.161 84.2941 179.361 84.2234C178.933 83.9796 178.718 83.6026 178.718 83.0926C178.717 82.6802 178.877 82.3491 179.197 82.0993C179.517 81.844 179.94 81.7162 180.466 81.7158C180.808 81.7155 181.109 81.7696 181.37 81.8779C181.413 81.6066 181.532 81.384 181.728 81.2102C181.923 81.031 182.17 80.9413 182.468 80.9411C182.495 80.9411 182.517 80.9411 182.533 80.941L182.672 81.6246C182.645 81.6192 182.612 81.6165 182.574 81.6165C182.108 81.6169 181.847 81.788 181.793 82.1299C182.081 82.3793 182.225 82.6993 182.225 83.0899C182.226 83.5077 182.066 83.8415 181.746 84.0914C181.426 84.3412 181 84.4663 180.468 84.4667C180.246 84.4669 180.043 84.4481 179.858 84.4102C179.712 84.4483 179.606 84.5081 179.541 84.5895C179.481 84.6655 179.451 84.7469 179.451 84.8338C179.452 85.0996 179.644 85.2324 180.03 85.2321L181.25 85.2312ZM180.467 82.3262C180.217 82.3264 180.008 82.3971 179.84 82.5383C179.678 82.6741 179.596 82.8586 179.597 83.0919C179.597 83.3252 179.678 83.5124 179.841 83.6533C180.009 83.7943 180.218 83.8646 180.468 83.8645C180.723 83.8643 180.932 83.7936 181.095 83.6524C181.263 83.5112 181.347 83.3239 181.346 83.0906C181.346 82.8573 181.262 82.6729 181.094 82.5373C180.931 82.3964 180.722 82.326 180.467 82.3262ZM180.503 86.9653C180.948 86.965 181.276 86.9051 181.488 86.7855C181.705 86.666 181.813 86.5249 181.813 86.3621C181.813 86.2373 181.761 86.1369 181.658 86.0611C181.56 85.9852 181.381 85.9473 181.121 85.9475L179.81 85.9485C179.653 85.9486 179.523 85.9894 179.42 86.0709C179.322 86.1524 179.273 86.2582 179.274 86.3884C179.274 86.5675 179.382 86.7085 179.599 86.8114C179.817 86.9143 180.118 86.9656 180.503 86.9653ZM162.986 94.8798L162.982 89.5082L165.098 89.5066C165.743 89.5061 166.216 89.636 166.514 89.8962C166.813 90.1564 166.962 90.5171 166.963 90.9783C166.963 91.2605 166.882 91.5128 166.719 91.7354C166.556 91.9526 166.318 92.0911 166.003 92.151L166.003 92.1592C166.35 92.2186 166.619 92.3622 166.809 92.5899C167.005 92.8177 167.103 93.0835 167.103 93.3873C167.103 93.8485 166.935 94.2122 166.599 94.4783C166.263 94.7444 165.775 94.8777 165.134 94.8782L162.986 94.8798ZM163.838 91.819L165.034 91.8181C165.718 91.8176 166.06 91.5541 166.059 91.0278C166.059 90.5015 165.717 90.2386 165.033 90.2391L163.837 90.24L163.838 91.819ZM163.84 94.1548L165.174 94.1538C165.516 94.1536 165.771 94.0828 165.939 93.9416C166.113 93.8004 166.2 93.6023 166.199 93.3473C166.199 93.0923 166.112 92.8943 165.938 92.7534C165.77 92.6124 165.515 92.5421 165.173 92.5423L163.838 92.5433L163.84 94.1548ZM169.701 94.9562C169.435 94.9564 169.188 94.9077 168.96 94.8102C168.738 94.7127 168.559 94.5555 168.423 94.3386C168.287 94.1216 168.219 93.8395 168.219 93.4923L168.217 90.8064L169.088 90.8058L169.09 93.2719C169.09 93.6408 169.166 93.8958 169.318 94.0367C169.475 94.1723 169.698 94.2399 169.986 94.2397C170.17 94.2396 170.344 94.1988 170.506 94.1172C170.669 94.0303 170.799 93.8973 170.897 93.7181C171 93.5336 171.051 93.2975 171.051 93.0099L171.049 90.8043L171.92 90.8036L171.923 94.8731L171.158 94.8737L171.117 94.2144C170.976 94.4696 170.786 94.6569 170.548 94.7765C170.309 94.896 170.027 94.9559 169.701 94.9562ZM176.853 90.7999L175.075 95.3509C174.896 95.8231 174.693 96.1515 174.465 96.3362C174.237 96.5262 173.944 96.6214 173.586 96.6217C173.385 96.6218 173.203 96.5976 173.041 96.5489C172.878 96.5001 172.734 96.4297 172.609 96.3376L172.82 95.6619C173.016 95.8354 173.252 95.922 173.529 95.9218C173.675 95.9217 173.805 95.8836 173.919 95.8075C174.038 95.7315 174.144 95.5741 174.236 95.3353L174.415 94.8956L173.983 93.8867L172.711 90.803L173.687 90.8023L174.593 93.3572L174.829 94.1221L175.097 93.2836L175.95 90.8006L176.853 90.7999Z" fill="#8E91A5"/>
<path d="M37.1436 51.3581C37.6265 51.3578 38.0444 51.4497 38.3972 51.6339C38.75 51.8127 39.0487 52.0783 39.2931 52.4308L38.7075 52.9929C38.5011 52.6783 38.2676 52.4533 38.0071 52.3179C37.7519 52.177 37.448 52.1067 37.0953 52.1069C36.6992 52.1072 36.4117 52.1834 36.2328 52.3355C36.0539 52.4875 35.9645 52.6721 35.9646 52.8891C35.9648 53.0573 36.0218 53.2038 36.1359 53.3285C36.2553 53.4532 36.4752 53.5507 36.7953 53.621L37.8861 53.8643C38.4017 53.9833 38.7681 54.1594 38.9853 54.3925C39.2079 54.6203 39.3194 54.9132 39.3196 55.2713C39.3199 55.6023 39.2306 55.8899 39.0517 56.1342C38.8728 56.3731 38.6234 56.5605 38.3034 56.6964C37.9833 56.8268 37.6117 56.8922 37.1885 56.8925C36.6188 56.893 36.1331 56.7875 35.7314 56.5762C35.3297 56.3595 35.0202 56.0911 34.8029 55.7712L35.4048 55.1684C35.5732 55.4559 35.8094 55.6917 36.1134 55.876C36.4228 56.0548 36.7891 56.1441 37.2123 56.1437C37.5867 56.1435 37.8797 56.0781 38.0912 55.9477C38.3081 55.8119 38.4165 55.6192 38.4163 55.3696C38.4162 55.2177 38.3618 55.0821 38.2532 54.9628C38.15 54.8381 37.9546 54.7433 37.667 54.6784L36.4867 54.4107C35.9983 54.308 35.6373 54.1373 35.4038 53.8988C35.1703 53.6602 35.0534 53.3619 35.0532 53.0038C35.0529 52.6999 35.1368 52.4231 35.3048 52.1734C35.4729 51.9237 35.7114 51.7255 36.0206 51.5787C36.3352 51.432 36.7095 51.3585 37.1436 51.3581ZM42.2069 56.8887C41.8 56.889 41.4418 56.8052 41.1324 56.6372C40.8284 56.4693 40.5895 56.228 40.4156 55.9134C40.2418 55.5934 40.1547 55.2137 40.1543 54.7742C40.154 54.3347 40.2378 53.9575 40.4058 53.6427C40.5792 53.3224 40.815 53.0781 41.1133 52.9097C41.417 52.7412 41.7642 52.6569 42.1549 52.6566C42.551 52.6563 42.8875 52.7374 43.1643 52.9C43.4411 53.0625 43.6529 53.2848 43.7996 53.5669C43.9464 53.8489 44.0198 54.169 44.0201 54.5271C44.0202 54.6302 44.0176 54.7251 44.0122 54.812C44.0068 54.8988 43.9987 54.972 43.9879 55.0317L41.0091 55.034C41.0474 55.4138 41.1697 55.704 41.376 55.9046C41.5878 56.0997 41.8591 56.1972 42.1901 56.1969C42.4614 56.1967 42.6811 56.145 42.8493 56.0418C43.0174 55.9386 43.1502 55.7947 43.2477 55.6101L43.9398 55.9352C43.7989 56.2337 43.5739 56.4672 43.2648 56.6356C42.9611 56.8041 42.6084 56.8884 42.2069 56.8887ZM42.1391 53.3484C41.8407 53.3486 41.5939 53.4356 41.3987 53.6094C41.2089 53.7832 41.087 54.0356 41.033 54.3666L43.1735 54.365C43.1516 54.0394 43.0483 53.7899 42.8637 53.6164C42.6791 53.4375 42.4376 53.3482 42.1391 53.3484ZM45.9636 50.9038L45.9672 55.6651C45.9673 55.8658 46.0027 56.0042 46.0733 56.0801C46.1439 56.156 46.2606 56.1939 46.4234 56.1937C46.521 56.1937 46.6024 56.1882 46.6675 56.1773C46.738 56.161 46.8248 56.1338 46.9279 56.0957L46.8307 56.7469C46.6409 56.8393 46.4157 56.8856 46.1553 56.8858C45.7918 56.886 45.5231 56.794 45.3493 56.6096C45.181 56.4253 45.0967 56.1351 45.0964 55.739L45.0927 50.9045L45.9636 50.9038ZM48.499 50.9019L48.5026 55.6631C48.5028 55.8639 48.5382 56.0022 48.6088 56.0782C48.6794 56.1541 48.796 56.192 48.9588 56.1918C49.0565 56.1918 49.1379 56.1863 49.203 56.1754C49.2735 56.159 49.3603 56.1318 49.4634 56.0938L49.3662 56.745C49.1763 56.8374 48.9512 56.8836 48.6908 56.8838C48.3272 56.8841 48.0586 56.7921 47.8848 56.6077C47.7165 56.4234 47.6321 56.1331 47.6318 55.7371L47.6282 50.9026L48.499 50.9019Z" fill="#8E91A5"/>
<path d="M81.9217 34.4499L81.9257 39.8216L80.8921 39.8224L78.8141 36.4382L78.2925 35.4863L78.2844 35.4863L78.3176 36.3571L78.3202 39.8243L77.5226 39.8249L77.5186 34.4532L78.5441 34.4525L80.6139 37.8285L81.1436 38.7967L81.1518 38.7967L81.1186 37.9177L81.1159 34.4505L81.9217 34.4499ZM85.1284 39.9005C84.7215 39.9009 84.3633 39.817 84.0539 39.6491C83.7499 39.4811 83.511 39.2398 83.3371 38.9252C83.1632 38.6052 83.0761 38.2255 83.0758 37.786C83.0755 37.3465 83.1593 36.9693 83.3272 36.6545C83.5006 36.3342 83.7365 36.0899 84.0348 35.9215C84.3385 35.753 84.6857 35.6687 85.0764 35.6684C85.4725 35.6681 85.8089 35.7492 86.0858 35.9118C86.3626 36.0743 86.5744 36.2966 86.7211 36.5787C86.8678 36.8607 86.9413 37.1808 86.9416 37.5389C86.9417 37.642 86.939 37.7369 86.9337 37.8238C86.9283 37.9106 86.9202 37.9838 86.9094 38.0435L83.9306 38.0458C83.9688 38.4256 84.0911 38.7158 84.2975 38.9164C84.5092 39.1115 84.7806 39.209 85.1116 39.2088C85.3829 39.2086 85.6026 39.1568 85.7707 39.0536C85.9389 38.9504 86.0717 38.8065 86.1692 38.622L86.8613 38.947C86.7204 39.2455 86.4954 39.479 86.1863 39.6474C85.8825 39.8159 85.5299 39.9002 85.1284 39.9005ZM85.0606 36.3602C84.7622 36.3604 84.5154 36.4474 84.3202 36.6212C84.1304 36.795 84.0085 37.0474 83.9545 37.3784L86.095 37.3768C86.0731 37.0512 85.9698 36.8017 85.7852 36.6282C85.6006 36.4493 85.359 36.36 85.0606 36.3602ZM89.4918 39.8972C89.226 39.8975 88.9791 39.8488 88.7511 39.7513C88.5286 39.6538 88.3494 39.4966 88.2136 39.2797C88.0778 39.0627 88.0097 38.7806 88.0095 38.4334L88.0074 35.7475L88.8783 35.7469L88.8802 38.213C88.8804 38.5819 88.9566 38.8369 89.1086 38.9778C89.2661 39.1134 89.4886 39.181 89.7762 39.1808C89.9607 39.1807 90.1342 39.1398 90.297 39.0583C90.4597 38.9714 90.5898 38.8384 90.6873 38.6592C90.7903 38.4747 90.8417 38.2386 90.8414 37.951L90.8398 35.7454L91.7106 35.7447L91.7137 39.8142L90.9486 39.8148L90.9075 39.1555C90.7666 39.4107 90.5768 39.598 90.3382 39.7176C90.0995 39.8371 89.8174 39.897 89.4918 39.8972ZM95.6593 35.7418L95.6598 36.4254L94.2599 36.4265L94.2616 38.5914C94.2617 38.7868 94.3161 38.9332 94.4247 39.0308C94.5333 39.123 94.6744 39.169 94.848 39.1688C94.9999 39.1687 95.1274 39.1469 95.2305 39.1034C95.339 39.0545 95.4393 38.9893 95.5315 38.9079L95.7273 39.5426C95.6026 39.6512 95.448 39.7381 95.2636 39.8034C95.0846 39.8632 94.8838 39.8932 94.6614 39.8933C94.3033 39.8936 94.0021 39.807 93.7578 39.6336C93.5135 39.4547 93.3911 39.1564 93.3908 38.7386L93.3891 36.4271L92.6078 36.4277L92.6072 35.7441L93.3886 35.7435L93.3879 34.7912L94.2585 34.5464L94.2594 35.7428L95.6593 35.7418ZM96.5237 39.8105L96.5206 35.7411L97.2613 35.7405L97.3432 36.473C97.5653 35.9302 97.991 35.6586 98.6204 35.6581C98.7018 35.6581 98.7832 35.6661 98.8646 35.6824C98.946 35.6932 99.0138 35.7121 99.0681 35.7392L98.9466 36.5043C98.8869 36.4827 98.8191 36.4664 98.7431 36.4556C98.6725 36.4394 98.5749 36.4314 98.4501 36.4315C98.2764 36.4316 98.1083 36.4778 97.9456 36.5702C97.7883 36.6571 97.6555 36.7929 97.5471 36.9774C97.4441 37.1566 97.3927 37.3818 97.3929 37.6531L97.3946 39.8099L96.5237 39.8105ZM102.156 37.1937C102.156 36.9224 102.08 36.7136 101.928 36.5672C101.781 36.4154 101.578 36.3396 101.317 36.3398C101.073 36.3399 100.862 36.3971 100.683 36.5112C100.509 36.6252 100.385 36.8098 100.309 37.0649L99.5761 36.7562C99.6789 36.4251 99.8795 36.1591 100.178 35.9581C100.481 35.7571 100.872 35.6564 101.35 35.6561C101.67 35.6558 101.955 35.7099 102.204 35.8182C102.459 35.9211 102.658 36.081 102.799 36.2979C102.945 36.5094 103.019 36.778 103.019 37.1035L103.02 38.9185C103.021 39.1193 103.121 39.2196 103.322 39.2194C103.42 39.2193 103.514 39.2057 103.607 39.1785L103.558 39.7808C103.434 39.8406 103.276 39.8706 103.086 39.8707C102.869 39.8709 102.682 39.8222 102.525 39.7246C102.367 39.6271 102.261 39.4807 102.207 39.2854C102.077 39.4862 101.89 39.6383 101.646 39.7416C101.402 39.8394 101.157 39.8884 100.913 39.8886C100.528 39.8889 100.208 39.7969 99.9526 39.6126C99.6975 39.4283 99.5698 39.1517 99.5695 38.7827C99.5693 38.4843 99.6667 38.2374 99.8619 38.0419C100.063 37.8464 100.345 37.7105 100.708 37.6343L102.157 37.3483L102.156 37.1937ZM100.448 38.717C100.449 38.8689 100.506 38.9909 100.62 39.0831C100.739 39.1698 100.896 39.2131 101.092 39.213C101.276 39.2128 101.45 39.1828 101.613 39.123C101.775 39.0632 101.905 38.9655 102.003 38.8297C102.106 38.694 102.157 38.5176 102.157 38.3006L102.157 37.9588L101.132 38.1711C100.898 38.2147 100.725 38.2773 100.611 38.3587C100.502 38.4402 100.448 38.5596 100.448 38.717ZM105.29 33.9032L105.294 38.6645C105.294 38.8652 105.329 39.0036 105.4 39.0795C105.47 39.1554 105.587 39.1933 105.75 39.1932C105.847 39.1931 105.929 39.1876 105.994 39.1767C106.064 39.1604 106.151 39.1332 106.254 39.0951L106.157 39.7463C105.967 39.8387 105.742 39.885 105.482 39.8852C105.118 39.8854 104.85 39.7934 104.676 39.6091C104.507 39.4247 104.423 39.1345 104.423 38.7384L104.419 33.9039L105.29 33.9032Z" fill="#8E91A5"/>
<path d="M141.931 56.0537L141.926 50.682L144.043 50.6804C144.688 50.6799 145.16 50.8098 145.459 51.07C145.758 51.3302 145.907 51.6909 145.908 52.1521C145.908 52.4343 145.827 52.6867 145.664 52.9092C145.501 53.1264 145.263 53.2649 144.948 53.3249L144.948 53.333C145.295 53.3924 145.564 53.536 145.754 53.7638C145.95 53.9915 146.047 54.2573 146.048 54.5611C146.048 55.0223 145.88 55.386 145.544 55.6521C145.208 55.9183 144.719 56.0516 144.079 56.052L141.931 56.0537ZM142.783 52.9928L143.979 52.9919C144.663 52.9914 145.005 52.728 145.004 52.2017C145.004 51.6753 144.662 51.4124 143.978 51.413L142.782 51.4139L142.783 52.9928ZM142.785 55.3287L144.119 55.3277C144.461 55.3274 144.716 55.2567 144.884 55.1155C145.058 54.9743 145.144 54.7762 145.144 54.5211C145.144 54.2661 145.057 54.0681 144.883 53.9272C144.715 53.7862 144.46 53.7159 144.118 53.7162L142.783 53.7172L142.785 55.3287ZM148.646 56.13C148.38 56.1302 148.133 56.0815 147.905 55.984C147.683 55.8865 147.504 55.7293 147.368 55.5124C147.232 55.2955 147.164 55.0134 147.164 54.6661L147.162 51.9803L148.033 51.9796L148.034 54.4457C148.035 54.8147 148.111 55.0696 148.263 55.2106C148.42 55.3461 148.643 55.4138 148.93 55.4135C149.115 55.4134 149.288 55.3726 149.451 55.2911C149.614 55.2041 149.744 55.0711 149.842 54.892C149.944 54.7074 149.996 54.4713 149.996 54.1838L149.994 51.9781L150.865 51.9775L150.868 56.0469L150.103 56.0475L150.062 55.3883C149.921 55.6434 149.731 55.8307 149.492 55.9503C149.254 56.0698 148.972 56.1297 148.646 56.13ZM155.798 51.9737L154.019 56.5247C153.841 56.9969 153.637 57.3253 153.41 57.51C153.182 57.7001 152.889 57.7952 152.531 57.7955C152.33 57.7957 152.148 57.7714 151.986 57.7227C151.823 57.674 151.679 57.6035 151.554 57.5114L151.765 56.8357C151.961 57.0092 152.197 57.0958 152.473 57.0956C152.62 57.0955 152.75 57.0574 152.864 56.9814C152.983 56.9053 153.089 56.7479 153.181 56.5091L153.36 56.0694L152.928 55.0606L151.656 51.9769L152.632 51.9761L153.538 54.5311L153.774 55.2959L154.042 54.4574L154.895 51.9744L155.798 51.9737Z" fill="#8E91A5"/>
<defs>
<filter id="filter0_d_418_2493" x="19.3297" y="40.8355" width="148.55" height="86.2917" filterUnits="userSpaceOnUse" color-interpolation-filters="sRGB">
<feFlood flood-opacity="0" result="BackgroundImageFix"/>
<feColorMatrix in="SourceAlpha" type="matrix" values="0 0 0 0 0 0 0 0 0 0 0 0 0 0 0 0 0 0 127 0" result="hardAlpha"/>
<feOffset dy="3.71426"/>
<feGaussianBlur stdDeviation="5.30608"/>
<feComposite in2="hardAlpha" operator="out"/>
<feColorMatrix type="matrix" values="0 0 0 0 0.792157 0 0 0 0 0 0 0 0 0 0.435294 0 0 0 0.5 0"/>
<feBlend mode="normal" in2="BackgroundImageFix" result="effect1_dropShadow_418_2493"/>
<feBlend mode="normal" in="SourceGraphic" in2="effect1_dropShadow_418_2493" result="shape"/>
</filter>
</defs>
</svg>
