<svg width="154" height="157" viewBox="0 0 154 157" fill="none" xmlns="http://www.w3.org/2000/svg">
<mask id="mask0_404_16077" style="mask-type:alpha" maskUnits="userSpaceOnUse" x="0" y="0" width="154" height="157">
<rect x="0.938477" y="0.98584" width="152" height="155.858" rx="11.5736" transform="rotate(-0.100451 0.938477 0.98584)" fill="#161824"/>
<rect x="1.32494" y="1.37095" width="151.228" height="155.086" rx="11.1878" transform="rotate(-0.100451 1.32494 1.37095)" stroke="white" stroke-opacity="0.19" stroke-width="0.771574"/>
</mask>
<g mask="url(#mask0_404_16077)">
<rect x="1.32689" y="2.577" width="151.228" height="153.641" rx="11.1878" transform="rotate(-0.100451 1.32689 2.577)" stroke="white" stroke-opacity="0.19" stroke-width="0.771574"/>
<rect x="83.5142" y="10.8716" width="45.5228" height="23.1472" rx="11.5736" transform="rotate(-0.100451 83.5142 10.8716)" fill="#00FF94"/>
<path d="M95.3973 17.8601C96.6565 17.8579 97.6109 18.259 98.2604 19.0633C98.91 19.8585 99.2361 21.0199 99.2387 22.5476C99.2407 23.6494 99.0756 24.5524 98.7435 25.2567C98.4207 25.9609 97.9725 26.4802 97.3991 26.8146C96.8256 27.1396 96.1639 27.3028 95.4139 27.3041C94.6176 27.3055 93.9229 27.1493 93.3298 26.8356C92.7459 26.5125 92.3099 26.0041 92.0216 25.3101L94.1589 24.4592C94.2336 24.7831 94.3729 25.0375 94.5769 25.2223C94.7902 25.4071 95.082 25.4992 95.4524 25.4986C96.0357 25.4975 96.4566 25.2746 96.7151 24.8297C96.9828 24.3756 97.1159 23.7318 97.1144 22.8985L97.114 22.6763L97.0724 22.6764C96.9157 23.0933 96.6246 23.3994 96.199 23.5946C95.7827 23.7897 95.3385 23.8877 94.8663 23.8886C94.2829 23.8896 93.7689 23.7747 93.324 23.544C92.8792 23.3041 92.5314 22.9714 92.2807 22.5459C92.0299 22.1204 91.9041 21.6161 91.903 21.0327C91.9019 20.3754 92.0444 19.8103 92.3306 19.3376C92.6261 18.8649 93.0328 18.5031 93.5509 18.2522C94.0782 17.992 94.6937 17.8613 95.3973 17.8601ZM95.4005 19.6933C94.9932 19.694 94.6739 19.8057 94.4428 20.0283C94.2118 20.251 94.0966 20.566 94.0973 20.9733C94.0979 21.3437 94.2188 21.6351 94.4599 21.8477C94.701 22.0509 95.016 22.1522 95.4049 22.1516C95.7752 22.1509 96.0852 22.0393 96.3348 21.8166C96.5844 21.594 96.7089 21.2975 96.7082 20.9271C96.7075 20.5475 96.582 20.2468 96.3316 20.025C96.0813 19.8032 95.7709 19.6927 95.4005 19.6933ZM101.831 24.7652C102.266 24.7644 102.604 24.8749 102.845 25.0967C103.096 25.3185 103.221 25.6285 103.222 26.0266C103.222 26.4155 103.098 26.7212 102.848 26.9439C102.608 27.1665 102.27 27.2782 101.835 27.279C101.4 27.2797 101.057 27.1692 100.807 26.9475C100.566 26.7257 100.445 26.4203 100.444 26.0315C100.443 25.6333 100.563 25.323 100.804 25.1003C101.053 24.8777 101.396 24.766 101.831 24.7652ZM108.18 17.8654C109.217 17.8636 110.046 18.089 110.667 18.5416C111.288 18.985 111.6 19.5955 111.601 20.3732C111.602 20.864 111.482 21.2901 111.242 21.6516C111.002 22.0039 110.646 22.2684 110.174 22.4451L110.174 22.459C110.73 22.6432 111.161 22.9156 111.467 23.2761C111.773 23.6274 111.927 24.0809 111.928 24.6364C111.929 25.4326 111.597 26.0721 110.931 26.5547C110.275 27.0373 109.363 27.2797 108.197 27.2817C107.039 27.2837 106.127 27.0446 105.459 26.5643C104.801 26.084 104.471 25.4457 104.47 24.6495C104.469 24.0939 104.621 23.64 104.926 23.2876C105.231 22.926 105.661 22.6521 106.216 22.4659L106.216 22.452C105.743 22.277 105.382 22.0137 105.131 21.6623C104.89 21.3016 104.769 20.8759 104.768 20.3852C104.767 19.6075 105.076 18.9958 105.695 18.5503C106.324 18.0955 107.152 17.8672 108.18 17.8654ZM108.183 19.6015C107.813 19.6021 107.517 19.6952 107.295 19.8808C107.082 20.0664 106.976 20.3258 106.977 20.6591C106.977 20.9832 107.084 21.2422 107.297 21.4363C107.52 21.6211 107.816 21.7132 108.187 21.7125C108.557 21.7119 108.853 21.6187 109.075 21.4332C109.297 21.2384 109.408 20.9789 109.407 20.6549C109.407 20.3215 109.295 20.0625 109.072 19.8777C108.859 19.6929 108.563 19.6008 108.183 19.6015ZM108.194 25.5457C108.638 25.5449 108.985 25.4424 109.235 25.2383C109.484 25.0342 109.609 24.7562 109.608 24.4044C109.607 24.0433 109.477 23.7657 109.218 23.5717C108.967 23.3685 108.625 23.2672 108.19 23.268C107.764 23.2687 107.421 23.3712 107.162 23.5753C106.913 23.7702 106.788 24.0482 106.789 24.4093C106.789 24.7611 106.915 25.0387 107.165 25.2419C107.416 25.4452 107.758 25.5464 108.194 25.5457ZM116.887 17.8502C117.924 17.8484 118.753 18.0737 119.375 18.5263C119.996 18.9697 120.307 19.5802 120.308 20.358C120.309 20.8487 120.19 21.2748 119.949 21.6363C119.709 21.9886 119.353 22.2531 118.881 22.4298L118.881 22.4437C119.437 22.6279 119.868 22.9003 120.174 23.2609C120.481 23.6122 120.634 24.0656 120.635 24.6211C120.637 25.4174 120.304 26.0568 119.639 26.5395C118.982 27.0221 118.07 27.2644 116.904 27.2664C115.747 27.2685 114.834 27.0293 114.167 26.5491C113.508 26.0687 113.179 25.4305 113.177 24.6342C113.176 24.0787 113.328 23.6247 113.633 23.2723C113.938 22.9107 114.368 22.6368 114.923 22.4507L114.923 22.4368C114.451 22.2617 114.089 21.9984 113.839 21.647C113.597 21.2864 113.476 20.8607 113.475 20.37C113.474 19.5922 113.783 18.9806 114.403 18.5351C115.031 18.0803 115.86 17.852 116.887 17.8502ZM116.89 19.5862C116.52 19.5869 116.224 19.68 116.002 19.8655C115.789 20.0511 115.683 20.3105 115.684 20.6438C115.685 20.9679 115.791 21.227 116.005 21.421C116.227 21.6058 116.524 21.6979 116.894 21.6972C117.264 21.6966 117.561 21.6035 117.782 21.4179C118.004 21.2231 118.115 20.9636 118.114 20.6396C118.114 20.3063 118.002 20.0472 117.78 19.8624C117.566 19.6776 117.27 19.5856 116.89 19.5862ZM116.901 25.5304C117.345 25.5296 117.692 25.4272 117.942 25.223C118.192 25.0189 118.316 24.7409 118.315 24.3891C118.315 24.028 118.185 23.7505 117.925 23.5565C117.675 23.3532 117.332 23.252 116.897 23.2527C116.471 23.2535 116.129 23.3559 115.87 23.5601C115.62 23.7549 115.495 24.0329 115.496 24.394C115.497 24.7459 115.622 25.0234 115.873 25.2267C116.123 25.4299 116.466 25.5312 116.901 25.5304Z" fill="#161824"/>
<rect x="84.0016" y="11.3574" width="44.5496" height="22.174" rx="11.087" transform="rotate(-0.100451 84.0016 11.3574)" stroke="white" stroke-opacity="0.19" stroke-width="0.973252"/>
<path d="M35.2448 14.3701C36.0945 14.3687 36.7538 14.5655 37.2226 14.9608C37.6985 15.356 37.9371 15.8885 37.9383 16.5582C37.9392 17.0911 37.814 17.5306 37.5625 17.8767C37.3183 18.2156 36.9659 18.4647 36.5052 18.6239L38.3682 21.494L36.3159 21.4976L34.7882 18.897L33.6756 18.899L33.6802 21.5022L31.8546 21.5054L31.8421 14.3761L35.2448 14.3701ZM34.9911 17.5788C35.3512 17.5782 35.6211 17.5057 35.8009 17.3613C35.9807 17.217 36.0703 16.9864 36.0697 16.6695C36.0687 16.0718 35.7081 15.7736 34.988 15.7749L33.6701 15.7772L33.6733 17.5811L34.9911 17.5788ZM38.5568 21.4937L41.0503 14.36L43.2755 14.3561L45.7833 21.481L43.8714 21.4844L43.3824 19.8757L40.9196 19.88L40.4255 21.4904L38.5568 21.4937ZM41.8433 16.8971L41.3062 18.6155L42.9914 18.6126L42.4699 16.9068L42.1546 15.7839L42.133 15.7839L41.8433 16.8971ZM52.6882 21.4689L50.4738 21.4728L49.1304 19.1959L47.8381 21.4774L45.7317 21.4811L48.1451 17.8906L45.8597 14.3515L48.0525 14.3477L49.2769 16.5276L50.5045 14.3434L52.5245 14.3399L50.2514 17.8329L52.6882 21.4689ZM62.9283 19.4094C62.7208 20.1587 62.3365 20.7067 61.7754 21.0533C61.2215 21.3927 60.5665 21.5631 59.8103 21.5644C59.083 21.5657 58.4562 21.4228 57.93 21.1357C57.411 20.8413 57.0106 20.4207 56.7288 19.8739C56.447 19.3271 56.3054 18.6684 56.304 17.8979C56.3027 17.1274 56.442 16.4682 56.7219 15.9204C57.0017 15.3726 57.4007 14.9542 57.9187 14.6653C58.4439 14.3691 59.0665 14.2204 59.7867 14.2191C60.5284 14.2178 61.1768 14.3751 61.7318 14.691C62.2869 15.0069 62.655 15.5031 62.8363 16.1797L61.2063 16.8415C61.1047 16.4024 60.9386 16.1002 60.7078 15.935C60.4843 15.7626 60.1997 15.6766 59.854 15.6773C59.3355 15.6782 58.929 15.8661 58.6344 16.2411C58.347 16.6161 58.2039 17.1672 58.2052 17.8946C58.2065 18.6219 58.3443 19.1726 58.6186 19.5466C58.9001 19.9205 59.3181 20.107 59.8726 20.1061C60.2183 20.1055 60.5097 20.0113 60.7471 19.8237C60.9916 19.6288 61.1567 19.3333 61.2424 18.937L62.9283 19.4094ZM66.3969 15.9358C66.9658 15.9348 67.4629 16.0456 67.8882 16.2681C68.3206 16.4906 68.656 16.8104 68.8944 17.2277C69.14 17.645 69.2633 18.1488 69.2643 18.7393C69.2654 19.3299 69.1438 19.8342 68.8997 20.2523C68.6628 20.6704 68.3285 20.9914 67.8968 21.2154C67.4723 21.4394 66.9756 21.5519 66.4067 21.5529C65.845 21.5539 65.3479 21.4431 64.9155 21.2206C64.4902 20.9981 64.1548 20.6783 63.9092 20.261C63.6708 19.8438 63.5511 19.3399 63.5501 18.7494C63.549 18.1588 63.667 17.6545 63.9039 17.2365C64.148 16.8183 64.4823 16.4973 64.9068 16.2733C65.3385 16.0493 65.8352 15.9368 66.3969 15.9358ZM66.3992 17.2429C66.0823 17.2434 65.8341 17.3627 65.6545 17.6007C65.482 17.8314 65.3963 18.2132 65.3972 18.7461C65.3981 19.2718 65.4852 19.6533 65.6585 19.8907C65.8389 20.128 66.0876 20.2464 66.4044 20.2458C66.7285 20.2453 66.9767 20.126 67.1492 19.8881C67.3288 19.6501 67.4181 19.2683 67.4172 18.7426C67.4163 18.2097 67.3256 17.8282 67.1451 17.598C66.9719 17.3607 66.7232 17.2423 66.3992 17.2429ZM70.3021 21.438L70.2926 16.037L71.9129 16.0342L71.9906 17.2007C72.1195 16.8044 72.317 16.4944 72.5831 16.2707C72.8563 16.0397 73.2054 15.9239 73.6303 15.9232C73.7671 15.9229 73.8823 15.9371 73.976 15.9658C74.0769 15.9872 74.1561 16.0122 74.2138 16.041L74.0328 17.5536C73.9608 17.5321 73.8671 17.5106 73.7518 17.4892C73.6438 17.4678 73.5105 17.4573 73.3521 17.4575C73.0208 17.4581 72.733 17.563 72.4885 17.7723C72.2512 17.9816 72.1329 18.295 72.1337 18.7127L72.1384 21.4348L70.3021 21.438ZM77.5162 21.5334C76.616 21.535 75.9027 21.2914 75.3761 20.8026C74.8567 20.3138 74.5963 19.623 74.5947 18.73C74.5937 18.1395 74.7116 17.6352 74.9485 17.2171C75.1926 16.7918 75.5233 16.4707 75.9406 16.254C76.3651 16.03 76.8582 15.9175 77.4199 15.9165C77.9888 15.9155 78.4715 16.0263 78.868 16.2488C79.2716 16.4642 79.5782 16.7661 79.7877 17.1546C79.9972 17.5359 80.1024 17.975 80.1033 18.4719C80.1035 18.6087 80.0966 18.742 80.0824 18.8716C80.0754 18.994 80.0684 19.0985 80.0613 19.1849L76.3779 19.1914C76.4289 19.5657 76.5518 19.8356 76.7465 20.0009C76.9413 20.159 77.197 20.2377 77.5139 20.2372C77.7876 20.2367 78.0035 20.1823 78.1617 20.074C78.3272 19.9657 78.4493 19.8142 78.5282 19.6197L79.9981 20.1032C79.8979 20.413 79.7219 20.6762 79.4702 20.8927C79.2257 21.1019 78.9308 21.2609 78.5853 21.3695C78.247 21.4781 77.8907 21.5327 77.5162 21.5334ZM77.4222 17.2019C76.8389 17.203 76.4938 17.5384 76.3869 18.2084L78.3637 18.2049C78.2833 17.5353 77.9695 17.201 77.4222 17.2019ZM34.6481 25.2632C35.3107 25.262 35.8942 25.3654 36.3986 25.5734C36.9103 25.7741 37.3537 26.0722 37.7288 26.4676L36.8344 27.6682C36.5241 27.3447 36.1889 27.104 35.8285 26.9462C35.4754 26.7812 35.0719 26.6991 34.6182 26.6999C34.2222 26.7006 33.9378 26.7659 33.7652 26.8958C33.5926 27.0258 33.5065 27.1844 33.5068 27.3716C33.5071 27.5228 33.5757 27.6523 33.7127 27.7601C33.8569 27.8607 34.0875 27.9467 34.4045 28.0181L35.604 28.2861C36.3172 28.4505 36.8398 28.6908 37.1716 29.0071C37.5034 29.3234 37.6698 29.7443 37.6707 30.27C37.6716 30.7741 37.5427 31.2028 37.2841 31.5562C37.0254 31.9023 36.6694 32.1658 36.216 32.3466C35.7627 32.5202 35.2443 32.6075 34.661 32.6086C33.9409 32.6098 33.2818 32.4958 32.6836 32.2664C32.0855 32.0298 31.6097 31.7209 31.2561 31.3399L32.1505 30.0961C32.4175 30.4053 32.778 30.6639 33.2321 30.8719C33.6861 31.0728 34.1544 31.1728 34.6369 31.1719C35.3858 31.1706 35.7599 30.9503 35.7591 30.511C35.7589 30.3598 35.701 30.2339 35.5856 30.1333C35.4774 30.0254 35.2756 29.9358 34.9803 29.8643L33.6619 29.5749C33.2585 29.4892 32.8982 29.3674 32.5811 29.2096C32.2711 29.0517 32.0259 28.8433 31.8454 28.5843C31.6649 28.3182 31.5743 27.9871 31.5736 27.591C31.5729 27.1445 31.6946 26.7482 31.9388 26.4022C32.183 26.0489 32.5354 25.771 32.996 25.5685C33.4565 25.3661 34.0072 25.2643 34.6481 25.2632ZM41.2569 26.9799C41.8042 26.979 42.2581 27.0574 42.6184 27.2152C42.9859 27.373 43.2708 27.5777 43.4728 27.8294C43.6749 28.0811 43.805 28.3545 43.8632 28.6497L42.1682 29.2144C42.1245 28.9048 42.0341 28.6745 41.897 28.5235C41.7599 28.3653 41.5653 28.2864 41.3132 28.2869C40.9676 28.2875 40.7049 28.4104 40.5253 28.6555C40.3529 28.9007 40.2672 29.2861 40.2681 29.8118C40.269 30.3447 40.3633 30.7262 40.551 30.9563C40.7458 31.1792 41.0052 31.2904 41.3293 31.2898C41.8406 31.2889 42.1389 30.9967 42.2243 30.4133L43.878 30.9397C43.7996 31.4079 43.5374 31.8008 43.0915 32.1185C42.6528 32.4361 42.0697 32.5956 41.3424 32.5968C40.4566 32.5984 39.7469 32.3548 39.2131 31.866C38.6865 31.3701 38.4225 30.6792 38.4209 29.7934C38.4199 29.2029 38.5378 28.6986 38.7747 28.2805C39.0189 27.8624 39.3532 27.5414 39.7776 27.3174C40.2021 27.0934 40.6952 26.9809 41.2569 26.9799ZM47.3966 26.9692C47.9655 26.9682 48.4626 27.0789 48.8879 27.3014C49.3203 27.5239 49.6558 27.8438 49.8941 28.261C50.1397 28.6783 50.263 29.1822 50.2641 29.7727C50.2651 30.3632 50.1436 30.8675 49.8995 31.2856C49.6625 31.7037 49.3282 32.0247 48.8965 32.2487C48.4721 32.4727 47.9754 32.5852 47.4065 32.5862C46.8448 32.5872 46.3477 32.4764 45.9152 32.254C45.4899 32.0315 45.1545 31.7116 44.9089 31.2943C44.6705 30.8771 44.5508 30.3732 44.5498 29.7827C44.5488 29.1922 44.6667 28.6879 44.9036 28.2698C45.1477 27.8517 45.482 27.5306 45.9065 27.3066C46.3382 27.0826 46.8349 26.9701 47.3966 26.9692ZM47.3989 28.2762C47.082 28.2768 46.8338 28.396 46.6542 28.634C46.4818 28.8647 46.396 29.2465 46.3969 29.7794C46.3979 30.3051 46.485 30.6867 46.6582 30.924C46.8387 31.1613 47.0873 31.2797 47.4042 31.2792C47.7282 31.2786 47.9765 31.1593 48.1489 30.9214C48.3285 30.6834 48.4178 30.3016 48.4169 29.7759C48.416 29.243 48.3253 28.8615 48.1449 28.6314C47.9716 28.394 47.723 28.2756 47.3989 28.2762ZM51.3018 32.4714L51.2924 27.0704L52.9127 27.0675L52.9903 28.234C53.1193 27.8377 53.3167 27.5277 53.5828 27.304C53.8561 27.0731 54.2051 26.9572 54.63 26.9565C54.7668 26.9562 54.8821 26.9704 54.9757 26.9991C55.0766 27.0205 55.1558 27.0456 55.2135 27.0743L55.0325 28.5869C54.9605 28.5654 54.8668 28.544 54.7516 28.5226C54.6435 28.5012 54.5103 28.4906 54.3518 28.4909C54.0206 28.4914 53.7327 28.5964 53.4882 28.8056C53.2509 29.0149 53.1327 29.3284 53.1334 29.746L53.1382 32.4681L51.3018 32.4714ZM58.5159 32.5667C57.6157 32.5683 56.9024 32.3247 56.3758 31.8359C55.8565 31.3472 55.596 30.6563 55.5944 29.7633C55.5934 29.1728 55.7113 28.6685 55.9483 28.2504C56.1924 27.8251 56.5231 27.5041 56.9404 27.2873C57.3648 27.0633 57.8579 26.9508 58.4196 26.9498C58.9885 26.9488 59.4712 27.0596 59.8677 27.2822C60.2714 27.4975 60.5779 27.7994 60.7875 28.1879C60.997 28.5692 61.1022 29.0083 61.103 29.5052C61.1033 29.642 61.0963 29.7753 61.0821 29.9049C61.0751 30.0274 61.0681 30.1318 61.0611 30.2182L57.3776 30.2247C57.4287 30.5991 57.5515 30.8689 57.7463 31.0342C57.941 31.1923 58.1968 31.271 58.5136 31.2705C58.7873 31.27 59.0032 31.2156 59.1615 31.1073C59.3269 30.999 59.4491 30.8476 59.5279 30.653L60.9979 31.1365C60.8976 31.4463 60.7216 31.7095 60.47 31.926C60.2255 32.1353 59.9305 32.2942 59.585 32.4028C59.2467 32.5114 58.8904 32.5661 58.5159 32.5667ZM58.4219 28.2353C57.8386 28.2363 57.4935 28.5718 57.3867 29.2417L59.3634 29.2382C59.283 28.5686 58.9692 28.2343 58.4219 28.2353Z" fill="white"/>
<path d="M72.7789 53.124C73.3283 53.1238 73.8036 53.2284 74.205 53.4381C74.6063 53.6416 74.9459 53.9438 75.2239 54.3449L74.5576 54.9841C74.3229 54.6262 74.0573 54.3702 73.761 54.2161C73.4708 54.0557 73.1251 53.9757 72.7238 53.9759C72.2732 53.9761 71.9461 54.0627 71.7425 54.2357C71.5389 54.4086 71.4372 54.6185 71.4373 54.8654C71.4374 55.0568 71.5023 55.2234 71.632 55.3653C71.7679 55.5072 72.018 55.6182 72.3822 55.6982L73.623 55.9753C74.2095 56.1108 74.6262 56.3112 74.8733 56.5765C75.1265 56.8356 75.2532 57.1689 75.2534 57.5762C75.2536 57.9528 75.152 58.28 74.9484 58.5578C74.7449 58.8296 74.461 59.0427 74.0969 59.1972C73.7328 59.3455 73.3101 59.4198 72.8286 59.4201C72.1805 59.4204 71.628 59.3003 71.1711 59.0599C70.7142 58.8132 70.3622 58.5078 70.1151 58.1438L70.7999 57.4583C70.9914 57.7853 71.26 58.0537 71.6058 58.2634C71.9578 58.4669 72.3745 58.5685 72.8559 58.5682C73.2818 58.568 73.6151 58.4938 73.8558 58.3455C74.1026 58.191 74.2259 57.9718 74.2258 57.6879C74.2257 57.5151 74.1639 57.3608 74.0403 57.2251C73.923 57.0831 73.7007 56.9752 73.3735 56.9014L72.0308 56.5965C71.4752 56.4795 71.0646 56.2853 70.7991 56.0139C70.5335 55.7424 70.4006 55.403 70.4004 54.9956C70.4002 54.65 70.4957 54.3351 70.6869 54.0511C70.8781 53.767 71.1496 53.5416 71.5013 53.3747C71.8593 53.2079 72.2851 53.1243 72.7789 53.124ZM76.4645 59.3255L76.462 54.6961L77.3416 54.6956L77.3883 55.4733C77.5486 55.177 77.7615 54.9577 78.0268 54.8156C78.2983 54.6735 78.5853 54.6024 78.8878 54.6022C79.2211 54.602 79.5267 54.679 79.8045 54.8332C80.0885 54.9812 80.3016 55.2063 80.4437 55.5087C80.5424 55.305 80.6781 55.1352 80.8509 54.9993C81.0236 54.8634 81.2149 54.7645 81.4248 54.7027C81.6346 54.6347 81.8414 54.6006 82.045 54.6005C82.3413 54.6003 82.6191 54.6619 82.8784 54.7852C83.1378 54.9085 83.3477 55.0967 83.5084 55.3497C83.669 55.6027 83.7494 55.9267 83.7496 56.3217L83.7512 59.3216L82.7605 59.3221L82.759 56.4797C82.7588 56.097 82.666 55.8254 82.4808 55.665C82.3017 55.4985 82.0763 55.4153 81.8048 55.4154C81.4838 55.4156 81.203 55.5361 80.9624 55.777C80.7218 56.0116 80.6016 56.3543 80.6018 56.8049L80.6032 59.3233L79.6125 59.3238L79.611 56.4814C79.6108 56.0987 79.518 55.8271 79.3328 55.6667C79.1537 55.5002 78.9283 55.417 78.6567 55.4171C78.4716 55.4172 78.2864 55.4667 78.1013 55.5655C77.9162 55.6644 77.7619 55.8188 77.6386 56.0287C77.5152 56.2387 77.4537 56.5165 77.4539 56.8621L77.4552 59.325L76.4645 59.3255ZM87.9274 56.3473C87.9272 56.0386 87.8407 55.801 87.6678 55.6345C87.501 55.4617 87.2695 55.3754 86.9732 55.3756C86.6954 55.3758 86.4548 55.4407 86.2511 55.5704C86.0537 55.7002 85.9118 55.9101 85.8256 56.2003L84.9921 55.8489C85.1091 55.4723 85.3374 55.1697 85.6767 54.9411C86.0223 54.7126 86.4666 54.5981 87.0098 54.5978C87.374 54.5976 87.6981 54.6592 87.9821 54.7825C88.2723 54.8996 88.4977 55.0816 88.6583 55.3284C88.8251 55.569 88.9086 55.8745 88.9088 56.2449L88.9099 58.3096C88.91 58.538 89.0243 58.6521 89.2527 58.652C89.3638 58.652 89.4718 58.6365 89.5767 58.6056L89.5215 59.2907C89.3796 59.3587 89.2006 59.3928 88.9845 59.3929C88.7376 59.393 88.5247 59.3376 88.3456 59.2266C88.1665 59.1156 88.0461 58.949 87.9842 58.7268C87.8362 58.9552 87.6233 59.1282 87.3456 59.2456C87.0679 59.3569 86.7902 59.4126 86.5124 59.4127C86.0742 59.413 85.7099 59.3082 85.4197 59.0985C85.1295 58.8888 84.9843 58.5741 84.984 58.1543C84.9839 57.8148 85.0948 57.5339 85.3169 57.3116C85.5452 57.0893 85.8661 56.9348 86.2796 56.8481L87.9275 56.5232L87.9274 56.3473ZM85.984 58.0797C85.9841 58.2526 86.0489 58.3914 86.1786 58.4963C86.3145 58.595 86.4935 58.6442 86.7157 58.6441C86.9256 58.644 87.1231 58.61 87.3082 58.542C87.4934 58.474 87.6415 58.3628 87.7525 58.2084C87.8697 58.054 87.9282 57.8534 87.9281 57.6065L87.9279 57.2176L86.7614 57.459C86.496 57.5085 86.2985 57.5796 86.1689 57.6722C86.0455 57.7649 85.9839 57.9007 85.984 58.0797ZM90.5336 59.318L90.5311 54.6885L91.3737 54.6881L91.4667 55.5213C91.7195 54.9039 92.2039 54.5951 92.9199 54.5947C93.0125 54.5946 93.1051 54.6038 93.1977 54.6223C93.2903 54.6346 93.3674 54.6562 93.4292 54.687L93.2908 55.5574C93.2229 55.5327 93.1457 55.5143 93.0593 55.502C92.979 55.4835 92.8679 55.4743 92.7259 55.4744C92.5284 55.4745 92.3371 55.527 92.152 55.6321C91.973 55.7309 91.8219 55.8853 91.6985 56.0953C91.5814 56.299 91.5229 56.5552 91.523 56.8638L91.5243 59.3174L90.5336 59.318ZM97.0741 54.685L97.0746 55.4628L95.482 55.4636L95.4834 57.9265C95.4835 58.1487 95.5453 58.3153 95.6688 58.4264C95.7923 58.5312 95.9528 58.5836 96.1503 58.5835C96.3232 58.5834 96.4682 58.5587 96.5855 58.5092C96.7089 58.4536 96.823 58.3795 96.9279 58.2868L97.1505 59.0089C97.0086 59.1324 96.8328 59.2313 96.6229 59.3055C96.4193 59.3735 96.1909 59.4075 95.9378 59.4077C95.5304 59.4079 95.1878 59.3093 94.9099 59.1119C94.6321 58.9084 94.493 58.569 94.4927 58.0937L94.4913 55.4642L93.6025 55.4646L93.6021 54.6869L94.4909 54.6864L94.4903 53.6031L95.4809 53.3248L95.4816 54.6859L97.0741 54.685ZM104.442 53.1997L104.445 59.3105L103.538 59.311L103.536 55.7741L103.6 54.089L103.59 54.089L101.732 59.312L100.908 59.3124L99.0444 54.0914L99.0351 54.0914L99.1101 55.7765L99.112 59.3134L98.1954 59.3139L98.1921 53.203L99.6642 53.2022L100.898 56.7385L101.324 58.1919L101.343 58.1919L101.777 56.738L102.997 53.2004L104.442 53.1997ZM108.065 54.5865C108.516 54.5863 108.914 54.6818 109.26 54.8729C109.605 55.0641 109.874 55.3417 110.066 55.7058C110.263 56.0637 110.362 56.4926 110.363 56.9926C110.363 57.4926 110.264 57.9247 110.067 58.289C109.876 58.6471 109.608 58.922 109.262 59.1135C108.916 59.305 108.518 59.4009 108.068 59.4012C107.617 59.4014 107.219 59.3059 106.873 59.1148C106.527 58.9236 106.256 58.6491 106.058 58.2912C105.86 57.9271 105.761 57.4951 105.761 56.9951C105.761 56.4951 105.859 56.0661 106.057 55.7079C106.254 55.3437 106.525 55.0657 106.871 54.8742C107.217 54.6827 107.615 54.5868 108.065 54.5865ZM108.066 55.3643C107.658 55.3645 107.337 55.5067 107.103 55.7907C106.868 56.0686 106.751 56.4699 106.752 56.9946C106.752 57.5192 106.869 57.9235 107.104 58.2073C107.339 58.4849 107.66 58.6236 108.067 58.6234C108.475 58.6232 108.793 58.4841 109.021 58.2063C109.255 57.9222 109.372 57.5178 109.372 56.9932C109.372 56.4685 109.254 56.0673 109.019 55.7897C108.791 55.5059 108.473 55.3641 108.066 55.3643ZM111.61 59.3067L111.608 54.6772L112.487 54.6768L112.534 55.473C112.688 55.1643 112.901 54.9389 113.173 54.7968C113.45 54.6546 113.759 54.5835 114.098 54.5833C114.426 54.5831 114.719 54.6478 114.978 54.7773C115.244 54.9006 115.454 55.0918 115.608 55.351C115.762 55.604 115.84 55.9218 115.84 56.3045L115.842 59.3044L114.851 59.3049L114.849 56.6106C114.849 56.1538 114.753 55.8391 114.562 55.6664C114.377 55.4874 114.142 55.3981 113.858 55.3982C113.654 55.3983 113.457 55.4447 113.266 55.5374C113.074 55.6301 112.914 55.7845 112.784 56.0006C112.661 56.2106 112.599 56.4914 112.6 56.8433L112.601 59.3061L111.61 59.3067ZM119.38 59.3951C118.917 59.3954 118.509 59.2999 118.157 59.1087C117.812 58.9176 117.54 58.643 117.342 58.2851C117.145 57.9211 117.046 57.489 117.045 56.989C117.045 56.4891 117.14 56.06 117.332 55.7019C117.529 55.3376 117.797 55.0597 118.137 54.8682C118.482 54.6766 118.877 54.5808 119.322 54.5805C119.772 54.5803 120.155 54.6727 120.47 54.8577C120.785 55.0427 121.026 55.2956 121.193 55.6165C121.359 55.9374 121.443 56.3015 121.443 56.7089C121.443 56.8262 121.44 56.9342 121.434 57.033C121.428 57.1317 121.419 57.2151 121.406 57.283L118.018 57.2848C118.061 57.7169 118.2 58.047 118.435 58.2753C118.676 58.4974 118.984 58.6083 119.361 58.6081C119.669 58.6079 119.919 58.5492 120.111 58.4318C120.302 58.3144 120.453 58.1507 120.564 57.9408L121.351 58.3108C121.191 58.6503 120.935 58.9159 120.583 59.1074C120.238 59.299 119.837 59.3949 119.38 59.3951ZM119.304 55.3675C118.964 55.3677 118.683 55.4666 118.461 55.6643C118.245 55.8619 118.107 56.149 118.045 56.5256L120.48 56.5243C120.455 56.1539 120.338 55.87 120.128 55.6726C119.918 55.469 119.643 55.3673 119.304 55.3675ZM126.55 54.6692L124.525 59.846C124.321 60.3832 124.09 60.7567 123.831 60.9667C123.572 61.1829 123.239 61.2911 122.831 61.2913C122.603 61.2914 122.396 61.2638 122.211 61.2083C122.026 61.1529 121.862 61.0727 121.72 60.9679L121.96 60.1992C122.183 60.3966 122.451 60.4953 122.766 60.4951C122.933 60.495 123.081 60.4517 123.21 60.3652C123.346 60.2787 123.466 60.0997 123.571 59.828L123.775 59.3279L123.283 58.1801L121.837 54.6718L122.948 54.6712L123.977 57.5779L124.246 58.4481L124.551 57.4943L125.522 54.6698L126.55 54.6692ZM75.252 72.2153L75.2525 73.0671L73.16 73.0683L73.1628 78.3273L72.1721 78.3278L72.1693 73.0688L70.0768 73.0699L70.0763 72.2181L75.252 72.2153ZM77.333 73.603C77.7836 73.6028 78.1818 73.6982 78.5275 73.8894C78.8733 74.0806 79.142 74.3582 79.3335 74.7223C79.5312 75.0802 79.6302 75.5091 79.6305 76.0091C79.6307 76.5091 79.5322 76.9412 79.3349 77.3055C79.1437 77.6636 78.8754 77.9384 78.5298 78.13C78.1842 78.3215 77.7862 78.4174 77.3356 78.4176C76.885 78.4179 76.4868 78.3224 76.141 78.1313C75.7952 77.9401 75.5235 77.6656 75.3258 77.3077C75.1281 76.9436 75.0291 76.5116 75.0288 76.0116C75.0285 75.5116 75.1271 75.0825 75.3244 74.7244C75.5217 74.3601 75.7932 74.0822 76.1387 73.8907C76.4843 73.6992 76.8824 73.6033 77.333 73.603ZM77.3334 74.3808C76.926 74.381 76.6051 74.5231 76.3707 74.8072C76.1363 75.0851 76.0192 75.4864 76.0195 76.011C76.0198 76.5357 76.1373 76.94 76.372 77.2238C76.6067 77.5014 76.9278 77.6401 77.3352 77.6399C77.7425 77.6397 78.0604 77.5006 78.2886 77.2227C78.523 76.9387 78.6401 76.5343 78.6398 76.0096C78.6395 75.485 78.522 75.0838 78.2873 74.8062C78.0588 74.5224 77.7408 74.3806 77.3334 74.3808ZM85.2458 73.6914L83.4783 75.5071L85.3594 78.3208L84.2112 78.3214L82.7842 76.1463L81.8681 77.0912L81.8688 78.3226L80.8781 78.3232L80.8745 71.6105L81.8652 71.6099L81.8675 75.9524L84.0699 73.692L85.2458 73.6914ZM88.1141 78.4119C87.6512 78.4121 87.2437 78.3167 86.8918 78.1255C86.546 77.9343 86.2743 77.6598 86.0766 77.3019C85.8789 76.9378 85.7799 76.5058 85.7796 76.0058C85.7793 75.5058 85.8748 75.0768 86.0659 74.7187C86.2633 74.3544 86.5316 74.0765 86.871 73.8849C87.2166 73.6934 87.6116 73.5975 88.056 73.5973C88.5066 73.597 88.8894 73.6894 89.2043 73.8744C89.5192 74.0594 89.76 74.3124 89.9269 74.6333C90.0937 74.9542 90.1772 75.3183 90.1774 75.7257C90.1775 75.843 90.1745 75.951 90.1683 76.0498C90.1622 76.1485 90.153 76.2319 90.1407 76.2998L86.7519 76.3016C86.7954 76.7336 86.9344 77.0638 87.1691 77.292C87.41 77.5141 87.7187 77.6251 88.0952 77.6249C88.4038 77.6247 88.6538 77.5659 88.8451 77.4486C89.0364 77.3312 89.1875 77.1675 89.2985 76.9576L90.0857 77.3275C89.9254 77.6671 89.6694 77.9327 89.3176 78.1242C88.9721 78.3157 88.5709 78.4116 88.1141 78.4119ZM88.0379 74.3843C87.6984 74.3845 87.4176 74.4834 87.1955 74.681C86.9796 74.8787 86.8408 75.1658 86.7793 75.5423L89.2144 75.541C89.1895 75.1707 89.0721 74.8868 88.8621 74.6894C88.6521 74.4858 88.3774 74.3841 88.0379 74.3843ZM91.4299 78.3175L91.4274 73.6881L92.307 73.6876L92.3538 74.4838C92.5079 74.1751 92.7207 73.9497 92.9923 73.8076C93.2699 73.6655 93.5785 73.5943 93.918 73.5941C94.2452 73.594 94.5384 73.6586 94.7977 73.7881C95.0632 73.9114 95.2732 74.1026 95.4276 74.3618C95.5821 74.6148 95.6594 74.9327 95.6596 75.3154L95.6612 78.3152L94.6705 78.3158L94.6691 75.6214C94.6688 75.1647 94.573 74.8499 94.3816 74.6772C94.1963 74.4983 93.9617 74.4089 93.6777 74.409C93.474 74.4092 93.2765 74.4556 93.0852 74.5482C92.8939 74.6409 92.7335 74.7953 92.604 75.0115C92.4807 75.2214 92.4191 75.5023 92.4193 75.8541L92.4206 78.317L91.4299 78.3175ZM75.2622 91.2153L75.2627 92.0671L73.1702 92.0682L73.173 97.3273L72.1823 97.3278L72.1795 92.0688L70.087 92.0699L70.0865 91.2181L75.2622 91.2153ZM75.6892 97.3259L75.6867 92.6965L76.5292 92.6961L76.6223 93.5293C76.875 92.9119 77.3594 92.603 78.0754 92.6026C78.168 92.6026 78.2606 92.6118 78.3532 92.6303C78.4458 92.6426 78.523 92.6641 78.5847 92.6949L78.4463 93.5654C78.3784 93.5407 78.3012 93.5222 78.2148 93.5099C78.1345 93.4915 78.0234 93.4823 77.8815 93.4823C77.6839 93.4824 77.4926 93.535 77.3075 93.64C77.1285 93.7389 76.9774 93.8933 76.8541 94.1032C76.7369 94.307 76.6784 94.5632 76.6785 94.8718L76.6799 97.3254L75.6892 97.3259ZM82.0977 94.3504C82.0975 94.0418 82.011 93.8042 81.838 93.6376C81.6713 93.4649 81.4398 93.3786 81.1435 93.3787C80.8657 93.3789 80.625 93.4438 80.4214 93.5736C80.224 93.7033 80.0821 93.9132 79.9958 94.2034L79.1623 93.852C79.2794 93.4754 79.5076 93.1728 79.847 92.9443C80.1926 92.7157 80.6369 92.6013 81.1801 92.601C81.5443 92.6008 81.8684 92.6623 82.1524 92.7856C82.4426 92.9027 82.668 93.0847 82.8286 93.3315C82.9954 93.5722 83.0789 93.8777 83.0791 94.248L83.0802 96.3128C83.0803 96.5411 83.1945 96.6553 83.4229 96.6552C83.534 96.6551 83.6421 96.6396 83.747 96.6087L83.6918 97.2939C83.5499 97.3619 83.3709 97.3959 83.1548 97.396C82.9079 97.3961 82.6949 97.3407 82.5159 97.2297C82.3368 97.1187 82.2164 96.9521 82.1545 96.7299C82.0065 96.9584 81.7936 97.1313 81.5159 97.2487C81.2382 97.36 80.9605 97.4157 80.6827 97.4159C80.2445 97.4161 79.8802 97.3114 79.59 97.1016C79.2998 96.8919 79.1545 96.5772 79.1543 96.1575C79.1541 95.818 79.2651 95.5371 79.4872 95.3147C79.7155 95.0924 80.0363 94.9379 80.4499 94.8513L82.0978 94.5263L82.0977 94.3504ZM80.1542 96.0829C80.1543 96.2557 80.2192 96.3945 80.3489 96.4994C80.4848 96.5981 80.6638 96.6474 80.886 96.6473C81.0959 96.6471 81.2934 96.6131 81.4785 96.5451C81.6637 96.4771 81.8117 96.3659 81.9228 96.2115C82.04 96.0572 82.0985 95.8565 82.0984 95.6096L82.0981 95.2207L80.9317 95.4621C80.6663 95.5116 80.4688 95.5827 80.3392 95.6754C80.2158 95.768 80.1541 95.9039 80.1542 96.0829ZM86.4726 97.4128C86.0899 97.413 85.7442 97.3175 85.4355 97.1263C85.1267 96.9351 84.8797 96.6605 84.6943 96.3026C84.5151 95.9447 84.4254 95.5158 84.4251 95.0158C84.4248 94.4973 84.5203 94.059 84.7114 93.7009C84.9026 93.3428 85.1586 93.071 85.4795 92.8857C85.8004 92.6942 86.1522 92.5983 86.5349 92.5981C86.8682 92.5979 87.1583 92.678 87.4053 92.8384C87.6585 92.9925 87.8469 93.1992 87.9704 93.4584L87.9689 90.6067L88.9596 90.6061L88.9632 97.3188L88.0836 97.3193L88.0276 96.4397C87.9043 96.7484 87.7007 96.9893 87.4169 97.1623C87.133 97.3291 86.8183 97.4126 86.4726 97.4128ZM86.6852 96.6164C87.074 96.6162 87.3857 96.4679 87.6201 96.1714C87.8545 95.875 87.9715 95.4676 87.9712 94.9491C87.971 94.4676 87.8535 94.0912 87.6188 93.8197C87.3903 93.542 87.0908 93.4033 86.7205 93.4035C86.3069 93.4037 85.986 93.5459 85.7578 93.8299C85.5295 94.114 85.4156 94.506 85.4158 95.006C85.4161 95.506 85.5274 95.901 85.7498 96.191C85.9721 96.4748 86.2839 96.6166 86.6852 96.6164ZM90.9968 91.9105C90.7808 91.9107 90.6141 91.8583 90.4968 91.7534C90.3856 91.6424 90.33 91.4881 90.3299 91.2906C90.3298 91.093 90.3852 90.9418 90.4963 90.8368C90.6135 90.7318 90.7801 90.6792 90.9962 90.6791C91.206 90.679 91.3666 90.7314 91.4777 90.8363C91.5951 90.9411 91.6538 91.0923 91.6539 91.2899C91.654 91.4874 91.5954 91.6417 91.4782 91.7529C91.3672 91.8579 91.2067 91.9104 90.9968 91.9105ZM91.488 92.688L91.4905 97.3175L90.4998 97.318L90.4973 92.6886L91.488 92.688ZM93.0405 97.3166L93.038 92.6872L93.9176 92.6867L93.9644 93.483C94.1185 93.1743 94.3313 92.9488 94.6029 92.8067C94.8805 92.6646 95.1891 92.5935 95.5286 92.5933C95.8558 92.5931 96.149 92.6578 96.4083 92.7872C96.6738 92.9106 96.8838 93.1018 97.0382 93.361C97.1927 93.6139 97.27 93.9318 97.2702 94.3145L97.2718 97.3144L96.2811 97.3149L96.2797 94.6206C96.2794 94.1638 96.1836 93.849 95.9922 93.6763C95.8069 93.4974 95.5723 93.408 95.2883 93.4082C95.0846 93.4083 94.8871 93.4547 94.6958 93.5474C94.5045 93.6401 94.3441 93.7945 94.2146 94.0106C94.0913 94.2205 94.0297 94.5014 94.0299 94.8532L94.0312 97.3161L93.0405 97.3166ZM101.384 96.59C101.853 96.5897 102.217 96.6945 102.476 96.9042C102.736 97.1077 102.866 97.3916 102.866 97.7558C102.866 98.0829 102.764 98.3608 102.561 98.5893C102.357 98.8239 102.079 99 101.728 99.1175C101.376 99.2411 100.978 99.303 100.533 99.3033C99.7679 99.3037 99.2031 99.1867 98.8388 98.9524C98.4806 98.718 98.3015 98.4249 98.3013 98.073C98.3012 97.8632 98.3628 97.6749 98.4862 97.5082C98.6095 97.3414 98.8131 97.2271 99.0971 97.1653C98.9242 97.0913 98.7883 96.9895 98.6895 96.8599C98.5907 96.7242 98.5412 96.5514 98.5411 96.3415C98.541 96.1378 98.5995 95.9588 98.7167 95.8044C98.8339 95.6438 99.0067 95.5234 99.235 95.443C98.7472 95.1655 98.5032 94.7367 98.5029 94.1564C98.5026 93.6873 98.6845 93.3107 99.0485 93.0266C99.4126 92.7362 99.894 92.5909 100.493 92.5906C100.882 92.5904 101.224 92.6519 101.521 92.7752C101.57 92.4666 101.705 92.2134 101.928 92.0158C102.15 91.812 102.43 91.71 102.77 91.7098C102.801 91.7098 102.825 91.7098 102.844 91.7098L103.002 92.4874C102.971 92.4813 102.934 92.4782 102.891 92.4782C102.36 92.4785 102.064 92.6731 102.002 93.062C102.329 93.3458 102.493 93.7099 102.493 94.1543C102.494 94.6296 102.312 95.0093 101.948 95.2934C101.584 95.5776 101.099 95.7198 100.494 95.7201C100.241 95.7203 100.01 95.6988 99.7999 95.6557C99.6333 95.699 99.513 95.7669 99.4389 95.8596C99.3711 95.946 99.3372 96.0386 99.3372 96.1374C99.3374 96.4398 99.5566 96.591 99.9949 96.5907L101.384 96.59ZM100.493 93.285C100.209 93.2852 99.9715 93.3656 99.7803 93.5261C99.5952 93.6806 99.5027 93.8905 99.5028 94.1559C99.503 94.4213 99.5957 94.6342 99.7809 94.7946C99.9724 94.955 100.21 95.0351 100.494 95.035C100.784 95.0348 101.022 94.9544 101.207 94.7938C101.398 94.6333 101.494 94.4203 101.493 94.1548C101.493 93.8894 101.398 93.6796 101.206 93.5254C101.021 93.365 100.783 93.2849 100.493 93.285ZM100.533 98.5626C101.039 98.5623 101.412 98.4942 101.653 98.3583C101.9 98.2223 102.023 98.0618 102.023 97.8766C102.023 97.7346 101.964 97.6205 101.847 97.5341C101.736 97.4478 101.532 97.4047 101.236 97.4048L99.7453 97.4056C99.5663 97.4057 99.4182 97.4521 99.301 97.5448C99.1899 97.6374 99.1344 97.7578 99.1345 97.9059C99.1346 98.1096 99.2581 98.2701 99.5051 98.3872C99.7521 98.5044 100.095 98.5628 100.533 98.5626ZM72.8095 110.124C73.3589 110.124 73.8342 110.228 74.2355 110.438C74.6369 110.642 74.9765 110.944 75.2545 111.345L74.5882 111.984C74.3534 111.626 74.0879 111.37 73.7915 111.216C73.5013 111.056 73.1556 110.976 72.7544 110.976C72.3038 110.976 71.9767 111.063 71.7731 111.236C71.5695 111.409 71.4678 111.619 71.4679 111.865C71.468 112.057 71.5329 112.223 71.6626 112.365C71.7985 112.507 72.0485 112.618 72.4127 112.698L73.6536 112.975C74.24 113.111 74.6568 113.311 74.9039 113.576C75.1571 113.836 75.2838 114.169 75.284 114.576C75.2842 114.953 75.1825 115.28 74.979 115.558C74.7754 115.83 74.4916 116.043 74.1275 116.197C73.7634 116.345 73.3406 116.42 72.8592 116.42C72.211 116.42 71.6585 116.3 71.2016 116.06C70.7447 115.813 70.3927 115.508 70.1456 115.144L70.8304 114.458C71.0219 114.785 71.2906 115.054 71.6364 115.263C71.9883 115.467 72.405 115.568 72.8865 115.568C73.3124 115.568 73.6457 115.494 73.8863 115.345C74.1331 115.191 74.2565 114.972 74.2563 114.688C74.2562 114.515 74.1944 114.361 74.0709 114.225C73.9535 114.083 73.7313 113.975 73.4041 113.901L72.0614 113.597C71.5058 113.48 71.0952 113.285 70.8296 113.014C70.5641 112.742 70.4312 112.403 70.431 111.996C70.4308 111.65 70.5263 111.335 70.7175 111.051C70.9087 110.767 71.1802 110.542 71.5319 110.375C71.8898 110.208 72.3157 110.124 72.8095 110.124ZM78.5378 111.602C78.9884 111.602 79.3866 111.698 79.7324 111.889C80.0782 112.08 80.3468 112.358 80.5384 112.722C80.7361 113.08 80.8351 113.508 80.8353 114.008C80.8356 114.508 80.7371 114.941 80.5397 115.305C80.3486 115.663 80.0802 115.938 79.7347 116.129C79.3891 116.321 78.991 116.417 78.5404 116.417C78.0898 116.417 77.6916 116.322 77.3459 116.131C77.0001 115.939 76.7284 115.665 76.5307 115.307C76.3329 114.943 76.2339 114.511 76.2337 114.011C76.2334 113.511 76.3319 113.082 76.5293 112.724C76.7266 112.36 76.998 112.082 77.3436 111.89C77.6892 111.699 78.0872 111.603 78.5378 111.602ZM78.5383 112.38C78.1309 112.38 77.81 112.522 77.5756 112.807C77.3412 113.084 77.2241 113.486 77.2244 114.01C77.2247 114.535 77.3422 114.939 77.5769 115.223C77.8116 115.501 78.1326 115.639 78.54 115.639C78.9474 115.639 79.2652 115.5 79.4935 115.222C79.7279 114.938 79.8449 114.534 79.8446 114.009C79.8444 113.484 79.7269 113.083 79.4922 112.806C79.2636 112.522 78.9457 112.38 78.5383 112.38ZM84.0803 111.599C84.6297 111.599 85.068 111.719 85.3953 111.96C85.7225 112.2 85.9573 112.512 86.0994 112.895L85.1645 113.265C85.0841 112.982 84.9543 112.766 84.7753 112.618C84.6023 112.463 84.3739 112.386 84.09 112.386C83.6764 112.387 83.3524 112.529 83.118 112.813C82.8898 113.091 82.7758 113.492 82.7761 114.017C82.7764 114.535 82.8939 114.933 83.1286 115.211C83.3633 115.489 83.6843 115.627 84.0917 115.627C84.4127 115.627 84.6657 115.55 84.8508 115.395C85.0421 115.241 85.1685 115.018 85.2301 114.728L86.1284 115.033C85.999 115.453 85.7615 115.79 85.416 116.043C85.0704 116.29 84.6353 116.414 84.1107 116.414C83.6539 116.414 83.2495 116.319 82.8976 116.128C82.5518 115.936 82.2801 115.662 82.0824 115.304C81.8846 114.94 81.7857 114.508 81.7854 114.008C81.7851 113.508 81.8837 113.079 82.081 112.721C82.2783 112.357 82.5498 112.079 82.8953 111.887C83.2409 111.696 83.6359 111.6 84.0803 111.599ZM87.7791 110.912C87.563 110.912 87.3963 110.86 87.279 110.755C87.1678 110.644 87.1122 110.49 87.1121 110.292C87.112 110.095 87.1675 109.944 87.2785 109.839C87.3957 109.734 87.5624 109.681 87.7784 109.681C87.9883 109.681 88.1488 109.733 88.26 109.838C88.3773 109.943 88.436 110.094 88.4361 110.292C88.4362 110.489 88.3777 110.643 88.2604 110.755C88.1494 110.86 87.9889 110.912 87.7791 110.912ZM88.2702 111.69L88.2727 116.319L87.282 116.32L87.2795 111.69L88.2702 111.69ZM92.497 113.345C92.4968 113.036 92.4103 112.799 92.2374 112.632C92.0706 112.459 91.8391 112.373 91.5428 112.373C91.265 112.373 91.0243 112.438 90.8207 112.568C90.6233 112.698 90.4814 112.908 90.3951 113.198L89.5616 112.846C89.6787 112.47 89.9069 112.167 90.2463 111.939C90.5919 111.71 91.0362 111.596 91.5794 111.595C91.9436 111.595 92.2677 111.657 92.5517 111.78C92.8419 111.897 93.0673 112.079 93.2279 112.326C93.3947 112.567 93.4782 112.872 93.4784 113.242L93.4795 115.307C93.4796 115.536 93.5939 115.65 93.8222 115.65C93.9333 115.65 94.0414 115.634 94.1463 115.603L94.0911 116.288C93.9492 116.356 93.7702 116.39 93.5541 116.39C93.3072 116.391 93.0942 116.335 92.9152 116.224C92.7361 116.113 92.6157 115.947 92.5538 115.724C92.4058 115.953 92.1929 116.126 91.9152 116.243C91.6375 116.354 91.3598 116.41 91.082 116.41C90.6438 116.411 90.2795 116.306 89.9893 116.096C89.6991 115.886 89.5539 115.572 89.5536 115.152C89.5534 114.812 89.6644 114.531 89.8865 114.309C90.1148 114.087 90.4357 113.932 90.8492 113.846L92.4971 113.521L92.497 113.345ZM90.5535 115.077C90.5536 115.25 90.6185 115.389 90.7482 115.494C90.8841 115.593 91.0631 115.642 91.2853 115.642C91.4952 115.642 91.6927 115.608 91.8778 115.54C92.063 115.472 92.211 115.36 92.3221 115.206C92.4393 115.052 92.4978 114.851 92.4977 114.604L92.4974 114.215L91.331 114.457C91.0656 114.506 90.8681 114.577 90.7385 114.67C90.6151 114.762 90.5534 114.898 90.5535 115.077ZM96.0625 109.602L96.0654 115.019C96.0656 115.247 96.1058 115.405 96.1861 115.491C96.2664 115.577 96.3991 115.62 96.5843 115.62C96.6954 115.62 96.788 115.614 96.862 115.602C96.9423 115.583 97.041 115.552 97.1583 115.509L97.0475 116.25C96.8316 116.355 96.5754 116.407 96.2791 116.407C95.8656 116.408 95.56 116.303 95.3623 116.093C95.1709 115.883 95.075 115.553 95.0748 115.103L95.0718 109.603L96.0625 109.602Z" fill="white"/>
<rect x="28.0273" y="48.7759" width="33.9492" height="15.4315" rx="7.71574" transform="rotate(-0.100451 28.0273 48.7759)" fill="#01CF15" fill-opacity="0.17"/>
<rect x="27.2896" y="68.0664" width="33.9492" height="15.4315" rx="7.71574" transform="rotate(-0.100451 27.2896 68.0664)" fill="#CEA101" fill-opacity="0.17"/>
<rect x="27.3232" y="87.356" width="33.9492" height="15.4315" rx="7.71574" transform="rotate(-0.100451 27.3232 87.356)" fill="#01CF15" fill-opacity="0.17"/>
<rect x="27.3574" y="106.645" width="33.9492" height="15.4315" rx="7.71574" transform="rotate(-0.100451 27.3574 106.645)" fill="#01CF15" fill-opacity="0.17"/>
<path d="M42.5077 53.6518C43.199 53.6506 43.7517 53.8008 44.1658 54.1026C44.5799 54.3981 44.7874 54.8051 44.7883 55.3236C44.7888 55.6508 44.7091 55.9349 44.549 56.1759C44.389 56.4107 44.1516 56.5871 43.837 56.7049L43.837 56.7141C44.2076 56.8369 44.495 57.0185 44.6991 57.2589C44.9032 57.4931 45.0056 57.7954 45.0062 58.1657C45.0071 58.6966 44.7857 59.1229 44.3418 59.4446C43.9041 59.7664 43.2964 59.9279 42.5187 59.9293C41.7471 59.9306 41.1388 59.7712 40.6938 59.451C40.255 59.1308 40.0351 58.7053 40.0342 58.1745C40.0335 57.8041 40.1349 57.5015 40.3382 57.2666C40.5414 57.0255 40.8281 56.8429 41.1983 56.7188L41.1983 56.7095C40.8832 56.5928 40.6422 56.4173 40.4751 56.183C40.3142 55.9426 40.2335 55.6588 40.2329 55.3316C40.232 54.8131 40.4381 54.4054 40.8511 54.1084C41.2703 53.8052 41.8225 53.653 42.5077 53.6518ZM42.5097 54.8091C42.2628 54.8096 42.0654 54.8716 41.9174 54.9954C41.7757 55.1191 41.705 55.292 41.7054 55.5142C41.7058 55.7303 41.7771 55.903 41.9193 56.0323C42.0676 56.1555 42.2652 56.2169 42.5122 56.2165C42.7591 56.2161 42.9565 56.154 43.1044 56.0303C43.2523 55.9004 43.3261 55.7274 43.3257 55.5114C43.3253 55.2892 43.2509 55.1165 43.1026 54.9933C42.9604 54.8701 42.7628 54.8087 42.5097 54.8091ZM42.5166 58.7719C42.8129 58.7714 43.0443 58.7031 43.2107 58.567C43.3771 58.4309 43.4601 58.2456 43.4597 58.0111C43.4593 57.7703 43.3725 57.5853 43.1995 57.456C43.0326 57.3205 42.8041 57.253 42.514 57.2535C42.23 57.254 42.0018 57.3223 41.8292 57.4584C41.6627 57.5883 41.5797 57.7736 41.5802 58.0143C41.5806 58.2489 41.6642 58.4339 41.8311 58.5694C41.998 58.7049 42.2265 58.7724 42.5166 58.7719ZM48.1273 53.6234C48.9668 53.6219 49.603 53.8893 50.0361 54.4256C50.4691 54.9557 50.6865 55.73 50.6883 56.7484C50.6895 57.483 50.5795 58.085 50.3581 58.5545C50.1429 59.024 49.8441 59.3702 49.4618 59.5931C49.0795 59.8098 48.6383 59.9186 48.1384 59.9194C47.6075 59.9204 47.1444 59.8162 46.749 59.6071C46.3597 59.3917 46.069 59.0527 45.8769 58.5901L47.3017 58.0228C47.3515 58.2388 47.4444 58.4084 47.5804 58.5316C47.7226 58.6548 47.9171 58.7162 48.164 58.7157C48.5529 58.7151 48.8335 58.5664 49.0058 58.2698C49.1843 57.9671 49.273 57.5379 49.2721 56.9824L49.2718 56.8342L49.244 56.8343C49.1396 57.1122 48.9455 57.3163 48.6618 57.4464C48.3842 57.5765 48.0881 57.6418 47.7733 57.6424C47.3844 57.6431 47.0417 57.5665 46.7451 57.4127C46.4486 57.2528 46.2167 57.0309 46.0495 56.7473C45.8824 56.4637 45.7985 56.1274 45.7978 55.7385C45.797 55.3003 45.892 54.9236 46.0828 54.6084C46.2798 54.2933 46.551 54.0521 46.8963 53.8848C47.2479 53.7114 47.6582 53.6242 48.1273 53.6234ZM48.1295 54.8456C47.8579 54.8461 47.645 54.9205 47.491 55.0689C47.3369 55.2173 47.2601 55.4273 47.2606 55.6989C47.2611 55.9458 47.3416 56.1401 47.5024 56.2818C47.6631 56.4173 47.8731 56.4849 48.1323 56.4844C48.3792 56.484 48.5859 56.4095 48.7523 56.2611C48.9187 56.1127 49.0017 55.915 49.0012 55.6681C49.0008 55.415 48.9171 55.2146 48.7502 55.0667C48.5833 54.9189 48.3764 54.8451 48.1295 54.8456Z" fill="#00CA75"/>
<path d="M42.0383 72.9233C42.526 72.9225 42.9582 73.0236 43.3351 73.2266C43.7182 73.4296 43.9935 73.7779 44.161 74.2714L42.8658 74.8848C42.8037 74.6688 42.6954 74.4993 42.5409 74.3761C42.3925 74.2467 42.1918 74.1823 41.9387 74.1827C41.5807 74.1833 41.297 74.3443 41.0877 74.6657C40.8784 74.9808 40.7742 75.4193 40.7752 75.981L40.7755 76.1291L40.7941 76.1846C40.8617 75.9993 40.9756 75.8417 41.1359 75.7118C41.2961 75.5819 41.478 75.4859 41.6816 75.4238C41.8852 75.3556 42.0888 75.3213 42.2925 75.3209C42.6691 75.3203 43.0056 75.3937 43.3021 75.5414C43.5987 75.689 43.8305 75.9015 43.9977 76.179C44.171 76.4565 44.258 76.7866 44.2587 77.1693C44.2594 77.589 44.1644 77.9533 43.9735 78.2623C43.7827 78.5651 43.5146 78.8001 43.1693 78.9674C42.8301 79.1347 42.429 79.2187 41.966 79.2195C41.4414 79.2204 40.9782 79.107 40.5766 78.8794C40.1812 78.6455 39.8719 78.3004 39.6489 77.844C39.4321 77.3814 39.323 76.8106 39.3218 76.1317C39.3206 75.4095 39.4399 74.8105 39.6798 74.3348C39.9197 73.8591 40.2431 73.5067 40.6501 73.2776C41.0633 73.0423 41.526 72.9242 42.0383 72.9233ZM41.9333 76.3956C41.6864 76.396 41.4798 76.4705 41.3134 76.6189C41.147 76.7612 41.064 76.9588 41.0644 77.2119C41.0648 77.4526 41.1485 77.65 41.3154 77.804C41.4885 77.9519 41.6954 78.0256 41.9362 78.0251C42.2139 78.0247 42.4268 77.9533 42.5747 77.8111C42.7287 77.6688 42.8055 77.4681 42.8051 77.2088C42.8046 76.9496 42.7271 76.7491 42.5726 76.6074C42.4242 76.4657 42.2111 76.3951 41.9333 76.3956ZM47.2363 79.2103C46.7055 79.2112 46.2423 79.1101 45.8469 78.9071C45.4577 78.698 45.1299 78.359 44.8637 77.8904L46.2606 77.1935C46.3289 77.4403 46.4373 77.6376 46.5857 77.7855C46.7402 77.9334 46.9688 78.0071 47.2712 78.0065C47.5552 78.006 47.7803 77.9316 47.9467 77.7831C48.1131 77.6285 48.1961 77.4062 48.1955 77.1161C48.1946 76.5544 47.8854 76.274 47.2682 76.2751C46.8423 76.2759 46.5153 76.3968 46.2874 76.6379L45.0833 76.4178L45.4662 73.0099L49.3179 73.0031L49.3201 74.2346L46.6257 74.2393L46.4705 75.4617L46.443 75.6099L46.4522 75.6099C46.5754 75.4677 46.7481 75.3594 46.9702 75.2849C47.1922 75.2105 47.4391 75.173 47.7107 75.1725C48.1119 75.1718 48.4546 75.2515 48.7388 75.4115C49.0292 75.5715 49.2487 75.7902 49.3974 76.0677C49.5522 76.3452 49.6299 76.6629 49.6305 77.021C49.6314 77.5209 49.521 77.9347 49.2994 78.2622C49.0777 78.5836 48.7849 78.8218 48.421 78.9767C48.0571 79.1317 47.6622 79.2095 47.2363 79.2103Z" fill="#FFC700"/>
<path d="M41.8036 92.2319C42.4949 92.2306 43.0476 92.3809 43.4617 92.6826C43.8758 92.9782 44.0833 93.3852 44.0842 93.9037C44.0847 94.2309 44.005 94.5149 43.8449 94.756C43.6849 94.9908 43.4475 95.1671 43.1329 95.285L43.1329 95.2942C43.5035 95.417 43.7909 95.5986 43.995 95.839C44.1991 96.0732 44.3015 96.3755 44.3021 96.7458C44.303 97.2767 44.0816 97.703 43.6377 98.0247C43.2 98.3465 42.5923 98.508 41.8146 98.5094C41.043 98.5107 40.4347 98.3513 39.9897 98.0311C39.5509 97.7109 39.331 97.2854 39.3301 96.7545C39.3294 96.3842 39.4308 96.0815 39.634 95.8466C39.8373 95.6055 40.124 95.4229 40.4942 95.2988L40.4941 95.2896C40.1791 95.1729 39.9381 94.9974 39.771 94.7631C39.6101 94.5227 39.5294 94.2389 39.5288 93.9117C39.5279 93.3932 39.734 92.9855 40.147 92.6884C40.5662 92.3853 41.1184 92.2331 41.8036 92.2319ZM41.8056 93.3892C41.5587 93.3896 41.3613 93.4517 41.2133 93.5754C41.0716 93.6991 41.0009 93.8721 41.0013 94.0943C41.0017 94.3103 41.073 94.4831 41.2152 94.6124C41.3635 94.7356 41.5611 94.797 41.808 94.7966C42.055 94.7961 42.2524 94.7341 42.4003 94.6103C42.5482 94.4805 42.622 94.3075 42.6216 94.0915C42.6212 93.8692 42.5468 93.6965 42.3985 93.5734C42.2563 93.4502 42.0587 93.3888 41.8056 93.3892ZM41.8125 97.352C42.1088 97.3515 42.3402 97.2832 42.5066 97.1471C42.673 97.011 42.756 96.8257 42.7556 96.5911C42.7552 96.3504 42.6684 96.1654 42.4954 96.0361C42.3285 95.9005 42.1 95.833 41.8099 95.8336C41.5259 95.8341 41.2977 95.9024 41.1251 96.0385C40.9586 96.1684 40.8756 96.3537 40.8761 96.5944C40.8765 96.829 40.9601 97.014 41.127 97.1495C41.2939 97.285 41.5224 97.3525 41.8125 97.352ZM47.436 98.4995C46.7817 98.5007 46.2383 98.3751 45.8058 98.1228C45.3732 97.8643 45.0701 97.4883 44.8964 96.9948L46.3582 96.3626C46.3958 96.6959 46.5012 96.9302 46.6743 97.0657C46.8535 97.2012 47.0851 97.2687 47.369 97.2682C47.6221 97.2678 47.8226 97.2026 47.9705 97.0727C48.1184 96.9367 48.1922 96.7544 48.1918 96.526C48.1914 96.2915 48.1201 96.1219 47.9779 96.0172C47.8358 95.9125 47.6351 95.8604 47.3758 95.8608C47.2277 95.8611 47.0765 95.8706 46.9222 95.8894L46.9204 94.8524C46.9698 94.8585 47.0191 94.8646 47.0685 94.8707C47.1179 94.8706 47.1766 94.8705 47.2445 94.8704C47.5284 94.8699 47.7351 94.8109 47.8645 94.6934C47.9939 94.5697 48.0584 94.3782 48.0579 94.119C48.0575 93.8968 47.9924 93.7271 47.8626 93.6101C47.7389 93.493 47.5629 93.4347 47.3345 93.4351C47.0876 93.4355 46.8871 93.5007 46.733 93.6306C46.5851 93.7605 46.4898 93.9736 46.4471 94.2699L45.0482 93.7909C45.1155 93.4513 45.2601 93.164 45.4819 92.9291C45.7037 92.6941 45.9811 92.5146 46.3142 92.3906C46.6535 92.2666 47.0268 92.2042 47.4342 92.2035C48.1317 92.2022 48.6659 92.3525 49.0368 92.6543C49.4139 92.9561 49.6028 93.3632 49.6037 93.8755C49.6042 94.1409 49.5614 94.3632 49.4753 94.5424C49.3953 94.7215 49.2907 94.8668 49.1612 94.9781C49.038 95.0894 48.9116 95.173 48.7821 95.2288C48.6525 95.2784 48.5446 95.3094 48.4582 95.3219L48.4582 95.3497C48.5693 95.3495 48.6959 95.3709 48.8379 95.4138C48.98 95.4568 49.119 95.5275 49.255 95.6261C49.3909 95.7246 49.5023 95.8571 49.589 96.0236C49.6818 96.1839 49.7285 96.3876 49.7289 96.6345C49.7296 97.0172 49.6283 97.3476 49.4251 97.6257C49.2281 97.9038 48.9569 98.1203 48.6115 98.2752C48.2661 98.424 47.8742 98.4987 47.436 98.4995Z" fill="#00CA75"/>
<path d="M39.2449 111.6L44.2725 111.591L44.2744 112.72C43.7692 113.215 43.3688 113.728 43.0735 114.259C42.7843 114.785 42.5785 115.334 42.456 115.909C42.3398 116.483 42.2822 117.082 42.2833 117.705L40.7092 117.708C40.7076 116.788 40.8666 115.93 41.1862 115.133C41.5058 114.33 42.0167 113.567 42.7192 112.843L39.2471 112.849L39.2449 111.6ZM47.1228 117.789C46.592 117.79 46.1289 117.689 45.7335 117.486C45.3442 117.277 45.0165 116.938 44.7502 116.469L46.1471 115.772C46.2155 116.019 46.3238 116.217 46.4722 116.364C46.6268 116.512 46.8553 116.586 47.1578 116.585C47.4417 116.585 47.6669 116.511 47.8333 116.362C47.9997 116.207 48.0826 115.985 48.0821 115.695C48.0811 115.133 47.772 114.853 47.1547 114.854C46.7288 114.855 46.4019 114.976 46.1739 115.217L44.9699 114.997L45.3528 111.589L49.2045 111.582L49.2066 112.814L46.5123 112.818L46.357 114.041L46.3295 114.189L46.3388 114.189C46.462 114.047 46.6346 113.938 46.8567 113.864C47.0788 113.789 47.3256 113.752 47.5972 113.751C47.9984 113.751 48.3412 113.83 48.6254 113.99C48.9158 114.15 49.1353 114.369 49.2839 114.647C49.4387 114.924 49.5164 115.242 49.5171 115.6C49.5179 116.1 49.4076 116.514 49.1859 116.841C48.9643 117.163 48.6715 117.401 48.3076 117.556C47.9437 117.711 47.5487 117.788 47.1228 117.789Z" fill="#00CA75"/>
<path d="M40.8852 138.515L40.8897 141.108L43.9081 141.102L43.9035 138.51L44.9035 138.508L44.9142 144.619L43.9143 144.621L43.9096 141.954L40.8912 141.959L40.8959 144.626L39.9052 144.628L39.8945 138.517L40.8852 138.515ZM48.5215 139.891C48.9721 139.89 49.3704 139.985 49.7164 140.176C50.0624 140.366 50.3313 140.644 50.5233 141.007C50.7215 141.365 50.821 141.794 50.8219 142.294C50.8228 142.794 50.7247 143.226 50.5279 143.591C50.3371 143.949 50.0691 144.224 49.7238 144.416C49.3785 144.608 48.9805 144.704 48.5299 144.705C48.0793 144.706 47.681 144.611 47.335 144.42C46.989 144.23 46.7169 143.955 46.5188 143.598C46.3206 143.234 46.2211 142.802 46.2202 142.302C46.2193 141.802 46.3174 141.373 46.5142 141.014C46.7111 140.65 46.9822 140.372 47.3276 140.18C47.6729 139.988 48.0709 139.891 48.5215 139.891ZM48.5228 140.668C48.1154 140.669 47.7947 140.812 47.5606 141.096C47.3266 141.374 47.21 141.776 47.2109 142.3C47.2118 142.825 47.3298 143.229 47.5649 143.513C47.7999 143.79 48.1211 143.928 48.5285 143.928C48.9359 143.927 49.2536 143.787 49.4815 143.509C49.7155 143.225 49.8321 142.82 49.8312 142.296C49.8303 141.771 49.7123 141.37 49.4772 141.093C49.2483 140.809 48.9302 140.668 48.5228 140.668ZM57.8172 139.967L58.8912 139.965L57.3438 144.597L56.2605 144.599L55.0879 141.166L53.9921 144.603L52.9088 144.605L51.3545 139.978L52.4192 139.976L53.4812 143.632L54.6229 139.973L55.6136 139.971L56.7681 143.626L57.8172 139.967ZM63.1508 139.18C62.9347 139.18 62.768 139.128 62.6505 139.023C62.5392 138.912 62.4834 138.758 62.4831 138.561C62.4827 138.363 62.538 138.212 62.6489 138.107C62.766 138.002 62.9326 137.949 63.1486 137.948C63.3585 137.948 63.5191 138 63.6304 138.105C63.7478 138.21 63.8067 138.361 63.8071 138.558C63.8074 138.756 63.7491 138.91 63.632 139.022C63.521 139.127 63.3607 139.179 63.1508 139.18ZM63.6429 139.957L63.651 144.586L62.6603 144.588L62.6522 139.958L63.6429 139.957ZM68.1373 139.949L68.1386 140.727L66.5461 140.729L66.5504 143.192C66.5508 143.414 66.6128 143.581 66.7365 143.692C66.8601 143.797 67.0207 143.849 67.2182 143.848C67.391 143.848 67.536 143.823 67.6532 143.774C67.7766 143.718 67.8907 143.644 67.9954 143.551L68.2189 144.273C68.0772 144.396 67.9014 144.495 67.6917 144.57C67.4881 144.638 67.2598 144.672 67.0067 144.673C66.5993 144.674 66.2566 144.575 65.9784 144.378C65.7003 144.175 65.5608 143.836 65.56 143.361L65.5554 140.731L64.6665 140.733L64.6652 139.955L65.554 139.953L65.5521 138.87L66.5423 138.591L66.5447 139.952L68.1373 139.949ZM77.8087 139.932L78.8828 139.93L77.3354 144.562L76.2521 144.564L75.0795 141.131L73.9837 144.568L72.9004 144.57L71.346 139.943L72.4108 139.941L73.4727 143.597L74.6144 139.937L75.6051 139.936L76.7596 143.591L77.8087 139.932ZM81.7141 139.832C82.1647 139.832 82.563 139.927 82.909 140.117C83.255 140.308 83.524 140.585 83.716 140.949C83.9142 141.307 84.0137 141.736 84.0146 142.236C84.0154 142.736 83.9174 143.168 83.7205 143.532C83.5298 143.891 83.2618 144.166 82.9165 144.358C82.5711 144.55 82.1732 144.646 81.7226 144.647C81.272 144.648 80.8737 144.553 80.5277 144.362C80.1817 144.171 79.9096 143.897 79.7115 143.54C79.5133 143.176 79.4138 142.744 79.4129 142.244C79.412 141.744 79.51 141.315 79.7069 140.956C79.9038 140.592 80.1749 140.314 80.5202 140.122C80.8656 139.93 81.2635 139.833 81.7141 139.832ZM81.7155 140.61C81.3081 140.611 80.9874 140.753 80.7533 141.038C80.5193 141.316 80.4027 141.717 80.4036 142.242C80.4045 142.767 80.5225 143.171 80.7576 143.454C80.9926 143.732 81.3138 143.87 81.7212 143.869C82.1286 143.869 82.4463 143.729 82.6741 143.451C82.9082 143.167 83.0248 142.762 83.0239 142.237C83.0229 141.713 82.905 141.312 82.6699 141.034C82.441 140.751 82.1229 140.609 81.7155 140.61ZM85.265 144.548L85.2568 139.919L86.0994 139.917L86.1934 140.75C86.4454 140.133 86.9294 139.823 87.6455 139.822C87.738 139.822 87.8307 139.831 87.9233 139.849C88.0159 139.862 88.0931 139.883 88.1549 139.914L88.0175 140.784C87.9496 140.76 87.8724 140.741 87.7859 140.729C87.7057 140.711 87.5945 140.702 87.4526 140.702C87.255 140.702 87.0638 140.755 86.8788 140.86C86.7 140.959 86.549 141.114 86.4259 141.324C86.309 141.528 86.2508 141.784 86.2513 142.093L86.2556 144.547L85.265 144.548ZM93.4608 139.904L91.6955 141.722L93.58 144.534L92.4319 144.536L91.0022 142.362L90.0872 143.308L90.0894 144.54L89.0987 144.542L89.0869 137.829L90.0776 137.827L90.0852 142.17L92.2849 139.907L93.4608 139.904ZM96.1747 144.622C95.7117 144.623 95.2887 144.534 94.9057 144.355C94.5227 144.177 94.2198 143.925 93.997 143.598L94.6811 143.004C94.8174 143.257 95.0122 143.46 95.2655 143.614C95.525 143.762 95.8338 143.835 96.1918 143.835C96.4757 143.834 96.701 143.784 96.8674 143.685C97.0339 143.586 97.117 143.447 97.1167 143.268C97.1165 143.151 97.0762 143.049 96.9958 142.963C96.9216 142.87 96.7764 142.8 96.5603 142.751L95.5877 142.549C95.0937 142.451 94.7416 142.291 94.5314 142.069C94.3211 141.847 94.2157 141.57 94.2151 141.236C94.2147 140.983 94.2883 140.749 94.4361 140.532C94.59 140.316 94.8088 140.143 95.0925 140.013C95.3763 139.876 95.7187 139.808 96.1199 139.807C96.5767 139.806 96.9688 139.889 97.2962 140.055C97.6298 140.215 97.8833 140.446 98.0567 140.748L97.3725 141.323C97.2487 141.077 97.0724 140.895 96.8438 140.778C96.6214 140.655 96.3867 140.594 96.1398 140.594C95.8374 140.595 95.6029 140.651 95.4364 140.762C95.2761 140.867 95.1961 141.006 95.1964 141.179C95.1966 141.296 95.2431 141.404 95.3359 141.503C95.4286 141.595 95.5954 141.666 95.8362 141.715L96.8921 141.935C97.3367 142.021 97.6487 142.169 97.8281 142.378C98.0136 142.582 98.1066 142.831 98.1072 143.128C98.1079 143.572 97.9357 143.933 97.5906 144.212C97.2454 144.484 96.7734 144.621 96.1747 144.622ZM100.994 138.317C101.408 138.316 101.775 138.381 102.096 138.51C102.417 138.633 102.671 138.814 102.856 139.055C103.042 139.295 103.135 139.585 103.136 139.925C103.136 140.295 103.057 140.601 102.897 140.842C102.743 141.083 102.533 141.268 102.268 141.398C102.003 141.528 101.71 141.609 101.389 141.64L101.363 142.576L100.409 142.577L100.407 141.179C101.011 141.104 101.44 140.98 101.693 140.807C101.952 140.627 102.081 140.377 102.08 140.056C102.08 139.791 101.984 139.581 101.792 139.427C101.607 139.267 101.32 139.187 100.931 139.188C100.567 139.188 100.271 139.291 100.043 139.495C99.8145 139.699 99.6792 139.983 99.6367 140.347L98.7193 139.932C98.8234 139.457 99.0665 139.071 99.4487 138.774C99.8371 138.47 100.352 138.318 100.994 138.317ZM100.892 143.289C101.102 143.289 101.268 143.35 101.392 143.474C101.516 143.591 101.578 143.748 101.578 143.946C101.578 144.149 101.517 144.31 101.394 144.427C101.27 144.545 101.104 144.604 100.894 144.604C100.678 144.605 100.508 144.546 100.385 144.429C100.261 144.312 100.199 144.152 100.198 143.948C100.198 143.751 100.26 143.593 100.383 143.476C100.506 143.352 100.676 143.29 100.892 143.289Z" fill="#8E91A5"/>
<path d="M112.876 144.688L114.034 144.686L114.032 143.528L112.874 143.53L112.876 144.688ZM113.439 135.428C110.244 135.433 107.656 138.03 107.662 141.225C107.668 144.419 110.265 147.007 113.459 147.001C116.653 146.996 119.241 144.399 119.236 141.204C119.23 138.01 116.633 135.422 113.439 135.428ZM113.457 145.844C110.905 145.849 108.824 143.775 108.819 141.223C108.815 138.671 110.889 136.59 113.441 136.585C115.993 136.581 118.074 138.655 118.078 141.207C118.083 143.758 116.009 145.84 113.457 145.844ZM113.443 137.743C112.164 137.745 111.13 138.782 111.132 140.061L112.289 140.059C112.288 139.423 112.808 138.901 113.445 138.9C114.081 138.899 114.603 139.419 114.604 140.055C114.606 141.213 112.87 141.071 112.873 142.952L114.031 142.95C114.028 141.648 115.764 141.5 115.761 140.053C115.759 138.774 114.722 137.74 113.443 137.743Z" fill="white" fill-opacity="0.39"/>
</g>
<path d="M136 21.5815L139.327 24.662L142.945 21.5694" stroke="white" stroke-opacity="0.19" stroke-width="1.54315"/>
<path d="M16.3097 17.8592L14.6652 18.1597L14.3647 16.5152L16.0092 16.2147L16.3097 17.8592ZM19.2982 15.6136L17.6537 15.9142L17.9542 17.5587L19.5987 17.2582L19.2982 15.6136ZM15.8673 24.7377L17.5118 24.4372L17.2113 22.7927L15.5668 23.0932L15.8673 24.7377ZM23.4888 19.9462L23.1883 18.3016L21.5438 18.6022L21.8443 20.2467L23.4888 19.9462ZM24.0898 23.2352L23.7893 21.5907L22.1448 21.8912L22.4453 23.5357L24.0898 23.2352ZM19.1563 24.1367L20.8008 23.8362L20.5003 22.1917L18.8558 22.4922L19.1563 24.1367ZM22.5873 15.0126L20.9427 15.3131L21.2433 16.9576L22.8878 16.6571L22.5873 15.0126ZM18.2548 19.2032L17.9542 17.5587L16.3097 17.8592L16.6102 19.5037L18.2548 19.2032ZM13.6217 21.7492L13.3212 20.1047L14.9657 19.8042L14.6652 18.1597L13.0207 18.4602L12.7202 16.8157L11.0757 17.1162L13.4798 30.2723L15.1243 29.9718L13.9222 23.3937L15.5668 23.0932L15.2662 21.4487L13.6217 21.7492ZM20.5003 22.1917L22.1448 21.8912L21.8443 20.2467L20.1998 20.5472L20.5003 22.1917ZM16.9108 21.1482L17.2113 22.7927L18.8558 22.4922L18.5553 20.8477L16.9108 21.1482ZM14.9657 19.8042L15.2662 21.4487L16.9108 21.1482L16.6102 19.5037L14.9657 19.8042ZM18.5553 20.8477L20.1998 20.5472L19.8993 18.9027L18.2548 19.2032L18.5553 20.8477ZM19.5987 17.2582L19.8993 18.9027L21.5438 18.6022L21.2433 16.9576L19.5987 17.2582Z" fill="url(#paint0_linear_404_16077)"/>
<defs>
<linearGradient id="paint0_linear_404_16077" x1="11.2123" y1="17.8637" x2="23.6063" y2="16.662" gradientUnits="userSpaceOnUse">
<stop stop-color="#27E65C"/>
<stop offset="0.510417" stop-color="#587BFF"/>
<stop offset="1" stop-color="#B518FF"/>
</linearGradient>
</defs>
</svg>
